/* XPM */
static char *_7764_7063e9e16dd100f3792dc5a944d5c799bff867c5034579d382ebe5a4a4d7f1ff[] = {
/* columns rows colors chars-per-pixel */
"80 80 92 1 ",
"  c black",
". c #0B0000",
"X c #000A06",
"o c #000E0A",
"O c #0B0B0B",
"+ c #001C1A",
"@ c #131313",
"# c #191213",
"$ c #1D1718",
"% c #171818",
"& c #1C1C1C",
"* c #2B0000",
"= c #0F2422",
"- c #1F2121",
"; c #242424",
": c #272828",
"> c #2A2A2A",
", c #2F3030",
"< c #333333",
"1 c #373838",
"2 c #3B3B3B",
"3 c #441E24",
"4 c #4A2A2E",
"5 c #4C2F33",
"6 c #4E3236",
"7 c #51373A",
"8 c #423F40",
"9 c #3F4040",
"0 c #414141",
"q c #474848",
"w c #4B4C4C",
"e c #555555",
"r c #585656",
"t c #5B5B5B",
"y c #646464",
"u c #6B6B6B",
"i c #747474",
"p c #787777",
"a c #7B7B7B",
"s c #FD798E",
"d c #848484",
"f c #8B8B8B",
"g c #908F8F",
"h c #939393",
"j c #9C9B9B",
"k c #A09F9F",
"l c #A4A3A3",
"z c #ACACAC",
"x c #B0AFAF",
"c c #B3B3B3",
"v c #B8B7B7",
"b c #B5B8B7",
"n c #BBBBBB",
"m c #FC8496",
"M c #FC8698",
"N c #F48D9C",
"B c #FC8B9C",
"V c #FC909F",
"C c #FC93A2",
"Z c #FC98A6",
"A c #FC9DAA",
"S c #C2BEBE",
"D c #FBA5B0",
"F c #FAACB6",
"G c #FAB6BE",
"H c #F9BFC5",
"J c #C3C3C3",
"K c #C8C7C7",
"L c #CDCCCC",
"P c #D0CECE",
"I c #D4D4D4",
"U c #D8D6D6",
"Y c #DCDBDB",
"T c #F9C6CC",
"R c #F9C8CD",
"E c #F8CBD0",
"W c #E0DFDF",
"Q c #F8D6DA",
"! c #F7DADE",
"~ c #F8D8DC",
"^ c #E5E4E4",
"/ c #E8E7E7",
"( c #ECEBEB",
") c #F6E5E7",
"_ c #F6E6E8",
"` c #F4EBEC",
"' c #F4F4F4",
"] c #F8F7F7",
"[ c #F5F8F7",
"{ c #F4FAFA",
"} c #FEFEFE",
"| c None",
/* pixels */
"||||||||||||||||||||||||||||||||||||||||||||||||||||||||||||||||||||||||||||||||",
"||||||||||||||||||||||||||||||||||||||||||||||||||||||||||||||||||||||||||||||||",
"||||||||||||||||||||||||||||||||0121222222222122||||||||||||||||||||||||||||||||",
"|||||||||||||||||||||||||||||||dhffffffffffffffh||||||||||||||||||||||||||||||||",
"||||||||||||||||||||||||||111q c'/(((((//(((((/'h 0121||||||||||||||||||||||||||",
"||||||||||||||||||||||||||hgghdS(//(((((((/(((^(cfhghh||||||||||||||||||||||||||",
"|||||||||||||||||||||||| u(((((/^`]'''''''''''(^(((((^7-||||||||||||||||||||||||",
"||||||||||||||||||||||||lv^/(((((']]]}]{]}]}{'`(((((/Wxl||||||||||||||||||||||||",
"||||||||||||||||||||>1>:Y[^(]''][''}}}}}}}}}}''']]''/^'Y:,1>||||||||||||||||||||",
"||||||||||||||||||||jvccY/(`''}{{{]}}}}}}}}}}{{}{{]'`(/Yccvj||||||||||||||||||||",
"||||||||||||||||||| v'((/(''']}}}}}}}}}}}}}}}}}}}}''][/((({v |||||||||||||||||||",
"|||||||||||||||||2lLU(('('''}}}}}}}}}}}}}}}}}}}}}}}{['(`(((ULg0|||||||||||||||||",
"||||||||||||||||| z'/^']''''}}}}}}}}}}}}}}}}}}}}}}}}''''{(^('h |||||||||||||||||",
"|||||||||||||||1jLU^('''{}}}}}}}}}}}}}}}}}}}}}}}}}}}{}}}'''(^ILdq|||||||||||||||",
"||||||||||||||| l'/^`'''}}}}}}}}}}}}}}}}}}}}}}}}}}}}}}}}'''(^('d-|||||||||||||||",
"|||||||||||||0pLU^('['{}}}}}}}}}}}}}}}}}}}}}}}}}}}}}}}}}}}['`(/IPp2|||||||||||||",
"|||||||||||||0d((^`]['}}}}}}}}}}}}}}}}}}}}}}}}}}}}}}}}}}}}'''(/((d0|||||||||||||",
"|||||||||||||1i^(''']}}}}}}}}}}}}}}}}}}}}}}}}}}}}}}}}}}}}}}}'''(/p1|||||||||||||",
"|||||||||||||rd^(']'{}}}}}}}}}}}}}}}}}}}}}}}}}}}}}}}}}}}}}}{'''(/dr|||||||||||||",
"|||||||||||>yY^^('{}}}}}}}}}}}}}}}}}}}}}}}}}}}}}}}}}}}}}}}}}}''(^^I21|||||||||||",
"|||||||||||ah^(/('{}}}}}}}}}}}}}}}}}}}}}}}}}}}}}}}}}}}}}{}}}}]](((Yfa|||||||||||",
"|||||||||wy^(^/'''}}}}}}}}}}}}}}}}}}}}}}}}}}}}}}}}}}}}}}}}}}}{'''(^`Uqe|||||||||",
"|||||||||qyW((`''{(^^^^^{}}}}}}}}}}}}}}}}}}}}}}}}}}}}}}{^^^^^']''(((Iwe|||||||||",
"|||||||||qyY('{{}}K     (}}}}}}}}}}}}}}}}}}}}}}}}}}}}}}(     W}{{''(Iqe|||||||||",
"|||||||||euY([(UU(z 11<>I^Y/}}}}}}}}}}}}}}}}}}}}}}}}^^^P><1< J^UI''(Iet|||||||||",
"|||||||||%qW(]^    -       u}}}}}}}}}}}}}}}}}}}}}}}{,       &    ^'(IO>|||||||||",
"|||||||||jc^('^;&:: dccxbz p}}}}}}}}}}}}}}}}}}}}}}}'q2cccccd >>%;^'(Yxl|||||||||",
"|||||||rqI'^^}(@ %> K}}}}} p}}}}}}}}}}}}}}}}}}}}}}}}2t}}}}}K >% @(}^^'Pqr|||||||",
"|||||||r2L((/Sz%O@> n}{}}'OrnI}}}}}}}}}}}}}}}}}}}}Ic;t}}}{}n >@O%zK(((L2r|||||||",
"|||||||r7L([(  &OO> S}}}}(<  p}}}}}}}}}}}}}}}}}}}}a  y}}}}}J >OO; w''(L0r|||||||",
"|||||||r9L([(q%%&>, n}}{}`>; f}}}}}}}}}}}}}}}}}}}}g  y}}}{}n <>@; u'((L9r|||||||",
"|||||||r9L({(1 ;    K}}}}{<% f}}}}}}}}}}}}}}}}}}}}f  y}}}}}K    : u'[(L9r|||||||",
"|||||||r0L('(0- d^z ijhhjf%> f}}}}}}}}}}}}}}}}}}}}f -1hhhhji n^u  u''(L0r|||||||",
"|||||||r0L('(   l}K       @& d}}}}}}}}}}}}}}}}}}}}d :    .   ^}d  t''(L9r|||||||",
"|||||||r9L(['^L tdc(l <::, uY/}}}}}}}}}}}}}}}}}}}}(Iq ,:>< l(ldq L^'((L0r|||||||",
"|||||||r0L(''}';O z}v >O@> a}}}}}}}}}}}}}}}}}}}}}}}}w -@O: v}d @-'}''(L0r|||||||",
"|||||||r9L('[}(  @2t2 @@ O i}}}}}}}}}}}}}}}}}}}}}}}'q   @@ 2t<@  (}''(L8r|||||||",
"|||||||r0L(''}(910:  $##1q@d}}}}}}}}}}}}}}}}}}}}}}}{t<01##&  ,729(}'`(L9r|||||||",
"|||||||r8L(''}}(/'v =X  I'''}}}}}}}}}}}}}}}}}}}}}}}}'''U  o+ L[/(}}'((L0r|||||||",
"|||||||r9L('[}}]'}S.7543^}}}}}}}}}}}}}}}}}}}}}}}}}}}}}{^3456*I{['}}'[(L9r|||||||",
"|||||||r8L('''']~CZNNNNN`]''}}}}}}}}}}}}}}}}}}}}}}}}'']`NNNNNCZ`]']''(L8r|||||||",
"|||||||r9L(['''`EmCCCCCC~`']}}}}}}}}}}}}}}}}}}}}}}}}''`~CCCCCCBQ_'[''(L9r|||||||",
"|||||||r8L('']`BBCCCCVCCBA''}}}}}}}}}}}}}}}}}}}}}}}}{`CBVCBCCCCBV`]'((L9r|||||||",
"|||||||r9L('']`ZCCCCCCVCBD']}}}}}}}}}}}}}}}}}}}}}}}}{`CCCCCCCCCCC`]]'(L8r|||||||",
"|||||||r0L('']_MBCCCCCCCmZ']}}}}}}}}}}}}}}}}}}}}}}}}'`BMCCCCCCCBM_]''(L9r|||||||",
"|||||||r0L('']`HFCCCCCCCFT']}}}}}}}}}}}}}}}}}}}}}}}}]`HFCCCCCCCFH`]'`(L0r|||||||",
"|||||||r9L(']['{QsBMMmBm`]''}}}}}}}}}}}}}}}}}}}}}}}}''{`mMMMMMm){'[]((L9r|||||||",
"|||||||r9L('']]')TRRRRTT`]{}}}}}}}}}}}}}}}}}}}}}}}}}}{]`RRRRRRT`']{'[(L9r|||||||",
"|||||||r9L(''}}'']{]{{{{]'}}}}}}}}}}}}}}}}}}}}}}}}}}}}'']{{{{']''}}'`(L0r|||||||",
"|||||||r9L(''}}{}{]]{{]{]}}}}}}}}}}}}}}}}}}}}}}}}}}}}}{}]{]{]}]}{}}''(L0r|||||||",
"|||||||r0L(''}}}}}}}}}}}}}}}}}}}}}}}}}}}}}}}}}}}}}}}}}}}}}}}}}}}}}}{'(L0r|||||||",
"|||||||r9L(''}}}}}}}}}}}}}}}}}}}}}}}}}}}}}}}}}}}}}}}}}}}}}}}}}}}}}}'((L0r|||||||",
"|||||||r0L('{}}}}}}}}}}}}}}}}}}}}}}}}}}}}}}}}}}}}}}}}}}}}}}}}}}}}}}''(L2r|||||||",
"|||||||r0L(']}}}}}}}}}}}}}}}}}}}}}}}}}}}}}}}}}}}}}}}}}}}}}}}}}}}}}}''(L0r|||||||",
"|||||||r8L(''}}}}}}}}}}}}}}}}}}}}}}}}}}}}}}}}}}}}}}}}}}}}}}}}}}}}}}'`(L0r|||||||",
"|||||||r9L(']]]{{]{]]{}}}}}}{]{]{]]{'}}}}}}{]]]'{]]{}}}}}}}}]{]{{{'['(L9r|||||||",
"|||||||r0L(''[''''''''}}}}}}'['['''''}}}}}}'''['''''}}}}}}}{''''''''`(L8r|||||||",
"|||||||r9L((]]'/((//`'''}}''''^(/(^''''}}'''`((((/[]''}}''{(/((/('[''(L9r|||||||",
"|||||||r9L`''''^^^^^(['[}}'''(^^^/^`]''}}'''(^^^^^('''}}'''`^^^^^'''((L0r|||||||",
"|||||||r9L(['/^'L1v'(/(]''''/([S<J'//'{''''^('x2P'((''''{'//`lwY((('[(L9r|||||||",
"|||||||r0L(''^^Uv lUY^('''''^WYx cUY/`''''(^^Uj nU^/(''['((YUf KY^([`(L9r|||||||",
"|||||||r0L(^^'Yeq||-v'(/''^^`I2w|e>K'/^['/('J>||w2I'^(][^/'v-||qwW(^^(L0r|||||||",
"|||||||r0L(^^UKre||<zUY^'((^IJq|||1vI^/'(/^Iv1||rqSI^/'`(YUz<||eeKU/^(L9r|||||||",
"|||||||r0L((^t1|||||q1I'^^'Uq0|||||0wY`^^'L>w|||||1y/(^^'J%w|||||>a(((L9r|||||||",
"|||||||r0K(IKyw||||||qJI^^IKwr||||||rKI^WIn0||||||wuLI(^Ic1||||||0pII(K0r|||||||",
"|||||||r2I'y>|||||||||21W^w1|||||||||1e(U<q|||||||||>u'U92|||||||||&d]I2r|||||||",
"|||||||eqznu|||||||||||ecvt|||||||||||tvcq||||||||||qivce||||||||||qaSlqe|||||||",
"|||||||wt2>|||||||||||||><|||||||||||||<>|||||||||||||1>|||||||||||||<2te|||||||",
"||||||||err|||||||||||||tt|||||||||||||tt|||||||||||||tt|||||||||||||ttw||||||||",
"||||||||||||||||||||||||||||||||||||||||||||||||||||||||||||||||||||||||||||||||",
"||||||||||||||||||||||||||||||||||||||||||||||||||||||||||||||||||||||||||||||||",
"||||||||||||||||||||||||||||||||||||||||||||||||||||||||||||||||||||||||||||||||",
"||||||||||||||||||||||||||||||||||||||||||||||||||||||||||||||||||||||||||||||||",
"||||||||||||||||||||||||||||||||||||||||||||||||||||||||||||||||||||||||||||||||",
"||||||||||||||||||||||||||||||||||||||||||||||||||||||||||||||||||||||||||||||||",
"||||||||||||||||||||||||||||||||||||||||||||||||||||||||||||||||||||||||||||||||",
"||||||||||||||||||||||||||||||||||||||||||||||||||||||||||||||||||||||||||||||||",
"||||||||||||||||||||||||||||||||||||||||||||||||||||||||||||||||||||||||||||||||",
"||||||||||||||||||||||||||||||||||||||||||||||||||||||||||||||||||||||||||||||||",
"||||||||||||||||||||||||||||||||||||||||||||||||||||||||||||||||||||||||||||||||"
};
