/* XPM */
static char *_60_eba7f3292d290cafdc0dd7380d2eccf981bcc1a6cd62396aa6f07a1d3b1c4942[] = {
/* columns rows colors chars-per-pixel */
"80 80 91 1 ",
"  c #000000",
". c #000A00",
"X c #070A0A",
"o c #0B0B0B",
"O c #170001",
"+ c #0D100F",
"@ c #0D1010",
"# c #001811",
"$ c #131414",
"% c #1C1C1C",
"& c #241719",
"* c #271B1D",
"= c #1F2020",
"- c #242424",
"; c #2C2C2C",
": c #342C2D",
"> c #2F3030",
", c #333333",
"< c #3C3536",
"1 c #3B3B3B",
"2 c #6D192B",
"3 c #732E3A",
"4 c #3F4040",
"5 c #414141",
"6 c #4B4B4B",
"7 c #555555",
"8 c #585656",
"9 c #5C5B5B",
"0 c #7C424A",
"q c #7E484F",
"w c #7F4A52",
"e c #605E5E",
"r c #646464",
"t c #6B6B6B",
"y c #747373",
"u c #7B7B7B",
"i c #814D54",
"p c #FD788E",
"a c #838383",
"s c #8C8C8C",
"d c #908F8F",
"f c #929292",
"g c #9A9999",
"h c #A3A3A3",
"j c #A8A6A6",
"k c #ACABAB",
"l c #B0AFAF",
"z c #B4B4B4",
"x c #B8B7B7",
"c c #B5BABA",
"v c #BCBCBC",
"b c #FC8396",
"n c #FC8698",
"m c #FC8B9C",
"M c #FB909F",
"N c #FC93A2",
"B c #FC9AA7",
"V c #FB9DAA",
"C c #CEB7BA",
"Z c #C0BFBF",
"A c #FBA6B1",
"S c #FAB7BF",
"D c #F9BEC5",
"F c #C3C3C3",
"G c #CDCCCC",
"H c #D0CFCF",
"J c #DECACC",
"K c #CBD0CF",
"L c #D4D3D3",
"P c #DCDCDC",
"I c #F9CACF",
"U c #F9CBD0",
"Y c #E0DFDF",
"T c #F8D0D4",
"R c #F7D6DA",
"E c #F8D4D8",
"W c #F7DADD",
"Q c #E5E4E4",
"! c #E8E7E7",
"~ c #ECECEC",
"^ c #F6E6E7",
"/ c #F6E7E8",
"( c #F4ECED",
") c #FEEDEE",
"_ c #F6EFF0",
"` c #F4F4F4",
"' c #F8F7F7",
"] c #F5F8F7",
"[ c #F4FBFA",
"{ c #FFFFFF",
"} c None",
/* pixels */
"}}}}}}}}}}}}}}}}}}}}}}}}}}}}}}}}}}}}}}}}}}}}}}}}}}}}}}}}}}}}}}}}}}}}}}}}}}}}}}}}",
"}}}}}}}}}}}}}}}}}}}}}}}}}}}}}}}}}}}}}}}}}}}}}}}}}}}}}}}}}}}}}}}}}}}}}}}}}}}}}}}}",
"}}}}}}}}}}}}}}}}}}}}}}}}}}}}}}}}}}}}}}}}}}}}}}}}}}}}}}}}}}}}}}}}}}}}}}}}}}}}}}}}",
"}}}}}}}}}}}}}}}}}}}}}}}}}}}}}}}}}}}}}}}}}}}}}}}}}}}}}}}}}}}}}}}}}}}}}}}}}}}}}}}}",
"}}}}}}}}}}}}}}}}}}}}}}}}}}}}}}}}1111111111111114}}}}}}}}}}}}}}}}}}}}}}}}}}}}}}}}",
"}}}}}}}}}}}}}}}}}}}}}}}}}}}}}}}sgsdsdddsfssdsdsfa}}}}}}}}}}}}}}}}}}}}}}}}}}}}}}}",
"}}}}}}}}}}}}}}}}}}}}}}}}}}>,;1 k`~~~~~~~~~~~~~~`g 1>,>}}}}}}}}}}}}}}}}}}}}}}}}}}",
"}}}}}}}}}}}}}}}}}}}}}}}}}ykkkzjG~!~~~~~~~~~~~~!!vjkkkj}}}}}}}}}}}}}}}}}}}}}}}}}}",
"}}}}}}}}}}}}}}}}}}}}}}}} t~~~~~~Q~''''''`'''''~Q~~~~~Q5-}}}}}}}}}}}}}}}}}}}}}}}}",
"}}}}}}}}}}}}}}}}}}}}}9}}jvQQ~~~(~``''[[''''[''_~~~~~!Qxj}}9}}}}}}}}}}}}}}}}}}}}}",
"}}}}}}}}}}}}}}}}}}}},51,Q`Q~''``''`[{{{{{{{{'``''`''!!`P,151}}}}}}}}}}}}}}}}}}}}",
"}}}}}}}}}}}}}}}}}}}1jLGGQQ~``'{[[{'{{{{{{{{{{{[{[{]``~QQGGGj1}}}}}}}}}}}}}}}}}}}",
"}}}}}}}}}}}}}}}}}}} x'~~QQ'``'{{{{{{{{{{{{{{{{{{{{'''`QQ~~`x }}}}}}}}}}}}}}}}}}}",
"}}}}}}}}}}}}}}}}}1hGP!~(```'{{{{{{{{{{{{{{{{{{{{{{{['``((~QPGd1}}}}}}}}}}}}}}}}}",
"}}}}}}}}}}}}}}}}} j'QQ`'`'``{{{{{{{{{{{{{{{{{{{{{{{{'`'']~Q!`g$}}}}}}}}}}}}}}}}}",
"}}}}}}}}}}}}}}}-gLPQ~```[{[{{{{{{{{{{{{{{{{{{{{{{{{{'{[[''`~QLGa,}}}}}}}}}}}}}}}",
"}}}}}}}}}}}}}}}6j`QQ~]''{{{{{{{{{{{{{{{{{{{{{{{{{{{{{{{{'`'(!~~f7}}}}}}}}}}}}}}}",
"}}}}}}}}}}}}}5yPQQ~`'`[{{{{{{{{{{{{{{{{{{{{{{{{{{{{{{{{{{[```~QYPu1}}}}}}}}}}}}}",
"}}}}}}}}}}}}}5a~~Q~'`'{{{{{{{{{{{{{{{{{{{{{{{{{{{{{{{{{{{['`'~!~~u5}}}}}}}}}}}}}",
"}}}}}}}}}}}}}-yQ~`'`[{{{{{{{{{{{{{{{{{{{{{{{{{{{{{{{{{{{{{{[```~~y%}}}}}}}}}}}}}",
"}}}}}}}}}}}}}ug!~'`''{{{{{{{{{{{{{{{{{{{{{{{{{{{{{{{{{{{{{{[`'`~Qgu}}}}}}}}}}}}}",
"}}}}}}}}}}};rQ~Q~''{{{{{{{{{{{{{{{{{{{{{{{{{{{{{{{{{{{{{{{{{{'`!Q~P51}}}}}}}}}}}",
"}}}}}}}}}}}agQ!!~'[{{{{{{{{{{{{{{{{{{{{{{{{{{{{{{{{{{{{{{{{{{'`~Q~Psa}}}}}}}}}}}",
"}}}}}}}}}6rQ~Q!''`[{{{{{{{{{{{{{{{{{{{{{{{{{{{{{{{{{{{{{{{{{{[`]'~Q`L67}}}}}}}}}",
"}}}}}}}}}6rP!~~``'~PQPYQ'{{{{{{{{{{{{{{{{{{{{{{{{{{{{[{'PYQPP~]'`~!~L67}}}}}}}}}",
"}}}}}}}}}6rY~`'[{{G     ~{{{{{{{{{{{{{{{{{{{{{{{{{{{{{{`     Q{{{]`~L57}}}}}}}}}",
"}}}}}}}}}7tP~'~vvGg ,1,,xGZH{{{{{{{{{{{{{{{{{{{{{{{[GFGx,,1, jGvv~~~L79}}}}}}}}}",
"}}}}}}}}}%5Q~[Q    =       r{{{{{{{{{{{{{{{{{{{{{{{'o       -    Q'~Lo;}}}}}}}}}",
"}}}}}}}}}hxQQ'Q;-,; svxxvx u{{{{{{{{{{{{{{{{{{{{{{{'66xvxxvs ;,-;Q'~Pzj}}}}}}}}}",
"}}}}}}}75L'QQ{~o $; F{{{{[ y{{{{{{{{{{{{{{{{{{{{{{{{19{{{{{F ;$ o~{QQ`L57}}}}}}}",
"}}}}}}}74G~~~xj%o$; v{['{~$7xG{{{{{{{{{{{{{{{{{{{{Hz-9[{{[{v ;$o%hv~~~G47}}}}}}}",
"}}}}}}}74G~'~  %$o; F{{{{`,  u{{{{{{{{{{{{{{{{{{{{u  r{{{{{F -o$- 7'`~G57}}}}}}}",
"}}}}}}}84G~`~5$%%-, v{[{{~;* s{{{{{{{{{{{{{{{{{{{{s  r{{{[{v ,-$- t``~G57}}}}}}}",
"}}}}}}}84G~'~1 -    F{{{{];% s{{{{{{{{{{{{{{{{{{{{s  r{{{{{F    - t'~~G47}}}}}}}",
"}}}}}}}85G~'~,  s~k tgsdfa%- s{{{{{{{{{{{{{{{{{{{{s %<ssssgt F~t  r``~G47}}}}}}}",
"}}}}}}}84G~'~6, h{F o     X; s{{{{{{{{{{{{{{{{{{{{s ;        Y{u $y``~G47}}}}}}}",
"}}}}}}}85G(``'YX11z{k ,-;; y`'{{{{{{{{{{{{{{{{{{{{'~6 >;-, l{g5,oQ'``~G47}}}}}}}",
"}}}}}}}81G~``{~-% j{x ;o$; u{{{{{{{{{{{{{{{{{{{{{{{'6 -$o; x{s %=`{`(~G57}}}}}}}",
"}}}}}}}85G~``{~   ,91 $+   y{{{{{{{{{{{{{{{{{{{{{{{'5   +$ 19-   ~{`~~G47}}}}}}}",
"}}}}}}}84H~~'{~656: O*&&57;a{{{{{{{{{{{{{{{{{{{{{{{[r565&&*O <656~{``~G59}}}}}}}",
"}}}}}}}84G~`'{{~~]c #   P`'[{{{{{{{{{{{{{{{{{{{{{{{{]__P   . K]~~{{`~~G58}}}}}}}",
"}}}}}}}85G~``{{'`)C2iiw0!''{{{{{{{{{{{{{{{{{{{{{{{{{{{{Q0qii3J)``{{``~G48}}}}}}}",
"}}}}}}}84G~`'``[WbNNNNNN(]`'{{{{{{{{{{{{{{{{{{{{{{{{``[(NNNNNMn/]``'~~G58}}}}}}}",
"}}}}}}}84G~````^ImNmNNmNE^`'{{{{{{{{{{{{{{{{{{{{{{{{``/RmNNNNNME^_```~G48}}}}}}}",
"}}}}}}}84G~``'(mmNNNNNNNnV`'{{{{{{{{{{{{{{{{{{{{{{{{](MmNNNNNNNmn(]'`~G48}}}}}}}",
"}}}}}}}85G~`''(NNNNNNNNNNA`'{{{{{{{{{{{{{{{{{{{{{{{{](BNNNNNNNNNN(''_~G58}}}}}}}",
"}}}}}}}85G~```(bmNNNNNNNpB`]{{{{{{{{{{{{{{{{{{{{{{{{](nbNNNNNNNnn(]`~~G48}}}}}}}",
"}}}}}}}84H~~`'(IDmBNNNNNIU`'{{{{{{{{{{{{{{{{{{{{{{{{](IINNNNNNNDU_`'`~G48}}}}}}}",
"}}}}}}}84G~''``[Wpnnnnnb([`'{{{{{{{{{{{{{{{{{{{{{{{{'`[(bbnnnnb/[``]`~G47}}}}}}}",
"}}}}}}}84G~~`{]]/IUUUUUU(''{{{{{{{{{{{{{{{{{{{{{{{{{[''(UUUUUUU(`']]_~G47}}}}}}}",
"}}}}}}}85G~``{{`'][[]]]]``{{{{{{{{{{{{{{{{{{{{{{{{{{{{'`]]][[[[''{{'~~G57}}}}}}}",
"}}}}}}}84G~'`{{{{'{'{[{'[{{{{{{{{{{{{{{{{{{{{{{{{{{{{{[{'{{'''{'[{{``~G57}}}}}}}",
"}}}}}}}85G~`'{{{{{{{{{{{{{{{{{{{{{{{{{{{{{{{{{{{{{{{{{{{{{{{{{{{{{{``~G48}}}}}}}",
"}}}}}}}85G~~`{{{{{{{{{{{{{{{{{{{{{{{{{{{{{{{{{{{{{{{{{{{{{{{{{{{{{{`(~G57}}}}}}}",
"}}}}}}}85G~`'{{{{{{{{{{{{{{{{{{{{{{{{{{{{{{{{{{{{{{{{{{{{{{{{{{{{{{'~~G58}}}}}}}",
"}}}}}}}85G~``{{{{{{{{{{{{{{{{{{{{{{{{{{{{{{{{{{{{{{{{{{{{{{{{{{{{{{'`~G48}}}}}}}",
"}}}}}}}84G~`'{{{{{{{{{{{{{{{{{{{{{{{{{{{{{{{{{{{{{{{{{{{{{{{{{{{{{{`~~G57}}}}}}}",
"}}}}}}}85G~``'````'`'`{{{{{{'`'`''''`{{{{{{''`''`'`'{{{{{{{'''`']``'`~G57}}}}}}}",
"}}}}}}}84G~````````'``{{{{{{``'````'`{{{{{'`````````{{{{{{{[`````````~G59}}}}}}}",
"}}}}}}}85G~``'`!~~~Q~]``{{'']~!~~~Q~``'{'''`~!~~~!```'{{'''~Q~~!!`''~~G57}}}}}}}",
"}}}}}}}84H~~``~~QLPQ~```{{``'~QYLY!~```{[```~QPLYQ~'``{{`'`~QPLPQ~''`~G57}}}}}}}",
"}}}}}}}84H~``!Q`G k'!!~'``]~!Q'x Z'QQ`'````!~'j K`!!`'``]~Q~`g P`!!](~G57}}}}}}}",
"}}}}}}}85G~`~!QLx jLP!(`````QYPk zLQ~~````~QPLh vLY!~'`'`~QPLf-FLQ!`~~G57}}}}}}}",
"}}}}}}}75G~!!`Y64}}@x'QQ`'QQ`L,6}6%F`QQ`'Q~'F%}}6,L`Q!'`Q!'xo}}56P~!!~G57}}}}}}}",
"}}}}}}}84G~QQLG7}}},kLQQ~`QQLF5}}}1xLQ!`~QYLx1}}75ZLQ!`~QPLk1}}77FLQQ~G57}}}}}}}",
"}}}}}}}85G~(Q9,}}}}}5>L'QQ`P14}}}}}16P~Q!'H=6}}}}},r~(QQ'F 6}}}}}-u(~~G57}}}}}}}",
"}}}}}}}81G~vxr}}}}}}}6zxQQvz7}}}}}}}8zvQPvk5}}}}}}}txF~Pvj1}}}}}}}uxF~G47}}}}}}}",
"}}}}}}}81L`9$}}}}}}}}};-P!1-}}}}}}}}}-6~PX1}}}}}}}}}Xr`P;;}}}}}}}}} u]L18}}}}}}}",
"}}}}}}}76hxt}}}}}}}}}}}7zxe}}}}}}}}}}}rxl7}}}}}}}}}}}yxl9}}}}}}}}}}}axh67}}}}}}}",
"}}}}}}}694;}}}}}}}}}}}}};;}}}}}}}}}}}}}>;}}}}}}}}}}}}},;}}}}}}}}}}}}},197}}}}}}}",
"}}}}}}}}7}}}}}}}}}}}}}}}}}}}}}}}}}}}}}}}}}}}}}}}}}}}}}9}}}}}}}}}}}}}}9}7}}}}}}}}",
"}}}}}}}}}}}}}}}}}}}}}}}}}}}}}}}}}}}}}}}}}}}}}}}}}}}}}}}}}}}}}}}}}}}}}}}}}}}}}}}}",
"}}}}}}}}}}}}}}}}}}}}}}}}}}}}}}}}}}}}}}}}}}}}}}}}}}}}}}}}}}}}}}}}}}}}}}}}}}}}}}}}",
"}}}}}}}}}}}}}}}}}}}}}}}}}}}}}}}}}}}}}}}}}}}}}}}}}}}}}}}}}}}}}}}}}}}}}}}}}}}}}}}}",
"}}}}}}}}}}}}}}}}}}}}}}}}}}}}}}}}}}}}}}}}}}}}}}}}}}}}}}}}}}}}}}}}}}}}}}}}}}}}}}}}",
"}}}}}}}}}}}}}}}}}}}}}}}}}}}}}}}}}}}}}}}}}}}}}}}}}}}}}}}}}}}}}}}}}}}}}}}}}}}}}}}}",
"}}}}}}}}}}}}}}}}}}}}}}}}}}}}}}}}}}}}}}}}}}}}}}}}}}}}}}}}}}}}}}}}}}}}}}}}}}}}}}}}",
"}}}}}}}}}}}}}}}}}}}}}}}}}}}}}}}}}}}}}}}}}}}}}}}}}}}}}}}}}}}}}}}}}}}}}}}}}}}}}}}}",
"}}}}}}}}}}}}}}}}}}}}}}}}}}}}}}}}}}}}}}}}}}}}}}}}}}}}}}}}}}}}}}}}}}}}}}}}}}}}}}}}",
"}}}}}}}}}}}}}}}}}}}}}}}}}}}}}}}}}}}}}}}}}}}}}}}}}}}}}}}}}}}}}}}}}}}}}}}}}}}}}}}}"
};
