/* XPM */
static char *_8649_1929a4a7ca58ae16662013eda47a8bfdefa49ca819202a71d95b9ccf2b44d7e0[] = {
/* columns rows colors chars-per-pixel */
"80 80 96 2 ",
"   c #000000",
".  c #070A0A",
"X  c #0C0D0D",
"o  c #1D090C",
"O  c #1F0D10",
"+  c #0F1111",
"@  c #001810",
"#  c #141414",
"$  c #171818",
"%  c #1C1D1D",
"&  c #231416",
"*  c #251719",
"=  c #251819",
"-  c #281C1E",
";  c #1F2020",
":  c #232323",
">  c #272828",
",  c #2C2C2C",
"<  c #323333",
"1  c #373838",
"2  c #3C3C3C",
"3  c #772837",
"4  c #7C3742",
"5  c #3F4040",
"6  c #414141",
"7  c #4B4B4B",
"8  c #555555",
"9  c #585656",
"0  c #5B5B5B",
"q  c #626262",
"w  c #696566",
"e  c #6B6B6B",
"r  c #706F6F",
"t  c #747474",
"y  c #787777",
"u  c #7C7C7C",
"i  c #83474F",
"p  c #834750",
"a  c #864D55",
"s  c #885259",
"d  c #807D7D",
"f  c #FD7E92",
"g  c #838383",
"h  c #8C8B8B",
"j  c #949393",
"k  c #9B9B9B",
"l  c #A09F9F",
"z  c #A4A4A4",
"x  c #ADACAC",
"c  c #B0AFAF",
"v  c #B3B3B3",
"b  c #B8B7B7",
"n  c #BBBBBB",
"m  c #FC8496",
"M  c #FC8698",
"N  c #FC8A9B",
"B  c #FB909F",
"V  c #FC93A2",
"C  c #FC9AA7",
"Z  c #FB9CA9",
"A  c #CEB4B7",
"S  c #C0BFBF",
"D  c #FBA6B1",
"F  c #FAB9C1",
"G  c #BCC2C2",
"H  c #C4C4C4",
"J  c #C8C7C7",
"K  c #CDCCCC",
"L  c #DDC5C8",
"P  c #D0CFCF",
"I  c #D3D2D2",
"U  c #D4D9D8",
"Y  c #DDDCDC",
"T  c #F9C0C7",
"R  c #F9C2C8",
"E  c #F9C8CE",
"W  c #F8CED3",
"Q  c #E0DFDF",
"!  c #F7D3D7",
"~  c #F8D2D7",
"^  c #F7D4D8",
"/  c #F7DCDF",
"(  c #E5E4E4",
")  c #E8E7E7",
"_  c #EDECEC",
"`  c #F7E4E6",
"'  c #F6E7E9",
"]  c #FCE7E9",
"[  c #F4ECED",
"{  c #F6EFF0",
"}  c #F4F4F4",
"|  c #F8F7F7",
" . c #F5F8F7",
".. c #F4FAFA",
"X. c #FFFFFF",
"o. c None",
/* pixels */
"o.o.o.o.o.o.o.o.o.o.o.o.o.o.o.o.o.o.o.o.o.o.o.o.o.o.o.o.o.o.o.o.o.o.o.o.o.o.o.o.o.o.o.o.o.o.o.o.o.o.o.o.o.o.o.o.o.o.o.o.o.o.o.o.o.o.o.o.o.o.o.o.o.o.o.o.o.o.o.o.",
"o.o.o.o.o.o.o.o.o.o.o.o.o.o.o.o.o.o.o.o.o.o.o.o.o.o.o.o.o.o.o.o.o.o.o.o.o.o.o.o.o.o.o.o.o.o.o.o.o.o.o.o.o.o.o.o.o.o.o.o.o.o.o.o.o.o.o.o.o.o.o.o.o.o.o.o.o.o.o.o.",
"o.o.o.o.o.o.o.o.o.o.o.o.o.o.o.o.o.o.o.o.o.o.o.o.o.o.o.o.o.o.o.o.o.o.o.o.o.o.o.o.o.o.o.o.o.o.o.o.o.o.o.o.o.o.o.o.o.o.o.o.o.o.o.o.o.o.o.o.o.o.o.o.o.o.o.o.o.o.o.o.",
"o.o.o.o.o.o.o.o.o.o.o.o.o.o.o.o.o.o.o.o.o.o.o.o.o.o.o.o.o.o.o.o.o.o.o.o.o.o.o.o.o.o.o.o.o.o.o.o.o.o.o.o.o.o.o.o.o.o.o.o.o.o.o.o.o.o.o.o.o.o.o.o.o.o.o.o.o.o.o.o.",
"o.o.o.o.o.o.o.o.o.o.o.o.o.o.o.o.o.o.o.o.o.o.o.o.o.o.o.o.o.o.o.o.o.o.o.o.o.o.o.o.o.o.o.o.o.o.o.o.o.o.o.o.o.o.o.o.o.o.o.o.o.o.o.o.o.o.o.o.o.o.o.o.o.o.o.o.o.o.o.o.",
"o.o.o.o.o.o.o.o.o.o.o.o.o.o.o.o.o.o.o.o.o.o.o.o.o.o.o.o.o.o.o.o.o.o.o.o.o.o.o.o.o.o.o.o.o.o.o.o.o.o.o.o.o.o.o.o.o.o.o.o.o.o.o.o.o.o.o.o.o.o.o.o.o.o.o.o.o.o.o.o.",
"o.o.o.o.o.o.o.o.o.o.o.o.o.o.o.o.o.o.o.o.o.o.o.o.o.o.o.o.o.o.o.o.1 < < < < < < < < < < < < < < 1 o.o.o.o.o.o.o.o.o.o.o.o.o.o.o.o.o.o.o.o.o.o.o.o.o.o.o.o.o.o.o.o.",
"o.o.o.o.o.o.o.o.o.o.o.o.o.o.o.o.o.o.o.o.o.o.o.o.o.o.o.o.o.o.o.k v x x x x x x x x x x x x x x x h o.o.o.o.o.o.o.o.o.o.o.o.o.o.o.o.o.o.o.o.o.o.o.o.o.o.o.o.o.o.o.",
"o.o.o.o.o.o.o.o.o.o.o.o.o.o.o.o.o.o.o.o.o.o.o.o.o.o., < < 5   v | _ _ _ _ _ _ _ [ _ } _ _ _ _ | k   2 , < , o.o.o.o.o.o.o.o.o.o.o.o.o.o.o.o.o.o.o.o.o.o.o.o.o.o.",
"o.o.o.o.o.o.o.o.o.o.o.o.o.o.o.o.o.o.o.o.o.o.o.o.o.t v v v v x K ) _ _ _ _ _ _ _ _ _ _ _ _ _ _ ( H x b v b x q o.o.o.o.o.o.o.o.o.o.o.o.o.o.o.o.o.o.o.o.o.o.o.o.o.",
"o.o.o.o.o.o.o.o.o.o.o.o.o.o.o.o.o.o.o.o.o.o.o.o.# t _ } _ _ _ _ ( _ | } } } | | } | } } } } _ ( _ _ _ _ } Q 7 < o.o.o.o.o.o.o.o.o.o.o.o.o.o.o.o.o.o.o.o.o.o.o.o.",
"o.o.o.o.o.o.o.o.o.o.o.o.o.o.o.o.o.o.o.o.o.9 8 8 n K ( ( _ } _ _ } } |  .X. .X.X.X. .X.X.X.} } _ } _ } _ ( ( K n 8 8 9 o.o.o.o.o.o.o.o.o.o.o.o.o.o.o.o.o.o.o.o.o.",
"o.o.o.o.o.o.o.o.o.o.o.o.o.o.o.o.o.o.o.o.2 6 2 1 Y _ ( _ } | } } | } }  .X.X.X.X.X.X.X.X.X.} } } | } } } ( ( } Y 1 2 6 1 o.o.o.o.o.o.o.o.o.o.o.o.o.o.o.o.o.o.o.o.",
"o.o.o.o.o.o.o.o.o.o.o.o.o.o.o.o.o.o.o.2 x I K J ( _ _ } } | X.X.X.X.X.X.X.X.X.X.X.X.X.X.X.X.X.X.X.X.} } } _ ( ( K K I x 2 o.o.o.o.o.o.o.o.o.o.o.o.o.o.o.o.o.o.o.",
"o.o.o.o.o.o.o.o.o.o.o.o.o.o.o.o.o.o.o.  b } _ _ ( ( | | } | X.X.X.X.X.X.X.X.X.X.X.X.X.X.X.X.X.X.X.X.| } | } ) ( _ _ | b   o.o.o.o.o.o.o.o.o.o.o.o.o.o.o.o.o.o.o.",
"o.o.o.o.o.o.o.o.o.o.o.o.o.o.o.o.o.: z I Y ( _ } } } } | X.X.X.X.X.X.X.X.X.X.X.X.X.X.X.X.X.X.X.X.X.X.X.X.| } } _ } _ ( Y I h , o.o.o.o.o.o.o.o.o.o.o.o.o.o.o.o.o.",
"o.o.o.o.o.o.o.o.o.o.o.o.o.o.o.o.o.7 v } ( ( } | | } } | X.X.X.X.X.X.X.X.X.X.X.X.X.X.X.X.X.X.X.X.X.X.X.X.| | } } | _ ) _ } k 7 o.o.o.o.o.o.o.o.o.o.o.o.o.o.o.o.o.",
"o.o.o.o.o.o.o.o.o.o.o.o.o.o.o.; k ( ( ( _ | } } X.X.X.X.X.X.X.X.X.X.X.X.X.X.X.X.X.X.X.X.X.X.X.X.X.X.X.X.X.X.X.X.} } } _ ( Y ( g < o.o.o.o.o.o.o.o.o.o.o.o.o.o.o.",
"o.o.o.o.o.o.o.o.o.o.o.o.o.o.o.7 z } ) ( _ | } } X.X.X.X.X.X.X.X.X.X.X.X.X.X.X.X.X.X.X.X.X.X.X.X.X.X.X.X.X.X.X.X.| } } _ ( ) _ j 8 o.o.o.o.o.o.o.o.o.o.o.o.o.o.o.",
"o.o.o.o.o.o.o.o.o.o.o.o.o.6 y ( ( ( _ | } } X.X.X.X.X.X.X.X.X.X.X.X.X.X.X.X.X.X.X.X.X.X.X.X.X.X.X.X.X.X.X.X.X.X.X.X.} } } ) ( ( ( y 6 o.o.o.o.o.o.o.o.o.o.o.o.o.",
"o.o.o.o.o.o.o.o.o.o.o.o.o.7 u _ _ ( _ } |  .X.X.X.X.X.X.X.X.X.X.X.X.X.X.X.X.X.X.X.X.X.X.X.X.X.X.X.X.X.X.X.X.X.X.X.X.| }  ._ ) _ _ d 6 o.o.o.o.o.o.o.o.o.o.o.o.o.",
"o.o.o.o.o.o.o.o.o.o.o.o.o.% r ) _ | } }  .X.X.X.X.X.X.X.X.X.X.X.X.X.X.X.X.X.X.X.X.X.X.X.X.X.X.X.X.X.X.X.X.X.X.X.X.X.X.| } | } _ ( t $ o.o.o.o.o.o.o.o.o.o.o.o.o.",
"o.o.o.o.o.o.o.o.o.o.o.o.o.g k ( _ | } | X.X.X.X.X.X.X.X.X.X.X.X.X.X.X.X.X.X.X.X.X.X.X.X.X.X.X.X.X.X.X.X.X.X.X.X.X.X.X.X.X. .} _ ) l g o.o.o.o.o.o.o.o.o.o.o.o.o.",
"o.o.o.o.o.o.o.o.o.o.o.> q ( _ ( _ } X.X.X.X.X.X.X.X.X.X.X.X.X.X.X.X.X.X.X.X.X.X.X.X.X.X.X.X.X.X.X.X.X.X.X.X.X.X.X.X.X.X.X. .} ) ( _ Y 2 1 o.o.o.o.o.o.o.o.o.o.o.",
"o.o.o.o.o.o.o.o.o.o.o.h k ( ) _ } } | X.X.X.X.X.X.X.X.X.X.X.X.X.X.X.X.X.X.X.X.X.X.X.X.X.X.X.X.X.X.X.X.X.X.X.X.X.X.X.X.X.X.| } _ ) _ Y j g o.o.o.o.o.o.o.o.o.o.o.",
"o.o.o.o.o.o.o.o.o.7 w ( _ ( )  .} } X.X.X.X.X.X.X.X.X.X.X.X.X.X.X.X.X.X.X.X.X.X.X.X.X.X.X.X.X.X.X.X.X.X.X.X.X.X.X.X.X.X.X.| } | | ( ( } U 7 8 o.o.o.o.o.o.o.o.o.",
"o.o.o.o.o.o.o.o.o.7 q Y ) _ _ } } X.Q G J H J H } X.X.X.X.X.X.X.X.X.X.X.X.X.X.X.X.X.X.X.X.X.X.X.X.X.X.X.X.X.X.| H J H J G _  .} } _ ) _ I 7 8 o.o.o.o.o.o.o.o.o.",
"o.o.o.o.o.o.o.o.o.7 q Q _ } | X.X.X.J           _ X.X.X.X.X.X.X.X.X.X.X.X.X.X.X.X.X.X.X.X.X.X.X.X.X.X.X.X.X.X._           Q X.X.X.| } _ I 7 7 o.o.o.o.o.o.o.o.o.",
"o.o.o.o.o.o.o.o.o.8 e ( _ | _ b b H j   2 5 2 2 v J n K X.X.X.X.X.X.X.X.X.X.X.X.X.X.X.X.X.X.X.X.X.X.X.X.J n J b 2 2 2 2   z J n b _ } _ I 8 9 o.o.o.o.o.o.o.o.o.",
"o.o.o.o.o.o.o.o.o.# 6 Q _ | (         -               q X.X.X.X.X.X.X.X.X.X.X.X.X.X.X.X.X.X.X.X.X.X.X.|                 %         ( | _ I . < o.o.o.o.o.o.o.o.o.",
"o.o.o.o.o.o.o.o.2 z n ( ( | ( , > < ,   h H n n H b   y X.X.X.X.X.X.X.X.X.X.X.X.X.X.X.X.X.X.X.X.X.X.X.| 7 7 n H n n H h   < < > , ( } _ Y b x 2 o.o.o.o.o.o.o.o.",
"o.o.o.o.o.o.o.8 6 I | ( ( X._ X   # >   J X.X.X.X.X.  y X.X.X.X.X.X.X.X.X.X.X.X.X.X.X.X.X.X.X.X.X.X.X.X.2 0 X.X.X.X.X.J   > #   X ) X.( ( | I 6 9 o.o.o.o.o.o.o.",
"o.o.o.o.o.o.o.9 5 J _ _ _ k g $ . # >   n X.X. .X._ % 7 h b X.X.X.X.X.X.X.X.X.X.X.X.X.X.X.X.X.X.X.X.n h # 0 X.X.X.| X.n   > # X ; d z } _ _ K 2 9 o.o.o.o.o.o.o.",
"o.o.o.o.o.o.o.9 6 K _ | _     % # $ ,   n X.X.X.X.} <     u X.X.X.X.X.X.X.X.X.X.X.X.X.X.X.X.X.X.X.X.u     q X.X.X.X.X.G   , $ # :   9  .} _ K 5 9 o.o.o.o.o.o.o.",
"o.o.o.o.o.o.o.8 6 K _ | _ 6 + % .   :   H X.X.X.X.} , :   h X.X.X.X.X.X.X.X.X.X.X.X.X.X.X.X.X.X.X.X.h     q X.X.X.X.X.n   :   . :   e } } _ K 5 9 o.o.o.o.o.o.o.",
"o.o.o.o.o.o.o.8 5 K _ } _ 2   $ - < 1   n X.X.X.X._ , %   h X.X.X.X.X.X.X.X.X.X.X.X.X.X.X.X.X.X.X.X.h     q | X.X.| X.n   1 < $ :   w } _ _ K 5 9 o.o.o.o.o.o.o.",
"o.o.o.o.o.o.o.8 6 K _ | _ ,     j X.n   7 w 0 0 q 9 # >   g X.X.X.X.X.X.X.X.X.X.X.X.X.X.X.X.X.X.X.X.g   : > 0 q 0 0 w 6   I X.y     w | [ _ P 5 9 o.o.o.o.o.o.o.",
"o.o.o.o.o.o.o.8 5 K _ | ) 8 2   l X.H   >             ,   j X.X.X.X.X.X.X.X.X.X.X.X.X.X.X.X.X.X.X.X.j   >             >   Y X.u   , t } } _ K 5 9 o.o.o.o.o.o.o.",
"o.o.o.o.o.o.o.8 6 K _ } } X.(   2 , v X.v   < % % >   y | | X.X.X.X.X.X.X.X.X.X.X.X.X.X.X.X.X.X.X.X.X._ 7   : $ ; <   v X.j 1 < X (  .} [ _ K 5 9 o.o.o.o.o.o.o.",
"o.o.o.o.o.o.o.8 5 J _ } | X.} > >   x X.v   > X : <   u X.X.X.X.X.X.X.X.X.X.X.X.X.X.X.X.X.X.X.X.X.X.X.| 8   , : X >   v X.h   > > _ X.} } _ K 5 9 o.o.o.o.o.o.o.",
"o.o.o.o.o.o.o.9 5 K _ } | X._       # 7 <   # +       w X.X.X.X.X.X.X.X.X.X.X.X.X.X.X.X.X.X.X.X.X.X.X.| ,       + #   < 7         _ X.} _ _ K 5 9 o.o.o.o.o.o.o.",
"o.o.o.o.o.o.o.9 6 K _ } } X.} y y d 0   O - * & t u t z X.X.X.X.X.X.X.X.X.X.X.X.X.X.X.X.X.X.X.X.X.X.X.| h u d r & & - o   w d y y } X.| } _ K 5 9 o.o.o.o.o.o.o.",
"o.o.o.o.o.o.o.9 6 K _ } | X.X.| | X.G   @       ( X.X.X.X.X.X.X.X.X.X.X.X.X.X.X.X.X.X.X.X.X.X.X.X.X.X.X.X.X.X.Q           U X. .} X.X.} _ _ K 5 9 o.o.o.o.o.o.o.",
"o.o.o.o.o.o.o.9 6 J _ } | X. .} [ ] A 3 s a a i Q | | X.X.X.X.X.X.X.X.X.X.X.X.X.X.X.X.X.X.X.X.X.X.X.X.X.X.X.| ( i a a a 4 L ] { } X.X.| } _ K 5 9 o.o.o.o.o.o.o.",
"o.o.o.o.o.o.o.9 5 K _ } } } | ../ m V V V V V V [ ..| | X.X.X.X.X.X.X.X.X.X.X.X.X.X.X.X.X.X.X.X.X.X.X.X.} } ..[ V V V V V B M ' ..| }  .} _ K 6 9 o.o.o.o.o.o.o.",
"o.o.o.o.o.o.o.9 6 K _ } | | } ` E N V B V V V V ! ` } | X.X.X.X.X.X.X.X.X.X.X.X.X.X.X.X.X.X.X.X.X.X.X.X.| } ` ^ V V V B V V V ~ ` } } } _ _ K 5 9 o.o.o.o.o.o.o.",
"o.o.o.o.o.o.o.9 6 K _ } } } ' N N V V V V N V V M Z } | X.X.X.X.X.X.X.X.X.X.X.X.X.X.X.X.X.X.X.X.X.X.X.X. .[ N N V V B V V V V N N ' | } } _ K 5 9 o.o.o.o.o.o.o.",
"o.o.o.o.o.o.o.9 6 J _ } } ..[ V V V V V V V V V B D } | X.X.X.X.X.X.X.X.X.X.X.X.X.X.X.X.X.X.X.X.X.X.X.X. .[ Z V V V V V B V V V C ' } } } _ K 5 9 o.o.o.o.o.o.o.",
"o.o.o.o.o.o.o.9 5 K _ } } } [ m N V V V V V V V m C } } X.X.X.X.X.X.X.X.X.X.X.X.X.X.X.X.X.X.X.X.X.X.X.X...[ M M V V V V V V V M m ' ..} _ _ K 5 8 o.o.o.o.o.o.o.",
"o.o.o.o.o.o.o.9 5 K _ } } | { W F N V V V V V V T ! } ..X.X.X.X.X.X.X.X.X.X.X.X.X.X.X.X.X.X.X.X.X.X.X.X.} [ W R V V V C V V V R W } | | } _ K 5 8 o.o.o.o.o.o.o.",
"o.o.o.o.o.o.o.9 5 K _ } } } } ../ f N M N N N m [ ..} } X.X.X.X.X.X.X.X.X.X.X.X.X.X.X.X.X.X.X.X.X.X.X.X.} } ..[ M M N M M M m [ ..} } } [ _ K 5 8 o.o.o.o.o.o.o.",
"o.o.o.o.o.o.o.9 6 K _ } } X.X. .[ / / / / / / / [ } X.X.X.X.X.X.X.X.X.X.X.X.X.X.X.X.X.X.X.X.X.X.X.X.X.X.X.X.| [ / / / / / / / [ }  .X.} } _ K 5 8 o.o.o.o.o.o.o.",
"o.o.o.o.o.o.o.9 5 K _ } } X.X.} } } .. . . .} ..} } X.X.X.X.X.X.X.X.X.X.X.X.X.X.X.X.X.X.X.X.X.X.X.X.X.X.X.X.} }  . .} .... . . .} X.X.} [ _ K 6 8 o.o.o.o.o.o.o.",
"o.o.o.o.o.o.o.9 5 J _ } | X.X.X.X.X.X.X. .X.X.X.X.X.X.X.X.X.X.X.X.X.X.X.X.X.X.X.X.X.X.X.X.X.X.X.X.X.X.X.X.X.X.X. .X.X.X.X.X.X. .X.X.X.} } _ K 6 8 o.o.o.o.o.o.o.",
"o.o.o.o.o.o.o.9 5 K _ } } X.X.X.X.X.X.X.X.X.X.X.X.X.X.X.X.X.X.X.X.X.X.X.X.X.X.X.X.X.X.X.X.X.X.X.X.X.X.X.X.X.X.X.X.X.X.X.X.X.X.X.X.X.X.} _ _ K 6 8 o.o.o.o.o.o.o.",
"o.o.o.o.o.o.o.9 6 K _ } } X.X.X.X.X.X.X.X.X.X.X.X.X.X.X.X.X.X.X.X.X.X.X.X.X.X.X.X.X.X.X.X.X.X.X.X.X.X.X.X.X.X.X.X.X.X.X.X.X.X.X.X.X.X.| } _ K 6 9 o.o.o.o.o.o.o.",
"o.o.o.o.o.o.o.9 5 K _ } | X.X.X.X.X.X.X.X.X.X.X.X.X.X.X.X.X.X.X.X.X.X.X.X.X.X.X.X.X.X.X.X.X.X.X.X.X.X.X.X.X.X.X.X.X.X.X.X.X.X.X.X.X.X.| _ _ K 6 8 o.o.o.o.o.o.o.",
"o.o.o.o.o.o.o.9 6 K _ } } X.X.X.X.X.X.X.X.X.X.X.X.X.X.X.X.X.X.X.X.X.X.X.X.X.X.X.X.X.X.X.X.X.X.X.X.X.X.X.X.X.X.X.X.X.X.X.X.X.X.X.X.X.X.} } _ K 2 8 o.o.o.o.o.o.o.",
"o.o.o.o.o.o.o.8 5 K _ } | X.X.X.X.X.X.X.X.X.X.X.X.X.X.X.X.X.X.X.X.X.X.X.X.X.X.X.X.X.X.X.X.X.X.X.X.X.X.X.X.X.X.X.X.X.X.X.X.X.X.X.X.X.X.} } _ K 6 9 o.o.o.o.o.o.o.",
"o.o.o.o.o.o.o.8 6 K _ } } } | } | } } } | } X.X.X.X.X.X.} | } } | | } | | X.X.X.X.X.X.} | | } | } | | } X.X.X.X.X.X.X.X.} | | | } | } | _ _ K 5 9 o.o.o.o.o.o.o.",
"o.o.o.o.o.o.o.8 5 K _ } } } } } } _ } } } }  .X.X.X.X.X.} } [ } } } } } | X.X.X.X.X.| } } } } } } } } | X.X.X.X.X.X.X.X.} } _ } } } }  .} _ K 6 9 o.o.o.o.o.o.o.",
"o.o.o.o.o.o.o.8 5 K _ } } | } ( _ _ _ ( _ | | } X.X.} } | } ( _ _ ( ( } | } } X.X.} } } } ( ( _ ( ( } } } | X.X.} } } _ ( ) _ ( ) } } } _ _ K 5 9 o.o.o.o.o.o.o.",
"o.o.o.o.o.o.o.8 5 K _ } } } } ( ( K Y ( _ } } } | X.} } } _ ) Y K Y ( _ } } } X.X.} } | _ ( Y K Q ) _ } } } X.X.} { } _ ( Y I ( ( [ } } } _ K 5 9 o.o.o.o.o.o.o.",
"o.o.o.o.o.o.o.8 5 K _ } } ) ( } J   v } ) ( } } } } | } ) ( | n   G } ( ( } } } } } } ( ( } x   P } ( ) } } } }  ._ ( ) } j   U } ( ( | } _ K 5 9 o.o.o.o.o.o.o.",
"o.o.o.o.o.o.o.9 5 K _ } _ ) ( I b   z I Y ( _ } } } } } ( Y I x   v I Y _ _ } } } } _ ( Y I z   n I ( ( } } } } } _ ( Y I h , H I ( ( } _ _ K 6 9 o.o.o.o.o.o.o.",
"o.o.o.o.o.o.o.9 6 K _ ) ( } ( 7 1 o.o.  b X.( ) } } ( ( } I , 7 o.7 . J | ( ( | } ( ( | J . o.o.6 , I } ( ( | } ( _ | n   o.o.2 7 Y } ) ( _ K 6 8 o.o.o.o.o.o.o.",
"o.o.o.o.o.o.o.9 5 K _ ( ( n b 9 o.o.o.2 z n Y ( _ } ( Y n x 7 o.o.o.5 x n ( ( _ _ ( Y n x 2 o.o.o.7 v H ( ( _ _ ( I n z 2 o.o.o.9 v H ( ( _ K 6 8 o.o.o.o.o.o.o.",
"o.o.o.o.o.o.o.9 5 K [ _ ( 7 ; o.o.o.o.o.<   I | ( ( } Y , < o.o.o.o.o.> 2 Y } ( ( | P   2 o.o.o.o.o.$ 9 _ } ( ( | H   6 o.o.o.o.o.  y _ _ _ K 6 8 o.o.o.o.o.o.o.",
"o.o.o.o.o.o.o.9 2 K _ n v w o.o.o.o.o.o.o.8 x b ( ( b v 9 o.o.o.o.o.o.o.0 v b ( Y n x 7 o.o.o.o.o.o.o.e v n ) Q n z 6 o.o.o.o.o.o.o.u v S _ J 2 8 o.o.o.o.o.o.o.",
"o.o.o.o.o.o.o.9 2 I _ 0 # o.o.o.o.o.o.o.o.o., ; Y ( 2 : o.o.o.o.o.o.o.o.o.: 6 _ Y   < o.o.o.o.o.o.o.o.o.  w } Y > , o.o.o.o.o.o.o.o.o.  u X.I 2 8 o.o.o.o.o.o.o.",
"o.o.o.o.o.o.o.8 7 z b e o.o.o.o.o.o.o.o.o.o.o.8 x c q o.o.o.o.o.o.o.o.o.o.o.q v x 8 o.o.o.o.o.o.o.o.o.o.o.t c x 0 o.o.o.o.o.o.o.o.o.o.o.g b l 7 8 o.o.o.o.o.o.o.",
"o.o.o.o.o.o.o.8 0 2 , o.o.o.o.o.o.o.o.o.o.o.o.o., , o.o.o.o.o.o.o.o.o.o.o.o.o.< , o.o.o.o.o.o.o.o.o.o.o.o.o.< , o.o.o.o.o.o.o.o.o.o.o.o.o.< 2 0 8 o.o.o.o.o.o.o.",
"o.o.o.o.o.o.o.o.o.o.o.o.o.o.o.o.o.o.o.o.o.o.o.o.o.o.o.o.o.o.o.o.o.o.o.o.o.o.o.o.o.o.o.o.o.o.o.o.o.o.o.o.o.o.o.o.o.o.o.o.o.o.o.o.o.o.o.o.o.o.o.o.o.o.o.o.o.o.o.o.",
"o.o.o.o.o.o.o.o.o.o.o.o.o.o.o.o.o.o.o.o.o.o.o.o.o.o.o.o.o.o.o.o.o.o.o.o.o.o.o.o.o.o.o.o.o.o.o.o.o.o.o.o.o.o.o.o.o.o.o.o.o.o.o.o.o.o.o.o.o.o.o.o.o.o.o.o.o.o.o.o.",
"o.o.o.o.o.o.o.o.o.o.o.o.o.o.o.o.o.o.o.o.o.o.o.o.o.o.o.o.o.o.o.o.o.o.o.o.o.o.o.o.o.o.o.o.o.o.o.o.o.o.o.o.o.o.o.o.o.o.o.o.o.o.o.o.o.o.o.o.o.o.o.o.o.o.o.o.o.o.o.o.",
"o.o.o.o.o.o.o.o.o.o.o.o.o.o.o.o.o.o.o.o.o.o.o.o.o.o.o.o.o.o.o.o.o.o.o.o.o.o.o.o.o.o.o.o.o.o.o.o.o.o.o.o.o.o.o.o.o.o.o.o.o.o.o.o.o.o.o.o.o.o.o.o.o.o.o.o.o.o.o.o.",
"o.o.o.o.o.o.o.o.o.o.o.o.o.o.o.o.o.o.o.o.o.o.o.o.o.o.o.o.o.o.o.o.o.o.o.o.o.o.o.o.o.o.o.o.o.o.o.o.o.o.o.o.o.o.o.o.o.o.o.o.o.o.o.o.o.o.o.o.o.o.o.o.o.o.o.o.o.o.o.o.",
"o.o.o.o.o.o.o.o.o.o.o.o.o.o.o.o.o.o.o.o.o.o.o.o.o.o.o.o.o.o.o.o.o.o.o.o.o.o.o.o.o.o.o.o.o.o.o.o.o.o.o.o.o.o.o.o.o.o.o.o.o.o.o.o.o.o.o.o.o.o.o.o.o.o.o.o.o.o.o.o.",
"o.o.o.o.o.o.o.o.o.o.o.o.o.o.o.o.o.o.o.o.o.o.o.o.o.o.o.o.o.o.o.o.o.o.o.o.o.o.o.o.o.o.o.o.o.o.o.o.o.o.o.o.o.o.o.o.o.o.o.o.o.o.o.o.o.o.o.o.o.o.o.o.o.o.o.o.o.o.o.o.",
"o.o.o.o.o.o.o.o.o.o.o.o.o.o.o.o.o.o.o.o.o.o.o.o.o.o.o.o.o.o.o.o.o.o.o.o.o.o.o.o.o.o.o.o.o.o.o.o.o.o.o.o.o.o.o.o.o.o.o.o.o.o.o.o.o.o.o.o.o.o.o.o.o.o.o.o.o.o.o.o."
};
