/* XPM */
static char *_5671_19b83f7add734f46429dccaa4d9a552b85bd4556ef7f820e06aba47f6187718d[] = {
/* columns rows colors chars-per-pixel */
"80 80 88 1 ",
"  c #000000",
". c #0C0C0C",
"X c #1E090C",
"o c #001004",
"O c #0F1010",
"+ c #131414",
"@ c #1C1C1C",
"# c #241416",
"$ c #27191A",
"% c #281A1B",
"& c #1F2121",
"* c #232323",
"= c #2D2223",
"- c #272828",
"; c #2B2B2B",
": c #333333",
"> c #373838",
", c #3C3C3C",
"< c #3F4040",
"1 c #414141",
"2 c #4A4B4B",
"3 c #4F5050",
"4 c #555555",
"5 c #5C5C5C",
"6 c #636262",
"7 c #6C6B6B",
"8 c #716E6E",
"9 c #747474",
"0 c #7C7C7C",
"q c #803240",
"w c #843E49",
"e c #8B4B55",
"r c #8D525A",
"t c #807F7F",
"y c #FD7D91",
"u c #858484",
"i c #8D8D8D",
"p c #949494",
"a c #9B9A9A",
"s c #A19F9F",
"d c #A3A3A3",
"f c #A8A7A7",
"g c #ACACAC",
"h c #B0AFAF",
"j c #B4B3B3",
"k c #B8B7B7",
"l c #BCBCBC",
"z c #FC8597",
"x c #FC8799",
"c c #FC8A9B",
"v c #FA909F",
"b c #FC93A2",
"n c #FC99A6",
"m c #FC9BA8",
"M c #D0B3B6",
"N c #FBA7B2",
"B c #F9BCC3",
"V c #BDC3C2",
"C c #C2C2C2",
"Z c #C8C7C7",
"A c #CDCCCC",
"S c #DEC3C6",
"D c #D0CFCF",
"F c #D4D3D3",
"G c #D4DAD9",
"H c #DCDBDB",
"J c #F9C5CB",
"K c #F8CFD4",
"L c #E0DFDF",
"P c #F8D2D6",
"I c #F8D6DA",
"U c #F7DBDE",
"Y c #E5DFE0",
"T c #F7DFE1",
"R c #E5E4E4",
"E c #E8E7E7",
"W c #EDECEC",
"Q c #F7E1E3",
"! c #FBE4E6",
"~ c #F6E7E9",
"^ c #F3EDED",
"/ c #F5EFF0",
"( c #F4F4F4",
") c #F8F7F7",
"_ c #F5F8F7",
"` c #F4FAFA",
"' c #FFFFFF",
"] c None",
/* pixels */
"]]]]]]]]]]]]]]]]]]]]]]]]]]]]]]]]]]]]]]]]]]]]]]]]]]]]]]]]]]]]]]]]]]]]]]]]]]]]]]]]",
"]]]]]]]]]]]]]]]]]]]]]]]]]]]]]]]]]]]]]]]]]]]]]]]]]]]]]]]]]]]]]]]]]]]]]]]]]]]]]]]]",
"]]]]]]]]]]]]]]]]]]]]]]]]]]]]]]]]]]]]]]]]]]]]]]]]]]]]]]]]]]]]]]]]]]]]]]]]]]]]]]]]",
"]]]]]]]]]]]]]]]]]]]]]]]]]]]]]]]]]]]]]]]]]]]]]]]]]]]]]]]]]]]]]]]]]]]]]]]]]]]]]]]]",
"]]]]]]]]]]]]]]]]]]]]]]]]]]]]]]]]]]]]]]]]]]]]]]]]]]]]]]]]]]]]]]]]]]]]]]]]]]]]]]]]",
"]]]]]]]]]]]]]]]]]]]]]]]]]]]]]]]]]]]]]]]]]]]]]]]]]]]]]]]]]]]]]]]]]]]]]]]]]]]]]]]]",
"]]]]]]]]]]]]]]]]]]]]]]]]]]]]]]]]]]]]]]]]]]]]]]]]]]]]]]]]]]]]]]]]]]]]]]]]]]]]]]]]",
"]]]]]]]]]]]]]]]]]]]]]]]]]]]]]]]]]]]]]]]]]]]]]]]]]]]]]]]]]]]]]]]]]]]]]]]]]]]]]]]]",
"]]]]]]]]]]]]]]]]]]]]]]]]]]]]]]]]::::::::::::::;>]]]]]]]]]]]]]]]]]]]]]]]]]]]]]]]]",
"]]]]]]]]]]]]]]]]]]]]]]]]]]]]]6]akjjghjgjhhhhjjjji]]]5]]]]]]]]]]]]]]]]]]]]]]]]]]]",
"]]]]]]]]]]]]]]]]]]]]]]]]]]>,,2 j(WWWWWWWWWWWWWW(a 2:,>]]]]]]]]]]]]]]]]]]]]]]]]]]",
"]]]]]]]]]]]]]]]]]]]]]]]]29ZZAZZGRW(^(W((W(W(W(WRFZAZAZ54]]]]]]]]]]]]]]]]]]]]]]]]",
"]]]]]]]]]]]]]]]]]]]]]]]]@9WWWW^WR()(((((((((__WRWWWW(L2:]]]]]]]]]]]]]]]]]]]]]]]]",
"]]]]]]]]]]]]]]]]]]]]]444CFRRW((WW(()'')''')')((((WW(RRFV444]]]]]]]]]]]]]]]]]]]]]",
"]]]]]]]]]]]]]]]]]]]]12<,H^RW(((((((''''''''''(((((((RR^H>12<]]]]]]]]]]]]]]]]]]]]",
"]]]]]]]]]]]]]]]]]]]*gFAARWW(((''''`'''''''''''')'')(((RRDDFg&]]]]]]]]]]]]]]]]]]]",
"]]]]]]]]]]]]]]]]]]]2l(WWWW((()'''''''''''''''''''')()(WEWW(k2]]]]]]]]]]]]]]]]]]]",
"]]]]]]]]]]]]]]]]]*fRRRW(((((''''''''''''''''''''''''(((((WRRRi;]]]]]]]]]]]]]]]]]",
"]]]]]]]]]]]]]]]]]4gWRW((((((''''''''''''''''''''''''((((((RWWa4]]]]]]]]]]]]]]]]]",
"]]]]]]]]]]]]]]] aRRRW(((''''''''''''''''''''''''''''''''(((WRRR0O]]]]]]]]]]]]]]]",
"]]]]]]]]]]]]]]]9jWWW(((_'''''''''''''''''''''''''''''''')_((WEWd0]]]]]]]]]]]]]]]",
"]]]]]]]]]]]]]<0WWRW(((''''''''''''''''''''''''''''''''''')(((WREW0<]]]]]]]]]]]]]",
"]]]]]]]]]]]]]20WRWW_(('''''''''''''''''''''''''''''''''''')_(WWRR02]]]]]]]]]]]]]",
"]]]]]]]]]]]]]+8RW(((''''''''''''''''''''''''''''''''''''''')(((WR9.]]]]]]]]]]]]]",
"]]]]]]]]]]]]]udEW(_)_'''''''''''''''''''''''''''''''''''''''(((WEdu]]]]]]]]]]]]]",
"]]]]]]]]]]]O5EWRW()'''''''''''''''''''''''''''''''''''''''''')(WR^H>;]]]]]]]]]]]",
"]]]]]]]]]]]fjRWW(()''''`''''''''''''''''''''''''''''''''''')'_((WWHgd]]]]]]]]]]]",
"]]]]]]]]]27RWRW(((''''''''''''''''''''''''''''''''''''''''''')(((WR(H24]]]]]]]]]",
"]]]]]]]]]26HWWW(()RkCVCM(''''''''''''''''''''''''''''''(lCVClE)((WWWD24]]]]]]]]]",
"]]]]]]]]]26LW(('''Z     W''''''''''''''''''''''''''''''W     R'''((WF24]]]]]]]]]",
"]]]]]]]]]27LW(WjjCp >>>:hCjA''''''''''''''''''''''')CkCg:>,> dljjW(WF44]]]]]]]]]",
"]]]]]]]]];4HW(R    @       6''''''''''''''''''''''')        @    R(WF*,]]]]]]]]]",
"]]]]]]]],jDRE(R;-:: dRFHLF 0'''''''''''''''''''''''(24HHHHRd ::*;R_ERDk,]]]]]]]]",
"]]]]]]]42D(RE'WO +- C'''') 0''''''''''''''''''''''''>5'''''C ;+ .W'RR(F14]]]]]]]",
"]]]]]]]5,AW(Wp0@.+; l')''(*1uj''''''''''''''''''''ju.6)''''V -+.&9s(WWA<4]]]]]]]",
"]]]]]]]4<AW(W  @+@; V''''W;. 0''''''''''''''''''''0  6''')'l ;@+* 4((WA,4]]]]]]]",
"]]]]]]]4<AW(W1.&  * C''''(;@ i''''''''''''''''''''i  6'''''C @ .* 7((WA<5]]]]]]]",
"]]]]]]]4<AW(W> +*1, k'_)'W;@ i''''''''''''''''''''i  6))))'l 1,@* 7(^WA<4]]]]]]]",
"]]]]]]]41AW(W;  a'l 244444+* u''''''''''''''''''''u **44445, F'0  6((WA14]]]]]]]",
"]]]]]]]41AW)W52 a'C :      :*p''''''''''''''''''''p@;      ;*F'0 :0((WA14]]]]]]]",
"]]]]]]]4<AW(()E.:.j'j ;@@* 9))''''''''''''''''''''`(2 *@@; j'p@;.R'((WA14]]]]]]]",
"]]]]]]]4<A^(('W;; a'f -O*: 0''''''''''''''''''''''')4 ;*+* f(u ;;W'(WWA14]]]]]]]",
"]]]]]]]4<AW(('W      +.O   7'''''''''''''''''''''''(*   O.+      W'((WA14]]]]]]]",
"]]]]]]]4<AW(('(u0u6X=$$#0u0f''''''''''''''''''''''')puu9#$$=#8uuu(')WWA14]]]]]]]",
"]]]]]]]51AW((''`)'V o   R''''''''''''''''''''''''''''''R     G'_)''((WA15]]]]]]]",
"]]]]]]]41AW((''(^!MqrrreY))'''''''''''''''''''''''''')(RerrrwS!^(')_^WA14]]]]]]]",
"]]]]]]]41AW((((`Uybbbbbb/`()'''''''''''''''''''''''')(`/bbbbncz~`(((WWA14]]]]]]]",
"]]]]]]]41AW(((/PBbbbbbbbJI(('''''''''''''''''''''''')/PJbbbbbbbJP(_((WA14]]]]]]]",
"]]]]]]]41AW((_~ccbbbbvbbzm(('''''''''''''''''''''''')^cxbbbbbvbxx~_((WA14]]]]]]]",
"]]]]]]]41AW(((~mbbbbbbbbcN(_''''''''''''''''''''''''(^nbbbbbbbbbn~()(WA<4]]]]]]]",
"]]]]]]]41AW(((~ccnbbbbbbzm()'''''''''''''''''''''''')^czbbbbbbbcx^_(^WA14]]]]]]]",
"]]]]]]]41A^((((QJcbbbbbbK!()''''''''''''''''''''''''((!PbbbbbbvPT(_((WA,4]]]]]]]",
"]]]]]]]4<AW((((`Uycccccx~`((''''''''''''''''''''''''((`/xxccxxx~`((_(WA<4]]]]]]]",
"]]]]]]]5<AW(_''(^TQTTTTT(_)''''''''''''''''''''''''')'((QTQQQQQ/()'(^WA15]]]]]]]",
"]]]]]]]4<AW((''((__(__(_((''''''''''''''''''''''''''''((_____(_((''(WWA14]]]]]]]",
"]]]]]]]4<AW(('''')'''`''''''''''''''''''''''''''''''''')'`)')''''''((WA<4]]]]]]]",
"]]]]]]]4<AW((''''''''''''''''''''''''''''''''''''''''''''''''''''''((WA14]]]]]]]",
"]]]]]]]5<AW((''''''''''''''''''''''''''''''''''''''''''''''''''''''(^WA<4]]]]]]]",
"]]]]]]]4<AW(('''''''''''''''''''''''''''''''''''''''''''''''''''''')(WA15]]]]]]]",
"]]]]]]]4<AW((''''''''''''''''''''''''''''''''''''''''''''''''''''''_WWA14]]]]]]]",
"]]]]]]]41AW()'''''''''''''''')'''')''''''''''''''''''''''''''''''')((WA14]]]]]]]",
"]]]]]]]41AW((((((((((()'''''(((((((((''''''(((((((((''''''''((((((()^WA14]]]]]]]",
"]]]]]]]4<AW(((((W(((((''''')(((((((((''''')((((W(((('''''`'(((^((((_(WA14]]]]]]]",
"]]]]]]]4<AW(_((RWWRR((((''((((RWWRR((((''((_^RWWRR((((''(((WRWWRE()(WWA14]]]]]]]",
"]]]]]]]4<AW(((WELAHEW(((''(((WRHAHRW(((''(((WRHAHWW(((')(((WRFARR^((WWA,4]]]]]]]",
"]]]]]]]4<AW((RE`A j_WRW(((_(RW)l C)WR((((((RW(g D(RE()(()WRW(p H(RW((WA14]]]]]]]",
"]]]]]]]4<A(WWRHMg]alFWWW((WWEHld]glFRW(((^WWFla]glHWW^((^WEFki:jlHW(WWA14]]]]]]]",
"]]]]]]]4<AWRW(R:-]] k(ER((ER(F >], Z(RR((RR(Z ]]: F(RW_(RE)k ]];>RWRRWA15]]]]]]]",
"]]]]]]]51AWRRlh6]]]2akHWWWELkg4]]]2gkRR^WEHjg2]]]4glRRWWEFkd2]]]6gCRRWA14]]]]]]]",
"]]]]]]]41AW^R2@]]]]]: F(ER(H;;]]]]]*>H(RE(A >]]]]]+5E(RR(V ,]]]]] 9^WWA14]]]]]]]",
"]]]]]]]4,AWjg7]]]]]]]4gjLRjg5]]]]]]]5gkRHjg]]]]]]]]7gkWHjd]]]]]]]]0hlWA<4]]]]]]]",
"]]]]]]]4,FW5.]]]]]]]]];+HR>*]]]]]]]]]*1WH :]]]]]]]]] 6(H*;]]]]]]]]] 0(F,4]]]]]]]",
"]]]]]]]42ua]]]]]]]]]]]]]pp]]]]]]]]]]]]]pp]]]]]]]]]]]]]pp]]]]]]]]]]]]]au44]]]]]]]",
"]]]]]]]451:]]]]]]]]]]]]]>:]]]]]]]]]]]]]>:]]]]]]]]]]]]],>]]]]]]]]]]]]]>152]]]]]]]",
"]]]]]]]]]]]]]]]]]]]]]]]]]]]]]]]]]]]]]]]]]]]]]]]]]]]]]]]]]]]]]]]]]]]]]]]]]]]]]]]]",
"]]]]]]]]]]]]]]]]]]]]]]]]]]]]]]]]]]]]]]]]]]]]]]]]]]]]]]]]]]]]]]]]]]]]]]]]]]]]]]]]",
"]]]]]]]]]]]]]]]]]]]]]]]]]]]]]]]]]]]]]]]]]]]]]]]]]]]]]]]]]]]]]]]]]]]]]]]]]]]]]]]]",
"]]]]]]]]]]]]]]]]]]]]]]]]]]]]]]]]]]]]]]]]]]]]]]]]]]]]]]]]]]]]]]]]]]]]]]]]]]]]]]]]",
"]]]]]]]]]]]]]]]]]]]]]]]]]]]]]]]]]]]]]]]]]]]]]]]]]]]]]]]]]]]]]]]]]]]]]]]]]]]]]]]]",
"]]]]]]]]]]]]]]]]]]]]]]]]]]]]]]]]]]]]]]]]]]]]]]]]]]]]]]]]]]]]]]]]]]]]]]]]]]]]]]]]"
};
