/* XPM */
static char *_3756_849fa122e338a3f3d29aa5e69460673b11fa8b41fb7e156a277744be6e234856[] = {
/* columns rows colors chars-per-pixel */
"80 80 89 1 ",
"  c #000000",
". c #060C0B",
"X c #0C0D0D",
"o c #190000",
"O c #0C1010",
"+ c #141414",
"@ c #1C1C1C",
"# c #250E12",
"$ c #271215",
"% c #2D1C1E",
"& c #232424",
"* c #272828",
"= c #2B2B2B",
"- c #342729",
"; c #372A2C",
": c #333333",
"> c #3D3E3E",
", c #3F4040",
"< c #414141",
"1 c #4B4B4B",
"2 c #565656",
"3 c #585757",
"4 c #5B5B5B",
"5 c #626262",
"6 c #686767",
"7 c #6C6C6C",
"8 c #706F6F",
"9 c #737272",
"0 c #787777",
"q c #7D7C7C",
"w c #B25E6A",
"e c #B4626E",
"r c #B76772",
"t c #B96B76",
"y c #FD788D",
"u c #828282",
"i c #8A8687",
"p c #8B8B8B",
"a c #908E8E",
"s c #949393",
"d c #989696",
"f c #9C9B9B",
"g c #A5A4A4",
"h c #A8A6A6",
"j c #ADACAC",
"k c #B0AFAF",
"l c #B4B3B3",
"z c #BDBDBD",
"x c #FC8295",
"c c #FC8798",
"v c #FC8B9C",
"b c #FA909F",
"n c #FC93A2",
"m c #FD98A6",
"M c #FC9CA9",
"N c #DEA9AF",
"B c #FBA6B1",
"V c #FAACB6",
"C c #E7B5BB",
"Z c #FAB1BA",
"A c #FABBC3",
"S c #BEC7C6",
"D c #C4C3C3",
"F c #CDCCCC",
"G c #D0CFCF",
"H c #D4D3D3",
"J c #D8D7D7",
"K c #D7DEDD",
"L c #DDDCDC",
"P c #F9C3C9",
"I c #F9C9CE",
"U c #FACCD1",
"Y c #E0DFDF",
"T c #F8D3D7",
"R c #F8D5D9",
"E c #F7DCDF",
"W c #F8D9DD",
"Q c #E5E4E4",
"! c #E8E6E6",
"~ c #ECECEC",
"^ c #F5E4E6",
"/ c #F7E7E9",
"( c #F4EDED",
") c #F8ECED",
"_ c #F4F4F4",
"` c #F5F8F7",
"' c #F4FCFB",
"] c #FFFFFF",
"[ c None",
/* pixels */
"[[[[[[[[[[[[[[[[[[[[[[[[[[[[[[[[[[[[[[[[[[[[[[[[[[[[[[[[[[[[[[[[[[[[[[[[[[[[[[[[",
"[[[[[[[[[[[[[[[[[[[[[[[[[[[[[[[[[[[[[[[[[[[[[[[[[[[[[[[[[[[[[[[[[[[[[[[[[[[[[[[[",
"[[[[[[[[[[[[[[[[[[[[[[[[[[[[[[[[[[[[[[[[[[[[[[[[[[[[[[[[[[[[[[[[[[[[[[[[[[[[[[[[",
"[[[[[[[[[[[[[[[[[[[[[[[[[[[[[[[[[[[[[[[[[[[[[[[[[[[[[[[[[[[[[[[[[[[[[[[[[[[[[[[[",
"[[[[[[[[[[[[[[[[[[[[[[[[[[[[[[[[[[[[[[[[[[[[[[[[[[[[[[[[[[[[[[[[[[[[[[[[[[[[[[[[",
"[[[[[[[[[[[[[[[[[[[[[[[[[[[[[[[[[[[[[[[[[[[[[[[[[[[[[[[[[[[[[[[[[[[[[[[[[[[[[[[[",
"[[[[[[[[[[[[[[[[[[[[[[[[[[[[[[[[[[[[[[[[[[[[[[[[[[[[[[[[[[[[[[[[[[[[[[[[[[[[[[[[",
"[[[[[[[[[[[[[[[[[[[[[[[[[[[[[[[[[[[[[[[[[[[[[[[[[[[[[[[[[[[[[[[[[[[[[[[[[[[[[[[[",
"[[[[[[[[[[[[[[[[[[[[[[[[[[[[[[[[[[[[[[[[[[[[[[[[[[[[[[[[[[[[[[[[[[[[[[[[[[[[[[[[",
"[[[[[[[[[[[[[[[[[[[[[[[[[[[[[[[[[[[[[[[[[[[[[[[[[[[[[[[[[[[[[[[[[[[[[[[[[[[[[[[[",
"[[[[[[[[[[[[[[[[[[[[[[[[[[[[[[[[[[[[[[[[[[[[[[[[[[[[[[[[[[[[[[[[[[[[[[[[[[[[[[[[",
"[[[[[[[[[[[[[[[[[[[[[[[[[[[[[[[[2222222222233223[[[[[[[[[[[[[[[[[[[[[[[[[[[[[[[[",
"[[[[[[[[[[[[[[[[[[[[[[[[[[[[[[[[<<,><>,,,,,,,>><[[[[[[[[[[[[[[[[[[[[[[[[[[[[[[[[",
"[[[[[[[[[[[[[[[[[[[[[[[[[[2224:hHFFFFFFFFFFFFFFGs>3222[[[[[[[[[[[[[[[[[[[[[[[[[[",
"[[[[[[[[[[[[[[[[[[[[[[[[[[<<<1 l_~~!~~~~~~~~~!~_f 1<<<[[[[[[[[[[[[[[[[[[[[[[[[[[",
"[[[[[[[[[[[[[[[[[[[[[[[[>7GHGGFJQ!___~_~_~_~__!!JFHGGF2<[[[[[[[[[[[[[[[[[[[[[[[[",
"[[[[[[[[[[[[[[[[[[[[[[[[1u~~~(~~!(``____`___`'~!!~~~(Q72[[[[[[[[[[[[[[[[[[[[[[[[",
"[[[[[[[[[[[[[[[[[[[[[11<GQ!!_______']]]]]]]]]_______!QQF<11[[[[[[[[[[[[[[[[[[[[[",
"[[[[[[[[[[[[[[[[[[[[5755L~Q~__`__`_]]]]]]]]]`_______!!(J5575[[[[[[[[[[[[[[[[[[[[",
"[[[[[[[[[[[[[[[[[[[ lQLQ!!(__`]]]]]]]]]]]]]]]]]]]]`__(QQYY!k [[[[[[[[[[[[[[[[[[[",
"[[[[[[[[[[[[[[[[[[uqD~!~~~_``']]]]]]]]]]]]]]]]]]]]'``_~~~!~Dq[[[[[[[[[[[[[[[[[[[",
"[[[[[[[[[[[[[[[[[ h_QQ_`____]]]]]]]]]]]]]]]]]]]]]]]]______Q!(a [[[[[[[[[[[[[[[[[",
"[[[[[[[[[[[[[[[[uuz!!!___``']]]]]]]]]]]]]]]]]]]]]]]]```_`_~!!ju[[[[[[[[[[[[[[[[[",
"[[[[[[[[[[[[[[[ f_QQ____]]]]]]]]]]]]]]]]]]]]]]]]]]]]]]]]__`~Q~~uX[[[[[[[[[[[[[[[",
"[[[[[[[[[[[[[[[ul~!~(```]]]]]]]]]]]]]]]]]]]]]]]]]]]]]]]]___(~!!hi[[[[[[[[[[[[[[[",
"[[[[[[[[[[[[[>q~~Q~___]]]]]]]]]]]]]]]]]]]]]]]]]]]]]]]]]]]]__`~Q~!u>[[[[[[[[[[[[[",
"[[[[[[[[[[[[[1q!!~__``]]]]]]]]]]]]]]]]]]]]]]]]]]]]]]]]]]]]``_(~!!u1[[[[[[[[[[[[[",
"[[[[[[[[[[[[[ 7!(___`]]]]]]]]]]]]]]]]]]]]]]]]]]]]]]]]]]]]]]'_`_~!7 [[[[[[[[[[[[[",
"[[[[[[[[[[[[9jzQ~``]]]]]]]]]]]]]]]]]]]]]]]]]]]]]]]]]]]]]]]]''`_~Qzh[[[[[[[[[[[[[",
"[[[[[[[[[[[+5!(Q~_']]]]]]]]]]]]]]]]]]]]]]]]]]]]]]]]]]]]]]]]]]`(~Q_L:*[[[[[[[[[[[",
"[[[[[[[[[[4lzQQ~__`]]]`]]]]]]]]]]]]]]]]]]]]]]]]]]]]]]]]]]]]]]`_((!Qlj<[[[[[[[[[[",
"[[[[[[[[[17!(Q!`__]]]]]]]]]]]]]]]]]]]]]]]]]]]]]]]]]]]]]]]]]]]'_`_!Q_J22[[[[[[[[[",
"[[[[[[[[[15L!(___]Jifdss~]]]]]]]]]]]]]]]]]]]]]]]]]]]]]]~sssfpQ]__(~~H12[[[[[[[[[",
"[[[[[[[[[15Y~_`']]D     ~]]]]]]]]]]]]]]]]]]]]]]]]]]]]]]~     L]']`_~G12[[[[[[[[[",
"[[[[[[[[[<5Y~_!iis7X*@@+usuj]]]]]]]]]]]]]]]]]]]]]]]'fipu@@@&@qsii!_~H11[[[[[[[[[",
"[[[[[[[[[27Y~`Q    +&:::   6]]]]]]]]]]]]]]]]]]]]]]]`&   :::&X    Q_~H24[[[[[[[[[",
"[[[[[[[2>DQ!!'!*&=: l]((_! q]]]]]]]]]]]]]]]]]]]]]]]`<4___('l :=&*!`!QQD>2[[[[[[[",
"[[[[[[[3<F(!Q_Y+ +* S']]]_ 9]']]]]]]]]]]]]]]]]]]]]]_:5]]]]]S *+ OQ_!Q(G,2[[[[[[[",
"[[[[[[[3,F~_~5<@OO* N'']]~*=>f]]]]]]]]]]]]]]]]]]]]d> 5]]]''S *XO&:q__~F,3[[[[[[[",
"[[[[[[[3,F~_~* @@&: z]]]]_=@ u]]]]]]]]]]]]]]]]]]]]u  5']]]'N :*+& 5`~~F,2[[[[[[[",
"[[[[[[[2<F~_~> &    D]]]]_:@ i]]]]]]]]]]]]]]]]]]]]p  5]]]]]D    & 7__~F,2[[[[[[[",
"[[[[[[[2>F~_~<+ 1u6 j~QQ!J*& p]]]]]]]]]]]]]]]]]]]]p  3QQQQ~j 9q>+ 7__~G,2[[[[[[[",
"[[[[[[[2<F~_~   h]D       +@ q]]]]]]]]]]]]]]]]]]]]t.*.       Q]u  2_(~F,3[[[[[[[",
"[[[[[[[3<F~_~sq p(zq5 &@@& <ql]]]]]]]]]]]]]]]]]]]]l9: %@@& 5uF!7 9g_(~F,2[[[[[[[",
"[[[[[[[2<F~__]_@X l]z =X.& q]]]]]]]]]]]]]]]]]]]]]]]'1 @.+* D]p ++_]__~F,2[[[[[[[",
"[[[[[[[2>F~__]!=: f~f &+*: q]]]]]]]]]]]]]]]]]]]]]]]_2+:&X& f!u ::~]_(~F<2[[[[[[[",
"[[[[[[[2<F~__]~      +.O   5]]]]]]]]]]]]]]]]]]]]]]]`    O.+      ~]_~~F<2[[[[[[[",
"[[[[[[[3<F~__]_jjlio;%%$fllD]]]]]]]]]]]]]]]]]]]]]]]]zllf$%%-#sljj_]__~F<2[[[[[[[",
"[[[[[[[3,F~__]]]]]S     Q]]]]]]]]]]]]]]]]]]]]]]]]]]]]]]!     K]]]]]_(~F,2[[[[[[[",
"[[[[[[[2<F~__'`_^UNwtttrQ```]]]]]]]]]]]]]]]]]]]]]]]]``_QrttteCU/_'``_(F,2[[[[[[[",
"[[[[[[[2,F~____'Wynmnmnn)'__]]]]]]]]]]]]]]]]]]]]]]]]__')nmmnmvx/'__`~~F,2[[[[[[[",
"[[[[[[[2,F~__`)AVnnbnnnnZP_`]]]]]]]]]]]]]]]]]]]]]]]]__AZnvnnnnnZA)_`_~F,3[[[[[[[",
"[[[[[[[3,F~__`/cvnnbbnnnxm)`]]]]]]]]]]]]]]]]]]]]]]]]`(vcnnvnnbncc)___~F<2[[[[[[[",
"[[[[[[[2,F~_``(mnnnnnbnnnB_`]]]]]]]]]]]]]]]]]]]]]]]]_(mnnnnnnnnnn)`_~~F,2[[[[[[[",
"[[[[[[[2,F~___/vvnnnnbbncM_`]]]]]]]]]]]]]]]]]]]]]]]]`)vvnnnbnnnvc(___~F,2[[[[[[[",
"[[[[[[[2,F~____/IcbbnbbbT/_`]]]]]]]]]]]]]]]]]]]]]]]]`_^RbvnnvnvT^____~F,2[[[[[[[",
"[[[[[[[2,G~_`__'EvMmmmmm)'__]]]]]]]]]]]]]]]]]]]]]]]]__')nmmmmmn/`__`(~F,2[[[[[[[",
"[[[[[[[3>F~(`]]__))(((((__]]]]]]]]]]]]]]]]]]]]]]]]]]]]__(((((((__]]__~F,2[[[[[[[",
"[[[[[[[2,G~__]]__``__``__`]]]]]]]]]]]]]]]]]]]]]]]]]]]]__`_```____]]`~~F,2[[[[[[[",
"[[[[[[[2,G/(_]]]]]]]]]]]]]]]]]]]]]]]]]]]]]]]]]]]]]]]]]]]]]]]]]]]]]]__~F,3[[[[[[[",
"[[[[[[[2,F~_`]]]]]]]]]]]]]]]]]]]]]]]]]]]]]]]]]]]]]]]]]]]]]]]]]]]]]]__~F,2[[[[[[[",
"[[[[[[[2<F~_`]]]]]]]]]]]]]]]]]]]]]]]]]]]]]]]]]]]]]]]]]]]]]]]]]]]]]]_(~F,2[[[[[[[",
"[[[[[[[2,F~__]]]]]]]]]]]]]]]]]]]]]]]]]]]]]]]]]]]]]]]]]]]]]]]]]]]]]]`(~F<2[[[[[[[",
"[[[[[[[2,F~__]]]]]]]]]]]]]]]]]]]]]]]]]]]]]]]]]]]]]]]]]]]]]]]]]]]]]]`(~F,3[[[[[[[",
"[[[[[[[2,F~__]']]]]']']]]]]]]']`]]`]]]]]]]]]]]]]']]]]]]]]]]]]`]]']]_(~F,3[[[[[[[",
"[[[[[[[2<F~___________]]]]]]__`_`'__(]]]]]'_________]]]]]]]'_```___`(~F<2[[[[[[[",
"[[[[[[[2,F~_____(~((__'']]'`__)(~~~```]]]]'__~(~((__]`]]']]`(~~~(__`(~F,2[[[[[[[",
"[[[[[[[2,F~____Q~(!Q)`__]]____Q!~~Q~`__]]__`_Q!~!Q_`__]]___~Q~(!Q__`_~F,2[[[[[[[",
"[[[[[[[2<F~___(!JjF!!___]'___!!JjH!~(_`'___~~!FjJ!~(__''__~~!DlY!~(`~~F,3[[[[[[[",
"[[[[[[[3,F~__QQ'F k_!Q_`__`_QQ_z.N'QQ_`__`_Q!'j H_Q!______Q!_s J`Q!`_~F<2[[[[[[[",
"[[[[[[[2<F~~~!Llg[flG!~(___!!Jlf[glJ!~~`((!!Jld[hlL!~(`_~~!Hkp[jlY~~~~F,2[[[[[[[",
"[[[[[[[2,F~QQ(Q:&[[ l_!Q(_!Q_J :[> D_Q!__!!_D [[: G_Q!__!!_l [[&:Y(QQ~F,3[[[[[[[",
"[[[[[[[2<F~QQfp[[[[[asJ!!~!Lds[[[[[pfL!~!!Jss[[[[[agQ!~!~Fsp[[[[[phQQ~F,2[[[[[[[",
"[[[[[[[2<F~~Q2*[[[[[>@H_QQ_L::[[[[[:>Q(Q!_F >[[[[[&3Q~QQ_S <[[[[[.0~~~F<2[[[[[[[",
"[[[[[[[2>F~fi[[[[[[[[[psYQsp[[[[[[[[[pfQLsi[[[[[[[[[ig!Lsi[[[[[[[[[ih~F,2[[[[[[[",
"[[[[[[[2,F!2&[[[[[[[[[:=JY>=[[[[[[[[[=<QH@>[[[[[[[[[@5!J::[[[[[[[[[ q!F<2[[[[[[[",
"[[[[[[[2259[[[[[[[[[[[[[89[[[[[[[[[[[[[78[[[[[[[[[[[[[98[[[[[[[[[[[[[9522[[[[[[[",
"[[[[[[[231<[[[[[[[[[[[[[<<[[[[[[[[[[[[[1<[[[[[[[[[[[[[1<[[[[[[[[[[[[[1131[[[[[[[",
"[[[[[[[[[[[[[[[[[[[[[[[[[[[[[[[[[[[[[[[[[[[[[[[[[[[[[[[[[[[[[[[[[[[[[[[[[[[[[[[[",
"[[[[[[[[[[[[[[[[[[[[[[[[[[[[[[[[[[[[[[[[[[[[[[[[[[[[[[[[[[[[[[[[[[[[[[[[[[[[[[[["
};
