/* XPM */
static char *_1869_45d403968e362c53089321f1301c18697befb482be7cc39a71e740aa6562882d[] = {
/* columns rows colors chars-per-pixel */
"80 80 71 1 ",
"  c #000000",
". c gray9",
"X c #171919",
"o c #1B1C1C",
"O c #232424",
"+ c #272828",
"@ c #2B2B2B",
"# c #2F3030",
"$ c #343434",
"% c #363838",
"& c #3D3D3D",
"* c #3F4040",
"= c #414141",
"- c #474848",
"; c #4A4A4A",
": c #555555",
"> c #5D5D5D",
", c #636363",
"< c #686767",
"1 c #6C6C6C",
"2 c #747474",
"3 c #7D7C7C",
"4 c #FD7B90",
"5 c #838383",
"6 c #888686",
"7 c #8C8C8C",
"8 c #908F8F",
"9 c #949393",
"0 c #9B9B9B",
"q c #A6A5A5",
"w c #A8A7A7",
"e c #ABAAAA",
"r c #B4B3B3",
"t c #BCBBBB",
"y c #FC8597",
"u c #FC8698",
"i c #FC8B9B",
"p c #FC909F",
"a c #FC93A2",
"s c #FC99A6",
"d c #FC9BA8",
"f c #FBA3AF",
"g c #FBA6B1",
"h c #FBACB6",
"j c #FAAFB8",
"k c #FAB6BE",
"l c #FAB9C1",
"z c #C4C3C3",
"x c #C8C7C7",
"c c #CDCCCC",
"v c #D0CFCF",
"b c #D4D4D4",
"n c #D8D7D7",
"m c #DDDCDC",
"M c #F9C0C7",
"N c #E0DFDF",
"B c #F8D2D6",
"V c #F7DADD",
"C c #F7DEE0",
"Z c #E5E4E4",
"A c #E8E7E7",
"S c #ECEBEB",
"D c #F7E0E2",
"F c #F6E7E9",
"G c #F4EDED",
"H c #F4F4F4",
"J c #F8F7F7",
"K c #F4F8F7",
"L c #F5F9F9",
"P c #FFFFFF",
"I c None",
/* pixels */
"IIIIIIIIIIIIIIIIIIIIIIIIIIIIIIIIIIIIIIIIIIIIIIIIIIIIIIIIIIIIIIIIIIIIIIIIIIIIIIII",
"IIIIIIIIIIIIIIIIIIIIIIIIIIIIIIIIIIIIIIIIIIIIIIIIIIIIIIIIIIIIIIIIIIIIIIIIIIIIIIII",
"IIIIIIIIIIIIIIIIIIIIIIIIIIIIIIIIIIIIIIIIIIIIIIIIIIIIIIIIIIIIIIIIIIIIIIIIIIIIIIII",
"IIIIIIIIIIIIIIIIIIIIIIIIIIIIIIIIIIIIIIIIIIIIIIIIIIIIIIIIIIIIIIIIIIIIIIIIIIIIIIII",
"IIIIIIIIIIIIIIIIIIIIIIIIIIIIIIIIIIIIIIIIIIIIIIIIIIIIIIIIIIIIIIIIIIIIIIIIIIIIIIII",
"IIIIIIIIIIIIIIIIIIIIIIIIIIIIIIIIIIIIIIIIIIIIIIIIIIIIIIIIIIIIIIIIIIIIIIIIIIIIIIII",
"IIIIIIIIIIIIIIIIIIIIIIIIIIIIIIIIIIIIIIIIIIIIIIIIIIIIIIIIIIIIIIIIIIIIIIIIIIIIIIII",
"IIIIIIIIIIIIIIIIIIIIIIIIIIIIIIIIIIIIIIIIIIIIIIIIIIIIIIIIIIIIIIIIIIIIIIIIIIIIIIII",
"IIIIIIIIIIIIIIIIIIIIIIIIIIIIIIIIIIIIIIIIIIIIIIIIIIIIIIIIIIIIIIIIIIIIIIIIIIIIIIII",
"IIIIIIIIIIIIIIIIIIIIIIIIIIIIIIIIIIIIIIIIIIIIIIIIIIIIIIIIIIIIIIIIIIIIIIIIIIIIIIII",
"IIIIIIIIIIIIIIIIIIIIIIIIIIIIIIIIIIIIIIIIIIIIIIIIIIIIIIIIIIIIIIIIIIIIIIIIIIIIIIII",
"IIIIIIIIIIIIIIIIIIIIIIIIIIIIIIIIIIIIIIIIIIIIIIIIIIIIIIIIIIIIIIIIIIIIIIIIIIIIIIII",
"IIIIIIIIIIIIIIIIIIIIIIIIIIIIIIIIIIIIIIIIIIIIIIIIIIIIIIIIIIIIIIIIIIIIIIIIIIIIIIII",
"IIIIIIIIIIIIIIIIIIIIIIIIIIIIIIII::::::::::::::::IIIIIIIIIIIIIIIIIIIIIIIIIIIIIIII",
"IIIIIIIIIIIIIIIIIIIIIIIIIIIIIIII;=--==--==--===-IIIIIIIIIIIIIIIIIIIIIIIIIIIIIIII",
"IIIIIIIIIIIIIIIIIIIIIIIIII;;;:oqbcccbcccbcccbcbb9O:;;;IIIIIIIIIIIIIIIIIIIIIIIIII",
"IIIIIIIIIIIIIIIIIIIIIIIIII>,><-rHSSSSSSSSSSSGSSHq;,>,>IIIIIIIIIIIIIIIIIIIIIIIIII",
"IIIIIIIIIIIIIIIIIIIIIIII$1ZmNNNZZSHHHHHHHHHSHHAZNmmZZb:=IIIIIIIIIIIIIIIIIIIIIIII",
"IIIIIIIIIIIIIIIIIIIIIIII:5ASSAAAAGPHHJHHHJHPHKAZAAASSZ1>IIIIIIIIIIIIIIIIIIIIIIII",
"IIIIIIIIIIIIIIIIIIIII&&$bZZAHHHHHHHLPPPPPPPLPHHHHHHHAZZv$&&IIIIIIIIIIIIIIIIIIIII",
"IIIIIIIIIIIIIIIIIIII3755mSASHHPHHHJLPPPPPPPPPHHPPHHHAASm5563IIIIIIIIIIIIIIIIIIII",
"IIIIIIIIIIIIIIIIIII rHAAZAHJHHPPPPPPPPPPPPPPPPPPPPHHJHAZAAHr IIIIIIIIIIIIIIIIIII",
"IIIIIIIIIIIIIIIIII55zSAASSHHPHPPPPPPPPPPPPPPPPPPPPPHHHSSSASz5IIIIIIIIIIIIIIIIIII",
"IIIIIIIIIIIIIIIII qHZZHJHJHHPPPPPPPPPPPPPPPPPPPPPPPPHHJHKGZAG7 IIIIIIIIIIIIIIIII",
"IIIIIIIIIIIIIIII66tSASHHHPHJPPPPPPPPPPPPPPPPPPPPPPPPHHPHHHAAAr5IIIIIIIIIIIIIIIII",
"IIIIIIIIIIIIIII 0HAZSHHHPPPPPPPPPPPPPPPPPPPPPPPPPPPPPPPPHHPSZAH3 IIIIIIIIIIIIIII",
"IIIIIIIIIIIIII2qzSAHHHPHPPPPPPPPPPPPPPPPPPPPPPPPPPPPPPPPJPHSHAZtq2IIIIIIIIIIIIII",
"IIIIIIIIIIIII=5GSZSHHSPPPPPPPPPPPPPPPPPPPPPPPPPPPPPPPPPPPLHHHAZSG5&IIIIIIIIIIIII",
"IIIIIIIIIIIII;3ZAGHHHPPPPPPPPPPPPPPPPPPPPPPPPPPPPPPPPPPPPPPHHHSZA3;IIIIIIIIIIIII",
"IIIIIIIIIIIII 1ASHJHPPPPPPPPPPPPPPPPPPPPPPPPPPPPPPPPPPPPPPPPHHHSA1 IIIIIIIIIIIII",
"IIIIIIIIIIII2etZSHJLPPPPPPPPPPPPPPPPPPPPPPPPPPPPPPPPPPPPPPPLJHHSAte>IIIIIIIIIIII",
"IIIIIIIIIII+,SHZSJLPPPPPPPPPPPPPPPPPPPPPPPPPPPPPPPPPPPPPPPPPPPJAZHN-$IIIIIIIIIII",
"IIIIIIIIII>zvZAGHHPPPPPPPPPPPPPPPPPPPPPPPPPPPPPPPPPPPPPPPPPLPHHHSSZvt-:IIIIIIIII",
"IIIIIIIII;<ZSAAHHSPPPPPPPPPPPPPPPPPPPPPPPPPPPPPPPPPPPPPPPPPPPPHHHSZSb::IIIIIIIII",
"IIIIIIIII;,NSSHHHPb37776SPPPPPPPPPPPPPPPPPPPPPPPPPPPLPPH67795ZPHKGGAb-:IIIIIIIII",
"IIIIIIIII;,NSKHGHPz     ZPPPPPPPPPPPPPPPPPPPPPPPPPPPPPPZ     nPHGLHSb;:IIIIIIIII",
"IIIIIIIII->ZSJA>>&rPHHHH6::7PPPPPPPPPPPPPPPPPPPPPPPH2>;6HHHHP0*>>ZHSb=;IIIIIIIII",
"IIIIIIIII>1mZJZ X rPPPPP3  1PPPPPPPPPPPPPPPPPPPPPPPH&  3PPPPL0   ZHAb>,IIIIIIIII",
"IIIIIII:&xZ:>HA 0PHPPPPPLS 2PPPPPPPPPPPPPPPPPPPPPPPP&>HHPPPPPHP3 SSo2Ax&:IIIIIII",
"IIIIIII:*cA::HZ qPPPPPPPPJ 2PPPPPPPPPPPPPPPPPPPPPPPH&,PPPPPPPPP5 ZZ 3Hc=:IIIIIII",
"IIIIIII:*cSSA*X 0PPPPPPPPH   7PPPPPPPPPPPPPPPPPPPP7  ;PPPPPPPPP2  <SASx=:IIIIIII",
"IIIIIII:*cSLG532tPPPPPPPPH551ePPPPPPPPPPPPPPPPPPPPe139PPPPPPPPPq329PHSc=:IIIIIII",
"IIIIIII:*cSHLPPPPPPPPPPPPPPPPPPPPPPPPPPPPPPPPPPPPPPPPPPPPPPPPPPPPPPHHSc=:IIIIIII",
"IIIIIII>*vSSLLPPPPPPPPPPPPPPPPPPPPPPPPPPPPPPPPPPPPPPPPPPPPPPPPPPPPPHSSc=:IIIIIII",
"IIIIIII:*cSHHPPPPPPPPPPPPPPPPPPPPPPPPPPPPPPPPPPPPPPPPPPPPPPPPPPPPPPHHSc=>IIIIIII",
"IIIIIII:*cGHHPPPPPPPPPPPPPPPPPPPPPPPPPPPPPPPPPPPPPPPPPPPPPPPPPPPPPPHGSc&:IIIIIII",
"IIIIIII:*cSGPPPPPPPPPPPPPPPPPPPPPPPPPPPPPPPPPPPPPPPPPPPPPPPPPPPPPPLLGSc=:IIIIIII",
"IIIIIII:*vSGHPPPPPPPPPPPPPPPPPPPPPPPPPPPPPPPPPPPPPPPPPPPPPPPPPPPPPPLGSc=:IIIIIII",
"IIIIIII:=cSHHPPPPPPPPPLPPLPPPPPPPPPPPPPPPPPPPPPPPPPPPPPPPPPPPPPPPPPHHSc*:IIIIIII",
"IIIIIII:=cAHHPPPLJPJHPPJPPPPPPPPPPPPPPPPPPPPPPPPPPPPPPJPJJKPJPJJLPPHHSc=:IIIIIII",
"IIIIIII:=cSHHLPHKLJJHJLLHHPPPPPPPPPPPPPPPPPPPPPPPPPPPPHHKKKLLLJHHLPKGSc*:IIIIIII",
"IIIIIII:=cSHJPHHDkllllllGHHPPPPPPPPPPPPPPPPPPPPPPPPPPKKGlllllllFKJJHSSc=:IIIIIII",
"IIIIIII:*cSGHHHLV4iiiiiuFLGHPPPPPPPPPPPPPPPPPPPPPPPPHHLFuiiuiuyFLHHKHSc*:IIIIIII",
"IIIIIII:*vSHHJHlgaaaaaaakMHPPPPPPPPPPPPPPPPPPPPPPPPPJGljaaaasaajkHLHGSc*>IIIIIII",
"IIIIIII:*cSHHLFiiapaaaaaydHHPPPPPPPPPPPPPPPPPPPPPPPPJGiiaapaaaaiiFLHGSc*:IIIIIII",
"IIIIIII>*cSHHJFaaaaaapaaifHJPPPPPPPPPPPPPPPPPPPPPPPPLGspaaaappaaaFKKHSc*:IIIIIII",
"IIIIIII:*cSHKLFdaaaaaaaapfHHPPPPPPPPPPPPPPPPPPPPPPPPLFdaaaaaaaaasFJHHAc*:IIIIIII",
"IIIIIII>*cSGHKHHByappppiCHHPPPPPPPPPPPPPPPPPPPPPPPPPKHHDipppiaiCHHHLHSc*:IIIIIII",
"IIIIIII:*cSHHHHLVadssddsFLHHPPPPPPPPPPPPPPPPPPPPPPPPHHHFsddssssFJHHHGSc*:IIIIIII",
"IIIIIII:*cGHJPLHHGGHGGGHHHPPPPPPPPPPPPPPPPPPPPPPPPPPPPHHGGGHGHGHHPPJGSc*>IIIIIII",
"IIIIIII:*cSHJPPJHPHJJJJJJPPPPPPPPPPPPPPPPPPPPPPPPPPPPPHPJJJJPHJKHPPHHSc=:IIIIIII",
"IIIIIII:=cSHHPPPPPPPPPPPPPPPPPPPPPPPPPPPPPPPPPPPPPPPPPPPPPPPPPPPPPPHGSc&:IIIIIII",
"IIIIIII:*cSHHPPPPPPPPPPPPPPPPPPPPPPPPPPPPPPPPPPPPPPPPPPPPPPPPPPPPPLLGSc=:IIIIIII",
"IIIIIII:*cSHHPPPPPPPPPPPPPPPPPPPPPPPPPPPPPPPPPPPPPPPPPPPPPPPPPPPPPPLGSc=:IIIIIII",
"IIIIIII:*cSHKLPPPPPPPPPPPPPPPPPPPPPPPPPPPPPPPPPPPPPPPPPPPPPPPPPPPPPHHSc=:IIIIIII",
"IIIIIII:*cSHJPPPPPPPPPPPPPPPPPPPPPPPPPPPPPPPPPPPPPPPPPPPPPPPPPPPPPPHSSc=:IIIIIII",
"IIIIIII:*vSSHLPPPHPPPJPPPPPPPHPPLLLLPPPPPPPPLLLLPPHPPPPPPPPPPPHPPPHHHSc=:IIIIIII",
"IIIIIII:*vSHHHHHHHHHHHPPPPPPHHHHHKHHHPPPPPPHHJJLHHHHPPPPPPPLHHHHHHHHGSc*>IIIIIII",
"IIIIIII>*cSHHHHGSSSGHHLLPLJPHHSSSGSHHHPPPHPHGSSSGSHHPPPPJLLHSSSGGHHLGSc*:IIIIIII",
"IIIIIII:*cSHHLHAASSZSJHHPPHHHHZAGAAHHHHPPHHJGZSGAZHHHHPPHHPSASGAZHKHGSc*:IIIIIII",
"IIIIIII:*cSGHGSAnecASGHHPHHHGAAbwbSAGHHPHHHSSSxwnSAHHHHPLHSSAzemASSLHSc*:IIIIIII",
"IIIIIII:*vSHKAZHx eHAZHHHHKHZZHt tHAZHHHHJHZAHq cHZZHHHHLSAAH8 nHAALGSc*:IIIIIII",
"IIIIIII:=cSAASm09I79xSASHHSASb99I99cSASHHSASv97I99nAASHHSASx9II89mSSASc=:IIIIIII",
"IIIIIII:=cSZZGN*@II rHAZHHAAHbX&I- zHZAHHZZHx II&XvHZAJHZZHr II$*mGZZSc=:IIIIIII",
"IIIIIII>*cSSZ07IIIII69nSAASm97IIIII60mSSASb96IIIII70ZASAGc86IIIII7qAZSc*:IIIIIII",
"IIIIIII:*cSAm;@IIIIIIXcSZZAb$$IIIII$&bAZZSx *IIIIIO:ZAZZSt IIIIII 1AZSc=>IIIIIII",
"IIIIIII:&vS5<IIIIIIIII11mZ31IIIIIIIII13Zn22IIIIIIIII<7Sm21IIIIIIIII,9Hc*:IIIIIII",
"IIIIIII:=xA>$IIIIIIIII-&bm;&IIIIIIIII&;Zb$;IIIIIIIII$,Zb*-IIIIIIIII@3Ax=:IIIIIII",
"IIIIIII;:,<IIIIIIIIIIIII<<IIIIIIIIIIIII<<IIIIIIIIIIIII1<IIIIIIIIIIIII1,::IIIIIII",
"IIIIIII::;-IIIIIIIIIIIII-;IIIIIIIIIIIII-;IIIIIIIIIIIII;-IIIIIIIIIIIII;;:;IIIIIII"
};
