/* XPM */
static char *_1786_7ee77040738c044504bc0ea6a3e523895caaceb6c995445271c1d56bcf00fc75[] = {
/* columns rows colors chars-per-pixel */
"80 80 84 1 ",
"  c #000000",
". c #070D0C",
"X c #0F0F0F",
"o c #0B100F",
"O c #0E1010",
"+ c #131414",
"@ c #1B1B1B",
"# c #261013",
"$ c #2A1619",
"% c #2C1B1D",
"& c #1F2020",
"* c #232323",
"= c #2B2B2B",
"- c #332527",
"; c #343434",
": c #373838",
"> c #3C3C3C",
", c #3F4040",
"< c #414141",
"1 c #4B4B4B",
"2 c #555555",
"3 c #5C5C5C",
"4 c #636363",
"5 c #6B6A6A",
"6 c #737373",
"7 c #787474",
"8 c #7C7C7C",
"9 c #AC5965",
"0 c #AE5E69",
"q c #817F7F",
"w c #B2636E",
"e c #B36671",
"r c #B36873",
"t c #FC778D",
"y c #FD7F92",
"u c #838383",
"i c #8D8D8D",
"p c #929292",
"a c #9C9B9B",
"s c #A4A3A3",
"d c #A8A7A7",
"f c #ABABAB",
"g c #B4B4B4",
"h c #B8B7B7",
"j c #BBBBBB",
"k c #FC8496",
"l c #FC8698",
"z c #FC8B9C",
"x c #FA919F",
"c c #FC93A2",
"v c #FD99A6",
"b c #FB9CA9",
"n c #DCABB1",
"m c #FBA6B1",
"M c #E6B8BD",
"N c #FABAC2",
"B c #BCC4C4",
"V c #C3C3C3",
"C c #CCCCCC",
"Z c #D0CFCF",
"A c #D4D3D3",
"S c #D4DCDB",
"D c #DCDBDB",
"F c #F9C2C8",
"G c #F9C8CD",
"H c #F8CFD4",
"J c #E0DFDF",
"K c #F9D1D6",
"L c #F8D4D8",
"P c #F7DADD",
"I c #F8DADD",
"U c #E5E4E4",
"Y c #E8E7E7",
"T c #ECEBEB",
"R c #F7E1E4",
"E c #F6E7E9",
"W c #F3EDEE",
"Q c #F6EFF0",
"! c #F4F4F4",
"~ c #F8F7F7",
"^ c #F5F8F7",
"/ c #F5FBFA",
"( c #FFFFFF",
") c None",
/* pixels */
"))))))))))))))))))))))))))))))))))))))))))))))))))))))))))))))))))))))))))))))))",
"))))))))))))))))))))))))))))))))))))))))))))))))))))))))))))))))))))))))))))))))",
"))))))))))))))))))))))))))))))))))))))))))))))))))))))))))))))))))))))))))))))))",
"))))))))))))))))))))))))))))))))))))))))))))))))))))))))))))))))))))))))))))))))",
"))))))))))))))))))))))))))))))))))))))))))))))))))))))))))))))))))))))))))))))))",
"))))))))))))))))))))))))))))))))))))))))))))))))))))))))))))))))))))))))))))))))",
"))))))))))))))))))))))))))))))))))))))))))))))))))))))))))))))))))))))))))))))))",
"))))))))))))))))))))))))))))))))))))))))))))))))))))))))))))))))))))))))))))))))",
"))))))))))))))))))))))))))))))))))))))))))))))))))))))))))))))))))))))))))))))))",
"))))))))))))))))))))))))))))))))3))))))))))))))3))))))))))))))))))))))))))))))))",
"))))))))))))))))))))))))))))))))<>>>:>>>>>>>>>>,))))))))))))))))))))))))))))))))",
"))))))))))))))))))))))))))2323;sCVCCCCCCCVCCVCCCp>3222))))))))))))))))))))))))))",
"))))))))))))))))))))))))))>>,1 g^TTTTTTTTTTTTTT!a 1><>))))))))))))))))))))))))))",
"))))))))))))))))))))))))16CCCCCDYTQWWWTWT!TWW!YYACCCCV32))))))))))))))))))))))))",
"))))))))))))))))))))))))*6TWYTTYYT^^/^^^^^^!^^TUTYTTTU2;))))))))))))))))))))))))",
")))))))))))))))))))))111VAYY!T!Q!!!~(/~((~((~!!!!!T!YJAV111)))))))))))))))))))))",
"))))))))))))))))))))3443DWYY^^^^!^!((((((((((!^^^^!!YYQD3343))))))))))))))))))))",
")))))))))))))))))))*gYDDUY!!!~((((((((((((((((((((~!!!YUUDUg&)))))))))))))))))))",
")))))))))))))))))))2hWYTYT!!!~((((((((((((((((((((~^~!YYYY!h2)))))))))))))))))))",
"))))))))))))))))) sYUU!^!!!^((((((((((((((((((((((((!!!!!TYUUi )))))))))))))))))",
")))))))))))))))))8hQYY^^^^^~((((((((((((((((((((((((^~^^^QTYYf8)))))))))))))))))",
"))))))))))))))) a!YYT^!!((((((((((((((((((((((((((((((((!^^TYYTq+)))))))))))))))",
")))))))))))))))8gYYYW^!~((((((((((((((((((((((((((((((((^!^WYYYsu)))))))))))))))",
")))))))))))))<8YYYT!^!((((((((((((((((((((((((((((((((((((!^/YYTYu>)))))))))))))",
")))))))))))))18YYY!^^~((((((((((((((((((((((((((((((((((((^!!QYYYq1)))))))))))))",
"))))))))))))) 5YT/!!~((((((((((((((((((((((((((((((((((((((~!!^TY5 )))))))))))))",
"))))))))))))6shYT^^~(((((((((((((((((((((((((((((((((((((((((~^YYhs)))))))))))))",
")))))))))))+4TTYT^~((((((((((((((((((((((((((((((((((((((((((~^YU!J;=)))))))))))",
"))))))))))3fhYYTQ^^((~(((((((((((((((((((((((((((((((((((((((^!QTTDgf)))))))))))",
")))))))))15YWUY^^Q(((((((((((((((((((((((((((((((((((((((((((~!!^YY!A12)))))))))",
")))))))))13DYTW!!(Dhjjhj!((((((((((((((((((((((((((((((!hhjjhY(W^WTYA12)))))))))",
")))))))))14UT!//((V     T((((((((((((((((((((((((((((((T     D((~^!TA12)))))))))",
")))))))))14JT^Yiia7X;::;iaig(((((((((((((((((((((((~apai;::;@uaiiY^TA12)))))))))",
")))))))));2JY/U    @       4(((((((((((((((((((((((/&       @    U^TA=,)))))))))",
"))))))))>jAUY~U=*== fYDDUA 8(((((((((((((((((((((((~12DUJDYs ;=*=U^YUAj>))))))))",
")))))))2<Z!YY^U+ @= V((((~ 6(((((((((((((((((((((((^;3(((((V =+ XU^YY!Z<2)))))))",
")))))))2<CT!T51@X+= j((((T==1a((((((((((((((((((((a1 4~((~(B =+X*<u!WTC,2)))))))",
")))))))2<CT^T* @+@= j((~(!;+ u((((((((((((((((((((u  4(((((j =@+* 4^!TC,2)))))))",
")))))))2,CT!T, @  @ V((((^=@ i((((((((((((((((((((i  4(((((V +  * 5!WTC,2)))))))",
")))))))2,CT~Y<X@=1< j(^~~Y=* i((((((((((((((((((((i  4!^~^(h 11*& 5^!TC,3)))))))",
")))))))3<CT!T   a(j ;11111+@ u((((((((((((((((((((u *@11112= S(8  3!WTZ,2)))))))",
")))))))2<CQ!Ti7 p^V63      <6f((((((((((((((((((((f5;      27ZT6 6a!WTC,2)))))))",
")))))))2<CTT!(W@+ g(j ;@@= 7((((((((((((((((((((((((1 *@@; j(i @+!(!WTC,3)))))))",
")))))))2<CT!!(T== aTs *X*; 8(((((((((((((((((((((((^2 =*X* sTu ==T(!!TC,2)))))))",
")))))))2,CW!^(T      +.o   5(((((((((((((((((((((((^*   O.+      T(!!TC<2)))))))",
")))))))2<CT!^(!iui5#-%%$8iuf(((((((((((((((((((((((~aii8$%%-%7iui!(^!TC<2)))))))",
")))))))2,CT!!((~((B     U((((((((((((((((((((((((((((((U     S(~~((^WYC<2)))))))",
")))))))3<CT!~~~^RHn9rrewU~~~((((((((((((((((((((((((~~^Uwerr0MKW^~~^!TC<2)))))))",
")))))))2<CT!!!!/PtcvvvvcQ/^^((((((((((((((((((((((((^!/WvvvvvzkE/^!^WTC<2)))))))",
")))))))2<CT!!^QHNccxzxxxNL!~((((((((((((((((((((((((~!HFczcczccFKW^~!TC,2)))))))",
")))))))2<CT!^!Ellcccccxckv!~((((((((((((((((((((((((^EzlccxzcccllE^!WTC<2)))))))",
")))))))3<CT^^/Evccccccccxm!~((((((((((((((((((((((((/WvcccccccccvE^!WTC,2)))))))",
")))))))2,CT!!^Ezzccccccckb!~((((((((((((((((((((((((/EzzccxccccllE/^!TC<3)))))))",
")))))))2,CTW!^QRGzccccccLR!!((((((((((((((((((((((((^!RLccccccxKR!!^!TC,2)))))))",
")))))))2,ZT!!!!/PyzlzzzlE/!!((((((((((((((((((((((((^!/ElzzzzllE//!!WTC<2)))))))",
")))))))2,CTQ^((^QRRRRRRR!~(((((((((((((((((((((((((((~^QRRRRRRR!!~(/WTC,2)))))))",
")))))))2,CT!^((!^^^^^^^^^^((((((((((((((((((((((((((((^^/^^/^^^^!((!WTC,2)))))))",
")))))))3<CT!!((((((((((((((((((((((((((((((((((((((((((((((((((((((!QTC,2)))))))",
")))))))2,CT!^((((((((((((((((((((((((((((((((((((((((((((((((((((((~WTZ,2)))))))",
")))))))2<CT^^((((((((((((((((((((((((((((((((((((((((((((((((((((((^WTC,2)))))))",
")))))))2<CT!!((((((((((((((((((((((((((((((((((((((((((((((((((((((!!TC<3)))))))",
")))))))2,CT!~((((((((((((((((((((((((((((((((((((((((((((((((((((((!WTC<2)))))))",
")))))))2,CT!^~(((((~((((((((((~(((~(((((((((((((~(((((((((((~(((((~^!YC<2)))))))",
")))))))3<CTQ^!!!^!^!^!((((((!^^!^!!^!(((((~!!!!^^!!^((((((((!^^!!^!^!TC<2)))))))",
")))))))2<CT!^!!!WW!W^^~((((~!!!QT!!^!(((((~!!QWW!W!!(((((/(~!T!!W!^^WTC,2)))))))",
")))))))2<CT^!^!YYWTUT^^!((!!~!YY!YUT^!^((!!^!YTTTU!/!!((!!/TYTWYY!^/WTC<3)))))))",
")))))))2,CT!!WTYSgZYYW!^~~^!TTYAgAYYW!!~~!!WYYCgSYTW!!//!!WTYVhDYTW!!TC<2)))))))",
")))))))2,CT!!YY!C f/YU!/!!~!YY^j V~YU!^!!^!UY^f Z!YY^^!!/WUY^p D!UY/WTC<2)))))))",
")))))))3<CTTTYJjd)ahAYYW!^TTYDhs)shDYYW^!TTYAha)fhDYTW^!WYYAgp)fhDYTTTC,2)))))))",
")))))))2<CWYY!J:*)) h^YU!^YY^A ;)> V^YY^!YY!V )); A^UY!!UY~h ))=:U!YUTC,2)))))))",
")))))))2<CYYUgf4))))ahDYTTYDgf2))))shJYTTYDgs))))2dhUYTTTAha))))4fjYYTC<2)))))))",
")))))))2<CTTU1@))))); Z!YY!D*=)))))=;DTYY!C >)))))O2YTYY^j >))))) 6TTTC<3)))))))",
")))))))2<CYap)))))))))ppDUap)))))))))paYDpp)))))))))isYDai)))))))))ifTC<2)))))))",
")))))))2>AT3*)))))))));=DU<=)))))))))=1YD*>)))))))))@5TD=;))))))))) 8^Z>2)))))))",
")))))))22up)))))))))))))ii)))))))))))))pi)))))))))))))pp)))))))))))))pu12)))))))",
")))))))23<:)))))))))))))::))))))))))))):;))))))))))))):;)))))))))))))><31)))))))",
"))))))))))))))))))))))))))))))))))))))))))))))))))))))))))))))))))))))))))))))))",
"))))))))))))))))))))))))))))))))))))))))))))))))))))))))))))))))))))))))))))))))",
"))))))))))))))))))))))))))))))))))))))))))))))))))))))))))))))))))))))))))))))))",
"))))))))))))))))))))))))))))))))))))))))))))))))))))))))))))))))))))))))))))))))"
};
