/* XPM */
static char *_5248_1a614b9df0f7b3a2afa5843b1d4dd2a8b16a12704ad692837a0908ebc3de57db[] = {
/* columns rows colors chars-per-pixel */
"80 80 196 2 ",
"   c black",
".  c #001112",
"X  c #2C0000",
"o  c #3E0000",
"O  c #00003E",
"+  c #460000",
"@  c #5D0000",
"#  c #680200",
"$  c #562600",
"%  c #00483E",
"&  c #24532F",
"*  c #6F4300",
"=  c #7B4700",
"-  c #6F5000",
";  c #7D5C16",
":  c #655A2A",
">  c #003C55",
",  c #003158",
"<  c #003B61",
"1  c #00586A",
"2  c #005B7D",
"3  c #006676",
"4  c #006878",
"5  c #00646B",
"6  c #695140",
"7  c #476157",
"8  c #4E6E74",
"9  c #796962",
"0  c #6F7764",
"q  c #8A5300",
"w  c #8C642B",
"e  c #965941",
"r  c #98795C",
"t  c #8D6F4A",
"y  c #90736B",
"u  c #9C856B",
"i  c #B99D7A",
"p  c #A98D70",
"a  c #B6A17D",
"s  c #C0977C",
"d  c #C29A7E",
"f  c #006280",
"g  c #2A778E",
"h  c #367291",
"j  c #4F7D8B",
"k  c #587E92",
"l  c #008B9F",
"z  c #009C97",
"x  c #009DAD",
"c  c #0099A4",
"v  c #0096B3",
"b  c #019EB2",
"n  c #3E99B2",
"m  c #2397AD",
"M  c #00A1AF",
"N  c #00A3B1",
"B  c #37A3A9",
"V  c #528C9D",
"C  c #6A838B",
"Z  c #749692",
"A  c #4F8EAD",
"S  c #508DAF",
"D  c #5D8EA8",
"F  c #4691AD",
"G  c #4C91AD",
"H  c #4797AB",
"J  c #5391AB",
"K  c #5695AA",
"L  c #438FB0",
"P  c #558DB1",
"I  c #4894B4",
"U  c #5390B2",
"Y  c #5D92B3",
"T  c #539AB2",
"R  c #5A9DB8",
"E  c #6497A7",
"W  c #7698A5",
"Q  c #6394B5",
"!  c #649EB7",
"~  c #6E9BB2",
"^  c #7497B4",
"/  c #5CA7BC",
"(  c #5FA8BC",
")  c #51A3BA",
"_  c #46A0B9",
"`  c #6BA5BB",
"'  c #64ABBD",
"]  c #69A6BB",
"[  c #73A9BD",
"{  c #6B9DC1",
"}  c #64ABC0",
"|  c #6BADC1",
" . c #69A5C1",
".. c #7DACC4",
"X. c #76A5C4",
"o. c #76B1CF",
"O. c #7EB6D1",
"+. c #77C1DF",
"@. c #7AC4DE",
"#. c #7BC3E1",
"$. c #918282",
"%. c #9E9787",
"&. c #AC9F8F",
"*. c #B89C95",
"=. c #B19B8D",
"-. c #B7A186",
";. c #A9A298",
":. c #A4A396",
">. c #B7A798",
",. c #819BAB",
"<. c #90ACB6",
"1. c #BBADA1",
"2. c #B4ABA5",
"3. c #BDB1A4",
"4. c #BCB8B3",
"5. c #C39982",
"6. c #C49989",
"7. c #C6AD8B",
"8. c #CAAA8C",
"9. c #C8A78B",
"0. c #C8A792",
"q. c #C5AC93",
"w. c #C8AC92",
"e. c #C4AB9C",
"r. c #C6A498",
"t. c #C5ADA3",
"y. c #C6ABA5",
"u. c #C5B3A5",
"i. c #C3B4AA",
"p. c #CFBCAD",
"a. c #CDB6A7",
"s. c #D3B9AB",
"d. c #C9B1B0",
"f. c #D4BDB2",
"g. c #DABEBA",
"h. c #D5BBB6",
"j. c #C8C4BA",
"k. c #D5C2B4",
"l. c #D6C3BA",
"z. c #D9C5BA",
"x. c #DBC8BC",
"c. c #80B4CE",
"v. c #80B6D2",
"b. c #87BBD5",
"n. c #91B4CA",
"m. c #A9BFCC",
"M. c #88C6D5",
"N. c #B6C5C7",
"B. c #80C6E3",
"V. c #B6D4EC",
"C. c #BAD2EC",
"Z. c #B7D3F0",
"A. c #BED9F2",
"S. c #BEE5F6",
"D. c #B6E6F3",
"F. c #CACBC6",
"G. c #DDC6C6",
"H. c #DAC8C5",
"J. c #D8C5C8",
"K. c #DBC9CA",
"L. c #D6C8C4",
"P. c #DED6C5",
"I. c #DFD8C6",
"U. c #DDD4CB",
"Y. c #D5D8CA",
"T. c #C9D3D6",
"R. c #D0D8D2",
"E. c #E2D4CB",
"W. c #E4D7C7",
"Q. c #E5DCD3",
"!. c #D6E5D4",
"~. c #C4D7E8",
"^. c #DDDAE3",
"/. c #D6E3E7",
"(. c #C4E7F8",
"). c #D6F6FF",
"_. c #DBF4FE",
"`. c #DDFFFF",
"'. c #C7E3EE",
"]. c #EAECE8",
"[. c #F3EAE7",
"{. c #F5EAE9",
"}. c #F7EAEA",
"|. c #F5F3ED",
" X c #F0F1E6",
".X c #E0EEFF",
"XX c #E6FFFF",
"oX c #EAFFFF",
"OX c #E5F7FB",
"+X c #F7F6F2",
"@X c #F8F4F2",
"#X c #FEFCF6",
"$X c #F3FEFF",
"%X c #FFFFFF",
"&X c #F2FDF0",
"*X c None",
/* pixels */
"*X*X*X*X*X*XO.%X*X*X*X*X*X*XN %X5.*X*X*X*X*X*X%XG.*X*X*X*X*X*XXX[.*X*X*X*X*X*XS.+X*X*X*X*X*X*XC.%X*X*X*X*X*X*X#.%X*X*X*X*X*X*XP %X7.*X*X*X*X*X*X%XE.*X*X*X*X*X*X",
"*X*X*X*X*X*XO.%X*X*X*X*X*X*XM %Xd *X*X*X*X*X3 %XH.*X*X*X*X*X*XoX[.*X*X*X*X*X*X(.+X*X*X*X*X*X*XV.%X*X*X*X*X*X*X#.%X*X*X*X*X*X*XP %Xw.*X*X*X*X*X*X%XE.*X*X*X*X*X*X",
"*X*X*X*X*X*Xc.%X*X*X*X*X*X*Xb %Xd *X*X*X*X*X4 %XH.*X*X*X*X*X*XoX[.*X*X*X*X*X*XS.+X*X*X*X*X*X*XV.%X*X*X*X*X*X*X@.%X*X*X*X*X*X*XG %X8.*X*X*X*X*X*X%XE.*X*X*X*X*X*X",
"*X*X*X*X*X*Xv.%X*X*X*X*X*X*XM %Xd *X*X*X*X*X4 %XH.*X*X*X*X*X*XXX[.*X*X*X*X*X*XS.+X*X*X*X*X*X*XV.%X*X*X*X*X*X*X#.%X*X*X*X*X*X*XS %X7.*X*X*X*X*X*X%XP.*X*X*X*X*X*X",
"*X*X*X*X*X*Xv.%X*X*X*X*X*X*XM %X5.*X*X*X*X*X*X%XG.*X*X*X*X*X*XoX[.*X*X*X*X*X*XS.+X*X*X*X*X*X*XC.%X*X*X*X*X*X*X#.%X*X*X*X*X*X*XS %Xq.*X*X*X*X*X*X%XU.*X*X*X*X*X*X",
"*X*X*X*X*X*Xc.%X*X*X*X*X*X*XM %X5.*X*X*X*X*X*X%XG.*X*X*X*X*X*XXX[.*X*X*X*X*X*XS.+X*X*X*X*X*X*XC.%X*X*X*X*X*X*X@.%X*X*X*X*X*X*XS %X7.*X*X*X*X*X*X%XE.*X*X*X*X*X*X",
"*X*X*X*X*X*Xv.%X*X*X*X*X*X*XM %Xd *X*X*X*X*X*X%XK.*X*X*X*X*X*XoX}.*X*X*X*X*X*XS.+X*X*X*X*X*X*XC.%X*X*X*X*X*X*X@.%X*X*X*X*X*X*XU %Xq.*X*X*X*X*X*X%XE.*X*X*X*X*X*X",
"*X*X*X*X*X*XO.%X*X*X*X*X*X*Xb %Xa *X*X*X*X*X*X%XH.*X*X*X*X*X*XoX[.*X*X*X*X*X*XS.+X*X*X*X*X*X*XC.%X*X*X*X*X*X*X#.%X*X*X*X*X*X*XJ %Xe.*X*X*X*X*X*X%XU.*X*X*X*X*X*X",
"*X*X*X*X*X*Xv.%X*X*X*X*X*X*Xb %Xa *X*X*X*X*X*X%XG.*X*X*X*X*X*XXX[.*X*X*X*X*X*XS.+X*X*X*X*X*X*XC.%X*X*X*X*X*X*X#.%X*X*X*X*X*X*XF %Xr.*X*X*X*X*X*X%XE.*X*X*X*X*X*X",
"*X*X*X*X*X*Xc.%X*X*X*X*X*X*Xv %Xi *X*X*X*X*X*X%XK.*X*X*X*X*X*XXX}.*X*X*X*X*X*XS.|.*X*X*X*X*X*XC.%X*X*X*X*X*X*X#.%X*X*X*X*X*X*XF %X0.*X*X*X*X*X*X%XW.*X*X*X*X*X*X",
"*X*X*X*X*X*Xb.%X*X*X*X*X*X*XK %X>.*X*X*X*X*X*X%XK.*X*X*X*X*X*X$X@X*X*X*X*X*X*X(.#X*X*X*X*X*X*X~.%X*X*X*X*X*X*XM.%X*X*X*X*X*X*XE %Xu.*X*X*X*X*X*X%XQ.*X*X*X*X*X*X",
"*X*X*X*X*X*X, ].*X*X*X*X*X*X  /.o *X*X*X*X*X*X^.r *X*X*X*X*X*XN.:.*X*X*X*X*X*X,.4.*X*X*X*X*X*XC T.*X*X*X*X*X*X& /.*X*X*X*X*X*X  !.+ *X*X*X*X*X*XR.y *X*X*X*X*X*X",
"| [ | | [ Q I ..K R ' ] ' T Y c.^ Q / ' ' ! Y X.~ n ] ' [ { F X.` J  .} ' / T R ` Y  .] } ' I R ..D ) ` ' ` ^ T X.Q I } '  .R G [ T T ] } ( ! F | ^ L ( ' | | | ",
"%X%X%X%X%X%X%XoX%X%X%X%X%X%X%X$X%X%X%X%X%X%X%XoX%X%X%X%X%X%X%X$X%X%X%X%X%X%X%X%X$X%X%X%X%X%X%X%X$X%X%X%X%X%X%X$X$X%X%X%X%X%X%X%XoX%X%X%X%X%X%X%XXX%X%X%X%X%X%X%X",
"*X*X*X*X*X*X9 ;.* *X*X*X*X*X: *.w *X*X*X*X*X- &.r *X*X*X*X*X@ %.u *X*X*X*X*X*X$.p *X*X*X*X*X*X0 =.# *X*X*X*X*X0 >.q *X*X*X*X*X6 ;.w *X*X*X*X*X$ :.t *X*X*X*X*X*X",
"*X*X*X*X*X*Xh %X*X*X*X*X*X*X  oX= *X*X*X*X*X*XOX;.*X*X*X*X*X*X'.j.*X*X*X*X*X*Xn.Y.*X*X*X*X*X*X<.].*X*X*X*X*X*Xl $X*X*X*X*X*X*XO $X= *X*X*X*X*X*XOX-.*X*X*X*X*X*X",
"*X*X*X*X*X*Xb.%X*X*X*X*X*X*Xz %X*.*X*X*X*X*X3 %XF.*X*X*X*X*X*XoX X*X*X*X*X*X*X(.&X*X*X*X*X*X*XV.%X*X*X*X*X*X*XM.%X*X*X*X*X*X*XE %Xw.*X*X*X*X*X*X%XQ.*X*X*X*X*X*X",
"*X*X*X*X*X*Xc.%X*X*X*X*X*X*Xc %X6.*X*X*X*X*Xf %XH.*X*X*X*X*X*XXX].*X*X*X*X*X*X(.|.*X*X*X*X*X*XV.%X*X*X*X*X*X*Xb.%X*X*X*X*X*X*XA %Xr.*X*X*X*X*X*X%XU.*X*X*X*X*X*X",
"*X*X*X*X*X*XO.%X*X*X*X*X*X*XM %X5.*X*X*X*X*Xf %XG.*X*X*X*X*X*XoX{.*X*X*X*X*X*XS.+X*X*X*X*X*X*XV.%X*X*X*X*X*X*X@.%X*X*X*X*X*X*XS %Xw.*X*X*X*X*X*X%XP.*X*X*X*X*X*X",
"*X*X*X*X*X*Xv.%X*X*X*X*X*X*XN %Xi *X*X*X*X*X3 %XH.*X*X*X*X*X*XoX[.*X*X*X*X*X*XS.+X*X*X*X*X*X*XV.%X*X*X*X*X*X*X#.%X*X*X*X*X*X*XJ %X8.*X*X*X*X*X*X%XP.*X*X*X*X*X*X",
"*X*X*X*X*X*Xv.%X*X*X*X*X*X*Xb %Xd *X*X*X*X*X*X%XG.*X*X*X*X*X*XXX{.*X*X*X*X*X*XS.+X*X*X*X*X*X*XC.%X*X*X*X*X*X*X#.%X*X*X*X*X*X*XF %X8.*X*X*X*X*X*X%XP.*X*X*X*X*X*X",
"*X*X*X*X*X*Xv.%X*X*X*X*X*X*Xb %Xd *X*X*X*X*X*X%XG.*X*X*X*X*X*XoX[.*X*X*X*X*X*XS.+X*X*X*X*X*X*XV.%X*X*X*X*X*X*X#.%X*X*X*X*X*X*XG %X0.*X*X*X*X*X*X%XU.*X*X*X*X*X*X",
"*X*X*X*X*X*Xv.%X*X*X*X*X*X*XN %Xd *X*X*X*X*X*X%XG.*X*X*X*X*X*XXX}.*X*X*X*X*X*XS.+X*X*X*X*X*X*XV.%X*X*X*X*X*X*XB.%X*X*X*X*X*X*XI %Xw.*X*X*X*X*X*X%XE.*X*X*X*X*X*X",
"*X*X*X*X*X*Xv.%X*X*X*X*X*X*Xb %Xs *X*X*X*X*X*X%XJ.*X*X*X*X*X*XoX}.*X*X*X*X*X*X(.+X*X*X*X*X*X*XZ.%X*X*X*X*X*X*X#.%X*X*X*X*X*X*XF %X7.*X*X*X*X*X*X%XU.*X*X*X*X*X*X",
"*X*X*X*X*X*Xv.%X*X*X*X*X*X*Xb %Xs *X*X*X*X*X*X%XK.*X*X*X*X*X*XXX[.*X*X*X*X*X*X(.+X*X*X*X*X*X*XZ.%X*X*X*X*X*X*X#.%X*X*X*X*X*X*XJ %X7.*X*X*X*X*X*X%XE.*X*X*X*X*X*X",
"*X*X*X*X*X*Xv.%X*X*X*X*X*X*XN %X5.*X*X*X*X*X*X%XH.*X*X*X*X*X*XXX[.*X*X*X*X*X*XS.+X*X*X*X*X*X*XZ.%X*X*X*X*X*X*X#.%X*X*X*X*X*X*XJ %X7.*X*X*X*X*X*X%XE.*X*X*X*X*X*X",
"*X*X*X*X*X*Xv.%X*X*X*X*X*X*XM %Xd *X*X*X*X*X*X%XK.*X*X*X*X*X*XoX[.*X*X*X*X*X*XS.+X*X*X*X*X*X*XC.%X*X*X*X*X*X*X#.%X*X*X*X*X*X*XU %X7.*X*X*X*X*X*X%XU.*X*X*X*X*X*X",
"*X*X*X*X*X*Xv.%X*X*X*X*X*X*XN %X5.*X*X*X*X*X*X%XK.*X*X*X*X*X*XXX[.*X*X*X*X*X*XS.+X*X*X*X*X*X*XV.%X*X*X*X*X*X*X#.%X*X*X*X*X*X*XS %X7.*X*X*X*X*X*X%XE.*X*X*X*X*X*X",
"*X*X*X*X*X*Xv.%X*X*X*X*X*X*XN %Xd *X*X*X*X*X*X%XJ.*X*X*X*X*X*XXX[.*X*X*X*X*X*XS.+X*X*X*X*X*X*XV.%X*X*X*X*X*X*X#.%X*X*X*X*X*X*XS %X8.*X*X*X*X*X*X%XU.*X*X*X*X*X*X",
"*X*X*X*X*X*Xv.%X*X*X*X*X*X*XM %X5.*X*X*X*X*X*X%XG.*X*X*X*X*X*XXX{.*X*X*X*X*X*XS.+X*X*X*X*X*X*XV.%X*X*X*X*X*X*X#.%X*X*X*X*X*X*XS %X7.*X*X*X*X*X*X%XU.*X*X*X*X*X*X",
"*X*X*X*X*X*Xv.%X*X*X*X*X*X*XM %Xd *X*X*X*X*X*X%XG.*X*X*X*X*X*XoX{.*X*X*X*X*X*XS.+X*X*X*X*X*X*XV.%X*X*X*X*X*X*X#.%X*X*X*X*X*X*XS %X8.*X*X*X*X*X*X%XE.*X*X*X*X*X*X",
"*X*X*X*X*X*Xv.%X*X*X*X*X*X*XM %Xd *X*X*X*X*X*X%XG.*X*X*X*X*X*XoX{.*X*X*X*X*X*XS.+X*X*X*X*X*X*XV.%X*X*X*X*X*X*X#.%X*X*X*X*X*X*XS %X7.*X*X*X*X*X*X%XU.*X*X*X*X*X*X",
"*X*X*X*X*X*Xv.%X*X*X*X*X*X*XM %Xd *X*X*X*X*X*X%XG.*X*X*X*X*X*XoX{.*X*X*X*X*X*XS.+X*X*X*X*X*X*XV.%X*X*X*X*X*X*X#.%X*X*X*X*X*X*XG %X7.*X*X*X*X*X*X%XU.*X*X*X*X*X*X",
"*X*X*X*X*X*Xv.%X*X*X*X*X*X*XM %X5.*X*X*X*X*X*X%XG.*X*X*X*X*X*XXX{.*X*X*X*X*X*XS.+X*X*X*X*X*X*XV.%X*X*X*X*X*X*X#.%X*X*X*X*X*X*XG %X7.*X*X*X*X*X*X%XU.*X*X*X*X*X*X",
"*X*X*X*X*X*Xv.%X*X*X*X*X*X*XM %Xi *X*X*X*X*X*X%XG.*X*X*X*X*X*XXX{.*X*X*X*X*X*XS.+X*X*X*X*X*X*XV.%X*X*X*X*X*X*X#.%X*X*X*X*X*X*XJ %X7.*X*X*X*X*X*X%XE.*X*X*X*X*X*X",
"*X*X*X*X*X*Xv.%X*X*X*X*X*X*XM %Xd *X*X*X*X*X*X%XG.*X*X*X*X*X*XoX{.*X*X*X*X*X*XS.+X*X*X*X*X*X*XV.%X*X*X*X*X*X*X#.%X*X*X*X*X*X*XS %X7.*X*X*X*X*X*X%XE.*X*X*X*X*X*X",
"*X*X*X*X*X*Xv.%X*X*X*X*X*X*XM %X5.*X*X*X*X*X*X%XG.*X*X*X*X*X*XXX X*X*X*X*X*X*XS.+X*X*X*X*X*X*XV.%X*X*X*X*X*X*X#.%X*X*X*X*X*X*XS %X7.*X*X*X*X*X*X%XE.*X*X*X*X*X*X",
"*X*X*X*X*X*Xv.%X*X*X*X*X*X*XN %Xd *X*X*X*X*X*X%XK.*X*X*X*X*X*XXX{.*X*X*X*X*X*XS.+X*X*X*X*X*X*XV.%X*X*X*X*X*X*X@.%X*X*X*X*X*X*XS %X7.*X*X*X*X*X*X%XE.*X*X*X*X*X*X",
"*X*X*X*X*X*Xv.%X*X*X*X*X*X*XN %Xd *X*X*X*X*X3 %XG.*X*X*X*X*X*XoX{.*X*X*X*X*X*XS.+X*X*X*X*X*X*XV.%X*X*X*X*X*X*X#.%X*X*X*X*X*X*XG %X7.*X*X*X*X*X*X%XE.*X*X*X*X*X*X",
"*X*X*X*X*X*Xv.%X*X*X*X*X*X*XM %Xs *X*X*X*X*X3 %XG.*X*X*X*X*X*XXX[.*X*X*X*X*X*XS.#X*X*X*X*X*X*XV.%X*X*X*X*X*X*X#.%X*X*X*X*X*X*XG %X7.*X*X*X*X*X*X%XU.*X*X*X*X*X*X",
"*X*X*X*X*X*Xv.%X*X*X*X*X*X*XM %Xs *X*X*X*X*X3 %XG.*X*X*X*X*X*XXX[.*X*X*X*X*X*XS.+X*X*X*X*X*X*XV.%X*X*X*X*X*X*X#.%X*X*X*X*X*X*XG %X7.*X*X*X*X*X*X%XE.*X*X*X*X*X*X",
"*X*X*X*X*X*Xv.%X*X*X*X*X*X*XM %Xd *X*X*X*X*X3 %XG.*X*X*X*X*X*XoX[.*X*X*X*X*X*XS.+X*X*X*X*X*X*XV.%X*X*X*X*X*X*X#.%X*X*X*X*X*X*XJ %X7.*X*X*X*X*X*X%XE.*X*X*X*X*X*X",
"*X*X*X*X*X*Xv.%X*X*X*X*X*X*XM %Xi *X*X*X*X*X3 %XG.*X*X*X*X*X*XoX[.*X*X*X*X*X*XS.+X*X*X*X*X*X*XV.%X*X*X*X*X*X*X#.%X*X*X*X*X*X*XS %X7.*X*X*X*X*X*X%XU.*X*X*X*X*X*X",
"*X*X*X*X*X*Xv.%X*X*X*X*X*X*XM %Xs *X*X*X*X*X3 %XG.*X*X*X*X*X*XoX[.*X*X*X*X*X*XS.+X*X*X*X*X*X*XV.%X*X*X*X*X*X*X#.%X*X*X*X*X*X*XS %X7.*X*X*X*X*X*X%XE.*X*X*X*X*X*X",
"*X*X*X*X*X*Xv.%X*X*X*X*X*X*XM %Xd *X*X*X*X*X3 %XG.*X*X*X*X*X*XoX{.*X*X*X*X*X*XS.+X*X*X*X*X*X*XV.%X*X*X*X*X*X*X#.%X*X*X*X*X*X*XS %Xw.*X*X*X*X*X*X%XE.*X*X*X*X*X*X",
"*X*X*X*X*X*Xv.%X*X*X*X*X*X*XM %Xs *X*X*X*X*X3 %XJ.*X*X*X*X*X*XXX{.*X*X*X*X*X*XS.+X*X*X*X*X*X*XV.%X*X*X*X*X*X*X#.%X*X*X*X*X*X*XS %Xw.*X*X*X*X*X*X%XU.*X*X*X*X*X*X",
"*X*X*X*X*X*XO.%X*X*X*X*X*X*XM %Xs *X*X*X*X*X3 %XJ.*X*X*X*X*X*XXX{.*X*X*X*X*X*XS.+X*X*X*X*X*X*XV.%X*X*X*X*X*X*X#.%X*X*X*X*X*X*XS %Xw.*X*X*X*X*X*X%XE.*X*X*X*X*X*X",
"*X*X*X*X*X*XO.%X*X*X*X*X*X*Xx %Xd *X*X*X*X*X3 %XK.*X*X*X*X*X*XXX{.*X*X*X*X*X*XS.+X*X*X*X*X*X*XZ.%X*X*X*X*X*X*X#.%X*X*X*X*X*X*XS %Xw.*X*X*X*X*X*X%XE.*X*X*X*X*X*X",
"*X*X*X*X*X*XO.%X*X*X*X*X*X*XM %Xs *X*X*X*X*X*X%XK.*X*X*X*X*X*XXX}.*X*X*X*X*X*XS.+X*X*X*X*X*X*XV.%X*X*X*X*X*X*X#.%X*X*X*X*X*X*XS %Xw.*X*X*X*X*X*X%XE.*X*X*X*X*X*X",
"*X*X*X*X*X*XO.%X*X*X*X*X*X*XM %Xs *X*X*X*X*X*X%XK.*X*X*X*X*X*XoX{.*X*X*X*X*X*XS.+X*X*X*X*X*X*XV.%X*X*X*X*X*X*X#.%X*X*X*X*X*X*XU %Xw.*X*X*X*X*X*X%XU.*X*X*X*X*X*X",
"*X*X*X*X*X*Xv.%X*X*X*X*X*X*XM %Xs *X*X*X*X*X3 %XK.*X*X*X*X*X*XXX{.*X*X*X*X*X*XS.+X*X*X*X*X*X*XV.%X*X*X*X*X*X*X#.%X*X*X*X*X*X*XU %Xw.*X*X*X*X*X*X%XE.*X*X*X*X*X*X",
"*X*X*X*X*X*Xv.%X*X*X*X*X*X*XM %X6.*X*X*X*X*X3 %XK.*X*X*X*X*X*XoX{.*X*X*X*X*X*XS.+X*X*X*X*X*X*XC.%X*X*X*X*X*X*X#.%X*X*X*X*X*X*XU %X0.*X*X*X*X*X*X%XE.*X*X*X*X*X*X",
"*X*X*X*X*X*Xv.%X*X*X*X*X*X*XM %Xi *X*X*X*X*X3 %XK.*X*X*X*X*X*XoX{.*X*X*X*X*X*XS.+X*X*X*X*X*X*XV.%X*X*X*X*X*X*X#.%X*X*X*X*X*X*XU %Xq.*X*X*X*X*X*X%XU.*X*X*X*X*X*X",
"*X*X*X*X*X*Xv.%X*X*X*X*X*X*Xb %Xd *X*X*X*X*X3 %XH.*X*X*X*X*X*XoX{.*X*X*X*X*X*XS.+X*X*X*X*X*X*XV.%X*X*X*X*X*X*X#.%X*X*X*X*X*X*XU %X7.*X*X*X*X*X*X%XE.*X*X*X*X*X*X",
"*X*X*X*X*X*Xv.%X*X*X*X*X*X*XN %X5.*X*X*X*X*X3 %XG.*X*X*X*X*X*XXX{.*X*X*X*X*X*XS.+X*X*X*X*X*X*XV.%X*X*X*X*X*X*X#.%X*X*X*X*X*X*XJ %X8.*X*X*X*X*X*X%XE.*X*X*X*X*X*X",
"*X*X*X*X*X*Xv.%X*X*X*X*X*X*Xb %Xd *X*X*X*X*X*X%XH.*X*X*X*X*X*XXX{.*X*X*X*X*X*XS.+X*X*X*X*X*X*XV.%X*X*X*X*X*X*X#.%X*X*X*X*X*X*XF %X8.*X*X*X*X*X*X%XI.*X*X*X*X*X*X",
"*X*X*X*X*X*XO.%X*X*X*X*X*X*Xb %Xd *X*X*X*X*X*X%XH.*X*X*X*X*X*XoX[.*X*X*X*X*X*XS.+X*X*X*X*X*X*XV.%X*X*X*X*X*X*X+.%X*X*X*X*X*X*XF %X8.*X*X*X*X*X*X%XE.*X*X*X*X*X*X",
"*X*X*X*X*X*XO.%X*X*X*X*X*X*Xb %Xd *X*X*X*X*X*X%XH.*X*X*X*X*X*XXX[.*X*X*X*X*X*XS.+X*X*X*X*X*X*XV.%X*X*X*X*X*X*X+.%X*X*X*X*X*X*XF %X8.*X*X*X*X*X*X%XE.*X*X*X*X*X*X",
"*X*X*X*X*X*Xc.%X*X*X*X*X*X*XN %Xd *X*X*X*X*X*X%XH.*X*X*X*X*X*XXX[.*X*X*X*X*X*XS.+X*X*X*X*X*X*XZ.%X*X*X*X*X*X*X+.%X*X*X*X*X*X*XG %X8.*X*X*X*X*X*X%XE.*X*X*X*X*X*X",
"*X*X*X*X*X*Xv.%X*X*X*X*X*X*XN %X5.*X*X*X*X*X*X%XH.*X*X*X*X*X*XXX{.*X*X*X*X*X*XS.+X*X*X*X*X*X*XC.%X*X*X*X*X*X*X#.%X*X*X*X*X*X*XG %X7.*X*X*X*X*X*X%XW.*X*X*X*X*X*X",
"*X*X*X*X*X*Xv.%X*X*X*X*X*X*Xb %Xi *X*X*X*X*X*X%XH.*X*X*X*X*X*XXX{.*X*X*X*X*X*X(.+X*X*X*X*X*X*XC.%X*X*X*X*X*X*XB.%X*X*X*X*X*X*XF %X7.*X*X*X*X*X*X%XP.*X*X*X*X*X*X",
"*X*X*X*X*X*Xv.%X*X*X*X*X*X*Xv %Xa *X*X*X*X*X*X%XJ.*X*X*X*X*X*XoX[.*X*X*X*X*X*XS.+X*X*X*X*X*X*XC.%X*X*X*X*X*X*X#.%X*X*X*X*X*X*XG %Xe.*X*X*X*X*X*X%XP.*X*X*X*X*X*X",
"*X*X*X*X*X*XO.%X*X*X*X*X*X*Xv %Xi *X*X*X*X*X*X%XH.*X*X*X*X*X*XXX[.*X*X*X*X*X*XS.|.*X*X*X*X*X*XC.%X*X*X*X*X*X*X#.%X*X*X*X*X*X*XF %Xe.*X*X*X*X*X*X%XW.*X*X*X*X*X*X",
"*X*X*X*X*X*Xb.%X*X*X*X*X*X*Xm %X-.*X*X*X*X*X*X%XH.*X*X*X*X*X*X$X}.*X*X*X*X*X*X(.#X*X*X*X*X*X*X~.%X*X*X*X*X*X*XB.%X*X*X*X*X*X*XD %Xy.*X*X*X*X*X*X%XQ.*X*X*X*X*X*X",
"*X*X*X*X*X*Xk #X*X*X*X*X*X*X  %X; *X*X*X*X*X*XOX>.*X*X*X*X*X*X/.F.*X*X*X*X*X*XN.R.*X*X*X*X*X*X<.].*X*X*X*X*X*XZ %X*X*X*X*X*X*XX %Xe *X*X*X*X*X*XXXq.*X*X*X*X*X*X",
"*X*X*X*X*X*X3 W . *X*X*X*X*X< ,.1 *X*X*X*X*X, W 8 *X*X*X*X*X  J j *X*X*X*X*X*Xg C *X*X*X*X*X*Xg W   *X*X*X*X*X5 ,.> *X*X*X*X*X> W 1 *X*X*X*X*XO ~ 7 *X*X*X*X*X*X",
"%X%X%X%X%X%XoX_.$X%X%X%X%X%X$X_.oX%X%X%X%X%X$X).oX%X%X%X%X%X$X_.OX%X%X%X%X%X%X)..X%X%X%X%X%X%X`._.$X%X%X%X$X%XXX.X$X%X%X%X%X%XoX).`.%X%X%X%X%X$X).$X%X%X%X%X%X%X",
"z.z.z.l.l.p.>.u.t.h.g.z.g.f.>.u.e.p.l.l.l.f.1.i.1.s.k.l.k.k.e.3.y.d.g.l.z.k.t.3.u.u.k.l.l.k.a.>.u.y.h.l.l.h.s.2.d.y.p.g.k.k.s.e.3.3.p.k.l.k.f.e.4.w.i.l.z.x.z.z.",
"*X*X*X*X*X*X  F.*X*X*X*X*X*X*XT.X *X*X*X*X*X*XT.y *X*X*X*X*X*X<.%.*X*X*X*X*X*XW >.*X*X*X*X*X*Xh j.*X*X*X*X*X*X% R.*X*X*X*X*X*X  ~.X *X*X*X*X*X*XT.t *X*X*X*X*X*X",
"*X*X*X*X*X*X..%X*X*X*X*X*X*XB %Xr.*X*X*X*X*X*X%XH.*X*X*X*X*X*X$X@X*X*X*X*X*X*X(.%X*X*X*X*X*X*XA.%X*X*X*X*X*X*XM.%X*X*X*X*X*X*X^ %Xa.*X*X*X*X*X*X%XQ.*X*X*X*X*X*X",
"*X*X*X*X*X*X..%X*X*X*X*X*X*Xz %X*.*X*X*X*X*X*X%XL.*X*X*X*X*X*X`.].*X*X*X*X*X*XD.+X*X*X*X*X*X*XV.%X*X*X*X*X*X*XM.%X*X*X*X*X*X*XD %X>.*X*X*X*X*X*X%XY.*X*X*X*X*X*X",
"*X*X*X*X*X*XO.%X*X*X*X*X*X*Xx %X5.*X*X*X*X*X*X%XH.*X*X*X*X*X*XXX}.*X*X*X*X*X*XS.+X*X*X*X*X*X*XV.%X*X*X*X*X*X*X@.%X*X*X*X*X*X*XS %X8.*X*X*X*X*X*X%XI.*X*X*X*X*X*X",
"*X*X*X*X*X*Xv.%X*X*X*X*X*X*Xv %Xd *X*X*X*X*X*X%XH.*X*X*X*X*X*XoX[.*X*X*X*X*X*XS.+X*X*X*X*X*X*XV.%X*X*X*X*X*X*X#.%X*X*X*X*X*X*XG %X7.*X*X*X*X*X*X%XP.*X*X*X*X*X*X",
"*X*X*X*X*X*Xv.%X*X*X*X*X*X*Xx %X5.*X*X*X*X*X*X%XJ.*X*X*X*X*X*XXX{.*X*X*X*X*X*XS.+X*X*X*X*X*X*XV.%X*X*X*X*X*X*X#.%X*X*X*X*X*X*XS %X7.*X*X*X*X*X*X%XP.*X*X*X*X*X*X",
"*X*X*X*X*X*Xv.%X*X*X*X*X*X*Xx %Xd *X*X*X*X*X*X%XG.*X*X*X*X*X*XXX{.*X*X*X*X*X*XS.@X*X*X*X*X*X*XV.%X*X*X*X*X*X*X#.%X*X*X*X*X*X*XU %X7.*X*X*X*X*X*X%XP.*X*X*X*X*X*X",
"*X*X*X*X*X*Xv.%X*X*X*X*X*X*Xx %Xd *X*X*X*X*X*X%XG.*X*X*X*X*X*XoX{.*X*X*X*X*X*XS.+X*X*X*X*X*X*XV.%X*X*X*X*X*X*X#.%X*X*X*X*X*X*XS %Xw.*X*X*X*X*X*X%XE.*X*X*X*X*X*X",
"*X*X*X*X*X*Xv.%X*X*X*X*X*X*Xx %Xd *X*X*X*X*X*X%XH.*X*X*X*X*X*XXX[.*X*X*X*X*X*XS.+X*X*X*X*X*X*XV.%X*X*X*X*X*X*X#.%X*X*X*X*X*X*XF %Xq.*X*X*X*X*X*X%XU.*X*X*X*X*X*X",
"*X*X*X*X*X*Xv.%X*X*X*X*X*X*Xx %Xd *X*X*X*X*X*X%XJ.*X*X*X*X*X*XXX[.*X*X*X*X*X*XS.+X*X*X*X*X*X*XV.%X*X*X*X*X*X*X#.%X*X*X*X*X*X*XF %Xw.*X*X*X*X*X*X%XE.*X*X*X*X*X*X",
"*X*X*X*X*X*Xb.%X*X*X*X*X*X*Xx %X5.*X*X*X*X*X*X%XH.*X*X*X*X*X*XoX{.*X*X*X*X*X*XS.+X*X*X*X*X*X*XV.%X*X*X*X*X*X*X@.%X*X*X*X*X*X*XJ %X7.*X*X*X*X*X*X%XU.*X*X*X*X*X*X",
"*X*X*X*X*X*Xo.%X*X*X*X*X*X*Xx %Xd *X*X*X*X*X*X%XH.*X*X*X*X*X*XXX{.*X*X*X*X*X*X(.+X*X*X*X*X*X*XC.%X*X*X*X*X*X*X+.%X*X*X*X*X*X*XA %X9.*X*X*X*X*X*X%XE.*X*X*X*X*X*X"
};
