/* XPM */
static char *_2059_a8ca5f5a5dd7f3253e45210dd48133d1e61583cb7937e5822cfb6963495007ca[] = {
/* columns rows colors chars-per-pixel */
"80 80 207 2 ",
"   c #000000",
".  c #080705",
"X  c #0A0805",
"o  c #020309",
"O  c #040A0D",
"+  c #0D0B0B",
"@  c #100E0C",
"#  c #0F100F",
"$  c #13120E",
"%  c #0A0E13",
"&  c #060B15",
"*  c #071619",
"=  c #141413",
"-  c #1A1612",
";  c #1D1A17",
":  c #151618",
">  c #1D1C1A",
",  c #141919",
"<  c #221D1D",
"1  c #22211E",
"2  c #29221E",
"3  c #1F1F21",
"4  c #221D21",
"5  c #1F2D2B",
"6  c #0C2423",
"7  c #252423",
"8  c #2A2625",
"9  c #2B2926",
"0  c #2D2729",
"q  c #2C2B2A",
"w  c #272629",
"e  c #322D2C",
"r  c #372627",
"t  c #2D302E",
"y  c #34312F",
"u  c #3B362E",
"i  c #2F2F32",
"p  c #382F30",
"a  c #353333",
"s  c #3B3533",
"d  c #3C3A35",
"f  c #3D3B3B",
"g  c #393738",
"h  c #443634",
"j  c #413A36",
"k  c #433D39",
"l  c #483D3A",
"z  c #432A2D",
"x  c #45413C",
"c  c #49433E",
"v  c #454543",
"b  c #4A4542",
"n  c #4D4945",
"m  c #4E4C49",
"M  c #524B46",
"N  c #544E4A",
"B  c #5B4949",
"V  c #55514A",
"C  c #5C554D",
"Z  c #5B5651",
"A  c #5F5955",
"S  c #5F5B59",
"D  c #575251",
"F  c #674B4C",
"G  c #61564E",
"H  c #6C4F52",
"J  c #6B5252",
"K  c #645C53",
"L  c #6A5E56",
"P  c #635C59",
"I  c #685F59",
"U  c #775859",
"Y  c #646059",
"T  c #6B635B",
"R  c #6B6459",
"E  c #72675C",
"W  c #746A5F",
"Q  c #7C6E5D",
"!  c #7D6D56",
"~  c #6D6661",
"^  c #6E6864",
"/  c #6B6966",
"(  c #746B62",
")  c #796D63",
"_  c #7B6F68",
"`  c #746865",
"'  c #7B7265",
"]  c #7D746B",
"[  c #767168",
"{  c #7B7975",
"}  c #845859",
"|  c #84655F",
" . c #84735F",
".. c #8A5E60",
"X. c #856564",
"o. c #9A6769",
"O. c #9B6B6B",
"+. c #946667",
"@. c #857564",
"#. c #897666",
"$. c #867966",
"%. c #897867",
"&. c #84756A",
"*. c #857A6D",
"=. c #8C7C6B",
"-. c #887669",
";. c #917D6C",
":. c #93726A",
">. c #837C73",
",. c #8C7E70",
"<. c #837E7A",
"1. c #907E70",
"2. c #967879",
"3. c #AB7C73",
"4. c #A87877",
"5. c #B27C75",
"6. c #B17B7B",
"7. c #BD7C79",
"8. c #B27275",
"9. c #A7756C",
"0. c #C57C7B",
"q. c #CA7D7D",
"w. c #DA7E7F",
"e. c #8E816F",
"r. c #91806F",
"t. c #8E8274",
"y. c #85817C",
"u. c #8B837C",
"i. c #948473",
"p. c #998776",
"a. c #988877",
"s. c #94867A",
"d. c #98877A",
"f. c #94897B",
"g. c #9C8C7B",
"h. c #968877",
"j. c #A18C7B",
"k. c #A1917E",
"l. c #B68478",
"z. c #C8817E",
"x. c #D7827F",
"c. c #CB7D82",
"v. c #898581",
"b. c #948C82",
"n. c #9D8D81",
"m. c #938C88",
"M. c #9E9283",
"N. c #97938C",
"B. c #9C948E",
"V. c #9B9691",
"C. c #9F9892",
"Z. c #A08E82",
"A. c #AC8D80",
"S. c #BE8384",
"D. c #B38083",
"F. c #A49383",
"G. c #A3958A",
"H. c #A69A8A",
"J. c #AA9A8A",
"K. c #A89986",
"L. c #A39D95",
"P. c #AEA395",
"I. c #AFA59A",
"U. c #B2A599",
"Y. c #B7AB9D",
"T. c #B8A99E",
"R. c #B7ADA3",
"E. c #B9AEA5",
"W. c #BBB1A6",
"Q. c #B6B3AC",
"!. c #BDB3A9",
"~. c #BFB8AC",
"^. c #BDB9B3",
"/. c #CB8383",
"(. c #CA8A88",
"). c #D38281",
"_. c #DD8383",
"`. c #D3898C",
"'. c #DE8989",
"]. c #D8878B",
"[. c #DF8F90",
"{. c #DC9392",
"}. c #DA9598",
"|. c #E28484",
" X c #E38986",
".X c #E38689",
"XX c #E28A8B",
"oX c #EC8B8B",
"OX c #EA8788",
"+X c #F18E8F",
"@X c #E39193",
"#X c #E99395",
"$X c #E9989D",
"%X c #F29F9F",
"&X c #C0B5A7",
"*X c #C1B5AB",
"=X c #C3B9AE",
"-X c #C1B7B0",
";X c #C4BBB1",
":X c #CABEB5",
">X c #C8BFB8",
",X c #CBC0B6",
"<X c #CCC2BA",
"1X c #D3C9BF",
"2X c #D3C9C0",
"3X c #DBD1CB",
"4X c None",
/* pixels */
"4X4X4X4X4X4X4X4X4X4X4X4X4X4X4X4X4X4X4X4X4X4X4X4X4X4X4X4X4X4X4X4X4X4X4X4X4X4X4X4X4X4X4X4X4X4X4X4X4X4X4X4X4X4X4X4X4X4X4X4X4X4X4X4X4X4X4X4X4X4X4X4X4X4X4X4X4X4X4X4X",
"4X4X4X4X4X4X4X4X4X4X4X4X4X4X4X4X4X4X4X4X4X4X4X4X4X4X4X4X4X4X4X4X4X4X4X4X4X4X4X4X4X4X4X4X4X4X4X4X4X4X4X4X4X4X4X4X4X4X4X4X4X4X4X4X4X4X4X4X4X4X4X4X4X4X4X4X4X4X4X4X",
"4X4X4X4X4X4X4X4X4X4X4X4X4X4X4X4X4X4X4X4X4X4X4X4X4X4X4X4X4X4X4X4X4X4X4X4X4X4X4X4X4X4X4X4X4X4X4X4X4X4X4X4X4X4X4X4X4X4X4X4X4X4X4X4X4X4X4X4X4X4X4X4X4X4X4X4X4X4X4X4X",
"4X4X4X4X4X4X4X4X4X4X4X4X4X4X4X4X4X4X4X4X4X4X4X4X4X4X4X4X4X4X4X4X4X4X4X4X4X4X4X4X4X4X4X4X4X4X4X4X4X4X4X4X4X4X4X4X4X4X4X4X4X4X4X4X4X4X4X4X4X4X4X4X4X4X4X4X4X4X4X4X",
"4X4X4X4X4X4X4X4X4X4X4X4X4X4X4X4X4X4X4X4X4X4X4X4X4X4X4X4X4X4X4X4X4X4X4X4X4X4X4X4X4X4X4X4X4X4X4X4X4X4X4X4X4X4X4X4X4X4X4X4X4X4X4X4X4X4X4X4X4X4X4X4X4X4X4X4X4X4X4X4X",
"4X4X4X4X4X4X4X4X4X4X4X4X4X4X4X4X4X4X4X4X4X4X4X4X4X4X4X4X4X4X4X4X4X4X4X4X4X4X4X4X4X4X4X4X4X4X4X4X4X4X4X4X4X4X4X4X4X4X4X4X4X4X4X4X4X4X4X4X4X4X4X4X4X4X4X4X4X4X4X4X",
"4X4X4X4X4X4X4X4X4X4X4X4X4X4X4X4X4X4X4X4X4X4X4X4X4X4X4X4X4X4X4X4X4X4X4X4X4X4X4X4X4X4X4X4X4X4X4X4X4X4X4X4X4X4X4X4X4X4X4X4X4X4X4X4X4X4X4X4X4X4X4X4X4X4X4X4X4X4X4X4X",
"4X4X4X4X4X4X4X4X4X4X4X4X4X4X4X4X4X4X4X4X4X4X4X4X4X4X4X4X4X4X4X4X4X4X4X4X4X4X4X4X4X4X4X4X4X4X4X4X4X4X4X4X4X4X4X4X4X4X4X4X4X4X4X4X4X4X4X4X4X4X4X4X4X4X4X4X4X4X4X4X",
"4X4X4X4X4X4X4X4X4X4X4X4X4X4X4X4X4X4X4X4X4X4X4X4X4X4X4X4X4X4X4X4X4X4X4X4X4X4X4X4X4X4X4X4X4X4X4X4X4X4X4X4X4X4X4X4X4X4X4X4X4X4X4X4X4X4X4X4X4X4X4X4X4X4X4X4X4X4X4X4X",
"4X4X4X4X4X4X4X4X4X4X4X4X4X4X4X4X4X4X4X4X4X4X4X4X4X4X4X4X4X4X4X4X4X4X4X4X4X4X4X4X4X4X4X4X4X4X4X4X4X4X4X4X4X4X4X4X4X4X4X4X4X4X4X4X4X4X4X4X4X4X4X4X4X4X4X4X4X4X4X4X",
"4X4X4X4X4X4X4X4X4X4X4X4X4X4X4X4X4X4X4X4X4X4X4X4X4X4X4X4X4X4X4X4X4X4X4X4X4X4X4X4X4X4X4X4X4X4X4X4X4X4X4X4X4X4X4X4X4X4X4X4X4X4X4X4X4X4X4X4X4X4X4X4X4X4X4X4X4X4X4X4X",
"4X4X4X4X4X4X4X4X4X4X4X4X4X4X4X4X4X4X4X4X4X4X4X4X4X4X4X4X4X4X4X4X4X4X4X4X4X4X4X4X4X4X4X4X4X4X4X4X4X4X4X4X4X4X4X4X4X4X4X4X4X4X4X4X4X4X4X4X4X4X4X4X4X4X4X4X4X4X4X4X",
"4X4X4X4X4X4X4X4X4X4X4X4X4X4X4X4X4X4X4X4X4X4X4X4X4X4X4X4X4X4X4X4X4X4X4X4X4X4X4X4X4X4X4X4X4X4X4X4X4X4X4X4X4X4X4X4X4X4X4X4X4X4X4X4X4X4X4X4X4X4X4X4X4X4X4X4X4X4X4X4X",
"4X4X4X4X4X4X4X4X4X4X4X4X4X4X4X4X4X4X4X4X4X4X4X4X4X4X4X4X4X4X4X4X4X4X4X4X4X4X4X4X4X4X4X4X4X4X4X4X4X4X4X4X4X4X4X4X4X4X4X4X4X4X4X4X4X4X4X4X4X4X4X4X4X4X4X4X4X4X4X4X",
"4X4X4X4X4X4X4X4X4X4X4X4X4X4X4X4X4X4X4X4X4X4X4X4X4X4X4X4X4X4X4X4X4X4X4X4X4X4X4X4X4X4X4X4X4X4X4X4X4X4X4X4X4X4X4X4X4X4X4X4X4X4X4X4X4X4X4X4X4X4X4X4X4X4X4X4X4X4X4X4X",
"4X4X4X4X4X4X4X4X4X4X4X4X4X4X4X4X4X4X4X4X4X4X4X4X4X4X4X4X4X4X4X4X4X4X4X4X4X4X4X4X4X4X4X4X4X4X4X4X4X4X4X4X4X4X4X4X4X4X4X4X4X4X4X4X4X4X4X4X4X4X4X4X4X4X4X4X4X4X4X4X",
"4X4X4X4X4X4X4X4X4X4X4X4X4X4X4X4X4X4X4X4X4X4X4X4X4X4X4X4X4X4X4X4X4X4X4X4X4X4X4X4X4X4X4X4X4X4X4X4X4X4X4X4X4X4X4X4X4X4X4X4X4X4X4X4X4X4X4X4X4X4X4X4X4X4X4X4X4X4X4X4X",
"4X4X4X4X4X4X4X4X4X4X4X4X4X4X4X4X4X4X4X4X4X4X4X4X4X4X4X4X4X4X4X4X4X4X4X4X4X4X4X4X4X4X4X4X4X4X4X4X4X4X4X4X4X4X4X4X4X4X4X4X4X4X4X4X4X4X4X4X4X4X4X4X4X4X4X4X4X4X4X4X",
"4X4X4X4X4X4X4X4X4X4X4X4X4X4X4X4X4X4X4X4X4X4X4X4X4X4X4X4X4X4X4X4X4X4X4X4X4X4X4X4X4X4X4X4X4X4X4X4X4X4X4X4X4X4X4X4X4X4X4X4X4X4X4X4X4X4X4X4X4X4X4X4X4X4X4X4X4X4X4X4X",
"4X4X4X4X4X4X4X4X4X4X4X4X4X4X4X; - = .         - 4X4X4X4X4X4X4X4X4X4X4X4X4X4X4X4X4X4X4X4X4X4X4X4X4X4X4X4X4X4X4X4X4X4X4X4X4X4X4X4X4X4X4X4X4X4X4X4X4X4X4X4X4X4X4X4X",
"4X4X4X4X4X4X4X4X4X4X4X4X4X4X4X        O : <   = 4X4X4X4X4X4X4X4X4X4X4X4X4X4X4X4X4X4X4X4X4X4X4X4X4X4X4X4X4X4X4X4X4X4X4X4X4X4X4X4X4X4X4X4X4X4X4X4X4X4X4X4X4X4X4X4X",
"4X4X4X4X4X4X4X4X4X4X4X4X4X& A W R E ( ) ' ~   @ # + X         4X4X4X4X4X4X4X4X4X4X4X4X4X4X4X4X4X4X4X4X4X4X4X4X4X4X4X4X4X4X4X4X4X4X4X4X4X4X4X4X4X4X4X4X4X4X4X4X4X",
"4X4X4X4X4X4X4X4X4X4X4X4X1   T ,.%.-.@.%.i.[         + : 9 e d 4X4X4X4X4X4X4X4X4X4X4X4X4X4X4X4X4X4X4X4X4X4X4X4X4X4X4X4X4X4X4X4X4X4X4X4X4X4X4X4X4X4X4X4X4X4X4X4X4X",
"4X4X4X4X4X4X4X4X4X4X4X4X7   I =.&.@.@.R M A T E ) ] *.*.t.=.a.G   q 4X4X4X4X4X4X4X4X4X4X4X4X4X4X4X4X4X4X4X4X4X4X4X4X4X4X4X4X4X4X4X4X4X4X4X4X4X4X4X4X4X4X4X4X4X4X",
"4X4X4X4X4X4X4X4X4X4X4X4X1   Y =.@.@.=.b   M t.%.=.%.=.=.r.r.p.G   9 4X4X4X4X4X4X4X4X4X4X4X4X4X4X4X4X4X4X4X4X4X4X4X4X4X4X4X4X4X4X4X4X4X4X4X4X4X4X4X4X4X4X4X4X4X4X",
"4X4X4X4X4X4X4X4X4X4X4X4X7   T ,.' Q &.n   V =.@.3.3.7.l.l. .p.C   q 4X4X4X4X4X4X4X4X4X4X4X4X4X4X4X4X4X4X4X4X4X4X4X4X4X4X4X4X4X4X4X4X4X4X4X4X4X4X4X4X4X4X4X4X4X4X",
"4X4X4X4X4X4X4X4X4X4Xf s ; . e s 9 8 < -   M e.:.q.|._.|.x.r.i.G   8 4X4X4X4X4X4X4X4X4X4X4X4X4X4X4X4X4X4X4X4X4X4X4X4X4X4X4X4X4X4X4X4X4X4X4X4X4X4X4X4X4X4X4X4X4X4X",
"4X4X4X4X4X4X4X4X4X4X                      M *.-.q.OXc.c.x.r.a.G   8 4X4X4X4X4X4X4X4X4X4X4X4X4X4X4X4X4X4X4X4X4X4X4X4X4X4X4X4X4X4X4X4X4X4X4X4X4X4X4X4X4X4X4X4X4X4X",
"4X4X4X4X4X4X4X4X4X4XM M n M V C C G Y x   N =.@.q.w.x.|.x.;.a.G   8 4X4X4X4X4X4X4X4X4X4X4X4X4X4X4X4X4X4X4X4X4X4X4X4X4X4X4X4X4X4X4X4X4X4X4X4X4X4X4X4X4X4X4X4X4X4X",
"4X4X4X4X4X4X4X<   Z h.=.=.=.=.=.=.%.e.n   M =.#.z.x.x.'.x.:.a.G   9 4X4X4X4X4X4X4X4X4X4X4X4X4X4X4X4X4X4X4X4X4X4X4X4X4X4X4X4X4X4X4X4X4X4X4X4X4X4X4X4X4X4X4X4X4X4X",
"4X4X4X4X4X4X4X>   C i.%.@.&.&.) Q @.@.C s L %.%.3.5.3.9.p.r.r.G   8 4X4X4X4X4X4X4X4X4X4X4X4X4X4X4X4X4X4X4X4X4X4X4X4X4X4X4X4X4X4X4X4X4X4X4X4X4X4X4X4X4X4X4X4X4X4X",
"i t a e e 8 : ] *.*.=.%.j : 0   s &.@.$.=.=.%.%.%.#.e.e.r.r.j.G   8 4X4X4X4X4X4X4X4X4X4X4X4X4X4X4X4X4X4X4X4X4X4X4X4X4X4X4X4X4X4X4X4X4X4X4X4X4X4X4X4X4X4X4X4X4X4X",
"$ :           >.a.=.r.%.9   X   s -. .@.@.$.#.%.%.=.-.) ( Y R D 4X4X4X4X4X4X4X4X4X4X4X4X4X4X4X4X4X4X4X4X4X4X4X4X4X4X4X4X4X4X4X4X4X4X4X4X4X4X4X4X4X4X4X4X4X4X4X4X",
"1   U :.X.L K =.r.=.e.*.s   2   d -.@.@.@.@.#.%.%.t.I         4X4X4X4X4X4X4X4X4X4X4X4X4X4X4X4X4X4X4X4X4X4X4X4X4X4X4X4X4X4X4X4X4X4X4X4X4X4X4X4X4X4X4X4X4X4X4X4X4X",
"2   D.%X{.j.d.i.r.;.=.,.q       e -.@.@.@.%.$.%.#.r.Y   9 @ + 4X4X4X4X4X4X4X4X4X4X4X4X4X4X4X4X4X4X4X4X4X4X4X4X4X4X4X4X4X4X4X4X4X4X4X4X4X4X4X4X4X4X4X4X4X4X4X4X4X",
"2   4.{.(.i.i.i.r.e.=.=.k e x s B @.@.@.@.%.@.%.%.=.*.] *.2   - - 7 4X4X4X4X4X4X4X4X4X4X4X4X4X4X4X4X4X4X4X4X4X4X4X4X4X4X4X4X4X4X4X4X4X4X4X4X4X4X4X4X4X4X4X4X4X4X",
"2   &.A.j.p.i.i.r.e.=.=.*.*.*.*.*. .@.@.@.%.*.%.%.=.,.i.,.        : 4X4X4X4X4X4X4X4X4X4X4X4X4X4X4X4X4X4X4X4X4X4X4X4X4X4X4X4X4X4X4X4X4X4X4X4X4X4X4X4X4X4X4X4X4X4X",
"2   &.G.g.1.1.;.=.%.=.=.%.#.#.@.@.@.@.@.@.%.#.#.%.=.=.=.,.W ) [ *.] 7 8 4X4X4X4X4X4X4X4X4X4X4X4Xq 1 4X4X4X4X4X4X4X4X4X4X4X4X4X4X4X4X4X4X4X4X4X4X4X4X4X4X4X4X4X4X",
"4X4XY I &.W.T.U.T.J.=.=.-.@.@.@.&. .@.@.#.@.%.%.%.%.=.=.1.i.p.i.a.>.    4X4X4X4X4X4X4X4X4X4X4X4X8 - 9 4X4X4X4X4X4X4X4X4X4X4X4X4X4X4X4X4X4X4X4X4X4X4X4X4X4X4X4X4X",
"4X4X3   ~ 3X1X<X1XE. .-.@. .@.&.@.@. .@.@.%.-.%.%.%.=.;.,.=.1.;.i.=.L ( D a 4X4X4X4X4X4X4X4X4X4X9 - q v f 4X4X4X4X4X4X4X4X4X4X4X4X4X4X4X4X4X4X4X4X4X4X4X4X4X4X4X",
"4X4X4X  / ^.~.Q.R.L.n.M.g.M.i.@.@. . .@.#.#.@.%.%.=.=.=.;.;.=.i.i.i.g.F.c   4X4X4X4X4X4X4X4X4X4X7 <       4X4X4X4X4X4X4X4X4X4X4X4X4X4X4X4X4X4X4X4X4X4X4X4X4X4X4X",
"4X4X4X4X4X    .   { <X=X=X;XJ. .%. . .@.@.#.$.%.*.=.=.;.r.=.r.i.i.i.i.d.C x V 4X4X4X4X4X4X4X4X4X8 X k C M 4X4X4X4X4X4X4X4X4X4X4X4X4X4X4X4X4X4X4X4X4X4X4X4X4X4X4X",
"4X4X4X4X4X2 = q   v.2X-X*X*XG.Q ' @.@.@.@.@.#.%.%.=.=.;.;.;.r.r.r.i.p.p.h.M.]   a 4X4X4X4X4X4X4Xq   T H.b.f = 4X4X4X4X4X4X4X4X4X4X4X4X4X4X4X4X4X4X4X4X4X4X4X4X4X",
"4X4X4X4X4X4X4X4X4X4XS V n v f : k -.@.@.$.#.#.%.%.=.=.;.;.t.r.i.i.i.a.a.p.k.[   7 4X4X4X4X4X4X4Xy   ~ F.b.e   4X4X4X4X4X4X4X4X4X4X4X4X4X4X4X4X4X4X4X4X4X4X4X4X4X",
"4X4X4X4X4X4X4X4X4X4X            4 -.@.@.@.#.@.%.%.=.=.;.;.r.r.r.i.i.p.a.p.a.s.t.u.g , 4X4X4X4X4X4X4X4Xd M >.*.T = s g 4X4X4X4X4X4X4X4X4X4X4X4X4X4X4X4X4X4X4X4X4X",
"4X4X4X4X4X4X4X4X4X4X4X4X9   { V.b.#.@.@.#.$.$.%.%.%.;.=.;.;.r.i.r.i.p.p.a.a.g.k.M.a   4X4X4X4X4X4X4X4X  q k.K.E         4X4X4X4X4X4X4X4X4X4X4X4X4X4X4X4X4X4X4X4X",
"4X4X4X4X4X4X4X4X4X4X4X4X>   V.<XY.@.! @.@.#.#.%.%.=.=.=.=.i.r.r.i.i.g.i.a.a.g.n.f.u # 4X4X4X4X4X4X4X4X4X4X[ ] T b b j a 4X4X4X4X4X4X4X4X4X4X4X4X4X4X4X4X4X4X4X4X",
"4X4X4X4X4X4X4X4X4X4X4X4Xm s V.~.I.h.g.e.@.%.#.*.%.=.=.;.;.=.r.r.r.i.i.g.a.g.g.k.b.q   4X4X4X4X4X4X4X4X4X4X    ( g.,.,.t.M o a 4X4X4X4X4X4X4X4X4X4X4X4X4X4X4X4X4X",
"4X4X4X4X4X4X4X4X4X4X@ g Q.~.W.W.R.W.!.h.! $.%.%.%.%.=.;.;.t.r.i.r.i.p.h.p.g.g.g.b.b j 4X4X4X4X4X4X4X4X4X4X7   ( d.t.e.s.c   % 4X4X4X4X4X4X4X4X4X4X4X4X4X4X4X4X4X",
"4X4X4X4X4X4X4X4X4X4X  i !.~.E.*XQ.R.E.g.e.r.-.%.%.=.;.=.r.=.r.r.i.i.h.p.d.d.g.g.g.g.G./ o g 4X4X4X4X4X4X4X4X4Xx k x c M Y R K 4X4X4X4X4X4X4X4X4X4X4X4X4X4X4X4X4X",
"4X4X4X4X4X4X4X4X4X4X  f !.*XW.W.R.E.R.Y.W.U. .%.%.=.=.;.r.r.r.r.r.i.p.h.p.g.d.g.g.k.H.T   8 4X4X4X4X4X4X4X4X4X4X        ] i.(   = 4X4X4X4X4X4X4X4X4X4X4X4X4X4X4X",
"4X4X4X4X4X4X4X4X4X4X  % Q.*XE.E.E.E.E.Q.~.P.Q %.%.=.=.=.=.;.r.r.i.i.i.h.h.g.g.g.g.g.F.W   y 4X4X4X4X4X4X4X4X4X4X4Xe - . [ =.E   + 4X4X4X4X4X4X4X4X4X4X4X4X4X4X4X",
"4X4X4X4X4X4X4X4X4X4XP ` !.*XE.W.E.R.E.E.!.Y.P.Y.h.-.=.=.;.i.r.i.r.i.p.a.g.h.g.g.g.g.G.Y     4X4X4X4X4X4X4X4X4X4X4X4X@   ' r.E   ; 4X4X4X4X4X4X4X4X4X4X4X4X4X4X4X",
"4X4X4X4X4X4X4Xy   v.<X=X-XW.W.W.R.R.E.E.W.~.~.&Xd.#.=.;.=.=.r.r.i.i.a.p.p.a.g.g.k.g.M.] C Y 4X4X4X4X4X4X4X4X4X4X4X4X:   ' i.`     4X4X4X4X4X4X4X4X4X4X4X4X4X4X4X",
"4X4X4X4X4X4X4X9   <.>X*X-X!.W.W.E.Y.E.E.W.W.!.~.d.-.=.;.1.r.r.r.r.i.i.a.h.g.g.g.g.g.M.Z.H.f., 7 4X4X4X4X4X4X4X4X4X4X4X4Xd s C W Y k 4X4X4X4X4X4X4X4X4X4X4X4X4X4X",
"4X4X4X4X4X4X4Xq   <.>X*X!.!.W.E.E.E.E.E.W.W.!.=Xh. .%.;.;.r.r.i.i.i.h.a.h.g.g.g.g.k.Z.j.M.f.: > 4X4X4X4X4X4X4X4X4X4X4X4X    M t.,.q   4X4X4X4X4X4X4X4X4X4X4X4X4X",
"4X4X4X4X4X4X4X9   <.:X*X*X!.W.W.E.R.E.E.Q.!.!.W.a.i.h.=.;.;.1.1.r.i.p.h.p.a.g.g.M.g.g.j.F.d.= 1 4X4X4X4X4X4X4X4X4X4X4X4X<   V %.@.q   4X4X4X4X4X4X4X4X4X4X4X4X4X",
"4X4X4X4X4X4X4X9   <.:X*X*X!.W.W.E.R.E.E.!.!.~.&XW.=XP.@.;.;.i.1.r.i.p.p.h.a.g.g.j.g.j.M.F.f., > 4X4X4X4X4X4X4X4X4X4X4X4X1   M e.@.q   4X4X4X4X4X4X4X4X4X4X4X4X4X",
"4X4X4X4X4X4X4Xe   <.<X*X!.!.W.W.R.R.E.E.E.W.W.!.;X<XU.@.i.1.-.1.i.i.p.p.a.a.g.g.g.g.k.g.F.f.= 1 4X4X4X4X4X4X4X4X4X4X4X4X1   V %.&.q   4X4X4X4X4X4X4X4X4X4X4X4X4X",
"4X4X4X4X4X4X4Xq   <.>X*X-XW.!.W.E.R.E.E.!.!.W.=Xu.] I h l h < @.p.r.g.i.a.a.g.g.k.g.g.g.F.d.= 1 4X4X4X4X4X4X4X4X4X4X4X4X1   V %.-.q   4X4X4X4X4X4X4X4X4X4X4X4X4X",
"4X4X4X4X4Xe 8 e   y.>XW.!.!.W.W.E.Y.E.E.!.W.!.;Xb             ] g.i.h.h.a.a.g.g.k.g.n.g.F.s.: 1 4X4X4X4X4X4X4X4X4X4X4X4X    M i.=.q   q 4X4X4X4X4X4X4X4X4X4X4X4X",
"4X4X4X4X4X        { 1X=X!.!.!.E.E.E.E.E.W.W.!.;XS   B ..+.o.9.X.n R a.h.a.g.g.g.g.g.k.g.F.f.; > 8 q 4X4X4X4X4X4X4X4Xq 7 R R L K Y s + 4X4X4X4X4X4X4X4X4X4X4X4X4X",
"4X4X4X4X4X2.O.O.o.2.<.<.!.!.E.W.E.R.E.E.W.!.!.=XZ   O.@X X.X+X}   n M.g.a.g.g.g.k.g.k.g.F.i.          4X4X4X4X4X4X4X@   ] i.W     4X4X4X4X4X4X4X4X4X4X4X4X4X4X4X",
"4X4Xs   J $X#XXX#X4.  o W.-XE.W.E.R.E.E.!.E.!.;XZ   +.XXx.|.XXo.F ` ' W h.g.a.g.g.g.g.k.F.g.&.>.&.>.( f n 4X4X4X4X4X@   [ =.E   - 4X4X4X4X4X4X4X4X4X4X4X4X4X4X4X",
"4X4X4X  F @X'._.'.4.  j W.!.E.W.E.E.E.E.!.W.!.;XA   O.'._.|._..X#XS.    t.j.g.g.g.g.Z.F.M.k.J.K.F.J.t.  X         X     [ r.E   $ 4X4X4X4X4X4X4X4X4X4X4X4X4X4X4X",
"4X4X4X  F @X X_.XX6.  s !.*XE.E.E.E.E.E.W.W.*X=Xn   +.@X'.|..X.XOXz.* s u.s.h.g.g.j.g.g.M.g.t.u.g.M.*.u x s a e 7 ; #   [ i.)   - 4X4X4X4X4X4X4X4X4X4X4X4X4X4X4X",
"4X4X4X  J }.[._.XX3.  5 Q.-XW.E.E.E.E.E.W.W.W.*Xv.v.2.} o._.c.OX|. X`.{.J   ) Z.Z.g.M.j.F.f.    s.F.g.g.g.d.s.e.=.*.@.] V x B 4X4X4X4X4X4X4X4X4X4X4X4X4X4X4X4X4X",
"4X4X4X4X4XX.U /.|.q.8.8./ m L.*XY.E.E.E.W.W.*X&X;X1XV.  q @XoXOX.XoXOX#XJ   ` G.g.g.n.M.H.b.4 4 f.G.F.n.g.g.g.g.d.h.i.g.M   * 4X4X4X4X4X4X4X4X4X4X4X4X4X4X4X4X4X",
"4X4X4X4X4X    S.oX_. X`.4   N.<XW.E.E.E.W.!.*X&X&X=XL.b ] 6.9.c.OX.X.X@XH   ( k.g.g.G.) c V 4X4XV M m M M V C Z C A K R m q 4X4X4X4X4X4X4X4X4X4X4X4X4X4X4X4X4X4X",
"4X4X4X4X4Xh w 4.8.7.x.c.X.} v.y.u.W.R.R.E.E.E.*X*X*X=X>X>X6   0.+XoX+X$XJ   _ F.k.k.J.~   ; 4X4X%                       4X4X4X4X4X4X4X4X4X4X4X4X4X4X4X4X4X4X4X4X",
"4X4X4X4X4X4X4Xo   } '.w.c.oX+.  m -X*X~.-X=X;X>X;X:X>X<X>Xs   6.`.(./.(.B   I >.' ] >.~ 4X4X4X4X4Xg g a a y q q 0 2 > : 4X4X4X4X4X4X4X4X4X4X4X4X4X4X4X4X4X4X4X4X",
"4X4X4X4X4X4X4Xe   ` `.q.0.c.X.  D L.L.C.N.m.m.<.<.>./ / P @   0 q , O   o =           4X4X4X4X4X4X4X4X4X4X4X4X4X4X4X4X4X4X4X4X4X4X4X4X4X4X4X4X4X4X4X4X4X4X4X4X4X",
"4X4X4X4X4X4X4X4X4X4Xh z r 9 -                               .         @ = : ; 4 7 8 q 4X4X4X4X4X4X4X4X4X4X4X4X4X4X4X4X4X4X4X4X4X4X4X4X4X4X4X4X4X4X4X4X4X4X4X4X4X",
"4X4X4X4X4X4X4X4X4X4X          X . . + @ : > > < 7 8 8 e a 4X4X4X4X4X4X4X4X4X4X4X4X4X4X4X4X4X4X4X4X4X4X4X4X4X4X4X4X4X4X4X4X4X4X4X4X4X4X4X4X4X4X4X4X4X4X4X4X4X4X4X",
"4X4X4X4X4X4X4X4X4X4X4X4X4X4X4X4X4X4X4X4X4X4X4X4X4X4X4X4X4X4X4X4X4X4X4X4X4X4X4X4X4X4X4X4X4X4X4X4X4X4X4X4X4X4X4X4X4X4X4X4X4X4X4X4X4X4X4X4X4X4X4X4X4X4X4X4X4X4X4X4X",
"4X4X4X4X4X4X4X4X4X4X4X4X4X4X4X4X4X4X4X4X4X4X4X4X4X4X4X4X4X4X4X4X4X4X4X4X4X4X4X4X4X4X4X4X4X4X4X4X4X4X4X4X4X4X4X4X4X4X4X4X4X4X4X4X4X4X4X4X4X4X4X4X4X4X4X4X4X4X4X4X",
"4X4X4X4X4X4X4X4X4X4X4X4X4X4X4X4X4X4X4X4X4X4X4X4X4X4X4X4X4X4X4X4X4X4X4X4X4X4X4X4X4X4X4X4X4X4X4X4X4X4X4X4X4X4X4X4X4X4X4X4X4X4X4X4X4X4X4X4X4X4X4X4X4X4X4X4X4X4X4X4X",
"4X4X4X4X4X4X4X4X4X4X4X4X4X4X4X4X4X4X4X4X4X4X4X4X4X4X4X4X4X4X4X4X4X4X4X4X4X4X4X4X4X4X4X4X4X4X4X4X4X4X4X4X4X4X4X4X4X4X4X4X4X4X4X4X4X4X4X4X4X4X4X4X4X4X4X4X4X4X4X4X",
"4X4X4X4X4X4X4X4X4X4X4X4X4X4X4X4X4X4X4X4X4X4X4X4X4X4X4X4X4X4X4X4X4X4X4X4X4X4X4X4X4X4X4X4X4X4X4X4X4X4X4X4X4X4X4X4X4X4X4X4X4X4X4X4X4X4X4X4X4X4X4X4X4X4X4X4X4X4X4X4X",
"4X4X4X4X4X4X4X4X4X4X4X4X4X4X4X4X4X4X4X4X4X4X4X4X4X4X4X4X4X4X4X4X4X4X4X4X4X4X4X4X4X4X4X4X4X4X4X4X4X4X4X4X4X4X4X4X4X4X4X4X4X4X4X4X4X4X4X4X4X4X4X4X4X4X4X4X4X4X4X4X"
};
