/* XPM */
static char *ee4e9022f663449adc7d71e2a3afdc2d70z6gzejR7biFCVw[] = {
/* columns rows colors chars-per-pixel */
"80 80 248 2 ",
"   c #6F010D",
".  c #680215",
"X  c #73031B",
"o  c #760418",
"O  c #7C021B",
"+  c #7A1127",
"@  c #524D3C",
"#  c #595A38",
"$  c #63623E",
"%  c #5D5847",
"&  c #545048",
"*  c #615C45",
"=  c #625D4C",
"-  c #655E52",
";  c #65624C",
":  c #68654B",
">  c #6C6A4E",
",  c #666353",
"<  c #6A6454",
"1  c #6C6B54",
"2  c #676358",
"3  c #6B655B",
"4  c #6E6A5B",
"5  c #716D54",
"6  c #726D5C",
"7  c #7C6A5B",
"8  c #717053",
"9  c #75725C",
"0  c #78775B",
"q  c #79745D",
"w  c #6E6B60",
"e  c #736D62",
"r  c #776F65",
"t  c #767263",
"y  c #7A7465",
"u  c #7C7A64",
"i  c #767368",
"p  c #7B756A",
"a  c #7D7A6B",
"s  c #7E7A71",
"d  c #7C7873",
"f  c #840013",
"g  c #8B0015",
"h  c #83021B",
"j  c #8C021B",
"k  c #84081C",
"l  c #970219",
"z  c #94021C",
"x  c #A6061D",
"c  c #8B0424",
"v  c #880726",
"b  c #990727",
"n  c #9B042C",
"m  c #871428",
"M  c #98162B",
"N  c #9A0A32",
"B  c #8B1A31",
"V  c #991A35",
"C  c #A40224",
"Z  c #AB0225",
"A  c #A3022C",
"S  c #AB022C",
"D  c #A60B28",
"F  c #AB0B2C",
"G  c #B1042C",
"H  c #B80628",
"J  c #A61529",
"K  c #AC132B",
"L  c #B4122C",
"P  c #AA0231",
"I  c #A70933",
"U  c #B50C33",
"Y  c #B80832",
"T  c #AB1A35",
"R  c #A91936",
"E  c #B51838",
"W  c #902A39",
"Q  c #98283A",
"!  c #A7253C",
"~  c #B7243B",
"^  c #C6072A",
"/  c #D10D2C",
"(  c #DB0C2C",
")  c #CC172F",
"_  c #D6142E",
"`  c #C80A34",
"'  c #D20E34",
"]  c #DC0D33",
"[  c #C81837",
"{  c #DB1235",
"}  c #D51438",
"|  c #E40C2D",
" . c #E10C33",
".. c #E21235",
"X. c #C92538",
"o. c #D7233A",
"O. c #E0263E",
"+. c #B11C40",
"@. c #9B2A42",
"#. c #883448",
"$. c #9B3947",
"%. c #A92B42",
"&. c #B72845",
"*. c #BA2A45",
"=. c #A9374B",
"-. c #B73749",
";. c #B23051",
":. c #BA3954",
">. c #CE1A42",
",. c #C72643",
"<. c #C9344A",
"1. c #D8384B",
"2. c #C53855",
"3. c #E43A54",
"4. c #904C52",
"5. c #9A565B",
"6. c #A94756",
"7. c #AB4853",
"8. c #B84655",
"9. c #AA5764",
"0. c #B75968",
"q. c #8B6360",
"w. c #966F6D",
"e. c #817C66",
"r. c #87786C",
"t. c #827C6C",
"y. c #837D72",
"u. c #877E74",
"i. c #B26A72",
"p. c #A77A78",
"a. c #C6475A",
"s. c #D24B54",
"d. c #D54B5A",
"f. c #E84859",
"g. c #CD4E66",
"h. c #C85468",
"j. c #DA5A68",
"k. c #E75867",
"l. c #E8526A",
"z. c #F15A6A",
"x. c #C76776",
"c. c #D86778",
"v. c #CD717C",
"b. c #E9646B",
"n. c #EB6E75",
"m. c #E7647A",
"M. c #F96575",
"N. c #F7757E",
"B. c #7F8075",
"V. c #84816D",
"C. c #89816C",
"Z. c #868174",
"A. c #8A8475",
"S. c #8C8975",
"D. c #868279",
"F. c #8B857B",
"G. c #8D897C",
"H. c #918976",
"J. c #928578",
"K. c #928B7D",
"L. c #95907E",
"P. c #A1847D",
"I. c #B97983",
"U. c #CB6C81",
"Y. c #CA7986",
"T. c #DA798A",
"R. c #D97D91",
"E. c #E57985",
"W. c #EE738A",
"Q. c #F67786",
"!. c #FC7C85",
"~. c #8C8780",
"^. c #8E8B82",
"/. c #938D83",
"(. c #9A8F83",
"). c #948E89",
"_. c #8F9486",
"`. c #959185",
"'. c #9A9285",
"]. c #959289",
"[. c #9B958B",
"{. c #9D998D",
"}. c #9B9691",
"|. c #9D9A93",
" X c #9E9E99",
".X c #A98A86",
"XX c #B78789",
"oX c #A19385",
"OX c #A2968B",
"+X c #A29A8D",
"@X c #B48F92",
"#X c #A39D94",
"$X c #A89A95",
"%X c #A99E94",
"&X c #A39E99",
"*X c #B89393",
"=X c #9FA099",
"-X c #A5A196",
";X c #AAA196",
":X c #A5A29B",
">X c #ABA49C",
",X c #ADA99E",
"<X c #B0A296",
"1X c #B1A69D",
"2X c #B1AA9F",
"3X c #A7A5A1",
"4X c #ABA6A1",
"5X c #A6A8A2",
"6X c #ADAAA3",
"7X c #AEADA8",
"8X c #B4AAA2",
"9X c #B3ACA4",
"0X c #B3AEA9",
"qX c #B9AFA9",
"wX c #B6B1A5",
"eX c #B8B1A7",
"rX c #B5B1AB",
"tX c #BAB2AA",
"yX c #BDB9AE",
"uX c #CF8793",
"iX c #C7989B",
"pX c #D7969C",
"aX c #FA8886",
"sX c #FD838B",
"dX c #FE8C8B",
"fX c #FC918D",
"gX c #E78491",
"hX c #FF8690",
"jX c #FE8D92",
"kX c #FD9493",
"lX c #FD9B98",
"zX c #D099A2",
"xX c #C4A7A7",
"cX c #D8A2A8",
"vX c #C4B2AD",
"bX c #DDA9B3",
"nX c #C6B9B5",
"mX c #D2B9B9",
"MX c #EAACB4",
"NX c #CBC3BB",
"BX c #CFBFC0",
"VX c #EEBBC5",
"CX c #CBC4C1",
"ZX c #D9C7C7",
"AX c #E7C6C8",
"SX c #ECD1D4",
"DX c #F2D3D3",
"FX c #FAE2E9",
/* pixels */
"6 K.%X#X[.[.y.2 3 A.u.t.t.p e % 5 e.S.A.e - r K.+XOXF.u.t.q {.>X,X4X9X8XK.6 a 4X9X9X9X9X9X:Xp D.1X,X#X{.;X#Xt.A.+X>X;X;X%XK.u e.-X-X|.].).G.% 2 D.#X%X[.D.y.e = ",
"/.{.#X+X#X;X[.u.D.%X;X#X#X#X{.a K.+X+X$X[.u.A.+X$X#X[.+X'.u.;X6X8X9X9X9X;XA.Z.4X9X9X9X9X9X6Xy.F.;X#X{.#X;X{.F.A.OX;X;X1X1X%XA.V.4X4X>X&X&X}.4 p [.1X,X>X#X#XK.2 ",
"&X#X#X#X;X8X#X/.[.qXqXqXtXqX,Xu.+X1X1X1X1XA.F.+X%X#X%X,X%XF.;X8X9XqX8X8X8X`.F.6X0X9X0X0X9X0XF./.;X#X#X%X>X#X/./.%X>X1X2X2X1XH.Z.6X6X6X4X4X&Xy K.;X9X8X9X9XeX#Xe ",
"[.{.{.#X,X,X+XK.[.qXqXqXtXqX#Xp [.,X,X1X,XA.t./.#X%X;X,X+XA.#X;X%X;X;X#X{.Z.t.:X4X4X4X6X6X6Xu.F.%X%X>X#X#X#XG.A.OX;X;X1X1XOXu 9 ].|.&X#X|.[.4 F.;X1X2X,X8XqX[.2 ",
"u.D.D.G.[.#X/.A./.8X8X,X,X>X+Xe /.%X+X{.+XJ.u t./.#X#X%X/.t.[.[././.G.a y.6 4 G.].[.{.|.[.{.6 y [.[.#X/.D.u.p 2 t.K.'.[.'.A.> # 8 Z.^.G.D.y.* 6 K.#X%X{.%X;X/.- ",
"/././.p % t.Z.u.A.F.u.3 < 6 6 - 3 6 ; # * < < < 6 A.t.6 6 a K.G.G.K.u.= t A.D.y.y.A.A.a 2 A.D.u.F././.e e F./.F.D.D.A.t = Z.`.G.S.[.+XZ.4 t t.Z.G.K.K.G.3 p ]./.",
":X>X>X/.2 {.;X;X;X;X%Xa y.[.[.].].[.F.1 t.A.F.F.G./.G.u.A.+X%X#X;X;X+Xp G.[.}.[.[.{.#X^.w {.-X#X-X;X;Xy.D.|.|.|.|.|.|.G.3 /.>X>X:X>X,X/.y Z.-X,X,X,X,X>Xp y.:X;X",
">X9XrX|.t ,XtXeXeXeXtXu./.rX0X0X6X0X-Xt.[.{.{.{.[././.G./.;X>X1X8X9X,XD.].#X#X:X>X>X4X].p >X8X9X9X9X9XF.^.>X:X X:X5X4X|.p {.9X9X9X9X9X[.D./.eXyXyXyXyXtXy.D.:X#X",
"&X6XrX|.t >XeXeXeXeXeXa F.rX0X0X6X7X|.p /.[.[.[.[./.[.D.u.+X;X,X2XqX8Xa /.4XrXnXnXnX0X^.e >X9X9XqX9X9XD.~.3X5X-X:X>X3X|.a |.9X9X9X9XqX{.D./.eXyXyXyXyXtXa D.:X[.",
"[.#X>X`.6 {.,X2X2X8X,Xy D.6X4X>X-X-X].t Z./.[.`.`.[.#XA.a [.;X;X>X8X>X9 G.nXSXFXFXSXCX/.% {.>X>X>X>X>Xa D. X=X X|.|.|.].p [.>X:X#X-X>X`.y.G.,X9X9X9XwX9Xp y.#X{.",
"3 4 6 < ; y y.D.A.G.y.% ; a Z.a 1 < 9 p u D.D.a t t e , ; V.A.A.K.L.V.> t.xXVXbXbXbXmX}.& 2 y a y 6 t 2 3 i t e e i p e - a A.p - ; t t 6 y A.D.p p G.Z.; 1 Z.A.",
"2 A.{.[.[.#X{.D.e s [./.`.|.#X{.a a `.#X|.#X:X`.p A.^.^./.[.|.`.a u ].`.9XxXI.5.#.5.xXNXu.D./.[.A.< G.`.`.].].[.6 t.#X#X[.#X;X/.6 u /.[.{.[.#X#XD.a #X|.].{.|.#X",
"2 {.rXrXtXtXqX#XD.D.4X6X9X0X0X9XF.A.:X0X0X0X0X#Xs [.#X&X:X:X>X[.u u 6X6XNXcX0.B + #.iXSX#X#X-X>X`.t -X9X6X,X6X9X6 u.tXtXtXtXtX;Xu.`.>X0X9X4X0XrX^.s 6X7X7X7X7X6X",
"3 [.9X9XtXtXtX9X#X^.4X9X9X9X9X6XA.A.#X9X0X0X0X&Xu.[.#X#X&X:X>X`.a S.rXtXCXcXx.Q B @.uXSXqX#X#X:X`.y -X6X6X,X>X,X4 p 8XeXeXeXtX;XF.[.6X0X6X>X9XrX^.s 6X7X6X7X7X7X",
"e ].:X:X8X9X9X;X`.G.-X>X4X4X>X-XZ.A.|.#X:X:X>X|.Z.A.].|.|.#X#XG.u S.6XnXmXpXc.-.B W x.MXAX>X#X#XG.4 -X6X6X>X#X>X3 t #X,X2X2X8X#XZ.G.#X6X>X>X6X6X^.y.-X-X:X3X3X>X",
"- s F.F./././.A.u t D.Z.y.y.t.e , * ; ; 1 < 9 6 % 1 a Z.Z.t.Z.u 1 9 `.xX5.7.n.T.V O B 9.pXmX#XG.y % ^.{.{.[./.G.* = a Z.Z.Z.A.t.4 6 y.G.^./.{.[.y < A.s s s y.s ",
"A.D.G.D.t s /.[.`.`.}.|.s 6 J.A.A.A.C.C.H.1 9 F.F.^./.G.Z.q t.Z.a V.'.iX7.8.E.E.M O v ;.gXAX[.a a t A./.a t G.`.F.G.`./.F.t p /.[.[.`.[.`.a A.G.u.u.`.D.3 i ^./.",
"#X|.#X].t y.|.4X4X4X6X6XD.6 oXoXOXOXOXOX;Xy t.#X>X:X#X|.G.y K.[.[.[.%XpX8.8.T.E.V h b 2.W.VXvX#X[.].[.|.s w ].#X:X>X:X&X|.p D.>X9X9X4X6X#Xa A./.[.+X%X[.r s |.:X",
">X6X6X#XD.^.:X6X4X4X6X7X^.u '.oX'.oXoXOX<XA.F.:X>X:X:X>X].p {.>X,X;X.XY.-.8.T.E.Q h b <.m.uXZXNX>X,X,X6X^.s &X>X4X4X4X3X:Xa G.0X0XrX0XrX-XZ.[.#X#X;X;X#Xu.G.:X4X",
"4X4X>X}.~.^.:X4X:X3X6X6X/.u.'.oXoX'.'.oX<XJ./.>X:X&X:X4X[.a [.-X>XOX9.=.! a.n.E.B k I +.&.$.iXvX:X-X:X6X^.y.-X:X:X:X:X>X>X4 Z.rX0X0X0XrX:XA./.[.+X#X#X#XD.G.:X4X",
"|.|.[./.y.D.&X6X3X3X4X6XA.y '.'.'.'.(.oX%XA.D.].[.[.|.#X/.6 Z.[.:X.X5.8.a.j.E.gXV v b F R Q uXvX6X:X#X:XG.y.&X:X:X-X-X:X:X9 t.6X9X9X9XrX-Xu 1 G.#X{.D.`.A.y./.&X",
"4 a u.y.p a y.D.a t i p t y A.A.A.t.e.t.J.Z.D.G.A.y a t.y 1 9 u u 7 4.8.c.Q.jXQ.B h j b D ! Y.vX>Xp D.F.u.y.D.y.a y.^.[.Z.t a D.y y y.t.1 # # * 3 6 e p y y t.D.",
", y./.^.^./.^.^.a % y A./.'.[.'.[.A.a /.[.[.[.[./.t t.A.A.A.A.J.q.4.W -.E.sXn.d.V v h z D ! 0.uX@X/././././.G.F.p s ].#X`.`.].D.< y.G.F.V.u V.t , 4 u.A.G./.`./.",
"p [.:X&X:X:X4X6X/.4 [.,X8XqXqXqXqX`.A.>X6X6X6X4X#XD.(.$X%X%X%X$Xi.$.Q -.E.N.s.~ R b j j J E &.6.I.vX8X6X>X#X#X;XF.^.4X6X6X6X6X[.p >X0X7X7X7XrX|.D.y.#X:X,X6X6X6X",
"Z.[.&X&X&X&X>X4X[.u #X#X;X8X8XqXqXK.s :X>X>X>X>X#XA.(.%X;X;X;X.X5.Q 8.a.Q.n.1.L L F b j b R R @.9.8X8X,X>X#X#X#XD.].6X6X6X6X6X].e |.6X6X6X6X6X-XD.y.#X>X>X>X>X>X",
"6 /.#X&X#X#X:X4X/.; {.#X;X8X8X9X#Xp 2 G././.`.`./.t.K.+X%X%X%XXX9.8.N.!.sXM.1.) [ [ D g f j M %.i.xXqX>X-X;X#X[.a ^.4X4X4X4X4X`.4 -X6X6X6X6X6X#Xy.t ^.{.].[.{./.",
"a D.t.t p D.F.F.y.6 D.4 = 4 y.D.A.y e p ; 1 a A.A.t.Z.u 9 r.p.9.Q -.!.!.M.f.o./ { ' H l j f M ! a.Y.*Xy 6 t.t.t.p D.G.t t D.`.D.2 G.`.A.Z.G.G.G.y.p p t t t.A.A.",
"+X[.K.a e /.].`.`.].].4 2 y./././.'.'.J.* 9 K.[.[.`.].a 9 p.5.$.M -.!.M.1.) _ _ ../ H C z f M R *.8.p.7 y J.K./.`.[./.e e G.{.].A.[.].Z.a ].[.[.[.[./.a t.K.].`.",
"9X2X2X{.s :X6X6X6X6X6Xy./.qXqX,X8XqXqX%X1 S.;X9X9X:X6X`.A.*X=.*.*.s.!.M.o.^ _ .. .( ^ H l g b K L ! x.P.{.8X9X8X8X9X;X(.A.#X6X6X8X6X>X/.G.9XwXwXwXeX2XK.'.;X,X#X",
";X;X>X{.p :X6X6X4X4X>X4 u.qX9X,X,X9X8X+X< F.-X>X,X:X,X`.J.uX-.l.!.sXsXM.o./ ..( |  .{ ` Z z g l D ~ c.@X;X6X8X8X8X8X,X].t.[.>X6X6X6X>X/.D.#X,X9X,X2X>Xu./.-X-X{.",
"#X%X%X/.s :X4X>X4X4X:X4 y.qX9X8X8XqXqX%X6 t.`.+X-X>X6XOXp.x.*.l.!.jXsXM.o.( ..| | ( { ' H l g l D ~ a.T.iX,X,X6X8X8X;XJ.> Z.{.#X:X>X>X/.p D.].{.[.[.`.t y.[.:X|.",
"< t a y 6 9 1 1 4 < 4 4 s /.D.y.e.C.H.C.e.y q 6 6 y K.w.$.*.~ d.!.jXsXM.O.( | | | | { ' H Z l l D ~ ,.:.5.q 8 u 0 8 8 8 $ : 9 y u V.A.u < ; , < t y.a t p y.a t ",
"4 u././.K.A.V.4 , p s ~.].].F.< y H.L.L.'.'.V.q t.A.OXi.! L J d.!.!.k.f.} ( | | | | { ] ` Y x l z J E M 4.A.t.0 0 u u t.e.u 9 5 1 G.`./.A.Z.a 4 p ^./.).]./.F.a ",
"G.>XtXrX0XtXtX/.y.6X7X7X6X6X#X6 '.2X9XqX9XeX+XK.>X9XvXY.-.L J d.!.b.X.o._ (  .| ( ] ] ] } } Z l g j D J 0.xX,XF.F.|.4X:X:X[./.V.y >X0X6X6X0X6XD.G.>X6X0X0X0X4X|.",
"u.;XtX0X0X0X0X`.D.6X6X6X6X4X|.t.#XeXqXqXqXeX[.J.;X<XiXh.E X.<.b.N.z.X.) _ ( ]  .] ..] ] { } Z l f f l E h.uX$XZ.a ].6X4X#X[.|./.u >X6X4X>X6X6XZ.A.:X6X6X6X6X4X#X",
"D.;X0X0X0X0X0X`.Z.3X6X6X6X3X|.A.+X8XqX9XqXqX].A.+Xp.6.! ~ f.N.aXsXz.X.) _ ( ] ..]  . . .{ [ C g f g b E *.%.$.y s ].>X>X#X[.}.K.u :X6X:X-X6X6Xy.F.4X6X6X6X6X>X[.",
"y A././././.'.a t ^.D.^.)./.Z.t y Z.K.K.K.'.t.5 u.i.&.K E d.aXfXaXb.X._ { ] ] ] ] ]  . .{ [ F z f f l F E &.=.r.a F.{.].G.G.V.0 5 ^.[.].G.A.Z.; ; y s y.y.D.a 4 ",
"/.'.y.t /.`.{./.A.].^.t y.[.`.K.F./.`.t.u e.q 6 r.0.*.F K s.aXfXaXb.X./ ] ] ] { ..] ]  .] } L b z j z C U &.:..XS.V.B.9 F.G.A.A.K.[.V.V.S.G.A.u y t.a 4 y./.G.y.",
"rXrXG.y #X4X9X9X6X>X>X6 t.,XqXeXeXtX>XA.u t.A.J.w.a.,.[ <.j.aXfXaXz.) / ] ] ' ' ' / ] ..] ' Y F b b J *.,.&.-.i.P.H.u > ].+X#X>XqX9Xe.u '.-X;X-X;X#X'.t {.0X9X6X",
"0XyX[.D.:X6X9X6X6X6X6Xt t.,XqXeXeXeX2X[.A.+X1X.X6.*.,.l.sXdXfXdXsXz.} { { ' ^ H H H / ..{ ' Y S b n :.W.m.1.~ ! 0.@X{.t.;X9X8X2X9X9XK./.;X,X,X6X8X6X#Xp |.0X9X9X",
"0XtX/.a :X6X9X6X6X6X6Xp t.;XqXqXqXeX,X{.[.;X8XI.%.~ [ d.dXaXdXN.z.3.>.} ` ^ H H H H ^ ` ' >.Y D b v V a.a.&.R ! 8.XX].D.,XqX9X9X8X8X/./.;X8X8X8X8X8X;Xy {.9X6X9X",
"[./.e 2 y.^.^.^.^.G./.6 e A./././.`.K.A.F.+X;Xp.%.J x s.fXdXdXb.<.[ ' ` ` H Z Z G G Y ` Y >.U A v h O m M D F R a.XX_.t K.+X+X[.`.`.y e.'.%X[.'.K.G.D.2 y././.).",
"/.F.D.F./.[.D.D././.].G./.A.6 p a t.t.p t.Z.r.5.! -.s.b.fXfXjXj.~ G Y Y G Z C Z G Z Z Y Y U I n j O m m k g C E 2.0.p.r.a t.V.A.u.Z.q q e.u 0 V.K././.A.G.^.D.a ",
":X&X6XrXrX0X/.].4X>X4X0XrX[., t.A.A.F.A.G.y 4.Q ! j.aXdXaXfXkXg.R C U S C C C S G Z Z S U A N N v m W W m j b E ,.&.9.@XA.9 q V.A.A.A.A.e.> $ S.>X8X,X9X,X#X^.e ",
"rXrXrXrXrXrX].|.0X0X0X0XrX|.y #X>X:X:X:X>Xw.4.! J n.jXfXaXkXkXs.J b F C C C C C S Z S S A A b N @.Q W + m ! *.E E F =.iX0XS.e.K.}.).[.#X{.A.0 {.8X8X9X9X9X9X[.i ",
"rXrXrXrXrX0X/.[.0X0X0X0X0X&XD.-X>X>X>X>X>Xw.$.R K b.aXkXfXaXjXs.R C S G G G S C C S S S P I R ;.;.m X . $.c.c.R G U 2.zXBXG.0 K.%X#X#X>X#XA.u [.>X9X9X9XeX6X].i ",
"[.[.`./.`.`.t Z.#X#X#X}.[.G.t |.>X>X>X:X;Xw.%.F D k.aXkXfXaXjXd.R C Z G Z G S S A A S P P I 2.;.V X . . $.T.T.R F U :.iXZXK.0 S.+X'.{.+XK.u : t.#XwX9X9X>X-X/.3 ",
"u.y 6 y a a 6 y t.y G.F.F.D.y t.y.D.G.G./.5.! K K b.kXkXaXdXsXd.R C Z G G S S S S A S P P I &.+.v X X . $.v.i.R F F =.iXZX].t.A.u 5 t.G.A.q 5 a y.Z.K.[./.F.D.a ",
"A.3 6 Z.A.Z.A.F.u < G././.`.K.6 < t Z.A.F.4.! J R n.lXkXaX!.k.<.K C S S G P S P P P P P P I b v v X X . @.x.i.R b M 6.iXZX:X`.G.< # u /.K.G.`.`.t = t.F.u.t.A.{.",
">Xa D.4X4X&X>X8X{.u.,X,X,X,X:XF.D.[.6X6X6Xw.=.J R n.kXkX!.k.~ K D Z Z S S A A A A A P P A I v v O X . . @.T.E.! b Q 9.xXCX0X&X[.u , ].4X>X6X6X6X/.t.[.[./.'.%XqX",
",Xy.G.8X4X4X4X4X[.p >X9X8X8X;X/.u.].6X6X6X>XI.a.-.N.hXN.l.1.[ L Z Z Z Z S I N n n A A A n n v v X . . . B a.g.R ! 0.*XnX9X4X:X#XA., ^.4X4X4X6X6X/.u.#X#X%X,XqXqX",
";XD./.8X8X4X6X6X].6 ,X0XqX8X;XK.t./.4X:X6X7XxXv.:.Q.!.f.[ o.[ L Z Z Z G S n N N N N n n N N v O X X . . O M R R a.pXCX6X:X-X:X:X`.2 ^.4X4X4X6X6X/.A.8X;X2XqXeXeX",
"^.a a G././.K./.A.t u.A.A.A.t.4 < t./.G.G.A.J.5.! g.k.X.x H [ [ Y H G G A n N N v v v v v v O o . X m =.-.R M %.h.cXnX/.`./.G.G.A.2 p F.F.Z.G.D.6 6 `.'.{.#X#X#X",
"^.D.6 < A.A.A.A.K.F.< < 6 y 6 < 6 t a D.a a y 4.%.-.*.K l Z [ [ [ U S C A n n N + X o O O O o o . O ! W.m.2.;.a.U.zX>Xp F.F.t.a Z.p e e t u a p 4 6 y.D./.[.[.].",
"0X0Xy.< ,X8X8X8X8X,XA./.|.-X#X#X#XA.y.#X#X>X4X$X0.:.! D Z X.3.X.L D b z b b v v X . . o O o o o m %.2.m.j.2.h.gXpXxX#X6 [.#X|.[.[.|.].A.^.4X4X4X4X:X|.^.&X4X4X4X",
"0XrXy.2 %X8X8X8X8X,X(.A.).#X#X:X>XG.y.#X#X>X6X#Xr.6.%.R ,.f.Q.a.M f f f f h O O . . X O O     o %.W.M.<.2.h.0.bXnXqX`.< /.{.].].&X:X[.A.^.4X4X4X4X>X}.^.&X6X4X4X",
"rXrXF.e %X8X8XqXqX8X'.u./.#X-X:X>XK.Z.:X>X4X9X|.t..XY.2.E 1.l.*.z M :.-.v O O o X X Q a.:.8.8.a.d.k.d.~ g.gXpXmX4X:X`.5 [.#X[.}.:X:X[.A./.4X6X6X6X6X|.s |.6X6X6X",
"/./.t 2 t.A.e.V.A.A.y 3 a ^././.{.A.u G.K.[.{.K.p L.iXx.%.*.<.K l *.W.j.M o O O O v a.Q.Q.Q.Q.Q.k.<.~ ! v.MXxXD.p y.a * t a t 4 p a 6 9 t.A.F.D.D.F.D.e F.].]./.",
"y.t.y 6 9 : : 5 q u e e t a A.F./.A.y a t./.`.G.A.S.+XXXx.a.R F L ,.z.d.J f v v j b 2.m.m.c.b.m.d.R -.0.uXvX{.w e a p 3 3 = % ; 4 e < 9 t.t 4 6 t u t.t.F.u.p a ",
",X,X,X,X;Xu./.#X,X,X,X,X/.A.#X%X[./.K.K.[.:X>X-X-X-X>XqXbXgX%.~ E [ [ U D D n b S C C b b b R ~ ~ -.c.MXmX#X-X,X4X4X:X-X>Xt a &X>X4X&X|.|.[.y [.#X#X8X;X,XG.y G.",
"8X8X8X8X>X/.'.#X,X2X2X8X/.D.+X{.%X#X{.[.G.#X>X%X%X:X,X/..XVXR.a.&.E ,.E U U U G Y U U F D E R ! a.W.MXAX[.y >X6X4X4X4X4X4Xa u.>X6X6X-X&X:X#Xy.#X9X8XqXqXeX`.a /.",
"8X8X8X8X,X[./.#X8X2X8XeX[.A.#X#X#X;X%X{./.-X>X;X>X,X8X/.F.nXDXR.=.V R +.E E E E R R E E &.%.V %.U.VXVXnXA.e 4X4X4X>X>X>X4Xy.G.4X4X6X6X4X>X#Xu.#XtXeXeXeXtX'.t./.",
"[.[.(.'.[.Z.u C.K.J.F.A.u t G.G.F.K.A.q u V.S.K./.`.[.Z.y /.vXbXpXY.R.R.R.R.R.T.R.R.R.R.R.R.Y.pXbXmX>X{.y 4 |.#X|.]././.].a y.[.[.|.|.[./.F.e '.>X;X>X;X;XA.4 a ",
"u.t.p u.A.u 9 0 q q : , 3 t Z.t.Z.y 1 : 9 q e.V.u.y a a y p A.nXAXAXZXDXDXDXDXDXDXAXAXDXDXAXSXSXmX[.y.A.a a ].|.].y.e a F.D.A././.].t.a A.A.p /.+X'.K./.'.a , 4 ",
"J.y t.`.[.[.K.S.K.H.5 a /.|.{.].|.a 6 [.+X;X;X;X+X6 p G.`.`./.[.[.K.G.nXNXNXNXNXnX{.-XnXNXtXeX9X{.a s |.4X>X>X>X#Xp 2 A.|.;X,X,X;X+X5 u %X,X,X:X-XL.9 A./.K.A.V.",
";Xt.G.6X6X6X,X,X,X;Xt.]. X-X:X4X5X^.A.,X8X8X8X8X;Xt.F.#X>X,X>X>X>X[.Z.,XeXeXwXeXwXy y.>X>X-X>X,X-X`.s |.6X4X4X4X>XG.u.,X6X&X>X9X>X'.> t.,X,X6X:X>X].4 [.$X%X;X;X",
"2XA./.6X6X9X9X9XqX>Xy ^. X X|.5X7X[.K.4X8X8X8X9X,XK.A.[.>X,X,X6X6X].p >XeXeXeXeXeXy Z.,X#X%X>X>X#X`.s |.6X6X6X6X|.y.D.qXqX6X8XqX,X;X< t.6X;X>X>X8X[.4 #X;X;X>X1X",
"2XA.G.>X,X9X9X9X9X-X< B.|.|.|.].].a 9 [.-X,X,X;X+XH.q A.#X:X:X>X,X/., Z./././.G.F.; 9 `.G.G.K.K.G.t.e A.].[.[.`.D.4 y ,X8X9X,X>X;XOX> 5 G.G.].[.{.G., [.%X%X;X1X",
"+XV.A.+X{.{.{.[.{.K.; p `.`.Z.a u : ; V.G.K.G.S.A.e.5 9 V.V.Z.`.{.Z., 4 e 6 e i t 4 y A.D.p t a t.t e y a p p p u e p {.#X/.K.`.'.H.q 9 t 6 Z.Z.G.D.2 A.t.A.'.[.",
"J.A.H.H.C.9 q y y u a Z.K.t.% u a u u u u > : 8 u t.u > # # # a G.Z.D.S.A.t y #X:X>X6X6X#Xt.p K.[.K./.G.t.t 4 t.G.].[./.F.= < A.'.'.OX+XJ.6 t.A.`./.u.u % * q e.",
"1X<X>X;XOXu /.%X#X#X#X#X;X`.6 [.|.|.|.].{.Z.Z.|.#X|.|.].G.t.y {.4X>X>X,X4XA.a >X6X6X6X6X>Xu./.;XqX8X8X8X>X/.s |.3X4X4X:X[.u G.,X2X2X8XqX%XA.#X>X,X,X>X;XV.e.'.OX",
"2X2X2X1X'.t /.,X,X,X,X>X,X[.6 |.:X&X X X&Xa Z.-X4X>X#X}.].G.s |.6X,X:X6X7X^.a :X6X6X6X7X4XD.[.8XtXqXtXtX8X{.D.&X4X6X6X4X#XD.'.qX9X9XqXeX%XA.;X8X8X8X8X8XS.A.OXOX",
"2X2XwX>XK.e /.;X,X,X8X2X9X[.6 |.:X-X&X:X:Xa Z.|.>X>X|.}.].F.u.-X9X4X:X6XrXG.a >X6X6X9X0X4Xy.'.8XtXqXtXtX8X[.D.:X6X7X7X6X#Xu./.8XqXeXtXtX+X9 %X8X8X8X8X,Xu t.OXOX",
"oX'.'.J.t , A.+X+X+X+X+X+XA.; G.].].[.|.[.p y /.[.`.K.G.Z.9 u K.[.]./.].[.a t {.{.{.[.[.].y F.+X#X{.'.[.'.G.D.|.|.[.}.|./.p u.[.#X#X'.'.Z.* G.'.'.[.[.K.: 6 L.'.",
"y 6 % @ % % a /./.A.V.y 9 1 ; t a a a Z.y.t 6 t.J.e.> > 5 * 5 6 6 6 < < 6 6 u A.t.t.6 5 u t.A.A.u.y = % 6 Z.A./.u.t t u.u.t.p t.u.t.% & ; = 6 t e 4 4 < ; 6 t.F.",
";X;Xe = :X>X4X6X6X>X].t Z.:X:X:X>X[.A.D.|.|.#X&X>X&X6 t /.}.|.#X#X}.].D.#X,X,X1X;X;X'.K.%X;X;X;X;X%X[.u./.,X,X6X,X`.D./.>X%X;X2X2X,Xp u.#X#X#X#X}.[.[.r D.{.#X;X",
"8X9Xa 2 4XrXrX0X9X>X|.a /.0X9X4X:X&X`.D.&X&X#X|.&X4Xs p }.:X:X3X3X>X&XG.%XqXqXeX9XqX[.K.;X2X2X2X8X1X%XF.[.qXqXqXqX/.u.#X;X&X2XeXeXyXA./.9X6X6X:X&X:X#Xy /.,X4X>X",
"2X8Xp - 4X0XrXrX9X6X>XD.].0X6X>X&X:X|.D.3X>X&X}.#X3Xs y.|.&X:X>X3X:X|.F.#X9X9XeXeXtX'.F.1X8X8X8X8X8X;XF.[.rXqXqX0X/.y.,X,X,X9XeXtXtXu.F.6X6X4X:X:X>X#Xy [.8X4X,X",
"#X;Xt - :X4X>X:X>X>X#XD./.6X4X:X#X-X`.a [.&X X}.}.|.r y.&X|.|.#X#X[.F.y.{.#X+X#X%X#XF.p /.[.[.'.(.'.(.u.K.#X%X#X:XA.y +X;X;X;X,X1X>X6 a :X#X&X&X&X#X/.4 ~.#X#X|.",
"/.'.t , ].]./.^././.Z.p ^.>X:X#X{.`.e.; p ~.)./.~.~.3 i }.}.^.^.F.t.w 3 u.D.a y.D.y.e = % < 6 , = - - 6 e.u.t.t.D.e , t.F.K./.'.'.(.= 3 /.~.).|.}.^.t % e D.~.D."
};
