/* XPM */
static char *_1533_5da99154fb297cdfd30caae76556cc4069ef89b65fd6b1aaae07f1f2845efe2b[] = {
/* columns rows colors chars-per-pixel */
"80 80 222 2 ",
"   c black",
".  c #0C0000",
"X  c #150000",
"o  c #1C0000",
"O  c #19070A",
"+  c #230002",
"@  c #2C0001",
"#  c #2B020B",
"$  c #26060B",
"%  c #340001",
"&  c #3B0003",
"*  c #34010A",
"=  c #3A020C",
"-  c #380A0A",
";  c #3C1409",
":  c #2C0213",
">  c #2D0D1B",
",  c #260910",
"<  c #340214",
"1  c #3B0413",
"2  c #340C13",
"3  c #370B1A",
"4  c #2A1619",
"5  c #33131C",
"6  c #3B131C",
"7  c #351C1E",
"8  c #3D1B1D",
"9  c #3A1414",
"0  c #35211F",
"q  c #351E21",
"w  c #3B1D22",
"e  c #3A1624",
"r  c #390024",
"t  c #3B2325",
"y  c #3C2529",
"u  c #3E2A2A",
"i  c #372223",
"p  c #430001",
"a  c #4B0001",
"s  c #480804",
"d  c #51000C",
"f  c #4D1B00",
"g  c #471502",
"h  c #420611",
"j  c #52081A",
"k  c #44151D",
"l  c #441C1B",
"z  c #431816",
"x  c #56151C",
"c  c #49231E",
"v  c #4A2419",
"b  c #55261C",
"n  c #4E331C",
"m  c #451C23",
"M  c #4A1B26",
"N  c #541A24",
"B  c #452425",
"V  c #4B2423",
"C  c #4E2A25",
"Z  c #45232A",
"A  c #4B252B",
"S  c #422C2C",
"D  c #4C2C2D",
"F  c #522523",
"G  c #53262D",
"H  c #532C2B",
"J  c #5C2D2C",
"K  c #542B26",
"L  c #47312E",
"P  c #56302C",
"I  c #5C332E",
"U  c #5A3428",
"Y  c #4C2D32",
"T  c #472732",
"R  c #522730",
"E  c #532D32",
"W  c #5C2F32",
"Q  c #512C38",
"!  c #53233A",
"~  c #4D3233",
"^  c #4A3636",
"/  c #533434",
"(  c #5C3533",
")  c #553936",
"_  c #5C3935",
"`  c #56363A",
"'  c #5A3539",
"]  c #54393A",
"[  c #5D3A3A",
"{  c #603534",
"}  c #613937",
"|  c #643C3A",
" . c #683F3E",
".. c #61363B",
"X. c #5C413F",
"o. c #66413D",
"O. c #68413E",
"+. c #5D3B43",
"@. c #653D43",
"#. c #673C44",
"$. c #5C4244",
"%. c #664241",
"&. c #6A4443",
"*. c #6C4845",
"=. c #6B4549",
"-. c #6D4A4A",
";. c #65434A",
":. c #724C4C",
">. c #6D514B",
",. c #72534E",
"<. c #6D4852",
"1. c #744E52",
"2. c #764B56",
"3. c #765252",
"4. c #795455",
"5. c #7B565A",
"6. c #7E5B5C",
"7. c #765B57",
"8. c #7C635B",
"9. c #7F6761",
"0. c #7D5162",
"q. c #815D5E",
"w. c #84575D",
"e. c #835C61",
"r. c #8A5B6C",
"t. c #845869",
"y. c #856162",
"u. c #88676B",
"i. c #89746A",
"p. c #966977",
"a. c #8C7C70",
"s. c #967477",
"d. c #916772",
"f. c #A26E7F",
"g. c #96887C",
"h. c #9E6C81",
"j. c #9E7382",
"k. c #A46D81",
"l. c #A47382",
"z. c #A57A86",
"x. c #B17B8E",
"c. c #B57E94",
"v. c #9C8D81",
"b. c #9D9285",
"n. c #A49789",
"m. c #B88898",
"M. c #A9908C",
"N. c #AEA393",
"B. c #B2A595",
"V. c #B3A798",
"C. c #A9A08F",
"Z. c #BDB4A2",
"A. c #C3869E",
"S. c #C78CA6",
"D. c #D08DAA",
"F. c #D394AE",
"G. c #D595B2",
"H. c #DA99B5",
"J. c #DA98B4",
"K. c #CE98AF",
"L. c #E39FBE",
"P. c #C4BAA7",
"I. c #CFA2B3",
"U. c #D1A3B5",
"Y. c #D6A9BC",
"T. c #D3B8B6",
"R. c #E5A1BE",
"E. c #C7C3AD",
"W. c #CDC7B3",
"Q. c #DBD4BC",
"!. c #D0C8B2",
"~. c #E89BC3",
"^. c #F19EC9",
"/. c #DFAEC1",
"(. c #DFB0C2",
"). c #ECA4C4",
"_. c #E7A7C5",
"`. c #F3ABCC",
"'. c #F4A9CD",
"]. c #E7B4C8",
"[. c #F7B0CF",
"{. c #F6ABD0",
"}. c #F9ADD1",
"|. c #F4B2D2",
" X c #FCB4D6",
".X c #F4BDD7",
"XX c #FEB6D9",
"oX c #F7BDD9",
"OX c #FABBDA",
"+X c #EDBDD2",
"@X c #FFBBE0",
"#X c #DEDBC2",
"$X c #EBC6CB",
"%X c #E2DCC3",
"&X c #E9DECC",
"*X c #F5C1D9",
"=X c #FAC4DE",
"-X c #F6C4D6",
";X c #F6D8D6",
":X c #EFC7D0",
">X c #ECE7CC",
",X c #F1EDCF",
"<X c #EFE8D1",
"1X c #F1EBD1",
"2X c #FBECDB",
"3X c #F8E5D8",
"4X c #F6F2D6",
"5X c #F9F5D6",
"6X c #FBF6D9",
"7X c #FEFBDB",
"8X c #FBFAD8",
"9X c #FCC6E1",
"0X c #FECAE4",
"qX c #FFCCE8",
"wX c #FFD1EB",
"eX c #FEFDE2",
"rX c #FFFFEB",
"tX c #FFF4E0",
"yX c #FFFFF4",
"uX c #FFFFFD",
"iX c #FFE7E1",
"pX c None",
/* pixels */
"pXpXpXpXpXpXpXpXpXpXpXpXpXpXpXpXpXpXpXpXpXpXpXpXpXpXpXpXpXpXpXpXpXpXpXpXpXpXpXpXpXpXpXpXpXpXpXpXpXpXpXpXpXpXpXpXpXpXpXpXpXpXpXpXpXpXpXpXpXpXpXpXpXpXpXpXpXpXpXpX",
"pXpXpXpXpXpXpXpXpXpXpXpXpXpXpXpXpXpXpXpXpXpXpXpXpXpXpXpXpXpXpXpXpXpXpXpXpXpXpXpXpXpXpXpXpXpXpXpXpXpXpXpXpXpXpXpXpXpXpXpXpXpXpXpXpXpXpXpXpXpXpXpXpXpXpXpXpXpXpXpX",
"pXpXpXpXpXpXpXpXpXpXpXpXpXpXpXpXpXpXpXpXpXpXpXpXpXpXpXpXpXpXpXpXpXpXpXpXpXpXpXpXpXpXpXpXpXpXpXpXpXpXpXpXpXpXpXpXpXpXpXpXpXpXpXpXpXpXpXpXpXpXpXpXpXpXpXpXpXpXpXpX",
"pXpXpXpXpXpXpXpXpXpXpXpXpXpXpXpXpXpXpXpXpXpXpXpXpXpXpXpXpXpXpXpXpXpXpXpXpXpXpXpXpXpXpXpXpXpXpXpXpXpXpXpXpXpXpXpXpXpXpXpXpXpXpXpXpXpXpXpXpXpXpXpXpXpXpXpXpXpXpXpX",
"pXpXpXpXpXpXpXpXpXpXpXpXpXpXpXpXpXpXpXpXpXpXpXpXpXpXpXpXpXpXpXpXpXpXpXpXpXpXpXpXpXpXpXpXpXpXpXpXpXpXpXpXpXpXpXpXpXpXpXpXpXpXpXpXpXpXpXpXpXpXpXpXrX7XpXpXpXpXpXpX",
"pXpXpXpXpXeXpXpXpXpXpXpXpXpXpXpXpXpXpXpXpXpXpXpXpXpXpXpXpXpXpXpXpXpXpXpXpXpXpXpXpXpXpXpXpXpXpXpXpXpXpXpXpXpXpXpXpXpXpXpXpXpXpXpXpXpXpXpXpXeXpXpX7X7XpXeXeXpXpXpX",
"pXpXpXpXeXrXeXpXpXpXpXpXpXpXpXpXpXpXpXpXpXpXpXpXpXpXpXpXpXpXpXpXpXpXpXpXpXpXpXpXpXpXpXpXpXpXpXpXpXpXpXpXpXpXpXpXpXpXpXpXpXpXpXpXpXpXpXpXpXeXrXpX7X7XpXrXpXpXpXpX",
"pXpXpXeXyX7XrX7XpXpXpXpXpXpXpXpXpXpXpXpXpXpXpXpXpXpXpXpXpXpXpXpXpXpXpXpXpXpXpXpXpXpXpXpXpXpXpXpXpXpXpXpXpXpXpXpXpXpXpXpXpXpXpXpXpXpXpXpXpXpXeXyX7X7XrXpXpXpXpXpX",
"pXpX7X7X7X7X7X7X7XpXpXpXpXpXpXpXpXpXpXpXpXpXpXpXpXpXpXpXpXpXpXpXpXpXpXpXpXpXpXeXpXpXpXpXpXpXpXpXpXpXpXpXpXpXpXpXpXpXpXpXpXpXpXpXpXpXpXrX7X7X7X7X8X7X7X7X7XeXpXpX",
"pXpX7X7XeX7X7X7X7XpXpXpXpXpXpXpXpXpXpXpXpXpXpXpXpXpXpXpXpXpXpXpXpXpXpXpXpXpX7XeXpXpXpXpXpXpXpXpXpXpXpXpXpXpXpXpXpXpXpXpXpXpXpXpXpXpXpXpX7X7X7XeX7X7XeX7XtX7XpXpX",
"pXpXpXeXrX8X7X7XpXpXpXpXpXpXpXpXpXpXpX1 & $ 2 3 & & & pXpXpXpXpXpXpXpXpXpXrX7X7XrXeXpXpXpXpXpXpXpXpXpXw = < < 3 @ + @ p 9 pXpXpXpXpXpXpXpXpXeXrX8X7X7XpXpXpXpXpX",
"pXpXpXpXpXuXeXpXpXpXpXpXpXpXpXpXpXpX@ :.-.i + L %X>X>Xa.pXpXpXpXpXpXpXpXpXpXeX7XpXpXpXpXpXpXpXpXpXpX  -.4.5.Q Z J._.+Xd.g m pXpXpXpXpXpXpXeXrXpXrX7XpXeXeXpXpXpX",
"pXpXpXpXpXrXpXpXpXpXpXpXpXpXpXpXpXY { :.-.S # ^ ;X6XrX!.g.pXpXpXpXpXpXpXpXpXpXpXpXpXpXpXpXpXpXpXpX^ ` -.4.5.D Q `.OXwXl.s H Z pXpXpXpXpXpXeXpXpX7X7XpXpXeXpXpXpX",
"pXpXpXpXpXpXpXpXpXpXpXpXpXpXpXpX* ..y.&._ ` 6 Q L.:X5XeX%X+ pXpXpXpXpXpXpXpXpXpXpXpXpXpXpXpXpXpX: +.e.&.(  .k Q R.|.0Xj.K :.R 3 pXpXpXpXpXpXpXpX7XpXpXpXpXpXpXpX",
"pXpXpXpXpXpXpXpXpXpXpXpXpXpXpXo 4.1.| | | | D L r N.eX7X5X4Xn.  pXpXpXpXpXpXpXpXpXpXpXpXpXpXpX< 5.:. . .| } 1.6.D x. XoXU.@ ( | o pXpXpXpXpXpXpXpXpXpXpXpXpXpXpX",
"pXpXpXpXpXpXpXpXpXpXpXpXpXpX] +.,.-.} | | o./ ^   v.3X5X7XeXQ.N.pXpXpXpXpXpXpXpXpXpXpXpXpXpX` #.1.-.[ | | | -.2.  p.}.9X:Xm.u.K H D pXpXpXpXpXpXpXpXpXpXpXpXpXpX",
"pXpXpXpXpXpXpXpXpXpXpXpXpXX =.y.[ o.*.o.o.&.[ )   p.'.3X8X8X7X7X-.* pXpXpXpXpXpXpXpXpXpXpX% -.q.} } | | | | [  .  p.{.oX9XqXm.g -.J = pXpXpXpXpXpXpXpXpXpXpXpXpX",
"pXpXpXpXpXpXpXpXpXpXpXpXpX% =.5.o.P o Q.Q.o I o.i ^ ! %X7X6X7X1XX.@ pXpXpXpXpXpXpXpXpXpXpX& =.6. .| | | | | | o.4.5.` J.OX9X*X].1.F k pXpXpXpXpXpXpXpXpXpXpXpXpX",
"pXpXpXpXpXpXpXpXpXpXpXpXpX% =.q.J i.N.,X1XN.i.K ^ y   T.2X7X7X5Xo.@ pXpXpXpXpXpXpXpXpXpXpX& =.6. .} | | | | | | 3.#.  G.OX=X0X*X2.F 6 pXpXpXpXpXpXpXpXpXpXpXpXpX",
"pXpXpXpXpXpXpXpXpXpXpXpXpX# =.y.a B.rX5X6XrXV.a ;.Y   D.-X7X7X5XX.* pXpXpXpXpXpXpXpXpXpXpX% &.q.| | | | | | | | ..'   J.XX=X0X*X4.J 3 pXpXpXpXpXpXpXpXpXpXpXpXpX",
"pXpXpXpXpXpXpXpXpXpXpXo R 5.*.O.| ,.7.1X1X7.,.} o./ u N n.8X8X8X8XP.  pXpXpXpXpXpXpXpX9 E 5.&.%.| | | | | | | | ..-.5.+.h.|.OX*XI g @.l 7 pXpXpXpXpXpXpXpXpXpXpX",
"pXpXpXpXpXpXpXpXpXpXpX[ *.,.&.} | } a V.B.a _ o. .' ^   9.wX4X8XiXT.% pXpXpXpXpXpXpXpX2 J q.-._ | | | | | | | | } -.y.X t.}.oX9XK.j.b { G pXpXpXpXpXpXpXpXpXpXpX",
"pXpXpXpXpXpXpXpXpXpXX 3.5.{ | | | | &.a a O.| | | [ +.  9.^.;X4X`.S.n pXpXpXpXpXpXpXpXk E q.-.| | | | |  .*.o.| } -.e.3 t.'.oX9XwX/.U :.( & pXpXpXpXpXpXpXpXpXpX",
"pXpXpXpXpXpXpXpXpXpX# 3.4.} | | | | } &.&.| | | | | ..T y +.$.$.] u + 2 < < * = = = % -.4.| | } | | | o.( p J o.} |  .4.4.; S. X9X*X*Xs.g 5 pXpXpXpXpXpXpXpXpXpX",
"pXpXpXpXpXpXpXpXpXpX* 1.4.} | | | | | | | | | | | | | / Z 5 1 = 2 5 w B Z Z M V M V m *.:.| |  .| | @.F 9.P.i.x O.| } :.-.  S. X=X9XqXs.s 4 pXpXpXpXpXpXpXpXpXpX",
"pXpXpXpXpXpXpXpXpXpX< 1.4.} | | | | | | | | | | | | | ( ) ) ] [ ) ) ) ) ) / ) ) ) ) ) ( } } | | | | &.d v.rXV.a &. .} } ..  A.}.=X=X0Xl.z 5 pXpXpXpXpXpXpXpXpXpX",
"pXpXpXpXpXpXpXpX2 [ 5.&.| | | | | | | | | | | | | | | | } | [ | | | | | | | | { } | | |  .} | | | O.j Q.7X5X7X1X3.I O.| &.5.#.:.).OXqXd.@ o.B 4 pXpXpXpXpXpXpXpX",
"pXpXpXpXpXpXpXpX+ ` e.&.} | | | | | | | | | | | | | | | | | | | | | | | | | |  .| | | | }  .| | | o.J V.#XeX%XP.>.} o.} &.e.G m )..X0XI.z.o.C + pXpXpXpXpXpXpXpX",
"pXpXpXpXpXpXpXpXo ) 6.*.| | | | | | } } | } | | | | | | | | | | | | } o.| | | | | | | | | } } | } | *.@ i.6Xv.  O.| | } &.w.E Q ).XX9XqX].b E < pXpXpXpXpXpXpXpX",
"pXpXpXpXpXpXpXpX# ` e.&.} | | | | I z } _ z I o.| | | | | } } o.| | o.} | | | | | | | | _ z ( | l K | o.&.-.*.%.| | | | | &.m Q ).oX=X0X(.K R : pXpXpXpXpXpXpXpX",
"pXpXpXpXpXpXpXpX% E 1. .| | | |  .} P P P P _ | | | | | | o.I H | } H [ | | | | | | | | } P P P P (  .| | { | | | | | | | O.k Y ). X9X0X(.f ( R w pXpXpXpXpXpXpX",
"pXpXpXpXpXpXpXpX* V | | | | | | | | | C C o.| | | | | | | | K v | I z ( | | | | | | | | | o.H v | | | | | o.| | | | | | | O.k Q ).oX9X0X].*.1.#.M y pXpXpXpXpXpX",
"pXpXpXpXpXpXpXpXo B  .| | | | | | | | | | | | | | | | | | | } } v C | | | | | | | | | | | } | } | | | | | | | | | | o.| | &.z E ). X9X9X=X9Xv.. #.W 1 pXpXpXpXpX",
"pXpXpXpXpXpXpXpX+ V | | | | | | } | | | | | | | | | | | | | | | P ( | | | | | | | | | | | | | | | | } | | | | | | _ K } } I s E ).oX9X9X9XqX(.m.:.K 2 pXpXpXpXpX",
"pXpXpXpXpXpXpXpXe G | | | | }  . .| | | | } | | | | | | | | | |  .| | | | | | | | | | | | | | | | |  . .|  .| | | ( z _ ( c % ' ). X9X9X9X=XqX9X4.c 4 pXpXpXpXpX",
"pXpXpXpXpXpXpX, 5.:.} | | | | | 6.6.6.q.4.{ }  .| | | | | | | | | | | | | | | | | | | | | | | | ( -.q.6.w.q.-.( | | | V V O.1 T `.@X9X9X9X9X0X-X4.C < pXpXpXpXpX",
"pXpXpXpXpXt $.=.-.&.| | | [ -.:.L D H D ' 4.&.{ | | | | | | | | | | | | | | | | | | | |  .} |  .4.&.G D D D &.3.| | | ( ( | %.<.p.S.OX=X0X9X0X*X-.x ' D pXpXpXpX",
"pXpXpXpXpX% :.q.| | | |  . .3.6.$.@.=.#.=.q.*. .| | | | | | | | | | | | | | | | | | | | | } | %.5.1.+.+.+.@.1.w.o.| |  .o.} 4.q.  d.}.OX0X=X0X*Xd.,.o.N 8 pXpXpX",
"pXpXpXpXpX* -.q. .| | [ &.y.p X ~.'.^.{.S.  &.e.} | | | | | | | | | | | | | | | | | | | | | 4.q.  d.|.`.`.[.d.  e.4.( } | _ ,.w.  k.XX=X=X=X9X=XqXI.f H 8 pXpXpX",
"pXpXpXpXpX+ ' -.| | | _ @.M n.!.;X3X;X;X$XS.u.J ,.*.| | | | | | | | | | | | | | | | | | } ' ' =.c.G.}.{.'.}.J.c.&.@.3.&.| | &.:. .e.l._.*X0X9X9XqXU.f G k pXpXpX",
"pXpXpXpXpX, J | | | | ) )   !.rX7X7X7X7X2XXXl.  e.3.} | | | | | | | | | | | | | | | | } _ ) % H [.XX`. X}.'. X`.M G y.&.| | | } w.=.  D.XX9X9X=XqXU.f G w pXpXpX",
"pXpXpX> M %.| |  .| | ) )   E.eX8X8X8X7X3X{.s.  6.1.| | | | | o.| | | | | | | | | | }  .| ` h ` .X0X=X=X*X`.}._.S ~ 6.&.| | | | } '   H.OX9X9X9XqXU.f R w pXpXpX",
"pXpXpX5 k H _  .K ( | ' ]   E.eX8X7X7X7X3X}.k.  w.3.| / P o.I P | | | | | | | | | |  .| [ ` 1 ^ -X9X9X0XOX`.}.).A H e.&.| | | | | @.@.p.S.oXOX9XqXU.f G e pXpXpX",
"pXpXpX> 9 V ( _ c P | ( )   E.eX5X7X8X7X3X}.k.  e.:.} C C [ K c } | | | | | | } | | { | ( ) 2 ^ .X0X=X=X=X`.}.).G E y.&.[ | | | { -.u.  0.{.oX9X0XU.f G 8 pXpXpX",
"pXpXpXO k o.C l | | | ' )   E.7X8X7X8X7X2X}.k.  6.3.|  .( ; (  .| | | } |  .C z | ( ; ( | ) - ` -X9X=X9XOX`.}.).R P q.&.} | | | } *.y.z r. XoX9X0XU.f G w pXpXpX",
"pXpXpX> m  .( ( | | | ) )   W.rX8X8X7X7X3X Xk.  e.3._  .| ( _ | | | | | | | } ( K K ( | [ ` * ^ |.=X9X0X=X`. X`.Z D y.&.| | | | | o.:.+ t.{.oX9XqXU.f A 7 pXpXpX",
"pXpXpX5 m  .| | | | | ) )   Z.1X5X7X7X7X<XR.p.@ 5.:._ | |  .| | | | | | | | | | V P o.| [ ' 9 L G.].*X9XOX'.).G.^ / 6.&.| } | | _ }  .o r.}.oX9XqXU.f S 4 pXpXpX",
"pXpXpXO k O.| } | | | o._ u @ D 5XeX7XrX%X  -.q. .} } | | | | | | | | | | | | | | | } | | o.L S   j.XX}.}.OXk.  e.1.} | _ ; ( | l K &.+ r.}.oX9XqXU.f G q pXpXpX",
"pXpXpX2 l [ | | | | | | } _ B S b.n.n.N.g.@ | :.| } o.| | | | | | | | | | | | | | | | | | | _ ) $ <.k.k.h.j.1.C :.&.| | } ( H K ( { &.+ r.`.oX9XqXU.f R e pXpXpX",
"pXpXpX9 k ~ ' | | | | | | o.) S     X   h a.,.I &.o.| | | | | | | | | | | | | | | | | | | | | } ~ 9         C &.{ } | | |  .H c }  .&.@ r.}.oX9XqXI.f G q pXpXpX",
"pXpXpX5 6 y L ) } |  .| | | | } X.Y h = g.eXB.a j x o.} | | | | | | | | | | | | | | | | | | | | o.[ ) ` ` ' _ |  .| | | | | | | } } &.  e.{.OX0XqXY.g G w pXpXpX",
"pXpXpX4 2 u u S | _ V } } C ( O.d v.<X7.i.rXn.& &XZ.a &.| | | | | | | | | o.| | | | | | | | | | | | ..| | [ | | | | | | | | | |  .{ & c.L.OX9X*Xm.u.| l 7 pXpXpX",
"pXpXpXpX4 y y u [ ( v _ ( v ( *.x n.4Xn.B.eXP.i.,XP.j *.} | | | | } _ } } _ } | | | | | | | | | | | | | | | | | | | | | | | | | | { X J.@X=X9X-X| f  .8 pXpXpXpX",
"pXpXpXpXpX+ q u / _ o.c c o.| } a p   %X7X7X7X5Xp @ a J  .| | |  .I ; } } ; I o.| | | | | | | | | | | | | | | | | | | | | | | } &.W   G.OX=X0X=X5.F 6 pXpXpXpXpX",
"pXpXpXpXpX* w u S D ( ( _ o.{ -.Q.%XQ.4X7X7X7X5X%XQ.>Xi.x o.| | | } ( H H ( | | | | | | | | | | | | | | | | | | | | | | | | o. .  t.F.). X0XK.p.:.H 1 pXpXpXpXpX",
"pXpXpXpXpXe w t t S ~ _ | | { ,.%X,X,X5X7X7X7X7X1X,X,Xg.x o.| | | | o.K H  .} | } | | | | | | | | | | | | | | | | | | | |  .( [ ;.c.XX|.|.9XM.@ | E e pXpXpXpXpX",
"pXpXpXpXpXpX4 $ u u y ~ / } o.} N a   %XrX5X7X7Xp @ N ( | | | | | | | | | | | | | | | | | | |  .| | | | | | | | | | | | | O.V ` ).}.'.OX9X Xx.v 7 4 pXpXpXpXpXpX",
"pXpXpXpXpXpXpXpX4 7 S u ~ o.| O.x n.>XC.Z.eXE.b.>XZ.x _ K  .| | | | | | | | | | | | | | }  .J C | { C { | | | | | | | | } &.@ @ &X;X^. X_.f.w.' m q pXpXpXpXpXpX",
"pXpXpXpXpXpXpXpXo 4 i t L [ [ o.d b.1X7.i.rXn.% %XZ.p / K  .| | | | | | | | | | | | | } |  .J C ( P F } | | | | | | | | | J y.b.8X2X:X XF.- P W 3 pXpXpXpXpXpXpX",
"pXpXpXpXpXpXpXpXpXpX+ 7 S / ~ / | J a a g.rXB.a j a l ( o.| | | | | | | | | | | | | |  .| | | | l K o.| | | | | | | | &.o.  W.rX8X8X8X=XL.U H : pXpXpXpXpXpXpXpX",
"pXpXpXpXpXpXpXpXpXpX1 t u S S S ) [ &.{ ,.v.8.( %.o.( } | | | | | } | o.| | | | } | | | | | | | ( } | | } | | | | _ [ . 1.H.].-X7X3X-Xm.w.&.G < pXpXpXpXpXpXpXpX",
"pXpXpXpXpXpXpXpXpXpX5 w t 0 t u Y ) | [ { d J | } o.| | | | | | | [ ( | } ( } |  .} | | | | | |  .| _ | [ [ | [ | ' / 2.x. X{.'.2X$XG.w.g ..Z > pXpXpXpXpXpXpXpX",
"pXpXpXpXpXpXpXpXpXpXpX5 < + q u t S ) ~ ' &. .| | | | | | | | | o.I ; _ _ ; ( | }  .| | | | } | } [ ) ~ ) / ) ` [ D   G. X'.`.'. XS.% &.{ & pXpXpXpXpXpXpXpXpXpX",
"pXpXpXpXpXpXpXpXpXpXpXpXpXpXy 6 y S S u L _ ) _ | | | | | | | | | } _ K K _ | | | | | | | |  .} [ / S S S ~ # +   t.J.'. X}.}.`.z.e.o.E m pXpXpXpXpXpXpXpXpXpXpX",
"pXpXpXpXpXpXpXpXpXpXpXpXpXpXpXe i i w t u ~ ~ ~ [ [ _ [ [ _ | [ [ [ | C C [ _ [ [ _ | [ _ | ' _ ~ S y t y 7 <.r.1.c.XXL.H.H.H.G.} v | B pXpXpXpXpXpXpXpXpXpXpXpX",
"pXpXpXpXpXpXpXpXpXpXpXpXpXpXpXpX4 # - t u y y y / / / / / / / / / / / / / / / / / / / / / / S t y y Z + o   S. X}.`.[.d.g I U I O.( % pXpXpXpXpXpXpXpXpXpXpXpXpX",
"pXpXpXpXpXpXpXpXpXpXpXpXpXpXpXpXpXpXpX4 3 3 y u S S u S S S u S u S S S u S u S S S u S S S S u , 8 X S.).L.`. XXXJ.w.2.( 7 m m x D pXpXpXpXpXpXpXpXpXpXpXpXpXpX",
"pXpXpXpXpXpXpXpXpXpXpXpXpXpXpXpXpXpXpXpX$ : w w 7 7 i m 8 w 0 7 i q w q i w i 7 w 7 t 7 7 S t w @ 9 + m.J.G.F.S.F.z.% ' E O : < % pXpXpXpXpXpXpXpXpXpXpXpXpXpXpX",
"pXpXpXpXpXpXpXpXpXpXpXpXpXpXpXpXpXpXpXpXpXpX5 1 + # < = = < # + + # < $ $ < # + + @ = 4 0   < w = 1 3             X e < : pXpXpXpXpXpXpXpXpXpXpXpXpXpXpXpXpXpXpX",
"pXpXpXeXrXpXpXpXpXpXpXpXpXpXpXpXpXpXpXpXpXpXpXpXpXpXpXpXpXpXpXpXpXpXpXpXpXpXpXpXpXpXpXpXpXpXpXpXpXpXpXpXpXpXpXpXpXpXpXpXpXpXpXpXpXpXpXpXpXpXpXpXpXpXeXpXpXpXpXpX",
"pXpXpX8X7XpXpXpXpXpXpXpXpXpXpXpXpXpXpXpXpXpXpXpXpXpXpXpXpXpXpXpXpXpXpXpXpXpXpXpXpXpXpXpXpX7XpXpXpXpXpXpXpXpXpXpXpXpXpXpXpXpXpXpXpXpXpXpXpXpXpXpXpXeXyXeXpXpXpXpX",
"pXpXrX7X7XyXpXpXpXpXpXpXpXpXpXpXpXpXpXpXpXpXpXpXpXpXpXpXpXpXpXpXpXpXpXpXpXpXpXpXpXpXpX7XyX7XrX7XpXpXpXpXpXpXpXpXpXpXpXpXpXpXpXpXpXpXpXpXpXpXpXpXeXrX7XuXeXpXpXpX",
"pXpXpX7X7XpXpXpXpXpXpXpXpXpXpXpXpXpXpXpXpXpXpXpXpXpXpXpXpXpXpXpXpXpXpXpXpXpXpXpXpXpXeX7X7X7X7X6XeXrXpXpXpXpXpXpXpXpXpXpXpXpXpXpXpXpXpXpXpXpXpXpXpXeXuXeXpXpXpXpX",
"pXpXpXpXpXpXpXpXpXpXpXpXpXpXpXpXpXpXpXpXpXpXpXpXpXpXpXpXpXpXpXpXpXpXpXpXpXpXpXpXpXpX7X7X7X7X7X7X7XpXpXpXpXpXpXpXpXpXpXpXpXpXpXpXpXpXpXpXpXpXpXpXpXpXeXpXpXpXpXpX",
"pXpXpXpXpXpXpXpXpXpXpXpXpXpXpXpXpXpXpXpXpXpXpXpXpXpXpXpXpXpXpXpXpXpXpXpXpXpXpXpXpXpXpX7XeX7X7XeXpXpXpXpXpXpXpXpXpXpXpXpXpXpXpXpXpXpXpXpXpXpXpXpXpXpXpXpXpXpXpXpX",
"pXpXpXpXpXpXpXpXpXpXpXpXpXpXpXpXpXpXpXpXpXpXpXpXpXpXpXpXpXpXpXpXpXpXpXpXpXpXpXpXpXpXpXpXpXuXpXpXpXpXpXpXpXpXpXpXpXpXpXpXpXpXpXpXpXpXpXpXpXpXpXpXpXpXpXpXpXpXpXpX",
"pXpXpXpXpXpXpXpXpXpXpXpXpXpXpXpXpXpXpXpXpXpXpXpXpXpXpXpXpXpXpXpXpXpXpXpXpXpXpXpXpXpXpXpXpXeXpXpXpXpXpXpXpXpXpXpXpXpXpXpXpXpXpXpXpXpXpXpXpXpXpXpXpXpXpXpXpXpXpXpX",
"pXpXpXpXpXpXpXpXpXpXpXpXpXpXpXpXpXpXpXpXpXpXpXpXpXpXpXpXpXpXpXpXpXpXpXpXpXpXpXpXpXpXpXpXpXpXpXpXpXpXpXpXpXpXpXpXpXpXpXpXpXpXpXpXpXpXpXpXpXpXpXpXpXpXpXpXpXpXpXpX",
"pXpXpXpXpXpXpXpXpXpXpXpXpXpXpXpXpXpXpXpXpXpXpXpXpXpXpXpXpXpXpXpXpXpXpXpXpXpXpXpXpXpXpXpXpXpXpXpXpXpXpXpXpXpXpXpXpXpXpXpXpXpXpXpXpXpXpXpXpXpXpXpXpXpXpXpXpXpXpXpX",
"pXpXpXpXpXpXpXpXpXpXpXpXpXpXpXpXpXpXpXpXpXpXpXpXpXpXpXpXpXpXpXpXpXpXpXpXpXpXpXpXpXpXpXpXpXpXpXpXpXpXpXpXpXpXpXpXpXpXpXpXpXpXpXpXpXpXpXpXpXpXpXpXpXpXpXpXpXpXpXpX"
};
