/* XPM */
static char *_624_9879577bd7905b11656096d1ef0165d3862457207ba7491e8864b6e167f0027f[] = {
/* columns rows colors chars-per-pixel */
"80 80 44 1 ",
"  c black",
". c #060209",
"X c #0A040D",
"o c #090809",
"O c #0E0512",
"+ c #120717",
"@ c #110A15",
"# c #130718",
"$ c #140819",
"% c #18091F",
"& c #190622",
"* c #160821",
"= c #1B0A24",
"- c #1F0B28",
"; c #220D2C",
": c #23102F",
"> c #260E32",
", c #290F35",
"< c #261133",
"1 c #2A1036",
"2 c #2D133C",
"3 c #2F183F",
"4 c #31123F",
"5 c #30183E",
"6 c #2F1741",
"7 c #2F1941",
"8 c #331442",
"9 c #321943",
"0 c #371748",
"q c #39174A",
"w c #361A49",
"e c #391B4C",
"r c #3D1E52",
"t c #3E2055",
"y c #411F56",
"u c #402056",
"i c #45245E",
"p c #462560",
"a c #492664",
"s c #4B2865",
"d c #4D2869",
"f c #502A6D",
"g c #532B71",
"h c None",
/* pixels */
"hhhhhhhhhhhhhhhhhhhhhhhhhhhhhhhhhhhhhhhhhhhhhhhhhhhhhhhhhhhhhhhhhhhhhhhhhhhhhhhh",
"hhhhhhhhhhhhhhhhhhhhhhhhhhhhhhhhhhhhhhhhhiiihhhhhhhhhhhhhhhhhhhhhhhhhhhhhhhhhhhh",
"hhhhhhhhhhhhhhhhhhhhhhhhhhhhhhhiiiisasaahapiiiihiaiphhhhhhhhhhhhhhhhhhhhhhhhhhhh",
"hhhhhhhhhhhhhhhhhhhhhhhhhhhiiiiaaapiiiit8;9aidaiiiiaiihhhhhhhhhhhhhhhhhhhhhhhhhh",
"hhhhhhhhhhhhhhhhhhhhhhhiiiidasairrw2222euuidaiiadiiiidiihhhhhhhhhhhhhhhhhhhhhhhh",
"hhhhhhhhhhhhhhhhhhhhiiifddapreee29tttttipppiiiiiiiaiiipdiihhhhhhhhhhhhhhhhhhhhhh",
"hhhhhhhhhhhhhhhhhhhiiiihihrr9929uipipppiiiiiiiiiiiiiiiiipaihhhiihhhhhhhhhhhhhhhh",
"hhhhhhhhhhhhhhhhhhhhhhhit2999iiiiiiiiiiewwwwwwwwwwwwriiiiiaihhiaihhhhhhhhhhhhhhh",
"hhhhhhhhhhhhhhhhhhhiiiueww9tiiiiiiir9w9999999999999999riiiiaihhidihhhhhhhhhhhhhh",
"hhhhhhhhhhhhhhhhhiipiw999riiiiiiit9999999999999999w99999tiiiipihiaihhhhhhhhhhhhh",
"hhhhhhhhhhhhhhhidpiu99wriiiiiit9999999wweiiiiiiiiipiww9299tiiaihidihhhhhhhhhhhhh",
"hhhhhhhhhhhhhigipi92eriiiiiit99929eeeippiuuuuuuuuuuippie9299tiaiiaaihhhhhhhhhhhh",
"hhhhhhhhhhhhiiihh99eiiiiipi99999etppairrr84888888848rrriir9299iapiiahhhhhhhhhhhh",
"hhhhhhhhhhhhihht99eiiiiiir9999rtppier844888888888888484wrrtt929ipiiiihhhhhhhhhhh",
"hhhhhhhhhhhhhhir9riiiiii9399rtipiew44888888888888888888844erut99upiiaihhhhhhhhhh",
"hhhhhhhhhhhhpiw2riiiiii9999ripiew488888888888888888888888848ert99uiiiihhhhhhhhhh",
"hhhhhhhhhhhppw2riiiiii9999riie88888888888888888888888888888848w899uiiiihhhhhhhhh",
"hhhhhhhhhhii92riiiiii9999rpie88888888888888888888888888888888888899uipihhhhhhhhh",
"hhhhhhhhhii99riiiiii9999rpie8888888888888888888888888888888888888899uipihhhhhhhh",
"hhhhhhhhia99riiiiii9999rpie888888888888888888888888888888888888888899iaihhhhhhhh",
"hhhhhhhhii9wiiiiii9999rpie8888888888888888884,,,,,,,,2888888888888889tiaihhiihhh",
"hhhhhhhii99riiiipe999rpie88888888888888888>>&        #>,88888888888889ipiihifihh",
"hhhhhhid999iiiiiu999rpie8888888888888888>=              -;;88888888888ridihidhhh",
"hhhhhiit99tiiiipe999iiw888888888888888;&                   &;8888888888iiihidihh",
"hhhhhidw99iiiiit999tii48888888888888>#      OOOOOOOOOX       #;88888888ridiiaahh",
"hhhhiir99uiiiiie999ii88888888888888>      O+$#######$+OO+      #,8888889iaiiaihh",
"hhhhide99iiiipt999uii8888888888888>     ++#+++++++++++###++     .,888888epiiiiih",
"hhhiape9iiiiiir999ii8888888888888>     +#++++++++++++++++++++     ,88884epiiiiih",
"hhhiii8eiiiiit999iiu888888888888>     +#+++++++++++######++++#O    ,8888wiiiiiih",
"hhpfa2eiiiiipu999ii888888888888;     +#++++++++++$+OOOOOO+$#++#O    >8884eiiiiih",
"hhhdi89uiiiiie992up888888888884     +#+++++++++##OX      XOO##+#O   O8884epiiiih",
"hhipeweiiiiiu399eir88888888888;    +#+++++++++#OX           XO#+$X  X;8888iiiiih",
"hhhpr9upiiiii999up888888888888    X$+++++++++#O               X#++   +8884epiiih",
"hhhap2tiiiiii999tpw8888888888=    ++++++++++#O      OOOOOO     X+$X  +;884rpiiih",
"hhhu99tiiiii999riiw8888888888X   +#++++++++#O    O++$$$++++O    X#+   $884riiiih",
"hhai2riiiiii999tpe88888888884O   $+++++++++O    O#$#+@o    +O   X+#.  +-888riiih",
"hhpu2tpiiiii999rpe8888888888#   X#+++++++#O    O#++O         O   X$   O=884riiih",
"hhi99tpiiiii999rpe8888888888#   #+++++++++X   O##O               X$X  X=884riiih",
"hhi93rpiiiii999rpe8888888888#   ++++++++#O   O$#O                .+$   %284riiih",
"hai9wiiiiiii999rpe888888888,X  X++++++++#+   X$O                  O$   X=84riiah",
"hai2tpiiiiii999rpe888888888#   #+++++++++.   O$                   O$   O-84riiih",
"hap:upiiiiii999rpe888888888&   ++++++++#+   X$X                   O$   O-84riphh",
"haa<upiiiiii999rpe888888888&   ++++++++++   X$.                   O$   O=8,epphh",
"haa<upiiiiii999rpe888888888&   ++++++++++   XO                     O   O=8>wpihh",
"hiw8riiiiiii999rpe488888888&   ++++++++++   XX                     O   O=8,waihh",
"hph9rpiiiiii999tpe888888888&   ++++++++++   XX                     O.  O=8,waihh",
"hp99eiiiiiiiw99eiiw88888888&   ++++++++++   XX                     X  XX=81rdihh",
"hh998rpiiiipi995tpw88888888&   ++++++++++   XX                        +#2;2aihhh",
"hh999tpiiiiiu999tp888888888#   ++++++++#+   X+                        O=q>2dihih",
"hh799rpiiiiii999tpr88888888,X  #+++++++++X   +X                      OO=8 2diiih",
"hhit2tpiiiiii999tpi888888888#  X++++++++#+   X+                      +O-,=idiiah",
"hhsi2tpiiiiiu9999ii888888888#   ++++++++++X   +.                    O+$4>2dihiah",
"hhhw9rpiiiiiir999upi888888882X  X#+++++++#O    O                   O$+=8 2diiaih",
"hhhaueaiiiiipt599ipi888888888#   ++++++++++O                      O$++8>=iiiiaih",
"hhhpi9tpiiiiiu999tiii888888884   X$++++++++#O                    O#++-2 2diiaihh",
"hhhidi6paiiiipt999ipie88888888&   ++++++++++#O                  O$++$, *piiisihh",
"hhhhidpisiiiipr299riii488888884    +#+++++++++$X.           ..X$+++#O .8iiiiihhh",
"hhhhidiiiiiiiiiw999iiie88888888=    +#+++++++++##XX.     .XX+$#+++#O  Opiiidphhh",
"hhhhifihiaiiiipr299eiiie48888888=    +#++++++++++#$+XXXXX+$#+++++#O   wiiipihhhh",
"hhhhhiihiipiiiiiw999iiiie48888888-    ++++++++++++++$$$$$+++++++#O   wpiiidihhhh",
"hhhhhiihhipiiiipe999eiiiie88888888-    ++++++++++++++++++++++++#O   wpiiiaihhhhh",
"hhhhhhhhhhiiiiiiiw999iiiiie88888888-     +++++++++++++++++++++O .  wpiiiaihhhhhh",
"hhhhhhhhhhiiiiiipe999eiiiiie88888888-     .+++##########++++  .   wpiiiaihhhhhhh",
"hhhhhhhhhhhaiiiiiiw999iiiiiie48888888-       X+OOOOOOOO+.      O=wpiiiaihhhhhhhh",
"hhhhhhhhhhhiiiiiiir999wiiiiiiew8888888;#                      ;9aiiiiaiiaihhhhhh",
"hhhhhhhhhhhhaiiiiiir999wiiiiipiee4888888--#                 <9aiiiiadiiaihhhhhhh",
"hhhhhhhhhhhhiaiiiiiir999wiiiiiipire44888884;>#          #;29ppiiiadiiiaihhhhhhhh",
"hhhhhhhhhhhhhiaiiiiiir9999iiiiiiipirr848888882>>>>>>;>;2ryiaiiiiaiiiiaihhhhhhhhh",
"hhhhhhhhhhhhhwruipiiiir9999ipiiiiiippirur88888888880iiuipiiiiiiipiiifihhhhhhhhhh",
"hhhhhhhhhhhhhh3wipiaiiir999wwiiiiiiiiippiiiiiiiiiiiiiiiiiiiiiiiiiadihhhhhhhhhhhh",
"hhhhhhhhhhhhhhh9eehiaiiir99999wiiiiiiiiiiiiiiiiiiiiiiiiiiiiiipaiiihhhhhhhhhhhhhh",
"hhhhhhhhhhhhhhhhiphiiapiiir999999eiiiiiiiiiiiiiiiiiiiiiiiipapiiihhhhhhhhhhhhhhhh",
"hhhhhhhhhhhhhhhhhihhhiiapiiaew999999riiipiiiiiiiiiiiiiipaaiiihhhhhhhhhhhhhhhhhhh",
"hhhhhhhhhhhhhhhhhhhhhhhiidpiideew999999tiuipipiiiiiiipdiiihhhhhhhhhhhhhhhhhhhhhh",
"hhhhhhhhhhhhhhhhhhhhhhhhiiiiiiadiew2999299wtttipipppapphhhhhhhhhhhhhhhhhhhhhhhhh",
"hhhhhhhhhhhhhhhhhhhhhhhhhhiiiiiiidprrrrr999222etrrrrte19999hhhhhhhhhhhhhhhhhhhhh",
"hhhhhhhhhhhhhhhhhhhhhhhhhhhhiiihhippdaaitttttw2222299wer999hhhhhhhhhhhhhhhhhhhhh",
"hhhhhhhhhhhhhhhhhhhhhhhhhhhhhhihhhhhiiiiaaaaaiiiiiu99999hhhhhhhhhhhhhhhhhhhhhhhh",
"hhhhhhhhhhhhhhhhhhhhhhhhhhhhhhhhhhhhhhhhhhhhhhhhhhhhhhhhhhhhhhhhhhhhhhhhhhhhhhhh",
"hhhhhhhhhhhhhhhhhhhhhhhhhhhhhhhhhhhhhhhhhhhhhhhhhhhhhhhhhhhhhhhhhhhhhhhhhhhhhhhh"
};
