/* XPM */
static char *_888_bbcacaa6dd7f1325421db8cef92a9cb8e30279be67db9f509c8efd9f76d6a1a2[] = {
/* columns rows colors chars-per-pixel */
"80 80 38 1 ",
"  c black",
". c #060209",
"X c #0A040D",
"o c #090809",
"O c #0E0512",
"+ c #120717",
"@ c #110A15",
"# c #130718",
"$ c #140819",
"% c #18091F",
"& c #190622",
"* c #1B0A24",
"= c #1F0B28",
"- c #220D2C",
"; c #260E32",
": c #290F35",
"> c #261133",
", c #2A1036",
"< c #2D133C",
"1 c #2F183F",
"2 c #31123F",
"3 c #331442",
"4 c #321943",
"5 c #371748",
"6 c #361A49",
"7 c #391B4C",
"8 c #3D1E52",
"9 c #3E2055",
"0 c #411F56",
"q c #431F59",
"w c #402056",
"e c #45245E",
"r c #462560",
"t c #492664",
"y c #4B2865",
"u c #4D2869",
"i c #502A6D",
"p c None",
/* pixels */
"pppppppppppppppppppppppppppppppppppppppppppppppppppppppppppppppppppppppppppppppp",
"pppppppppppppppppppppppppppppppppppppppppppppppppppppppppppppppppppppppppppppppp",
"pppppppppppppppppppppppppppppepetrrrrrrtereepppppppppppppppppppppppppppppppppppp",
"ppppppppppppppppppppppppppeeeiuuteeeeeeeettueeeepppppppepppppppppppppppppppppppp",
"pppppppppppppppppppppppeppeeeeeeereeeerreerrtyturrtppppeeepppppppppppppppppppppp",
"pppppppppppppppppppppppepppppeeeereer877777777779e8444ppeeeppppppppppppppppppppp",
"ppppppppppppppppppppppppeeeeetuytew773233332223322446444ppeepppppppppppppppppppp",
"ppppppppppppppppppppeeeeetttteee5732333333333333333334644ppeeppppppppppppppppppp",
"ppppppppppppppppppeeeettreeeee63333333333337eeeeeeee0344644944pppppppppppppppppp",
"pppppppppppppppeeeeepeeeeree63333333333eeeeeeeeeeeeeeeeeeere664ppppppppppppppppp",
"pppppppppppppeeeeppeeeeeee7333323738eeeeerrreeeeeeeeeeeeeeeree77pppppppppppppppp",
"ppppppppppppppppppeteeee723332378reeeerrewwwwwwwwwwerereeeeeeeeuepppeppppppppppp",
"pppppppppppppppppeteeee72333278eeeerrw88833333333323888erreeeeerepppeppppppppppp",
"pppppppppppppppeeteeee7233278ereere78322333333333333232788ereeeetepppepppppppppp",
"ppppppppppppppeueeeee733327ereere762233333333333333333332278eeeeeteppeeppppppppp",
"ppppppppppppeeteeeee733337eeeee7623333333333333333333333333378eeeeyepeeppppppppp",
"pppppppppppetreeeee733337eeee73333333333333333333333333333333338eeeeppeepppppppp",
"ppppppppppeteeeeee733337eeee7333333333333333333333333333333333338eeteppepppppppp",
"pppppppppeteeeeee733337eeee733333333333322,+$$$$$$$+=2<<3333333338eerppreppppppp",
"ppppppppeteeeeee733337eeee733333333333<<$++++#+++++++$$O;<<33333338erepreppppppp",
"pppppppeuereeer823337eeee73333333333<<$O##+XXX+#++#+OOXOXX+;:<333338reeeeppppppp",
"ppppppeeeeeeeee73327eeee7333333333<:*X##OX$;;;*+#+++..X   X  X;<33338etetepppppp",
"pppppeeppereer82338eeee73333333332*X+$OO;,::;,*O#+++$$$OXX     X<33338eetepppppp",
"ppppeeppeeeeee5333eeee73333333332*O$+O;<3;=XXX+#++++++++$$OX    .<33337etepppppp",
"pppppppeteeer82338eeee2333333332*O$X;<3;*XO####+++++++++++##OX   .<3333eeeepeppp",
"pppppppeteeee8333eeee3333333332*O#O-3;*OO##+++++++++++++++++##O   .<3337eyepeepp",
"pppeepeeeeeee3338eeee333333332*+#O;3-XO##+++++++++#######+++++#O    <333etepeepp",
"pppppeteeeee83328ree333333332*+#O;3-O##++++++++##+++++++++##+++#O    <337tepeupp",
"ppppeeereeee3333eeee3333333<*++O;3-O#+++++++++$+O        XOO##++#O   .336eyeeupp",
"ppppepeteeee3328ree33333333=O##;3-O#++++++++#+O             OO#++#O   :327ueeupp",
"ppppppereeee3328ree3333333<*++$3<X#++++++++#+     XXXXXX      O#++$   X337ueeuep",
"pppppeueeeee336eee83333333-X##:2-+++++++++#+    XO#$$$#$OXX    O#++O  .;33reetrp",
"ppppeeeeeee7328ree3333333<$++#3<X#+++++++#+    X#$++++++#$#OX   O#+$   O32qyeyep",
"ppppeueeeee3338eee6333333-X#+<3*++++++++++    X#+++++++++++##O  X$++   #328rerep",
"pppeeeeeeee3328ree633333,##+$32O+++++++++    X#++++++++++++++#X  O#++   =38treep",
"pppeyeeeeee3338ee7333333:X#O<3*+++++++++O   X#++++#++@o    O+$O   O$+   #338reep",
"pppeteeeeee327eee7333333;O#$23#+#+++++++   .#++++++O         O+O  X++   &328eerp",
"ppeteeeeee3337ree733333,O#O<33$+#++++++O   X#+++#O             X   O#   &328eeep",
"ppeteeeeee3337ree733333,O#O<3,#++++++++    $+++#O                  O#   &328erpp",
"ppeteeeeee3337ree733333,O#O<3$+#++++++#   O++++O                   O#   &328erpp",
"pppteeeeee3337ree733333,O#O<3*+#++++++X   $+++$                    O#   &328eepp",
"ppeeeeeeee3337ree733333,O#O<3%+#++++++    +++#O                    O#   &328rtpp",
"ppteeeeeee3337ree733333,O#O<3%+#++++++    +++$.                    O#   &328tepp",
"ppeeeeeeee3337ree733333,O#O<3%+#++++++    ++#X                     O#   &328tppp",
"ppreeeeeee3337ree723333,O#O<3%+#++++++    ++$X                     O$   &328yepp",
"ppreeeeeee3337ree733333,O#O<3*+#++++++    ++$X                     O+   =338eppp",
"pprerreeee3337reee63333,O#O<3$+#++++++    ++$X                     O    *38teppp",
"ppereereee3337reee63333,O#O<3-++++++++    $+$X                     O.  .,38ueppp",
"pptteeteee3337reee33333,O#+-33$+#+++++X   O++O                    .X   &328rpppp",
"ppeueeueee8327eeee83333,X##X<3$+#+++++#    #+$.                   O.   *36repppp",
"pppuepeteee327reeee33333-O#+<3#+#++++++O  .$++O                  XX   X*37uepppp",
"ppeuepeteee3338eeee33333,X#+<3<+++++++++   X#+$.                      $<28rppppp",
"pppyepeteee3328reeee3333;X#+*33$++++++++O   X#++                     O*35teppppp",
"pppeepereeee337eeeee3333,+#++23<O#+++++++    X#++                   O$238rpppppp",
"pppeeppeteee2338reeee3333-X##<32%+++++++++    X#$+                 O#*26tepppppp",
"pppeeppeteee6328reeee7333,$++$33<X#++++++#+    XO+$+         O    O$+237rppppppp",
"pppppppeteere337eeeeee2333-O##,32*O#++++++#+     XO#$+XXX        O$O=20rpppppppp",
"pppppppeteeew2328reeee7333-X$O$332*O#++++++#+      XXXOOO      XO$O-38eeppeppppp",
"pppppppeereee7337eeeeee723<*++$:332*O#++++++#OX              XO$$O-33teppeeppppp",
"ppppppppeteerw232wreeeee723=X#++;332*O#+++++++$OOO         XO$##O-33838peieppppp",
"ppppppppeteeee7333eeeeeee732*O#+O;333*O++##++++#$#OOOOOOOOO#$++O-3384 peyepppppp",
"pppppppppererr8333eeeeeeee732*O#+O;332<*#++###++++######$$$+++=23384 pryeppppppp",
"pppppppppeeeeee7233eeeeeeee732*O#+O;3333<*$OOO+########+OO+$*2333-$X>rrteppppppp",
"ppppppppppteete83333eeeeeeee732*+#+O;33333<***#XOOOOOOX$***2333<; *4tutepppppppp",
"ppppppppppeepeer7233weeeeeeee77<%+$+O;<3333333:*-====-*<33333<;+X*9rteeppppppppp",
"pppppppppppepeue83333wreeeeeere86#X$#OO;<333333333333333333<;O$X*9rteppppppppppp",
"pppppppppppeepetrw3333wreeeeeeere7> +$#X+;;;<33333333333<;;+O$ *9ttepppppppppppp",
"ppppppppppppeppetew3333wreeeeeeeetw6- #$#OOX*;---------;%XO$ *69ueeppppppppppppp",
"ppppppppppppppppetew3333wreeeeeeeeet97* O###+XXXXXXXXXXX++X#78ureppppppppppppppp",
"pppppppppppppppppetrw3333weeeeeeeeeeer997$+############$X6w9trpppppepppppppppppp",
"ppppppppppppppppppetrw33233weeeeeeeeeeereeeeeeeeeeeeeeeeetrrpppppeeepppppppppppp",
"pppppppppppppppppppeete8732333eeeeeeeeeeeeeeeeeeeeeeeerrrepppppppppppppppppppppp",
"pppppppppppppppppppppeeee8832336eeereeeeeeeeeeeeeeeeeetepppetteeeppppppppppppppp",
"ppppppppppppppppppppppeeeer88722227ewerrreeeeeerrerrrrrtutyeeeeppppppppppppppppp",
"ppppppppppppppppppppppppeeprrrq78722288eerrrere899eeeeeereeppppppppppppppppppppp",
"pppppppppppppppppppppppppppppertue86<27<3ewwwe74441<1<1ppppppppppppppppppppppppp",
"pppppppppppppppppppppppppppppppeeeue99etp><<<<4444pppppppppppppppppppppppppppppp",
"ppppppppppppppppppppppppppppppppppepryrtetpppppppppppppppppppppppppppppppppppppp",
"ppppppppppppppppppppppppppppppppppppppppereepppppppppppppppppppppppppppppppppppp",
"pppppppppppppppppppppppppppppppppppppppppppppppppppppppppppppppppppppppppppppppp"
};
