/* XPM */
static char *_0283_81f4a181fc80cf26dcd6da5f6e8706b74210ca634dd5ee2c9f9ec05923a3c67a[] = {
/* columns rows colors chars-per-pixel */
"80 80 39 1 ",
"  c black",
". c #060209",
"X c #0A040D",
"o c #090809",
"O c #0E0512",
"+ c #120717",
"@ c #110A15",
"# c #130718",
"$ c #140819",
"% c #18091F",
"& c #190622",
"* c #1B0A24",
"= c #1F0B28",
"- c #220D2C",
"; c #260E32",
": c #290F35",
"> c #2A1036",
", c #2D133C",
"< c #2F183F",
"1 c #31123F",
"2 c #30183E",
"3 c #2F1941",
"4 c #331442",
"5 c #321943",
"6 c #371748",
"7 c #361A49",
"8 c #391B4C",
"9 c #3D1E52",
"0 c #3E2055",
"q c #411F56",
"w c #402056",
"e c #45245E",
"r c #462560",
"t c #492664",
"y c #4B2865",
"u c #4D2869",
"i c #502A6D",
"p c #532B71",
"a c None",
/* pixels */
"aaaaaaaaaaaaaaaaaaaaaaaaaaaaaaaaaaaaaaaaaaaaaaaaaaaaaaaaaaaaaaaaaaaaaaaaaaaaaaaa",
"aaaaaaaaaaaaaaaaaaaaaaaaaaaaaaaaaaaaaaaeerttaaaaaaaaaaaaaaaaaaaaaaaaaaaaaaaaaaaa",
"aaaaaaaaaaaaaaaaaaaaaaaaaaaaaaaaaaaaaaaaaeeree925aaaaaaaaaaaaaaaaaaaaaaaaaaaaaaa",
"aaaaaaaaaaaaaaaaaaaaaaaaaaaaaeeeeeett8455aa<57755eeaaaaaaaaaaaaaaaaaaaaaaaaaaaaa",
"aaaaaaaaaaaaaaaaaaaaaaaaeeeeeettturee8555,,,,<490teeeaaaaaaaaaaaaaaaaaaaaaaaaaaa",
"aaaaaaaaaaaaaaaaaaaaeeeeuttttere897,,1490eeewtaareeueeeaaaaaaaaaaaaaaaaaaaaaaaaa",
"aaaaaaaaaaaaaaaaaaeetuuteeeeee871118ewwereerrueeereeeueeaaaaaaaaaaaaaaaaaaaaaaaa",
"aaaaaaaaaaaaaaaaaeteaaaaete867418eeereeeeeeeeerteeeeeeeteeaaaaaaaaaaaaaaaaaaaaaa",
"aaaaaaaaaaaaaaaaaaaaaaeee944147eeeeeeeeeeeeeeeeeeeeeeeeerteaaaeeaaaaaaaaaaaaaaaa",
"aaaaaaaaaaaaaaaaaaaaeere44147eeeeeeeeeeeeeeeeeeeeeeeeeeeeereaaeeeaaaaaaaaaaaaaaa",
"aaaaaaaaaaaaaaaaaeterq44147eeeeeeeeeeeeeeeeeeeeeeereeeeeeeereaaeieaaaaaaaaaaaaaa",
"aaaaaaaaaaaaaaeeteer94444ereeeeeeeeeeerrewwwwwwwwwwerrreeeeereaaeieaaaaaaaaaaaaa",
"aaaaaaaaaaaaeeueeee94444ereeeeeeeeerrw99944444444414999erreeereaaeeaaaaaaaaaaaaa",
"aaaaaaaaaaaeyreeee94444eeeeeeeeeere89411144444444444111899ereeteaeieaaaaaaaaaaaa",
"aaaaaaaaaaeteeter94444eeeeeeeeere871144444444444444444441189eeeeaetteaaaaaaaaaaa",
"aaaaaaaaaeteteet94444eeeeeeeeee87144444-*============-*,444479eteeetraaaaaaaaaaa",
"aaaaaaaaeteeaer94444eeeeeeeee8444444;**+OOXXXXXXXXXXXXX$**,44449teereeaaaaaaaaaa",
"aaaaaaaeyeaaaeq4444eeeeeeeee81444>$*#O++++$$$$$$$$$$$$$OO+$*14449trereaaaaaaaaaa",
"aaaaaaeueaaere1444eeeeeeeee8444,#+O++O+*%-444444444444:%$OO+#*1449eeereaaaaaaaaa",
"aaaaaaeeaaeee9444eeeeeeeee814,#+$*$X***14444444444444444;**+X#+*,19eereaaaaaaaaa",
"aaaaaeeaaaete1419reeeeeee814,#$*-**=,4444444444444444444444-*O+O =19eeteaaaaaaaa",
"aaaaaeaaaeee8447eeeeeeee814,+%--*-,44444444444,;::::::;,44444;=X. *19eteaaaaaaaa",
"aaaaaaaaerre1419reeeeee814,**-**,4444444441-;;*XOXOOXOX*;;;4444=XX &19teaaeeaaaa",
"aaaaaaaereee448eeeeeee814,*--*+,444444444-*XOX+########+XXO=;444-   &19eeaeeaaaa",
"aaaaaaaetee8419reeeeee14,==-%+,44444444-*OO###+++++++++####O+*;44=   ,4teaeeaaaa",
"aaaaaaeeeee448eeeeeee44,----$,4444444-*+O##++++++.      O++##O#*:4=  #19eepeaaaa",
"aaaaaaetee4418reeeeee41----*,4444444-OO##++#++X             +#+OO:4*  +6eeteaaaa",
"aaaaaeteee4449eeeeee44,----,4444444-O##+++++X                 +#+O>;  O,8rteaaaa",
"aaaaaeteee418eeeeeew41----,4444444-O#++++#X                    +#+O:#  O7eteaaaa",
"aaaaeueee4448eeeeee44,--*,4444444-O#++++#X     .+$######$X..    +#++X  #48yeaaaa",
"aaaaereee4417eeeeee61---;,444444,X#++++#X    X+$+++++++++#$+X.   +++#  O:8ueaaaa",
"aaaeueee9444weeeee94>--*>4444441-+++++#X    +$++++++++++++++$+.  X$++   #6eraaaa",
"aaaeteee4447reeeee41---;1444444,X#+++#X    +#++++++++++++++++++X  O#+O  *48ueeaa",
"aaaeeeee7447eeeeee84--=>4444444*++++#X    +#++++++++++++++++++$O  O$++   -9teera",
"aaeteeee7447eeeeee7;--->444444,++++++    +#+++++++++++++++++++#O   O#+O  #9yeeea",
"aaeteeee714eeeeee84---;4444444*++++$X   +#++++++++#++@o    O+#++X  O#++  =4eteea",
"aaeeeeer714eeeeee81;--;4444444$+#+++.   +++++++++++O         O+$O  O+++  =4eteta",
"aaueetee414eeeeee84---;4444444$+#+#X   +++++++++#O             +$X  O$+  =4eteta",
"aeerete8148eeeeee84---;444444>#+++$X   ++++++++#O               +X  O$+  =4eteta",
"ayeaete814eeeeeee84---;444444$+#+++    ++++++++O                 .  O$+  =4eyeta",
"ateaete814eeeeeee84---;444444*+#+$X    +#+++++$                     O$+  =4qrera",
"aeeaete814eeeeeee84---;444444*+#+$X   X++++++#O                     O$+  =49trea",
"aeaaete814eeeeeee84---;444444*+#+$X   +#+++++$.                     O$+  =49eeea",
"aeaaete814eeeeeee84---;444444*+#+$X   O#++++#X                      O$+  =49eeea",
"aeaaete814eeeeeee81---;444444*+#+$X   O#++++$X                      O$+  =49rera",
"aaaaete814eeeeeee84---;444444*+#+$X   +#++++$X                      +#+  *49eeea",
"aaaaete814eeeeeeee7---;444444$+#+$X   O+++++$X                     O#++  &9eetaa",
"aaaaete814eeeeeeee7:---144444-+++#O    +#+++$X                     O#+X  #9eeeaa",
"aaaaete8449eeeeeee44--=;444444$+#+$X   ++++++O                    .+#+  O;9etaaa",
"aaaaete8444eeeeeee94--=>444444$+#+#X   +#++++$.                   O$++  &8eeteaa",
"aaaaeyee444eeeeeeee4----,44444#+#+$X   .++++++O                  .+++X  +9rreaaa",
"aaaaaete814eeeeeeee4,--=>44444,+++++    ++++++$.                 O$++  O,8eteaaa",
"aaaaaete7448eeeeeeee4--=>444444$+++$X    +++++++                X+++.  #8eteaaaa",
"aaaaaete4444eeeeeeee4----,44444,O#+++    +#++++#+              X+++.  #18reeaaaa",
"aaaaaeye8448reeeeeeee,=-=>444441%+++#X    +#++++++            X+++.  #16eteaaaaa",
"aaaaaeeet714eeeeeeeee7;--=,44444,X#++#X    +#+++++#+.       .++$+.   148eeeaaaaa",
"aaaaaaete4418eeeeeeeee,=-->444441*O#++#X    +$++++++$O.X..X+#$+O.   =19eteaaaaaa",
"aaaaaaeta8618reeeeeeee7---=>444441*O#++#X    X+$#+++++#####$+X.    =49ereeaaaaaa",
"aaaaaaetae4449eeeeeeeee5*--=1444441*O#++#X     XX+$########X.     -44ereeaaaaaaa",
"aaaaaaeteeq418reeeeeeeee4*--;4444444*O#++#X      ..........    .X=449eeraaaaaaaa",
"aaaaaaaetre4449eeeeeeeeee4*--;4444444*O++#+OX                 OX-449reaaaaaaaaaa",
"aaaaaaaerae6418reeeeeeeeee4*--;4444444,*#++$+++            O++=1449reaaaaaaaaaaa",
"aaaaaaaeeaae4449eeeeeeeeeee4*--;44444444,*$OOO+#++++++#+OOO$*14449teaaaaaaaaaaaa",
"aaaaaaaaeeaar4449eeeeeeeeeee4*--;444444444,***#OOOOOOOO$***144449teaaaaaaaaaaaaa",
"aaaaaaaaeraare4449eeeeeeeeeee4*--;444444444444:*=====-*,44441489teaaaeaaaaaaaaaa",
"aaaaaaaaaeaaeue8449eeeeeeeeeee5*-=;,44444444444444444444441489rteaaaeeaaaaaaaaaa",
"aaaaaaaaaaaaaeuw1619eeeeeeeeeee5*--*;,4444444444444444441189etr9aaeeeaaaaaaaaaaa",
"aaaaaaaaaaaaaaer81449eeeeeeeeeee5*---=:>444444444444441899ete977repeaaaaaaaaaaaa",
"aaaaaaaaaaaaaaaer94449eeeeeeeeeee95*--=-;>4444444444wwwerr9874erperaaaaaaaaaaaaa",
"aaaaaaaaaaaaaaaaera5449eeeeeeeeeerew,*--=-;;;,9eeeeeerw777449etteaaaaaaaaaaaaaaa",
"aaaaaaaaaaaaaaaaaaaa55449eeeeeeeeeeree5441,,14477777444144wereeaaaaaaaaaaaaaaaaa",
"aaaaaaaaaaaaaaaaaaaaa554449eeeeeeeeeeeeee4444411111111449rteeaaaaaaaaaaaaaaaaaaa",
"aaaaaaaaaaaaaaaaaaaaaa5554449eeeeeeeeeeeeeee9487777786qyteeaaaaaeeeaaaaaaaaaaaaa",
"aaaaaaaaaaaaaaaaaaaaaaaa575440rtteeeeeeeeeeeeeeeeeeeereeeaaeeeeeeaaaaaaaaaaaaaaa",
"aaaaaaaaaaaaaaaaaaaaaaaaa589,300ettreeeeeeeeeeeeeeeeereeeaaeeeeaaaaaaaaaaaaaaaaa",
"aaaaaaaaaaaaaaaaaaaaaaaaaay89e99eereutterrrrrrrerretttieeaaaaaaaaaaaaaaaaaaaaaaa",
"aaaaaaaaaaaaaaaaaaaaaaaaaaaatrruueaaeee909999999909eeeeaaaaaaaaaaaaaaaaaaaaaaaaa",
"aaaaaaaaaaaaaaaaaaaaaaaaaaaaaaeeeueeaaa,,,,,,,,,,,,aaaaaaaaaaaaaaaaaaaaaaaaaaaaa",
"aaaaaaaaaaaaaaaaaaaaaaaaaaaaaaaaaaaeeeaaaaaaaaaaaaaaaaaaaaaaaaaaaaaaaaaaaaaaaaaa",
"aaaaaaaaaaaaaaaaaaaaaaaaaaaaaaaaaaaaaaaaaaaaaaaaaaaaaaaaaaaaaaaaaaaaaaaaaaaaaaaa"
};
