/* XPM */
static char *_6894_c66a4b24749cf9e886399fd036efd3c70c0ac8fa22d0bb32c5d1dfd812509263[] = {
/* columns rows colors chars-per-pixel */
"80 80 43 1 ",
"  c black",
". c #060209",
"X c #0A040D",
"o c #0E0512",
"O c #0E0B10",
"+ c #120717",
"@ c #110A15",
"# c #130718",
"$ c #140819",
"% c #18091F",
"& c #190622",
"* c #160821",
"= c #1B0A24",
"- c #1F0B28",
"; c #2A042D",
": c #220D2C",
"> c #260E32",
", c #290F35",
"< c #2E0F3A",
"1 c #261133",
"2 c #2A1036",
"3 c #2D133C",
"4 c #31123F",
"5 c #2F1741",
"6 c #331442",
"7 c #321943",
"8 c #371748",
"9 c #39174A",
"0 c #361A49",
"q c #391B4C",
"w c #3D1E52",
"e c #3E2055",
"r c #411F56",
"t c #431F59",
"y c #402056",
"u c #45245E",
"i c #462560",
"p c #492664",
"a c #4B2865",
"s c #49246D",
"d c #4D2869",
"f c #502A6D",
"g c None",
/* pixels */
"gggggggggggggggggggggggggggggggggggggggggggggggggggggggggggggggggggggggggggggggg",
"ggggggggggggggggggggggggggggggggggggggggggggggupuggggggggggggggggggggggggggggggg",
"gggggggggggggggggggggggggguuuuuudipppuuuy6666gguuy8ggggggggggggggggggggggggggggg",
"ggggggggggggggggggggggggguuuuuuuupuww633466664<gg,666ggggggggggggggggggggggggggg",
"ggggggggggggggggggggggggggguuuipuw0<44qwwwwwwwuuiuwq643ggggggggggggggggggggggggg",
"gggggggggggggggggggggggguuuudpttw<0ywwuiiiiiiiipppiuwwuugggggggggggggggggggggggg",
"gggggggggggggggggggguuuuapawqq4<6uuiuiuuuuuuuuuuuuuuiuipuguggggggggggggggggggggg",
"gggggggggggggggggguupppiuw66446uuiuuuuuuuuuuuuuuuuuuuuuupuuuuggggggggggggggggggg",
"gggggggggggggggguuuuuuuw66466uuuuuuuuuuuuuuuuuuuuuuuuuuuuiuipugggggggggggggggggg",
"ggggggggggggguuuggggiy66466yuuuuuuuuuuuuuuuuiiiiiuuuuuuuuuuuupuggggggggggggggggg",
"gggggggggggggggggupir6460wuuuuuuuuuuuuuiiiiueeeeeuiiiiiuuuuuuupugggggggggggggggg",
"gggggggggggggguufpur66qwiuuuuuuuuuuuuiiwwww7=--=-qwwwwwupiuuuuupuggggggggggggggg",
"gggggggggggggudfie646wiuuuuuuuuuuuipeqq:===-:::::======3wquiuuuupugggggggggggggg",
"gggggggggggguduaq466wuuuuuuuuuuupu701%=:::::-----::::::-==7quuuuupuggguggggggggg",
"ggggggggggguduiw486wuuuuuuuuuuiu73==:::::-:3333333332-::::==7iuuuupugguugggggggg",
"gggggggggguduiyw66wuuuuuuuuuuu63=-:::::33346666666666333>-:::30iuuupggiugggggggg",
"ggggggggguugpy866wuuuuuuuuuuu3==:::244466666666666666666644::=:2qiuuugguuggggggg",
"gggggggguuggy666wuuuuuuuuuu6>::::2666666666666666666666666664::=-qiupuguuggggggg",
"ggggggggggge666wuuuuuuuuuu6=:::>6666666666666666666666666666663::=qiupugpugggggg",
"ggggggggggu666wuuuuuuuuuu6=::>6666666666666666666666666666666663::=qipuupugggggg",
"gggggggguur64qiuuuuuuuuu6=:->666666666666666666666666666666666663::=0wupupuggggg",
"ggggggguui666wuuuuuuuuu5=:->6666666666666666663>,,,,,,>36666666663::=:uuuiuggggg",
"gggggguuiw64qiuuuuuuuu3=:->6666666666666664:>>=XoXXXXoX=>>>66666663:::0uuudugggg",
"ggggggupu666uuuuuuuuu3=:->666666666666666:=XoX+$$$$$$$$+ooo->6666664:=1uuupugggg",
"ggggguuuq660iuuuuuuu3=::>66666666666666:=oo##$X ...... ....X+=>666664::7uupugggg",
"gggggupu646uuuuuuuu3=::>6666666666666:=+o$#+o              .+o#=>66664=2uuuuuggg",
"gggguuuq660uuuuuuuu1:::2666666666666:oo##+o                  .+o+,6666>-7iupuggg",
"gggguau046uuuuuuui3-:->666666666666:o###o       o+++++++X      ##o,6666=3uupuggg",
"ggggupq666uuuuuuuu1-::266666666666:o#+#o      o#+++++++++++.    +#o>666>=6ipuggg",
"gggupiq46quuuuuup3=:-:66666666666:o#+#o    .o$++++++++++++++.    +#o>666+3ppuggg",
"ggguiu866uuuuuuue2:::366666666663X#+#o    o$+++++++++++++++++.    +++666::epuggg",
"gguaiq466uuuuuui5=:::66666666664:++$o    o#+++++++++++++++++++.   o$+:663 3duggg",
"gggiiw666uuuuuui7=::366666666663X##o    o#++++++++++#######++++.   +++663 7duggg",
"gguiiw466uuuuuui7=::66666666666=++$X   o#+++++++++@O      .+#+++.   +#:63 7duggg",
"ggdiq966ruuuuuiq::::66666666663++#o    ++++++++++.          .++$o   o+$66>owpggg",
"guuiw466uuuuuui7=:::6666666666=++$X   o+++++++++              +++X   ++=63 qpggg",
"gguau466uuuuuui0=::>6666666666$+#+X  o$++++++++                +##.  oo=63 wpggg",
"gggpu466uuuuuui0=::66666666666$+$o   o#+++++#+                  +$.   o=63 qsgug",
"gggpr464uuuuuui0=::66666666662#+$o  o$+++++++                   X$X   +$33 wpgug",
"ggudw66quuuuuui0=::6666666666$++$o  o#+++++$X                    o$.  #X-3 6gupg",
"ggupw66uiuuuuui0=::6666666666=+#+   o#++++++                     X$   +o:3+ gupg",
"gggpw66yuuuuuui0=::6666666666=+$o   o#++++$o                      +.  +o:3+ pdug",
"gguiw66yuuuuuui0=::6666666666=+$o   o#+++#o                       o.  +o:3+ ppgg",
"ggpiw66yuuuuuui0=::6666666666=+$o   o#+++#o                           +o:3 7ppgg",
"gguuw66yuuuuuui0=::6666666666=+$o   o#+++#o                           ++#% 0pugg",
"gguiw46yuuuuuui7=::4666666666=+$o   o#+++#o                           +#++ 7pugg",
"ggpuy66yuuuuuui0=::6666666666$o$o   o#+++#o                           +$+ =wpugg",
"gguuiw4uuuuuuui7=::3666666666:+++   o#+++#o                          .++o 5piugg",
"gggpuw4uuuuuuuuw1:::6666666666$+$o  o$+++++                          +$o  5ipugg",
"ggupiw4uuuuuuuup7=::6666666666$+$o   +++++$o                         +$+. 3puggg",
"ggupiw4uiuuuuuui6=::6666666666#+$o   o#+++#o                        X++X -upuggg",
"ggupuw48uuuuuuuuu3-:,6666666663+#o   o#+++++X                       +$+  3ppiggg",
"gggupw66uuuuuuuui3=::6666666666$++X  o#++++$o                      o++   3pugggg",
"gggupuq4uuuuuuuuu6-::66666666663o$X   +#+++++X                    o#++  -puggggg",
"ggguppq4yuuuuuuuuu3=:46666666664%#o   o++++++#X                  o#++   3duggggg",
"ggguduw66uuuuuuuuu2=:>66666666663X$X   +++++++#X                o$+#o. *puuggggg",
"gggguupw4wuuuuuuuu0:::36666666664=oo   o#++++++##X..        ..X$++#o   6uugggggg",
"gggguuuu66uuuuuuuuu1-:>66666666664=+o   X#+++++++#$+XXXXXXXX+$#++#o   6puggggggg",
"ggggugud06uuuuuuuuuq:::366666666664=+.   X#+++++++++$$$$$$$$++++$o   7ipuggggggg",
"ggggggguq4quuuuuuuuu3:::366666666664=X    X$++++++++++++++++++#o.   7iiugggggggg",
"ggggggguu66uuuuuuuuuy3:=7w46666666666=o     X#+++++++++++++++#o    7iupugggggggg",
"gggggggguq6quuuuuuuuu63::qq466666666663=      o++++++++++++++     7iupuggggggggg",
"gggggggguu66uuuuuuuuuu6666wq4666666666663o.      o+++++++++.   .:wuupugggggggggg",
"ggggggggguqgqiuuuuuuuuu6666wq46666666666663#X                o&6wiupuggggggggggg",
"ggggggggguiwquuuuuuuuuuu6666ww04666666666666,#&           #&&6qwiupugggggggggggg",
"ggggggggggiu,wiuuuuuuuuuu6666wuqq46666666666666>=-=====---36qwiuupuggggggggggggg",
"gggggggggguuu8uiuuuuuuuuuu6666wpuwq44666666666666666666666qwuuuupugggggggggggggg",
"gggggggggggui;quuuuuuuuuuuu6666wuiuww646666666666666464qwwuiuuupuggggggggggggggg",
"ggggggggggggug3riuuuuuuuuuuu6666wuuiiuwyw66666666646yywuiiuuuupugggggggggggggggg",
"gggggggggggggg69uuuuuuuuuuuuu66660wuuuiiuuuuuuuuuuuuiuiuuuuuiugggggggggggggggggg",
"ggggggggggggggg3uiuuuuuuuuuuuu666466wuuuuuuuuuuuuuuuuuuuuupugggggggggggggggggggg",
"gggggggggggggggg6upuuuuuuuuuuuuu6646666uuuuuuuuuuuuuuuuuuuuggggggggggggggggggggg",
"ggggggggggggggggg6uiuuuuuuuuuuuuuy8644666uuuuuiuiiiuuuuuuuuggguggggggggggggggggg",
"gggggggggggggggggggupppuuuuupuuuuuiwqq6466664quyyyyuiiiiippadiuugggggggggggggggg",
"gggggggggggggggggggguuudiuuuuudpuuuuuiwq996666666669uuuuuuuuuugggggggggggggggggg",
"ggggggggggggggggggggggguudpiuuuudpuuuuiu64666666666633344ggggggggggggggggggggggg",
"ggggggggggggggggggggggggguuufuuuiudpiuuupagggggggggggggggggggggggggggggggggggggg",
"gggggggggggggggggggggggggggguupaugugupiidiuuuugggggggggggggggggggggggggggggggggg",
"gggggggggggggggggggggggggggggggguugggggguupppuuugggggggggggggggggggggggggggggggg",
"gggggggggggggggggggggggggggggggggggggggggggggggggggggggggggggggggggggggggggggggg"
};
