/* XPM */
static char *_1338_f1466c76004bf86a16bee223306880f46ca178eb73a8159b4b1dd01793612458[] = {
/* columns rows colors chars-per-pixel */
"80 80 233 2 ",
"   c #C92000",
".  c #C73500",
"X  c #CA3100",
"o  c #CC4400",
"O  c #CD4B03",
"+  c #D04F00",
"@  c #CE540D",
"#  c #D45400",
"$  c #D25B00",
"%  c #D35E0D",
"&  c #CE5A1C",
"*  c #CD571A",
"=  c #D05E1B",
"-  c #D15910",
";  c #CC4E10",
":  c #D96B07",
">  c #DB7405",
",  c #D96E14",
"<  c #D2621B",
"1  c #DD651C",
"2  c #DA6C1A",
"3  c #D76A17",
"4  c #DB7215",
"5  c #DA731B",
"6  c #DF7912",
"7  c #E47D01",
"8  c #EC7D00",
"9  c #E97500",
"0  c #E2651D",
"q  c #E26C1C",
"w  c #EA6D1D",
"e  c #E76A14",
"r  c #E37B16",
"t  c #EC7B13",
"y  c #E67518",
"u  c #F17710",
"i  c #CF5C23",
"p  c #CE5E2B",
"a  c #D85C21",
"s  c #CB4420",
"d  c #CE6025",
"f  c #D16322",
"g  c #DE6221",
"h  c #D2652B",
"j  c #D56C2C",
"k  c #D86B25",
"l  c #DC7425",
"z  c #D16532",
"x  c #D47136",
"c  c #E16323",
"v  c #EF6E21",
"b  c #E47D27",
"n  c #E47A35",
"m  c #D06545",
"M  c #DD8400",
"N  c #E58202",
"B  c #EC8500",
"V  c #ED8B01",
"C  c #E4830B",
"Z  c #EC8C0D",
"A  c #EA860B",
"S  c #F28700",
"D  c #F28C02",
"F  c #F18E08",
"G  c #EF9202",
"H  c #EF930A",
"J  c #E49500",
"K  c #F19401",
"L  c #F39A00",
"P  c #FE9B00",
"I  c #F1960B",
"U  c #FF9A0A",
"Y  c #FA940C",
"T  c #E68612",
"R  c #ED8D14",
"E  c #EA8919",
"W  c #F48216",
"Q  c #F68B15",
"!  c #EA9317",
"~  c #F09715",
"^  c #F29C15",
"/  c #F0961C",
"(  c #F29A1B",
")  c #F3A401",
"_  c #FFA500",
"`  c #F9A60A",
"'  c #F6B600",
"]  c #F3A414",
"[  c #F9A617",
"{  c #DE8D38",
"}  c #E68B26",
"|  c #EF9423",
" . c #ED9829",
".. c #F39C25",
"X. c #F39925",
"o. c #E48636",
"O. c #E89537",
"+. c #F19B31",
"@. c #F09630",
"#. c #F2A22D",
"$. c #FAA62A",
"%. c #FBB82A",
"&. c #EDA737",
"*. c #F2A534",
"=. c #F5AC33",
"-. c #F3A539",
";. c #F4AA3B",
":. c #FEAA3C",
">. c #FFAC31",
",. c #FFB636",
"<. c #F8BC35",
"1. c #F9BD39",
"2. c #F9B53A",
"3. c #EAA02C",
"4. c #FECD01",
"5. c #FCC729",
"6. c #FFD02A",
"7. c #FAC036",
"8. c #FBC13A",
"9. c #FECF3D",
"0. c #FFD13C",
"q. c #FFD136",
"w. c #DA8542",
"e. c #DF9750",
"r. c #E89B48",
"t. c #E09757",
"y. c #EC8F44",
"u. c #E9A746",
"i. c #F5AE42",
"p. c #F9A946",
"a. c #F6B245",
"s. c #FABA44",
"d. c #F6B449",
"f. c #F9B54A",
"g. c #F5BB4C",
"h. c #FBBD4A",
"j. c #FCB344",
"k. c #ECA856",
"l. c #F6B552",
"z. c #F9BD53",
"x. c #F6B65C",
"c. c #F9BB58",
"v. c #EEB148",
"b. c #D78366",
"n. c #E69160",
"m. c #F5BD64",
"M. c #FBC444",
"N. c #F7C44E",
"B. c #FBC34B",
"V. c #FDCC4D",
"C. c #FDCA47",
"Z. c #FFD344",
"A. c #FFD24B",
"S. c #FFDB4E",
"D. c #FAC454",
"F. c #FDCD53",
"G. c #FAC45B",
"H. c #FCCB5C",
"J. c #F7C351",
"K. c #FFD353",
"L. c #FFD55B",
"P. c #FFDA5B",
"I. c #FFD854",
"U. c #FBCC65",
"Y. c #FCCC6C",
"T. c #F7C365",
"R. c #FED463",
"E. c #FFD965",
"W. c #FFD66B",
"Q. c #FFDA6C",
"!. c #FCCE74",
"~. c #F9C67C",
"^. c #FFC172",
"/. c #FED670",
"(. c #FFDB73",
"). c #FED779",
"_. c #FFDB7B",
"`. c #FFE074",
"'. c #FFE17B",
"]. c #DC9986",
"[. c #DDA19A",
"{. c #DFA087",
"}. c #E5A18B",
"|. c #E1A899",
" X c #F4BB94",
".X c #F6BB85",
"XX c #DDA4A0",
"oX c #E3B0A6",
"OX c #FFDC83",
"+X c #FFDD8D",
"@X c #FDD28A",
"#X c #F5C798",
"$X c #FFDE93",
"%X c #FDDA9A",
"&X c #FBD69A",
"*X c #FFE183",
"=X c #FFE08D",
"-X c #FFE192",
";X c #FFE29C",
":X c #F8C9A3",
">X c #F8D5A3",
",X c #ECC7B7",
"<X c #F9DAB5",
"1X c #EDC4A6",
"2X c #FFE2A4",
"3X c #FFE4AC",
"4X c #FFEDAD",
"5X c #FEE5B4",
"6X c #FFE9B3",
"7X c #FFE7B8",
"8X c #FFEABC",
"9X c #F9DBC7",
"0X c #F1DBD5",
"qX c #E9C7C4",
"wX c #FFECC3",
"eX c #FFEDCD",
"rX c #F9E6CE",
"tX c #FFF0C8",
"yX c #FAE1D5",
"uX c #FFEED2",
"iX c #FBE8DB",
"pX c #FFF0D5",
"aX c #FFF3DB",
"sX c #FFF8DA",
"dX c #F6E9E7",
"fX c #FFF5E4",
"gX c #FFF9E6",
"hX c #FFF6EA",
"jX c #FFF9EC",
"kX c #FFFAF4",
"lX c #FFFFFF",
"zX c #FDF7F8",
"xX c None",
/* pixels */
"xXxXxXxXxXxXxXxXxXxXxXxXxXxXxXxXxXxXxXxXxXxXxXxXxXxXxXxXxXxXxXxXxXxXxXxXxXxXxXxXxXxXxXxXxXxXxXxXxXxXxXxXxXxXxXxXxXxXxXxXxXxXxXxXxXxXxXxXxXxXxXxXxXxXxXxXxXxXxXxX",
"xXxXxXxXxXxXxXxXxXxXxXxXxXxXxXxXxXxXxXxXxXxXxXxXxXxXxXxXxXxXxXxXxXxXxXxXxXxXxXxXxXxXxXxXxXxXxXxXxXxXxXxXxXxXxXxXxXxXxXxXxXxXxXxXxXxXxXxXxXxXxXxXxXxXxXxXxXxXxXxX",
"xXxXxXxXxXxXxXxXxXxXxXxXxXxXxXxXxXxXxXxXxXxXxXxXxXxXxXxXxXxXxXxXxXxXxXxXxXxXxXxXxXxXxXxXxXxXxXxXxXxXxXxXxXxXxXxXxXxXxXxXxXxXxXxXxXxXxXxXxXxXxXxXxXxXxXxXxXxXxXxX",
"xXxXxXxXxXxXxXxXxXxXxXxXxXxXxXxXxXxXxXxXxXxXxXxXxXxXxXxXxXxXxXxXxXxXxXxXxXxXxXxXxXxXxXxXxXxXxXxXxXxXxXxXxXxXxXxXxXxXxXxXxXxXxXxXxXxXxXxXxXxXxXxXxXxXxXxXxXxXxXxX",
"xXxXxXxXxXxXxXxXxXxXxXxXxXxXxXxXxXxXxXxXxXxXxXxXxXxXxXxXxXxXxXxXxXxXxXxXxXxXxXxXxXxXxXxXxXxXxXxXxXxXxXxXxXxXxXxXxXxXxXxXxXxXxXxXxXxXxXxXxXxXxXxXxXxXxXxXxXxXxXxX",
"xXxXxXxXxXxXxXxXxXxXxXxXxXxXxXxXxXxXxXxXxXxXxXxXxXxXxXxXxXxXxXxXxXxXxXxXxXxXxXxXxXxXxXxXxXxXxXxXxXxXxXxXxXxXxXxXxXxXxXxXxXxXxXxXxXxXxXxXxXxXxXxXxXxXxXxXxXxXxXxX",
"xXxXxXxXxXxXxXxXxXxXxXxXxXxXxXxXxXxXxXxXxXxXxXxXxXxXxXxXxXxXxXxXxXxXxXxXxXxXxXxXxXxXxXxXxXxXxXxXxXxXxXxXxXxXxXxXxXxXxXxXxXxXxXxXxXxXxXxXxXxXxXxXxXxXxXxXxXxXxXxX",
"xXxXxXxXxXxXxXxXxXxXxXxXxXxXxXxXxXxXxXxXxXxXxXxXxXxXxXxXxXxXxXxXxXxXxXxXxXxXxXxXxXxXxXxXxXxXxXxXxXxXxXxXxXxXxXxXxXxXxXxXxXxXxXxXxXxXxXxXxXxXxXxXxXxXxXxXxXxXxXxX",
"xXxXxXxXxXxXxXxXxXxXxXxXxXxXxXxXxXxXxXxXxXxXxXxXxXxXxXxXxXxXxXxXxXxXxXxXxXxX< < xXxXxXxXxXxXxXxXxXxXxXxXxXxXxXxXxXxXxXxXxXxXxXxXxXxXxXxXxXxXxXxXxXxXxXxXxXxXxXxX",
"xXxXxXxXxXxXxXxXxXxXxXxXxXxXxXxXxXxXxXxXxXxXxXxXxXxXxXxXxXxXxXxXxXxXxXxXxXxXxXxXxXxXxXxXxXxXxXxXxXxXxXxXxXxXxXxXxXxXxXxXxXL xXxXxXxXxXxXxXxXxXxXxXxXxXxXxXxXxXxX",
"xXxXxXxXxXxXxXxXxXxXxXxXxXxXxXxXxXxXxXxXxXxXxXxXxXxXxXxXxXxXxXxXxXxXxXxXxXxXxXxXxXxXxXxXxXxXxXxXxXxXxXxXxXxXxXxXxXxXxXxXxXG xXxXxXxXxXxXxXxXxXxXxXxXxXxXxXxXxXxX",
"xXxXxXxXxXxXxXxXxXxXxXxXxXxXxXxXxXxXxXxXxXxX< 1 1 < xXxXxXxXxXxXxXxXxXxXxXxXxXxXxXxXxXxXxX_ xXxXxXxXxXxXxXxXxXxXxXxXxXxXxXxXxXxXxXxXxXxXxXxXxXxXxXxXxXxXxXxXxXxX",
"xXxXxXxXxXxXxXxXxXxXxXxXxXxXxXxXxXxXxXxXxXw xXxXxXxXxXxXxXxX< 1 xXxXxXxXxXxXxXxXxXxXxXxXxXxXxXxXxXxXxXxXxXxX< 1 1 < xXxXxXxXxXxXxXxXxXxXxXxXxXxXxXxXxXxXxXxXxXxX",
"xXxXxXxXxXxXxXxXxXxXxXxXxXxXxXxXxXxXxXxXxXxXxXxXxXxXxXxXxXxXxXxXxXxXxXxXxXxXxX& & & = xXxXxXxXxX< xXxXxXxXxXxXxXxXxXxXxXxXxXxXxXxXxXxXxXxXxXxXxXxXxXxXxXxXxXxXxX",
"xXxXxXxXxXxXxXxXxXxXxXxXxXxXxXxXxXxXxXxXxXxXxXxXxXxXxXxXxXxXxXxXxXxXxXxXxXxX4 W r t t xXxXxXxXxX< xXxXxXxXxXxXxXxXxXxXxXxXxXxXxXxXxXxXxXxXxXxXxXxXxXxXxXxXxXxXxX",
"xXxXxXxXxXxXxXxXxXxXxXxXxXxXxXxXxXxXxXxXxXxXxXxXxXxXxXxXxXw q q q q c q q c R L K I ^ b c v xXxXxXxXxXxXxXxXxXxXxXxXxXxXxXxXxXxXxXxXxXxXxXxXxXxXxXxXxXxXxXxXxXxX",
"xXxXxXxXxXxXxXxXxXxXxXxXxXxXxXxXxXxXxXxXxXxXxXxXxXxXxX& , G G V V B V V V V V R B v././.T.V > & xXxXxXxXxXxXxXxXxXxXxXxXxXxXxXxXxXxXxXxXxXxXxXxXxXxXxXxXxXxXxXxX",
"xXxXxXxXxXxXxXxXxXxXxXxXxXxXxXxXxXxXG xXxXxXxXxXxXxXxX= y K G ~ D.D.G.G.G.G.B.7.1.C.L.I.K.U.O.@ < < & < < < xXxXxXxXxXxXxXxXxXxXxXxXxXxXxXxXxXxXxXxXxXxXxXxXxXxX",
"xXxXxXxXxXxXxXxXxXxXxXxXxXxXxXxXxXxXG xXxXxXxXxXxXxXxX& 4 K G / W.(.(.Q.Q.R.;X6X5X3X3X5X2X`.e.+ 1 q t 1 1 w = xXxXxXxXxXxXxXxXxXxXxXxXxXxXxXxXxXxXxXxXxXxXxXxXxX",
"xXxXxXxXxXxXxXxXxXxXxXxXxXxXxXxXxXxXxXxXxXxX< w 1 q q < 5 H G ~ U.W.W.)._.E.aXlXlXlXlXlXhXE.r.; < r L 5 < < 1 < xXxXxXxXxXxX< < xXxXxXxXxXxXxXxXxXxXxXxXxXxXxXxX",
"xXxXxXxXxXxXxXxXxXxXxXxXxXxXxXxXxXxXxXxXxX= * = V G V V V V G H G d.Q.fXlXkXlXlXlXlXlXlXkXE.u.O ! V V G Z G 4 & xXxXxXxXxXxXxXxXxXxXxXxXxXxXxXxXxXxXxXxXxXxXxXxX",
"xXxXxXxXxXxXxXxXxXxXxXxXxXxXxXxXxXxXxX& 3 Z C T V ;.G.G.G.G.-.V V d.E.hXlXlXlXlXlXlXlXwX%X;.@.T <.B.H./ V K V C = xXxXxXxXxXxXxXxXxXxXxXxXxXxXxXxXxXxXxXxXxXxXxX",
"xXxXxXxXxXxXxXxXxXxXxXxXxXxXxXxXxXxXxX& t K K K V d.(.W.Q.`.d.V V 2.E.fXlXlXlXlXlXlXlX-X5.B D ..5X;XE.g.-.V K G W 3 xXxXxXxXxXxXxXxXxXxXxXxXxXxXxXxXxXxXxXxXxXxX",
"xXxXxXxXxXxXxXxXxXxXxXxXxXxXxXxXxXxXxX& y G ~ / G d.(.).(.(.d.D G x._.hXlXlXlXlXlXlXlX2XH.+.K r.lXaXR._.W.| / G L A w xXxXxXxXxXxXxXxXxXxXxXxXxXxXxXxXxXxXxXxXxX",
"xXxXxXxXxXxXxXxXxXxXxXxXxXxXxXxXxXxX< A H V z.W./.R.Z.fXfXZ.=.R F.7XlXlXlXlXlXlXlXaX(.] K K.V.E.kXlXlX+X9.L.=.V I G G , & xXxXxXxXxXxXxXxXxXxXxXxXxXxXxXxXxXxXxX",
"xXxXxXxXxXxXxXxXxXxXxXxXxXxXxXxXxXxXc V I V D.(.Z.;XfXlXlXfX%XN.q.7XlXlXlXlXlXlXlXeX4.9XiXaXaXaXlXlXlXfXpXgX&X' H V G y < xXxXxXxXxXxXxXxXxXxXxXxXxXxXxXxXxXxXxX",
"xXxXxXxXxXxXxXxXxXxXxXxXxXxXxXxXxXxX1 V K V g.(.2XaXlXlXlXlX8XL.2XpXlXlXlXlXlXlXlXfX2XlXlXlXlXlXlXlXlXlXlXlXaX2Xx...G q * xXxXxXxXxXxXxXxXxXxXxXxXxXxXxXxXxXxXxX",
"xXxXxXxXxXxXxXxXxXxXxXxXxXxXxXxXxXxX1 Z I G G.=XlXlXzXlXlXlX7X(.lXlXlXlXlXlXlXlXlXlXlXlXlXlXlXlXlXlXlXlXlXlXlXlX*XD.| b k xXxXxXxXxXxXxXxXxXxXxXxXxXxXxXxXxXxXxX",
"xXxXxXxXxXxXxXxXxXxXxXxXxXxXxXxXxXxXg N ;.K.eXlXlXlXlXlXlXlXlXlXlXlXlXlXlXlXlXlXlXlXlXlXlXlXlXlXlXlXlXlXlXlXlXkXW.A.F.E.T.- xXxXxXxXxXxXxXxXxXxXxXxXxXxXxXxXxXxX",
"xXxXxXxXxXxXxXxXxXxXxXxXxXxXxXxXxXxXv N ;.I.aXlXlXlXlXlXlXlXlXlXlXlXlXlXlXlXlXlXlXlXlXlXlXlXlXlXlXlXlXlXlXlXlXlXaXaXaX-XJ.0 xXxXxXxXxXxXxXxXxXxXxXxXxXxXxXxXxXxX",
"xXxXxXxXxXxXxXxXxXxXxXxXxXxXxXxXxXxX< 7 +.M.5XfXzXlXlXlXlXlXlXlXlXlXlXlXlXlXlXlXlXlXlXlXlXlXlXlXlXlXlXlXlXlXlXlXlXlXlX;XN.a xXxXxXxXxXxXxXxXxXxXxXxXxXxXxXxXxXxX",
"xXxXxXxXxXxXxXxXxXxXxXxXxXxXxXxXxXxXxX& q B 2.(.kXlXlXlXlXlXlXlXlXlXlXlXlXlXlXlXlXlXlXlXlXlXlXlXlXlXlXlXlXlXlXlXlXlXlX;XJ.g xXxXxXxXxXxXxXxXxXxXxXxXxXxXxXxXxXxX",
"xXxXxXxXxXxXxXxXxXxXxXxXxXxXxXxXxXxXxX< f s &.(.zXlXlXlXlXlXlXlXlXlXlXlXlXlXlXlXlXlXlXlXlXlXlXlXlXlXlXlXlXlXlXlXlXuXQ.'.U.e xXxXxXxXxXxXxXxXxXxXxXxXxXxXxXxXxXxX",
"xXxXxXxXxXxXxXxXxXxXxXxXxXxXxXxXxXxXxX* { ' 5XfXlXlXlXlXlXlXlXlXlXlXlXlXlXlXlXlXlXhX2X6X6X6X3X7XlXlXlXlXlXlXlXlXlXaXS.k.{ xXxXxXxXxXxXxXxXxXxXxXxXxXxXxXxXxXxXxX",
"xXxXxXxXxXxXxXxXxXxXxXxXxXxXxXxXxXxXxXo n.3XhXlXlXlXlXlXlXlXlXlXlXlXlXlXlXlXlXlXfX6X0.B.1.1.V.Q.uXjXlXlXlXlXlXlXfX5Xv.n o xXxXxXxXxXxXxXxXxXxXxXxXxXxXxXxXxXxXxX",
"xXxXxXxXxXxXxXxXxXxXxXxXxXxXxXxXxXxXxX$ }.lXlXlXlXlXlXzXlXlXzXlXlXlXlXlXlXlXlXlX/.L._.-.V E c.(.5.3XlXlXlXlXlXkXW.&.. < f xXxXxXxXxXxXxXxXxXxXxXxXxXxXxXxXxXxXxX",
"xXxXxXxXxXxXxXxXxXxXxXxXxXxXxXxXxXxXi N.;XlXlXlXlXlXlX2X;XlXoX+ zXlXlXlXlXlXlXkXQ.A.L.#.N . N $./ c.'.kXlXlXwXW.y.j xXxXxXxXxXxXxXxXxXxXxXxXxXxXxXxXxXxXxXxXxXxX",
"xXxXxXxXxXxXxXxXxXxXxXxXxXxXxXxXxXxXc N.;XlXlXlX6X>XXXe.e.[.qXdXlXlXlXlXlXlXlXlXfXaXaXY.T.iX}.# < E =.&XwXlX5X4.g . xXxXxXxXxXxXxXxXxXxXxXxXxXxXxXxXxXxXxXxXxXxX",
"xXxXxXxXxXxXxXxXxXxXxXxXxXxXxXxXxXxXg N.;XlXjXuXG.J $ $ 5 > <XjXaXhXlXfXaXaXaXaXaXkXlXwXwXlX,XM e.O.N 5.$XlXpX2Xk.O.xXxXxXxXxXxXxXxXxXxXxXxXxXxXxXxXxXxXxXxXxXxX",
"xXxXxXxXxXxXxXxXxXxXxXxXxXxXxXxXxXxX0 N.;XlX5X6.z 5 ..| u.`.W.R.6.3XlX+X0.L.K.L.6.3XlXlXlXlX8XQ.'.G./ H.2XlXlXlX*Xz.P xXxXxXxXxXxXxXxXxXxXxXxXxXxXxXxXxXxXxXxXxX",
"xXxXxXxXxXxXxXxXxXxXxXxXxXxXxXxXxXxXa J.;XlX8XK.+.V A M.L.K.sXlXm O.Q.W.(.W./.(./.(.).hXlXlXlXkXW.A.V.0.$XlXlXzXOXJ.D xXxXxXxXxXxXxXxXxXxXxXxXxXxXxXxXxXxXxXxXxX",
"xXxXxXxXxXxXxXxXxXxXxXxXxXxXxXxXxXxXQ N.;XlX7XK.} ] 5.eXrX! {.XXv.>XjX+XR.W.W.Q.W.W.L.hXlXlXlXlXaXsXhXaXfXlXlXlXm.] K K G xXxXxXxXxXxXxXxXxXxXxXxXxXxXxXxXxXxXxX",
"xXxXxXxXxXxXxXxXxXxXxXxXxXxXxXxXxXxXU V.;XlX7XA.;.~.4XlXdX  > ! A.3XjX+XR.Q.W.Q.W.W.R.hXlXlXlXlXlXzX0XlXlXlXhX9Xo.9 T P K xXxXxXxXxXxXxXxXxXxXxXxXxXxXxXxXxXxXxX",
"xXxXxXxXxXxXxXxXxXxXxXxXxXxXxXxXxXxXU V.;XlX8XW.E.8XlXlXdXp m.'.).W.A.W.W.W.W.W.(.Q.R.fXlXkXlXzXlX9X9 iXlXlX#X9 h i & F K xXxXxXxXxXxXxXxXxXxXxXxXxXxXxXxXxXxXxX",
"xXxXxXxXxXxXxXxXxXxXxXxXxXxXxXxXxXxXY V.;XlXlXkXA.5XlXlXlXlX5XR.lXsXP.(.Q.(.Q.W.K.L.(.OX*X*Xm.O.y.x.Q._.!.O.@.! = * = F K xXxXxXxXxXxXxXxXxXxXxXxXxXxXxXxXxXxXxX",
"xXxXxXxXxXxXxXxXxXxXxXxXxXxXxXxXxXxX` V.2XlXlXlXaXhXlXlXkX5X+XR.1X.X=.i.2.:.H._.hX<X) ) ) =.C : V j.(.E.R.J.-.D Z r = I K xXxXxXxXxXxXxXxXxXxXxXxXxXxXxXxXxXxXxX",
"xXxXxXxXxXxXxXxXxXxXxXxXxXxXxXxXxXxXZ s.@XaXjXlXlXlXlXlXhX9.Q.W.7 9 7 7 7 9 ;.U.fX<X)  X X=.} 5 7 &.G.R.Q.(.f.N Z 6 & G K xXxXxXxXxXxXxXxXxXxXxXxXxXxXxXxXxXxXxX",
"xXxXxXxXxXxXxXxXxXxXxXxXxXxXxXxXxXxXxXB >.6.uXlXzXlXlXlXfXW.W.Y.x f < f f f 7 K A.R.E.kXkXE.f.V d : V !._.(.a.V < & < Z G _ xXxXxXxXxXxXxXxXxXxXxXxXxXxXxXxXxXxX",
"xXxXxXxXxXxXxXxXxXxXxXxXxXxXxXxXxXxXxXV j.P.sXlXlXlXlX2XW.(.k.d R Z Z T B V V H (.(.W.E.R.(.i.B i 5 K fXhXZ.2.V < 6 H V V P xXxXxXxXxXxXxXxXxXxXxXxXxXxXxXxXxXxX",
"xXxXxXxXxXxXxXxXxXxXxXxXxXxXxXxXxXxXxXK ..{ #X6X2XaXlX-XK.P.J X 1.8.7.7.M.G.G.G.-.g.E.uXuXE.U.z.} A B dXlXfX X8 d 4 V g.J.P xXxXxXxXxXxXxXxXxXxXxXxXxXxXxXxXxXxX",
"xXxXxXxXxXxXxXxXxXxXxXxXxXxXxXxXxXxXxXK K X 3.M.' &XgX+X).6X1X|.6X6X5X6X3XQ.(.W.-.c.E.uXpXR.(.Q.~ ( ` fXlXlX<X) l } =.W.Y.P xXxXxXxXxXxXxXxXxXxXxXxXxXxXxXxXxXxX",
"xXxXxXxXxXxXxXxXxXxXxXxXxXxXxXxXxXxXxXK F = r ~ B =.L.K.;XlXlXlXlXlXlXlXhXL.R.W.Q.W.W.K.K.W.W.W.~ l._.fXzXlX8XQ.+.c.*X(.H.P xXxXxXxXxXxXxXxXxXxXxXxXxXxXxXxXxXxX",
"xXxXxXxXxXxXxXxXxXxXxXxXxXxXxXxXxXxXxXK U * < 2 K / | R._.E.aXlXlXaXE.OX!.G ( ( ~ ^ K W.(.(.L.R.K.8XlX].].lXlXkXV.3XlX;XF.U xXxXxXxXxXxXxXxXxXxXxXxXxXxXxXxXxXxX",
"xXxXxXxXxXxXxXxXxXxXxXxXxXxXxXxXxXxXxXxXxXZ , * 4 C K -.a.) @X7X5X$Xq.K.C.L M , , , , +.f.R.8XaXL.T.[.O b.lXlXlXaXjXlX;XB.U xXxXxXxXxXxXxXxXxXxXxXxXxXxXxXxXxXxX",
"xXxXxXxXxXxXxXxXxXxXxXxXxXxXxXxXxXxXxXxXxXP C 3 * , T V V B s.P.A.OX7X6X>XN 3 i 5 , , / d.Z.aXlX8X1X].[.,XlXlXlXlXkXaX$XF.P xXxXxXxXxXxXxXxXxXxXxXxXxXxXxXxXxXxX",
"xXxXxXxXxXxXxXxXxXxXxXxXxXxXxXxXxXxXxXxXxX( ~ G j h p }  .Z G._.L.8XlXlXdX$ z j / ( G /.'.R.pXlXlXlXlXlXlXkXlXkXlXeX6./.U.P xXxXxXxXxXxXxXxXxXxXxXxXxXxXxXxXxXxX",
"xXxXxXxXxXxXxXxXxXxXxXxXxXxXxXxXxXxXxXV #.Q.i.B # o o o $ D V K V.L.A.kXkXZ.) B B $.Q.jXlXlXlXlXlXlXlXlXkX(.(.W.Q.W./.(.R._ xXxXxXxXxXxXxXxXxXxXxXxXxXxXxXxXxXxX",
"xXxXxXxXxXxXxXxXxXxXxXxXxXxXxXxXxXxXxXV ,.`.H.T.0X0X0X0X0XyX0XyXfXfXfX5X5XaXiXyXyX<Xq.;X3X3X2X3XlXfX;X5X>XK.7XaXaX7XL.z.-.xXxXxXxXxXxXxXxXxXxXxXxXxXxXxXxXxXxXxX",
"xXxXxXxXxXxXxXxXxXxXxXxXxXxXxXxXxXxXxXV *.G.H.*XlXlXlXlXlXlXlXlXfXfXfX3X7XlXlXlXlXhX2X3X2X2X>X3XlXfX;X/.L.A.aXlXlXaXI.:.B xXxXxXxXxXxXxXxXxXxXxXxXxXxXxXxXxXxXxX",
"xXxXxXxXxXxXxXxXxXxXxXxXxXxXxXxXxXxXxXxXxXD h._.kXlXlXzXlXlXlXkXW.K.Z.kXlXlXlXlXlXlXlXlXlXlXlXlXlXlXlX2XQ.Q.uXlXlXuXK.:.V xXxXxXxXxXxXxXxXxXxXxXxXxXxXxXxXxXxXxX",
"xXxXxXxXxXxXxXxXxXxXxXxXxXxXxXxXxXxXxXxXxXP D.OXzXlXlXlXlXlXlXzXQ.K.K.hXlXlXlXlXlXlXlXlXlXlXlXlXlXlXlXOXOXlXlXlXlX9XN | K K xXxXxXxXxXxXxXxXxXxXxXxXxXxXxXxXxXxX",
"xXxXxXxXxXxXxXxXxXxXxXxXxXxXxXxXxXxXxXxXxXxX` c.lXfX3X2X8XlXlXlXfXaXaXkXlXlXlXlXlXlXlXlXlXlXlXlXlXlXlXfXfXlXuX3XlXuX<.O.4 W xXxXxXxXxXxXxXxXxXxXxXxXxXxXxXxXxXxX",
"xXxXxXxXxXxXxXxXxXxXxXxXxXxXxXxXxXxXxXxXxXxX` c.lXpX4.$X8XlXhXaXfXjXlXlXlXlXlXlXlXlXlXlXlXlXlXlXlXlXlXlXlXlX3X0.lXaXI.w.; 1 xXxXxXxXxXxXxXxXxXxXxXxXxXxXxXxXxXxX",
"xXxXxXxXxXxXxXxXxXxXxXxXxXxXxXxXxXxXxXxXxXP D.'.lXaXR.kXlXlX8XK.K.7XlXlXlXlXlXlXlXlXlXlXlXlXlXlXlXlXlXlXlXlX8X_.lXpXK.w.- q xXxXxXxXxXxXxXxXxXxXxXxXxXxXxXxXxXxX",
"xXxXxXxXxXxXxXxXxXxXxXxXxXxXxXxXxXxXxXxXxXS h.OXlXlXkXlXlXlXlXlXlXlXlXlXlXlXlXlXlXlXlXlXlXlXlXlXlXlXlXlXlXlXlXkXlXuXK.{ - _ xXxXxXxXxXxXxXxXxXxXxXxXxXxXxXxXxXxX",
"xXxXxXxXxXxXxXxXxXxXxXxXxXxXxXxXxXxXxXD #.G.H._.kXlXlXlXlXlXlXlXlXlXlXlXlXlXlXlXlXlXlXlXlXlXlXlXlXlXlXlXlXlXlXlXlXaXP.p.7 xXxXxXxXxXxXxXxXxXxXxXxXxXxXxXxXxXxXxX",
"xXxXxXxXxXxXxXxXxXxXxXxXxXxXxXxXxXxXxXV ,.`.W.).lXlXlXlXlXlXlXlXlXlXlXlXlXlXlXlXlXlXlXlXlXlXlXlXlXlXlXlXlXlXlXlXfX5XM.-.xXxXxXxXxXxXxXxXxXxXxXxXxXxXxXxXxXxXxXxX",
"xXxXxXxXxXxXxXxXxXxXxXxXxXxXxXxXxXxXxXD #.W.R._.kXlXlXlXlXlXlXlXlXlXlXlXlXlXlXlXlXlXlXlXlXlXlXlXlXlXlXlXlXlXlXkXW.<.D xXxXxXxXxXxXxXxXxXxXxXxXxXxXxXxXxXxXxXxXxX",
"xXxXxXxXxXxXxXxXxXxXxXxXxXxXxXxXxXxXxXxXxXK G.'.Q.wXlXlXlXlXlXlXlXlXlXlXlXlXlXlXlXlXlXlXlXlXlXlXlXlXlXlXlXlXwXQ.'.G.P xXxXxXxXxXxXxXxXxXxXxXxXxXxXxXxXxXxXxXxXxX",
"xXxXxXxXxXxXxXxXxXxXxXxXxXxXxXxXxXxXxXxXxXP >.h.] ~.6XkXlXlXlXlXlXlXlXlXlXlXlXlXlXlXlXlXlXlXlXlXlXlXlXlXjX5X~.] B.-.xXxXxXxXxXxXxXxXxXxXxXxXxXxXxXxXxXxXxXxXxXxX",
"xXxXxXxXxXxXxXxXxXxXxXxXxXxXxXxXxXxXxXxXxXK V V B =.Z.hXlXlXlXlXlXlXlXlXlXlXlXlXlXlXlXlXlXlXlXlXlXlXlXlXjXZ.=.B V xXxXxXxXxXxXxXxXxXxXxXxXxXxXxXxXxXxXxXxXxXxXxX",
"xXxXxXxXxXxXxXxXxXxXxXxXxXxXxXxXxXxXxXxXxXxXxXxXV f.Q.hXlXlXlXlXlXlXlXlXlXlXlXlXlXlXlXlXlXlXlXlXlXlXlXlXfXQ.f.V xXxXxXxXxXxXxXxXxXxXxXxXxXxXxXxXxXxXxXxXxXxXxXxX",
"xXxXxXxXxXxXxXxXxXxXxXxXxXxXxXxXxXxXxXxXxXxXxXxXD h.Q.kXlXlXlXlXlXlXlXlXlXlXlXlXlXlXlXlXlXlXlXlXlXlXlX2XW.`.h.D xXxXxXxXxXxXxXxXxXxXxXxXxXxXxXxXxXxXxXxXxXxXxXxX",
"xXxXxXxXxXxXxXxXxXxXxXxXxXxXxXxXxXxXxXxXxXxXxXxXxX*.2.%XtXlXlXlXlXlXlXlXlXlXlXlXlXlXlXlXlXlXlXlXlXlXlX;XK.j.*.xXxXxXxXxXxXxXxXxXxXxXxXxXxXxXxXxXxXxXxXxXxXxXxXxX",
"xXxXxXxXxXxXxXxXxXxXxXxXxXxXxXxXxXxXxXxXxXxXxXxXxXxXP ' !.fXaXaXlXlXlXlXlXlXlXlXlXlXlXlXlXlXlXlXaXaXfX@Xj.P xXxXxXxXxXxXxXxXxXxXxXxXxXxXxXxXxXxXxXxXxXxXxXxXxXxX",
"xXxXxXxXxXxXxXxXxXxXxXxXxXxXxXxXxXxXxXxXxXxXxXxXxXxXI V ..K.C.W.kXlXlXlXlXlXlXlXlXlXlXlXlXzXlXkXR.A.K.^ V I xXxXxXxXxXxXxXxXxXxXxXxXxXxXxXxXxXxXxXxXxXxXxXxXxXxX",
"xXxXxXxXxXxXxXxXxXxXxXxXxXxXxXxXxXxXxXxXxXxXxXxXxXxXxXK [ $...:.Q.tXlXlXlXlXlXlXlXlXlXlXjX'.*X_.+.X.$.xXxXxXxXxXxXxXxXxXxXxXxXxXxXxXxXxXxXxXxXxXxXxXxXxXxXxXxXxX",
"xXxXxXxXxXxXxXxXxXxXxXxXxXxXxXxXxXxXxXxXxXxXxXxXxXxXxXxXxXxXxXxX[ ^.:X3X6X6X6X6X6X6X6X6X>X%.,.,._ G xXxXxXxXxXxXxXxXxXxXxXxXxXxXxXxXxXxXxXxXxXxXxXxXxXxXxXxXxXxX",
"xXxXxXxXxXxXxXxXxXxXxXxXxXxXxXxXxXxXxXxXxXxXxXxXxXxXxXxXxXxXxXxXV B 8 %.8.8.8.8.8.8.8.8.<.B B D G xXxXxXxXxXxXxXxXxXxXxXxXxXxXxXxXxXxXxXxXxXxXxXxXxXxXxXxXxXxXxX",
"xXxXxXxXxXxXxXxXxXxXxXxXxXxXxXxXxXxXxXxXxXxXxXxXxXxXxXxXxXxXxXxXxXxXxXR Y Z Z Z Z Z Z Y Z xXxXxXxXxXxXxXxXxXxXxXxXxXxXxXxXxXxXxXxXxXxXxXxXxXxXxXxXxXxXxXxXxXxXxX"
};
