/* XPM */
static char *_1032_45fe258526303f0c8974bb27d233db09a767d2d172a27fd63295f8546635f981[] = {
/* columns rows colors chars-per-pixel */
"80 80 231 2 ",
"   c #890000",
".  c #971802",
"X  c #900003",
"o  c #A01A10",
"O  c #9C2A06",
"+  c #9E3708",
"@  c #9E3C1D",
"#  c #A12605",
"$  c #A6370A",
"%  c #BC3A03",
"&  c #B02F0F",
"*  c #C80000",
"=  c #D13A00",
"-  c #AD4605",
";  c #B84903",
":  c #B65401",
">  c #BB5C01",
",  c #B65806",
"<  c #BA4615",
"1  c #BE5217",
"2  c #A34224",
"3  c #CB4602",
"4  c #CC4C03",
"5  c #CB4E0A",
"6  c #C85501",
"7  c #D15904",
"8  c #CB551D",
"9  c #CE5C1C",
"0  c #C85514",
"q  c #D25E1B",
"w  c #D35C17",
"e  c #C76704",
"r  c #DA6F0D",
"t  c #D66905",
"y  c #DE7405",
"u  c #DC720C",
"i  c #D77802",
"p  c #D56A15",
"a  c #D96E12",
"s  c #D3631B",
"d  c #D56A1C",
"f  c #DC6A1B",
"g  c #D66416",
"h  c #DB7314",
"j  c #DF7A13",
"k  c #D9711A",
"l  c #DD7919",
"z  c #CE6111",
"x  c #E37B00",
"c  c #EC7E00",
"v  c #E67806",
"b  c #E96A1C",
"n  c #E27C13",
"m  c #E17D1A",
"M  c #E77817",
"N  c #F1731E",
"B  c #E46D00",
"V  c #CE5E21",
"C  c #CB5725",
"Z  c #D15C26",
"A  c #CE6021",
"S  c #CE6229",
"D  c #D56B24",
"F  c #D66520",
"G  c #C96F31",
"H  c #DD8000",
"J  c #E68201",
"K  c #EC8500",
"L  c #ED8B00",
"P  c #E4830C",
"I  c #EC8C0C",
"U  c #EB860D",
"Y  c #F28B00",
"T  c #F2890F",
"R  c #EF9202",
"E  c #EF940B",
"W  c #F19401",
"Q  c #FA9502",
"!  c #F39901",
"~  c #FE9B02",
"^  c #F1960B",
"/  c #F3980C",
"(  c #FF9E0E",
")  c #E48313",
"_  c #EE8E13",
"`  c #EC8D19",
"'  c #E58619",
"]  c #F38716",
"[  c #EF9314",
"{  c #EE931C",
"}  c #F09614",
"|  c #F29A14",
" . c #F1961A",
".. c #F19A1C",
"X. c #FB9D1C",
"o. c #FF9E11",
"O. c #F3A401",
"+. c #FFA302",
"@. c #FAA805",
"#. c #F9B900",
"$. c #FFA113",
"%. c #FFA11A",
"&. c #FEAA1D",
"*. c #F9A818",
"=. c #DD893C",
"-. c #DF9431",
";. c #E18322",
":. c #E98D26",
">. c #ED9328",
",. c #E59523",
"<. c #F19C24",
"1. c #F19C2B",
"2. c #F39921",
"3. c #E58934",
"4. c #E5963B",
"5. c #EA9639",
"6. c #F09A34",
"7. c #F3A325",
"8. c #F3A32D",
"9. c #F9AB28",
"0. c #EFA43C",
"q. c #F3A534",
"w. c #F4AA33",
"e. c #FCAB33",
"r. c #F4A43D",
"t. c #F4AB3C",
"y. c #F8AE3E",
"u. c #F6B33E",
"i. c #F9BE3A",
"p. c #FCB739",
"a. c #FFCE00",
"s. c #FECB19",
"d. c #FFD126",
"f. c #FCC136",
"g. c #FCC23B",
"h. c #FECE3A",
"j. c #FFD23B",
"k. c #FFD134",
"l. c #FFCF25",
"z. c #E99A46",
"x. c #D9A04B",
"c. c #EAA24A",
"v. c #E5A748",
"b. c #F4AD42",
"n. c #F6A347",
"m. c #F6B145",
"M. c #FBB444",
"N. c #FDBB44",
"B. c #F6B449",
"V. c #FAB549",
"C. c #F7B94D",
"Z. c #FBBB4C",
"A. c #F4A652",
"S. c #F8BE54",
"D. c #F2BC5C",
"F. c #F9BA57",
"G. c #EDB458",
"H. c #F1A666",
"J. c #F7BC68",
"K. c #FBC444",
"L. c #FDCD4D",
"P. c #FEC448",
"I. c #FFD143",
"U. c #FFD24C",
"Y. c #FAC256",
"T. c #FCCA52",
"R. c #FAC45A",
"E. c #FCCA5D",
"W. c #F6C15C",
"Q. c #FFD354",
"!. c #FFD45B",
"~. c #FFDA5C",
"^. c #FFD856",
"/. c #F9C465",
"(. c #FCCC62",
"). c #F6C360",
"_. c #FED464",
"`. c #FFDA65",
"'. c #FFD66C",
"]. c #FFDA6E",
"[. c #FBC97B",
"{. c #FFD772",
"}. c #FFDB72",
"|. c #FFDA7C",
" X c #FED778",
".X c #FFE275",
"XX c #FFE07C",
"oX c #F4B685",
"OX c #F3B895",
"+X c #E4A485",
"@X c #E6B2A3",
"#X c #FFDC85",
"$X c #FFDD8B",
"%X c #F7C898",
"&X c #FEDD96",
"*X c #FFDF99",
"=X c #FBD496",
"-X c #FBCD82",
";X c #FFE183",
":X c #FFE193",
">X c #FFE19C",
",X c #F5C6A9",
"<X c #F6C8AA",
"1X c #FDDDA3",
"2X c #FBDAAD",
"3X c #F7D2BC",
"4X c #FFE3A5",
"5X c #FFE5AC",
"6X c #FFE8AE",
"7X c #FFE6B4",
"8X c #FFE9B3",
"9X c #FFE7B9",
"0X c #FFE9BB",
"qX c #F8D9C6",
"wX c #F4DDD6",
"eX c #ECCFCD",
"rX c #FEEBC4",
"tX c #FFECCB",
"yX c #FBE5C7",
"uX c #FFEED1",
"iX c #FFF0D5",
"pX c #FFF2DB",
"aX c #FFF1CA",
"sX c #FAE9E4",
"dX c #FFF5E3",
"fX c #FEF5EB",
"gX c #FFF9EE",
"hX c #FFFAE7",
"jX c #FFFBF4",
"kX c #FFFEFE",
"lX c None",
/* pixels */
"lXlXlXlXlXlXlXlXlXlXlXlXlXlXlXlXlXlXlXlXlXlXlXlXlXlXlXW W lXlXlXlXlXlXlXlXlXlXlXlXlXlXlXlXlXlXlXlXlXlXlXlXlXlXlXlXlXlXlXlXlXlXlXlXlXlXlXlXlXlXlXlXlXlXlXlXlXlXlX",
"lXlXlXlXlXlXlXlXlXlXlXlXlXlXlXlXlXlXlXlXlXlXlXlXlXlXlXlXlXlXlXlXlXlXlXlXlXlXlXlXlXlXlXs s lXlXlXlXlXlXlXlXlXlXlXlXlXlXlXlXlXlXlXlXlXlXlXlXlXlXlXlXlXlXlXlXlXlXlX",
"lXlXlXlXlXlXlXlXlXlXlXlXlXlXlXlXlXlXlXlXlXlXlXlXlXlXlXlXlXlXlXlXlXlXlXlXlXlXlXlXlXlXlXs q lXlXlXlXlXlXlXlXlXlXlXlXlXlXlXlXlXlXlXlXlXlXlXlXlXlXlXlXlXlXlXlXlXlXlX",
"lXlXlXlXlXlXlXlXlXlXlXlXlXlXlXlXlXlXlXlXlXlXlXlXlXlXlXlXlXlXlXlXlXlXlXlXlXlXlXlXlXlXlXlXlXlXlXlXlXlXlXR W lXlXlXlXlXlXlXlXlXlXlXlXlXlXlXlXlXlXlXlXlXlXlXlXlXlXlX",
"lXlXlXlXlXlXlXlXlXlXlXlXlXlXlXlXlXlXlXlXlXlXlXlXlXlXlXlXlXlXlXlXL Y _ I I E E T [ L L lXlXlXlXlXlXlXlXlXlXlXlXlXlXlXlXlXlXlXlXlXlXlXlXlXlXlXlXlXlXlXlXlXlXlXlXlX",
"lXlXlXlXlXlXlXlXlXlXlXlXlXlXlXlXlXlXlXlXlXlXlXR lXlXlXlXlXL K Y Y.L.f.g.g.g.g.g.g.P.E.<.K L L W R R R R lXlXlXlXlXlXlXlXlXlXlXlXlXlXlXlXlXlXlXlXlXlXlXlXlXlXlXlX",
"lXlXlXlXlXlXlXlXlXlXlXlXlXlXlXlXlXlXlXlXlXlXlXR lXlXlXlX1.N.p.Z._.:X0X8X8X8X7X8X7X>X'.S.M.N.9.~ ~ ~ ~ +.W lXlXlXlXlXlXlXlXlXlXlXlXlXlXlXlXlXlXlXlXlXlXlXlXlXlXlX",
"lXlXlXlXlXlXlXlXlXlXlXlXlXlXlXlXlXlXlXlXlXlXlXlXlXlXlXL p.}.}.}.Q.9XkXkXkXkXkXkXkXiXU.}.}.}.m.L E R R R R @.lXlXlXlXlXlXlXlXlXlXlXlXlXlXlXlXlXlXlXlXlXlXlXlXlXlX",
"lXlXlXlXlXlXlXlXlXlXlXlXlXlXlXlXlXlXlXlXlXlXR ! R R R L 7.'.'.'.'.}.}.gXkXkXkXkXkXpXQ.}.(.E E L q j ! I I E _ I L Y ^ R R lXlXlXlXlXlXlXlXlXlXlXlXlXlXlXlXlXlXlX",
"lXlXlXlXlXlXlXlXlXlXlXlXlXlXlXlXlXlXlXlXlXlXE +.W W W S.(.].].'.'.]._.4X7X4XfXkX7X:X_.}.(.L R R P J L p.i.f.g.g.E.V.Y ! R R lXlXlXlXlXlXlXlXlXlXlXlXlXlXlXlXlXlX",
"lXlXlXlXlXlXlXlXlXlXlXlXlXlXlXlXlXlXlXlXlXlXR Q R R L S.(.W.R.R.Y.(.'.!.!.j.0XpX!.!.'.E.C.W R R R <.8.>X7X8X8X5X}.R.t.{ R +.lXlXlXlXlXlXlXlXlXlXlXlXlXlXlXlXlXlX",
"lXlXlXlXlXlXlXlXlXlXlXlXlXlXlXlXlXlX+.Q $.%.| | } {  .R R L L L L b.'.'.'.}._.Q.{.'.'.q.L E } ..[ F.XXjXkXkXkXkX#X}.}.t.R ~ lXlXlXlXlXlXlXlXlXlXlXlXlXlXlXlXlXlX",
"lXlXlXlXlXlXlXlXlXlXlXlXlXlXlXlXlXlXo.L 8.'.'.'.'.'._.'.(.L _ [ L R [ (.}.'.'.}.}.S.K (.(.c S.}.s.5XkXjXkXkXkXkXkXiXQ.}.E.~ lXlXlXlXlXlXlXlXlXlXlXlXlXlXlXlXlXlX",
"lXlXlXlXlXlXlXlXlXlXlXlXlXlXlXlXW Y Y C.E.'._.Q.Q.`.}._.U.i.i.i.E.b.K 8.C.'.].'.'._.Y.'.'.R.t.G.pXjXkXkXkXkXkXkX0X>X_.}.(.Q lXlXlXlXlXlXlXlXlXlXlXlXlXlXlXlXlXlX",
"lXlXlXlXlXlXlXlXlXlXlXlXlXlXlXlXR 9.b._.}.!.&X7X7X&Xi.1X7X8X8X5X}.R.t.w.B.'.'.'.'.'.}.'.'.}.Z.B.pXdXpXpXdXkXgXuX_.!.'.'.(.N.q.lXlXlXlXlXlXlXlXlXlXlXlXlXlXlXlXlX",
"lXlXlXlXlXlXlXlXlXlXlXlXlXlXlXlXL V.}.'.{.'.pXkXkXwXc fXkXkXkXkX#X{.}.}.'.'.'.'.'.'.'.'.'.'.'.].Q.Q.!.j.$XkX5Xk.}.'.'.'.'.].V.Y lXlXlXlXlXlXlXlXlXlXlXlXlXlXlXlX",
"lXlXlXlXlXlXlXlXlXlXlXlXlXlXlXlXL m.}.!.>XkXkXkXkXkXkXkXkXkXkXkXkXiXQ.}.'.}.m. .'.].].}.].}.].'.{.}.}.{.].|. X'.}.].]..X_.~ lXlXlXlXlXlXlXlXlXlXlXlXlXlXlXlXlXlX",
"lXlXlXlXlXlXlXlXlXlXlXlXlXlXlXlXY N.}.!.>XkXkXjX7X5X4XgXkXkXkXkX0X*X`.'.'.].b.K t.m.b.t.u.t.b.b.b.t.t.'.}.'.].'.m.u.t.m.q.~ lXlXlXlXlXlXlXlXlXlXlXlXlXlXlXlXlXlX",
"lXlXlXlXlXlXlXlXlXlXlXlXlXlXlXlXK S.}.!.*XkXkXkX_.|.4XjXkXpXpXiX_.!.'.'.'.].Y.t.R L L L L L L L L L K C.R.R.R.Y.J x x L L ~ lXlXlXlXlXlXlXlXlXlXlXlXlXlXlXlXlXlX",
"lXlXlXlXlXlXlXlXlXlXlXlXlXlXlXlXlXlX.X!.&XkXkXjX'.0XkXkXdXI.!.!.'.'.'._.'.'.].'.| R } E E E ,.1.1.<. .E R L L L s A q :...( lXlXlXlXlXlXlXlXlXlXlXlXlXlXlXlXlXlX",
"lXlXlXlXlXlXlXlXlXlXlXlXlXlXlXlXlXlX$.(.}.XX|.|.].]. X}.|.'.'.'.'.'.}.q.q.}.'.'.2.L L L [ J N.Q.L.!.{.].R.R l A L [ :.K K Y y 9 lXlXlXlXlXlXlXlXlXlXlXlXlXlXlXlX",
"lXlXlXlXlXlXlXlXlXlXlXlXlXlXlXlXlXlX~ w.m.8.E.].].].].].'.}.].]..X(.t.[ [ t.E.'.L q.E.K.g.#.7XdXdX9Xk.{.(.L J P [ Y c qXyXT.5.0 lXlXlXlXlXlXlXlXlXlXlXlXlXlXlXlX",
"lXlXlXlXlXlXlXlXlXlXlXlXlXlXlXlXlXlX+.J x L m.E.R.R.R.R.R.R.D.D.D.b.L R E K Y.}.t.W.].4X0X4XfXkXkXfX4X#X(.m.7.R R H.%XkXjX`.c.5 lXlXlXlXlXlXlXlXlXlXlXlXlXlXlXlX",
"lXlXlXlXlXlXlXlXlXlXlXlXlXlXlXlXlXlX! d d E L L J L K K L L t 5 3 y [ E E L Y.'.'.'.!.jXkXkXkXjXjXkXkX*X!.}.m._ L <XkXkXdX'.z.5 lXlXlXlXlXlXlXlXlXlXlXlXlXlXlXlX",
"lXlXlXlXlXlXlXlXlXlXlXlXlXlXlXlXlXlXlXL ! ^ y 5 2 @ $ $ + + + + A 9 6 J L L L 1.'.].!.gXkXkXkXkX$X X X}._.E [ >.c ,XkX&X!.}.c.4 lXlXlXlXlXlXlXlXlXlXlXlXlXlXlXlX",
"lXlXlXlXlXlXlXlXlXlXlXlXlXlXlXlXlXlXlXW ~ L b.G.% & % % % % % < y 5.D.R.R.(.w.W t.Y.].4X7X8X8X6X'.`.].B.1.K 9.K.#.2XkXdXrX].c.3 lXlXlXlXlXlXlXlXlXlXlXlXlXlXlXlX",
"lXlXlXlXlXlXlXlXlXlXlXlXlXlXlXlXlXlXlXL X.w.(.}.@X+X,.z.4.4.4.4.w.R..X].'.(.0.J J m.}.K.f.g.f.K.'._.Y.b.0.@.=X0X5XiXkXkXgX`.c.t lXlXlXlXlXlXlXlXlXlXlXlXlXlXlXlX",
"lXlXlXlXlXlXlXlXlXlXlXlXlXlXlXlXlXlXN I t.}.'.|.kXpX'.#X;XXX;X|.}.'._.'.R.K u V L m.}.1.J _ K { '.Y.K _.XX'.pXkXkXkXkXkXdX`.V.Y N s lXlXlXlXlXlXlXlXlXlXlXlXlXlX",
"lXlXlXlXlXlXlXlXlXlXlXlXlXlXlXlX9 h L E.'.'.!.!.I.7XkXjXjXjXkXjX|._.].t.I A q p R E } d A q s d R B.{.~.>XkXkXkXkXkXkXkXjX`.m.L W n 9 lXlXlXlXlXlXlXlXlXlXlXlXlX",
"lXlXlXlXlXlXlXlXlXlXlXlXlXlXlXlXq n W (.}.!.0XpXpXgXkXkXkXkXpX4X{.'.].8.L U p 9 R R R I P I d 8 t :.B.q.J.7XdXkXkXfX4X7X4X'.m.L ! U b lXlXlXlXlXlXlXlXlXlXlXlXlX",
"lXlXlXlXlXlXlXlXlXlXlXlXlXlXlXlX9 n L (.}.U.pXkXdXgXkXdXpXdX>Xj.'.'.].q.L I j h R R R R R ! P h k i x J 8.d.iXkXdX7Xj.!.!.}.m.L _ h 9 lXlXlXlXlXlXlXlXlXlXlXlXlX",
"lXlXlXlXlXlXlXlXlXlXlXlXlXlXlXlX9 n W R.{.T.iXkXI.5XkX$XI.Q._.{.'.'.'.8.J C ) ! R E } R R R W R ! P V K 0.Q.uXjX_.!.{.'.'.'.m.K f 9 lXlXlXlXlXlXlXlXlXlXlXlXlXlX",
"lXlXlXlXlXlXlXlXlXlXlXlXlXlXlXlXq M ! {  .L ).#X'.}.|.{.'.{.}.'.<.' A I L 3 4 7 K m.}.8.R E R R R E R ! ^ E 6.c.{.R.L '.(.W l s N s lXlXlXlXlXlXlXlXlXlXlXlXlXlX",
"lXlXlXlXlXlXlXlXlXlXlXlXlXlXlXlXlXp ] K 7.R._.].}.}.'.}.}.}.Y.w.E K P i -.D.D.D.E 1.m. .R R P h j t > > e R L L }.Y.Y t.t.R M q lXlXlXlXlXlXlXlXlXlXlXlXlXlXlXlX",
"lXlXlXlXlXlXlXlXlXlXlXlXlXlXlXlXlXlX9 x 1.(.R.R.Y.R.R.Y.Y.E.q.K E R ! 6 G R.E.R.} R L R R R u 8 0 <     - R q.B.R.b.x L Y ! n 9 lXlXlXlXlXlXlXlXlXlXlXlXlXlXlXlX",
"lXlXlXlXlXlXlXlXlXlXlXlXlXlXlXlXlXlXlX9 g K L L L L L L L L R E R R R : O 3 y L R [ ..} [ | l s p 0 $ O , L Y.'.W x C ) W ~ lXlXlXlXlXlXlXlXlXlXlXlXlXlXlXlXlXlX",
"lXlXlXlXlXlXlXlXlXlXlXlXlXlXlXlXlXlXlXlXlXs ) W E E W E E R E R E E W - X . 1 D J t.'.'.'.].b.L W R R p 9 9 P R E ) 8 b f N lXlXlXlXlXlXlXlXlXlXlXlXlXlXlXlXlXlX",
"lXlXlXlXlXlXlXlXlXlXlXlXlXlXlXlXlXlXlXlXlXb T ~ L R R R R E R L L L W H i i i J F.(.}.B.w.t.1.R h k h s g x b.R.[ K I lXlXlXlXlXlXlXlXlXlXlXlXlXlXlXlXlXlXlXlXlX",
"lXlXlXlXlXlXlXlXlXlXlXlXlXlXlXlXlXlXlXlXlX9 P W R W R R R L 8.t.t.q.L ! ! W w.M.'.}.'.B.q.t.2.L h a a a ;.t.(.].R L ` lXlXlXlXlXlXlXlXlXlXlXlXlXlXlXlXlXlXlXlXlX",
"lXlXlXlXlXlXlXlXlXlXlXlXlXlXlXlXlXlXlXlXlXlXlXlXR ! R }  .R R.}.}.Y.L E E L Y.}.'.{.{.}.}..XC.L | | W R q.}.'._.n.3.Z lXlXlXlXlXlXlXlXlXlXlXlXlXlXlXlXlXlXlXlXlX",
"lXlXlXlXlXlXlXlXlXlXlXlXlXlXlXlXlXlXlXlXlXlXlXlXE ! L ).{.'.'.'..XR.K E ^ K S.}.!.!.Q.Q.Q.Q._.'.'.S.L L q.'._. XkXeX* :.6.lXlXlXlXlXlXlXlXlXlXlXlXlXlXlXlXlXlXlX",
"lXlXlXlXlXlXlXlXlXlXlXlXlXlXlXlXlXlXlXlXlXlXlXlXW W R L.!.Q._.'.=.c.E.[ } ).T.`.iXpXpXpXpXdX4X!.}.Y.K R q.}.'.{.5XyXwXA.c L K L lXlXlXlXlXlXlXlXlXlXlXlXlXlXlXlX",
"lXlXlXlXlXlXlXlXlXlXlXlXlXlXlXlXlXlXlXlXlXlXlXlXR R L 1X8X7X$X_.=.G..XB.B.'.:X0XkXkXkXkXkXkX0XU.}.E.t.[ <.R._. Xl.0XkX3XoXN.N.y.lXlXlXlXlXlXlXlXlXlXlXlXlXlXlXlX",
"lXlXlXlXlXlXlXlXlXlXlXlXlXlXlXlXlXlXlXlXlX+.o.%. .2.R sXkXkX0XQ.}.].'.].}.U.pXkXkXkXkXkXkXkX0X_.{.'.}.w.L K C.}.Q.7XjXkXgX`.}.'.&.L lXlXlXlXlXlXlXlXlXlXlXlXlXlX",
"lXlXlXlXlXlXlXlXlXlXlXlXlXlXlXlXlXlXlXlXlXY Y.'.'._.h.fXgX}.}.].'.'.'.'.}.Q.pXkXkXkXkXkXkXkXkXjX|._.'.r.[ E [  .L C.|.|.}.'.'._.%.R lXlXlXlXlXlXlXlXlXlXlXlXlXlX",
"lXlXlXlXlXlXlXlXlXlXlXlXlXlXlXlXlXlXlXW W K Y.}.!.5XpXkXgXO.t.m.'.'.'.].'.`.>X7X4XiXkXkXjX5X7X7X{.'.].! K [ R E F.E.'.'.'.}.'.'.%.L lXlXlXlXlXlXlXlXlXlXlXlXlXlX",
"lXlXlXlXlXlXlXlXlXlXlXlXlXlXlXlXlXlXlXW 9.t.R.}.U.0XkXsX3XL L E _.'.'.'.'.'.`.Q.j.*XdXdXtXU.Q.Q.'.'.'.%XOXL R  .'.}.'.E.Y.W._.'.%.R lXlXlXlXlXlXlXlXlXlXlXlXlXlX",
"lXlXlXlXlXlXlXlXlXlXlXlXlXlXlXlXlXlXlXL e.}.'.}.Q.7XkXH.K >.R  ._.'.'.'.'.'.'.}.}.'.Q.Q.!.{.{.}.'.'.`.jXfXL R  ._.'.'.q.L K Y.'.$.R lXlXlXlXlXlXlXlXlXlXlXlXlXlX",
"lXlXlXlXlXlXlXlXlXlXlXlXlXlXlXlXlXlXlXL e.}.'.'.'.Y.z.6.{ L L R L m.{.'.'.'.'.'.'.'.}.'.'.}.}.'.}.`.U._.R.L R E R B.].].(.L S.{.$.L lXlXlXlXlXlXlXlXlXlXlXlXlXlX",
"lXlXlXlXlXlXlXlXlXlXlXlXlXlXlXlXlXlXlXR &.t.(.}..XY.K Y ..R.R.R.F.E.].'.].].].].}.'.'.}.'.q.(.}.O.=XhXhXtXL W | L m.].C.w.K W.}.$.R lXlXlXlXlXlXlXlXlXlXlXlXlXlX",
"lXlXlXlXlXlXlXlXlXlXlXlXlXlXlXlXlXlXlXW R K m.R.E.B.L q.C.}.].].}.].'.(.R.R.R.R.Y.(.}.(.C.K B.R.K OXsXsXqXL I ' L m.}.<.R m.C.R.$.L lXlXlXlXlXlXlXlXlXlXlXlXlXlX",
"lXlXlXlXlXlXlXlXlXlXlXlXlXlXlXlXlXlXlXlXlX/ L L L L L (.].].'.'._.'.'.7.K L L L K t.'.<.K [ L K [ L K K K E h 9 K b.}.1.1.}.b.K ^ W lXlXlXlXlXlXlXlXlXlXlXlXlXlX",
"lXlXlXlXlXlXlXlXlXlXlXlXlXlXlXlXlXlXlXlXlX+.M s s l ! R q.'.'.'.[ R ../ [ s ' ^ E E  .^ I s d p R E >.X.:.g d g s m ..W W | ^ ^ lXlXlXlXlXlXlXlXlXlXlXlXlXlXlXlX",
"lXlXlXlXlXlXlXlXlXlXlXlXlXlXlXlXlXlXlXlXlXlXd s 4 z h K q..XY.0.E.v.: > , o i Y R R R n p # 0 A k h l e : $ $ & & 1 v n h v Q W lXlXlXlXlXlXlXlXlXlXlXlXlXlXlXlX",
"lXlXlXlXlXlXlXlXlXlXlXlXlXlXlXlXlXlXlXlXlXlXu M z.=.0 v >.E.q.L E.x.  $ - ; 4.b.R R R p 0 > 0 s u z < . . & : > : > V q q 8 n W lXlXlXlXlXlXlXlXlXlXlXlXlXlXlXlX",
"lXlXlXlXlXlXlXlXlXlXlXlXlXlXlXlXlXlXlXlXlXlXW $.].D.4 s p L L E L i O 9 h W Y.}.| R R k k 7.l s } H . + - s ` ..n.3.0 s s lXlXlXlXlXlXlXlXlXlXlXlXlXlXlXlXlXlXlX",
"lXlXlXlXlXlXlXlXlXlXlXlXlXlXlXlXlXlXlXlXlXlXL *.'.Y.L k s A ' W L L K R [ K W.'.R x 8 J L K L { '.Y.K d d L B.}.kXeX= lXlXlXlXlXlXlXlXlXlXlXlXlXlXlXlXlXlXlXlXlX",
"lXlXlXlXlXlXlXlXlXlXlXlXlXlXlXlXlXlXlXlXlXlXlXlX}.Y.L d w x K R R.R.R.<.L L Y.].E.b.x u.-XsXOXL B.q.R J J L Y.}.7X%Xc lXlXlXlXlXlXlXlXlXlXlXlXlXlXlXlXlXlXlXlXlX",
"lXlXlXlXlXlXlXlXlXlXlXlXlXlXlXlXlXlXlXlXlXlXlXlX}.Y.L j ;.m.t.m.R._.}.C.q.L Y.]..XR.L E.:XgX%XK I L R t.t.L R.].Q.N.! lXlXlXlXlXlXlXlXlXlXlXlXlXlXlXlXlXlXlXlXlX",
"lXlXlXlXlXlXlXlXlXlXlXlXlXlXlXlXlXlXlXlXlXlXlXlX}.Y.L R w.].}.'.L t.{.}.'.L W.].'.F.L (.].'.u.L E [ E (.(.L C.'.}.Y.Y lXlXlXlXlXlXlXlXlXlXlXlXlXlXlXlXlXlXlXlXlX",
"lXlXlXlXlXlXlXlXlXlXlXlXlXlXlXlXlXlXlXlXlXlXlXlX].Y.K W q.{.!.L.L m.}.!.K.B N.}.'.F.K T.>XkX,XK [ m.}.w.R R E 1.'.S.Y lXlXlXlXlXlXlXlXlXlXlXlXlXlXlXlXlXlXlXlXlX",
"lXlXlXlXlXlXlXlXlXlXlXlXlXlXlXlXlXlXlXlXlXlXlXlX]._.Y.<.8.j.rXdX/.E.'.rXpXsX1X!.}._.Y.h.$XkX<XK K w.~.| K ^ L R '._.E.lXlXlXlXlXlXlXlXlXlXlXlXlXlXlXlXlXlXlXlXlX",
"lXlXlXlXlXlXlXlXlXlXlXlXlXlXlXlXlXlXlXlXlXlXlXlX].].}.*.c.7XuXdX}.`.!.jXkXhX5X!.'.'.'.>XrXkX,XL q.[.0XJ.8.L <.u.'.'..XlXlXlXlXlXlXlXlXlXlXlXlXlXlXlXlXlXlXlXlXlX",
"lXlXlXlXlXlXlXlXlXlXlXlXlXlXlXlXlXlXlXlXlXlXlXlX].]. X! oXkX9XI.#X|.{.gXgXQ.'.].|.|.!.jXkXkX<XR ^.0XkX>XL.{ /.;X'.'.'.lXlXlXlXlXlXlXlXlXlXlXlXlXlXlXlXlXlXlXlXlX",
"lXlXlXlXlXlXlXlXlXlXlXlXlXlXlXlXlXlXlXlXlXlXlXlX}.}.'.j.$XkXkXjXkXjXkXkXkXkX7X_.kXiXU.fXkXkX9XQ.{.}.;Xn.1.d.aXjX|.T.~ lXlXlXlXlXlXlXlXlXlXlXlXlXlXlXlXlXlXlXlXlX",
"lXlXlXlXlXlXlXlXlXlXlXlXlXlXlXlXlXlXlXlXlXlXlXlXt.Y.`.tXgXkXkXkXkXkXkXkXkXkX7XU.kXiXa.hXkXkX0XQ.!.g.! #.[.pXjXkXJ.*.lXlXlXlXlXlXlXlXlXlXlXlXlXlXlXlXlXlXlXlXlXlX",
"lXlXlXlXlXlXlXlXlXlXlXlXlXlXlXlXlXlXlXlXlXlXlXlXK M.].iXdXpXpXpXkXkXkXkXkXkXuX5XkXdX4XjXkXkX9XQ.7X2XOX2XaXkXkXkXn.Y lXlXlXlXlXlXlXlXlXlXlXlXlXlXlXlXlXlXlXlXlXlX",
"lXlXlXlXlXlXlXlXlXlXlXlXlXlXlXlXlXlXlXlXlXlXlXlXL m.'.Q.U.Q.!. XjXkXjXkXkXkXkXkXkXkXkXkXkXkX9X}.kXkXkXkXkXjXkXjXn.L lXlXlXlXlXlXlXlXlXlXlXlXlXlXlXlXlXlXlXlXlXlX",
"lXlXlXlXlXlXlXlXlXlXlXlXlXlXlXlXlXlXlXlXlXlXlXlXlXlX&.2.V.~.pXkX#X|.}.jXkXkXkXkXkXkXkXkXkXkXkXkX{.0XkX*X*XkXrX`.e.R lXlXlXlXlXlXlXlXlXlXlXlXlXlXlXlXlXlXlXlXlXlX",
"lXlXlXlXlXlXlXlXlXlXlXlXlXlXlXlXlXlXlXlXlXlXlXlXlXlXlXlXlX9.=X7X'.`.`.4X7X7X5X7XkXfX4X7X5X8X7X8X'.$X9X}. X0X[.O.lXlXlXlXlXlXlXlXlXlXlXlXlXlXlXlXlXlXlXlXlXlXlXlX",
"lXlXlXlXlXlXlXlXlXlXlXlXlXlXlXlXlXlXlXlXlXlXlXlXlXlXlXlXlXY i.!.R.R.R.T.Q.Q.Q.`.pX9Xj.!.Q.i.g.i.R.R.Q.'.'.g.9.L lXlXlXlXlXlXlXlXlXlXlXlXlXlXlXlXlXlXlXlXlXlXlXlX",
"lXlXlXlXlXlXlXlXlXlXlXlXlXlXlXlXlXlXlXlXlXlXlXlXlXlXlXlXlXY Y.}.{ L L (.{.'.'.'.Q.!.{.{.).L _ [ L m.}.'.R.L E R lXlXlXlXlXlXlXlXlXlXlXlXlXlXlXlXlXlXlXlXlXlXlXlX",
"lXlXlXlXlXlXlXlXlXlXlXlXlXlXlXlXlXlXlXlXlXlXlXlXlXlXlXlXlX~ Y..X'.Y.R  . .| } ..<...| { } E } ` K m.'.}.(.+.lXlXlXlXlXlXlXlXlXlXlXlXlXlXlXlXlXlXlXlXlXlXlXlXlXlX",
"lXlXlXlXlXlXlXlXlXlXlXlXlXlXlXlXlXlXlXlXlXlXlXlXlXlXlXlXlXlXq.N.'.F.K L J a r r p a a L W K 9.i.R.(..XZ.t.lXlXlXlXlXlXlXlXlXlXlXlXlXlXlXlXlXlXlXlXlXlXlXlXlXlXlX",
"lXlXlXlXlXlXlXlXlXlXlXlXlXlXlXlXlXlXlXlXlXlXlXlXlXlXlXlXlXlXY ~ '.(.t.B.t.a k h h r a L 2.7.=X9X(.R.R.%.L lXlXlXlXlXlXlXlXlXlXlXlXlXlXlXlXlXlXlXlXlXlXlXlXlXlXlX",
"lXlXlXlXlXlXlXlXlXlXlXlXlXlXlXlXlXlXlXlXlXlXlXlXlXlXlXlXlXlXL X._._.'.'.(.R R R | | } R b.^.iXkX5.K L R E lXlXlXlXlXlXlXlXlXlXlXlXlXlXlXlXlXlXlXlXlXlXlXlXlXlXlX",
"lXlXlXlXlXlXlXlXlXlXlXlXlXlXlXlXlXlXlXlXlXlXlXlXlXlXlXlXlXlXs N D ;.^ | ^ R R { _.'.'.'.'.}.S.6.d s N lXlXlXlXlXlXlXlXlXlXlXlXlXlXlXlXlXlXlXlXlXlXlXlXlXlXlXlXlX",
"lXlXlXlXlXlXlXlXlXlXlXlXlXlXlXlXlXlXlXlXlXlXlXlXlXlXlXlXlXlXlXlXw b n u h h L ! t.m.u.m.M.N. .B b s lXlXlXlXlXlXlXlXlXlXlXlXlXlXlXlXlXlXlXlXlXlXlXlXlXlXlXlXlXlX",
"lXlXlXlXlXlXlXlXlXlXlXlXlXlXlXlXlXlXlXlXlXlXlXlXlXlXlXlXlXlXlXlXs q 9 9 q 8 j P x x x c x Y h C s lXlXlXlXlXlXlXlXlXlXlXlXlXlXlXlXlXlXlXlXlXlXlXlXlXlXlXlXlXlXlX",
"lXlXlXlXlXlXlXlXlXlXlXlXlXlXlXlXlXlXlXlXlXlXlXlXlXlXlXlXlXlXlXlXlXlXlXs g s 9 9 q V q F V lXlXlXlXlXlXlXlXlXlXlXlXlXlXlXlXlXlXlXlXlXlXlXlXlXlXlXlXlXlXlXlXlXlXlX"
};
