/* XPM */
static char *_9621_9ef1860e68efa233908b9560b1da728dea3b2359c15217264839ea6e2b13de65[] = {
/* columns rows colors chars-per-pixel */
"80 80 238 2 ",
"   c #000515",
".  c #051B18",
"X  c #191E18",
"o  c black",
"O  c #241D17",
"+  c #3A1712",
"@  c #250000",
"#  c #27221B",
"$  c #001B2B",
"%  c #261E22",
"&  c #04292B",
"*  c #04322B",
"=  c #3D3529",
"-  c #36362A",
";  c #302D24",
":  c #4A0000",
">  c #530000",
",  c #5C0100",
"<  c #421913",
"1  c #4D150E",
"2  c #630100",
"3  c #6C0200",
"4  c #660903",
"5  c #720200",
"6  c #760E00",
"7  c #7A0800",
"8  c #7A1300",
"9  c #641806",
"0  c #522215",
"q  c #7A2605",
"w  c #6F290D",
"e  c #443A2D",
"r  c #433528",
"t  c #4B3125",
"y  c #703120",
"u  c #4A4538",
"i  c #554A37",
"p  c #744B31",
"a  c #474B40",
"s  c #8C0001",
"d  c #830600",
"f  c #930201",
"g  c #920D00",
"h  c #990400",
"j  c #8B1D00",
"k  c #861601",
"l  c #941500",
"z  c #961B00",
"x  c #9A1D00",
"c  c #991A08",
"v  c #901D14",
"b  c #AB1D00",
"n  c #8C2805",
"m  c #972200",
"M  c #9B2400",
"N  c #9D2B02",
"B  c #9C3202",
"V  c #973406",
"C  c #933319",
"Z  c #A22500",
"A  c #A22C02",
"S  c #AA2B01",
"D  c #A3290A",
"F  c #A43303",
"G  c #AB3A05",
"H  c #AC3C0A",
"J  c #A93408",
"K  c #B23B07",
"L  c #B32D01",
"P  c #823622",
"I  c #C73600",
"U  c #93480D",
"Y  c #AE420C",
"T  c #AC4302",
"R  c #B3440C",
"E  c #B64706",
"W  c #A85B00",
"Q  c #B55301",
"!  c #BA5600",
"~  c #BB5B01",
"^  c #BB550A",
"/  c #A84817",
"(  c #BC4C12",
")  c #B64612",
"_  c #BD5113",
"`  c #BD591A",
"'  c #A35117",
"]  c #BA6200",
"[  c #924B26",
"{  c #B85920",
"}  c #AF692B",
"|  c #CB4903",
" . c #CE5303",
".. c #CD540A",
"X. c #C65A08",
"o. c #D15806",
"O. c #C44F18",
"+. c #C35415",
"@. c #CD5514",
"#. c #CB5A16",
"$. c #CB551B",
"%. c #CE5C1B",
"&. c #C6561A",
"*. c #D15C15",
"=. c #D05E1B",
"-. c #C26301",
";. c #CA6A04",
":. c #DA6D01",
">. c #D56A06",
",. c #C67304",
"<. c #DD7403",
"1. c #DA7C01",
"2. c #DC730D",
"3. c #D87907",
"4. c #CA6317",
"5. c #D76B16",
"6. c #D96D16",
"7. c #D3621A",
"8. c #DA651B",
"9. c #D66919",
"0. c #DA6B1B",
"q. c #D26416",
"w. c #C67918",
"e. c #DC7414",
"r. c #DE7914",
"t. c #DB721B",
"y. c #DE7A1B",
"u. c #D57E13",
"i. c #E27600",
"p. c #E47D00",
"a. c #E27E0E",
"s. c #EA7C00",
"d. c #E16B1C",
"f. c #E4681D",
"g. c #E17A13",
"h. c #E77A16",
"j. c #F0721D",
"k. c #CD5B21",
"l. c #D56D25",
"z. c #D36926",
"x. c #D97928",
"c. c #D26A31",
"v. c #E27520",
"b. c #D47244",
"n. c #DE8002",
"m. c #DB8913",
"M. c #E48401",
"N. c #EC8500",
"B. c #ED8C01",
"V. c #E5830C",
"C. c #EA890A",
"Z. c #E78707",
"A. c #F08E00",
"S. c #F2890E",
"D. c #EE9102",
"F. c #EE920B",
"G. c #F19401",
"H. c #F59901",
"J. c #FC9B00",
"K. c #F1960B",
"L. c #F79808",
"P. c #E58412",
"I. c #E78B16",
"U. c #EE9414",
"Y. c #EE931B",
"T. c #F09613",
"R. c #F39B15",
"E. c #F29B1A",
"W. c #F0971A",
"Q. c #FFA406",
"!. c #FAAC16",
"~. c #D98529",
"^. c #DB8539",
"/. c #DE8C3C",
"(. c #DD8436",
"). c #E48A25",
"_. c #EC9426",
"`. c #ED992B",
"'. c #F29D25",
"]. c #F09C28",
"[. c #E89637",
"{. c #F09A39",
"}. c #E88A32",
"|. c #F3A22C",
" X c #F3A626",
".X c #F3A533",
"XX c #F2A639",
"oX c #F4AC3D",
"OX c #F7AA34",
"+X c #FAB139",
"@X c #ECA23A",
"#X c #FFCF1D",
"$X c #B98244",
"%X c #DE8F42",
"&X c #C79247",
"*X c #E19544",
"=X c #E69B46",
"-X c #F09B41",
";X c #EBA446",
":X c #F4AE41",
">X c #F6B143",
",X c #FAB544",
"<X c #F6B54A",
"1X c #FAB94A",
"2X c #E7A853",
"3X c #EBB557",
"4X c #F8BC52",
"5X c #F5BC56",
"6X c #F0A062",
"7X c #D1A048",
"8X c #FAC156",
"9X c #FAC65B",
"0X c #FCC95E",
"qX c #FDCD54",
"wX c #FFD655",
"eX c #FDCD4C",
"rX c #FCCD63",
"tX c #F6C663",
"yX c #FED266",
"uX c #FED56B",
"iX c #FFD96E",
"pX c #FFDC72",
"aX c #FEDA77",
"sX c #FFE173",
"dX c #FFEE77",
"fX c #F4B784",
"gX c #F4BFA0",
"hX c #FFDD87",
"jX c #F6C188",
"kX c #FFE29A",
"lX c #FFE184",
"zX c #F4C1A1",
"xX c #FFE7B7",
"cX c #FFE7AF",
"vX c #F9DBCB",
"bX c #FDECD3",
"nX c #FEFEFF",
"mX c None",
/* pixels */
"mXmXmXmXmXmXmXmXmXmXmXmXmXmXmXmXmXmXmXmXmXmXmXmXmXmXmXmXmXmXmXmXmXmXmXmXmXmXmXmXmXmXmXmXmXmXmXmXmXmXmXmXmXmXmXmXmXmXmXmXmXmXmXmXmXmXmXmXmXmXmXmXmXmXmXmXmXmXmXmX",
"mXmXmXmXmXmXmXmXmXmXmXmXmXmXmXmXmXmXmXmXmXmXmXmXmXmXmXmXmXmXmXmXmXmXmXmXmXmXmXmXmXmXmXmXmXmXmXmXmXmXmXmXmXmXmXmXmXmXmXmXmXmXmXmXmXmXmXmXmXmXmXmXmXmXmXmXmXmXmXmX",
"mXmXmXmXmXmXmXmXmXmXmXmXmXmXmXmXmXmXmXmXmXmXmXmXmXmXmXmXmXmXmXmXmXmXmXmXmXmXmXmXmXmXmXmXmXmXmXmXmXmXmXmXmXmXmXmXmXmXmXmXmXmXmXmXmXmXmXmXmXmXmXmXmXmXmXmXmXmXmXmX",
"mXmXmXmXmXmXmXmXmXmXmXmXmXmXmXmXmXmXmXmXmXmXmXmXmXmXmXmXmXmX7.j.0.d.d.d.d.d.d.d.d.d.f.mXmXmXmXmXmXmXmXmXmXmXmXmXmXmXmXmXmXmXmXmXmXmXmXmXmXmXmXmXmXmXmXmXmXmXmXmX",
"mXmXmXmXmXmXmXmXmXmXmXmXmXmXmXmXmXmXmXmXmXmXmXmXmXmXmXmXmXs 3.G._.Y.K.F.D.B.N.B.D.D.D.6.=.7.%.q.D.H.H.H.H.mXmXmXmXmXmXmXmXmXmXmXmXmXmXmXmXmXmXmXmXmXmXmXmXmXmXmX",
"mXmXmXmXmXmXmXmXmXmXmXmXmXmXmXmXmXmXmXmXmXmXmXmXmXmXmXmXA O.a.H.N.N.B.B.'.9X8X8XT.D.D.6.=.7.7.8.g.2.~ ~ ^ %.$.=.mXmXmXmXmXmXmXmXmXmXmXmXmXmXmXmXmXmXmXmXmXmXmXmX",
"mXmXmXmXmXmXmXmXmXmXmXmXmXmXmXmXmXmXmXmXmXmXmXmXmXmXmXJ ..y.M._.gXfX X:X<XpXpXiXE.B.G.6.=.=.7.%._ ) D E X.h.s.2.mXmXmXmXmXmXmXmXmXmXmXmXmXmXmXmXmXmXmXmXmXmXmXmX",
"mXmXmXmXmXmXmXmXmXmXmXmXmXmXmXmXmXmXmXmXmXmXmXmXA L F #.t.F.B.{.nXbXwXaXiXuXuXrXY.B.D.5.=.7.%.%.M ) l.W.R.R.E.E.!.E.mXmXmXmXmXmXmXmXmXmXmXmXmXmXmXmXmXmXmXmXmXmX",
"mXmXmXmXmXmXmXmXmXmXmXmXmXmXmXmXmXmXmXmXmXmXk.z.k.%.k.7.=.=.M.E.aXaXiXpXiXsX<XB.H.V.7.7.=.7.) N &.2.B.9XiXyXyXyXiX4XN.mXmXmXmXmXmXmXmXmXmXmXmXmXmXmXmXmXmXmXmXmX",
"mXmXmXmXmXmXmXmXmXmXmXmXmXmXmXmXmXmXmX=.%.I :.N.p.p.p.p.i.$.a.G.OXoX>XoXoX>X XB.r.9.7.....=.| E i.{.9XyXiXiXiXiXiXyX0X|.G.mXmXmXmXmXmXmXmXmXmXmXmXmXmXmXmXmXmXmX",
"mXmXmXmXmXmXmXmXmXmXmXmXmXmXmXmXmXmXmX:._.-X;X+X>X+X+X>XXX>.M.G.B.B.B.B.B.i.p.P.%.&.@./.[.>./.;XoX8XaXiXiXuXuXuXiXyXtXOXN.mXmXmXmXmXmXmXmXmXmXmXmXmXmXmXmXmXmXmX",
"mXmXmXmXmXmXmXmXmXmXmXmXmXmXmXmXmXmXmXG.+XaXpXiXiXpXiXaXrXK.K.K.{.{.D.F.I.z.k.q.l.l.7.yXyXB.4XpXiXiXyXiXiXyXuXuXiX4Xs.d.$.mXmXmXmXmXmXmXmXmXmXmXmXmXmXmXmXmXmXmX",
"mXmXmXmXmXmXmXmXmXmXmXmXmXmXmXmXmXmXG.9XiXpXuXiXuXiXpXuXuXpXoX[.nXvXN.Y..XpX>XB.yXuXuXpXrXB.D.].uXiXiXiXiXiXpXiX'.K.G.h.=.mXmXmXmXmXmXmXmXmXmXmXmXmXmXmXmXmXmXmX",
"mXmXmXmXmXmXmXmXmXmXmXmXmXmXmXmXmXmXJ.rXuXeXyXiXiX9X].yXyX:XE.Y.gXfXA.g.x.=X_.K.uXiXpX2X[.D.G.F.XX5XaX<XXX:X:XoXG.M.0.0.=.mXmXmXmXmXmXmXmXmXmXmXmXmXmXmXmXmXmXmX",
"mXmXmXmXmXmXmXmXmXmXmXmXmXmXmXmXmXmXJ.9XhXxXhXuXpX9X.XyXrXN.B.G.N.A.I.#.( L i.E.yXpXiXx. .P.C.G.B..X0XE.B.B.B.B.G.V.$.8.7.mXmXmXmXmXmXmXmXmXmXmXmXmXmXmXmXmXmXmX",
"mXmXmXmXmXmXmXmXmXmXmXmXmXmXmXmXmXmXK.eXkXnXxXqXuXuXiXiX0XB.D.D._.y.$.J N C :.R.rXuXyX^...&.a.D.C.B.B.D.F.K.C.F.G.a.=.8.=.mXmXmXmXmXmXmXmXmXmXmXmXmXmXmXmXmXmXmX",
"mXmXmXmXmXmXmXmXmXmXmXmXmXmXmXmXmXmXmXD.,XsXaXiX'.K.T.R.Y.$.V.H.6.+.N f } pX:XB.E.E.R.^ x m _ 8.%.g.L.t.7.7.q.8.q.7.=.0.8.mXmXmXmXmXmXmXmXmXmXmXmXmXmXmXmXmXmXmX",
"mXmXmXmXmXmXmXmXmXmXmXmXmXmXmXmXmXmXmXmXmX+X+XoXe.2.2.2.<.p.;.Q H A l ,.I.,X~.Q ~ ! ~ B A _ #.=.z.q.:. ...7.=.%.q.%.%.) D s mXmXmXmXmXmXmXmXmXmXmXmXmXmXmXmXmXmX",
"mXmXmXmXmXmXmXmXmXmXmXmXmXmXmXmXmXmXmXmXmXN.M.p.q.k.=.$.x.,X~.T R H J r.Z.p.X.D J J J c J 7.7.7. .x.*X*X/.%.%.q.%.9.r.-.! >.X.mXmXmXmXmXmXmXmXmXmXmXmXmXmXmXmXmX",
"mXmXmXmXmXmXmXmXmXmXmXmXmXmXmXmXmXmXL Z K k.%.%.%.q.8.o.^.pX>XB.l.7.8.%.%.z.7.9.l.9.0.T H 7.=.7.c.2XsXiX0X#.7.8.%.r.H.G.G.J.h.%.mXmXmXmXmXmXmXmXmXmXmXmXmXmXmXmX",
"mXmXmXmXmXmXmXmXmXmXmXmXmXmXmXmXmXmXx x x N M A %.g.F.F.U.W.F.B.=.e.D.5.5.D.B.D.C.F.F.D.Z.k. .b.nXbXwX:XD.D.K.B.F.B.B.B.B.D.g.%.mXmXmXmXmXmXmXmXmXmXmXmXmXmXmXmX",
"mXmXmXmXmXmXmXmXmXmXmXmXmXmXmXmXmXmX*.+.+.( _ +.$.2.A.B.B.B.D.D.V.C.D.8.9.G.D.D.B.A.B.B.B.P.:.c.gXfX XE.B.t.M.G.N..X9X0X5XG.g.%.mXmXmXmXmXmXmXmXmXmXmXmXmXmXmXmX",
"mXmXmXmXmXmXmXmXmXmXmXmXmXmXmXmXmXmX*.=.9.y.9.7.>.).OXoXoX:X].G.G.G.D.3.2.D.B.D.oX:X:X:XXXH.r.=.s.G.:XI.r.$.[.>XXX8XaXrX4XG.g.=.mXmXmXmXmXmXmXmXmXmXmXmXmXmXmXmX",
"mXmXmXmXmXmXmXmXmXmXmXmXmXmXmXmXmXmXx O.6.H.y.l.G.5XlXpXiXpX>XB.W.U.G.R.R.E.T.'.uXpXiXpXrXK.y.7.I.<XaX^.....3XiXiXiXuX].N.D.g.%.mXmXmXmXmXmXmXmXmXmXmXmXmXmXmXmX",
"mXmXmXmXmXmXmXmXmXmXmXmXmXmXmXmXmXmXZ $.e.N.5XaXqXxXnXkXeXB.B.T.uX4Xs.rXiXrXuXyXB.>XiXuXuXuX:XB.B.<XsX/.@.I 3XiXiX4XD.T.C.q.7.7.mXmXmXmXmXmXmXmXmXmXmXmXmXmXmXmX",
"mXmXmXmXmXmXmXmXmXmXmXmXmXmXmXmXmXmX$.| x.0XqXwX#XxXnXjX!.rXXXD.iXuX8XyXiXiXiXiX8XrXiXuXuXsX<XB.D.).%X@.l.3XrXiXaX8XB.F.C.=.8.7.mXmXmXmXmXmXmXmXmXmXmXmXmXmXmXmX",
"mXmXmXmXmXmXmXmXmXmXmXmXmXmXmXmXmXmXh.}.2XiXkXxXcXxXbX6XG.rXXXD.8XrXpXiXyXiXuXiXiXiXuXiXyX9X.XB.H.)./.[.2XsXiXuX0X>XB.G.C.8.7.=.mXmXmXmXmXmXmXmXmXmXmXmXmXmXmXmX",
"mXmXmXmXmXmXmXmXmXmXmXmXmXmXmXmXmXmXJ.rXaXeXbXnXnXvXi.Y.U.B.B.K.N.:XiXyXiXiXiXyXiXuXuXiXrXB.G.F.B.>XsXuXiXyXuXyXD.B.D.D.Z.=.mXmXmXmXmXmXmXmXmXmXmXmXmXmXmXmXmXmX",
"mXmXmXmXmXmXmXmXmXmXmXmXmXmXmXmXmXmXQ.rXrXG.{.{.-X[.Y.t.7.%.V.G.o.;XsXpXiXuXiXuXuXiXuXuXiXpX>XM.V ;.E.B.XXsX<XB.T.H.H.! M mXmXmXmXmXmXmXmXmXmXmXmXmXmXmXmXmXmXmX",
"mXmXmXmXmXmXmXmXmXmXmXmXmXmXmXmXmXmXmXiXyXB.B.B.A.A.G.5.7.C.r.e.@.~.>XoX<XiXuXiXiXiXuXiXrX:X XB.m -.H.K.R.:X].D.] ~ X.K l mXmXmXmXmXmXmXmXmXmXmXmXmXmXmXmXmXmXmX",
"mXmXmXmXmXmXmXmXmXmXmXmXmXmXmXmXmXmXmX9X9XG.K.U.P.P.V.8.8.B.t.%.k.i.A.N.].iXuXuX8XrXiXiXrXN.B.P.M Q 1.3.n.D.M.3.m h h x A mXmXmXmXmXmXmXmXmXmXmXmXmXmXmXmXmXmXmX",
"mXmXmXmXmXmXmXmXmXmXmXmXmXmXmXmXmXmXmXA.A.G.B.D.=.=.=.=.%.&.%.4.@.y.K.B..XuXiXyXB.:XiXiX9XG.e.$.F m h s T K.~ s N N N mXmXmXmXmXmXmXmXmXmXmXmXmXmXmXmXmXmXmXmXmX",
"mXmXmXmXmXmXmXmXmXmXmXmXmXmXmXmXmXmXmXmXmXmXG.H.q.%.7.8.#.N N F f -.H.D.K.D.8XpXiXiXpXXXD.G.r.%.=.( N N N J h s c v mXmXmXmXmXmXmXmXmXmXmXmXmXmXmXmXmXmXmXmXmXmX",
"mXmXmXmXmXmXmXmXmXmXmXmXmXmXmXmXmXmXmXmXmXmXG.Q.8.7.8.) G M z m ( %.e.e.r.D.|.>X>X+X:XU.D.G.r.=.8.( s M V 2 &X3XM.:.mXmXmXmXmXmXmXmXmXmXmXmXmXmXmXmXmXmXmXmXmXmX",
"mXmXmXmXmXmXmXmXmXmXmXmXmXmXmXmXmXmXmXmXmXmXmXB._ +.+.N l m F ) 7.9.2.%.9.G.D.B.B.M.i.D.G.G.r.&.+.X.-.B j @ 7X0X1XOXmXmXmXmXmXmXmXmXmXmXmXmXmXmXmXmXmXmXmXmXmXmX",
"mXmXmXmXmXmXmXmXmXmXmXmXmXmXmXmXmXmXmXmXmXmXmXmXm M m A B M +.l.%.y.R.t.9.D.D.F.K.P.%.Z.D.D.r.#.s ] H.U 2 9 ,.K.uX9XJ.Q.K.mXmXmXmXmXmXmXmXmXmXmXmXmXmXmXmXmXmXmX",
"mXmXmXmXmXmXmXmXmXmXmXmXmXmXmXmXmXmXmXmXmXmXmXmXf g f +.q.$.@...p.oXpX].B.G.r.q.D.D.D.5.7.q.7.7.M R 8.$.q.M.4XuXD.>XiX.XB.K.mXmXmXmXmXmXmXmXmXmXmXmXmXmXmXmXmXmX",
"mXmXmXmXmXmXmXmXmXmXmXmXmXmXmXmXmXmXmXmXmX%.P.D.1.1.1.7.8.i.;X5X4XrXpX.XB.F.Z.a.e.V.H.5.%.8.( H x R 7.<.`.0XuXiXB.>XpX].N.Q.mXmXmXmXmXmXmXmXmXmXmXmXmXmXmXmXmXmX",
"mXmXmXmXmXmXmXmXmXmXmXmXmXmXmXmXmXmXmXmXmXf.S.J.H.G.H.<.).oXrXsXpXpXiX.XB.D.G.G.%.5.Z.8.%.+.G l m H +.B.|.0X9X8XB.>XpX<X.XJ.mXmXmXmXmXmXmXmXmXmXmXmXmXmXmXmXmXmX",
"mXmXmXmXmXmXmXmXmXmXmXmXmXmXmXmXmXmXmXmXmX7.Z.D.D.D.D.G..XiXuXyXyXyXyX.XB.F.D.B.9.%.$.q.+.l M N N m f n.D.M.A.B.D.<XpXiXrXJ.mXmXmXmXmXmXmXmXmXmXmXmXmXmXmXmXmXmX",
"mXmXmXmXmXmXmXmXmXmXmXmXmXmXmXmXmXmXmXmXmXL.A.G.D.D.D.yXrXD.U.E.E.E.E.0.%.5.8.8.9.+.N A N N m z M N M #.0.7.V.E.rXuXiX/.q.d.mXmXmXmXmXmXmXmXmXmXmXmXmXmXmXmXmXmX",
"mXmXmXmXmXmXmXmXmXmXmXmXmXmXmXmXmXmXmXmXmXG.A.K.F.D.D.XXXXG.3.! Q ;.A.M.<.%.) D J N l z l l R &.N m z J ) %.M.R.iXiXiX^. .f.mXmXmXmXmXmXmXmXmXmXmXmXmXmXmXmXmXmX",
"mXmXmXmXmXmXmXmXmXmXmXmXmXmXmXmXmXmXmXmXmX,X'.B.D.D.G.B.B.H.~ s T x.>X>XXXr.;.~ ~ Q H R R H ( +.m J R H R =.r.I.4XrXpX(...%.mXmXmXmXmXmXmXmXmXmXmXmXmXmXmXmXmXmX",
"mXmXmXmXmXmXmXmXmXmXmXmXmXmXmXmXmXmXmXmXmXsX<XB.W.F.B.F.T.R.4.' G.1XpXiXtXD.D.D.G.P.=.7.%.8.R l M R 7.7.7.%.$.q.s.:XiX(.| Z mXmXmXmXmXmXmXmXmXmXmXmXmXmXmXmXmXmX",
"mXmXmXmXmXmXmXmXmXmXmXmXmXmXmXmXmXmXmXmXmXdXiXyXaX3Xf i.].uXyXyXyXuXuX/.%.9.R l N R 8.H m h x N %.=.=.7.&.N N F $.y.E.e.O.Z mXmXmXmXmXmXmXmXmXmXmXmXmXmXmXmXmXmX",
"mXmXmXmXmXmXmXmXmXmXmXmXmXmXmXmXmXmXmXmXmXmXiXiX&X} s 3XyXiXiXiXpXiXaX^.| ..>.3.( &.0.c B M.! c 4.7.=.7.&.m x B V.B.G.d.&.Z mXmXmXmXmXmXmXmXmXmXmXmXmXmXmXmXmXmX",
"mXmXmXmXmXmXmXmXmXmXmXmXmXmXmXmXmXmXmXmXmXmXiXsXh s z 2XtXiXiXuX9X8X9X).t.*X_.G.r.q.E ~ -.M.! l %.7.=.@.( M m F V.Z.V.4.) S mXmXmXmXmXmXmXmXmXmXmXmXmXmXmXmXmXmX",
"mXmXmXmXmXmXmXmXmXmXmXmXmXmXmXmXmXmXmXmXmXmXiXiX/ z V I x.yXyXyXD.B.B.B..XsX<XB.E.u.v B.M.s m F %.7.7.F l M M A &.%.%.A x M mXmXmXmXmXmXmXmXmXmXmXmXmXmXmXmXmXmX",
"mXmXmXmXmXmXmXmXmXmXmXmXmXmXmXmXmXmXmXmXmXmXi p V m m &.9.z.z.l.7.r.L.>./.iXiXiXuXiXpX(. .l ) q.%.%.7.H j 9 d h q._ M A M mXmXmXmXmXmXmXmXmXmXmXmXmXmXmXmXmXmXmX",
"mXmXmXmXmXmXmXmXmXmXmXmXmXmXmXmXmXmXmXmXmXmXmXmX8 n M #.8.%.%.#.%.9.r.E ` *X;X>X=X*X=X{ G +.4.8.C.3.J F j o ~ n.7.( l S N mXmXmXmXmXmXmXmXmXmXmXmXmXmXmXmXmXmXmX",
"mXmXmXmXmXmXmXmXmXmXmXmXmXmXmXmXmXmXmXmXmXmXmXmX> 6 x ) +.%.9.e.t.5.@.D N | :.i. .|  .G H +.O._ 1.] 7 k V W ,.n.8.( x N M mXmXmXmXmXmXmXmXmXmXmXmXmXmXmXmXmXmXmX",
"mXmXmXmXmXmXmXmXmXmXmXmXmXmXmXmXmXmXmXmXmXmXmXmX, n F M H 7.Z.G.G.P.z.Y Y 9.7.7.7.q.7.l.7.B N m Z n 9 , U J.~ s q._ z mXmXmXmXmXmXmXmXmXmXmXmXmXmXmXmXmXmXmXmXmX",
"mXmXmXmXmXmXmXmXmXmXmXmXmXmXmXmXmXmXmXmXmXmXmXmX: W H.q.q.F.D.K.B.>XpX`.N.C.D.D.G.V.$.M.N.A.Q f B.D.H.Q k 9 n A 8.7.mXmXmXmXmXmXmXmXmXmXmXmXmXmXmXmXmXmXmXmXmXmX",
"mXmXmXmXmXmXmXmXmXmXmXmXmXmXmXmXmXmXmXmXmXmXmXmX% ' g.r.M.B.p.h.G.`.*X8X4XG.V.r.F.B.i.4XrXrX@X<.K.1.T N s > d M 8.8.mXmXmXmXmXmXmXmXmXmXmXmXmXmXmXmXmXmXmXmXmXmX",
"mXmXmXmXmXmXmXmXmXmXmXmXmXmXmXmXmXmXmXmXmXmXmXmX* [ =.B.E.,X~.K 3.>.I tXyXA.e.%.B.G.G.rXuX5X[.1.G.~.$X4.Q 3 V R @.+.mXmXmXmXmXmXmXmXmXmXmXmXmXmXmXmXmXmXmXmXmXmX",
"mXmXmXmXmXmXmXmXmXmXmXmXmXmXmXmXmXmXmXmXmXmXmXmX* [ 8.M..XpX&Xs c R q.tXrXD.y.7.Y.K.B.rXtX| G V M.,XsXOXM.l +.8.Z l mXmXmXmXmXmXmXmXmXmXmXmXmXmXmXmXmXmXmXmXmXmX",
"mXmXmXmXmXmXmXmXmXmXmXmXmXmXmXmXmXmXmXmXmXmXmXmX& } H.9.7.l.( M 4.7...rXpXiX=X#.iX8XM.yXrX@.g.D.D.F.U.G.n.s ( =.S M mXmXmXmXmXmXmXmXmXmXmXmXmXmXmXmXmXmXmXmXmXmX",
"mXmXmXmXmXmXmXmXmXmXmXmXmXmXmXmXmXmXmXmXmXmXmXmXmX' -.n.g.=.H z 7.7.&.{.>X>X~.%.:X.XA.oXXX@.V.H.D.G.B.G.Z.( %.7.S x mXmXmXmXmXmXmXmXmXmXmXmXmXmXmXmXmXmXmXmXmXmX",
"mXmXmXmXmXmXmXmXmXmXmXmXmXmXmXmXmXmXmXmXmXmXmXmXmXmXh M.D.7.( K $.9.r.B.A.B.p.r.B.B.F.M.<.%.r.Z.D.D.D.G.Z.7.%.O.S C mXmXmXmXmXmXmXmXmXmXmXmXmXmXmXmXmXmXmXmXmXmX",
"mXmXmXmXmXmXmXmXmXmXmXmXmXmXmXmXmXmXmXmXmXmXmXmXmXmXD M.C.%.7.8.%.r.D.F.F.F.G.D.F.D.D.9.k.7.%.=.D.D.G.G.Z.7.H l M P i mXmXmXmXmXmXmXmXmXmXmXmXmXmXmXmXmXmXmXmXmX",
"mXmXmXmXmXmXmXmXmXmXmXmXmXmXmXmXmXmXmXmXmXmXmXmXmXmXu m.N.=.=.=.$.r.H.5.5.G.G.D.q.q.8.7.7.7.q.9.B.D.D.G.C.7.U . + r i mXmXmXmXmXmXmXmXmXmXmXmXmXmXmXmXmXmXmXmXmX",
"mXmXmXmXmXmXmXmXmXmXmXmXmXmXmXmXmXmXmXmXmXmXmXmXmXmXu I.J.=.=.7.C.3.! 4.8.r.r.e.q.%.%.q.7.7.( Y D.D.D.H.M.H y * # ; mXmXmXmXmXmXmXmXmXmXmXmXmXmXmXmXmXmXmXmXmXmX",
"mXmXmXmXmXmXmXmXmXmXmXmXmXmXmXmXmXmXmXmXmXmXmXmXmXmXu } w./ &.=.C.;.s ( +.( &.=.7.7.=.7.%.+.F N D.D.D.C.2.h y - O mXmXmXmXmXmXmXmXmXmXmXmXmXmXmXmXmXmXmXmXmXmXmX",
"mXmXmXmXmXmXmXmXmXmXmXmXmXmXmXmXmXmXmXmXmXmXmXmXmXmXmX* &   ' 8.=.( N m z l ( =.%.%.%.7.+.z z F B.D.D.5.` M y - mXmXmXmXmXmXmXmXmXmXmXmXmXmXmXmXmXmXmXmXmXmXmXmX",
"mXmXmXmXmXmXmXmXmXmXmXmXmXmXmXmXmXmXmXmXmXmXmXmXmXmXmXr t   ,.K.7.%.%.H M N A N N N N N N M M F D.G.D.t.#.x y i mXmXmXmXmXmXmXmXmXmXmXmXmXmXmXmXmXmXmXmXmXmXmXmX",
"mXmXmXmXmXmXmXmXmXmXmXmXmXmXmXmXmXmXmXmXmXmXmXmXmXmXmXu i $ w.H.7.q.q.n 7 N M M M Z Z M M A d q B.H.H.^ D S C mXmXmXmXmXmXmXmXmXmXmXmXmXmXmXmXmXmXmXmXmXmXmXmXmX",
"mXmXmXmXmXmXmXmXmXmXmXmXmXmXmXmXmXmXmXmXmXmXmXmXmXmXmXi i $ w.S.7.%.8.n 3 n j j j j j j j j 7 q B.B.Z.^ V n y mXmXmXmXmXmXmXmXmXmXmXmXmXmXmXmXmXmXmXmXmXmXmXmXmX",
"mXmXmXmXmXmXmXmXmXmXmXmXmXmXmXmXmXmXmXmXmXmXmXmXmXmXmXmXmXmX*.*.%.q.q.H m , 2 , , , , , 2 , j G B.m.O.7.&.  - e mXmXmXmXmXmXmXmXmXmXmXmXmXmXmXmXmXmXmXmXmXmXmXmX",
"mXmXmXmXmXmXmXmXmXmXmXmXmXmXmXmXmXmXmXmXmXmXmXmXmXmXmXmXmXmXA K 7.7.7.7._ l 5 : , , , > 4 k ) 7.7.+.N S A mXe e mXmXmXmXmXmXmXmXmXmXmXmXmXmXmXmXmXmXmXmXmXmXmXmX",
"mXmXmXmXmXmXmXmXmXmXmXmXmXmXmXmXmXmXmXmXmXmXmXmXmXmXmXmXmXmXM Z Y R H %.7.+._ ( j d d Y _ O.#.7.7.( c w 0 mX= = mXmXmXmXmXmXmXmXmXmXmXmXmXmXmXmXmXmXmXmXmXmXmXmX",
"mXmXmXmXmXmXmXmXmXmXmXmXmXmXmXmXmXmXmXmXmXmXmXmXmXmXmXmXmXmXZ Z z z z ) &.+.q.7.R R K %.8.q.7.4.8.( x 0 . mXe e mXmXmXmXmXmXmXmXmXmXmXmXmXmXmXmXmXmXmXmXmXmXmXmX",
"mXmXmXmXmXmXmXmXmXmXmXmXmXmXmXmXmXmXmXmXmXmXmXmXmXmXe mXmXmXm Z M M N z z g ) 7.7.7.7.%.%.%.%.%.7.( x 0 . mXi u mXmXmXmXmXmXmXmXmXmXmXmXmXmXmXmXmXmXmXmXmXmXmXmX",
"mXmXmXmXmXmXmXmXmXmXmXmXmXmXmXmXmXmXmXmXmXmXmXmXmXmXmXmXmXmX3 3 2 8 A M M M N N N N N A A A A A A A Z 0 . mXmXmXmXmXmXmXmXmXmXmXmXmXmXmXmXmXmXmXmXmXmXmXmXmXmXmX",
"mXmXmXmXmXmXmXmXmXmXmXmXmXmXmXmXmXmXmXmXmXmXmXmXmXmXmXmXmXmX2 3 , 4 8 m A N M m M M Z 8 6 6 6 6 6 8 k < X mXmXmXmXmXmXmXmXmXmXmXmXmXmXmXmXmXmXmXmXmXmXmXmXmXmXmX",
"mXmXmXmXmXmXmXmXmXmXmXmXmXmXmXmXmXmXmXmXmXmXmXmXmXmXmXmXmXmXmX2 2 2 > k j j j j j j j 4 > , , , , , , + X mXmXmXmXmXmXmXmXmXmXmXmXmXmXmXmXmXmXmXmXmXmXmXmXmXmXmX",
"mXmXmXmXmXmXmXmXmXmXmXmXmXmXmXmXmXmXmXmXmXmXmXmXmXmXmXmXmXmXmXmX, 2 2 , , , , , , , , , 2 2 2 , 4 , mXmXmXmXO O mXmXmXmXmXmXmXmXmXmXmXmXmXmXmXmXmXmXmXmXmXmXmXmX",
"mXmXmXmXmXmXmXmXmXmXmXmXmXmXmXmXmXmXmXmXmXmXmXmXmXmXmXmXmXe mXmXmXmXmX2 3 2 2 , 2 2 2 2 2 3 1 O e ; O mXmXmXmXmXmXmXmXmXmXmXmXmXmXmXmXmXmXmXmXmXmXmXmXmXmXmXmXmX",
"mXmXmXmXmXmXmXmXmXmXmXmXmXmXmXmXmXmXmXmXmXmXmXmXmXmXmXmXmXmXmXmXmXmXmXmXmXmX1 + < < < t t mX; = e = mXmXmXmXmXmXmXmXmXmXmXmXmXmXmXmXmXmXmXmXmXmXmXmXmXmXmXmXmXmX",
"mXmXmXmXmXmXmXmXmXmXmXmXmXmXmXmXmXmXmXmXmXmXmXmXmXmXmXmXmXmXmXmXmXmXmXmXmXmX# ; X X . ; = mXmXe e mXmXmXmXmXmXmXmXmXmXmXmXmXmXmXmXmXmXmXmXmXmXmXmXmXmXmXmXmXmXmX",
"mXmXmXmXmXmXmXmXmXmXmXmXmXmXmXmXmXmXmXmXmXmXmXmXmXmXmXmXmXmXmXmXmXmXmXmXmXmXe e O O mXr = mXmXmXmXmXmXmXmXmXmXmXmXmXmXmXmXmXmXmXmXmXmXmXmXmXmXmXmXmXmXmXmXmXmXmX"
};
