/* XPM */
static char *_6719_1e089214a30a541ae0aeebd63f392f664bd99cc6f4e3d044e357882fbab9453f[] = {
/* columns rows colors chars-per-pixel */
"80 80 226 2 ",
"   c #12110E",
".  c #000415",
"X  c #000C16",
"o  c #00021A",
"O  c #011415",
"+  c #001A17",
"@  c #001719",
"#  c #011D19",
"$  c #0E1D18",
"%  c #161A16",
"&  c #1D1A15",
"*  c #1B1E18",
"=  c #1C1713",
"-  c #221C16",
";  c #2B1C15",
":  c #231F18",
">  c #231712",
",  c #351C15",
"<  c #09241E",
"1  c #13231B",
"2  c #1C221D",
"3  c #152316",
"4  c #25211A",
"5  c #2B241D",
"6  c #2E281F",
"7  c #2A2117",
"8  c #3C2314",
"9  c #36251B",
"0  c #001C27",
"q  c #002524",
"w  c #012924",
"e  c #00242A",
"r  c #002D2B",
"t  c #0E2B25",
"y  c #1B2B22",
"u  c #172E25",
"i  c #01322C",
"p  c #07312A",
"a  c #13332B",
"s  c #19382D",
"d  c #2D2A22",
"f  c #252921",
"g  c #342D23",
"h  c #3A2E23",
"j  c #372C29",
"k  c #23342B",
"l  c #2C352B",
"z  c #26382D",
"x  c #2A392D",
"c  c #353126",
"v  c #3A3226",
"b  c #34352A",
"n  c #3D362A",
"m  c #3D392C",
"M  c #35392C",
"N  c #4B0000",
"B  c #4E0B0B",
"V  c #550101",
"C  c #5C0000",
"Z  c #5A0A06",
"A  c #530D09",
"S  c #580E0B",
"D  c #4D110D",
"F  c #5C120C",
"G  c #5C190E",
"H  c #560010",
"J  c #4C1C13",
"K  c #411510",
"L  c #591610",
"P  c #5A1C12",
"I  c #630200",
"U  c #690300",
"Y  c #640B03",
"T  c #6E0C00",
"R  c #730E00",
"E  c #621C0E",
"W  c #691607",
"Q  c #7B1300",
"!  c #751504",
"~  c #6F1E14",
"^  c #462519",
"/  c #55231A",
"(  c #51281E",
")  c #562717",
"_  c #7D220A",
"`  c #76210D",
"'  c #682818",
"]  c #722E1D",
"[  c #7C2D1A",
"{  c #732618",
"}  c #63321B",
"|  c #6B3416",
" . c #73331D",
".. c #78361D",
"X. c #4B2D22",
"o. c #452723",
"O. c #582E23",
"+. c #423326",
"@. c #42362A",
"#. c #4A3629",
"$. c #43392C",
"%. c #4B3B2C",
"&. c #4D3126",
"*. c #563527",
"=. c #5B3325",
"-. c #523B2A",
";. c #5C3A28",
":. c #453E31",
">. c #493F31",
",. c #6A2F20",
"<. c #653323",
"1. c #6B3221",
"2. c #6A3A24",
"3. c #733321",
"4. c #783C23",
"5. c #4D4334",
"6. c #514636",
"7. c #544939",
"8. c #594E3C",
"9. c #524837",
"0. c #7D4326",
"q. c #734328",
"w. c #7C4628",
"e. c #8F0600",
"r. c #900000",
"t. c #831400",
"y. c #8B1201",
"u. c #851A01",
"i. c #8B1D00",
"p. c #811C08",
"a. c #941600",
"s. c #951C00",
"d. c #9A1D00",
"f. c #9A1600",
"g. c #8D2102",
"h. c #832309",
"j. c #8A240D",
"k. c #862509",
"l. c #952201",
"z. c #9B2500",
"x. c #9C2A01",
"c. c #922709",
"v. c #93290B",
"b. c #89310B",
"n. c #893005",
"m. c #9B3C0B",
"M. c #9B360D",
"N. c #852B15",
"B. c #8B2B12",
"V. c #812E19",
"C. c #852511",
"Z. c #883917",
"A. c #993A14",
"S. c #A12400",
"D. c #A22A01",
"F. c #AC2A02",
"G. c #A92600",
"H. c #A53305",
"J. c #A93705",
"K. c #AB3A04",
"L. c #A43909",
"P. c #AD3D0A",
"I. c #B03C0B",
"U. c #8A4219",
"Y. c #94451C",
"T. c #984417",
"R. c #925D13",
"E. c #AF410C",
"W. c #B3430D",
"Q. c #B7480F",
"!. c #A74D19",
"~. c #BC4D13",
"^. c #B84915",
"/. c #BE5115",
"(. c #B3541C",
"). c #BA561C",
"_. c #BD591D",
"`. c #A75214",
"'. c #AC6C1D",
"]. c #814727",
"[. c #8E4A25",
"{. c #894826",
"}. c #934A25",
"|. c #9A4D24",
" X c #965823",
".X c #AC5322",
"XX c #B15521",
"oX c #BB5A21",
"OX c #C5590A",
"+X c #C35314",
"@X c #C95513",
"#X c #CC5916",
"$X c #C35518",
"%X c #C45B1C",
"&X c #CE5C1A",
"*X c #CD571C",
"=X c #D15E1A",
"-X c #D25C17",
";X c #C04A0A",
":X c #D66117",
">X c #D76C16",
",X c #DB6E17",
"<X c #D2621A",
"1X c #DB651B",
"2X c #DA6618",
"3X c #DC7414",
"4X c #DF7A11",
"5X c #D67812",
"6X c #CB660D",
"7X c #E27F0F",
"8X c #E5691C",
"9X c #EC6D1E",
"0X c #E27813",
"qX c #D16424",
"wX c #D68002",
"eX c #EA8B05",
"rX c #E6840B",
"tX c #E38A0C",
"yX c #EA8A09",
"uX c #E78608",
"iX c #ED9101",
"pX c #F29500",
"aX c #F39800",
"sX c #FB9A00",
"dX c #E89016",
"fX c None",
/* pixels */
"fXfXfXfXfXfXfXfXfXfXfXfXfXfXfXfXfXfXfXfXfXfXfXfXfXfXfXfXfXfXfXfXfXfXfXfXfXfXfXfXfXfXfXfXfXfXfXfXfXfXfXfXfXfXfXfXfXfXfXfXfXfXfXfXfXfXfXfXfXfXfXfXfXfXfXfXfXfXfXfX",
"fXfXfXfXfXfXfXfXfXfXfXfXfXfXfXfXfXfXfXfXfXfXfXfXfXfXfXfXfXfXfXfXfXfXfXfXfXfXfXfXfXfXfXfXfXfXfXfXfXfXfXfXfXfXfXfXfXfXfXfXfXfXfXfXfXfXfXfXfXfXfXfXfXfXfXfXfXfXfXfX",
"fXfXfXfXfXfXfXfXfXfXfXfXfXfXfXfXfXfXfXfXfXfXfXfXfXfXfXfXfXfXfXfXfXfXfXfXfXfXfXfXfXfXfXfXfXfXfXfXfXfXfXfXfXfXfXfXfXfXfXfXfXfXfXfXfXfXfXfXfXfXfXfXfXfXfXfXfXfXfXfX",
"fXfXfXfXfXfXfXfXfXfXfXfXfXfXfXfXfXfXfXfXfXfXfXfXfXfXfXfXfXfXfXfXfXfXfXfXfXfXfXfXfXfXfXfXfXfXfXfXfXfXfXfXfXfXfXfXfXfXfXfXfXfXfXfXfXfXfXfXfXfXfXfXfXfXfXfXfXfXfXfX",
"fXfXfXfXfXfXfXfXfXfXfXfXfXfXfXfXfXfXfXfXfXfXfXfXfXfXfXfXfXfXfXfXfXfXfXfXfXfXfXfXfXfXfXfXfXfXfXfXfXfXfXfXfXfXfXfXfXfXfXfXfXfXfXfXfXfXfXfXfXfXfXfXfXfXfXfXfXfXfXfX",
"fXfXfXfXfXfXfXfXfXfXfXfXfXfXfXfXfXfXfXfXfXfXfXfXfXfXfXfXfX=X<X<X<X&X<X<X<X<X=X<X<XfXfXfXfXfXfXfXfXfXfXfXfXfXfXfXfXfXfXfXfXfXfXfXfXfXfXfXfXfXfXfXfXfXfXfXfXfXfXfX",
"fXfXfXfXfXfXfXfXfXfXfXfXfXfXfXfXfXfXfXfXfXfXfXfXfXfXfXfX=X8X1X1X1X1X2X1X8X1X1X1X9X#XfXfXfXfXfXfXfXfXfXfXfXfXfXfXfXfXfXfXfXfXfXfXfXfXfXfXfXfXfXfXfXfXfXfXfXfXfXfX",
"fXfXfXfXfXfXfXfXfXfXfXfXfXfXfXfXfXfXfXfXfXfXfXfXfXfXfX<X8X<X<X<X<X2X<X<X<X<X=X<X<X~.S.F.z.fXfXfXfXfXfXfXfXfXfXfXfXfXfXfXfXfXfXfXfXfXfXfXfXfXfXfXfXfXfXfXfXfXfXfX",
"fXfXfXfXfXfXfXfXfXfXfXfXfXfXfXfXfXfXfXfXfXfXfXfXfXfXfX&X2X*X7XiXeXiXiXiXyX=X=X&Xx.l.z.z.l.I V C &X=X&X=X=X&X=X<XfXfXfXfXfXfXfXfXfXfXfXfXfXfXfXfXfXfXfXfXfXfXfXfX",
"fXfXfXfXfXfXfXfXfXfXfXfXfXfXfXfXfXfXfXfXfXfXfXfXfXfXsX>X<X=XrXaXpXeX3X0X3X<X<X<X#XW.s.D.l.N m./.*X,XyXrXrXyX3X=X<X<X:XfXfXfXfXfXfXfXfXfXfXfXfXfXfXfXfXfXfXfXfXfX",
"fXfXfXfXfXfXfXfXfXfXfXfXfXfXfXfXfXfXfXfXfXfXfXfXfX'.dX<X=X=X3XtXtX3X^.~.~.+X+X+X$XQ.d.z.l.I /.1X3XrXaXpXpXuX3X*X=X-X-XP.fXfXfXfXfXfXfXfXfXfXfXfXfXfXfXfXfXfXfXfX",
"fXfXfXfXfXfXfXfXfXfXfXfXfXfXfXfXfXfXfXfXfXfXfXfX$.l 0 oX:X=X&X&X=X^.a.x.x.l.s.s.d.l.x.x.x.H.~.<XeXiXeXpXuX*X=X#Xz.a.s.G.z.fXfXfXfXfXfXfXfXfXfXfXfXfXfXfXfXfXfXfX",
"fXfXfXfXfXfXfXfXfXfXfXfXfXfXfXfXfXfXfXfXfXfXfXfX@.$.m oX:X&X:X<X1X@Xf.$X$Xr.f.d.d.d.s.+X>XiX3X=X:X<X<X<X<X1XQ.l.x.z.x.z.z.z.fXfXfXfXfXfXfXfXfXfXfXfXfXfXfXfXfXfX",
"fXfXfXfXfXfXfXfXfXfXfXfXfXfXfXfXfXfXfXfXfXfXfXfXfX@.b _.<X<X.Xw.].2.o.5XeX7X6X~.+X+X/.#X2X3X>X<X<X<X<X<X&XP.H.l.z.z.z.z.z.F.fXfXfXfXfXfXfXfXfXfXfXfXfXfXfXfXfXfX",
"fXfXfXfXfXfXfXfXfXfXfXfXfXfXfXfXfXfXfXfXfXfXfXfXfXn z oX:X2X|.o.].].0.3XeXyX3X=X<X2X<X<X&X&X$X~.+X+X@X+XQ.s.l.x.z.z.z.z.l.l.fXfXfXfXfXfXfXfXfXfXfXfXfXfXfXfXfXfX",
"fXfXfXfXfXfXfXfXfXfXfXfXfXfXfXfXfXfXfXfXfXfXfXfXn >.#.%X-X<XW.D.-X2X:X=X#X#X=X=X&X&X&X<X<X<XW.s.l.l.i.x.x.z.z.z.l.z.z.z.s.C fXfXfXfXfXfXfXfXfXfXfXfXfXfXfXfXfXfX",
"fXfXfXfXfXfXfXfXfXfXfXfXfXfXfXfXfXfXfXfXfXfXn @.a [.=X<X#Xa.~.=X&X<X=X<X<X<X<X&X<X+Xl.#X<X<X<X&X#.b j rXuXV U Y U U U U Y U fXfXfXfXfXfXfXfXfXfXfXfXfXfXfXfXfXfX",
"fXfXfXfXfXfXfXfXfXfXfXfXfXfXfXfXfXfXfXfXfXfXn %.a }.=X=X*X~.#X<X<X=X<X=X&X2X<X<XQ.H.s.P.W.P.W.W.XX}.p  X Xh G C V V V I C I fXfXfXfXfXfXfXfXfXfXfXfXfXfXfXfXfXfX",
"fXfXfXfXfXfXfXfXfXfXfXfXfXfXfXfXfXfXfXfXfXfX@.%.e  X0X5X,X<X<X&X<X&X<X<X#X/.@X/.l.d.x.s.s.d.s.l.2X(.r q q m ( P Q Q Q P P t.fXfXfXfXfXfXfXfXfXfXfXfXfXfXfXfXfXfX",
"fXfXfXfXfXfXfXfXfXfXfXfXfXfXfXfXfXfXfXfXfXfX$.-.c '.sXaXeX&X<X<X=X<X#X=X@Xs.s.d.z.z.z.z.z.z.l.x.#X!.. 8 ^ @.M @.v.x.z.=.=.F.fXfXfXfXfXfXfXfXfXfXfXfXfXfXfXfXfXfX",
"fXfXfXfXfXfXfXfXfXfXfXfXfXfXfXfXfXfXfXfXfXfXe m iXrX&XiXeX&X<X<X<X/.l.<X*Xl.x.z.z.z.D.S.l.I I U W Y V l.j.+ c @.#.#.#.B.z.G.fXfXfXfXfXfXfXfXfXfXfXfXfXfXfXfXfXfX",
"fXfXfXfXfXfXfXfXfXfXfXfXfXfXfXfXfXfXfXfXfXfXXXqX3X,X*X/.OX<X<X&X<X/.a.P.P.z.z.z.x.i.T Q R I I C C I I l.z.h.( < < u z ~ t.S. .z @.fXfXfXfXfXfXfXfXfXfXfXfXfXfXfX",
"fXfXfXfXfXfXfXfXfXfXfXfXfXfXfXfXfXfXfXfXfXfXfX2X&X&X<Xx.l.+X#X<X@XW.s.l.l.z.z.z.z.g.R I V I I C I I V i.z.S._ P E ' 1.S U S.3.z 5.n fXfXfXfXfXfXfXfXfXfXfXfXfXfX",
"fXfXfXfXfXfXfXfXfXfXfXfXfXfXfXfXfXfXfXfXfXfXfXfX<X1X<XK.z.y.~.&Xl.s.z.z.z.l.z.l.z.z.z.R C I C I C Y W s.z.z.z.S.S.l.z.T T S. .%.$.n fXfXfXfXfXfXfXfXfXfXfXfXfXfX",
"fXfXfXfXfXfXfXfXfXfXfXfXfXfXfXfXfXfXfXfXfXfX<X<X&X=X<XJ.j.#.n @.x.S.z.T V U I Y I U I C V C I U V m.1XJ.l.z.z.z.U I Y V R d.~.%X%.d - fXfXfXfXfXfXfXfXfXfXfXfXfX",
"fXfXfXfXfXfXfXfXfXfXfXfXfXfXfXfXfXfXfXfXfX<X&X1XrX0X=XK.B.p |.).1.[ S.l.y.C I I I C V t.g.g.R Z o.2.[._ t.D.i.R I C V u.l.e.+X<X-.d - fXfXfXfXfXfXfXfXfXfXfXfXfX",
"fXfXfXfXfXfXfXfXfXfXfXfXfXfXfXfXfXfXfXfXfX8X,X3XuX4X=XJ.j.a |._.M *.B.B.N.B B A C T Q z.z.D.Q V @.l w B U i.T V I I C t.x.E.~./.%.d - fXfXfXfXfXfXfXfXfXfXfXfXfX",
"fXfXfXfXfXfXfXfXfXfXfXfXfXfXfXfXfXfXfXfXfX=XrXpX=X&X<XJ.C.n k r @.n l l k * * ; V Q z.l.z.z.Q A @.g > Z I V I I I C U V _ 1XE.y.#.c & fXfXfXfXfXfXfXfXfXfXfXfXfX",
"fXfXfXfXfXfXfXfXfXfXfXfXfXfXfXfXfXfXfX<X<X&XrXiX<X=X2X4.c $.d ; @.@.@.#.+.# D I I I I U U U ( n @.v : Z I I I I C V V l.x.l.] @.$.@.fXfXfXfXfXfXfXfXfXfXfXfXfXfX",
"fXfXfXfXfXfXfXfXfXfXfXfXfXfXfXfXfXfXfX=X1X&X>X3X1XoX].-.b $.g & 1 t 1 w 7 A V V V C I C C V ( n 9 1 X Z I I V C i.i.i.s.L.@X{.a h 6 fXfXfXfXfXfXfXfXfXfXfXfXfXfX",
"fXfXfXfXfXfXfXfXfXfXfXfXfXfXfXfXfXfXfX<X1X<X&X&X@XT.0 @.n n d > ) E E P E I R Q Q T V I C I / g X ) U.W V I T Q z.S.z.z.M._.0.a ; fXfXfXfXfXfXfXfXfXfXfXfXfXfXfX",
"fXfXfXfXfXfXfXfXfXfXfXfXfXfXfXfXfXfXfX<X<X<X<X&Xc.t.I X.n @.d , z.D.x.S.s.V i.S.S.i.C Y Z Y , 4 3 Y.1Xn.C I i.x.z.z.z.z.j.i n -.fXfXfXfXfXfXfXfXfXfXfXfXfXfXfXfX",
"fXfXfXfXfXfXfXfXfXfXfXfXfXfXfXfXfXfXfXfXfX8X1XqX;.@.@.5 : $.y % z.B.x v.s.V C I l.z.S.<.c @.2 ^ iXuX#X<X$Xl.z.z.z.z.z.z.v.p XX1XfXfXfXfXfXfXfXfXfXfXfXfXfXfXfXfX",
"fXfXfXfXfXfXfXfXfXfXfXfXfXfXfXfXfXfXfXfXfXfXm.b.#.b @.5 ; y ' h.,.=.x c.l.i.i.i.S.B.<.#.m @.j +.R.`.E.E.P.S.V.1.z.z.S.[ <.a q.[.fXfXfXfXfXfXfXfXfXfXfXfXfXfXfXfX",
"fXfXfXfXfXfXfXfXfXfXfXfXfXfXfXfXfXfXfXfXfXfXn.m.@.v @.: - + h.S.n b n [ v.S.S.z.B.,.s n n n v j o H l.a.s.B.=.l N.N.B.@.b ] #.r fXfXfXfXfXfXfXfXfXfXfXfXfXfXfXfX",
"fXfXfXfXfXfXfXfXfXfXfXfXfXfXfXfXfXfXfXfXfXfX1X<X%.b n d ; # _ x.@.n n z *.c.l.v.@.b @.n n @.d > 1 ` D.D.B.z n @.b l b m <.S.3.M fXfXfXfXfXfXfXfXfXfXfXfXfXfXfXfX",
"fXfXfXfXfXfXfXfXfXfXfXfXfXfXfXfXfXfXfXfXfXfXfXfX@.j - # # # _ x.$.d & v @.#.#.#.b m @.@.m @.g > # E s.#X%Xl @.n n @.n C.C.$.$.@.fXfXfXfXfXfXfXfXfXfXfXfXfXfXfXfX",
"fXfXfXfXfXfXfXfXfXfXfXfXfXfXfXfXfXfXfXfXfXfXfXfXn j O ` h.h.l.l.#.v g m m z x b N.] s d 5 6 4 ; @ Z.@XT...n n m @.c < /.$XfXn $.fXfXfXfXfXfXfXfXfXfXfXfXfXfXfXfX",
"fXfXfXfXfXfXfXfXfXfXfXfXfXfXfXfXfXfXfXfXfXfXfXfXm v 4 v.S.z.z.z.#.M @.c X.1.1.} z.B.<.^ 4 & * : . U.1X) X v v j @.j X /.$XfXfX@.fXfXfXfXfXfXfXfXfXfXfXfXfXfXfXfX",
"fXfXfXfXfXfXfXfXfXfXfXfXfXfXfXfXfXfXfXfXfXfXfXfXm @.M B.z.x.z.c.#.n @.1 J z.S.S.x.z.z.=.b - , ^ % Y.2X .: > & - n g + i.d.fXfXfXfXfXfXfXfXfXfXfXfXfXfXfXfXfXfXfX",
"fXfXfXfXfXfXfXfXfXfXfXfXfXfXfXfXfXfXfXfXfXfXfXfX@.$.b v.z.d.] @.@.n @.4 9 k !.-XG.V.k @.v # ! z.%X=X=X<X).@ : : m c & fXfXfXfXfXfXfXfXfXfXfXfXfXfXfXfXfXfXfXfXfX",
"fXfXfXfXfXfXfXfXfXfXfXfXfXfXfXfXfXfXfXfXfXfXfXfXfXn $.X.3.@X0.i @.n n v v l q.[.x.c.N.=.v X T.$X<X<X:X;XL.+ - - 6 5 - fXfXfXfXfXfXfXfXfXfXfXfXfXfXfXfXfXfXfXfXfX",
"fXfXfXfXfXfXfXfXfXfXfXfXfXfXfXfXfXfXfXfXfXfXfXfXfXfXn q.|.1X.X0.@.n n n n h w w V.N.B.=.b . !.1X+X).(.Z.~ * 7 6 & & : fXfXfXfXfXfXfXfXfXfXfXfXfXfXfXfXfXfXfXfXfX",
"fXfXfXfXfXfXfXfXfXfXfXfXfXfXfXfXfXfXfXfXfXfXfXfXfXfXO +X:X&X:X&X;.n @.@.h % 9 ^ n b z n #.* !.=Xl.{ i M c & v m : - - fXfXfXfXfXfXfXfXfXfXfXfXfXfXfXfXfXfXfXfXfX",
"fXfXfXfXfXfXfXfXfXfXfXfXfXfXfXfXfXfXfXfXfXfXfXfXfXfXfX@ J G.D.D.z.[ a @.@.X !.<Xx.[ $.< } <XW.i.=.#.@.@.n n n @.4 - fXfXfXfXfXfXfXfXfXfXfXfXfXfXfXfXfXfXfXfXfXfX",
"fXfXfXfXfXfXfXfXfXfXfXfXfXfXfXfXfXfXfXfXfXfXfXfXfXfXfX(.(.G } 1.z.v.N.*.c O | U.S.[ i @ | 2X#X~.$.k 9 n m @.g 5 - & fXfXfXfXfXfXfXfXfXfXfXfXfXfXfXfXfXfXfXfXfXfX",
"fXfXfXfXfXfXfXfXfXfXfXfXfXfXfXfXfXfXfXfXfXfXfXfXfXfXfX8X).@ y @.l.z.S.=.l 9 # X d.A.{.h } +X+X+X .( O d c j 5 & d 6 fXfXfXfXfXfXfXfXfXfXfXfXfXfXfXfXfXfXfXfXfXfX",
"fXfXfXfXfXfXfXfXfXfXfXfXfXfXfXfXfXfXfXfXfXfXfXfXfXfXfXfXfX; c #.v.z.z.<.@.@.g 8 s.W.:Xq.&.d.a.s.S.h.2 , ; & & : m $.fXfXfXfX@.m fXfXfXfXfXfXfXfXfXfXfXfXfXfXfXfX",
"fXfXfXfXfXfXfXfXfXfXfXfXfXfXfXfXfXfXfXfXfXfXfXfXfXfXfXfXfX& j @.n  .S.l.j.x 6 , s.d.l.l.z.z.S.z.z.z.l.z.j.3 - : fXfXfXfXfXfXfXfXfXfXfXfXfXfXfXfXfXfXfXfXfXfXfXfX",
"fXfXfXfXfXfXfXfXfXfXfXfXfXfXfXfXfXfXfXfXfXfXfXfXfXfXfXfXfX& c @.n X.G ^.~.N.^ 4 /.$X@XH.l.D.[ <.<.V.G. .) & : - fXfXfXfXfXfXfXfXfXfXfXfXfXfXfXfXfXfXfXfXfXfXfXfX",
"fXfXfXfXfXfXfXfXfXfXfXfXfXfXfXfXfXfXfXfXfXfXfXfXfXfXfXfXfX- d h @.d X %X&Xd.! ' /.@X@XH.l.S.{ j j ,.B.#.k - - & fXfXfXfXfXfXfXfXfXfXfXfXfXfXfXfXfXfXfXfXfXfXfXfX",
"fXfXfXfXfXfXfXfXfXfXfXfXfXfXfXfXfXfXfXfXfXfXfXfXfXfXfXfXfX- : 5 n c O _.$Xl.z.S.s.s.s.l.z.z.Q C I J z @.v & 4 4 fXfXfXfXfXfXfXfXfXfXfXfXfXfXfXfXfXfXfXfXfXfXfXfX",
"fXfXfXfXfXfXfXfXfXfXfXfXfXfXfXfXfXfXfX@.@.fXfXfXfXfXfXfXfXfXo o : : = n 1.z.l.z.c.z.D.! I I I I #.g > v n   c n fXfXfXfXfXfXfXfXfXfXfXfXfXfXfXfXfXfXfXfXfXfXfXfX",
"fXfXfXfXfXfXfXfXfXfXfXfXfXfXfXfXfXfXfXn n fXfXfXfXfXfXfXfXfXwXtX8 2 v :.6.1.B.S.S.s.R U Z o.X.X.@.v j 4 d $.@.n fXfXfXfXfXfXfXfXfXfXfXfXfXfXfXfXfXfXfXfXfXfXfXfX",
"fXfXfXfXfXfXfXfXfXfXfXfXfXfXfXfXfXfXfXn n fXfXfXfXfXfXfXfXfXtXaX8 2 v $.@.r ,.N.N.{ J P ( m b g g m :.j n 7.5.$.fXfXfXfXfXfXfXfXfXfXfXfXfXfXfXfXfXfXfXfXfXfXfXfX",
"fXfXfXfXfXfXfXfXfXfXfXfXfXfXfXfXfXfXfXfXfX:.fXfXfXfXfXfXfX%.fXfX- : ; ; ; - g l b b n b m n 9 & = v 7.7.9.5.9.9.fXfXfXfXfXfXfXfXfXfXfXfXfXfXfXfXfXfXfXfXfXfXfXfX",
"fXfXfXfXfXfXfXfXfXfXfXfXfXfXfXfXfXfXfXfXfXfXfXfXfXfXfXfXfXfXfXfX# + X l.g.+ : 7 - d @.6 - - & - v >.8.7.7.7.8.9.fXfXfXfXfXfXfXfXfXfXfXfXfXfXfXfXfXfXfXfXfXfXfXfX",
"fXfXfXfXfXfXfXfXfXfXfXfXfXfXfXfXfXfXfXfXfXfXfXfXfXfXfXfXfXfXfXfXp.A._...=.c 5 - & d @.: - j b v 5.5.fXfXfXfXfXfXfXfXfXfXfXfXfXfXfXfXfXfXfXfXfXfXfXfXfXfXfXfXfXfX",
"fXfXfXfXfXfXfXfXfXfXfXfXfXfXfXfXfXfXfXfXfXfXfXfXfXfXfXfXfXfXfXfXy.L.+X2.g @.6 - & 9 @.6 g $.n $.5.5.fXfXfXfXfXfXfXfXfXfXfXfXfXfXfXfXfXfXfXfXfXfXfXfXfXfXfXfXfXfX",
"fXfXfXfXfXfXfXfXfXfXfXfXfXfXfXfXfXfXfXfXfXfXfXfX$.@.fXfXfXfXc.F.I V N C F m 6 & & g m @.n $.fXfXv :.8.fXfXfX9.7.fXfXfXfXfXfXfXfXfXfXfXfXfXfXfXfXfXfXfXfXfXfXfXfX",
"fXfXfXfXfXfXfXfXfXfXfXfXfXfXfXfXfXfXfXfXfXfXfXfX$.n fXfXfXfX@.@.fXfXfXI F m g : & 6 n m m :.fXfXfXfX$.fXfX$.fXfXfXfXfXfXfXfXfXfXfXfXfXfXfXfXfXfXfXfXfXfXfXfXfXfX",
"fXfXfXfXfXfXfXfXfXfXfXfXfXfXfXfXfXfXfXfXfXfXfXfXfXfXn fXfXfXn $.fXfXfXX.X.$.j fXc v m / P fXfXfXfXfX5.fXfXfXfXfXfXfXfXfXfXfXfXfXfXfXfXfXfXfXfXfXfXfXfXfXfXfXfXfX",
"fXfXfXfXfXfXfXfXfXfXfXfXfXfXfXfXfXfXfXfXfXfXfXfXfXfXn fXfXfXfX@.fXfXfXc b v fXfX@.n j / L fXfXfXfXfXn fXfXfXfXfXfXfXfXfXfXfXfXfXfXfXfXfXfXfXfXfXfXfXfXfXfXfXfXfX",
"fXfXfXfXfXfXfXfXfXfXfXfXfXfXfXfXfXfXfXfXfXfXfXfXfXfXfXfXfXfXfXfXfXfXfX- - - fXfXn g = b m fXfXfX@.n fXfXfXfXfXfXfXfXfXfXfXfXfXfX@.n fXfXfXfXfXfXfXfXfXfXfXfXfXfX",
"fXfXfXfXfXfXfXfXfXfXfXfXfXfXfXfXfXfXfXfXfXfXfXfXfXfXfXfXfXfXfXfXfXfXfXn n & fXfX& 6 m fXfXfXfXfXfXfXfXfXfXfX- - fXfXfXfXfXfXfXfXfXfXfXfXfXfXfXfXfXfXfXfXfXfXfXfX",
"fXfXfXfXfXfXfXfXfXfXfXfXfXfXfXfXfXfXfXfXfXfXfXfXfXfXfXfXfXfXfXfXfXfXfXfXfX$.fXfXj v $.fXfXfXfXfX- fXfX9.9.fXfXfXfXfXfXfXfXfXfXfXfXfXfXfXfXfXfXfXfXfXfXfXfXfXfXfX",
"fXfXfXfXfXfXfXfXfXfXfXfXfXfXfXfXfXfXfXfXfXfXfXfXfXfXfXfXfXfXfXfXfXfXfXfXfX$.fXfX$.@.@.fXfXfXfXfX4 : fX5.9.fXfXfXfXfXfXfXfXfXfXfXfXfXfXfXfXfXfXfXfXfXfXfXfXfXfXfX",
"fXfXfXfXfXfXfXfXfXfXfXfXfXfXfXfXfXfXfXfXfXfXfXfXfXfXfXfXfXfXfXfX@.m fXfXfXfXfXfXn n m fXfXfXfXfX: - fX5.5.fXfXfXfXfXfXfXfXfXfXfXfXfXfXfXfXfXfXfXfXfXfXfXfXfXfXfX",
"fXfXfXfXfXfXfXfXfXfXfXfXfXfXfXfXfXfXfXfXfXfXfXfXfXfXfXfXfXfXfXfXfXfXfXfXfXfXfXfX$.m fXfXfXfXfXfXfXfXfX9.9.fXfXfXfXfXfXfXfXfXfXfXfXfXfXfXfXfXfXfXfXfXfXfXfXfXfXfX",
"fXfXfXfXfXfXfXfXfXfXfXfXfXfXfXfXfXfXfXfXfXfXfXfXfXfXfXfXfXfXfXfXfXfXfXfXfXfXfXfXfXfXfXfXfXfXfXfXfXfXfXfXfXfXfXfXfXfXfXfXfXfXfXfXfXfXfXfXfXfXfXfXfXfXfXfXfXfXfXfX",
"fXfXfXfXfXfXfXfXfXfXfXfXfXfXfXfXfXfXfXfXfXfXfXfXfXfXfXfXfXfXfXfXfXfXfXfXfXfXfXfXfXfXfXfXfXfXfXfXfXfXfXfXfXfXfXfXfXfXfXfXfXfXfXfXfXfXfXfXfXfXfXfXfXfXfXfXfXfXfXfX",
"fXfXfXfXfXfXfXfXfXfXfXfXfXfXfXfXfXfXfXfXfXfXfXfXfXfXfXfXfXfXfXfXfXfXfXfXfXfXfXfX$.n fXfXfXfXfXfXfXfXfXfXfXfXfXfXfXfXfXfXfXfXfXfXfXfXfXfXfXfXfXfXfXfXfXfXfXfXfXfX",
"fXfXfXfXfXfXfXfXfXfXfXfXfXfXfXfXfXfXfXfXfXfXfXfXfXfXfXfXfXfXfXfXfXfXfXfXfXfXn $.:.@.fXfXfXfXfXfXfXfXfXfXfXfXfXfXfXfXfXfXfXfXfXfXfXfXfXfXfXfXfXfXfXfXfXfXfXfXfXfX",
"fXfXfXfXfXfXfXfXfXfXfXfXfXfXfXfXfXfXfXfXfXfXfXfXfXfXfXfXfXfXfXfXfXfXfXfXfXfXfXfXfXfXfXfXfXfXfXfXfXfXfXfXfXfXfXfXfXfXfXfXfXfXfXfXfXfXfXfXfXfXfXfXfXfXfXfXfXfXfXfX",
"fXfXfXfXfXfXfXfXfXfXfXfXfXfXfXfXfXfXfXfXfXfXfXfXfXfXfXfXfXfXfXfXfXfXfXfXfXfXfXfXfXfXfXfXfXfXfXfXfXfXfXfXfXfXfXfXfXfXfXfXfXfXfXfXfXfXfXfXfXfXfXfXfXfXfXfXfXfXfXfX",
"fXfXfXfXfXfXfXfXfXfXfXfXfXfXfXfXfXfXfXfXfXfXfXfXfXfXfXfXfXfXfXfXfXfXfXfXfXfXfXfX@.n fXfXfXfXfXfX@.n fXfXfXfXfXfXfXfXfXfXfXfXfXfXfXfXfXfXfXfXfXfXfXfXfXfXfXfXfXfX",
"fXfXfXfXfXfXfXfXfXfXfXfXfXfXfXfXfXfXfXfXfXfXfXfXfXfXfXfXfXfXfXfXfXfXfXfXfXfXfXfXfXfXfXfXfXfXfXfXfXfXfXfXfXfXfXfXfXfXfXfXfXfXfXfXfXfXfXfXfXfXfXfXfXfXfXfXfXfXfXfX",
"fXfXfXfXfXfXfXfXfXfXfXfXfXfXfXfXfXfXfXfXfXfXfXfXfXfXfXfXfXfXfXfXfXfXfXfXfXfXfXfXfXfXfXfXfXfXfXfXn fXfXfXfXfXfXfXfXfXfXfXfXfXfXfXfXfXfXfXfXfXfXfXfXfXfXfXfXfXfXfX",
"fXfXfXfXfXfXfXfXfXfXfXfXfXfXfXfXfXfXfXfXfXfXfXfXfXfXfXfXfXfXfXfXfXfXfXfXfXfXfXfXfXfXfXfXfXfXfXfXn fXfXfXfXfXfXfXfXfXfXfXfXfXfXfXfXfXfXfXfXfXfXfXfXfXfXfXfXfXfXfX",
"fXfXfXfXfXfXfXfXfXfXfXfXfXfXfXfXfXfXfXfXfXfXfXfXfXfXfXfXfXfXfXfXfXfXfXfXfXfXfXfXfXfXfXfXfXfXfXfXfXfXfXfXfXfXfXfXfXfXfXfXfXfXfXfXfXfXfXfXfXfXfXfXfXfXfXfXfXfXfXfX"
};
