/* XPM */
static char *_7314_4ca5bcc692386b3b547555bc6f4854f8819d5aa56622bb0004c0a02e1f5101db[] = {
/* columns rows colors chars-per-pixel */
"80 80 135 2 ",
"   c #100F0E",
".  c #011A16",
"X  c #0D1C17",
"o  c #001D19",
"O  c #151411",
"+  c #1A1612",
"@  c #151A15",
"#  c #1D1A15",
"$  c #141E18",
"%  c #1F1F19",
"&  c #221512",
"*  c #211C17",
"=  c #291C16",
"-  c #221E18",
";  c #2A1E18",
":  c #321611",
">  c #3C1511",
",  c #331A14",
"<  c #391A15",
"1  c #00231D",
"2  c #0C221B",
"3  c #17271F",
"4  c #1D231B",
"5  c #25211A",
"6  c #2B251D",
"7  c #2D281F",
"8  c #32271E",
"9  c #0E2720",
"0  c #002820",
"q  c #162C23",
"w  c #182820",
"e  c #232C23",
"r  c #2F2920",
"t  c #342D23",
"y  c #27352A",
"u  c #2B3228",
"i  c #26382D",
"p  c #29392D",
"a  c #363025",
"s  c #393227",
"d  c #35352A",
"f  c #3E362A",
"g  c #35382C",
"h  c #3C382C",
"j  c #4D0C09",
"k  c #550506",
"l  c #5E0302",
"z  c #5D0A06",
"x  c #530A09",
"c  c #5D0E09",
"v  c #40140F",
"b  c #57130E",
"n  c #5C130E",
"m  c #5A1C0F",
"M  c #441711",
"N  c #421C15",
"B  c #461E18",
"V  c #541D16",
"C  c #5B1B12",
"Z  c #630000",
"A  c #650904",
"S  c #631D0E",
"D  c #6D1C0D",
"F  c #7B1F0A",
"G  c #48271E",
"H  c #5C2214",
"J  c #53231A",
"K  c #5B251B",
"L  c #5B291E",
"P  c #77210D",
"I  c #78210B",
"U  c #60271C",
"Y  c #60291B",
"T  c #692D1E",
"R  c #702012",
"E  c #7B2510",
"W  c #442F25",
"Q  c #4C2C21",
"!  c #5A2C21",
"~  c #403327",
"^  c #483126",
"/  c #41362A",
"(  c #4B3529",
")  c #423A2D",
"_  c #533225",
"`  c #473E30",
"'  c #483F31",
"]  c #6F3221",
"[  c #6D3F2D",
"{  c #733C2A",
"}  c #454334",
"|  c #4D4334",
" . c #474838",
".. c #4E4939",
"X. c #514636",
"o. c #5B4030",
"O. c #524837",
"+. c #544A39",
"@. c #594E3C",
"#. c #56503E",
"$. c #5D513E",
"%. c #64402F",
"&. c #694634",
"*. c #794E3A",
"=. c #5F5340",
"-. c #625542",
";. c #665945",
":. c #695C46",
">. c #635C48",
",. c #6B5E48",
"<. c #5F604B",
"1. c #6E604A",
"2. c #71634C",
"3. c #880D00",
"4. c #8E1700",
"5. c #851D02",
"6. c #891A00",
"7. c #931B00",
"8. c #9A1800",
"9. c #802007",
"0. c #8B2002",
"q. c #83240A",
"w. c #8A280E",
"e. c #902101",
"r. c #9D2701",
"t. c #9F2C0B",
"y. c #8F2C13",
"u. c #822D18",
"i. c #912C13",
"p. c #8A341D",
"a. c #A22701",
"s. c #AA2500",
"d. c #8B3E28",
"f. c #923B23",
"g. c None",
/* pixels */
"g.g.g.g.g.g.g.g.g.g.g.g.g.g.g.g.g.g.g.g.g.g.g.g.g.g.g.g.g.g.g.g.g.g.g.g.g.g.g.g.g.g.g.g.g.g.g.g.g.g.g.g.g.g.g.g.g.g.g.g.g.g.g.g.g.g.g.g.g.g.g.g.g.g.g.g.g.g.g.g.",
"g.g.g.g.g.g.g.g.g.g.g.g.g.g.g.g.g.g.g.g.g.g.g.g.g.g.g.g.g.g.g.g.g.g.g.g.g.g.g.g.g.g.g.g.g.g.g.g.g.g.g.g.g.g.g.g.g.g.g.g.g.g.g.g.g.g.g.g.g.g.g.g.g.g.g.g.g.g.g.g.",
"g.g.g.g.g.g.g.g.g.g.g.g.g.g.g.g.g.g.g.g.g.g.g.g.g.g.g.g.g.g.g.g.g.g.g.g.g.g.g.g.g.g.g.g.g.g.g.g.g.g.g.g.g.g.g.g.g.g.g.g.g.g.g.g.g.g.g.g.g.g.g.g.g.g.g.g.g.g.g.g.",
"g.g.g.g.g.g.g.g.g.g.g.g.g.g.g.g.g.g.g.g.g.g.g.g.g.g.g.g.g.g.g.g.g.g.g.g.g.g.g.g.g.g.g.g.g.g.g.g.g.g.g.g.g.g.g.g.g.g.g.g.g.g.g.g.g.g.g.g.g.g.g.g.g.g.g.g.g.g.g.g.",
"g.g.g.g.g.g.g.g.g.g.g.g.g.g.g.g.g.g.g.g.g.g.g.g.g.g.g.g.g.g.g.g.g.g.g.g.g.g.g.g.g.g.g.g.g.g.g.g.g.g.g.g.g.g.g.g.g.g.g.g.g.g.g.g.g.g.g.g.g.g.g.g.g.g.g.g.g.g.g.g.",
"g.g.g.g.g.g.g.g.g.g.g.g.g.g.g.g.g.g.g.g.g.g.g.g.g.g.g.g.g.g.g.g.g.g.g.g.g.g.g.g.g.g.g.g.g.g.g.g.g.g.g.g.g.g.g.g.g.g.g.g.g.g.g.g.g.g.g.g.g.g.g.g.g.g.g.g.g.g.g.g.",
"g.g.g.g.g.g.g.g.g.g.g.g.g.g.g.g.g.g.g.g.g.g.g.g.g.g.g.g.g.g.g.g.g.g.g.g.g.g.g.g.g.g.g.g.g.g.g.g.g.g.g.g.g.g.g.g.g.g.g.g.g.g.g.g.g.g.g.g.g.g.g.g.g.g.g.g.g.g.g.g.",
"g.g.g.g.g.g.g.g.g.g.g.g.g.g.g.g.g.g.g.g.g.g.g.g.g.g.g.g.g.g.g.g./ ) ) ,.:.f -.1.} f g.g.g.g.g.g.g.g.g.g.g.g.g.g.g.g.g.g.g.g.g.g.g.g.g.g.g.g.g.g.g.g.g.g.g.g.g.g.",
"g.g.g.g.g.g.g.g.g.g.g.g.g.g.g.g.g.g.g.g.g.g.g.g.g.g.g.g.g.f f f s X.:.;.:.;.:.:./ s f f f f 7 + + r / f f f f f g.g.g.g.g.g.g.g.g.g.g.g.g.g.g.g.g.g.g.g.g.g.g.g.",
"g.g.g.g.g.g.g.g.g.g.g.g.g.g.g.g.g.g.g.g.g.g.g.g.g.g.g.g.f f / / s +.,.;.:.:.$.+.| | | | | | f a a s / / f / / f f / f g.g.g.g.g.g.g.g.g.g.g.g.g.g.g.g.g.g.g.g.g.",
"g.g.g.g.g.g.g.g.g.g.g.g.g.g.g.g.g.g.g.g.g.g.g.g.g.g.g.) } ) ~ f a +.,.:.:.:.$.+.X.X.X.| | X.) f / f f f f f f f ) / ) / g.g.g.g.g.g.g.g.g.g.g.g.g.g.g.g.g.g.g.g.",
"g.g.g.g.g.g.g.g.g.g.g.g.g.g.g.g.g.g.g.g.g.g.g.g./ ) ) X.+.+.` f s X.,.;.;.:.:.;.+.X.| / / X.' f f f / / / / / / / / f ) f g.g.g.g.g.g.g.g.g.g.g.g.g.g.g.g.g.g.g.",
"g.g.g.g.g.g.g.g.g.g.g.g.g.g.g.g.g.g.g.g.g.g.g.g./ ) a =.;.:.$.| f ` +.X.+.,.$.X.:.=.| X.X.X.) f 4 M Z l k k k k Z J h f f h g.g.g.g.g.g.g.g.g.g.g.g.g.g.g.g.g.g.",
"g.g.g.g.g.g.g.g.g.g.g.g.g.g.g.g.g.g.g.g.g.g.g.g.g.+.-.:.;.@.+.X.| ` ) X.+.@.X.X.@.+.| +.| t f f - = > 5.7.4.7.4.Z V h / / ) g.g.g.g.g.g.g.g.g.g.g.g.g.g.g.g.g.g.",
"g.g.g.g.g.g.g.g.g.g.g.g.g.g.g.g.g.g.g.g.g.g.g.g.g.-.2.-.$.@.X.X.+.` r ) ' X.X.X.| X.X.} f   7 a - # o P w.p.p.p.Y Q t t s ) g.g.g.g.g.g.g.g.g.g.g.g.g.g.g.g.g.g.",
"g.g.g.g.g.g.g.g.g.g.g.g.g.g.g.g.g.g.g.g.g.g.g.g.+.=.:.+.+.:.@.| | ) & + 8 X.X.| X.| X.7 + ; = = = ; 6 o q  . . .+.` * - 6 ) g.g.g.g.g.g.g.g.g.g.g.g.g.g.g.g.g.g.",
"g.g.g.g.g.g.g.g.g.g.g.g.g.g.g.g.g.g.g.g.g.g.X.+.;.:.1.+.X.X.) f 5 M Z = o 1 X + + # % @ : z z z l !  .' | X.=.,.,.=.| X.` o # - g.g.g.g.g.g.g.g.g.g.g.g.g.g.g.g.",
"g.g.g.g.g.g.g.g.g.g.g.g.g.g.g.g.g.g.g.g.g.s | +.:.;.+.X.X.+.| ~ 2 M Z I q.3.&.#.@.| ) ` ^ Z Z l Z ! X.-.=.| O.@.@.@.-...' 0.K o g.g.g.g.g.g.g.g.g.g.g.g.g.g.g.g.",
"g.g.g.g.g.g.g.g.g.g.g.g.g.g.g.g.g.g.g.g.g.) ` | $.+.| X.| ) f t < j l 7.a.f.*.-.1.-.X.+.o.K L L l ! X.;.;.@.X.| ' +.;.X.&.s.P o g.g.g.g.g.g.g.g.g.g.g.g.g.g.g.g.",
"g.g.g.g.g.g.g.g.g.g.g.g.g.g.g.g.g.g.g.g.g.f f f s ) X.X.} & + ; Z A n e.f.<.+.| ;.=.| X.| ..X.X.l ! ..-.;.:.=.| O.X.X.| [ a.g.g.g.g.g.g.g.g.g.g.g.g.g.g.g.g.g.g.",
"g.g.g.g.g.g.g.g.g.g.g.g.g.g.g.g.g.g.g.g.g.) ) / / f / 7 # . e ) 8.d.>.:.:.:.$.| | | +.| | +.' / s O.,.+.X.O.X.X.+.X.+.r 5 ( / f g.g.g.g.g.g.g.g.g.g.g.g.g.g.g.g.",
"g.g.g.g.g.g.g.g.g.g.g.g.g.g.g.g.g.g.g.g.g.g.f ) f / f u ^ 0.D J { &.#.@.@.$.+.X.-.=.| =.$./ / f f ' @.X.X.X.X.X.a t a * - d f f / g.g.g.g.g.g.g.g.g.g.g.g.g.g.g.",
"g.g.g.g.g.g.g.g.g.g.g.g.g.g.g.g.g.g.g.g.g.g.f ) d f f ^ L i.R V } | X.' ' ) +.@.;.@.} $.#.f f f f ) X.X.X.X.' ) # # 6 6 t ) ) f ) s g.g.g.g.g.g.g.g.g.g.g.g.g.g.",
"g.g.g.g.g.g.g.g.g.g.g.g.g.g.g.g.g.g.g.g.g.) ) f ( / d z n p g f s ) X.) f s @.:.| ' s s f f f f f ` X.| | X.s O 5 t ` / ) +.` f ) t * g.g.g.g.g.g.g.g.g.g.g.g.g.",
"g.g.g.g.g.g.g.g.g.g.g.g.g.g.g.g.g.g.g.g.g./ d ( r.u.p c n f f f f f f f f f ) ) f / / / ) / f h f f ) / f / r # ' @.:.+.X.:.@.| ) t # g.g.g.g.g.g.g.g.g.g.g.g.g.",
"g.g.g.g.g.g.g.g.g.g.g.g.g.g.g.g.g.g.g.f / } ' ' T ! d Q Q f / f f f ) f f ) f s / a 6 3 9 0 B C / t 6 s f f f ` $.;.,.+.X.@.+.| ) t - g.g.g.g.g.g.g.g.g.g.g.g.g.",
"g.g.g.g.g.g.g.g.g.g.g.g.g.g.g.g.g.g.g.) X.@.@.@. .| | } h / s a f f t a s t d / a t 6 m S S C V / t + s ) ) X.=.:.;.-.@.@.| X.X.) t # g.g.g.g.g.g.g.g.g.g.g.g.g.",
"g.g.g.g.g.g.g.g.g.g.g.g.g.g.g.g.g.g.g.X.$.,.:.:.:.:.:.+.| / 7 # f t # # * & t / * 8 f y.a.a.] p / t * s ` | =.;.:.$.} ;.;.| X.| ) f g.g.g.g.g.g.g.g.g.g.g.g.g.g.",
"g.g.g.g.g.g.g.g.g.g.g.g.g.g.g.g.g.g.g.| @.:.:.:.+.X.+.+.| / 7 + * * * @ , Z Q h Z Z Z ^ ) ( / f 6 $ o a / f f ` X.+.X.X.X.X.' f 6 - g.g.g.g.g.g.g.g.g.g.g.g.g.g.",
"g.g.g.g.g.g.g.g.g.g.g.g.g.g.g.g.g.g.g.| =.,.$.@.O.} ) ) ) f s a t a t t 8 G V C G ^ Q f d d f ~ o m 6._ d / f / ) ` ` ` ) ' ) f g.g.g.g.g.g.g.g.g.g.g.g.g.g.g.g.",
"g.g.g.g.g.g.g.g.g.g.g.g.g.g.g.g.g.g.g.| +.;.+.| | ) f t a / f f / / f | | .._ b f h h f / ~ s t 3 L i._ d s t s t t t t t t f f g.g.g.g.g.g.g.g.g.g.g.g.g.g.g.g.",
"g.g.g.g.g.g.g.g.g.g.g.g.g.g.g.g.g.g.g.g.g.| X.| / f / 5 5 f f f d f f -.,.,.+.h / f / f f / 7 = / h p f s # * # # - # # - + t / g.g.g.g.g.g.g.g.g.g.g.g.g.g.g.g.",
"g.g.g.g.g.g.g.g.g.g.g.g.g.g.g.g.g.g.g.g.g.g.) ) f f f 6 * - a f 5 8 f | #.:.:.;.~ f f f f h J l / a 4 . 2 ) t # * * * - 5 # a / g.g.g.g.g.g.g.g.g.g.g.g.g.g.g.g.",
"g.g.g.g.g.g.g.g.g.g.g.g.g.g.g.g.g.g.g.g.g.g.f ' f f f 6 # # 5 r + 7 f ) } @.@.@.' | | f s f ( Q 6 N k I I e 5 * * * * # # + a f g.g.g.g.g.g.g.g.g.g.g.g.g.g.g.g.",
"g.g.g.g.g.g.g.g.g.g.g.g.g.g.g.g.g.g.g.g.g.g.g.f f f t 5 - r 6 6 7 a f f / ' | X.$.+.+.} ) f s a # > k 6.5.. * - - * # 6 7 7 s / g.g.g.g.g.g.g.g.g.g.g.g.g.g.g.g.",
"g.g.g.g.g.g.g.g.g.g.g.g.g.g.g.g.g.g.g.g.g.g.g.g.) t + * 6 f f f / f f / / ~ ' O.;.$.| X.| f 7 + * 4 2 x x 5 - * * 5 * f ) f f f g.g.g.g.g.g.g.g.g.g.g.g.g.g.g.g.",
"g.g.g.g.g.g.g.g.g.g.g.g.g.g.g.g.g.g.g.g.g.g.g.g./ a - # # - - 6 | X.| X.| X.) / / / f ) s 5 * # + 6 f ~ ~ f 6 + + 7 f f f ) t * g.g.g.g.g.g.g.g.g.g.g.g.g.g.g.g.",
"g.g.g.g.g.g.g.g.g.g.g.g.g.g.g.g.g.g.g.g.g.g.g.g.f t + t t # + # | X.| | | X.| } f f f h s   s ) ) ) | | ' / s t a t 7 f d 8 6 # g.g.g.g.g.g.g.g.g.g.g.g.g.g.g.g.",
"g.g.g.g.g.g.g.g.g.g.g.g.g.g.g.g.g.g.g.g.g.g.g.g.h s 6 d f 6 t s +.@.@.@.@.X.X.X.' / f f f 8 } +.$.+.} X.| t s / / a + a t + # * g.g.g.g.g.g.g.g.g.g.g.g.g.g.g.g.",
"g.g.g.g.g.g.g.g.g.g.g.g.g.g.g.g.g.g.g.g.g.g.g.g./ f / / f f ' +.:.:.;.:.;.X.X.X.X.} f f ) +.X.X.:.$.s | } O t / f t # # # g.g.g.g.g.g.g.g.g.g.g.g.g.g.g.g.g.g.g.",
"g.g.g.g.g.g.g.g.g.g.g.g.g.g.g.g.g.g.g.g.g.g.g.g.f ) f f f f ` +.:.:.:.:.;.| =.;.+.) + s | :.:.;.+.X.X.X.} + * 5 f a # g.g.g.g.g.g.g.g.g.g.g.g.g.g.g.g.g.g.g.g.g.",
"g.g.g.g.g.g.g.g.g.g.g.g.g.g.g.g.g.g.g.g.g.g.g.g.g.f ) ) f f ) ` +.#.@.$.+.X.+.$.} a + s ) X.X.X.) } X.' / s 6 # f a # g.g.g.g.g.g.g.g.g.g.g.g.g.g.g.g.g.g.g.g.g.",
"g.g.g.g.g.g.g.g.g.g.g.g.g.g.g.g.g.g.g.g.g.g.g.g.g.g.f t t f f f | X.X.| | X.X.| f t + s f s s s s ' X.) f ) r # a r * g.g.g.g.g.g.g.g.g.g.g.g.g.g.g.g.g.g.g.g.g.",
"g.g.g.g.g.g.g.g.g.g.g.g.g.g.g.g.g.g.g.g.g.g.g.g.g.g.# # 6 f f f | | X.X.X.| X.| / a * f ) / / ~ s ' X./ f f r * * * * g.g.g.g.g.g.g.g.g.g.g.g.g.g.g.g.g.g.g.g.g.",
"g.g.g.g.g.g.g.g.g.g.g.g.g.g.g.g.g.g.g.g.g.g.g.g.g.g.g.f f - 5 5 5 * * s / f / / f / f $.;.:.@.| / f ) 6 5 # a f ) f g.g.g.g.g.g.g.g.g.g.g.g.g.g.g.g.g.g.g.g.g.g.",
"g.g.g.g.g.g.g.g.g.g.g.g.g.g.g.g.g.g.g.g.g.g.g.g.g.g.g.g.g.# # # + 7 a | } / a 5 7 7 7 $.:.@.+.X.| ) f 5 + + a ) g.g.g.g.g.g.g.g.g.g.g.g.g.g.g.g.g.g.g.g.g.g.g.g.",
"g.g.g.g.g.g.g.g.g.g.g.g.g.g.g.g.g.g.g.g.g.g.g.g.g.g.g.g.g.t r 6 * 7 t ) ) a t 6 7 7 5 @.$.| X.X.X.| ) s a 6 a ) g.g.g.g.g.g.g.g.g.g.g.g.g.g.g.g.g.g.g.g.g.g.g.g.",
"g.g.g.g.g.g.g.g.g.g.g.g.g.g.g.g.g.g.g.g.g.g.g.g.g.g.g.g.g.f ) f 5 * + # & + t f d / f } X.X.| | X.X.X.+.X.) g.g.g.g.g.g.g.g.g.g.g.g.g.g.g.g.g.g.g.g.g.g.g.g.g.g.",
"g.g.g.g.g.g.g.g.g.g.g.g.g.g.g.g.g.g.g.g.g.g.g.g.g.g.g.g.g.g.g.g.# * * # # # * - * r f 6 5 - - 5 s ` X.X.X.+.g.g.g.g.g.g.g.g.g.g.g.g.g.g.g.g.g.g.g.g.g.g.g.g.g.g.",
"g.g.g.g.g.g.g.g.g.g.g.g.g.g.g.g.g.g.g.g.g.g.g.g.g.g.g.g.g.f g.g.5 5 * t s t 6 # # r ) - - a t t } X.X.X.X.} g.g.g.g.g.g.g.g.g.g.g.g.g.g.g.g.g.g.g.g.g.g.g.g.g.g.",
"g.g.g.g.g.g.g.g.g.g.g.g.g.g.g.g.g.g.g.g.g.g.g.g.g.g.g.g.g.f g.g.# - * t s ) t # # r / t t f f ) ' | X.X.| h g.g.g.g.g.g.g.g.g.g.g.g.g.g.g.g.g.g.g.g.g.g.g.g.g.g.",
"g.g.g.g.g.g.g.g.g.g.g.g.g.g.g.g.g.g.g.g.g.g.g.g.g.g.g.g.g.g.g.g.- - - # 5 / r # # r / f / f f f s ) X.X.| ) g.g.g.g.g.g.g.g.g.g.g.g.g.g.g.g.g.g.g.g.g.g.g.g.g.g.",
"g.g.g.g.g.g.g.g.g.g.g.g.g.g.g.g.g.g.g.g.g.g.g.g.g.g.g.g.g.g.g.g.) f g.+ 5 ) r * # r f / ) ) ) ) / / / ) ) ) g.g.g.g.g.g.g.g./ / g.g.g.g.g.g.g.g.g.g.g.g.g.g.g.g.",
"g.g.g.g.g.g.g.g.g.g.g.g.g.g.g.g.g.g.g.g.g.g.g.g.g.g.g.g.g.g.g.g.g.g.g.s f ) 6 # t s f t 6 g.g.g.f / ) g.g.) g.g.g.g.g.g.g.g.g.g.g.g.g.g.g.g.g.g.g.g.g.g.g.g.g.g.",
"g.g.g.g.g.g.g.g.g.g.g.g.g.g.g.g.g.g.g.g.g.g.g.g.g.g.g.g.g.g.g.g.g.g.g.a s t t r / f a r 6 g.g.g./ f f g.g.` g.g.g.g.g.g.g.g.g.g.g.g.g.g.g.g.g.g.g.g.g.g.g.g.g.g.",
"g.g.g.g.g.g.g.g.g.g.g.g.g.g.g.g.g.g.g.g.g.g.g.g.g.g.g.g.g.g.g.g.) f g.* * + t h f t O f ) g.g.g.f f g.g.g.) g.g.g.g.g.g.g.g.g.g.g.g.g.g.g.g.g.g.g.g.g.g.g.g.g.g.",
"g.g.g.g.g.g.g.g.g.g.g.g.g.g.g.g.g.g.g.g.g.g.g.g.g.g.` g.g.g.g.g.g.g.g.f / O t / 5 # g.f f g.g.g.5 5 g.g.g.g.g.g.g.g.g.g.g.g.g.g.g.g.g.g.g.g.g.g.g.g.g.g.g.g.g.g.",
"g.g.g.g.g.g.g.g.g.g.g.g.g.g.g.g.g.g.g.g.g.g.g.g.g.g.g.g.g.g.g.g.g.g.g.g.d / t 7 s a g.f f g.g.g.g.g.g.g.g.g.g.g.g.g.g.g.g.g.g.g.g.g.g.g.g.g.g.g.g.g.g.g.g.g.g.g.",
"g.g.g.g.g.g.g.g.g.g.g.g.g.g.g.g.g.g.g.g.g.g.g.g.g.g.g.g.g.g.g.g.g.g.g.g.g.) 6 # ) / g.f / g.g.g.g.g.g.g.g.g.g.g.g.g.g.g.g.g.g.g.g.g.g.g.g.g.g.g.g.g.g.g.g.g.g.g.",
"g.g.g.g.g.g.g.g.g.g.g.g.g.g.g.g.g.g.g.g.g.g.g.g.g.g.g.g.g.g.g.g.g.g.g.g.g.g.# 5 ) f g.g.g.g.g.g.) f g.g.g.g.g.g.g.g.g.g.g.g.g.g.g.g.g.g.g.g.g.g.g.g.g.g.g.g.g.g.",
"g.g.g.g.g.g.g.g.g.g.g.g.g.g.g.g.g.g.g.g.g.g.g.g.g.g.g.g.g.g.g.g.g.g.) g.g.g.* 5 ) / g.g.g.g.g.g.g.g.g.g.g.g.g.g.g.g.g.g.g.g.g.g.g.g.g.g.g.g.g.g.g.g.g.g.g.g.g.g.",
"g.g.g.g.g.g.g.g.g.g.g.g.g.g.g.g.g.g.g.g.g.g.g.g.g.g.g.g.g.g.g.g.g.g.g.g.g.g.g.g.g.g.g.g.g.g.g.g.g.g.g.g.g.g.g.g.g.g.g.g.g.g.g.g.g.g.g.g.g.g.g.g.g.g.g.g.g.g.g.g.",
"g.g.g.g.g.g.g.g.g.g.g.g.g.g.g.g.g.g.g.g.g.g.g.g.g.g.g.g.g.g.g.g.g.g.g.g.g.g.g.g.g.g.g.g.g.g.g.g.g.g.g.g.g.g.g.g.g.g.g.g.g.g.g.g.g.g.g.g.g.g.g.g.g.g.g.g.g.g.g.g.",
"g.g.g.g.g.g.g.g.g.g.g.g.g.g.g.g.g.g.g.g.g.g.g.g.g.g.g.g.g.g.g.g.g.g.g.g.g.g.g.g.g.g.g.f f g.g.g.g.g.g.g.g.g.g.g.g.g.g.g.g.g.g.g.g.g.g.g.g.g.g.g.g.g.g.g.g.g.g.g.",
"g.g.g.g.g.g.g.g.g.g.g.g.g.g.g.g.g.g.g.g.g.g.g.g.g.g.g.g.g.g.g.g.g.g.g.g.g.g.g.g./ f g.g.g.g.g.g.g.g.g.g.g.g.g.g.g.g.g.g.g.g.g.g.g.g.g.g.g.g.g.g.g.g.g.g.g.g.g.g.",
"g.g.g.g.g.g.g.g.g.g.g.g.g.g.g.g.g.g.g.g.g.g.g.g.g.g.g.g.g.g.g.g.g.g.g.g.g.g.g.g.g.g.g.g.g.g.g.g.g.g.g.g.g.g.g.g.g.g.g.g.g.g.g.g.g.g.g.g.g.g.g.g.g.g.g.g.g.g.g.g.",
"g.g.g.g.g.g.g.g.g.g.g.g.g.g.g.g.g.g.g.g.g.g.g.g.g.g.g.g.g.g.g.g.g.g.g.g.g.g.g.g.g.g.g.g.g.g.g.g.g.g.g.g.g.g.g.g.g.g.g.g.g.g.g.g.g.g.g.g.g.g.g.g.g.g.g.g.g.g.g.g.",
"g.g.g.g.g.g.g.g.g.g.g.g.g.g.g.g.g.g.g.g.g.g.g.g.g.g.g.g.g.g.g.g.g.g.g.g.g.g.g.g.g.g.g.g.g.g.g.g.g.g.g.g.g.g.g.g.g.g.g./ f g.g.g.g.g.g.g.g.g.g.g.g.g.g.g.g.g.g.g.",
"g.g.g.g.g.g.g.g.g.g.g.g.g.g.g.g.g.g.g.g.g.g.g.g.g.g.g.g.g.g.g.g.g.g.` g.g.g.g.g.g.g.g.g.g.g.g.g.g.g.g.g.g.g.g.g.g.g.g.g.g.g.g.g.g.g.g.g.g.g.g.g.g.g.g.g.g.g.g.g.",
"g.g.g.g.g.g.g.g.g.g.g.g.g.g.g.g.g.g.g.g.g.g.g.g.g.g.g.g.g.g.g.g.g.g.g.g.g.g.g.g.g.g.g.g.g.g.g.g.g.g.g.g.g.g.g.g.g.g.g.g.g.g.g.g.g.g.g.g.g.g.g.g.g.g.g.g.g.g.g.g.",
"g.g.g.g.g.g.g.g.g.g.g.g.g.g.g.g.g.g.g.g.g.g.g.g.g.g.g.g.g.g.g.g.g.g.g.g.g.g.g.g.g.g.g.g.g.g.g.g.g.g.g.g.g.g.g.g.g.g.g.g.g.g.g.g.g.g.g.g.g.g.g.g.g.g.g.g.g.g.g.g.",
"g.g.g.g.g.g.g.g.g.g.g.g.g.g.g.g.g.g.g.g.g.g.g.g.g.g.g.g.g.g.g.g.g.g.g.g.g.g.g.g.h / g.g.g.g.g.g.g.g.g.g.g.g.g.g.g.g.g.g.g.g.g.g.g.g.g.g.g.g.g.g.g.g.g.g.g.g.g.g.",
"g.g.g.g.g.g.g.g.g.g.g.g.g.g.g.g.g.g.g.g.g.g.g.g.g.g.g.g.g.g.g.g.g.g.) g.g.g.g.g.g.g.g.g.g.g.g.g.g.g.g.g.g.g.g.g.g.g.g.g.g.g.g.g.g.g.g.g.g.g.g.g.g.g.g.g.g.g.g.g.",
"g.g.g.g.g.g.g.g.g.g.g.g.g.g.g.g.g.g.g.g.g.g.g.g.g.g.g.g.g.g.g.g.g.g.g.g.g.g.g.g.g.g.g.g.g.g.g.g.g.g.g.g.g.g.g.g.g.g.g.g.g.g.g.g.g.g.g.g.g.g.g.g.g.g.g.g.g.g.g.g.",
"g.g.g.g.g.g.g.g.g.g.g.g.g.g.g.g.g.g.g.g.g.g.g.g.g.g.g.g.g.g.g.g.g.g.g.g.g.g.g.g.g.g.g.g.g.g.g.g.g.g.g.g.g.g.g.g.g.g.g.g.g.g.g.g.g.g.g.g.g.g.g.g.g.g.g.g.g.g.g.g.",
"g.g.g.g.g.g.g.g.g.g.g.g.g.g.g.g.g.g.g.g.g.g.g.g.g.g.g.g.g.g.g.g.g.g.g.g.g.g.g.g.g.g.g.g.g.g.g.g.g.g.) g.g.g.g.g.g.g.g.g.g.g.g.g.g.g.g.g.g.g.g.g.g.g.g.g.g.g.g.g.",
"g.g.g.g.g.g.g.g.g.g.g.g.g.g.g.g.g.g.g.g.g.g.g.g.g.g.g.g.g.g.g.g.g.g.g.g.g.g.g.g.g.g.g.g.g.g.g.g.g.g.g.g.g.g.g.g.g.g.g.g.g.g.g.g.g.g.g.g.g.g.g.g.g.g.g.g.g.g.g.g.",
"g.g.g.g.g.g.g.g.g.g.g.g.g.g.g.g.g.g.g.g.g.g.g.g.g.g.g.g.g.g.g.g.g.g.g.g.g.g.g.g.g.g.g.g.g.g.g.g.g.g.g.g.g.g.g.g.g.g.g.g.g.g.g.g.g.g.g.g.g.g.g.g.g.g.g.g.g.g.g.g.",
"g.g.g.g.g.g.g.g.g.g.g.g.g.g.g.g.g.g.g.g.g.g.g.g.g.g.g.g.g.g.g.g.g.g.g.g.g.g.g.g.g.g.g.g.g.g.g.g.g.g.g.g.g.g.g.g.g.g.g.g.g.g.g.g.g.g.g.g.g.g.g.g.g.g.g.g.g.g.g.g.",
"g.g.g.g.g.g.g.g.g.g.g.g.g.g.g.g.g.g.g.g.g.g.g.g.g.g.g.g.g.g.g.g.g.g.g.g.g.g.g.g.g.g.g.g.g.g.g.g.g.g.g.g.g.g.g.g.g.g.g.g.g.g.g.g.g.g.g.g.g.g.g.g.g.g.g.g.g.g.g.g."
};
