/* XPM */
static char *_0837_536c70bd51475bc6911bb2068dde7be070d5c98ea3957e069344b9809487ea61[] = {
/* columns rows colors chars-per-pixel */
"80 80 243 2 ",
"   c #7F2F28",
".  c #7E312A",
"X  c #7F3125",
"o  c #7E2735",
"O  c #7A2619",
"+  c #0C0651",
"@  c #363166",
"#  c #7A3C56",
"$  c #793B58",
"%  c #763354",
"&  c #7C3446",
"*  c #52336C",
"=  c #4E2C7D",
"-  c #4B2876",
";  c #4A3D7C",
":  c #583B73",
">  c #4C316A",
",  c #6E2B7C",
"<  c #673676",
"1  c #723177",
"2  c #42305F",
"3  c #4C447E",
"4  c #5B4377",
"5  c #534A6F",
"6  c #77426D",
"7  c #78426C",
"8  c #6A4271",
"9  c #664974",
"0  c #75587C",
"q  c #6D4F75",
"w  c #77617C",
"e  c #7D7865",
"r  c #802F2B",
"t  c #80322B",
"y  c #813829",
"u  c #8A3936",
"i  c #850000",
"p  c #94473A",
"a  c #8E4D37",
"s  c #8A3D4C",
"d  c #883A48",
"f  c #863E52",
"g  c #873C7E",
"h  c #8B4346",
"j  c #8C484B",
"k  c #954A4B",
"l  c #9C544C",
"z  c #9C5749",
"x  c #884956",
"c  c #9C5A52",
"v  c #995559",
"b  c #905455",
"n  c #A15C4B",
"m  c #A45B52",
"M  c #A75B55",
"N  c #956956",
"B  c #A36549",
"V  c #A56857",
"C  c #A97759",
"Z  c #975A66",
"A  c #8B4A7D",
"S  c #845475",
"D  c #9B5176",
"F  c #9C5479",
"G  c #8F526E",
"H  c #A35C67",
"J  c #A45E74",
"K  c #A1557A",
"L  c #89666C",
"P  c #9A6467",
"I  c #867B6A",
"U  c #967A68",
"Y  c #886979",
"T  c #9A7079",
"R  c #A5676A",
"E  c #A27C6B",
"W  c #A77963",
"Q  c #A56174",
"!  c #A96471",
"~  c #A66A7A",
"^  c #AB7479",
"/  c #B27C6F",
"(  c #89875B",
")  c #91875D",
"_  c #AD835C",
"`  c #8B8962",
"'  c #9A8C6D",
"]  c #948A64",
"[  c #9C9367",
"{  c #9E936E",
"}  c #96946B",
"|  c #9C9676",
" . c #968C7A",
".. c #A98267",
"X. c #B38565",
"o. c #B48568",
"O. c #B6896A",
"+. c #B78B69",
"@. c #A2996C",
"#. c #BD986D",
"$. c #AD8E7A",
"%. c #A78573",
"&. c #A69A75",
"*. c #A69A79",
"=. c #BD9674",
"-. c #BD9A76",
";. c #B68F76",
":. c #A9A172",
">. c #A6A07A",
",. c #BBA77B",
"<. c #C19B76",
"1. c #C09B6F",
"2. c #C5A47D",
"3. c #5B388D",
"4. c #573488",
"5. c #4A2F80",
"6. c #6B398F",
"7. c #574983",
"8. c #5B5486",
"9. c #645286",
"0. c #655389",
"q. c #6A568A",
"w. c #6C5A8D",
"e. c #6A5A84",
"r. c #755C86",
"t. c #6E5C90",
"y. c #715E91",
"u. c #6C4985",
"i. c #6D678B",
"p. c #76668A",
"a. c #76748D",
"s. c #6D6491",
"d. c #746592",
"f. c #776C94",
"g. c #796E95",
"h. c #796695",
"j. c #6F7595",
"k. c #7B7293",
"l. c #797696",
"z. c #6C708C",
"x. c #797CA1",
"c. c #8F3A89",
"v. c #8B4882",
"b. c #894684",
"n. c #984E86",
"m. c #94448B",
"M. c #954A8B",
"N. c #9A4C8D",
"B. c #954887",
"V. c #865687",
"C. c #98538B",
"Z. c #864C94",
"A. c #854995",
"S. c #8C5496",
"D. c #9B5292",
"F. c #A05889",
"G. c #866584",
"H. c #986A87",
"J. c #8B7688",
"K. c #966593",
"L. c #84749B",
"P. c #87799A",
"I. c #997595",
"U. c #8E7094",
"Y. c #AB6E85",
"T. c #A66E88",
"R. c #B26F85",
"E. c #AC7186",
"W. c #A5728B",
"Q. c #AC728A",
"!. c #A67A89",
"~. c #B17187",
"^. c #B1738B",
"/. c #B97184",
"(. c #A57B92",
"). c #A87D93",
"_. c #AD7399",
"`. c #B1799E",
"'. c #B2789A",
"]. c #A66996",
"[. c #8D7CA2",
"{. c #987DA2",
"}. c #9066A1",
"|. c #A777A0",
" X c #7C84A4",
".X c #7E8394",
"XX c #88849A",
"oX c #98859A",
"OX c #989188",
"+X c #A98486",
"@X c #B3958D",
"#X c #A58699",
"$X c #B88896",
"%X c #B68698",
"&X c #A9948F",
"*X c #ABA488",
"=X c #B5A887",
"-X c #BDB38C",
";X c #B5AA9A",
":X c #AFA595",
">X c #8E86A4",
",X c #8989A7",
"<X c #9185A5",
"1X c #9289A4",
"2X c #9A8BA9",
"3X c #8B96AA",
"4X c #9897AB",
"5X c #B783A1",
"6X c #A695AA",
"7X c #B89AA6",
"8X c #A69AB3",
"9X c #B49EB9",
"0X c #A38EA9",
"qX c #9EA3B5",
"wX c #9EA5B9",
"eX c #94A1AF",
"rX c #B2A2AD",
"tX c #A1A3B4",
"yX c #AAA5B8",
"uX c #B3A6B9",
"iX c #BCA5BE",
"pX c #B5A9BB",
"aX c #BAACBE",
"sX c #B6A7B5",
"dX c #AEB6BC",
"fX c #B9B2BE",
"gX c #C8AB85",
"hX c #C7B385",
"jX c #C9AA9A",
"kX c #C6BA96",
"lX c #C9BB99",
"zX c #C8BA98",
"xX c #CFB1B5",
"cX c #C09587",
"vX c #BBAEC1",
"bX c #BAA8C0",
"nX c #BDB0C2",
"mX c #C2AAC3",
"MX c #C7B5C7",
"NX c #D5BECD",
"BX c #D9C2D1",
"VX c #E1C8D5",
"CX c None",
/* pixels */
"CXCXCXCXCXCXCXCXCXCXCXCXCXCXCXCXCXCXCXCXCXCXCXCXCXCXCXCXCXCXCXCXCXCXCXCXCXCXCXCXCXCXCXCXCXCXCXCXCXCXCXCXCXCXCXCXCXCXCXCXCXCXCXCXCXCXCXCXCXCXCXCXCXCXCXCXCXCXCXCX",
"CXCXCXCXCXCXCXCXCXCXCXCXCXCXCXCXCXCXCXCXCXCXCXCXCXCXCXCXCXCXCXCXCXCXCXCXCXCXCXCXCXCXCXCXCXCXCXCXCXCXCXCXCXCXCXCXCXCXCXCXCXCXCXCXCXCXCXCXCXCXCXCXCXCXCXCXCXCXCXCX",
"CXCXCXCXCXCXCXCXCXCXCXCXCXCXCXCXCXCXCXCXCXCXCXCXCXCXCXCXCXCXCXCXCXCXCXCXc n c c c c l CXCXCXCXCXCXCXCXCXCXCXO CXCXCXCXCXCXCXCXCXCXCXCXCXCXCXCXCXCXCXCXCXCXCXCXCX",
"CXCXCXCXCXCXCXCXCXCXCXCXCXCXCXCXCXCXCXCXCXCXCX~ ! CXCXCXCXCXCXCXc c c c M M M M M M M c c c CXCXCXCXCXCXCXZ /.j CXCXCXCXCXCXCXCXCXCXCXCXCXCXCXCXCXCXCXCXCXCXCXCX",
"CXCXCXCXCXCXCXCXCXCXCXCXCXCXCXCXCXCXCXCXCXCXQ Q.^.! CXCXCXCXv c n M n n l n V M V m l m m M c c CXCXCXCXZ Y.Q.~.b CXCXCXCXCXCXCXCXCXCXCXCXCXCXCXCXCXCXCXCXCXCXCX",
"CXCXCXCXCXCXCXCXCXCXCXCXCXCXCXCXCXCXCXCXCXQ ^.!.T.).Q u R c m m l l M V V W O.o.O.W V V V l l m c V CXv ~.~.(.(.R.j CXCXCXCXCXCXCXCXCXCXCXCXCXCXCXCXCXCXCXCXCXCX",
"CXCXCXCXCXCXCXCXCXCXCXCXCXCXCXCXCXCXCXCX! Q.oX3XoXY.^.! p z z V W C / +.o.o.X.X.X.o.X.O./ C W m c l v R.Q.(.3XoXQ.~.b CXCXCXCXCXCXCXCXCXCXCXCXCXCXCXCXCXCXCXCXCX",
"CXCXCXCXCXCXCXCXCXCXCXCXCXCXCXCXCXCXh ! Q.#XqX3X3XoXQ.^.Q z X.o.o.O.X.=.<.=.=.=.<.=.<.+.X.X.o.o.V v R.Y.).8X3X3X1XQ.~.j CXCXCXCXCXCXCXCXCXCXCXCXCXCXCXCXCXCXCXCX",
"CXCXCXCXCXCXCXCXCXCXCXCXCXCXCXCXCXh ! Q.#XtXtXqX3X3XoXY.Q.J c O.+.<.<.1.1.1.1.1.1.1.1.<.#.X.#.C v E.Y.(.qXqXqX4X3X1X).~.j CXCXCXCXCXCXCXCXCXCXCXCXCXCXCXCXCXCXCX",
"CXCXCXCXCXCXCXCXCXCXCXCXCXCXCXCXh ! Q.#XtXwXwXtXqX3X3XoXQ.^.Z C 2.gX2.jXjXxXjXjXjXjXjX<.#.2.o.v Y.Y.(.tXqXqXwXwX4X3XoXQ.^.j CXCXCXCXCXCXCXCXCXCXCXCXCXCXCXCXCXCX",
"CXCXCXCXCXCXCXCXCXCXCXCXCXCXCXj ! Q.#XqXwXqXqXqXqXqX3X3XoXE.Q.J R CXCXCXCXBXNXNXNXNXBXxXxXcXk Q.Q.(.tXwXqXqXqXqXqX4X3XXXQ.^.k CXCXCXCXCXCXCXCXCXCXCXCXCXCXCXCXCX",
"CXCXCXCXCXCXCXCXCXCXCXCXCXCXCX~ Q.Q.).).).).).).).).(.(.(.!.Q.^.H r r u r d R P R P P R Q P Y.Q.W.^.).).).).).).#X(.(.(.Q.Q.^.j CXCXCXCXCXCXCXCXCXCXCXCXCXCXCXCX",
"CXCXCXCXCXCXCXCXCXCXCXCXCXCXt ^ ).Y.Y.Y.Q.Y.Y.Y.Y.T.Y.~.T Q.E.Q.^.^.^./.~.Y.~ ~ ! ~ ~ ~ Q T.Q.T.Q.W.T.E.Y.Y.Y.Y.Y.Y.E.E.Q.Q.Q.j CXCXCXCXCXCXCXCXCXCXCXCXCXCXCXCX",
"CXCXCXCXCXCXCXCXCXCXCXCXCXCXu ~ ^.Q.Q.Q.Q.Q.Q.Q.Q.Q.'.S @ H.Q.E.Q.Q.Q.Q.Q.Q.Q.Q.Q.Q.Q.Q.Q.Q.T.Y.Q.* 9 Q.E.Q.W.Q.Q.Q.Q.E.^.^.^.j CXCXCXCXCXCXCXCXCXCXCXCXCXCXCXCX",
"CXCXCXCXCXCXCXCXCXCXCXCXCXCXt ~ G.0 H.Q.Q.Q.~.Q.Q.Q.Y P.> @ H.^.Y.Q.T.Q.Q.Q.Q.E.Q.E.Q.W.Q.T.Q.T.p.a.+ 5 W.Q.Q.Q.Q.Q.W.W.V.r.T.k CXCXCXCXCXCXCXCXCXCXCXCXCXCXCXCX",
"CXCXCXCXCXCXCXCXCXCXCXCXCXCXr R.H.H.V.0 e.0 G.W.W.^.5 w @ + S ^.Y.Q.Q.Q.Q.W.W.Q._.Q.Q.Y.Q.Q.Q.T.5 0 + 2 T.Q.T.H.r.0 0 0 H.H.Q.x CXCXCXCXCXCXCXCXCXCXCXCXCXCXCXCX",
"CXCXCXCXCXCXCXCXCXCXCXCXCXCXt R.^.^.T.T.T.T.G.0 0 ^.0 XXp.+ G.^.E.Q.Q.Q.oXyXpXtXqXqX#XY.E.Q.E.T.w XX2 5 Q.H.0 r.I.T.T.T.Q.Q.^.j CXCXCXCXCXCXCXCXCXCXCXCXCXCXCXCX",
"CXCXCXCXCXCXCXCXCXCXCXCXCXCXr ^ Q.T.Q.Q.T.Q.Q.Q.Q.E.^.G.XXY ^.T.Q.E.T.Q.qXyXMXtXqXwXwX#XT.Q.Y.).H.J.L.T ~.Q.Q.^.Q.E.^.Q.Q.Q.^.k CXCXCXCXCXCXCXCXCXCXCXCXCXCXCXCX",
"CXCXCXCXCXCXCXCXCXCXCXCXCXCX. ~ ^.Q.Q.Q.Q.Q.K.0 G.Q.Q.W.Y ^.Q.Q.T.E.E.Q.0XtXqXqXqXtX6XQ.Y.Q.E.E./.H.F Q.E.H.0 p.W.Q.Q.Q.Q.Q.^.k CXCXCXCXCXCXCXCXCXCXCXCXCXCXCXCX",
"CXCXCXCXCXCXCXCXCXCXCXCXCXCX. R.W.W.G.e.r.e.G.H.H.Q.Q.Q.^.T.Q.Q.W.Q.Q.E.Y.#X6XtX6X#XW.Y.Q.W.Q.Q.W.Q.Q.!.Y.W.H.H.0 0 e.0 T.].^.x CXCXCXCXCXCXCXCXCXCXCXCXCXCXCXCX",
"CXCXCXCXCXCXCXCXCXCXCXCXCXCXt Y.0 q Y Y.T.T.E./.E.E.~.~.E.~.~.~.~.~.Q.~.~.Y.E.Q.E.E.E.~.Q.^.~.~.~.R.Y.~.E./.^.E.Y.Y.Y.T.0 q H.k CXCXCXCXCXCXCXCXCXCXCXCXCXCXCXCX",
"CXCXCXCXCXCXCXCXCXCXCXCXCXCXt H Q J J S 7 S S 7 6 6 7 7 1 6 6 6 6 6 7 7 6 6 7 7 7 7 7 7 6 6 1 7 6 7 7 6 6 6 6 7 S 7 S 0 F Q Q h CXCXCXCXCXCXCXCXCXCXCXCXCXCXCXCX",
"CXCXCXCXCXCXCXCXCXCXCXCXCXCXt H J J S 3 3 7.7.3 >X>X>X1X1X1X>X>X>X>X>X>X>X>X>X>X1X>X>X>X<X<X>X>X>X>X>X,X>X,X>X8.; 3 7.7.0 F Q h CXCXCXCXCXCXCXCXCXCXCXCXCXCXCXCX",
"CXCXCXCXCXCXCXCXCXCXCXCXCXCX  ! '.J 8 t.mXmXaXpXpXMXBXMXMXxXpXfXvXvXvXvXvXvXvXvXvXaXvXfXvXvXvXvXvXnXMXNXNXNXNXbXbXxX2Xe.4 J Q h CXCXCXCXCXCXCXCXCXCXCXCXCXCXCXCX",
"CXCXCXCXCXCXCXCXCXCXCXCXCXCX  ! $XQ 8 w.NX8Xy.h.9XbXrX~ Z x #XpXpXuXsXuXpXuXuXuXpXuXpXuXuXpXsXpXaX&XsXfXpXpXvXL.h.h.2XL.: J J h CXCXCXCXCXCXCXCXCXCXCXCXCXCXCXCX",
"CXCXCXCXCXCXCXCXCXCXCXCXCXCX  ! $XQ 8 d.iX0.q.0.bXyXL xXyXl.w +XaXpXpXpXpXbXnXpXnXaXuXpXpXpXpXsX+XB E 6XuXuXbXd.0.0.[.h.: J Q h CXCXCXCXCXCXCXCXCXCXCXCXCXCXCXCX",
"CXCXCXCXCXCXCXCXCXCXCXCXCXCX  ! $XQ 8 d.xXq.t.t.7XT 9XaX8X8X,Xw !.pXpXpXyXXXXXXXXX4XbXpXpXpXpXpX@XV L 1XpXpXbXf.w.0.9X{.* Q J h CXCXCXCXCXCXCXCXCXCXCXCXCXCXCXCX",
"CXCXCXCXCXCXCXCXCXCXCXCXCXCXr ! $XQ 8 d.mXw.w.s.0Xh T P Z P L b x 2XfXuXXXyXuXpXpX1X4XvXsXpXpXrXE B c XXpXpXbXg.w.0.9X{.* Q Q h CXCXCXCXCXCXCXCXCXCXCXCXCXCXCXCX",
"CXCXCXCXCXCXCXCXCXCXCXCXCXCX  ! $XJ 8 d.xX0.t.t.6Xl R ^ R ^ ! ! x 1XfXuXz.l.l..Xl.j.p.8XpXpXaXE +.,._ z XXpXpXh.q.0.9X{.- Q J h CXCXCXCXCXCXCXCXCXCXCXCXCXCXCXCX",
"CXCXCXCXCXCXCXCXCXCXCXCXCXCX  ! $XJ 8 d.bXw.w.s.6Xb /.^ ^ ^ ^ ^ x 1XpXyXj.,X,X Xj.j.i.k.pXpXpXP ,.-X:.N P.pXpXg.w.0.9X[.* Q J h CXCXCXCXCXCXCXCXCXCXCXCXCXCXCXCX",
"CXCXCXCXCXCXCXCXCXCXCXCXCXCX. ! $XJ 8 d.mXw.w.d.&Xb ^ ^ ^ ^ ^ ~ # 1XpXsXj.3X,X,X Xj.s.k.uXpXaX@X@.-.[ L P.bXpXh.w.9.9X[.* Q Q h CXCXCXCXCXCXCXCXCXCXCXCXCXCXCXCX",
"CXCXCXCXCXCXCXCXCXCXCXCXCXCXt ! $X! < f.iXw.t.q.bX+Xv ! R R R b J.pXfXfXj.Y J.Y l.j.p.L.pXpXfXrXV X.a Y f.6XmXh.0.t.L.h.: Q J h CXCXCXCXCXCXCXCXCXCXCXCXCXCXCXCX",
"CXCXCXCXCXCXCXCXCXCXCXCXCXCXt ! $XJ 8 d.xXw.w.q.tX!.k ! R R R h L.6X8X4Xp.j p p L j.s.d.4X8X7X..#.O.C V w [.tXd.w.t.w.q.8 Q Q h CXCXCXCXCXCXCXCXCXCXCXCXCXCXCXCX",
"CXCXCXCXCXCXCXCXCXCXCXCXCXCX  ! $XJ 8 d.bXw.y.7.g.U.R v M Z c G y.L.P.L.z.XXk b x.j.e.t.l.[.L C -.;.X.V b 9.f.0.w.w.y.w.4 F Q h CXCXCXCXCXCXCXCXCXCXCXCXCXCXCXCX",
"CXCXCXCXCXCXCXCXCXCXCXCXCXCX. ! $XJ 8 h.iXt.0.<XvXnX!.p v v k p.[.nXnXpXj.3XXXXXx.j.i.L.bXnX+Xa O.O.B B N [.pX4X0.t.y.q.4 Q ! h CXCXCXCXCXCXCXCXCXCXCXCXCXCXCXCX",
"CXCXCXCXCXCXCXCXCXCXCXCXCXCX. ! $XQ < y.mX7.<XaXuXvX!.u k l j G.8XpXpXuXl. X X.Xj.z.i.8XbXbXrXU n B B c 0 2XvXpX4X0.y.w.4 J J h CXCXCXCXCXCXCXCXCXCXCXCXCXCXCXCX",
"CXCXCXCXCXCXCXCXCXCXCXCXCXCXt ! $XJ 8 h.aX>XpXpXpXpXuXT Z P Y 8XpXpXsXpXtXa.l.l.l.l.4XaXpXpXbXrXU P W J.[.uXpXuXvX2X9.0.8 Q ! h CXCXCXCXCXCXCXCXCXCXCXCXCXCXCXCX",
"CXCXCXCXCXCXCXCXCXCXCXCXCXCXt ! $XJ 8 w.MXnXaXaXvXnXnXaXfXfXnXnXaXvXnXaXfXvXfXMXnXnXnXfXvXvXvXvXnXxXfXnXnXvXvXnXvXnX8Xw.4 F Q h CXCXCXCXCXCXCXCXCXCXCXCXCXCXCXCX",
"CXCXCXCXCXCXCXCXCXCXCXCXCXCXr ! $XJ q ; L.k.f.g.g.k.k.f.g.g.k.g.k.g.k.g.g.k.g.g.g.g.g.f.f.k.k.k.j.g.g.j.g.g.g.g.g.f.l.7.5 Q Q h CXCXCXCXCXCXCXCXCXCXCXCXCXCXCXCX",
"CXCXCXCXCXCXCXCXCXCXCXCXCXCXt ! $XQ <  .$.$.$.$.$.$.$.$.$.$.$.$.$.$.$.$.$.$.$.$.$.$.$.$.$.$.$.$.$.$.$.$.$.$.$.$.$.$.%.$.9 F Q h CXCXCXCXCXCXCXCXCXCXCXCXCXCXCXCX",
"CXCXCXCXCXCXCXCXCXCXCXCXCXCXt ! $XJ 8 U ..%.%.%.E E E E E E E E E E E E E E E E E E E E E E E E E E E E E E U %.%.%.%.E 4 Q Q h CXCXCXCXCXCXCXCXCXCXCXCXCXCXCXCX",
"CXCXCXCXCXCXCXCXCXCXCXCXCXCXt ! $XJ 8 3 g.; ; ; f.g.g.g.g.g.f.g.g.g.g.k.g.f.f.f.g.g.g.g.g.k.g.g.g.g.f.g.g.g.k.7.; ; ; ; 4 J J h CXCXCXCXCXCXCXCXCXCXCXCXCXCXCXCX",
"CXCXCXCXCXCXCXCXCXCXCXCXCXCXr ! $XQ 8 h.mXs.t.w.bXvXaXfXnXfXvXvXvXvXnXvXvXvXxXfXnXaXnXnXaXaXfXaXnXnXnXvXvXvXnXg.q.d.d.y.4 J Q h CXCXCXCXCXCXCXCXCXCXCXCXCXCXCXCX",
"CXCXCXCXCXCXCXCXCXCXCXCXCXCXr ! %XJ 8 s.bXw.w.q.uXpXsXuXuXuXuXsXpXuXpXuXpXyXyXyXpXyXpXpXuXpXpXuXpXuXsXpXsXpXpXf.q.w.q.0.9 J J h CXCXCXCXCXCXCXCXCXCXCXCXCXCXCXCX",
"CXCXCXCXCXCXCXCXCXCXCXCXCXCXr ! $XQ 8 d.mXw.w.w.uXsXbXaXvXnXaXiXpXpXuXvX4Xl.XXXXl.a.4XaXsXpXuXaXvXvXvXvXpXpXpXd.q.w.L.d.: D K d CXCXCXCXCXCXCXCXCXCXCXCXCXCXCXCX",
"CXCXCXCXCXCXCXCXCXCXCXCXCXCXr J $XZ < f.mXq.w.w.uXaX8X#X#X#X#XsXpXsXsXtXXXnXMXpX8X4Xl.2XaXpXdX6XOXOX4X&XpXpXfXf.q.q.2XL.* n.K d CXCXCXCXCXCXCXCXCXCXCXCXCXCXCXCX",
"CXCXCXCXCXCXCXCXCXCXCXCXCXCXr K %XD < p.iXy.w.w.uX8Xx d h s d H.pXsXbXl.XX4XXX,X4XXXl.a.1XaX&X*XrX;X;X:X&XpXpXg.q.y.u.9.: D K d CXCXCXCXCXCXCXCXCXCXCXCXCXCXCXCX",
"CXCXCXCXCXCXCXCXCXCXCXCXCXCXr J %XD < d.mXw.w.q.bX#Xf Z b G b # <XaXaX%.E C ....W ] ..U P.fXOX} &X*.OX .e 2XbXh.w.0.9XP.* D K h CXCXCXCXCXCXCXCXCXCXCXCXCXCXCXCX",
"CXCXCXCXCXCXCXCXCXCXCXCXCXCXr J %XD < s.9Xw.t.e.bXoX$XBXNXNX~.# L.uXpX$.1.gX2.2.2.1._ U XXvXOX*X:.>.( ( e d.8XL.q.q.6X[.- D D s CXCXCXCXCXCXCXCXCXCXCXCXCXCXCXCX",
"CXCXCXCXCXCXCXCXCXCXCXCXCXCX  J `.D 8 0.w.t.w.q.bXoX7XxXxXxX$Xf d.<XvXsXC <.gXgX<.2.C Y P.bXOX` >.:X` ( I i.4Xg.0.w.[.h.: D K s CXCXCXCXCXCXCXCXCXCXCXCXCXCXCXCX",
"CXCXCXCXCXCXCXCXCXCXCXCXCXCXr K %XD 8 9.y.y.w.q.vX#XZ n V v R x d.1XvXsXW <.gXgX<.1.C Y L.nXOX] ;X} } ( I d.6XL.w.9.9X[.> D D d CXCXCXCXCXCXCXCXCXCXCXCXCXCXCXCX",
"CXCXCXCXCXCXCXCXCXCXCXCXCXCXr J %XD 8 0.h.y.w.q.bX(.+X! i !.^ x d.[.uX7XV 1.gX<.+.<.C p.l.bXOX} *X| ` ` I s.2Xg.q.9.9X{.- D K h CXCXCXCXCXCXCXCXCXCXCXCXCXCXCXCX",
"CXCXCXCXCXCXCXCXCXCXCXCXCXCX. J %XD < d.iXw.y.7.j.q 7XNX! BX$X& e.i.g.G.%.+.C C 1._ C w w.l.e } -X*X} ( e 8.f.9.t.0.9X[.> D D d CXCXCXCXCXCXCXCXCXCXCXCXCXCXCXCX",
"CXCXCXCXCXCXCXCXCXCXCXCXCXCXr J '.D : p.aXy.9.L.vX#X7XVXVXxXT x d.2XbXvX:X+.gXgXgXC J.d.L.nXOX*X| *X*X( I z.4X2X9.9.9X[.> D K s CXCXCXCXCXCXCXCXCXCXCXCXCXCXCXCX",
"CXCXCXCXCXCXCXCXCXCXCXCXCXCXr J %XD < d.iX7.L.pXvXoXJ +X%XR u G i.>XvXbX7X_ gXgX2.C Y f.6XnXOX*.*X*X` ` e P.yXfX<X; 9X{.- n.n.d CXCXCXCXCXCXCXCXCXCXCXCXCXCXCXCX",
"CXCXCXCXCXCXCXCXCXCXCXCXCXCXr K %Xn.< h.iXL.pXpXuXuXT & f x G S P.yXuXpXsX@X_ X._ U k.6XpXpXrX` ` | ` e .XyXpXpXbXP.8XI.- N.N.s CXCXCXCXCXCXCXCXCXCXCXCXCXCXCXCX",
"CXCXCXCXCXCXCXCXCXCXCXCXCXCX. F.5XN.< i.MXmXnXvXaXfXaXiXaXaXpXpXvXvXvXvXvXaXsXaXaXpXaXfXaXaXmXfXsXsXsXaXaXnXvXnXmXMX2Xw.: M.C.s CXCXCXCXCXCXCXCXCXCXCXCXCXCXCXCX",
"CXCXCXCXCXCXCXCXCXCXCXCXCXCXt F %XN.6.3 >X1X<X<X<X>X<X<X<X1X<X>X>X>X1X1X<X1X1X1X>X>X<X<X>X1XXX<X1X1X1X>X>X>X>X<X>X>X3Xq 6.M.N.s CXCXCXCXCXCXCXCXCXCXCXCXCXCXCXCX",
"CXCXCXCXCXCXCXCXCXCXCXCXCXCXt K 5XB.N.u., , , , , , , , , , , , , , , , , 6., , , , , , , , , , , < , , , , , 1 , , , 6.M.M.N.s CXCXCXCXCXCXCXCXCXCXCXCXCXCXCXCX",
"CXCXCXCXCXCXCXCXCXCXCXCXCXCX. K `.M.B.N.n.n.n.n.n.n.n.n.n.n.n.n.n.n.n.n.B.n.n.n.C.N.N.N.D.N.C.D.N.N.D.N.D.N.B.B.M.N.D.N.M.M.N.f CXCXCXCXCXCXCXCXCXCXCXCXCXCXCXCX",
"CXCXCXCXCXCXCXCXCXCXCXCXCXCX. K 5XB.M.F U @.' ' ' ' @.' ' ' ' %.' ' ' ' ..' ' ' I n.B.C.|.].]._.C.M.M.m.B.K.C.K.K.C.c.M.M.M.N.s CXCXCXCXCXCXCXCXCXCXCXCXCXCXCXCX",
"CXCXCXCXCXCXCXCXCXCXCXCXCXCXy n.5Xv.M.I &.=XzXkXlXlXzXzXzXzXlXlXlXzXlXlXkXzXlX=X@.T m._.`.`.`.5X`.M.M.m.2XdXdXdXdX8XC.M.M.M.N.s CXCXCXCXCXCXCXCXCXCXCXCXCXCXCXCX",
"CXCXCXCXCXCXCXCXCXCXCXCXCXCXt K 5XM.m.U -X*.&.&.&.&.*.$.&.&.&.&.$.&.&.&.*.*.&.*X-XL N.D.`.`.`.`.D.M.M.C.yXeXeX3X3XdX{.c.N.m.N.s CXCXCXCXCXCXCXCXCXCXCXCXCXCXCXCX",
"CXCXCXCXCXCXCXCXCXCXCXCXCXCX. K 5XM.m.U kX=X) @.[ @.@.[ [ [ @.@.[ @.[ @.[ [ ) hX-XL N.M.F.`.`.F.M.N.M.M.a.z.z.z.z.j.K.m.M.N.N.s CXCXCXCXCXCXCXCXCXCXCXCXCXCXCXCX",
"CXCXCXCXCXCXCXCXCXCXCXCXCXCXr n.'.B.B.U kX:.@.:.:.:.:.:.:.:.:.:.:.:.:.:.:.:.] -X-XL c.m.c.D.D.c.m.m.c.D.eX.X.XXX.X4X<Xc.n.N.N.s CXCXCXCXCXCXCXCXCXCXCXCXCXCXCXCX",
"CXCXCXCXCXCXCXCXCXCXCXCXCXCXy D m.N.B.U kX=X] :.&.:.:.&.:.:.:.:.:.:.:.:.@.:.] -X-XL C.Y.T.T ~ ~ ~ H.T n.6XdXdXdXdXyXK.m.B.B.N.s CXCXCXCXCXCXCXCXCXCXCXCXCXCXCXCX",
"CXCXCXCXCXCXCXCXCXCXCXCXCXCXy n.].M.B.I kX>.[ :.@.[ [ [ ] [ [ [ [ ] } [ :.:.] -X-XL ;.hXgXhXhXgXhXhX2.~ c.I.I.I.I.K.c.n.B.N.N.s CXCXCXCXCXCXCXCXCXCXCXCXCXCXCXCX",
"CXCXCXCXCXCXCXCXCXCXCXCXCXCXr K 5XB.M.U kX=X) &.@.[ [ [ [ [ [ [ [ [ [ [ @.:.) -X-XL @X<.o...X.o.o...2.I.c.!.W.+XC.b.S.Z.S.Z.N.f CXCXCXCXCXCXCXCXCXCXCXCXCXCXCXCX",
"CXCXCXCXCXCXCXCXCXCXCXCXCXCXy C.#XZ.Z.U kX*.' @.{ | { { { { { { { { { | { { ' =X-XL @X+.p a p p p l <.I.S.jXhXkX&XA.A.A.Z.A.S.f CXCXCXCXCXCXCXCXCXCXCXCXCXCXCXCX",
"CXCXCXCXCXCXCXCXCXCXCXCXCXCXy V.A.Z.Z.U >.=XlXlXzXkXzXkXkXkXkXlXkXkXzXkXzXkXkX*X&.L @X+.z z n n n n 2.I.6.K.gX=XA.S.S.}.Z.Z.S.f CXCXCXCXCXCXCXCXCXCXCXCXCXCXCXCX",
"CXCXCXCXCXCXCXCXCXCXCXCXCXCX. C.|.A.A.G.] :.&.*.&.&.:.&.&.&.&.&.&.:.&.&.&.&.&.:.` r.$X2.-.<.2.<.-.-.gXK.6.c.K.V.Z.yXqXyX0XA.S.f CXCXCXCXCXCXCXCXCXCXCXCXCXCXCXCX",
"CXCXCXCXCXCXCXCXCXCXCXCXCXCXX M.}.A.A.A.V.V.V.V.V.V.V.V.V.V.V.V.V.V.V.V.V.V.V.V.S.A.C.I.I.I.I.I.I.I.{.S.S.S.A.S.Z.2XdXyX}.A.Z.x CXCXCXCXCXCXCXCXCXCXCXCXCXCXCXCX",
"CXCXCXCXCXCXCXCXCXCXCXCXCXCXy D c.A A A v.v.v.v.v.v.b.v.b.b.v.v.v.v.v.v.v.v.v.v.v.v.A b.g g A c.g g A A v.v.v.A A g oXH.g v.A d CXCXCXCXCXCXCXCXCXCXCXCXCXCXCXCX",
"CXCXCXCXCXCXCXCXCXCXCXCXCXCXCX% # $ $ # $ # $ $ # # # # # # # # # # # $ # $ # $ # % $ # # # # # # # # % $ f $ $ $ $ % % $ $ $ & CXCXCXCXCXCXCXCXCXCXCXCXCXCXCXCX",
"CXCXCXCXCXCXCXCXCXCXCXCXCXCXCXCX4.4.3.3.4.3.3.3.3.3.3.3.3.3.3.3.3.3.3.3.3.3.3.3.3.3.3.3.3.3.3.3.3.3.3.3.3.3.3.3.3.4.3.4.3.3.5.CXCXCXCXCXCXCXCXCXCXCXCXCXCXCXCXCX",
"CXCXCXCXCXCXCXCXCXCXCXCXCXCXCXCX= 3.3.3.3.4.= 5.= = = = = = = = = = = = = = = = = = = = = = = = = = = 5.= = = 5.- 4.6.3.3.4.CXCXCXCXCXCXCXCXCXCXCXCXCXCXCXCXCXCX",
"CXCXCXCXCXCXCXCXCXCXCXCXCXCXCXCXCX- 5.= - CXCXCXCXCXCXCXCXCXCXCXCXCXCXCXCXCXCXCXCXCXCXCXCXCXCXCXCXCXCXCXCXCXCXCXCXCX= - = CXCXCXCXCXCXCXCXCXCXCXCXCXCXCXCXCXCXCX",
"CXCXCXCXCXCXCXCXCXCXCXCXCXCXCXCXCXCXCXCXCXCXCXCXCXCXCXCXCXCXCXCXCXCXCXCXCXCXCXCXCXCXCXCXCXCXCXCXCXCXCXCXCXCXCXCXCXCXCXCXCXCXCXCXCXCXCXCXCXCXCXCXCXCXCXCXCXCXCXCX",
"CXCXCXCXCXCXCXCXCXCXCXCXCXCXCXCXCXCXCXCXCXCXCXCXCXCXCXCXCXCXCXCXCXCXCXCXCXCXCXCXCXCXCXCXCXCXCXCXCXCXCXCXCXCXCXCXCXCXCXCXCXCXCXCXCXCXCXCXCXCXCXCXCXCXCXCXCXCXCXCX",
"CXCXCXCXCXCXCXCXCXCXCXCXCXCXCXCXCXCXCXCXCXCXCXCXCXCXCXCXCXCXCXCXCXCXCXCXCXCXCXCXCXCXCXCXCXCXCXCXCXCXCXCXCXCXCXCXCXCXCXCXCXCXCXCXCXCXCXCXCXCXCXCXCXCXCXCXCXCXCXCX"
};
