/* XPM */
static char *_0564_eebd785088a120445c98c5a7eab5fe85d2333f8cf1e17ab17742411e1c064b91[] = {
/* columns rows colors chars-per-pixel */
"80 80 224 2 ",
"   c #3A0000",
".  c #4B0000",
"X  c #450000",
"o  c #520000",
"O  c #5C0000",
"+  c #5F1A1A",
"@  c #5D001A",
"#  c #650100",
"$  c #6B0101",
"%  c #6A0E0E",
"&  c #740101",
"*  c #790501",
"=  c #750A00",
"-  c #790C07",
";  c #7A1806",
":  c #691819",
">  c #741717",
",  c #6F0B11",
"<  c #5F231A",
"1  c #6B3C06",
"2  c #6A3708",
"3  c #721622",
"4  c #5F2223",
"5  c #5E3233",
"6  c #642527",
"7  c #782323",
"8  c #623233",
"9  c #6B4F07",
"0  c #5D7600",
"q  c #6D7E0A",
"w  c #796C72",
"e  c #7D7474",
"r  c #7E6265",
"t  c #74595D",
"y  c #840101",
"u  c #8C0101",
"i  c #920000",
"p  c #9E0000",
"a  c #8E1B1B",
"s  c #931817",
"d  c #8D1200",
"f  c #AE0101",
"g  c #B40100",
"h  c #BA0101",
"j  c #B60A00",
"k  c #B50A0B",
"l  c #BA0C04",
"z  c #B71200",
"x  c #AD1515",
"c  c #BF1615",
"v  c #9C380A",
"b  c #912809",
"n  c #AA3C09",
"m  c #A23D0B",
"M  c #953837",
"N  c #90292B",
"B  c #B52223",
"V  c #B00B23",
"C  c #C40102",
"Z  c #CD0101",
"A  c #CD0A01",
"S  c #C80B0A",
"D  c #D10101",
"F  c #D00A01",
"G  c #D40506",
"H  c #D11302",
"J  c #D21719",
"K  c #C2390A",
"L  c #CB2E04",
"P  c #E03D00",
"I  c #D51E21",
"U  c #CA0323",
"Y  c #CF2323",
"T  c #D12325",
"R  c #954E0F",
"E  c #B26B00",
"W  c #B97D29",
"Q  c #9C4B19",
"!  c #C6470A",
"~  c #DF5C01",
"^  c #D4490D",
"/  c #E15C01",
"(  c #DC6913",
")  c #E66403",
"_  c #E76608",
"`  c #E77104",
"'  c #EC7E04",
"]  c #E87709",
"[  c #EE7C06",
"{  c #C37F23",
"}  c #E06122",
"|  c #954B4D",
" . c #B6585B",
".. c #9E7574",
"X. c #936C6D",
"o. c #A26D6C",
"O. c #A46F73",
"+. c #C87475",
"@. c #3E8900",
"#. c #4E8A01",
"$. c #468A00",
"%. c #538B02",
"&. c #538700",
"*. c #5D9D03",
"=. c #599403",
"-. c #429003",
";. c #678906",
":. c #73850D",
">. c #63A501",
",. c #66AA01",
"<. c #69AC02",
"1. c #69AB0B",
"2. c #6AB202",
"3. c #71BB04",
"4. c #6AB117",
"5. c #7BCD02",
"6. c #77C405",
"7. c #7ED200",
"8. c #7EC911",
"9. c #7FAF71",
"0. c #7FC36B",
"q. c #858A06",
"w. c #9A8319",
"e. c #A68005",
"r. c #F38A0D",
"t. c DarkOrange",
"y. c #FF9E00",
"u. c #F69C04",
"i. c #EE8713",
"p. c #F38A11",
"a. c #EF8A0F",
"s. c #FFA202",
"d. c #F9A109",
"f. c #FCA212",
"g. c #EF8925",
"h. c #FFA527",
"j. c #81D302",
"k. c #84DA02",
"l. c #86D70C",
"z. c #84CD1B",
"x. c #84D112",
"c. c #85D01B",
"v. c #8ADD1B",
"b. c #80CD07",
"n. c #8CE30D",
"m. c #87CF26",
"M. c #87D824",
"N. c #8CCD31",
"B. c #81C64E",
"V. c #BC7A80",
"C. c #7A8E94",
"Z. c #5EE5F9",
"A. c #5DE7FA",
"S. c #66E5F6",
"D. c #69E4F5",
"F. c #63E5F9",
"G. c #63EBFE",
"H. c #69E9FB",
"J. c #6BE7F8",
"K. c #73E3F2",
"L. c #7AE7F6",
"P. c #64F3FF",
"I. c #6BF3FF",
"U. c #6BFBFF",
"Y. c #72F7FF",
"T. c #6FE2ED",
"R. c #939596",
"E. c #B8969C",
"W. c #AD8E90",
"Q. c #929FA0",
"!. c #9A9FA0",
"~. c #BB9BA0",
"^. c #92A1A2",
"/. c #A8A4A7",
"(. c #A6BCBD",
"). c #B2BABC",
"_. c #DCBE9A",
"`. c #C5BDBE",
"'. c #E0B989",
"]. c #B8CBBD",
"[. c #A9ECB9",
"{. c #E5C992",
"}. c #D9D8B7",
"|. c #D0CBBB",
" X c #C6BCC0",
".X c #ABC5C6",
"XX c #A8D2D6",
"oX c #B9D9DA",
"OX c #B9C7C9",
"+X c #8AEAF9",
"@X c #8BE8F7",
"#X c #94EAF6",
"$X c #9AEAF5",
"%X c #93EBF9",
"&X c #9BECF8",
"*X c #96F1FE",
"=X c #9FFBFF",
"-X c #99F1FE",
";X c #9CE7EF",
":X c #BBE8EA",
">X c #A1EEF6",
",X c #A5F1F9",
"<X c #ADF3FA",
"1X c #A2FBFF",
"2X c #AAF3F9",
"3X c #B4F6FB",
"4X c #BCF7FC",
"5X c #B5FBFE",
"6X c #BCFAFD",
"7X c #B2F3F7",
"8X c #A8E5EB",
"9X c #B5DDE1",
"0X c #CCD7C1",
"qX c #C0DEE2",
"wX c #C3ECEE",
"eX c #C0E3E3",
"rX c #C2F6FA",
"tX c #C2FDFE",
"yX c #CBFFFF",
"uX c #C6F4F7",
"iX c #D4FFFF",
"pX c #C4EDF0",
"aX c #CCE7D3",
"sX c None",
/* pixels */
"sXsXsXsXsXsXsXsXsXsXsXsXsXsXsXsXsXsXsXsXsXsXsXsXsXsXsXsXsXsXsXsXsXsXsXsXsXsXsXsXsXsXsXsXsXsXsXsXsXsXsXsXsXsXsXsXsXsXsXsXsXsXsXsXsXsXsXsXsXsXsXsXsXsXsXsXsXsXsXsX",
"sXsXsXsXsXsXsXsXsXsXsXsXsXsXsXsXsXsXsXsXsXsXsXsXsXsXsXsXsXsXsXsXsXsXsXsXsXsXsXsXsXsXsXsXsXsXsXsXsXsXsXsXsXsXsXsXsXsXsXsXsXsXsXsXsXsXsXsXsXsXsXsXsXsXsXsXsXsXsXsX",
"sXsXsXsXsXsXsXsXsXsXsXsXsXsXsXsXsXsXsXsXsXsXsXsXsXsXsXsXsXsXsXsXsXsXsXsXsXsXsXsXsXsXsXsXsXsXsXsXsXsXsXsXsXsXsXsXsXsXsXsXsXsXsXsXsXsXsXsXsXsXsXsXsXsXsXsXsXsXsXsX",
"sXsXsXsXsXsXsXsXsXsXsXsXsXsXsXsXsXsXsXsXsXsXsXsXsXsXsXsXsXsXsXsXsXsXsXsXsXsXsXsXsXsXsXsXsXsXsXsXsXsXsXsXsXsXsXsXsXsXsXsXsXsXsXsXsXsXsXsXsXsXsXsXsXsXsXsXsXsXsXsX",
"sXsXsXsXsXsXsXsXsXsXsXsXsXsXsXsXsXsXsXsXsXsXsXsXsXsXsXsXsXsXsXsXsXsXsXsXsXsXsXsXsXsXsXsXsXsXsXsXsXsXsXsXsXsXsXsXsXsXsXsXsXsXsXsXsXsXsXsXsXsXsXsXsXsXsXsXsXsXsXsX",
"sXsXsXsXsXsXsXsXsXsXsXsXsXsXsXsXsXsXsXsXsXsXsXsXsXsXsXsXsXsXsXsXsXsXsXsXsXsXsXsXsXsXsXsXsXsXsXsXsXsXsXsXsXsXsXsXsXsXsXsXsXsXsXsXsXsXsXsXsXsXsXsXsXsXsXsXsXsXsXsX",
"sXsXsXsXsXsXsXsXsXsXsXsXsXsXsXsXsXsXsXsXsXsXsXsXsXsXsXsXsXsXsXsXsXsXsXsXsXsXsXsXsXsXsXsXsXsXsXsXsXsXsXsXsXsXsXsXsXsXsXsXsXsXsXsXsXsXsXsXsXsXsXsXsXsXsXsXsXsXsXsX",
"sXsXsXsXsXsXsXsXsXsXsXsXsXsXsXsXsXsXsXsXsXsXsXsXsXsXsXsXsXsXsXsXsXsXsXsXsXsXsXsXsXsXsXsXsXsXsXsXsXsXsXsXsXsXsXsXsXsXsXsXsXsXsXsXsXsXsXsXsXsXsXsXsXsXsXsXsXsXsXsX",
"sXsXsXsXsXsXsXsXsXsXsXsXsXsXsXsXsXsXsXsXsXsXsXsXsXsXsXsXsXsXsXsXsXsXsXsXsXsXsXsXsXsXsXsXsXsXsXsXsXsXsXsXsXsXsXsXsXsXsXsXsXsXsXsXsXsXsXsXsXsXsXsXsXsXsXsXsXsXsXsX",
"sXsXsXsXsXsXsXsXsXsXsXsXsXsXsXsXsXsXsXsXsXsXsXsXsXsXsXsXsXsXsXsXsXsXsXsXsXsXsXsXsXsXsXsXsXsXsXsXsXsXsXsXsXsXsXsXsXsXsXsXsXsXsXsXsXsXsXsXsXsXsXsXsXsXsXsXsXsXsXsX",
"sXsXsXsXsXsXsXsXsXsXsXsXsXsXsXsXsXsXsXsXsXsXsXsXsXsXsXsXsXsXsXsXsXsXsXsXsXsXsXsXsXsXsXsXsXsXsXsXsXsXsXsXsXsXsXsXsXsXsXsXsXsXsXsXsXsXsXsXsXsXsXsXsXsXsXsXsXsXsXsX",
"sXsXsXsXsXsXsXsXsXsXsXsXsXsXsXsXsXsXsXsXsXsXsXsXsXsXsXsXsXsXsXsXsXsXsXsXsXsXsXsXsXsXsXsXsXsXsXsXsXsXsXsXsXsXsXsXsXsXsXsXsXsXsXsXsXsXsXsXsXsXsXsXsXsXsXsXsXsXsXsX",
"sXsXsXsXsXsXsXsXsXsXsXsXsXsXsXsXsXsXsXsXsXsXsXsXsXsXsXsXsXsXsXsXsXsXsXsXsXsXsXsXsXsXsXsXsXsXsXsXsXsXsXsXsXsXsXsXsXsXsXsXsXsXsXsXsXsXsXsXsXsXsXsXsXsXsXsXsXsXsXsX",
"sXsXsXsXsXsXsXsXsXsXsXsXsXsXsXsXsXsXsXsXsXsXsXsXsXsXsXsXsXsXsXsXsXsXsXsXsXsXsXsXsXsXyX6X6XrX6X6X6X6X6XrXrXyXsXsXsXsXsXsXsXsXsXsXsXsXsXsXsXsXsXsXsXsXsXsXsXsXsXsX",
"sXsXsXsXsXsXsXsXsXsXsXsXsXsXsXsXsXsXsXsXsXsXsXsXsXsXsXsXsXsXsXsXsXsXsXsXsXsXsXsXsXsXyX6XtX6XtXtX6XtXtXtX6XyXsXsXsXsXsXsXsXsXsXsXsXsXsXsXsXsXsXsXsXsXsXsXsXsXsXsX",
"sXsXsXsXsXsXsXsXsXsXsXsXsXsXsXsXsXsXsXsXsXsXsXsXsXsXsXsXsXsXsXsXsXsXsXsXsXsXsXsXsXsXrXrX6XrX6XrX6XrX6X6X6XrXsXsXsXsXsXsXsXsXsXsXsXsXsXsXsXsXsXsXsXsXsXsXsXsXsXsX",
"sXsXsXsXsXsXsXsXsXsXsXsXsXsXsXsXsXsXsXsXsXsXsXsXsXsXsXsXsXsXsXsXsXsXsXsXsXsXrXrXrXuXsXsXsXsXsXsXsXsXsXsXsXsXsXsXsXsXsXsXsXsXsXsXsXsXsXsXsXsXsXsXsXsXsXsXsXsXsXsX",
"sXsXsXsXsXsXsXsXsXsXsXsXsXsXsXsXsXsXsXsXsXsXsXsXsXsXsXsXsXsXsXsXsXsXsXsXsXsXuXyXtXrXsXsXsXsXsXsXsXsXsXsXsXsXsXsXsXsXsXsXsXsXsXsXsXsXsXsXsXsXsXsXsXsXsXsXsXsXsXsX",
"sXsXsXsXsXsXsXsXsXsXsXsXsXsXsXsXsXsXsXsXsXsXsXsXsXsXsXsXsXsXsXsXsXsXsXsXsXsXrXyXyXyXsXsXsXsXsXsXsXsXsXsXsXsXsXsXsXsXsXsXsXsXsXsXsXsXsXsXsXsXsXsXsXsXsXsXsXsXsXsX",
"sXsXsXsXsXsXsXsXsXsXsXsXsXsXsXsXsXsXsXsXsXsXsXsXsXsXsXsXsXsXsXsXsXsXsX3 > #  .+.+.+.sXsXsXsXsXsXsXsXsXsXsXsXsXsXsXsXsXsXsXsXsXsXsXsXsXsXsXsXsXsXsXsXsXsXsXsXsXsX",
"sXsXsXsXsXsXsXsXsXsXsXsXsXsXsXsXsXsXsXsXsXsXsXsXsXsXsXsXsXsXsXsXsXsXsX> y & g Z G C sXsXsXsXsXsXsXsXsXsXsXsXsXsXsXsXsXsXsXsXsXsXsXsXsXsXsXsXsXsXsXsXsXsXsXsXsXsX",
"sXsXsXsXsXsXsXsXsXsXsXsXsXsXsXsXsXsXsXsXsXsXsXsXsXsXsXsXsXsXsXsXsXsXsX# - $ x J I Z sXsXsXsXsXsXsXsXsXsXsXsXsXsXsXsXsXsXsXsXsXsXsXsXsXsXsXsXsXsXsXsXsXsXsXsXsXsX",
"sXsXsXsXsXsXsXsXsXsXsXsXsXsXsXsXsXsXsXsXsXsXsXsXsXsXsXsXsXsXsXsX8X;X>Xt * , g J D V.-X;X;X;X$X$X$X$X;X$X$X;X7XrXrXsXsXsXsXsXsXsXsXsXsXsXsXsXsXsXsXsXsXsXsXsXsXsX",
"sXsXsXsXsXsXsXsXsXsXsXsXsXsXsXsXsXsXsXsXsXsXsXsXsXsXsXsXsXsXsXsX#X=X=XX.& : f T D E.1X1X=X1X1X1X1X1X1X1X1X=X5XyXiXrXsXsXsXsXsXsXsXsXsXsXsXsXsXsXsXsXsXsXsXsXsXsX",
"sXsXsXsXsXsXsXsXsXsXsXsXsXsXsXsXsXsXsXsXsXsXsXsXsXsXsXsXsXsXsXsX&X%X&Xw & : f I D E.%X#X#X#X#X#X%X#X%X#X#X@X<XtXyXyXsXsXsXsXsXsXsXsXsXsXsXsXsXsXsXsXsXsXsXsXsXsX",
"sXsXsXsXsXsXsXsXsXsXsXsXsXsXsXsXsXsXsXsXsXsXsXsXsXsXsXsXsXsXsXsX+X+XL.w & : f I D E.%X#X#X%X%X%X#X#X#X>X,X2XXX).OXOXsXsXsXsXsXsXsXsXsXsXsXsXsXsXsXsXsXsXsXsXsXsX",
"sXsXsXsXsXsXsXsXsXsXsXsXsXsXsXsXsXsXsXsXsXsXsXsXsXsXsXsXsXY.P.I.A.A.Z.w * 6 x T D E.%X#X#X%X#X$X#X%X#X3X4XtXW.* y /.yXiXrXsXsXsXsXsXsXsXsXsXsXsXsXsXsXsXsXsXsXsX",
"sXsXsXsXsXsXsXsXsXsXsXsXsXsXsXsXsXsXsXsXsXsXsXsXsXsXsXsXsXS.A.A.Z.Z.S.t & # f G D W.*X#X#X#X#X#X#X#X#X5X6XtX/.u u /.rXtXtXsXsXsXsXsXsXsXsXsXsXsXsXsXsXsXsXsXsXsX",
"sXsXsXsXsXsXsXsXsXsXsXsXsXsXsXsXsXsXsXsXsXsXsXsXsXsXsXsXsXH.A.F.J.J.J.C.r w O.+. ./.-X#X#X#X#X#X&X&X>XoXoXqXW.p p W.:XeXoXsXsXsXsXsXsXsXsXsXsXsXsXsXsXsXsXsXsXsX",
"sXsXsXsXsXsXsXsXsXsXsXsXsXsXsXsXsXsXsXN.n.v.sXsXsXsXY.S.G.F.F.S.%X&X#X$X&X$X$X$X#X#X&X&X#X#X#X#X6X6XrXX.u u h G G g u u o.rXyXrXsXsXsXsXsXsXsXsXsXsXsXsXsXsXsXsX",
"sXsXsXsXsXsXsXsXsXsXsXsXsXsXsXsXsXsXsXm.k.l.sXsXsXsXP.A.Z.Z.Z.S.%X%X#X#X%X#X%X%X#X#X#X#X%X#X%X&X5X6XtX..i N k D D k N u ..tX5XrXsXsXsXsXsXsXsXsXsXsXsXsXsXsXsXsX",
"sXsXsXsXsXsXsXsXsXsXsXsXsXsXsXsXsXsXsXm.k.k.sXsXsXsXY.J.J.J.D.D.#X#X#X$X#X#X$X#X&X$X#X$X#X&X&X&X:XwXpXO.i s h Z D h s i o.wXuXpXsXsXsXsXsXsXsXsXsXsXsXsXsXsXsXsX",
"sXsXsXsXsXsXsXsXsXsXsXsXsXsXsXsXsXsXsXm.v.7.[.tXrX6X5X6X3X3X3X6X4X4X6X6X3X4X6X3X6X5X6X3X6X4X5X:X| N M Y Z Z Z Z D Z Z Z c M M | wX6XrXsXsXsXsXsXsXsXsXsXsXsXsXsX",
"sXsXsXsXsXsXsXsXsXsXsXsXsXsXsXsXsXsXsXm.M.7.[.rX6X6X6X5X6X6X6X5X6X4X6X5X6X6X6X6X6X6X6X6X6X4X6X:XM i u h D Z Z F F A Z G C u u M uXtXtXsXsXsXsXsXsXsXsXsXsXsXsXsX",
"sXsXsXsXsXsXsXsXsXsXsXsXsXsXsXsXsXsXsXM.v.5.[.rX6X6XrXrXrXrXtXrX6XrXrXrXrX6XrXrX6XrXrX6X6X6X5XpXM i s h D Z Z S Z Z A D h s i M pXtXtXsXsXsXsXsXsXsXsXsXsXsXsXsX",
"sXsXsXsXsXsXsXsXsXsXsXsXsXsXsXsXN.c.M.8.7.7.0.9.B.9.e e e e e e e e e e e e e e e e e e X.....o.x f f h z g ( a.p.( g l h g f x o.....sXsXsXsXsXsXsXsXsXsXsXsXsX",
"sXsXsXsXsXsXsXsXsXsXsXsXsXsXsXsXc.k.k.k.j.l.2.*.1.0 . @ . o o . o o o . o o o o o o o X # i i i g h h g z f ] s.d.] f z g g h g i i u sXsXsXsXsXsXsXsXsXsXsXsXsX",
"sXsXsXsXsXsXsXsXsXsXsXsXsXsXsXsXc.j.j.j.j.j.3.4.4.q @ 4 + : : + + + + : + + + : + : : + : a a s g g g g z f ] s.d.] f z g g g g s a a sXsXsXsXsXsXsXsXsXsXsXsXsX",
"sXsXsXsXsXsXsXsXsXsXsXsXsXsXsXsXc.k.j.j.7.j.3.>.<.q # % $ $ $ $ $ $ $ $ $ # # $ $ # $ # y g g h C C C C S C ^ ( ` ^ C S C C C C h g k sXsXsXsXsXsXsXsXsXsXsXsXsX",
"sXsXsXsXsXsXsXsXsXsXsXsXsXsXsXsXc.j.j.7.7.7.3.>.<.;.$ ; = * * * * - * * * - = & & & * $ u G Z G Z D D D Z D Z Z C Z D D Z G Z Z D D J sXsXsXsXsXsXsXsXsXsXsXsXsX",
"sXsXsXsXsXsXsXsXsXsXsXsXsXsXsXsXc.k.b.k.j.k.3.>.<.q & $ & # & # # # # # # # & & & & & & u G Z G D D Z Z D D F H H A Z Z D D D D G Z S sXsXsXsXsXsXsXsXsXsXsXsXsX",
"sXsXsXsXsXsXsXsXsXsXsXsXsXsXsXsXx.7.j.6.6.6.2.,.<.;.9 9 9 n n n n n n n n n b # # $ $ # y C C C C C C C C C C C C C C C C C C C C C S sXsXsXsXsXsXsXsXsXsXsXsXsX",
"sXsXsXsXsXsXsXsXsXsXsXsXsXv.n.k.7.j.j.2.>.,.>.>.<.>.%.-.q.) ) ) ) ) ) ) ) _ m X # O O O & g g g g g g j j j k g g j j j j g g g h g k sXsXsXsXsXsXsXsXsXsXsXsXsX",
"sXsXsXsXsXsXsXsXsXsXsXsXsXx.j.j.j.j.j.2.>.<.<.<.<.*.&.$.q / / / / / / / ~ ) m . # O O o & g g g g g g g g g g f g g g g g g g g g h k sXsXsXsXsXsXsXsXsXsXsXsXsX",
"sXsXsXsXsXsXsXsXsXsXsXsXsXx.7.j.6.5.5.2.,.<.>.>.>.*.&.-.:.` ` ` ` ` ` _ / ) n o % # # # * h h h h h h K ! ! K L L K ! ! K g h h h h l sXsXsXsXsXsXsXsXsXsXsXsXsX",
"sXsXsXsXsXsXsXsXsXsXsXsXsXx.j.7.<.,.>.,.,.>.=.&.%.%.%.@.q.d.s.d.s.y.d.` / _ n # = & & & u Z G Z D A Z p.s.d.[ / ~ [ f.s.p.Z F Z Z D S sXsXsXsXsXsXsXsXsXsXsXsXsX",
"sXsXsXsXsXsXsXsXsXsXsXsXsXl.j.j.<.,.,.,.>.<.=.&.%.%.=.@.q.s.s.s.y.y.s.` / ) n $ = & & $ u Z Z Z Z A Z p.s.s.' ~ ~ ' s.s.p.Z F Z G Z S sXsXsXsXsXsXsXsXsXsXsXsXsX",
"sXsXsXsXsXsXsXsXsXsXsXsXsXx.7.8.<.,.,.,.,.<.=.&.%.%.%.-.q.d.u.u.y.s.y.` / ) n # = & & $ u Z Z Z Z A Z r.y.y.' ~ ~ ' s.s.r.C A Z Z D S sXsXsXsXsXsXsXsXsXsXsXsXsX",
"sXsXsXsXsXsXsXsXsXsXz.x.z.,.<.<.<.,.,.=.&.%.%.%.%.%.%.#.%.;.;.:.u.s.s._ / ) m . # # # O * h g h h j g p.s.s.' / ~ ' s.s.a.g j g h h k sXsXsXsXsXsXsXsXsXsXsXsXsX",
"sXsXsXsXsXsXsXsXsXsXn.k.5.,.,.,.<.<.,.=.&.%.%.#.#.%.%.%.%.%.-.;.u.y.y.` / ) v X O O O o & g g g g j f a.s.s.' / / ' s.s.a.g j g g g k sXsXsXsXsXsXsXsXsXsXsXsXsX",
"sXsXsXsXsXsXsXsXsXsXv.l.8.1.1.1.1.1.4.;.#.#.%.-.%.%.%.%.%.%.%.;.d.f.f.] / _ Q . % O O O & h g g g j g i.s.s.[ / / ' s.s.i.f j h g h k sXsXsXsXsXsXsXsXsXsXsXsXsX",
"sXsXsXsXsXsXsXsXsXsXsXsXsXsXsXsXsXsXsXw.e.e.R 2 1 2 2 9 1 1 1 2 Q R Q b b v d # & $ & $ y Z Z Z C A C r.s.s.[ / ~ ' s.s.r.C S Z C Z S sXsXsXsXsXsXsXsXsXsXsXsXsX",
"sXsXsXsXsXsXsXsXsXsXsXsXsXsXsXsXsXsXsXw.{ { Q @ 3 , & & & & & & # # # > 3 3 7 7 7 > * & u Z Z Z Z F Z r.s.s.i.} } g.h.h.g.U Y Y Y I Y sXsXsXsXsXsXsXsXsXsXsXsXsX",
"sXsXsXsXsXsXsXsXsXsXsXsXsXsXsXsXsXsXsXE E E d O $ & > = = = = = * = - $ $ $ # $ # $ , $ u Z D Z D F Z r.s.f.` P P ` y.s.t.C Z C Z C C sXsXsXsXsXsXsXsXsXsXsXsXsX",
"sXsXsXsXsXsXsXsXsXsXsXsXsXsXsXsXsXsXsX].0XOX].(..XR.# : # # # # # % # /..X(.(.(..XR.# : * C C h C l h r.f.y.'.0X|.|.}.}.}. X`.`.|. X XwXyXrXsXsXsXsXsXsXsXsXsXsX",
"sXsXsXsXsXsXsXsXsXsXsXsXsXsXsXsXsXsXsXtXyX6XtX6XyX.X. 8 6 4 6 4 4 5 o :XtXtXtXtXyX.X. 5 7 B B B B B V g.h.y.0X6X6X6X5X5X5X6X6X5X6X6X6XyXtXiXsXsXsXsXsXsXsXsXsXsX",
"sXsXsXsXsXsXsXsXsXsXsXsXsXsXsXsXsXsXsXrXyX6X4X4X6X(.  o o . o o . o X oX6X4X6X4XtX(.  . # g g g g g g [ y.t.}.5X4X6X4XrX6X6X4X6X4X4X4X4X6XtXsXsXsXsXsXsXsXsXsXsX",
"sXsXsXsXsXsXsXsXsXsXsXsXsXsXsXsXsXsXsX7X5X<X<X<X5XXXR.^.Q.Q.Q.^.Q.Q.R.8X5X2X<X2X<XXXR.^.!.~.~.~.E.~.E._.{.{.aX6X4X3X<X<X<X<X<X<X<X2X<X4X6XyXsXsXsXsXsXsXsXsXsXsX",
"sXsXsXsXsXsXsXsXsXsXsXsXsXyXtXtXtXtXyX&X#X#X#X#X@X,XtXtXtXtXrXtXtXtXtX&X@X#X#X#X@X2XtXtXtXtXtX6X6XtXtX5X5X5X6X4X6X<X@X#X%X%X#X#X#X#X@X3X6XtXsXsXsXsXsXsXsXsXsXsX",
"sXsXsXsXsXsXsXsXsXsXsXsXsXyXtXtXrX6XtX&X#X%X#X$X%X>X4X6X4X6X4X4X6X4X6X&X#X#X#X#X#X,X6X4X6X6X6X4X6X6X6X6XrXrX4X4XrX<X#X#X#X$X#X$X$X#X$X5XrXyXsXsXsXsXsXsXsXsXsXsX",
"sXsXsXsXsXsXsXsXsXsXsXsXsXrXrXrX<X2X2X#X@X+X@X+X+X&X5X3X3X3X3X3X3X3X3X$X#X#X#X#X#X>X3X3X3X3X3X3X3X3X3X3X3X3X3X7X3X,X%X%X%X@X@X+X+X+X@X>X3X5XsXsXsXsXsXsXsXsXsXsX",
"sXsXsXsXsXsXsXsXsXsXsXsXsXsXsXsXS.A.Z.Z.Z.Z.Z.S.Z.K.#X#X%X%X#X#X#X#X#X#X#X#X#X#X#X%X#X#X#X#X%X#X#X#X#X#X#X#X%X%X#X#X#X#X@XZ.F.Z.Z.S.Z.Z.Z.P.sXsXsXsXsXsXsXsXsXsX",
"sXsXsXsXsXsXsXsXsXsXsXsXsXsXsXsXS.P.G.G.G.A.G.G.A.L.-X*X%X%X%X%X%X$X%X%X#X%X#X$X%X&X*X&X*X*X*X*X*X*X*X%X%X%X#X%X#X#X%X$X+XG.G.A.G.G.G.G.A.U.sXsXsXsXsXsXsXsXsXsX",
"sXsXsXsXsXsXsXsXsXsXsXsXsXsXsXsXT.D.D.J.S.J.D.J.G.L.$X$X$X%X%X%X+X%X+X%X%X%X+X%X+X#X$X$X#X$X#X$X$X$X&X#X%X+X%X%X%X%X%X+X@XD.S.D.S.D.S.D.S.D.sXsXsXsXsXsXsXsXsXsX",
"sXsXsXsXsXsXsXsXsXsXsXsXsXsXsXsXsXsXsXsXsXsXsXsXsXsXsXsXsXJ.J.F.F.F.F.F.F.S.S.S.I.K.sXsXsXsXsXsXsXsXsXK.H.H.F.S.F.F.F.I.K.sXsXsXsXsXsXsXsXsXsXsXsXsXsXsXsXsXsXsX",
"sXsXsXsXsXsXsXsXsXsXsXsXsXsXsXsXsXsXsXsXsXsXsXsXsXsXsXsXsXG.A.Z.Z.A.F.Z.Z.G.G.F.P.T.sXsXsXsXsXsXsXsXsXD.P.A.Z.Z.Z.F.F.P.D.sXsXsXsXsXsXsXsXsXsXsXsXsXsXsXsXsXsXsX",
"sXsXsXsXsXsXsXsXsXsXsXsXsXsXsXsXsXsXsXsXsXsXsXsXsXsXsXsXsXH.J.F.H.J.H.H.D.H.G.F.Y.T.sXsXsXsXsXsXsXsXsXK.I.F.H.H.H.H.J.I.K.sXsXsXsXsXsXsXsXsXsXsXsXsXsXsXsXsXsXsX",
"sXsXsXsXsXsXsXsXsXsXsXsXsXsXsXsXsXsXsXsXsXsXsXsXsXsXsXsXsXsXsXsXsXsXsXsXsXsXsXsXsXsXsXsXsXsXsXsXsXsXsXsXsXsXsXsXsXsXsXsXsXsXsXsXsXsXsXsXsXsXsXsXsXsXsXsXsXsXsXsX",
"sXsXsXsXsXsXsXsXsXsXsXsXsXsXsXsXsXsXsXsXsXsXsXsXsXsXsXsXsXsXsXsXsXsXsXsXsXsXsXsXsXsXsXsXsXsXsXsXsXsXsXsXsXsXsXsXsXsXsXsXsXsXsXsXsXsXsXsXsXsXsXsXsXsXsXsXsXsXsXsX",
"sXsXsXsXsXsXsXsXsXsXsXsXsXsXsXsXsXsXsXsXsXsXsXsXsXsXsXsXsXsXsXsXsXsXsXsXsXsXsXsXsXsXsXsXsXsXsXsXsXsXsXsXsXsXsXsXsXsXsXsXsXsXsXsXsXsXsXsXsXsXsXsXsXsXsXsXsXsXsXsX",
"sXsXsXsXsXsXsXsXsXsXsXsXsXsXsXsXsXsXsXsXsXsXsXsXsXsXsXsXsXsXsXsXsXsXsXsXsXsXsXsXsXsXsXsXsXsXsXsXsXsXsXsXsXsXsXsXsXsXsXsXsXsXsXsXsXsXsXsXsXsXsXsXsXsXsXsXsXsXsXsX",
"sXsXsXsXsXsXsXsXsXsXsXsXsXsXsXsXsXsXsXsXsXsXsXsXsXsXsXsXsXsXsXsXsXsXsXsXsXsXsXsXsXsXsXsXsXsXsXsXsXsXsXsXsXsXsXsXsXsXsXsXsXsXsXsXsXsXsXsXsXsXsXsXsXsXsXsXsXsXsXsX",
"sXsXsXsXsXsXsXsXsXsXsXsXsXsXsXsXsXsXsXsXsXsXsXsXsXsXsXsXsXsXsXsXsXsXsXsXsXsXsXsXsXsXsXsXsXsXsXsXsXsXsXsXsXsXsXsXsXsXsXsXsXsXsXsXsXsXsXsXsXsXsXsXsXsXsXsXsXsXsXsX",
"sXsXsXsXsXsXsXsXsXsXsXsXsXsXsXsXsXsXsXsXsXsXsXsXsXsXsXsXsXsXsXsXsXsXsXsXsXsXsXsXsXsXsXsXsXsXsXsXsXsXsXsXsXsXsXsXsXsXsXsXsXsXsXsXsXsXsXsXsXsXsXsXsXsXsXsXsXsXsXsX",
"sXsXsXsXsXsXsXsXsXsXsXsXsXsXsXsXsXsXsXsXsXsXsXsXsXsXsXsXsXsXsXsXsXsXsXsXsXsXsXsXsXsXsXsXsXsXsXsXsXsXsXsXsXsXsXsXsXsXsXsXsXsXsXsXsXsXsXsXsXsXsXsXsXsXsXsXsXsXsXsX",
"sXsXsXsXsXsXsXsXsXsXsXsXsXsXsXsXsXsXsXsXsXsXsXsXsXsXsXsXsXsXsXsXsXsXsXsXsXsXsXsXsXsXsXsXsXsXsXsXsXsXsXsXsXsXsXsXsXsXsXsXsXsXsXsXsXsXsXsXsXsXsXsXsXsXsXsXsXsXsXsX",
"sXsXsXsXsXsXsXsXsXsXsXsXsXsXsXsXsXsXsXsXsXsXsXsXsXsXsXsXsXsXsXsXsXsXsXsXsXsXsXsXsXsXsXsXsXsXsXsXsXsXsXsXsXsXsXsXsXsXsXsXsXsXsXsXsXsXsXsXsXsXsXsXsXsXsXsXsXsXsXsX",
"sXsXsXsXsXsXsXsXsXsXsXsXsXsXsXsXsXsXsXsXsXsXsXsXsXsXsXsXsXsXsXsXsXsXsXsXsXsXsXsXsXsXsXsXsXsXsXsXsXsXsXsXsXsXsXsXsXsXsXsXsXsXsXsXsXsXsXsXsXsXsXsXsXsXsXsXsXsXsXsX",
"sXsXsXsXsXsXsXsXsXsXsXsXsXsXsXsXsXsXsXsXsXsXsXsXsXsXsXsXsXsXsXsXsXsXsXsXsXsXsXsXsXsXsXsXsXsXsXsXsXsXsXsXsXsXsXsXsXsXsXsXsXsXsXsXsXsXsXsXsXsXsXsXsXsXsXsXsXsXsXsX",
"sXsXsXsXsXsXsXsXsXsXsXsXsXsXsXsXsXsXsXsXsXsXsXsXsXsXsXsXsXsXsXsXsXsXsXsXsXsXsXsXsXsXsXsXsXsXsXsXsXsXsXsXsXsXsXsXsXsXsXsXsXsXsXsXsXsXsXsXsXsXsXsXsXsXsXsXsXsXsXsX"
};
