/* XPM */
static char *_713_cf7c0bba68c94f2fd004cc5d8b8ee2b42b5a76e5e4834d121cabb2d368b3edbd[] = {
/* columns rows colors chars-per-pixel */
"80 80 117 2 ",
"   c #DF777C",
".  c #DF7A7E",
"X  c #E07F7E",
"o  c #E3857F",
"O  c #CD7387",
"+  c #D17786",
"@  c #D67D86",
"#  c #DC7D83",
"$  c #D57A89",
"%  c #E47D82",
"&  c #DD8385",
"*  c #DF8884",
"=  c #D78288",
"-  c #DB8988",
";  c #DD948D",
":  c #DF9A8E",
">  c #DF8391",
",  c #DA9391",
"<  c #E38382",
"1  c #E38A83",
"2  c #E88B86",
"3  c #E1888C",
"4  c #EB8C8F",
"5  c #E49285",
"6  c #E89384",
"7  c #EA9B85",
"8  c #EB9589",
"9  c #E19D8F",
"0  c #ED9D8B",
"q  c #E79F93",
"w  c #E89F92",
"e  c #ECA686",
"r  c #EFAA86",
"t  c #E7A38F",
"y  c #EDA48B",
"u  c #EEAA8D",
"i  c #F0A087",
"p  c #F4AA84",
"a  c #F0A78F",
"s  c #F1AD8D",
"d  c #EFB28D",
"f  c #F2B487",
"g  c #F3B48D",
"h  c #F8B48F",
"j  c #F3B98F",
"k  c #EBA191",
"l  c #EEAC91",
"z  c #FCA596",
"x  c #F5AF91",
"c  c #FCAC94",
"v  c #F7AB98",
"b  c #EEB591",
"n  c #EFBB92",
"m  c #EEBD9A",
"M  c #F4B591",
"N  c #F9B292",
"B  c #F4BA92",
"V  c #FABC94",
"C  c #F4B599",
"Z  c #FBB299",
"A  c #F3BB9A",
"S  c #FABD99",
"D  c #F1BEA4",
"F  c #F4C28F",
"G  c #EEC39B",
"H  c #F4C294",
"J  c #F8C295",
"K  c #F7CB95",
"L  c #F5C49A",
"P  c #F9C59B",
"I  c #F5CA9C",
"U  c #F9CD9D",
"Y  c #F6D39F",
"T  c #F9D49D",
"R  c #FBDA9E",
"E  c #EFC1A0",
"W  c #F4C6A4",
"Q  c #FFC2A0",
"!  c #F4CCA3",
"~  c #F9CCA2",
"^  c #F3CCAB",
"/  c #F6D3A4",
"(  c #FAD4A2",
")  c #F7DAA4",
"_  c #FCDCA3",
"`  c #F6D3A8",
"'  c #F7DBAA",
"]  c #FADDAA",
"[  c #F7D0B2",
"{  c #FED3B0",
"}  c #F4DAB5",
"|  c #FFDCB3",
" . c #F4D5B9",
".. c #FFD7BA",
"X. c #F6DDBB",
"o. c #FCE1A6",
"O. c #FBE3AC",
"+. c #FBECAE",
"@. c #FCE3B1",
"#. c #FBEDB0",
"$. c #F6E0BE",
"%. c #F9E5BB",
"&. c #FBEDBB",
"*. c #FCF1B3",
"=. c #FEF3BA",
"-. c #F7E5C3",
";. c #F9E6C3",
":. c #FCECC3",
">. c #FAECCC",
",. c #FCF1C5",
"<. c #FCF4CC",
"1. c #FCF5D3",
"2. c #FDF9D5",
"3. c #FDF7DB",
"4. c #FCF9DC",
"5. c #FDFBE0",
"6. c None",
/* pixels */
"6.6.6.6.6.6.6.6.6.6.6.6.6.6.6.6.6.6.6.6.6.6.6.6.6.6.6.6.6.6.6.6.6.6.6.6.6.6.6.6.6.6.6.6.6.6.6.6.6.6.6.6.6.6.6.6.6.6.6.6.6.6.6.6.6.6.6.6.6.6.6.6.6.6.6.6.6.6.6.6.",
"6.6.6.6.6.6.6.6.6.6.6.6.6.6.6.6.6.6.6.6.6.6.6.6.6.6.6.6.6.6.6.6.6.6.6.6.6.6.6.6.6.6.6.6.6.6.6.6.6.6.6.6.6.6.6.6.6.6.6.6.6.6.6.6.6.6.6.6.6.6.6.6.6.6.6.6.6.6.6.6.",
"6.6.6.6.6.6.6.6.6.6.6.6.6.6.6.6.6.6.6.6.6.6.6.6.6.6.6.6.6.6.6.6.6.6.6.6.6.6.6.6.6.6.6.6.6.6.6.6.6.6.6.6.6.6.6.6.6.6.6.6.6.6.6.6.6.6.6.6.6.6.6.6.6.6.6.6.6.6.6.6.",
"6.6.6.6.6.6.6.6.6.6.6.6.6.6.6.6.6.6.6.6.6.6.6.6.6.6.6.6.6.6.6.6.6.6.6.6.6.6.6.6.6.6.6.6.6.6.6.6.6.6.6.6.6.6.6.6.6.6.6.6.6.6.6.6.6.6.6.6.6.6.6.6.6.6.6.6.6.6.6.6.",
"6.6.6.6.6.6.6.6.6.6.6.6.6.6.6.6.6.6.6.6.6.6.6.6.6.6.6.6.6.6.6.6.6.6.6.6.6.6.6.6.6.6.6.6.6.6.6.6.6.6.6.6.6.6.6.6.6.6.6.6.6.6.6.6.6.6.6.6.6.6.6.6.6.6.6.6.6.6.6.6.",
"6.6.6.6.6.6.6.6.6.6.6.6.6.6.6.6.6.6.6.6.6.6.6.6.6.6.6.6.6.6.6.6.6.6.6.6.6.6.6.6.6.6.6.6.6.6.6.6.6.6.6.6.6.6.6.6.6.6.6.6.6.6.6.6.6.6.6.6.6.6.6.6.6.6.6.6.6.6.6.6.",
"6.6.6.6.6.6.6.6.6.6.6.6.6.6.6.6.6.6.6.6.6.6.6.6.6.6.6.6.6.6.6.6.6.6.6.6.6.6.6.6.6.6.6.6.6.6.6.6.6.6.6.6.6.6.6.6.6.6.6.6.6.6.6.6.6.6.6.6.6.6.6.6.6.6.6.6.6.6.6.6.",
"6.6.6.6.6.6.6.6.6.6.6.6.6.6.6.6.6.6.6.6.6.6.6.6.6.6.6.6.6.6.6.6.6.6.6.6.6.6.6.6.6.6.6.6.6.6.6.6.6.6.6.6.6.6.6.6.6.6.6.6.6.6.6.6.6.6.6.6.6.6.6.6.6.6.6.6.6.6.6.6.",
"6.6.6.6.6.6.6.6.6.6.6.6.6.6.6.6.6.6.6.6.6.6.6.6.6.6.6.6.6.6.6.6.6.6.6.6.6.6.6.6.6.6.6.6.6.6.6.6.6.6.6.6.6.6.6.6.6.6.6.6.6.6.6.6.6.6.6.6.6.6.6.6.6.6.6.6.6.6.6.6.",
"6.6.6.6.6.6.6.6.6.6.6.6.6.6.6.6.6.6.6.6.6.6.6.6.6.6.6.6.6.6.6.6.6.6.6.6.6.6.6.6.6.6.6.6.6.6.6.6.6.6.6.6.6.6.6.6.6.6.6.6.6.6.6.6.6.6.6.6.6.6.6.6.6.6.6.6.6.6.6.6.",
"6.6.6.6.6.6.6.6.6.6.6.6.6.6.6.6.6.6.6.6.6.6.6.6.6.6.6.6.6.6.6.6.6.6.6.6.6.6.6.6.6.6.6.6.6.6.6.6.6.6.6.6.6.6.6.6.6.6.6.6.6.6.6.6.6.6.6.6.6.6.6.6.6.6.6.6.6.6.6.6.",
"6.6.6.6.6.6.6.6.6.6.6.6.6.6.6.6.6.6.6.6.6.6.6.6.6.6.6.6.6.6.6.6.6.6.6.6.6.6.6.6.6.6.6.6.6.6.6.6.6.6.6.6.6.6.6.6.6.6.6.6.6.6.6.6.6.6.6.6.6.6.6.6.6.6.6.6.6.6.6.6.",
"6.6.6.6.6.6.6.6.6.6.6.6.6.6.6.6.6.6.6.6.6.6.6.6.6.6.6.6.6.6.6.6.6.6.6.6.6.6.6.6.6.6.6.6.6.6.6.6.6.6.6.6.6.6.6.6.6.6.6.6.6.6.6.6.6.6.6.6.6.6.6.6.6.6.6.6.6.6.6.6.",
"6.6.6.6.6.6.6.6.6.6.6.6.6.6.6.6.6.6.6.6.6.6.6.6.6.6.6.6.6.6.6.6.6.6.6.6.6.6.6.6.6.6.6.6.6.6.6.6.6.6.6.6.6.6.6.6.6.6.6.6.6.6.6.6.6.6.6.6.6.6.6.6.6.6.6.6.6.6.6.6.",
"6.6.6.6.6.6.6.6.6.6.6.6.6.6.6.6.6.6.6.6.6.6.6.6.6.6.6.6.6.6.6.6.6.6.6.6.6.6.6.6.6.6.6.6.6.6.6.6.6.6.6.6.6.6.6.6.6.6.6.6.6.6.6.6.6.6.6.6.6.6.6.6.6.6.6.6.6.6.6.6.",
"6.6.6.6.6.6.6.6.6.6.6.6.6.6.6.6.6.6.6.6.6.6.6.6.6.6.6.6.6.6.6.6.6.6.6.6.6.6.6.6.6.6.6.6.6.6.6.6.6.6.6.6.6.6.6.6.6.6.6.6.6.6.6.6.6.6.6.6.6.6.6.6.6.6.6.6.6.6.6.6.",
"6.6.6.6.6.6.6.6.6.6.6.6.6.6.6.6.6.6.6.6.6.6.6.6.6.6.6.6.6.6.6.6.6.6.6.6.6.6.6.6.6.6.6.6.6.6.6.6.6.6.6.6.6.6.6.6.6.6.6.6.6.6.6.6.6.6.6.6.6.6.6.6.6.6.6.6.6.6.6.6.",
"6.6.6.6.6.6.6.6.6.6.6.6.6.6.6.6.6.6.6.6.6.6.6.6.6.6.6.6.6.6.6.6.6.6.6.6.6.6.6.6.6.6.6.6.6.6.6.6.6.6.6.6.6.6.6.6.6.6.6.6.6.6.6.6.6.6.6.6.6.6.6.6.6.6.6.6.6.6.6.6.",
"6.6.6.6.6.6.6.6.6.6.6.6.6.6.6.6.6.6.6.6.6.6.6.6.6.6.6.6.6.6.6.6.6.6.6.6.6.6.6.6.6.6.6.6.6.6.6.6.6.6.6.6.6.6.6.6.6.6.6.6.6.6.6.6.6.6.6.6.6.6.6.6.6.6.6.6.6.6.6.6.",
"6.6.6.6.6.6.6.6.6.6.6.6.6.6.6.6.6.6.6.6.6.6.6.6.6.6.6.6.6.6.6.6.6.6.6.6.6.6.6.6.6.6.6.6.6.6.6.6.6.6.6.6.6.6.6.6.6.6.6.6.6.6.6.6.6.6.6.6.6.6.6.6.6.6.6.6.6.6.6.6.",
"6.6.6.6.6.6.6.6.6.6.6.6.6.6.6.6.6.6.6.6.6.6.6.6.6.6.6.6.6.6.6.6.6.6.6.6.6.6.6.6.6.6.6.6.6.6.6.6.6.6.6.6.6.6.6.6.6.6.6.6.6.6.6.6.6.6.6.6.6.6.6.6.6.6.6.6.6.6.6.6.",
"6.6.6.6.6.6.6.6.6.6.6.6.6.6.6.6.6.6.6.6.6.6.6.6.6.6.6.6.6.6.6.6.6.6.6.6.6.6.6.6.6.6.6.6.6.6.6.6.6.6.6.6.6.6.6.6.6.6.6.6.6.6.6.6.6.6.6.6.6.6.6.6.6.6.6.6.6.6.6.6.",
"6.6.6.6.6.6.6.6.6.6.6.6.6.6.6.6.6.6.6.6.6.6.6.6.6.6.6.6.6.6.6.6.6.6.6.6.6.6.6.6.6.6.6.6.6.6.6.6.6.6.6.6.6.6.6.6.6.6.6.6.6.6.6.6.6.6.6.6.6.6.6.6.6.6.6.6.6.6.6.6.",
"6.6.6.6.6.6.6.6.6.6.6.6.6.6.6.6.6.6.6.6.6.6.6.6.6.6.6.6.6.6.6.6.6.6.6.6.6.6.6.6.6.6.6.6.6.6.6.6.6.6.6.6.6.6.6.6.6.6.6.6.6.6.6.6.6.6.6.6.6.6.6.6.6.6.6.6.6.6.6.6.",
"6.6.6.6.6.6.6.6.6.6.6.6.6.6.6.6.6.6.6.6.6.6.6.6.6.6.6.6.6.6.6.6.6.6.6.6.6.6.6.6.6.6.6.6.6.6.6.6.6.6.6.6.6.6.6.6.6.6.6.6.6.6.6.6.6.6.6.6.6.6.6.6.6.6.6.6.6.6.6.6.",
"6.6.6.6.6.6.6.6.6.6.6.6.6.6.6.6.6.6.6.6.6.6.6.6.6.6.6.6.6.6.6.6.6.6.6.6.6.6.6.6.6.6.6.6.6.6.6.6.6.6.6.6.6.6.6.6.6.6.6.6.6.6.6.6.6.6.6.6.6.6.6.6.6.6.6.6.6.6.6.6.",
"6.6.6.6.6.6.6.6.6.6.6.6.6.m A j j P L A H H n S P B j M j B A b B x t B M B s y M 6.6.6.6.6.6.6.6.6.6.6.6.6.6.6.6.6.6.6.6.6.6.6.6.6.6.6.6.6.6.6.6.6.6.6.6.6.6.6.",
"6.6.6.6.6.6.6.6.6.6.6.6.| 1.3.;._ O.R R _ R _ _ _ _ _ _ R _ o._ _ _ _ _ _ _ _ _ _ H g g t 6.6.6.6.6.6.6.6.6.6.6.6.6.6.6.6.6.6.6.6.6.6.6.6.6.6.6.6.6.6.6.6.6.6.6.",
"6.6.6.6.6.6.6.6.6.6.6.6.] 3.4.3.1.<.@.@.@.O.R ' _ _ _ ) o._ ( R _ _ _ _ _ _ _ ) _ R _ _ _ B f s j g M g s 8 M B B j B l x B B u g A 6.6.6.6.6.6.6.6.6.6.6.6.6.6.",
"6.6.6.6.6.6.6.6.6.6.6.6.| 3.3.<.O.#.<.1.1.1.@.) _ _ _ _ R L M j K Y _ _ _ _ _ _ _ _ _ _ o._ U j N V V B x u _ _ _ o.o._ _ o._ ] o.U 7 u 6.6.6.6.6.6.6.6.6.6.6.6.",
"6.6.6.6.6.6.6.6.6.6.6.6.{ 4.4.:.+.+.#.#.+.&.<.@.] O.( _ H u t M 7 n o._ _ R R R _ _ _ _ _ _ _ L y M j a b _ R R R o._ _ _ _ _ _ _ T p s 6.6.6.6.6.6.6.6.6.6.6.6.",
"6.6.6.6.6.6.6.6.6.6.6.6.| 3.4.,.+.+.#.+.#.#.#.<.1.,.O.] _ R T j g U o.R R I j B Y ( _ _ _ _ _ _ R j e M ( R B j H T R _ _ _ _ _ o.T j s 6.6.6.6.6.6.6.6.6.6.6.6.",
"6.6.6.6.6.6.6.6.6.6.6.6.] 3.1.,.#.#.#.#.#.#.#.#.+.&.<.1.%.@.O.R R R ) _ B f j s 8 I _ _ _ _ ) _ R _ Y K N g s M s l _ _ R _ o.o.o.O.' 5 6.6.6.6.6.6.6.6.6.6.6.6.",
"6.6.6.6.6.6.6.6.6.6.6.6.@.3.&.+.#.#.*.*.#.#.#.#.+.+.+.+.,.1.<.@.@.) R ) H j s a g T _ _ _ _ _ _ _ _ B f s y u s K _ _ _ _ o.O.O.I g M 1 6.6.6.6.6.6.6.6.6.6.6.6.",
"6.6.6.6.6.6.6.6.6.6.6.6.| 3.&.+.#.#.O.O.+.#.#.#.#.#.#.+.#.+.#.1.1.:.] ( _ _ _ _ _ _ _ _ _ _ _ _ _ _ _ _ _ _ _ _ _ _ _ _ O.' n M B j M 1 6.6.6.6.6.6.6.6.6.6.6.6.",
"6.6.6.6.6.6.6.6.6.6.6.6.@.3.&.+.#.O.L B I O.+.#.#.#.#.#.+.#.+.+.+.,.,.O.R _ _ _ _ _ _ _ _ _ _ _ _ _ _ _ _ _ _ ) _ ( _ O./ g B B B B B 1 6.6.6.6.6.6.6.6.6.6.6.6.",
"6.6.6.6.6.6.6.6.6.6.6.6.| 3.&.+.O.R R ) U L #.#.#.#.#.#.+.*.+.*.#.#.&.<.%.] R _ _ _ _ _ _ _ _ _ _ _ _ _ _ _ _ _ R ' O.L j B B B B B g * 6.6.6.6.6.6.6.6.6.6.6.6.",
"6.6.6.6.6.6.6.6.6.6.6.6.| 4.&.+.+.o.) _ U A @.#.#.#.#.#.#.#.#.+.#.+.+.#.<.&.) R ) _ o.O.o.o.) _ _ _ _ _ _ _ _ R o.+.n g B B B B B n M = 6.6.6.6.6.6.6.6.6.6.6.6.",
"6.6.6.6.6.6.6.6.6.6.6.6.| >.&.#.+.+.o.o.Y ! #.#.#.+.+.#.+.#.#.#.+.#.#.#.+.,.>.] T _ ] ' O.] Y Y ) _ _ _ _ _ _ o.o.' B B B j u B B B M 1 6.6.6.6.6.6.6.6.6.6.6.6.",
"6.6.6.6.6.6.6.6.6.6.6.6.6.( 1.<.+.+.+.#.+.#.#.#.#.#.#.#.#.#.#.#.#.#.#.+.#.+.&.<.W ] G 7 V 0 8 A _ _ _ o._ ] O.O.) j V B g i 1 M B B B = 6.6.6.6.6.6.6.6.6.6.6.6.",
"6.6.6.6.6.6.6.6.6.6.6.6.6.D ;.<.#.#.#.#.#.#.#.+.#.+.#.+.#.#.+.) ] O.#.#.#.#.#.#.3.^ f H B B c L o.o.O.] O.' B j j B B B u . 8 M B B B 1 6.6.6.6.6.6.6.6.6.6.6.6.",
"6.6.6.6.6.6.6.6.6.6.6.6.6.6.K <.2.#.+.#.+.#.+.*.#.#.#.#.#.+.O.K V / O.#.#.#.+.#.4.^ d B M B M G O.O.H f j B B B B B B B u 2 u M B B M * 6.6.6.6.6.6.6.6.6.6.6.6.",
"6.6.6.6.6.6.6.6.6.6.6.6.6.6.J :.3.+.+.+.#.#.+.#.#.+.#.#.*.o.Y _ _ P P #.#.#.#.#.<.} B n I K ) / d n M B j u B B B B B B B B B B B B B 3 6.6.6.6.6.6.6.6.6.6.6.6.",
"6.6.6.6.6.6.6.6.6.6.6.6.6.6.W :.<.+.+.*.#.*.+.+.#.#.#.#.*.) B _ o.P L #.#.#.#.#.#.<.} Y O.O.I g B B B B y o a M B B B B B M B B B B M 1 6.6.6.6.6.6.6.6.6.6.6.6.",
"6.6.6.6.6.6.6.6.6.6.6.6.6.L 1.<.+.#.#.] ' ] #.#.+.#.#.#.#.O.I Y T U / +.#.#.#.+.#.+.<.>.b n B B B B B e < 0 < y B B B B B B B B H h . 6.6.6.6.6.6.6.6.6.6.6.6.6.",
"6.6.6.6.6.6.6.6.6.6.6.6.6.[ 1.<.+.#.#.( H P ] +.+.#.#.#.+.#.+.I P ] *.+.#.+.+.#.+.+.,.>.g B B B B B B e % 8 0 M B B B N B B B B B c & 6.6.6.6.6.6.6.6.6.6.6.6.6.",
"6.6.6.6.6.6.6.6.6.6.6.6.| 4.4.,.+.+.+.o._ T B @.#.#.#.#.#.#.+.#.#.#.#.#.#.*.+.+.+.+.<.>.j B B B B B B u 8 i B B B B B B B B B B B M # 6.6.6.6.6.6.6.6.6.6.6.6.6.",
"6.6.6.6.6.6.6.6.6.6.6.6.] 5.4.:.+.+.+.O.O.O.~ O.#.#.#.#.#.#.#.#.#.#.#.#.#.+.+.*.+.+.<.>.g B B B B j A B B B B B B B B B B B B B H Z O 6.6.6.6.6.6.6.6.6.6.6.6.6.",
"6.6.6.6.6.6.6.6.6.6.6.6.#.1.3.<.&.#.#.#.#.#.#.#.+.+.+.#.#.#.#.#.#.#.#.#.#.#.#.#.+.+.<.>.g B B M B B B B g u u g B B B B B B B B h k 6.6.6.6.6.6.6.6.6.6.6.6.6.6.",
"6.6.6.6.6.6.6.6.6.6.6.6.U A X.3.2.+.@.#.#.+.#.+.+.*.*.#.#.#.#.+.#.#.#.#.+.#.+.#.#.O.1.>.g B B B B B B B u   % y B B B B B B B J z $ 6.6.6.6.6.6.6.6.6.6.6.6.6.6.",
"6.6.6.6.6.6.6.6.6.6.6.6.6.6.6. .3.&.#.#.#.+.+.#.+.+.] #.+.#.#.+.#.#.#.+.#.#.#.#.#.+.&.%.B B B B B B B B g 7 0 s B B j B B B j g , 6.6.6.6.6.6.6.6.6.6.6.6.6.6.6.",
"6.6.6.6.6.6.6.6.6.6.6.6.6.6.6.6.^ <.#.+.*.*.#.+.+.O.L ( +.*.#.+.#.#.+.*.*.#.+.+.#.#.o.Y B B B B B B B j j B V B j B H j B B M 4 6.6.6.6.6.6.6.6.6.6.6.6.6.6.6.6.",
"6.6.6.6.6.6.6.6.6.6.6.6.6.6.6.6.6.I C ' =.@.#.#.*.#.O.U O.+.+.*.#.+.+.) ( O.=.#.+.#.O.T B B B B B B B B B B B B j M u y u s M > 6.6.6.6.6.6.6.6.6.6.6.6.6.6.6.6.",
"6.6.6.6.6.6.6.6.6.6.6.6.6.6.6.6.6.6.6.6.A W #.#.@.#.#.=.#.+.#.#.+.*.' K J U O.+.#.#.o.T B B n B B B B B B B B B B g o < < o M k , 6.6.6.6.6.6.6.6.6.6.6.6.6.6.6.",
"6.6.6.6.6.6.6.6.6.6.6.6.6.6.6.6.6.6.6.6.6.6.! L C W ] @.#.#.#.+.#.#.+.R o.P ~ #.#.#.O._ F B B B B j B j M B B B B n < 8 2 1 B J c & 6.6.6.6.6.6.6.6.6.6.6.6.6.6.",
"6.6.6.6.6.6.6.6.6.6.6.6.6.6.6.6.6.6.6.6.6.6.6.6.6.6.Q #.*.+.#.#.#.#.+.o.~ S ~ #.#.#.#.#.&.B j B B V B H B B B B B g < 2 0 s B J z $ 6.6.6.6.6.6.6.6.6.6.6.6.6.6.",
"6.6.6.6.6.6.6.6.6.6.6.6.6.6.6.6.6.6.6.6.6.6.6.6.6.6.6.` +.#.+.+.#.#.#.#./ ! ] #.#.#.+.&.,.} L n B y e e u B B B B j 0 y g B V V ; 6.6.6.6.6.6.6.6.6.6.6.6.6.6.6.",
"6.6.6.6.6.6.6.6.6.6.6.6.6.6.6.6.6.6.6.6.6.6.6.6.6.6.6.S *.*.#.+.#.#.+.+.#.*.+.+.#.#.#.+.+.4.X.r y < < % 8 V B B B B B B B B x * 6.6.6.6.6.6.6.6.6.6.6.6.6.6.6.6.",
"6.6.6.6.6.6.6.6.6.6.6.6.6.6.6.6.6.6.6.6.6.6.6.6.6.6.6.6.] #.=.*.#.#.#.#.#.+.#.#.#.#.#.#.+.-./ e 6 8 8 8 y B B B B B n V V q 6.6.6.6.6.6.6.6.6.6.6.6.6.6.6.6.6.6.",
"6.6.6.6.6.6.6.6.6.6.6.6.6.6.6.6.6.6.6.6.6.6.6.6.6.6.6.6.6.^ *.@.#.#.#.#.#.#.+.#.#.#.#.#.+.&./ n B l a a s B B j j H B V ; 6.6.6.6.6.6.6.6.6.6.6.6.6.6.6.6.6.6.6.",
"6.6.6.6.6.6.6.6.6.6.6.6.6.6.6.6.6.6.6.6.6.6.6.6.6.6.6.6.6.6.I 6.! =.*.*.#.#.+.+.#.#.#.*.,.-.! g B B B V B B B B B c v ; 6.6.6.6.6.6.6.6.6.6.6.6.6.6.6.6.6.6.6.6.",
"6.6.6.6.6.6.6.6.6.6.6.6.6.6.6.6.6.6.6.6.6.6.6.6.6.6.6.6.6.6.6.6.6.) =.@.#.*.#.+.+.#.O.O.$.n g B B B B B B B H S 0 @ 6.6.6.6.6.6.6.6.6.6.6.6.6.6.6.6.6.6.6.6.6.6.",
"6.6.6.6.6.6.6.6.6.6.6.6.6.6.6.6.6.6.6.6.6.6.6.6.6.6.6.6.6.6.6.6.6.6.L A / =.=.+.+.+.#.' g j A B B B B B H B Z ; 6.6.6.6.6.6.6.6.6.6.6.6.6.6.6.6.6.6.6.6.6.6.6.6.",
"6.6.6.6.6.6.6.6.6.6.6.6.6.6.6.6.6.6.6.6.6.6.6.6.6.6.6.6.6.6.6.6.6.6.6.6.6.! #.*.=.+.<.>.B B B B B B H N z k 6.6.6.6.6.6.6.6.6.6.6.6.6.6.6.6.6.6.6.6.6.6.6.6.6.6.",
"6.6.6.6.6.6.6.6.6.6.6.6.6.6.6.6.6.6.6.6.6.6.6.6.6.6.6.6.6.6.6.6.6.6.6.6.6.6.L @.Q @.2.<.B H B H V x Z 9 6.6.6.6.6.6.6.6.6.6.6.6.6.6.6.6.6.6.6.6.6.6.6.6.6.6.6.6.",
"6.6.6.6.6.6.6.6.6.6.6.6.6.6.6.6.6.6.6.6.6.6.6.6.6.6.6.6.6.6.6.6.6.6.6.6.6.6.6.6.6.G ,...c c c Z 9 6.6.6.6.6.6.6.6.6.6.6.6.6.6.6.6.6.6.6.6.6.6.6.6.6.6.6.6.6.6.6.",
"6.6.6.6.6.6.6.6.6.6.6.6.6.6.6.6.6.6.6.6.6.6.6.6.6.6.6.6.6.6.6.6.6.6.6.6.6.6.6.6.6.6.e o # # * = 6.6.6.6.6.6.6.6.6.6.6.6.6.6.6.6.6.6.6.6.6.6.6.6.6.6.6.6.6.6.6.6.",
"6.6.6.6.6.6.6.6.6.6.6.6.6.6.6.6.6.6.6.6.6.6.6.6.6.6.6.6.6.6.6.6.6.6.6.6.6.6.6.6.6.6.6.6.6.6.6.6.6.6.6.6.6.6.6.6.6.6.6.6.6.6.6.6.6.6.6.6.6.6.6.6.6.6.6.6.6.6.6.6.",
"6.6.6.6.6.6.6.6.6.6.6.6.6.6.6.6.6.6.6.6.6.6.6.6.6.6.6.6.6.6.6.6.6.6.6.6.6.6.6.6.6.6.6.6.6.6.6.6.6.6.6.6.6.6.6.6.6.6.6.6.6.6.6.6.6.6.6.6.6.6.6.6.6.6.6.6.6.6.6.6.",
"6.6.6.6.6.6.6.6.6.6.6.6.6.6.6.6.6.6.6.6.6.6.6.6.6.6.6.6.6.6.6.6.6.6.6.6.6.6.6.6.6.6.6.6.6.6.6.6.6.6.6.6.6.6.6.6.6.6.6.6.6.6.6.6.6.6.6.6.6.6.6.6.6.6.6.6.6.6.6.6.",
"6.6.6.6.6.6.6.6.6.6.6.6.6.6.6.6.6.6.6.6.6.6.6.6.6.6.6.6.6.6.6.6.6.6.6.6.6.6.6.6.6.6.6.6.6.6.6.6.6.6.6.6.6.6.6.6.6.6.6.6.6.6.6.6.6.6.6.6.6.6.6.6.6.6.6.6.6.6.6.6.",
"6.6.6.6.6.6.6.6.6.6.6.6.6.6.6.6.6.6.6.6.6.6.6.6.6.6.6.6.6.6.6.6.6.6.6.6.6.6.6.6.6.6.6.6.6.6.6.6.6.6.6.6.6.6.6.6.6.6.6.6.6.6.6.6.6.6.6.6.6.6.6.6.6.6.6.6.6.6.6.6.",
"6.6.6.6.6.6.6.6.6.6.6.6.6.6.6.6.6.6.6.6.6.6.6.6.6.6.6.6.6.6.6.6.6.6.6.6.6.6.6.6.6.6.6.6.6.6.6.6.6.6.6.6.6.6.6.6.6.6.6.6.6.6.6.6.6.6.6.6.6.6.6.6.6.6.6.6.6.6.6.6.",
"6.6.6.6.6.6.6.6.6.6.6.6.6.6.6.6.6.6.6.6.6.6.6.6.6.6.6.6.6.6.6.6.6.6.6.6.6.6.6.6.6.6.6.6.6.6.6.6.6.6.6.6.6.6.6.6.6.6.6.6.6.6.6.6.6.6.6.6.6.6.6.6.6.6.6.6.6.6.6.6.",
"6.6.6.6.6.6.6.6.6.6.6.6.6.6.6.6.6.6.6.6.6.6.6.6.6.6.6.6.6.6.6.6.6.6.6.6.6.6.6.6.6.6.6.6.6.6.6.6.6.6.6.6.6.6.6.6.6.6.6.6.6.6.6.6.6.6.6.6.6.6.6.6.6.6.6.6.6.6.6.6.",
"6.6.6.6.6.6.6.6.6.6.6.6.6.6.6.6.6.6.6.6.6.6.6.6.6.6.6.6.6.6.6.6.6.6.6.6.6.6.6.6.6.6.6.6.6.6.6.6.6.6.6.6.6.6.6.6.6.6.6.6.6.6.6.6.6.6.6.6.6.6.6.6.6.6.6.6.6.6.6.6.",
"6.6.6.6.6.6.6.6.6.6.6.6.6.6.6.6.6.6.6.6.6.6.6.6.6.6.6.6.6.6.6.6.6.6.6.6.6.6.6.6.6.6.6.6.6.6.6.6.6.6.6.6.6.6.6.6.6.6.6.6.6.6.6.6.6.6.6.6.6.6.6.6.6.6.6.6.6.6.6.6.",
"6.6.6.6.6.6.6.6.6.6.6.6.6.6.6.6.6.6.6.6.6.6.6.6.6.6.6.6.6.6.6.6.6.6.6.6.6.6.6.6.6.6.6.6.6.6.6.6.6.6.6.6.6.6.6.6.6.6.6.6.6.6.6.6.6.6.6.6.6.6.6.6.6.6.6.6.6.6.6.6.",
"6.6.6.6.6.6.6.6.6.6.6.6.6.6.6.6.6.6.6.6.6.6.6.6.6.6.6.6.6.6.6.6.6.6.6.6.6.6.6.6.6.6.6.6.6.6.6.6.6.6.6.6.6.6.6.6.6.6.6.6.6.6.6.6.6.6.6.6.6.6.6.6.6.6.6.6.6.6.6.6.",
"6.6.6.6.6.6.6.6.6.6.6.6.6.6.6.6.6.6.6.6.6.6.6.6.6.6.6.6.6.6.6.6.6.6.6.6.6.6.6.6.6.6.6.6.6.6.6.6.6.6.6.6.6.6.6.6.6.6.6.6.6.6.6.6.6.6.6.6.6.6.6.6.6.6.6.6.6.6.6.6."
};
