/* XPM */
static char *_cecef7c2d03491c9a1a4741654b764dM5gBhDlthQaogG2r[] = {
/* columns rows colors chars-per-pixel */
"80 80 221 2 ",
"   c #030607",
".  c #050807",
"X  c #020709",
"o  c #05090A",
"O  c #080A0A",
"+  c #06120D",
"@  c #09150C",
"#  c #040E12",
"$  c #0A0F10",
"%  c #060F18",
"&  c #051315",
"*  c #0A1414",
"=  c #071816",
"-  c #0A1915",
";  c #06161A",
":  c #09171B",
">  c #07191D",
",  c #0E1C1E",
"<  c #0A1A1D",
"1  c #151514",
"2  c #181715",
"3  c #161917",
"4  c #191816",
"5  c #14191A",
"6  c #1A1C1B",
"7  c #19201C",
"8  c #0A1B20",
"9  c #0B1C21",
"0  c #0C1C20",
"q  c #0C1D22",
"w  c #0C1E23",
"e  c #0E1E21",
"r  c #0C1F24",
"t  c #0E1F24",
"y  c #0C1D22",
"u  c #111F23",
"i  c #1D1F20",
"p  c #0E2025",
"a  c #0F2229",
"s  c #102025",
"d  c #112125",
"f  c #1E2423",
"g  c #102228",
"h  c #14242A",
"j  c #1B2A2B",
"k  c #1A262A",
"l  c #1C2D31",
"z  c #1E3237",
"x  c #222522",
"c  c #252C2B",
"v  c #292C2A",
"b  c #222F31",
"n  c #233234",
"m  c #2B3333",
"M  c #24353A",
"N  c #293639",
"B  c #263A3E",
"V  c #2C3B3D",
"C  c #323C3D",
"Z  c #363936",
"A  c #27302D",
"S  c #6B0D18",
"D  c #710E17",
"F  c #6C121D",
"G  c #64131D",
"H  c #72121B",
"J  c #69070F",
"K  c #6D1521",
"L  c #6B1B26",
"P  c #6C1D29",
"I  c #661A24",
"U  c #741622",
"Y  c #731D29",
"T  c #781B27",
"R  c #6A222D",
"E  c #74222D",
"W  c #7A222D",
"Q  c #692A38",
"!  c #732631",
"~  c #7B2633",
"^  c #752B34",
"/  c #7B2A34",
"(  c #7C2F39",
")  c #7E313B",
"_  c #62303F",
"`  c #35413E",
"'  c #2B3E42",
"]  c #273B41",
"[  c #333F40",
"{  c #663A47",
"}  c #643F51",
"|  c #2E4246",
" . c #2E4649",
".. c #2F484A",
"X. c #334345",
"o. c #3B4543",
"O. c #3B4946",
"+. c #324649",
"@. c #354B4C",
"#. c #3B4C4C",
"$. c #384848",
"%. c #3C504E",
"&. c #35504E",
"*. c #364E51",
"=. c #3A4E52",
"-. c #365152",
";. c #3C5253",
":. c #3D5459",
">. c #3E5959",
",. c #434A45",
"<. c #424D4B",
"1. c #464A46",
"2. c #43514E",
"3. c #4A544E",
"4. c #4B5A4F",
"5. c #5A4852",
"6. c #445453",
"7. c #4B5653",
"8. c #455956",
"9. c #4D5955",
"0. c #425659",
"q. c #4A5659",
"w. c #455A5C",
"e. c #4B5C5B",
"r. c #525752",
"t. c #525A55",
"y. c #5A5C55",
"u. c #535D5A",
"i. c #595F5B",
"p. c #53545B",
"a. c #584B4E",
"s. c #684959",
"d. c #68565B",
"f. c #6D4B4F",
"g. c #4D625D",
"h. c #46605D",
"j. c #53635D",
"k. c #5B635C",
"l. c #54685F",
"z. c #5C6A5E",
"x. c #576257",
"c. c #62655D",
"v. c #696A5F",
"b. c #67665E",
"n. c #465D61",
"m. c #4A5E61",
"M. c #575C62",
"N. c #5D4D62",
"B. c #695B65",
"V. c #466063",
"C. c #4D6363",
"Z. c #4D6967",
"A. c #4E6569",
"S. c #4E696A",
"D. c #536563",
"F. c #5B6562",
"G. c #556965",
"H. c #5C6A65",
"J. c #526669",
"K. c #5C666A",
"L. c #556A6B",
"P. c #5B6D6B",
"I. c #5D716D",
"U. c #5E7165",
"Y. c #566E70",
"T. c #5B6E71",
"R. c #5E7271",
"E. c #616663",
"W. c #636B65",
"Q. c #6A6D65",
"!. c #636D6A",
"~. c #6A6E6A",
"^. c #676567",
"/. c #706C65",
"(. c #637165",
"). c #6B7166",
"_. c #63726C",
"`. c #6C726C",
"'. c #6D7B6D",
"]. c #72746D",
"[. c #7B7B6C",
"{. c #76766A",
"}. c #686F72",
"|. c #646D70",
" X c #637573",
".X c #6C7472",
"XX c #657876",
"oX c #6C7A75",
"OX c #6C7C7A",
"+X c #687579",
"@X c #727672",
"#X c #797672",
"$X c #747A74",
"%X c #7B7B74",
"&X c #727C7A",
"*X c #7C7E79",
"=X c #822836",
"-X c #84333E",
";X c #843541",
":X c #883B44",
">X c #827E6B",
",X c #817D74",
"<X c #8C404A",
"1X c #74817D",
"2X c #7C837C",
"3X c #788376",
"4X c #6F827E",
"5X c #85816C",
"6X c #88816E",
"7X c #818176",
"8X c #8B8372",
"9X c #83837C",
"0X c #8B867C",
"qX c #80887B",
"wX c #738382",
"eX c #7A8683",
"rX c #7C8A83",
"tX c #8C8B82",
"yX c #858A86",
"uX c #8D928D",
"iX c #95948C",
/* pixels */
"7 + + - * - - * * = & + & & = & & + + * * & + & = & & o X + & : : & & + + + o + & & + o o & & * * - - , - - * * * * * @ @ @ - - * * * - - - - = = & & & = * * + ",
",.j : : , q : : < q q < 9 9 9 < : & & : < : = : : : : : = = = = : > : : : < < < < < : : < < 9 9 q < : q : : : < q q : : - , k s q , , q q : : q p 9 9 9 < < < : ",
"t.2.n < < r q < 9 p g g p q < < < < < 9 q < 9 q 9 < < < > > < < < 9 q q q r p p q 0 < < 8 8 q r r q q r q q , , q 9 q q 9 r h g p r r r r 8 < q g g g p < < < : ",
"r.u.<.n q < r 8 8 r g s q < < : < < 8 q q 9 r r q 9 < = = < < < < 8 8 9 q q 9 < 9 < = = < > < 9 8 < 9 p q r r q < , , q q q p r r r r r q q < 9 p s s , < < : < ",
"r.7.e.9.N : < < < 8 r q < < < < < < < 8 q r q r q 9 8 < < < < > > = = < < < < = = = = = = = = < < = = q < q r r r q < < < < r q q r r r q q < < r q < < < < < : ",
"7.7.2.9.u.N * & : < r q q p q < q r q q r q q r r 8 < 8 8 > 8 < < < < < < < < < < < < < < < < 0 q 8 < s , , u q q , < < < , p r q q r r q < : < < p q r r q : - ",
"t.7.9.9.r.k.N $ o < q < q r r r r q q q 8 < < < < < : * : = : < < < q q q 8 8 q r q q r r q q s s s s k , , u u u s q q r p 8 < q q < 8 : : : < , < < q r q < 8 ",
"u.7.u.u.3.t.u.m & o < < , q , < < : < q 9 < < q < < : : 9 : : < < < q r r 9 < < q p q q r q q s s s s k s s s s r r < 9 p g 8 < < 8 < < : < : : < < < < q q < < ",
"u.2.9.9.<.3.i.u.C - & q q 5 , < : * < q q < , q 0 < < q r q , < < < , q q q < < < q q < q < < < 0 < , p s s s s p r q q s s r < > > > > < < = : < : < < q q < : ",
"u.6.6.q.<.t.u.~.F.V , : u u q q , , u s u q u q q u s s s s s u s s s s s u q q q r q q r < < < < : : , q r s s s s s q q p a 9 9 8 8 9 < , < : < < < 9 q q < < ",
"u.8.0.6.7.F.!.F.u.q.X.$ < < < < < < q q q q < < < < < q < < < < < q q q q q q < q < < < < : < : : : < < < < < < < < < : & = q < < < < < : q s < < p s p r q r q ",
"4.;.-.+.X.q.u.u.<.2.g.' * . . . . . . . . . . . O O O . . O O O O O O . O . . O O . . . . . . . . . . . . . . . . O . . . . . . . . . . . : < < 9 r s q < < 8 < ",
"j.0.*...+.q.u.9.<.O.#.6.F.W.H.D.j.j.u.Q.Q.k.k.Q./.#X{.Q.v.Q.{.#X#X#X].Q.Q.Q.).#X].].Q.c.b./.v.b.Q./.^.Q./.Q.Q.^.b.Q.b.Q.Q.`.P.j.j.k.F.W.F.1 & 8 < < q q < < r q ",
"e.8.;.@.@.0.t.9.2.#.#.6._.XX XI. X X!.$X&X X].].7X9X9X2X9X9X9X*X7XtXuX2X2X%X$X9X*X1X&X@X@X%X*X@X%X*X@X$X%X%X$X@X@X$X%X@X$X$X XP.P.H.I. X!.1 & q < < q 8 9 q r r ",
"8.8.;.#.*.:.9.9.2.#.%.6.D.G.G.D.G.G.D.`..XP.(.`.].@X].].$X@X@X`.].9X9X$X@X`.Q.@X.XXXoX@X`.~.~.!.!.!.W.W.$X%X`.F.F.!.@X~.Q.~.J.L.g.D.L.H.G.* & q < : 8 > 8 q q q ",
";.:.;.@.+.:.9.7.2.%.@.#.g.G.G.D.g.G.D.`..XP._.].`.@X@X~.@X].`.`.].#X`.`.`.`.`.&X&X$X$X$X`._.K.P.P.K.Q.`.*X9X`.i.i.!.`.`.].@XD.G.D.P.R.P._.1 & 8 = = : = 8 8 < < ",
"-.:.:.+...0.6.6.2.;.@.#.D.P.H.j.j._.H.!.~.P.W.W.Q..X$X`.@XQ.Q.~.`.W.W.c.Q.].@X@X@X~.$XoXP. XP.XX X_.$XqX`.`.Q.F.W.~.`.@X9XyXj.u.F.P.P._.1X3 & 8 = = < > 8 < < < ",
"&.-.;.@.+.0.q.q.7.6.-.#.H. X_._.XXH.6.*.=.6.q.q.q.6.j.@X].`.`.`.`.~.Q.`.`.@X@X`.Q.@XtXtX2X1X&X1X1X&XyXiX`.H.~.~.~.~.`.].*XuXuXoX~.~..XeXiX4 & 9 > = < = > < < : ",
"&.#.;.@.+.:.q.6.6.;.-.6.j.H.~._. XH.9.c o $ * * * O Z %XW.W.`.@X@X`.].$X`.`.~.~.k.`.%X[.$X`.!.Q.W.W.`.2XD.X.j 3 3 3 3 3 3 Z $X`.!.`.@X2XtX4 & r < : < & = 8 8 = ",
":.#.;.@...;.q.e.9.7.7.q.u.E.~.!.!.!.u.<.,.,.1.1.r.x v $XW.Q.~.].$X`.`.`.~.W.~.`.W.$X{.Q.E.k.k.E.Q.E.E.&Xm.B b Z 3.1.,.y.Z 3 ~.~.~..X@X%X0X2 & q < ; 9 = = 8 q < ",
":.;.;.@.| ;.q.u.q.7.e.q.k.E.F.i.F.F.q.H.oXOXOXoXrXZ x ].W.W.W.`.`.`.`.`.H.H.!.~.W.$X`.k.k.k.k.Q.`.`.~..Xw.] X.H.1XoXXXuXy.3 .X`..X$X$X*X0X2 & r < < 9 : < q r q ",
"-.;.;.@.| :.w.7.<.6.e.2.!.E.t.7.t.u.6.e.P.L.A.L.I.c x `.F.H.F.W.~.~..X~.H.F.F.E.F.~.E.k.k.k.E.W.~.].`.!.w.] ' e.P.A.V.OX,.4 $X.X@X$X$X2X0X2 & r r q < : 9 r p q ",
";.0.8.@...:.6.#.#.2.6.#.`.F.r.t.u.u.2.8.L.XXP. XoXm x `.F.F.E.W.Q.Q.!.W.F.F.u.F.F.W.k.t.t.F.E.^.~.Q.W. Xm.B V D.OXL.L.eX3.3 .XE.W.Q.~.%X0X2 # 9 8 8 < - : < 8 < ",
";.w.0.*.+.;.#.%.7.9.9.#.W.!.k.k.W.u.<.6.D.R.XX X XA x `.F.F.F.W.~.E.k.j.D.H.H.D.u.}.H.7.7.F.i.c.b.k.u.D.;.M B e.XX XXXeX3.3  Xu.k.E.E.].tX4 # 8 8 8 8 < < > 8 q ",
";.6.0.=.@.;.;.6.q.t.9.O.`.%X`.W.!.H.<.#.2.6.q.q.F.c x !.u.F.F.F.j.u.k.u.j.P..XW.j..X.XW.u.u.k.x.y.t.9.D.:.B N 2.u.H.D.`.,.1 H._.j.k.E.`.tX2 # r 9 8 8 < 8 8 8 r ",
";.;.;.=.@.;.;.6.9.t.u.#.].9X$X~.(.`.9.6.6.2.<.=.q.O.O.H.F.F.F.F.F.k..X!.q.O.Z v c m Z m c C F.Q.H.j.j.j.:.B M X.$.2.<.9.o.N  XXXF.F.~.*X0X2 & 9 < < < < 8 8 8 9 ",
";.;.:.:.@.;.6.6.7.t.u.6.`.2X$X(.W.`.H.G.G.j.e.w.e.G.P.H.H.D.9.F._._.u.,.N q o X o X o o o q o.2.F._.!.j.;.+.| +.+.@.=.*.#.e.wXXX~.~..X2XtX4 & 8 ; < : < < > > < ",
":.:.:.*.+.;.;.;.7.t.9.6.XX1XXXH.j.H._..X}.H.K.m.g.G.D.j.C.V.0.e.P.u.s X o & & & : : : & = = X # X.!.!.P.e.w.m.n.w.0.n.n.:.C.1X.X`..X_..X2X3 # 8 > > = < = ; > : ",
":.-.-.+. .%.@.;.7.t.u.6..XXX_.H.D.j.P..X!.e.e.=.6.0.:.6.8.V.w.#.n % < : = & . . O O O . + = < < o 3 6.`.u.q.e.m.m.w.C.A.C.H.&X.XW.F.G._.2X3 # < > = = = = = < < ",
"0.*.*.@.@.;.@.;.7.9.t.8.`.@X.X~.W.@X`..XoX.XK.C.C.L.T.P.m.J.@.h 8 g h o o N F.W.{.%XQ.t.` q X : q * * b 9.u.q.q.q.m.J.L.C.g.`..XE.u.H.1XiX4 & 9 ; = = < = = > q ",
"w.;.:.:.*.;.@.%.7.t.u.e.].{.@X.X`.2X`.~.`.~.K.A.J.T. XH.D.w.M h g ; % o.t.H..X`.%X9X%X`.!.Q.b.f o = o o O.q.6.6.m.C.G.L.D.D.`.~.W.~..X%XtX4 & 9 > ; ; = < < 8 q ",
"6.*.*.*.@.;.@.#.7.u.9.w.%X,X%X$X_.&X_.H.P.P.K.J.L.P.L.C.w.n j n l q C W..X(.H.M.d.d.d.^.$XtX9Xy.c & & o i #.w.#.V.J.H.!.P.H.*X.X`.$X&X%X0X2 & q > > < ; 8 q q u ",
"%.*.+...@.%.#.2.9.u.9.;.%X,X$X.XP.R.P.H.P.P.L.L.H.H.J.w.@.7 j N N @._.H.u.a.f.} _ Q _ { d.~.W.3Xk.f X = X M :.0.e.J.J.!.H.k.yX&X.X$X*X9XtX4 & 9 > ; < : 9 r q q ",
"&.*.....-.;.#.7.9.t.9.#..X.XH.H.L.T.P.H.P.P.L.m.G.P.L.w.X.' M b #. XH.i.5.R H T Y U F S D { d.c.%Xc.$ & = & | P.e.D.C.C.w.e.$X_.H.`.%X2X0X2 & 8 = = < = 8 q q r ",
"%.-.+.@.;.%.$.%.7.t.u.#.XXP.C.P.+X+XP.L.L.G.L.e.C.A.A.e.V X.$.;.e.P.E.{ G S L Y Y W U S F H P B.&X.X7.. = X b J.C.V.e.0.6.D..XH.j.F.E.Q.,X3 & 8 ; > 8 > > 8 q r ",
"6.;.-.;.-.;.X.#.q.t.9.O.$XeX&XOXXXOXOXOXOX.XOX XP.P.D.=.C [ V w. X!.d.K D Y ! ! E ) ! L Y U D } ~.&XH.O #   k L.eXwXwXOX1XwX XD.E.~.Q.Q.[.1 & 9 ; < q > < < 8 q ",
"6.:.;.;.;.:.#.#.7.t.9.2.H.P.H.H.G.G.L.H.H.H.H.H.j.C.w.+.X.X.#.G.OX^.! U U Y E ( ^ ) ) ( ^ E K I d.rX3X9.* X & C &X X XXX1XeX_.D.!.`.~.].,X3 & 8 ; < r < : : < < ",
"6.:.:.;.;.:.#.%.6.7.9.q.V.V.g.C.m.C.e.w.e.e.q.w.0.e.:.] +.<.e.I.+XB.D T ~ Y P / ^ ^ ( -X( R L J { .XoXOX3 # o 6 P.j.D.H. XOXH.D.F.Q.Q.].9X2 & 8 = < r 8 = = : < ",
"6.-.:.:.:.6.@.2.7.9.9.q.A.Y.Y.J.D.J.V.w.w.e.8.w.n.n.*.z +.2.j.G.K.s.S T =X~ R P ^ ! ~ =X/ L P D Q p.j.!.1 # o 6 P.G.D.G. XXXG.j.F.W.Q.].9X3 & 8 = < r 8 = = : : ",
"6.@.:.:.-.;.#.#.3.t.u.6.V.T.Y.V.e.C.e.;.;.0.0.0.w.V.:.B #.1.e.A.p.{ F Y ~ / ^ ^ ;X/ / -X~ P ~ F R a.H.$X3 # # 6 !.K.j.D._.oX_.H._.`.`.%X7X3 & 9 = > q 9 > : < : ",
";.%.:.:.>.0.2.2.7.9.u.7.V.A.C.m.e.m.V.0.*.*.:.n.n.n.e.t.u.u.D.A.M.} F Y ~ W E ^ <X) ) -X=X=X;XU R 5.H.*X3 % # 6 !.K.G.D.H.I.I.H.`.`.@X2X9X3 & < & > < < > < < < ",
"6.8.0.0.8.0.6.6.9.t.q.8.V.J.A.w.8.m.A.V.0.:.w.m.w.e.e.9.q.8.D.J.D.s.T =X~ E ^ -X:X:X:X;X=XY ! H Q B.P.~.3 # o i }.K.H.G.D.L.P.H.!.~.`.%X%X1 & < & = < : > 8 q q ",
";.6.;.;.;.:.6.6.9.u.q.%.J.P.L.C.m.C.D.V.e.m.C.C.n.n.w.9.9.6.e.A.P.B.U T E E ( ;X~ ;X:X) ~ P E H f.&XXXK.d = o f .XH.K.H.H.H.G.j.k.W.~.`.%X1 & < = : < < > < q r ",
"@.#.%.%.*.:.6.#.3.u.9.$.J.I.L.D.J.J.C.m.C.L.J.L.V.n.w.w.7.8.0.A. X^.Q F K Y ~ =XE W ! ! ! ! Y ! d.1X X#.l s d X.$X~.!.P. X~.D.D.F.!..X.X*X3 & 8 = : < > > < < 9 ",
"@.%.%.%.-.0.6.O.,.7.7.#.e.L.G.C.J.D.A.A.J.L.J.T.A.n.w.:.#.0.e.L. X!.N.I S K Y E E U L P R / K s.+XXXe.s k j ' D.oX XI.P. X.XD.I.I.XX&X@X*X3 : q = = < > = = < > ",
";.6.#.@.-.:.0.#.1.9.7.2.C.A.C.C.C.C.J.L.J.A.A.L.J.m.n.n.#.8.A.P._.P.M.5.P D L L K Y E P L W { #XyXOX;.z l g V e.m.e.e.C.G.I. XD..X&X`.W.%X3 & 8 = = < < ; : < < ",
";.6.#.@.%.;.8.7.3.q.9.3.L.L.D.G.J.J.P.I.I.R.J.A.J.J.J.D.q.9.j.k.c.H.J.M.d.{ L S J F H D I d.~.1XrXH.N #.B j X.J.J.L.J.D.T.XXP.OXoX.X_.~.%X3 & 9 = ; 8 8 < < 0 : ",
":.w.6.#.%.6.q.7.7.9.7.3.T.!._. XXXR.P.P._. XD.V.J.P.R.L.0.7.u.H.F.j.L.J.K.B.d.} { s.s.f.d.`.3X2X!.#.V +.z +.C.G.P.R.P.P.OXOXP._._.!.D.W.%X3 & 8 ; ; q 9 < < < 9 ",
":.w.6.#.%.8.8.4.9.9.6.3.P. X~. XR.H.G.G.H.R.P.D.L.P.P.J.w.;.u.^.E.j.G.L.H.P.!.K.^.|.P.P.oX$XoXH.7.o.` M B w.L.H.P.P.P.P.XXwX_.H.Q.W.F.E.,X3 & q = = 9 q q < : q ",
":.q.e.6.;.8.;.3.r.9.6.3.P. X|.H.G.e.g.g.D.I.XXP.P.P.L.A.V.>.9.c.c.j.k.G.L.P.L.L._._.D.D. X(.F.6.#.O.C B 0.m.D.H.L.P.P.P.XXeX X`.~.Q.W.~.%X3 : r = = < q r < * 8 ",
"0.e.D.g.>.w.#.2.t.u.7.3.P. X XL.D.C.e.e.g.G.R.R.G.D.J.J.C.V.e.9.t.k.F.V.V.D.D.G.P.L.e.e.D.7.u.q.O.V X.m.C.m.C.D.A.P.!.!.1XuX X.X~.W.!..X#X3 : r = ; 8 < q < * > ",
"g.D.G.V.:.q.2.2.9.k.r.3.H.P.L.L.J.C.e.V.n.w.Z.R.D.e.C.C.w.:.n.n.m.i.D.;.>.V.C.e.k.8.0.w.9.r.u.6.C C e.G.q.q.e.u.D.H.H.H.$XeXD.`.~.H._.1X#X3 : r < < q > q q < < ",
"e.e.w.;.@.;.#.#.%.q.t.7.G.XXOXwXOXR.P.P.L.J.P.P.P.J.D.J.J.L.V.w.n.e.0.6.6.e.F.k.k.e.:.@.@.i.9.q.F._.XXwXR.D.D.F.K.!.!.~.9XuXJ.K.W.E.Q.@X,X3 & q < r r < q q < < ",
"q.;.-.*.@.#.#.X...;.u.<.P. X XXXI.I.L.D.G.P.P.J.S.S.A.J.C.V.w.0.e.m.m.m.;.9.!.W.E.e.-.+.+.0.6.6.C.L.I.wX Xw.;.6.q.e.e.u..XeXT.K.F.W.!..X,X2 & < < r < < q q : < ",
"e.;.;.;.;.;.O.@.+.;.9.#..X XL.Z.Z.A.V.X.c m n n l n X.m.w.w.w.w.e.C.C.C.0.6.j.j.u.w.:.@.@.*.;.:.w.e.D. XD.+.l k k f f b N #.P.M.j.W. X.X*X3 & , < r < < q 8 : = ",
"j.6.6.6.6.0.@.#.;.6.3.#.`. XP.S.Z.V.w.m 3 x x f v 1 5 :.e.n.V.m.e.g.g.g.g.e.0.e.w.e.w.6.;.;.;.V.V.e.A.H.m.] k f f 7 7 m d 1 G.6.e.!..X`.{.1 & q < q q < 9 8 : = ",
"u.q.0.8.q.w.@.#.*.6.3.#.H._.L.Z.A.n.;.;.H.2X2XOXiX1.- 0.C.A.m.C.C.0.e.D.J.A.A.A.A.e.V.m.e.m.m.J.A.m.C.H.J.] X._.&X.XoXrX3.1 g.9.j.E.W.Q.`.1 & q < < < < < < < = ",
"r.9.w.8.6.q.;.;.-.;.7.<..X_.L.L.V.:.*.;.e.P.J.V.1XC 5 0.m.L.L.D.e.;.C.A.J.J.L.J.V.J.m.e.V.L.L.J.A.C.C.H.G.B ' L.T.J.J.XXo.1 u.9.k.F.j.!.@X1 & q < < < q < 9 9 : ",
"t.9.0.;.6.8.;.-.-.;.9.<.oX XL.A.e.:.:.;.D.OXJ.D.eXC 5 w.J.T.XXL.e.V.J.J.L.H.D.C.P.XXL.C.D.L.J.P.J.C.A.Y.T.' | P.XXL.R.OXo.1 H.F.W.~.`.$X,X3 & q < q < < q q q < ",
"t.u.w.6.6.8.6.;.-.;.9.#. X XH.C.w.*.;.@.e. XP.P.wXZ 5 w.A.T.XXL.w.J.J.L.L.J.D.C. XXXP.D.G.L.P.R.P.S.Z.S.R.+.| D.I.P.I.XX` 4 XXF.W..X`.].,X3 & q < 9 q < < < < < ",
"k.H.C.0.6.w.6.#.;.0.u.<.!._.I.L.A.:.;.#.8.H._. X1X` u n.P.R.R.V.0.C.C.L.P.P.L.G.XXP.D.D.G.H.P.R.R.J.V.C.P.X.| D.H.!.!.oXo.6 eXu.u.~.`.~.#X3 & 9 : < r : : : < < ",
"k.H.D.0.8.w.;.#.;.e.9.2.H._._. X XL.w.9.j.H.H.H.$X7.' n.XXXXP.V.e.e.m.J.T.XXP.G.XXR.D.G.P.P._. X XP.H._.H.+.#.E.F.F.Q.%Xr.Z yXu.u.~..X`.#X3 & q < < r : < < < > ",
"9.j.g.6.6.q.e.q.g.e.6.=.W.`._._. X XP.H.F.D.q.9.u.W.W.e.I.OX XP.D.V.V.L.R.R.L.e.XXOX X X X XOX1X&X&XrXyX!.D.j.e.u.9.D.K.!. X XK.W.].$X$X7X3 : s 9 < g p r 9 < < ",
"O.6.8.;.#.;.g.e.e.7.@.*.F.E.H.H.G.D.j.H.!.P.q.6.#.u.W.!.OXoXoX_.D.A.A.T.T.T.L.C.L.&XoX_.H.H.F.P.I._.`..XF.H.H.F.F.9.G.P.P.G.g.g.!.`.`.$X7X3 & p 9 8 g g q < 8 < ",
"2.7.9.6.2.2.6.7.9.7.@.*.k.W.`..X.XW.H.H.H.D.D.u.u.W..X.X$X&X&X!.D.L.R.R.L.J.P.R.XX&X.X!.W.W.H.P._.P.H..X`.W.H.H.W.H.!.P.P.R.I.D.!.oX$X$X7X3 & p 9 < r s q < < : ",
"9.3.9.9.7.7.7.2.9.9.#.@.k.`.@X$X.XW.Q._.~.!.W.W.!.~..X.X$X$X.XH.C.P.P.L.T.R.XXXX4X&X.X~.`.~.!.~.`.`.Q..X`.H.F.H.~.~.P.H.P. XI.D.H..X.X`.*X3 & r < 8 r r , < < : ",
"t.7.7.9.9.9.9.7.9.9.%.+.k.`.@X].`.W.`..X.X~.!.~.W.W.!.~.@X@X@XP.C.P.L.P. XXXXXR.wX1X$X@X`.~.~.`.@X@X`.`.~.!.!.!.~.!.G.D.G.I.P.F.!.!.W.~.].1 & r 8 q q r q < < < ",
"9.7.6.7.u.7.q.q.u.9.@.@.k.~.`.`.`.`.`.@X~.E.E.W.F.F.H.H.~.`.@X.XP.L.P._._.~.~.P.oX&X$X`.W.!.`.(..X.X`.`.~.~.}.~.H.P.D.A.D.H..X!.E.H.H.Q.`.f - q r r q q q 9 < < ",
"t.7.7.6.9.7.u.u.k.7.| H.`.`.Q.z.k.W.E.~.~.E.k.j.H.H.H.k.j.g.9.x.z.z.k.u.j.k.k.k.k.W.c.y.u.k.E.W.E.c.k.z.7.7.6.e.g.j.D.g.g.D.$X(.k.F.H.`.2XH.f # q r r < < < < < ",
"j.9.u.u.7.t.u.F.u.u.H.*X$X`.Q._._.`._._._.!.H.G.H.P.P.D.g.g.j.j.j.g.g.j.D.j.j.F.F.F.F.G.H.H.H.!.!.z.z.(.j.u.g.g.D.G.G.D.j.H.$XQ.E.W.`.`.].%Xk.x o r < < q q < < ",
"k.7.t.u.#.3.9.u.u.k.(.!.G.G.D.D.D.D.C.e.e.e.C.g.j.G.G.g.e.j.D.C.C.C.A.V.J.J.C.D.P.P.H.G.G.D.D.H.U.H.H.H.9.e.j.G.H.P.H.H._.(.!.k.F.W.Q.Q.Q.].).y.A o < < q q < < ",
"k.7.9.e.2.9.9.j.E.Q.H.w.w.g.e.8.w.e.e.8.6.8.e.m.g.V.V.h.w.C.A.C.g.C.A.A.J.J.G.J.R.L.D.j.g.g.g.j.l.H.P.H.e.e.F.!.!.P.H.H._._.l.j.k.Q.Q.W.W.Q.Q.{.k.c # < r q < < ",
"j.6.q.q.2.g.H.Q.`.`.H.m.e.g.g.e.e.g.g.g.g.l.D.L.D.D.A.A.g.A.C.g.e.e.V.D.D.L.L.G.P.G.j.j.j.j.j.j.z.H. XXXD.D.H.!.!.P.H.G.P._.H.H.W.Q.W.E.W.`.Q.`.3XD.f : 8 q < < ",
"9.6.;.=.$.e.~.].~.I.P.P.G.H.H.H.D.j.j.j.G.H.P.!.P.P.P.P.l.D.A.C.q.w.e.A.J.J.D.j.G.H.H.k.k.k.k.F.Q.`.$XoXH.D.H.H.P.(._.I.oX2X!.~.Q.E.k.k.W.`.Q.~. XR.P.x * 9 r r ",
"x.0.:...' F.Q.!.H.H.g.l.!.I.L.G.A.C.C.C.A.J.L.L.G.D.D.C.C.C.g.g.C.C.D.l.g.g.g.g.G.j.q.7.e.C.g.D.J.L.P.oXH.H.H.W.W.W.`.`.*X*Xu.j.k.k.H.E.W.W.E.H.D.g._._.v o q q ",
"j.w.+.@.i.~.~.!._.`.`._._.H.G.D.V.e.V.A.D.D.V.e.e.g.C.G.P.I.I.C.e.e.V.G.L.G.C.g.H.H.C.e.D.L.P.P.L.J.L. XP.P.(.`.(.W.Q.Q.~.`.H.u.k.W.~.W.W.!.~..X$XQ.(.'.H.m o s ",
"e.;.6.k.Q.W.E.k.E.W.W.k.k.H.W.Q.H.j.F.P.!.F.j.u.t.k.H.!._.`._.D.e.V.Z.G.G.H.G.D. X.X_.W.H.H.W.!.P.P.H._.H.H.!.W.W.H.H.H.H.H.H.j.k.!.!.E.E.E.c.Q.~.E.k.c.].v.Z o ",
";.>.D.E.F.j.u.t.k.k.k.k.k.E.Q.W.E.E.W.~.Q.c.k.j.j.k.H.W.(.`.`.!.D.D.C.D.H.P.P.H. X_.H.F.F.E.E.W.Q.Q.W.`.F.k.F.E.F.H.D.D.D.D.H.j.F.F.F.j.j.u.j.k.F.k.k.k.Q.].c.m ",
"0.j.F.F.j.e.g.j.z.!._.H.H.!.H.j.j.H.!.`.Q.E.E.E.E.Q.`.~.`.$X%X$X`.`.W.(.`.`.`.).`._.H.j.E.Q.Q.)./.Q.).].).W.W.W.E.Q.W.W.W.Q.H.F.D.D.j.j.j.j.j.H._._.H.P.H.F.H.$X",
"`.W.W.(.(.H.H.(.`.oX3X'.z.H.H.z.z.U.(.[.%X'.[.5X8X8X8X6X8X6X6X6X8X8X8X5X5X[.[.8X5X3X3X>X{.{.].{.[.{.[.5X6X>X[.{.{.{.>X>X5X,X(.H.z.W.(.(.z.(.`.'.3X3XU.H.W.H.z.(."
};
