/* XPM */
static char *_2236_7fa53f3979b4ff1c2aa71adb6c1689d00d6ebb14ea35e8fbf52ea5806d205a75[] = {
/* columns rows colors chars-per-pixel */
"70 70 252 2 ",
"   c #550A0B",
".  c #17006B",
"X  c #0A016A",
"o  c #B02F2A",
"O  c #D60000",
"+  c #CC1309",
"@  c #EB0400",
"#  c #F90000",
"$  c #F31E00",
"%  c #D82E17",
"&  c #F62600",
"*  c #FA3309",
"=  c #D52922",
"-  c #D43730",
";  c #E62A25",
":  c #EA3525",
">  c #FD3C24",
",  c #F93726",
"<  c #EF3630",
"1  c #FF5A00",
"2  c #FF5200",
"3  c #FF5A1D",
"4  c #FB450A",
"5  c #FE6200",
"6  c #FE6B01",
"7  c #F86505",
"8  c #FF7200",
"9  c #FD7B03",
"0  c #FF651D",
"q  c #FF6B1D",
"w  c #FF6716",
"e  c #FF771B",
"r  c #FE4525",
"t  c #FF422C",
"y  c #FD4B24",
"u  c #FF5422",
"i  c #FF5A24",
"p  c #FC4636",
"a  c #F15031",
"s  c #FF6322",
"d  c #FF6925",
"f  c #FE7422",
"g  c #FF7D23",
"h  c #FD762B",
"j  c #FE6935",
"k  c #FE7935",
"l  c #DA4823",
"z  c #B64E4F",
"x  c #B16B76",
"c  c #AC5961",
"v  c #CA5456",
"b  c #D16D6E",
"n  c #E76C68",
"m  c #EC654B",
"M  c #FF8300",
"N  c #FF8F07",
"B  c #FF9800",
"V  c #FF841A",
"C  c #FF9A1B",
"Z  c #FFA305",
"A  c #FF8423",
"S  c #FF8828",
"D  c #FE8737",
"F  c #FD9732",
"G  c #FFAB30",
"H  c #FF9C46",
"J  c #F69251",
"K  c #FEA847",
"L  c #FEAC53",
"P  c #FEB252",
"I  c #CB9777",
"U  c #ED8C78",
"Y  c #EF936E",
"T  c #FBB66E",
"R  c #CEAA79",
"E  c #0006BC",
"W  c #091BBC",
"Q  c #0F25BC",
"!  c #1F2497",
"~  c #0616C3",
"^  c #0327C9",
"/  c #132BCA",
"(  c #1327C5",
")  c #1734C9",
"_  c #0132D7",
"`  c #1837D6",
"'  c #0A2CD5",
"]  c #053BE4",
"[  c #293CD6",
"{  c #0C48D8",
"}  c #2D46DC",
"|  c #1B44E7",
" . c #184DF5",
".. c #1B55FB",
"X. c #0951F4",
"o. c #344BE5",
"O. c #255CFF",
"+. c #2253F8",
"@. c #2A52EC",
"#. c #1863FF",
"$. c #006FFF",
"%. c #2664FF",
"&. c #2A64FF",
"*. c #266BFF",
"=. c #296BFF",
"-. c #2660F0",
";. c #2A74FF",
":. c #2C7BFF",
">. c #2474FF",
",. c #2A69F4",
"<. c #4556E7",
"1. c #4A65FA",
"2. c #556BFF",
"3. c #5166F8",
"4. c #4779FF",
"5. c #5977FE",
"6. c #586AEC",
"7. c #6274FF",
"8. c #637CFF",
"9. c #6D7CFF",
"0. c #6574F4",
"q. c #727AF6",
"w. c #A87183",
"e. c #2D83FF",
"r. c #278FFF",
"t. c #318BFF",
"y. c #3085FF",
"u. c #3494FF",
"i. c #359AFF",
"p. c #3A9BFF",
"a. c #2892FF",
"s. c #3AA2FF",
"d. c #3DACFF",
"f. c #34A2FF",
"g. c #3FB4FF",
"h. c #0283FF",
"j. c #73A3D0",
"k. c #5291FF",
"l. c #6D83FE",
"z. c #6787FE",
"x. c #7284FE",
"c. c #7788FB",
"v. c #7C94FC",
"b. c #6899FE",
"n. c #5AAAFF",
"m. c #44BCFF",
"M. c #42B6FF",
"N. c #55B4FF",
"B. c #59B6FE",
"V. c #4DA5F5",
"C. c #67A8FF",
"Z. c #7FB1FF",
"A. c #6F9FD0",
"S. c #38CAFE",
"D. c #28C4FF",
"F. c #2DEFFF",
"G. c #46C4FF",
"H. c #46CCFF",
"J. c #4ACDFF",
"K. c #4AC5FE",
"L. c #45D1FF",
"P. c #4CD2FF",
"I. c #4BDAFF",
"U. c #51D5FF",
"Y. c #53DBFF",
"T. c #5CD2FF",
"R. c #57C9FB",
"E. c #75DAF6",
"W. c #4DE5FF",
"Q. c #59E4FF",
"!. c #5EEBFF",
"~. c #55E1FF",
"^. c #5DF4FF",
"/. c #57F9FF",
"(. c #4AF5FF",
"). c #67EAFF",
"_. c #77ECFF",
"`. c #65F5FF",
"'. c #69F4FF",
"]. c #66F9FF",
"[. c #68F9FF",
"{. c #74F2FF",
"}. c #7AF3FF",
"|. c #7294B9",
" X c #ADAFB7",
".X c #A994A2",
"XX c #EC998A",
"oX c #E98C93",
"OX c #E9A891",
"+X c #DEAEB1",
"@X c #E6AFAC",
"#X c #DC9E9E",
"$X c #EFC794",
"%X c #EAD5BA",
"&X c #EAC9AD",
"*X c #AEB1C4",
"=X c #8C9EFF",
"-X c #8695FC",
";X c #909EFF",
":X c #808CF8",
">X c #8DA6FF",
",X c #95A6FF",
"<X c #93B7FF",
"1X c #A2B4FF",
"2X c #A9BCFF",
"3X c #86B0C7",
"4X c #DEBEC3",
"5X c #9BCAFF",
"6X c #99C5FF",
"7X c #8EDBFF",
"8X c #A4CEFF",
"9X c #AFCAFF",
"0X c #BDCBFF",
"qX c #B7C7FF",
"wX c #ACDCFF",
"eX c #A6D3FB",
"rX c #B2DDFF",
"tX c #85F3FF",
"yX c #8DF2FF",
"uX c #98F3FF",
"iX c #93E7FB",
"pX c #AFE1FF",
"aX c #A5ECFF",
"sX c #B2E4FF",
"dX c #B7EAFF",
"fX c #A4F3FF",
"gX c #ABF3FF",
"hX c #A5FBFF",
"jX c #B4F3FF",
"kX c #BEF6FF",
"lX c #BCFAFF",
"zX c #B6FCFF",
"xX c #A6DEDB",
"cX c #D7C8D6",
"vX c #DAD9D9",
"bX c #DACFCE",
"nX c #E3DBC8",
"mX c #CCD8EF",
"MX c #C9E8FD",
"NX c #D9E5FF",
"BX c #D5E8FD",
"VX c #C2F4FF",
"CX c #C2FBFF",
"ZX c #C9F7FF",
"AX c #D3EEF5",
"SX c #EBF4FF",
"DX c #EEF8FF",
"FX c #E4F5FF",
"GX c #F2F9FF",
"HX c #F0F7FF",
"JX c #E5EEFF",
"KX c None",
/* pixels */
"KXKXKXKXKXKXKXKXKXKXKXKXKXKXKXKXKXKXKXKXKXKXKXKXKXKXKXKXKXKXKXKXKXKXKXKXKXKXKXKXKXKXKXKXKXKXKXKXKXKXKXKXKXKXKXKXKXKXKXKXKXKXKXKXKXKXKXKXKXKX",
"KXKXKXKXKXKXKXKXKXKXKXKXKXKXKXKXKXKXKXKXKXKXKXKXKXKXKXKXKXKXKXKXKXKXKXKXKXKXKXKXKXKXKXKXKXKXKXKXKXKXKXKXKXKXKXKXKXKXKXKXKXKXKXKXKXKXKXKXKXKX",
"KXKXKXKXKXKXKXKXKXKXKXKXKXKXKXKXKXKXKXKXKXKXKXKX5.7.7.7.7.7.7.7.7.7.7.7.7.7.7.7.7.7.7.7.7.7.KXKXKXKXKXKXKXKXKXKXKXKXKXKXKXKXKXKXKXKXKXKXKXKX",
"KXKXKXKXKXKXKXKXKXKXKXKXKXKXKXKXKXKXKXKXKXKXKX,X2X1X1X1X1X1X1X1X1X1X1X1X1X1X1X1X1X1X1X2X1X1X1XKXKXKXKXKXKXKXKXKXKXKXKXKXKXKXKXKXKXKXKXKXKXKX",
"KXKXKXKXKXKXKXKXKXKXKXKXKXKXKXKXKXKX,X>X>X,X=XNXGXHXGXGXGXGXGXGXGXGXGXGXHXGXGXGXGXGXGXGXGXGXGX1X=X>X=X,X-XKXKXKXKXKXKXKXKXKXKXKXKXKXKXKXKXKX",
"KXKXKXKXKXKXKXKXKXKXKXKXKXKXKXKX-X,XSXSXSXSXSXSXSXSXSXSXSXDXSXSXSXSXDXSXSXDXDXSXSXSXSXSXSXSXSXSXSXSXSXHXmXc.-XKXKXKXKXKXKXKXKXKXKXKXKXKXKXKX",
"KXKXKXKXKXKXKXKXKXKXKXKXKXKXKXqXSXNXSXSXSXSXSXSXSXSXSXSXSXSXSXSXDXSXDXSXSXDXSXSXSXSXSXSXSXSXSXSXSXSXSXSXNXFXNX9.KXKXKXKXKXKXKXKXKXKXKXKXKXKX",
"KXKXKXKXKXKXKXKXKXKXKXKXKXKX<X<X:Xv.,XSXGXHXHXSXHXHXGXGXHXGXGXGXHXDXHXHXHXHXHXHXGXHXGXGXGXGXHXHXHXHXGX0Xc.-X>X8Xx.KXKXKXKXKXKXKXKXKXKXKXKXKX",
"KXKXKXKXKXKXKXKXKXKXKXKXKX>XpXwX6X5X6X>X=X;X;X;X;X-X=X=X=X=X=X=X>X=X=X=X=X=X=X=X=X=X=X=X>X;X;X;X;X;X=X<X5X6X8XpX8Xq.KXKXKXKXKXKXKXKXKXKXKXKX",
"KXKXKXKXKXKXKXKXKXKXKXKX<XrXsXpXsXdXdX5X5X6X5X5X6X9XmX0X0X0XqXmX0X0X0X0XqXmX0X0X0X0X0X0X9X5X5X5X5X5X6XpXdXsXsXpXsX5Xc.KXKXKXKXKXKXKXKXKXKXKX",
"KXKXKXKXKXKXKXKXKXKXKX>XpXsXpXpXpXdXkXCXCXCXCXVXZXDXGXGXHXGXGXGXGXGXGXGXGXGXGXGXGXGXHXHXHXFXZXCXCXCXCXCXkXsXpXpXpXsX6X-XKXKXKXKXKXKXKXKXKXKX",
"KXKXKXKXKXKXKXKXKXKX7.wXsXpXpXpXsXkXkXkXkXkXkXVXFXSXSXSXSXSXSXSXSXSXSXSXSXSXSXSXSXSXSXSXSXFXAXVXkXkXjXkXkXkXwXpXwXpXsXv.KXKXKXKXKXKXKXKXKXKX",
"KXKXKXKXKXKXKXKXKXKX>XeXdXpXsXdXdXCXlXCXlXCXCXFXHXHXHXHXHXHXHXHXHXHXDXHXDXGXSXHXHXHXHXHXDXHXHXZXVXCXlXCXCXVXdXsXsXsXpX<XKXKXKXKXKXKXKXKXKXKX",
"KXKXKXKXKXKXKXKXKXq.5XeX8XeX5XwXsXsXsXsXsXsXpXBXNXNXNXNXNXBXBXBXBXBXBXBXBXBXBXBXBXBXNXNXNXNXNXdXpXsXsXsXrXsXrXeX8X8X8XeXv.KXKXKXKXKXKXKXKXKX",
"KXKXKXKXKXKXKXKXx.! X . . . . . . . . Q ) ) )  . .+.+. ...>.>.>.i.i.i.i.i.i.e.>.;.*. .+... . .` ) ) ) ! . . . . . . . . X 0.KXKXKXKXKXKXKXKX",
"KXKXKXKXKXKXKXKXx.=.%.` Q W | *.O.=.u.t.t.t.y.e.M.G.G.G.G.K.K.G.G.G.G.G.H.G.G.G.G.G.G.G.G.m.i.y.t.t.t.e.:.&.=...Q Q Q O...z.KXKXKXKXKXKXKXKX",
"KXKXKXKXKXKXKXc.4.=. .` ( | &.*.=.t.i.u.u.u.M.m.H.P.P.P.J.J.J.P.!.!.!.!.!.!.Y.J.P.J.J.U.P.P.m.m.p.u.i.p.a.$.X.;.O./ ) | %.:.9.KXKXKXKXKXKXKX",
"KXKXKXKXKXKXc.4.%. .( W | &.%.;.t.i.u.u.M.M.J.J.P.J.K.U.Q.Q.Q.Q.`.'.`.].`.`.!.~.Q.Q.Y.H.H.J.U.P.m.M.d.$.B.5XZ.X.=...^ Q | ..4.8.KXKXKXKXKXKX",
"KXKXKXKXKXKXx.#.+./ / ` O.=.=.t.i.u.u.M.J.P.J.J.H.U.Y.!.].].`.].`.`.`.`.`.`.`.`.'.[.`.Y.Y.J.H.J.P.U.g.B.7XhXaXC.&.*.@.' ~ @.$.z.KXKXKXKXKXKX",
"KXKXKXKXKXKX5.*./ ( ^ %.=.=.t.i.t.i.d.J.J.J.J.U.U.`.[.`.`.`.`.`.`.`.`.`.'.`.`.`.`.`.`.[.'.Y.Y.J.J.J.S.iXuXF.{.kX:.*...` / ~  .4.l.KXKXKXKXKX",
"KXKXKXKXKXz.#.O.) ( ` O.,.t.u.u.u.d.J.J.J.J.P.`.[.`.`.`.`.`.`.`.`.`.`.].^.`.`.`.`.`.`.`.`.`.`.Y.J.J.S.7XyX{.yX7Xt.*.k.} ^ ( +...5.x.KXKXKXKX",
"KXKXKXKXKXz.#./ ( ' O.*.t.u.u.t.d.P.J.P.J.P.`.`.`.`.`.`.`.`.`.`.`.`.{.).'.^.`.`.`.`.`.`.`.`.`.`.Y.J.J.S.E.zXiXr.u.V.aXk._ / ( X.k.c.KXKXKXKX",
"KXKXKXKXKXz.O./ / %.*.%.y.i.t.M.J.J.J.J.J.!.`.`.`.`.`.`.`.'.`.'.^.^.$Xk K xX/.'.`.`.`.`.`.`.`.`.`.Y.J.J.J.U.K.u.V.aX_.aXz.] Q  .4.c.KXKXKXKX",
"KXKXKXKX8.O.` / ( %.*.e.u.u.M.J.J.J.J.P.!.`.`.`.`.].`.'.`.^.^.`.gXI K f 7 L xX(.`.`.].'.`.`.`.`.`.`.Y.H.J.J.J.m.a.n.aXC.*.` ( / ..5.c.KXKXKX",
"KXKXKXKXz...( ' O.*.%.t.t.d.J.P.J.J.P.!.`.`.`.`.`.`.`./.{.fXfXjX$X1 h H k q J xXyXtX^.`.`.`.`.`.`.`.`.U.H.J.L.S.M.a.C.;.#.&.| W  .:.x.KXKXKX",
"KXKXKXKX5.] ( / &.%.:.u.M.J.J.J.J.J.!.].`.`.`.`.'.^.tXuXgXVXVX&XV H d D A d 1 J mXhXuXyX^.`.`.`.`.`.`.`.Y.H.T.iXJ.m.r.e.*.*.| W _ 1.x.KXKXKX",
"KXKXKXKX9.~ )  .%.:.u.u.H.L.S.S.L.Q.`.`.`.`.`.`.^._.gXVXlXdX@XG d F g w e e d 6 J vXVXdXyX`.`.`.`.`.`.`.`.P.T.7XJ.J.p.u.y.=.O.` E o.c.KXKXKX",
"KXKXKXq.1.~ ` =.*.u.i.f.V.j.j.A.j.E.].`.`.`.`.`.{.gXVXkXkX&X1 H e 3 f f 0 g e k 6 U CXkXkXtX`.`.`.`.`.`.].!.H.S.P.H.d.i.i.:.&.+.W o.0.KXKXKX",
"KXKXKX2.E / ` *.>.t.u.S.w.O O O O z E.).).^.`.'.gXkXkXkXvXB j w g q 0 V q d 0 d 7 U MXMXkXkX{.].`.`.`.`.].`.J.J.J.T.J.f.u.:.*. ./ W o.l.KXKX",
"KXKXKX2.E [ %.*.u.i.u.D..X4 p < p a + z ).).`.fXkXkXlXnXZ k K 0 q g d g l = = = = = + z MXVXdX{.^.`.`.`.`.`.!.H.U.aXT.i.u.u.:.&. .W o.l.KXKX",
"KXKXKX2.E ` =.;.u.i.m.J.K.I M D V f , < v z sXZXkXkXjXbXB i g g d % = = : , , < , , , < v v v o E.`.`.`.`.].`.!.J.T.J.J.p.u.:.=.+.E o.x.KXKX",
"KXKXKX2.E ` %.*.t.u.G.P.R.H.I 6 D A f g 5 $ b c mXVXCX&X6 D i l % < , : , > r r t r > , & $ & $ v w.x c 3X^.`.`.J.H.J.P.f.u.:.%.+.E o.x.KXKX",
"KXKXKX2.^ O.=.y.i.g.H.P.J.W.E.I 2 k 3 s S f 7 @ b .X.Xn 4 l : ; : > > t > u y u y y u r t t t > & @ @ # b w.3X/./.J.J.J.G.p.t.:.%.| o.l.KXKX",
"KXKXKX2._ =.=.u.u.J.P.J.H.)./._.#X6 j d A S S k 1 & @ @ ; ; ; > > r u r u u u u u 3 u u r u r , t p p & # # - .X3XH.P.J.P.s.u.e.=...o.l.KXKX",
"KXKXKX2._ =.=.i.d.G.J.J.U.).'.^.^.R 6 h e d d q k p < < : r > > r u u 3 0 u i i 3 i 3 0 u 3 , , r p & oXoX+ < @ O |.J.J.P.M.i.:.=...o.l.KXKX",
"KXKXKX2._ =.=.i.J.P.J.H.!.].`.'.^.).Y 6 f i i i u y = ; > y r , u s u 3 0 q 0 0 0 0 d 0 d > , y r p & @X X  - p < O R.J.J.P.g.;.=...o.x.KXKX",
"KXKXKX2._ =.=.i.J.P.J.J.!.`.`.`.`.'.dXH g A A A S s ; ; * 4 i j q 0 0 s 0 0 0 0 0 0 0 0 0 , , 0 u 3 i +     o > * b R.H.J.J.d.:.=...o.x.KXKX",
"KXKXKX2._ =.*.i.G.J.J.J.!.].`.`.`.}.zXMXh q d e A i , - v j j L S q 0 q 0 0 0 0 0 q q 0 0 r , 3 0 0 0 a o o - a b ).P.J.J.P.d.;.*...o.l.KXKX",
"KXKXKX2._ &.*.i.J.J.J.H.!.`.`.`.].{.kXAXh e A A i < # +XVXvX1 k K S w g q 0 0 0 0 q g q V g r , > 3 w i a & b )._.`.P.H.J.L.d.:.&...o.x.KXKX",
"KXKX-X2.E | =.i.J.P.J.Q.`.`.`.`.{.gXVXm A A A A m # +XMXzXAXC h g P P f e 0 e e q A q A A A g e r , p # #XrX_.`.].`.`.P.J.P.d.:.+.^ o.x.KXKX",
"KXKXKXx.3._ =.u.s.J.J.!.].`.`.^.tXlXMX1 i A S j # #XMXzXMXT F A d 8 8 H P L F 9 e e e V e V G P L j 4 XXMXfX/.'.`.`.`.P.P.M.i.:. .} 5.KXKXKX",
"KXKXKXKX8.' =.u.i.G.J.!.`.`.].`.}.kXXXu d D 1 # #XMXzXAXOXB A f 1 4XcXJ 9 M F P K K K K K K D N 9 H 6 bXlXfX`.`.`.`.`.U.J.s.u.y. .o.x.KXKXKX",
"KXKXKXKX5._ ;.y.i.G.J.!.`.].`.^._.@X4 j D 7 oX#XMXkXMX$XB D e 5 OXVXCX+XXX#XL F K K C F H K w U #XT 9 4XlXfX^.`.`.`.`.P.J.d.t.:.X.<.x.KXKXKX",
"KXKXKXKX8.^ O.*.u.J.H.!.'.`.`.). X1 j 8 8 n MXkXVXkX%XB D A 1 XXVXkXkXlXkXkXcXk d j U Y h 0 6 MXCX&X9 @XVXgX'.`.`.`.`.U.J.s.;.&.{ o.x.KXKXKX",
"KXKXKXKX0./ ` =.u.G.J.`.].`./. X2 J j m n MXkXkXkXjX%XB k 5 U VXkXkXkXkXkXkXVX&XM XXZXAXK S 7 mXlX$XC 5 +XCXgX`.`.`.`.U.J.s.:.| ( <.c.KXKXKX",
"KXKXKXKXKX8.' %.i.G.J.!.].`./.*X# , n MXVXkXkXkXkXlX%XN 1 Y VXkXkXkXkXkXkXdXnXZ 6 XXMXP V D 6 MXlX&XC 6 +XlXgX].`.`.`.P.J.d.;.X.1.c.KXKXKXKX",
"KXKXKXKXKX7._ =.u.G.J.!.`.`./.*X# n MXkXkXkXkXkXVXkX%XM U MXkXkXkXkXkXkXkXkX%XB 5 XXAXG D 7 mXkXVXVX$X9 +XlXfX`.`.`.`.P.J.s.;.{ 3.c.KXKXKXKX",
"KXKXKXKXKX8.W | u.J.J.J.`.'.^.*Xn BXkXkXkXkXkXkXkXkXVXmXMXlXkXkXkXkXkXkXkXnXK S 6 XXVXvX9 vXkXkXkXkXZXmXMXkXgX`.[.`.Y.J.P.s.+.~ 2.c.KXKXKXKX",
"KXKXKXKXKXKX3.) i.s.G.J.!.'./. Xn lXkXkXkXkXlXVXkXkXlXlXlXkXkXkXkXkXCXlXnXK M k 2 Y kXkXvXVXkXkXkXkXkXlXkXkXgX`.`.`.P.H.g.p.@.o.l.KXKXKXKXKX",
"KXKXKXKXKXKXl.^ -.t.H.J.!.'.(.eXcXkXkXkXkXkXkXkXkXkXkXkXkXkXkXkXkXzXlXvXL M D 6 U cXVXkXjXkXkXlXkXVXkXkXkXjXtX`.`.`.P.P.s.;.Q 5.KXKXKXKXKXKX",
"KXKXKXKXKXKXc.<.( t.M.H.!.`.`.}.hXkXkXkXkXkXkXkXkXlXkXkXVXkXkXkXVXvXvXP M S D 2 @XzXkXkXkXkXkXVXkXkXkXkXVXfX/.`.`.`.P.M.d.{ } 0.KXKXKXKXKXKX",
"KXKXKXKXKXKXKX9.) t.u.m.~.`.`.^._.kXkXkXVXkXkXkXkXkXkXVXlXkXkXkXVX$XZ M A S 6 h cXlXkXkXkXkXkXkXkXkXkXkXVXgX^.`.`.!.J.i.i.{ 5.KXKXKXKXKXKXKX",
"KXKXKXKXKXKXKXl.} e.u.K.J.Q.[.`.tXkXkXkXkXkXkXVXkXVXVXlXkXkXkXkXlXkXOXJ D S e cXlXkXkXkXkXkXkXkXkXkXkXlXVXfX^.'.`.J.J.s.t.} 6.KXKXKXKXKXKXKX",
"KXKXKXKXKXKXKXKXx.) e.G.J.Q.].^._.jXkXkXlXkXkXkXlXkXkXkXkXkXkXlXkXkXVXCXOX2 bXkXkXkXkXkXkXkXVXlXlXkXkXkXkXuX^.`.`.P.H.p.{ 5.KXKXKXKXKXKXKXKX",
"KXKXKXKXKXKXKXKXx.) e.i.m.!.`.`.`.{.kXkXVXkXkXkXkXVXkXkXVXkXkXVXkXkXlXkXR 2 cXlXkXkXVXkXVXlXkXlXkXkXkXVXuX^.`.`.`.J.i.i.{ 8.KXKXKXKXKXKXKXKX",
"KXKXKXKXKXKXKXKXKX0.@.:.G.U.!.[.^.{.kXkXkXkXkXkXkXkXlXkXkXlXkXkXkXkXkXkXAXh 4XlXkXkXkXkXkXkXkXVXVXkXkXkXuX^.`.`.U.J.i.-.1.KXKXKXKXKXKXKXKXKX",
"KXKXKXKXKXKXKXKXKXc./ :.d.m.Q.[.^.}.kXkXkXkXkXkXkXkXVXkXkXkXkXkXkXkXkXkXlXmXmXlXVXkXkXkXkXkXkXkXkXkXkXVXuX^.'.`.K.d.i.^ z.KXKXKXKXKXKXKXKXKX",
"KXKXKXKXKXKXKXKXKXKX6.-.:.M.P.`.`.'.uXkXVXkXkXkXkXkXlXkXkXkXCXkXkXkXkXkXkXlXlXkXkXkXkXkXVXlXkXkXkXkXVXgX{.`.`.Y.J.u.,.1.0.KXKXKXKXKXKXKXKXKX",
"KXKXKXKXKXKXKXKXKXKXKX6.:.G.J.U.!.].!.aXkXkXkXkXVXlXkXkXkXkXkXkXkXkXkXkXkXkXVXkXkXkXkXkXkXkXlXkXkXVXgX_.^.`.~.J.H.a.o.c.KXKXKXKXKXKXKXKXKXKX",
"KXKXKXKXKXKXKXKXKXKXKX-Xk.g.P.J.P.`.`.`.fXkXkXkXkXkXlXVXkXkXkXkXkXlXkXkXlXkXkXkXkXkXkXkXkXkXkXkXVXgX{.`.`.Q.J.J.J.k.b.KXKXKXKXKXKXKXKXKXKXKX",
"KXKXKXKXKXKXKXKXKXKXKXKXc.n.J.P.J.P.`.`.`.fXkXkXkXkXkXkXkXkXkXkXkXkXkXkXVXkXkXkXkXkXkXkXkXlXkXVXjX{.`.`.~.H.J.J.K.x.KXKXKXKXKXKXKXKXKXKXKXKX",
"KXKXKXKXKXKXKXKXKXKXKXKXKXc.B.J.J.J.U.`.`.`.gXkXkXkXkXkXkXkXkXVXkXkXkXkXkXkXVXlXkXVXkXkXkXVXjXjX}.`.[.Y.J.P.P.K.z.KXKXKXKXKXKXKXKXKXKXKXKXKX",
"KXKXKXKXKXKXKXKXKXKXKXKXKXKXc.B.H.J.J.P.`.`.'.'.fXkXkXkXkXkXkXkXkXkXkXkXkXkXkXkXkXkXkXkXkXjX_.'.`.'.~.J.H.L.K.b.KXKXKXKXKXKXKXKXKXKXKXKXKXKX",
"KXKXKXKXKXKXKXKXKXKXKXKXKXKXKXv.C.n.L.J.U.U.P.!.{.}.{.uXVXkXkXkXkXkXkXkXkXkXkXkXkXVXgX}.}.}.].Y.U.Y.P.L.N.b.b.KXKXKXKXKXKXKXKXKXKXKXKXKXKXKX",
"KXKXKXKXKXKXKXKXKXKXKXKXKXKXKXKXKXKXC.n.H.L.L.Y.Y.I.I.).tXtXtXtXtXtXtXtXtXtXtXtXtXtX}.I.I.I.~.P.L.L.N.C.b.KXKXKXKXKXKXKXKXKXKXKXKXKXKXKXKXKX",
"KXKXKXKXKXKXKXKXKXKXKXKXKXKXKXKXKXKXKXv.C.C.B.G.L.P.H.I.W.W.W.W.W.W.W.W.W.W.W.W.W.W.W.H.J.L.J.B.B.B.v.KXKXKXKXKXKXKXKXKXKXKXKXKXKXKXKXKXKXKX",
"KXKXKXKXKXKXKXKXKXKXKXKXKXKXKXKXKXKXKXKX:Xq.c.n.B.B.B.B.N.N.B.B.N.N.N.B.B.N.N.N.N.N.B.N.B.N.B.z.q.q.KXKXKXKXKXKXKXKXKXKXKXKXKXKXKXKXKXKXKXKX",
"KXKXKXKXKXKXKXKXKXKXKXKXKXKXKXKXKXKXKXKXKXKXKXq.9.9.9.9.9.9.9.9.9.9.9.9.9.9.9.9.9.9.9.9.9.9.x.KXKXKXKXKXKXKXKXKXKXKXKXKXKXKXKXKXKXKXKXKXKXKX",
"KXKXKXKXKXKXKXKXKXKXKXKXKXKXKXKXKXKXKXKXKXKXKXKXKXKXKXKXKXKXKXKXKXKXKXKXKXKXKXKXKXKXKXKXKXKXKXKXKXKXKXKXKXKXKXKXKXKXKXKXKXKXKXKXKXKXKXKXKXKX",
"KXKXKXKXKXKXKXKXKXKXKXKXKXKXKXKXKXKXKXKXKXKXKXKXKXKXKXKXKXKXKXKXKXKXKXKXKXKXKXKXKXKXKXKXKXKXKXKXKXKXKXKXKXKXKXKXKXKXKXKXKXKXKXKXKXKXKXKXKXKX"
};
