/* XPM */
static char *_493_6a8048c6617011ae7b32f50b9c21e5c626ec3fc4d7b0f623ba256bd7335e349c[] = {
/* columns rows colors chars-per-pixel */
"80 80 52 1 ",
"  c #BC9E94",
". c #BEA196",
"X c #BFA398",
"o c #C4A49B",
"O c #CBA69E",
"+ c #C6A99E",
"@ c #CAA89F",
"# c #CCA6A1",
"$ c #C5ABA2",
"% c #CDAAA2",
"& c #D2ADA5",
"* c #D2AFA9",
"= c #CEB0A6",
"- c #CEB3AA",
"; c #CFB9AE",
": c #D3B1A7",
"> c #D5B4AB",
", c #D9B6AD",
"< c #D5B9AF",
"1 c #DAB8AF",
"2 c #D4B7B1",
"3 c #DAB6B0",
"4 c #D6BAB1",
"5 c #DCBBB2",
"6 c #DDBEB9",
"7 c #E1BEB5",
"8 c #E1BFB8",
"9 c #DCC1B7",
"0 c #DEC2BA",
"q c #DFC9BE",
"w c #E2C0B7",
"e c #E3C5BC",
"r c #E9C7BE",
"t c #E6C9BF",
"y c #EAC8BF",
"u c #E2C7C0",
"i c #E5CAC2",
"p c #E9CCC2",
"a c #EACFC8",
"s c #E6D0C5",
"d c #EAD0C6",
"f c #E7D0C8",
"g c #ECD2CA",
"h c #EFD9CE",
"j c #F1D5CD",
"k c #F3D8CF",
"l c #EFD8D0",
"z c #F2D7D0",
"x c #F5DBD3",
"c c #F8DDD4",
"v c #F8DFD8",
"b c #FBE3DB",
/* pixels */
"57777777rrrrrryydyyytttdyyydyydyddyystshbbbbbbbbbbbbvvvbbvvvvbbvxxxxxcxccxxxzzkh",
"111,>>,,:>*>,>>,,--->-:>-:==$@@@@=%@=$$$ssffffsfqsffu0uufuquuuuqtqtqqeeqt0009699",
"111,>>*>11111111,,,,<<>-999<<>>>>119<-;=gglfhfffgafffffuffuuufuuiuuqeqtutet00t0q",
"5555111,717777571<11919<=::=:->::>1,<;-$llllfffhfgaaggfifufuuquuppittttq0qqt0qtt",
"1575111715177111,,,,,,,,><1,19991555<<;;ffllffai0uqqufiuuuuqqq6qiuttqt0t00900qe0",
">13115117777777555557,,,>:>>>:,,11<<;=--llllzafauuuufggifffuuquuppiutiupuututuiu",
">17571571577751111,,,,,,99111111555542<;agazzaa6uufuiafiuuuuq66quret0teut6w09000",
">117711177ww7775775,,,7,>>>>>>>>31554<<;gaglxlauquiuufgpuffuuquuuuueuuuutqt00teu",
">111171777777757733,7,7,,:,,,,,,3575522;gsagzau8tttpsdttiutiaaitiiiieeeeqwqwqw9w",
">111717177ww75173737,7,7,,,,,,,,555552<<fdafaapuipsdtsttfueuipiqiiieiutetwq9w9w9",
"11171171577w7757,,,,,,,,,,,7,,,7,3775222fgfiaaaysddytqttiuuuupitppptpurrttttqqq9",
"1151555157ww77117,7,7,,,,,,17,,777775222gggaaazjpddsttttiiueeiiippppiruitttttwwq",
"1355715117ww7715,,,73,,,,,,7,,,77777773-dpfggaajggppttthttqeetypdydptyyttttqtqww",
"5153117777ww75177,,,77,,,,,17,777777733,gppzzapjjddytthtttteettpdyyyytttwtttttwt",
"153557757w7777777,33,77,7,171,177777733,kggjxzjjjsyyyhtttteeqttsystttttterttttty",
"511,157w777771757,7733,7,,,7711w7777733,jggpgzzpjsttttttqteeetttsttthtttttttyyts",
",,11177777w7751171,,77,,,5w55ww1w7w7499;aaaaaaaayydyttytteeeeeetttyttytdyysyysyy",
",,1117557777771,51,5551,,1w577w775w9494;zjjaayputtyttttteeeeetttttsysyyysyystttt",
",,,117577777517755,1755,,7w77w51w500499-agjaaraatetttytreeewettttyyyydyssyyyyytt",
",,,,111175757511115,,115,5ww1771ww99494-aajaaipaeettyttteeettettsydddyyyystttttt",
">11,11717577755,5111115,7ww5,7w7w7w0464-faggppuattttttrtetttttttttyydddtyttttttt",
"1111111755575755,,75,5151w7,,7w7w7ww499;ggaaaau8ttttttetttwwetttysydydytyttttttt",
"1117115777577,55,5515,57,wwwwww7w7e9599;fiifppuettttttteetwtttrytyyyyytytttttttw",
"17151715,775755,,575,,1,,1wwwww,wwwe6992uquuagputettrrettertttttttstttttttttrwtt",
"151115577755755557,15,1,7,577777wwe9599;issuaaa8eettrttetteeettyttttwttqtttttrtt",
"3111155535555515,5511,5117577777wwww599;dgpuupaitetttteeeetttttyttttttwttttttrtt",
"11111135,,55755,,5,5171515777wwww7w9499;fgft0uputtydttrrwettyttttwttwtqtwrtttttt",
",,>1,151,,5555,,,,,111717557w777w7w9456;dfai0uuuttydytqreetyttttttwtttwwttttrttt",
">>>,1111,,,5555,,1,17517,1577777www9490;sggftqtttttytttrtqtrttqwtqwtttwqwttttttt",
">>,,,>,,,,,55,,,,,,,51751717755775w9596;dgkghhttttyyttrqtrrqwwwqwttwtwtttwwtwttt",
">>,>,1>>,,5155,1,,5555577575771175w9294;gdgjhdytttttrwwrrwqwwqwwwwqtwtwttttttttt",
"*:>,,>,>,55,,,,,5,,5,55177777577www5464;ddpdjdttttr9wqwqw9wwwwwqqwwtwttwttwtttwt",
",,*,>,>1,,11,,,9111111111119759988555442pgjjperp8rr8888777778wwewwwwwtwtttwttttw",
"&:::&,:>,,,,,,::11<1<1119177777988655664dggdpppp88r8887757787wwwtwttttttwwwwtwwt",
":::&*&:=,,,1,,::1<<<<1<91919<99578556942gdssappiew7888668e888eewwq9tttttwttwttqq",
":::&&*:=,,,1119><<<<119<1199115<55634942paaipiir887888e88we888eeww9tww9wqwqtwttw",
">***::>>:,,,9:>:<<1<9<995<995<<95555594;sssitqta65666666666686689999t9t9w99w9qqw",
"&**:>:>,,::,::>9<<<<<<<959<9595<66646994issiutip886066668060u8869w9twt99wqw9wqwq",
"==:&====:<:,:9:;;<<;<<<<<<9<<<<<5642444;ssqqtuuuu0u0666666u066u6999w99wwqqqqqqww",
"===%+======:9::=::;:::;:;<<;<:;:552;;;;;iq99qtu966646222264444429<<9199911111919",
"..... . o       XXXXXXXX.o.ooo++#o$$$$$$94;;4455<9;9=9:;22244442:1111111wwwwrrrr",
"::>:====@:::=+==:::;;;::,,,,119155325699ffqqiuuute99qwqq600uuuuurryyrrttsytddddy",
"%%%+%@+@@:&&==%%:+::=:::&&&,,:113332222294;2<--*======::-*--==**:::::::::+:+:+:O",
"=%%$%%+@O&&::%:::=::==::&&&&::::*3**>2>-q9446542<<:9:911643>2,44111111:111:111,1",
"::&&=%:=&&:&::::::,:::<:&&,&,,,,5333333262232,>3::->,,:1:::::::>1:1:1::111::,:,:",
"%%@O@@@@OO&%OO&:::OO++@:&O&&&,&&*,*,3***t06e523311,91111999,><,1:::1:11:::::,:::",
"&&&&##@&:::::::::&O:::::&&&,&,,&3333333366555>,*::,,,,:::::::::>1::117111:111,1:",
"%%%%###@OO&O&&&O&&:OO@@@&&&&&&&,****3***556773379,,951w,,,,,,,,1::::111:7111,1::",
"OOOOOOOOOO&&O&O&O&OO&OO&&&&&&&,&&:**,>>-9999191<:,,,,,,,9,:,,,>::1,1,:1:11111,:,",
"O%%OOOOOO##&&OO&&O&&&&&&&&&&&&&&&:&,>>:=991<111,,,,w,w1,,,9>,:,,:1:11111111:,:,:",
"OOOOOOOoOO#O&OO&&&O&&&&&&&&&&&&&&,*:>>>=911911,,,,,w,,91,,,,,>,,1::,,111111:,,,,",
"OOOOOOOOO&&OOOOOO&O&O&&O&&&&&&&&&&*:>::=999151,,,,,,w,,1,,:,>,:9::1,,:1:::1:,:,1",
"OOOOOOOOOOOOOOOOOOOOO&&O&&&&&&&&&&&,:<:=111111,-,,,,9,,,,:,>,,,9:1,,1111:1:,:1,:",
"OOOOOOOOOOOOOOOOOOOOOOO&&&&&&&O&&&&&:,:=w99<11,,,::9,,,,>,:>:,:,:,,,1:1,:11::,1:",
"OOOOOOOO&OOOOOOOOOOOO&O&OO&OO&&&&&&,:::=9919,11->,,,1,,:,>:,>,,,:::1:1,,111,1:11",
"OOOOoOOOOOOOOOOOOOOO&O&&&&&&&&O&&&&&:::%991<911,9:9,w,,9,>,>>>,:1:,1:1,,1111,,,:",
"OOOOOOOO&OOOO&OOOOOOOOOOOO&#&##&&&&&&&&&911111,,1,11,1,,>>><,,>,,:1,1,1,,,,11111",
"OOOOOOOOOOOOOOOOOOOOOOO&#&##&&&#&&&&&&&&9<<991,,,1,111,>,>>,:>,,,:11,1:,,,1,1111",
"OOOOOOOOOOO&OOOOOOOOOOOO&O#&&&&&&&&,,&&&9><<1<,11,,1,11>:>,::,,,,,,1111,,1,11111",
"&O&OOOO&O&OOOOOOOOO&O&&O&&&&&&,&&&&&&&,&1<-<,>,,,<,11,,,,>:,,:,<1:,11:1,1,111111",
"O&OOOO&OO&&#OOOOOOOOOO&OOO&&&,&&&&**&&&:<,<,,,,,,1,11,,>>:>>>>,,:111,,,,,11,1111",
"OO&O&OOOOOOO&O&OOOOO&&OO&&&&&,&&,:,>&,::1<-<,><,1,11,1,>>,,>>,<,1,:1,,,,1,,11111",
"OOOOOOOO#&O&&OOO&OOOO&O&O&&&&&&&&,::::&:9,><,<,,1,,1,,,>>,,:>,,,1:1,,,,,,,1,111,",
"#OOOOO&OOO&OO&OOOOOO&O&O&O&&&&,&,&>>>:==9<<<<>,<,1,11,,,:,,>>,>::1,1,,,,111,11,,",
"&OO&OOOO@@%@@@@@%@%%####&#******3**>***-64444453113,,,**,&,&,,,,&3333333,,,,,,,:",
"OOOOOOOO@@@:@@@@@OO&##&&#***2*--****-2--64664225,,3,,,,,&&,,,&,,33&33333,,,,,,,,",
"OOOOO&OO@%:%@%@@OOOO#&&#**#*-2*2****----09644443,,,,,,,,,,,,,&,,&333333&,,,,,,:,",
"O&OOOOO&@@@%@@:@OOO&&#&&#*******3**2*---000454431,,7,,,,,,&,,,,&33333333,,,,::,:",
"@@@@OOO&@:%@%%@@&&#&&##&#*****2***2*----009;4442,,,3,,,&,,&,,,,,3&3,33,,,,,,,1,1",
"@@@@&OOO@@@:%@@:&&&&&&&&%***2**2*>***---0099444233,,,&,,&,,,,,,,33333,,,,,,,,:,:",
"@@@@O&OO@@@@@@@@&&&&#&##==**2*3****2----99944224,333,,,,&,&,,,,33333,,,,:,,,:,,,",
"@:@OOOOO@@@:@@@@OOOO##&##**2*>2*>****---999;4422,33,,,,&,&,,,3113333,,,,,,,,:,,:",
"@@@@@@@O@@O%@@@@*#####*##=*****-****--#-q4492-2>,3,,,>>:,>>>>>113,33,,,,>*,,::::",
"O@@@@@@o@@@@OO%@#######=#**22-2***>*2*--u4092>52,,,,:,**::,:>>,1,,&3,,>>,,,,1111",
"OO@@@@O+@@%@OOoO#########******=***--==-0499<:21,,,&::**>::,>1113333,,,>:,:,1:1:",
"@O:@OOOO@@@@OOoo#####*##*#-#**=*****----04452-22,,,,:,:*,,>,,1153333,,3,,,,:::::",
"@@+++O+O@@@+oooo####*#**-****2****>3>-*-04992*42,,,&,&*>>>,,>,4<33333333,,,,:<11",
"+@@@ooOo@@@@@ooo###########*$##-*#**--$-9;;4--22,&,,:,>>:*:::<,,333333**>>::::::",
"OO@@OOOo%@@@OO@+####*#####*#-#-#**->>--$4;;2--**,,,,,>>>>>>>,,,<33333,,,>,:,<:::",
"%%%%@@:O%::@%%@@##*******2**=-2*>*3322;;04492*62,,3,,,,,,,,,,4553333333391911151"
};
