/* XPM */
static char *c64605b49d6b48ccb948e7060c3d0e83su2sM3rdFg9QRJLH[] = {
/* columns rows colors chars-per-pixel */
"80 80 207 2 ",
"   c #3C3C18",
".  c #3D3A2A",
"X  c #423C2D",
"o  c #453E32",
"O  c #454715",
"+  c #444524",
"@  c #4A4A27",
"#  c #45442A",
"$  c #4B462D",
"%  c #4C4B2D",
"&  c #454B25",
"*  c #504D2E",
"=  c #4F522C",
"-  c #53542C",
";  c #55592D",
":  c #545624",
">  c #464233",
",  c #494534",
"<  c #4C4A34",
"1  c #4B453A",
"2  c #4E4B3C",
"3  c #524D36",
"4  c #524D3C",
"5  c #555235",
"6  c #595435",
"7  c #5D5C37",
"8  c #55523C",
"9  c #59553D",
"0  c #5C5A3D",
"q  c #565937",
"w  c #615D3D",
"e  c #63623E",
"r  c #534D42",
"t  c #565143",
"y  c #5A5444",
"u  c #5D5A44",
"i  c #5B564A",
"p  c #5E5B4B",
"a  c #545148",
"s  c #5C5852",
"d  c #625D45",
"f  c #625C4C",
"g  c #635D52",
"h  c #685F58",
"j  c #635E58",
"k  c #5E6141",
"l  c #636243",
"z  c #6B6A47",
"x  c #65624C",
"c  c #6A654D",
"v  c #6D6A4D",
"b  c #6B6744",
"n  c #756C4F",
"m  c #656253",
"M  c #6A6554",
"N  c #666850",
"B  c #6D6A55",
"V  c #67635A",
"C  c #6B655A",
"Z  c #6D6A5C",
"A  c #716C54",
"S  c #71675E",
"D  c #726C5C",
"F  c #6F7050",
"G  c #6F715B",
"H  c #737155",
"J  c #7B7656",
"K  c #74715C",
"L  c #7A745E",
"P  c #7B7A5C",
"I  c #7D7954",
"U  c #6B6560",
"Y  c #6E6B62",
"T  c #736D62",
"R  c #796F64",
"E  c #736E69",
"W  c #757263",
"Q  c #7A7464",
"!  c #7C7A64",
"~  c #76736A",
"^  c #7B756A",
"/  c #777868",
"(  c #7D7A6C",
")  c #777963",
"_  c #7E7C72",
"`  c #7C7771",
"'  c #807D5F",
"]  c #817660",
"[  c #817C65",
"{  c #80776C",
"}  c #827D6C",
"|  c #8D7E6E",
" . c #807772",
".. c #837D73",
"X. c #897D73",
"o. c #837F79",
"O. c #838166",
"+. c #898665",
"@. c #85816C",
"#. c #8A836D",
"$. c #878868",
"%. c #8A886D",
"&. c #918E6F",
"*. c #858274",
"=. c #8A8474",
"-. c #8C8A74",
";. c #86837A",
":. c #8B857A",
">. c #868978",
",. c #8D8A7C",
"<. c #928C76",
"1. c #91877E",
"2. c #928B7D",
"3. c #9A8E7E",
"4. c #93917D",
"5. c #9A917F",
"6. c #8C8681",
"7. c #8E8B82",
"8. c #888685",
"9. c #938D83",
"0. c #9A8F84",
"q. c #938E89",
"w. c #959284",
"e. c #9A9385",
"r. c #979886",
"t. c #9C9A85",
"y. c #96938A",
"u. c #9B958B",
"i. c #9D9A8D",
"p. c #998E94",
"a. c #959591",
"s. c #9B9692",
"d. c #9D9A93",
"f. c #9A9699",
"g. c #9E9D9A",
"h. c #A19384",
"j. c #A19A87",
"k. c #A2968D",
"l. c #A29B8D",
"z. c #A99D8F",
"x. c #A09790",
"c. c #A39D93",
"v. c #A89E94",
"b. c #A39D9A",
"n. c #A99F99",
"m. c #9FA09B",
"M. c #A5A38E",
"N. c #A9A28E",
"B. c #A5A195",
"V. c #AAA395",
"C. c #ACAA96",
"Z. c #A5A29B",
"A. c #ABA59C",
"S. c #A7A99E",
"D. c #ADA99D",
"F. c #B1A697",
"G. c #B2A996",
"H. c #B1A69C",
"J. c #B2AA9D",
"K. c #AEB09A",
"L. c #B4B09D",
"P. c #B9B09F",
"I. c #B4B097",
"U. c #A49EA2",
"Y. c #A6A4A2",
"T. c #ABA6A2",
"R. c #A7A8A0",
"E. c #ADAAA3",
"W. c #AEABAA",
"Q. c #ACA6A8",
"!. c #B0A7A2",
"~. c #B3ACA3",
"^. c #B8AFA4",
"/. c #B2A7AA",
"(. c #B3AEAA",
"). c #B8AFA8",
"_. c #B8AFAA",
"`. c #AFB1A6",
"'. c #AFB0AA",
"]. c #B5B1A5",
"[. c #B9B1A6",
"{. c #B9B2A5",
"}. c #B6B0AA",
"|. c #B6B2AD",
" X c #B5B2AB",
".X c #BAB2AA",
"XX c #BAB4AE",
"oX c #BBB4AB",
"OX c #BDB8AD",
"+X c #B2AEB0",
"@X c #B8AFB0",
"#X c #B6B3B1",
"$X c #BAB5B2",
"%X c #BDBAB2",
"&X c #B9B8B8",
"*X c #C0B7AD",
"=X c #C1BAAE",
"-X c #C1BAAD",
";X c #C1B7B1",
":X c #C1B9B1",
">X c #C2BCB3",
",X c #C2BCB8",
"<X c #C6C1B2",
"1X c #C9C2B6",
"2X c #C6C2B9",
"3X c #CCC5BB",
"4X c #C5C1C0",
/* pixels */
"f e.u.c.u.0.,.> ( :.X.D D ^ i 4 B [ -.X.S c c e.u.e.:.:.D Q k.i.B.E.~.H.,.t ( ~.~.~.~.(.~.c.g w.J.~.c.e.A.).m Q ~.v.c.k.z.3.y [ Y.d.i.7.q.9.r 3 0.u.c.u.} R R 4 ",
"c.A.A.s.c.~.).m b.=XoX.XOX=Xc.{ OXF.~.T.!.c...A.v.V.A.[.z.^ oX.X[.~.(.).[.Q ,.XX~.}.E.|.T.>X^ 0.A.u.0.b.A.A.*.{ P.J.~.~.^.{.D t.|.E.E.].S.OXB x >X).).)..X[.[.g ",
"b.u.s.b.n.A.H.C A.).).).)..Xb.:.V.F.V.A.).2.D V.c.b.c.V.c...J.c.~.).(.A.=XD e.~.E.).E.E.(.}.E u.A.c.A.b.b.~.1...F.v.k.~.H.^.W 4.(.T.Q.b.d.(.C R .X~.J.~.~.~.).i ",
"n.A.A.A..X~.J.R ~..X.XoX)..Xe.R A.!.A.H.~.e.m v.c.v.v.~.A.=.).)..XXX.X.X[.D i.%X.XXX}.|.~.>X^ 1.).n.~.A.~.1X:.X.=X^.*X~.^.{.x 4.].~. X XZ.$X~ ^ >X).[..X).).oXg ",
"^ ~ { ^ 9.e.9.f u.).~.~.).>Xu.i b.c.k.z.l.u.C D e.A.A.A.w.M e.0...:.:.^ C p M :.9.,.u.w.y.e.y m 1.,.0...^ 1.C 4 ^ =.=.e.5.2.3 # y @.>.*.} *.< 9 =.w.2.:.k.c.:.1 ",
":...*.D > C R W =...^ C C Z g r d Z y $ 5 B f y D ..Q D i D 1.=.^ ..W 1 Z ,...^ T Z ,.m a ..*.} X.:.9.C a *.9.*.^ ( ~ m X @.4.%.( ,.w.( < N ( ( } *.=.*.1 W 9.,.",
"}.XX>XA.m oXoXoX.X).oX^ *.c.Z.A.c.T.b.x } s.9.e.e.u.u.u.*.^.~.).~.oX[./ d.Z.A.D.A.E.}.y.^ OX[.oX.X[.%Xc._ W.S.S.Q. X|.9.g ~.J.].}.oX}.|.g B.2X>X:X:XOX3XT i.E.~.",
"Z.E.|.Z.V ).[.~.).).oX( c.|.$XE.~. X}.Z e.s.u.u.e.=.=.9...A.V.~.~.A..X_ y.Z.d.A.T.R.E.7.~ }.Z.A.~.~.~.d.Y E.m.g.d.Y.R.y.U T.~.E.~.D.E.oXp i.OX}.}.%XXXXXY 9.Z.Z.",
"s.~.}.c.^ oX~.)..X~.{.m 9..XW.(.Q.T.|.K 4.s.u.u.u.9.w.e.D k.k.A.~.!.OX^ y.b.Z.B.Y.E.W.;.U }.~.D.~.~.XXy.Y  XY.m.Z.Y.E.a.V [.~.E.E.~.~.2XZ u.,X}.{.oX[.%XM ,.A.:.",
"c.}.oXi.m A.:X=XXXoX<XT d.$XE.E.D.V.Z.8 K d.e.e.i.c.~.V.D A.).).{.~.<X! 4.S.R.Z.b.T.%Xy.a [.oX[.].~.OX_ Y R.R.R.W.Z.A.;.m }.E.D.~.D.D.D.p w.OXOX%X,X%X%X~ ;. Xb.",
"C m M f 4 D :...w.t.@.< u K ( Z x x M c B *.} D N D K x f [ } } 4.=.=.l H ,.7.~ ( ,.9.^ . i D ! W Z M p 2 T Y Z C Z C C i ^ *.Z f M M M t Z =.W K ~ *.( p p ;.( ",
"2 ^ u.2.e.w.,.g > T :.*.y.D.A.~.,.m (.[.T.Y.Z.#XZ ..u.7.w.9.u.s.u N ! -.4.,.;.` a *.....^ D =.2.( p e.Z.V.d.i.B.M } A.~.A.b.~.V.4 M u.c.~.D.~.A.Y C Z.Z.d.i.S.s.",
"Y b.>XOX=XOXoX>X^ q.,X$X}.~.~.|.4.p ~.T.|.W.(.(._ y.Z.Z.Z.A.E.T.l 4.2X].XX%X%X X^ A.A.A.~.~.A.~.i.Z [.E.].B.~.=XD Q >X.X).OX.X=X*.1.OX%XA.Z.(.>X7.^ #XW.W. X|.W.",
"i 0.~.A.~..X).OX*.y.E.T.~.D.D.XXw.x ~.E.T.(.E.(.( 9.c.d.d.c.A.A.q 4.$XW. XW.W.S.Q u.c.c.b.c.e.J.9.~ A.~.E.S.B.[.D D ).)..X).)..X^ :.(.(.T.b.(.#X*.;. XR.W.R.S.W.",
"m u..X~.%XOXOX>X9.0.%X#X X%X~.|.s.C Z.Q.#X(.[.#X( ..T.T.T.Z.).Z.l B.$X$X|.|.$X X..D.~.A.A.c.b.A.2.Z ].].].].B.OXQ W [.OXOX.XoX1X} :.,X(.|.}.~.%X_ y.|.Q.#X#X X$X",
"r :.9.0.c.d.0.c.A D :./ *.@.( Z m q u u B x v W $ M *...2.=.=.2.q / y.w.w.w.7.7.Z ..*.....9.u.9.Q 8 e.B.V.i.u.u.p t ( } } *.,.,.x m ,.w.y.i.d.c.p V 7.;.*.,.;.~ ",
"..C ~ ^ a m ..;.( ..;.;.Z y <.| <.e.5.| #.l d y.u.,.:.*.K l v K H A ! D N y =.=.,.;.9.:.,.C u D N p Z } C 1 ~ ( ( / ..~ W t C ^ 9.2.( _ ,.d B ..m ^ } D r 1 ^ Y ",
"A.).}.}.p ;.(.(. X|.(.$X9.Q j.h.k.k.k.k.^.-.Q Y.A.(.S.d.i.W i.~.J.D.A.).A.Z A.Z.S.R.Z.E.~.:...].D.].D. Xi.i Z.W.E. XE.E. X:.:.E.}.XX%X$X,X@.{ .XJ..X~.~.0.T ~.|.",
"T.T.A.~.( ;.#XY.Y.Y.Y.|.:.Q l.h.h.3.e.h.G.#.Q E.D.B.c.A.D.W w.A.B.D.B.c.V.Q D.E.Z.d.b.d.c...:.E.~.A.B.E.S.s Z.R.A.Z.E.Z.S.^ 9.oX}.~.~.(.oXO.#.c.u.v.c.k.,.C A.Z.",
"~.~.A.A.*._ |.Y.g.Y.Q. Xi.Q e.h.0.h.k.0.H.h.9.).R.Z.T.E.R...y.B.E.b.E.D.A.Z c.Q.Y.d.b.Z.V.:.;.T.Z.d.A.E.A.T S.S.Z.Y.b.Z.E.~ _ %X(.(.(.+X$X*.=.Z.k.c.c.J.0.R .XT.",
"c.c.c.u.Y _ |.W.R.S. X(.w.B e.h.l.h.5.0.V.=.W b.y.i.Z.A.c.g } V.b.~.A.V.C.m u.Z.E.Z.A.D.OX} W Z.A.E.B.A.c.Y B.S.Z.A.b.Z. X~ ^ [.XX XXX#X:XL u i.A.A.:.c.u.C e.~.",
"C Z W T V m ( E ( ^ / g y y Q Q L H A D Q K M } ( m p f f 4 9 b d c y x K y K D Z m Z ( x 4 y C Z ( R ^ ..V ( ( W ( ^ ,.W k x ~ B x B K H +   5 Z i 1 y i f D Z ",
"m 9.c.b.c.d.s.s.=., R c.A.c.c.c.A.=.*.b.T.D.A.Z.Z.^ ..k.0.u.9.e.j.i R Z.i.d.d.y.,.C w.w.} =.V.u.Y :.A.c.D.A.c.w.Z y.b.Q.d.d.Z.d.W w.i.d.7.-.t.:.1 ^ c.i.u.D.Z.c.",
"Q i.b.b.Z.Z.T.).l.g c.A.A..X.X).%X1.*.~.T.A.D.T.b.=.=.V.H.n.V.c.G.D i.~.E.E.D.).E.~ T.A.oX{.~.OX9.:..X!.A.u.c.B.^ Z.R.W.W.].].S.V Z.|.+X#X X].#XC y.i.Z.A.A.~.E.",
"*.y.c.Z.c.b.T.E.w...~.0.c.).~.~.OX{ 6.#XE.~.(.~.~.1.9.v.V.V.V.v.N.D 2.B.Z.E.Z.A.Z.^ A.z.i.A.~.].e.*.D.~.A.b.b.Z.W S.E.E.S.E.A.Z.p u.W.W.R. XW.W.T ,.D.~.~.).~.~.",
"C 7.Z.Z.b.s.b.~.,.p J.c.).oX)..X).m T s.u.c.y.u.c.^ 1.A.v.V.c.V.l.B u.A.Z.A.A.~.A.T y.A.V.A.).[.w.*..XB.A.A.D.c.s S.(.#X#X#X(.T.p B.|.|. XE.].].p ^ u.k.b.i.l.e.",
"B D D m Q ( ( } T a W C g g C ^ B 4 2 8 @ % f N Z K K d A d c A 5 % c } B K } ! D > y O.O.( } Q x W x y 9 x c f y ^ *.T W :.,.*.X ;.w.*._ / W ^ m g r i y D W D ",
"{.~.B.W ^ E.A.Z.A.E.A.p g 1.c.c.J.[.T.J.z P D.].D.V.].2.B 2.e.e.} 2.2.! m w.9.,.2.9.9.=.f ( y.y.i.i.Z.W M B.i.A.A.H.A.m T y.y.i.u.i.u.*.W A.D.A.~.~.~.2.W ].V.J.",
"~.~.%X7.E |.E.E.E.A.}.^ b.OX~.A.Z.~._.c.d O.[.W.~.Z.~.c.T D.c.~.).).[.0...A.b.A.c.Z.Z.l.Z b.W.Z.Q.Q. Xy...XX~.).).~.).9.*.[. XE.}.E.~.c.( {.~.[.~.~.oX,.^ oXA.i.",
"A.l.~.,.Z [.A.A.~.~.A.a ,..X~.Z.A.[.~.V.0 #.oXA.D.c.D.i.m B.c.V.V.A.~.k.Q k.k.k.i.u.c.M.m d.Y.d.d.Z.E.7.-.].A.T.T.J.~.e.D V.c.E.A.E.T.c.Z D.~.[.].].oX9.^ [.c.y.",
"E.A.)...~ }.(.).D.A.[.a ,.>XoXOX$X).oX[.D D A.e.D.A.OXc.g ~.Z.T.!..XOX9.h A.c.c.Z.S.A.i.p d.W.m.m.W. Xy.W ]..XXX.X).=X2.t 9.Z.W.D.~.}.A.p ,.D.Z.c.u.c.Q m [.c.A.",
"t t B u f B f D Z p p 4 Z :.=...{ <.#.] n d f c D D } B 3 K W ^ } 2.2.[ f =.1.e.( *.} P < Z ( >.~ Z N % @ v H =.%.J I I 7 l O.) Q *.,.} 2 3 , 2 m m g f t M M f ",
"C l.B.u.u.9.,.u M ;.8.d.d.q.7.y x -.5.e.l.V.j.d #.e.k.k.7.D 9 $ Q <.<.#.5.<.L l K K Q } =.2.e.! 5 =.} @.@.( W l - z v F P x u = ; } ,.,.y.w.4.) W A.T.(.].V.Z.;.",
"=.>X.XXX%X.X1X*.:.&XW.W.W. XA.M V.oX.X.X.X[.[.*.~.(.)..X.X-X&.' H.H.[.).~.=Xe.M ~.B.A.Z.Z.~.).c.Z ~.b.Z.W.f.W.d./ R.|.Z.E.Y.T.( Q $X|.[.(.(.%Xq.^ ~.W.Y.E.}.~.u.",
" .%X).).(.).OX} :.W.Y.Y.Y.Y.d.( A.[.~.~.~.J.J.Q A.A.A.~.~.J.O.Q c.e.F.G.J.{.@.B A.c.A.A.).A.c.e.T T.b.d.m.i.V.O.C R.T.S.s.s.d.@.Z W.R.B.S.~.E.6.~ T.W.W.W.T.(.d.",
"6.;X.X.X#X%X>X:.,. XW.W.W.W.Z.} A.OXoXOX.XoXD.M V.A.D.J.~.oX<.D c.u.J.{.J.oX{ f !.b.J.A.~.T.~.k.B V.c.B.i.m.S.*.B d.Z.W.b.s.B.*.Q $XW.b.b.(.%X9...%X|.|.XX|.%Xs.",
"C c.V.c.c.e.A.M *.A.u.d.Z.d.u.K Q 1.c.c.z.V.j.x i.T.A.J.J.e.* A k.V.N.V.N.V.N 9 c.c.D.J.V.A.].=.p A.c.E.R.Q.Q.w.B c.E.B.y.y.u.M B Z.E.D.Z.d.w.N y } *.,...:.w.g ",
"*...f 4 ( ^ ,.*.~ ..~ g Z *.( } ! Q @.d 8 8 d % t V f f T D B Q ! K v 3 v b 9 9 y x u c =.=.=.B V ~ E W B x 0 ; = l l k P Q Q ' <.,.K 7 P D f x i D u . Z Z W Z ",
"OX=XA.m A.XX~.}.D.(.OXW M >X}.OX>X.X>X1.^ 9.u.j.t.e.C.D 0.A.c.Z.c.D.e.4 c.V.A.J.c.c.( Q [.~.D.~.D.D.E...C i.i.t.i.u.-.0 M.A.V.J..X%X=.v J.E.~.).~.{.w.p oXXXXX[.",
"|.[.E.Y T.Y.(.E.~.T.XX} p .X.X~.~.).OX9...{.J.J.~.b.).( b.d.u.u.u.D.B.D A.J.A.V.J.J.e.} [.~.E.E.J.~.}.c.;.(.W. X XQ.~.W D.}.T.~.J.).k.[ .XZ.D.J.T.oX,.m ).E.E.~.",
"(.,XA.j ~.#X(.(.).(.$X..g }..XXX.X[.oXu.:.J.A.v.v.c.oX^ u.d.s.d.u.c.w.W D.b.b.b.Z.J.<.! ~.E.T.~.~.A.[.u...B.d.Z.D.d.Z.( ~.~.J.).L.%XB.H ~.~.~.).~.oXZ.m ~.}.E.(.",
"J.l.} 4 :.u.u.V.u.u.A.~ g i.A.D.V.~.~.,.9.~.~.A.J.{.oX^ c.D.B.B.c.E.^ m A.B.A.A.Z.oX2.Q D.).XXoX~.[.:X9.,.Z.d.(. XE.W.Z i..XJ.~.V.).2.v ~.~.V.D.k.i.:.4 e.u.E.T.",
"^ p g T ;._ r T Z Z ^ *.*.Q , y u f f 8 f D M L D B f y Q D D C D B 9 # # 0 3 x Z Q l 0 K ) O.$.4.-.4.N m 2./ ^ ,.*.^ < % D A B c x 0 0 x l 7 x R ( ( Q R R V p ",
"(. X$X$X#X4X7.c.XX)..X}.OXA.p ,.0.c.y.u.B.9.f ,.9.=.:.X.2.D 4 Q c.V.A.i.} < f 2.u.w.i.l.u.,.3 @ c x f d D W , Q q.w.d.i.e.4.w l.x.c.2.u.c.H - V.[.OX[.[.[.oX9...",
" XXX(.|.|.(.:.B.|.(.(.(.|.c.~ A.Z.E.Z.T.T.Z.C c.!.b.A.~.oXe.} oX)..X).oXoXV b.T.E.~.~.E.~.oXB ! D.c.B.Z.Z.E.;.q.U.u.A.E.W.l.e Z.p.6.e.c.~.[ l (.~.B.].~.[.oX9._ ",
"$X|.XXXX$X%X..Z.|.|.(.(.#XE...A.A.Z.A.A.D.A.T k.b.b.b.A.A.,.:.).J.).).J.J.C c.A.c.D.D.E.A.{.Q -.d.u.c.b.e.c.E 9.d.c.i.A.W.-.: T.Z.u.A.b.A.%.H Z.B.D.E.~.].}.;.o.",
"~.Z.[.Z.B.~.~ 9.%XE.(.~.D.Z.Z D.~.(.T.b.~.A.T A.A.c.A.H.oX*.D -X[.V.$XOXA.D J.~.~.~.E.).A.).*.9.V.c.i.B.B.A.m 2.Z.A.b.g.Y.u.e c.c.c.c.Z.A.[ 9 y.oXoX[.[.[.E.y.C ",
"p y x + q 0 8 8 x M Z C C Z p N Q ~ ( ( K Q 8 Q { } } W ..M 2 x d D Q K w @ H ! @.2.e.w.2.2.M ^ q.=.u.9.=.*.> D M x ..*.G x v [ J u B [ A 7 - x D Q W 2.=.g T g ",
"c.t ( 9.9.9.u.w.( m V.b.A.A.A.( 8 -.:.;.y.u.} y ( u.c.u.k.A.c.p c q.*.w.,.! =.v M =.4.k.c.k.z.D y Q D Q Q D B 2.5 4 u.c.d.u.Z.Z.l # w.i.y.B.i.~.Z f ,.1.9...e.~.",
"~.f b..X}.A.E.oXV.( [.).Z.~.~.9.~ }.(.#XE.|.E.,.OX[..XOX).).=X} 4.,X}.|.|.}.%XZ ..A.A.~.~.~.OXT Q -XJ.[.V.~.~.>X<.f [.Z.Z.A.Z.Z.K y Z. XQ.Q.(.(...:.k.c.1.e.A.[.",
").V c.~.T.T.).b.i.^ A.~.A.~.V.0.T A.E.R.E.E.D.*.).~.E.~.).~..X*.,.}.].~.~.~.[.} :.c.c.D.A.A.[.D R J.[.J.c..XA.*XM.C E.Z.T.S.c.~.#.4 i.A.T.S.E.W.Q 9.V.u.c.A.).).",
"~.C E.E..X).E..Xk.D OXoX.XOXJ.e.Y T.T.Z.E.XXA...oX.X.X.X).).>X1.s.$X(.|. XoX{.} q.n.b.A.T.Z..X^ D D.{.J.~.~.~.OXl.W E.d.Z.A.c.oXe.2 c.(.E.R.Q.#XQ w.OXB..X.XoX.X",
"..i *.u.,.:.*.*.Q M ( ,.2...} C i w.d.u.y.u.*.g 1.9.w.e.e.9.1.D ..~.A.Z.Z.u.5.M { 9.1.1.e.w.l.d 4 <.-.} D D D Q } D :.d.7...Q ,.} > ;.y.w.w.i.u.3 ( J.V.c.b.V.i.",
"9.u.g g =.:.=.:.2.l.m 4 Z } R m x N N W D Z Z x o Q e.u.u.1.1.u.[ J 2.-.:.Q O.9.@.f A M L } } D 9 d f } D D } } -.c.~ C 2.,.*.^ @.@.M 3 D N W W Z C g T ,.:.9.,.",
"|.%X..g OX).oXOX.X>X..( D.D.E.B.Z.y.T E.b.~.T.}.D 0.oX[.).oX=XoXJ.v D.$X|.|.oX@XXXT k.V.~.).A.).G.M ,.oXE.A.c.i.A.D.D.D i.k.~.y.d.d.E.~ u. XW.|.].OX9.;.~.E. XE.",
"W.$XE g ~.A.!.T.!.).u.V A.d.c.Z.A.c.Z b.c.Z.Z.~.^ 9.A.u.A.~.J.~.J.#.S.W.'.E.K.E.~.W j.A.V.v.A.V.J.Q :.W.Z.d.y.9.u.E.c.m w.i.y.8.Z.T.c.V i.D.S.T.S.Q.7.6.(.T.T.Q.",
"(.,X:.~ ~.)..X.X.X%XZ.T A.c.A.Z.~.i.W ~.E.~.).}.^ v.c.v.V.oXOX.XL.*.E.|. XW.|.}.oX^ c.~.J.V.A.~.^.} } J.~.s.u.d.s.c.z.L j.l.c.q.U.~.D.T c.(.W.W.~.}.y.;.E.T.R.E.",
"c.u.D D 2.e.=.W } -.D r e.w.w.w.i.w.M w.9.e.u.9.u @.2.=.2.e.e.e.K f e.B.E.S.B.i.,.i ,.c.k.k.u.u.2.f d 2.:.i.y.T ~ :.*.3 K 2.( W *.( l l =.w.i.4.y.s.o.V b.E.Q.b.",
"T T C Z B 3 8 L ! } Q Q i T ....:.Q } D R i.u.,.w.2.e.*.m ,.,...B Q K 2 *.;...*.T ( ( m W 9.w.w.1.Q Q Q y r C m ~ / T Z M t r i i Z Q W =.p , x p Z Q W Q D i m ",
"~.J.~.J.{.=.=.{.~.oX.XXX^ 0.A.Z.c.:.z.=.9.[.D.A.D.B.[.c.g A.).b.J.oX:XW C D.~.~.~.D.~.:.:.oX}.XX>XOXV.[.^ i D.].`.E.S.Z.[.W ..~.W.|.Z.s.Q.s.T oXk.A.~.A.~.c.1 u.",
"H.~.!.!.~.u...~.A.D.A.~.} 2.j.2.A.0.J.9.^ }.A.y.i.B.~.i.C i.u.A.~.D.}.( ( A.Z.A.S.Z.E.9.:.~.|.Q.W.E.y.B.w.g E.R.R.W.Y.Q. X;.( ~.E.E.s.c.T.u.T {.A.J.oX[.[.A.r c.",
"A.!.T.T.~.c.~ [.).~.~.>X..9.V.k.n.c.J.i.9.[.D.A.A.~.~.c.C u.i.A.~.~.OXi =.~.b.b.Z.Z.A.:.u.XXZ.|.E.Z.d.%X7.Z  XQ.R.Z.Q.Z.(._ ;.~.T.A.E.~.}.9.R oX~.[.J.~.oXJ.4 j.",
"J.H.A.A.[.2.A l.u.e.u.0...:.k.v.A.e.M.W W w.w.j.A.E.E.B.V i.V.i.B.A.=.f *.B.i.d.i.A.y.^ :.D.~.B.d.d.u.E.w.M ].E.A.c.Z.i.E.9...~.b.(.~.E.b.1.S >XOX.XOX.XOX~.1 c.",
"D D m m B d 6 w w d 6 3 3 x x M A M q % l x v A D p 8 N d f u c K B < d A } ( ( p p m Z *.:.=.( T i R D K Z w.7.:.T r M / T W ..*.=.T p W D f ,.,.=.} } ( B X 4 ",
"0.{ Z l.i.B.e.4.e.2.B ;.a.g.d.q.Y.! B V.v.A.V.D.F.D A u.b.d.u.c.Z.,.W J.J.~.~.J.D.T m ~.~.A.A.J.c.^ ^ E.Z.Q.Z.S.T.g m e.V.A.~.~.A.D.l ! J.~.E.d.C.-.D 2.e.e.:.,.",
"oX9...%X|.|.~.~.].I.H c.E.Z.E.E.&X9.:..X/./.!.~._.:.( }.~.~.~.~.~.B.@.{.J.].{.J.OX( C J.c.c.D.D.{.,.T [.A.R.E.T.}.^ c.=X~.A.Z.[.D.j.l O.{.V.}.M.D.i.D J.k.~.).~.",
"J.V.} D.A.E.~.[.~.D.B y.g.d.a.Q.W.r.@.~.~.~.J.~.).e.Q D.A.A.D.D.A.d.m D.XX[.~.oX<X*.W OXc.k.V.i.~.,.Z  XY.Y.Y.Q.A.r ,..X).Z.A.).A.c.d } [.A.Z.B.}.d.g A.c.b.A.~.",
"=X9.C OXE.~.$X}.%XD.f y.Q.Z.Z.Z. Xw.) XX(.)..X.X.Xe.d -.E.(.T.E.}.D.i :.A.Z.d.s.i.C Z L.c.i.B.V.A.*.( XX(.(.T.(.~.2 9.,X.X%XOX{.[.[.M m A.i.Z.D.[.).V J.A.~.J.~.",
"9.} C w.i.l.,.2.=.) < B ( -.) M k & + v A +.+.v H J 7 l ! P K _ ,.K 2 t > 2 m m m m C T C m y f f r d x u B B u p i g *.,.*.} =.#.D L y d u D B } C o D D Q Q 2.",
"2.<.<.4.[ b K L D O.@.9.c.@.< :.>.) -.( W c 5 N H ) ( x 7 O - =.,.,.y.w.w./ T D.Z.].~.A.~.*.M B.b.u.i.e.4.N B *.7.A.d.y.9.t d -.e.j.j.J.B.d ( e.j.k.1.! 3 $ [ =.",
"[.~.^.=X2.D [.A.).V.c.!.~.e.^ E.Y.Z.Q.s.W.i.( (.|.b.Y.Y.A.! K %X|. X#XW.%X9.T E.E.(.E.R.XX:.^ 3X).$X.X.X>X..;.$X XT.E.(.A.M V.oX[.%X~.~.>X} ~..XJ.~.[.oX-.[ N.V.",
"H.J.V.{.=.m V.c.J.V.~.A.A.e.m A.g.d.Z.g.b.*.C Z.Q.Z.i.y.d.:.Z ].S.Z.S.W.].;._ E.W.E.E.(. X:...oX).~.).)..X=.o.Y.Y.W.W.Y.d.W V.).J.~.].}.J.L A.J.J.).!.~.2.A j.u.",
"F.^.~.oX=.f J.A.J.!.!.A.~.i.D Z.d.b.b.Z.E.;.B i.A.Y.b.w.c.;.Q [.W.Y.d.W.%X7.` XX$X|.$X|.%X9.*.>X.X}.>X[.>X,.7.~.W.(.W.E.A.Q J..X~.OX).oXD.N A.~.J.J.).[.-.L l.k.",
"F.v.V.V.f r u.e.c.b.).~.[.2.f Z.c.W.T.B.Z.;.g d.c.b.u.i.u.Z Q A.A.B.A.B.w.C p *.^ :._ ,.w.y g c.u.e.u.u.V.V :.B.y.y.Z.Z.9.M D :.e.v.k.V.4.3 i.).c.A.A.i.3 D j.c.",
"B d t , y f Z ^ ! } K c u l 0 M A D B ) ^ Q x W O.A 6 e w 6 b d f y 8 u A c Q } Q D Q d K Q 2.} ^ ~ r r R } ^ ;.( T T ~ ^ } D ~ } ^ r > M M f g i m f d c M } ^ ",
"A.J.D m OXXX(.$XoX).i.4 :.B.D.A.D.d.g ,.T.b.A.T.Z./.} 4 u.c.c.b.c.d...,.>X[.OX>XJ.J.{.#.P.{.J.).~.).c.B J.[..XoX[.oXT 0.[.~.~.=X[.1XQ *.J.A.c.d.u.c.:.m V.e.A.V.",
"A.oXD C ~.(.|.|.A.E.A.p |.|.E.E.b.Q.9.,.(.b.d.b.d.(.y.g E.Z.Z.Y.Y.U.b.9.)..X).).).).V.{ A.J.!.!.H.H.c.T ~.~.).E.~.~.m v.b.u.A.[.[.*X~ e..XE.E.E.d.T.c.T c.A.T.!.",
"A.[.^ C E.(.W. X].(.A.W E.E.~.T.y.(.( ,.(.Z.i.y.c.(.7.Y b.d.Z.Y.c.}.w.W A.J.V.J.~.).A.R ~.A.~.~.~.~.J.D J.~.~.).).A.f ~.~.~.~..X).>Xm y.~.E.E.b.d.E.u.T ).(.T.Z.",
"A..XQ m XX(.#X|.|.#X~.T (.+XE.Q.b.,Xw.~ #XW.(.Y.u.T.9.~ W.Z.E.E.T.T.` ..>X).~.)..X).~.V c.V.V.V.c.v.v.Q A.OX).).OXB.r ~.OX).>X[..X>Xd w.|.~.E.E.Z.}.9.i ~.Q.(.Z.",
"9.u.D g 9.q.9.,.*.y.} x Z.b.i.u.u.e.! 0 Y ;.7.7.*.6.Y j f.a.,.7.*...g g 9...~ C W T R 1 i M f x d d d B Q R T S ^ ^ < Q :.1.,.u.e.1.4 Z y.o.9.i.y.:.T 1 R 9.9..."
};
