/* XPM */
static char *_9550_8e1751a7121ff78fbc7b0502d9182b1390dab4e0d3b10a03bc42d4b957fb8b7a[] = {
/* columns rows colors chars-per-pixel */
"80 80 224 2 ",
"   c #040103",
".  c #0A0105",
"X  c #060409",
"o  c #0C040A",
"O  c #0D090D",
"+  c #0A0907",
"@  c #11040D",
"#  c #19000E",
"$  c #120A0E",
"%  c #0E0B11",
"&  c #140611",
"*  c #1B0413",
"=  c #140C12",
"-  c #190D15",
";  c #1D0E19",
":  c #161215",
">  c #1A1316",
",  c #161319",
"<  c #1C141A",
"1  c #1D191D",
"2  c #230D1B",
"3  c #200815",
"4  c #22151D",
"5  c #231A1E",
"6  c #28161F",
"7  c #1E1B21",
"8  c #1D1520",
"9  c #280E21",
"0  c #251622",
"q  c #2B1423",
"w  c #251B22",
"e  c #2A1B25",
"r  c #2C1D29",
"t  c #291829",
"y  c #311426",
"u  c #311A27",
"i  c #33142A",
"p  c #341D2C",
"a  c #3A1D2E",
"s  c #3B142D",
"d  c #361C32",
"f  c #3C1D32",
"g  c #3D1F3A",
"h  c #3B1731",
"j  c #300E26",
"k  c #252325",
"l  c #2A2226",
"z  c #262328",
"x  c #2D232B",
"c  c #262A2A",
"v  c #2B2A2C",
"b  c #252A26",
"n  c #34232D",
"m  c #39222E",
"M  c #33292D",
"N  c #35262B",
"B  c #25302B",
"V  c #2F2931",
"C  c #352431",
"Z  c #3B2333",
"A  c #352B33",
"S  c #3B2B35",
"D  c #3E2439",
"F  c #3E2B39",
"G  c #362E39",
"H  c #353134",
"J  c #393135",
"K  c #3D323B",
"L  c #393A3C",
"P  c #431E35",
"I  c #431D38",
"U  c #422336",
"Y  c #422936",
"T  c #43253A",
"R  c #49243C",
"E  c #432A3B",
"W  c #4A2A3D",
"Q  c #43323D",
"!  c #49323D",
"~  c #413B3E",
"^  c #4A2641",
"/  c #462B41",
"(  c #4C2C42",
")  c #522C44",
"_  c #532F48",
"`  c #453442",
"'  c #4B3444",
"]  c #453A43",
"[  c #4B3B46",
"{  c #4E3D4A",
"}  c #4B3848",
"|  c #533247",
" . c #54344A",
".. c #543D4C",
"X. c #59384C",
"o. c #5B3C53",
"O. c #553D51",
"+. c #623C55",
"@. c #4C434B",
"#. c #4C4B4D",
"$. c #494244",
"%. c #53424D",
"&. c #504C4E",
"*. c #59424F",
"=. c #4D4E51",
"-. c #4F4152",
";. c #554453",
":. c #5B4454",
">. c #534C52",
",. c #5B4A55",
"<. c #5D4459",
"1. c #5E4D5C",
"2. c #4C5251",
"3. c #535253",
"4. c #585255",
"5. c #5C515A",
"6. c #575759",
"7. c #4E504F",
"8. c #63445B",
"9. c #644C5C",
"0. c #67475A",
"q. c #62515D",
"w. c #69515F",
"e. c #6B4D62",
"r. c #644B61",
"t. c #714E66",
"y. c #635362",
"u. c #6C5364",
"i. c #6C5965",
"p. c #6E5469",
"a. c #6C5C69",
"s. c #655864",
"d. c #705166",
"f. c #72546A",
"g. c #725B6C",
"h. c #77596D",
"j. c #755D71",
"k. c #7B5D72",
"l. c #6D636C",
"z. c #71636D",
"x. c #78626F",
"c. c #756473",
"v. c #7A6374",
"b. c #7D647A",
"n. c #7E6979",
"m. c #776973",
"M. c #786E78",
"N. c #805F74",
"B. c #826376",
"V. c #84647B",
"C. c #826B7C",
"Z. c #89687E",
"A. c #82717F",
"S. c #77827C",
"D. c #7F6580",
"F. c #856D82",
"G. c #8C6D82",
"H. c #857283",
"J. c #8B7485",
"K. c #8A7986",
"L. c #8D7589",
"P. c #8C798A",
"I. c #847C83",
"U. c #92758A",
"Y. c #937B8C",
"T. c #937487",
"R. c #9B7D93",
"E. c #947B91",
"W. c #91738B",
"Q. c #A37D96",
"!. c #8B898C",
"~. c #92828E",
"^. c #918D8C",
"/. c #8E8491",
"(. c #8E8B92",
"). c #938492",
"_. c #9C8395",
"`. c #948A95",
"'. c #9A8D96",
"]. c #9A8699",
"[. c #958C9A",
"{. c #9A8C9B",
"}. c #968598",
"|. c #939396",
" X c #999496",
".X c #969499",
"XX c #9B949B",
"oX c #979C9C",
"OX c #9B9B9C",
"+X c #8A908E",
"@X c #A3879B",
"#X c #A19D9F",
"$X c #A0969C",
"%X c #9CA19E",
"&X c #9E96A2",
"*X c #9E9BA2",
"=X c #A495A2",
"-X c #A39BA4",
";X c #A59CA9",
":X c #A99DAB",
">X c #AB97A5",
",X c #A88DA3",
"<X c #9EA2A3",
"1X c #A2A2A3",
"2X c #A6A3A8",
"3X c #AAA3AC",
"4X c #AAA9AA",
"5X c #B2A5AF",
"6X c #B2AEB2",
"7X c #B3A6B0",
"8X c #B5B4B5",
"9X c #B6B5B9",
"0X c #BAB6BB",
"qX c #B6BBBC",
"wX c #BBBABB",
"eX c #B8B7B7",
"rX c #ACABB0",
"tX c #C1B9BE",
"yX c #BEC0BD",
"uX c #BBBDC1",
"iX c #C2BBC1",
"pX c #BCC0C1",
"aX c #C9C6C9",
"sX c #D5D1D2",
/* pixels */
"S.4XoX X'.$X>X$X=X=X=X&X=X=X>X>X;X-X:X:X:X:X:X:X:X:X:X;X2X2X2X2X1X<XrX2X3X3X>X:X:X;X&X&X;X;X;X;XrX2XrX*X2X3X&X3X:X;X:X:X:X;X;X:X:X:X:X5X5X5X5X5X7X;X6X6X2X6X!.L ",
"+XoXM.!.'.~.J._.).Y./././.).~./.).`.'.[.{.}.}.}.}.}.}.}.`. X'.^..X+X(.~.)._.].@X[.[.}.[.[.[.[.[.(.(.[.(.[.&X/.`.)./.(.)./.}.[.}.).~.).).~._._.^.'.^.'.^..XaXoXV ",
"^. X4.$.,.x.Z.N.b.b.v.m.m.m.n.v.m.c.v.m.v.v.v.j.v.j.c.j.m.z.w.&.#.#.4.l.C.B.j.j.c.c.c.c.c.c.c.l.l.l.M.l.c.l.>.;.c.c.n.b.c.c.j.j.v.m.m.n.m.m.m.m.m.z.1.Q %.0X Xk ",
"!. X@.e ! V.Q.G.U.L.L.L.J.P.T.P.P.J.J.P.L.U.E.W.E.E.K.K.~.A.z.,.3.3.%.z.J.L.G.U.L.L.P.L.D.E.P.P.!.I.!.D.K.n.,.,.n.H.L.H.L.Y.E.L.H.J.H.J.A.J.A.T.~.~.i.M v 0X1XM ",
"!.`.,.9.d.0.t.t.t.t.e.e.u.u.t.d.d.w.u.u.p.t.t.f.p.e.0.w.d.i.,.Y ! ~ Y h.G.B.t.h.t.p.p.p.e.9.w.9.y.,.w.w.w.q.}  .C.G.v.u.p.f.e.t.g.f.a.d.w.w.w.u.9.q.*.u 4 tX-XM ",
"'.$Xi.J.N.R P I h d d d s p p s i u i i i i y y i 9 3 # 2 u 3 . . > - 0.k.o.i i i i i t 2 3 # # * @ * 3 q q 3 2 k.v.o.s y i j i q q 2 2 # # # * @ * @ . . tX$Xv ",
").=Xf.G.B.) I I ^ ^ ^ D D D P f U Y T U R T T T T g y q a S 6 @ > N 3 d.Z.0.I ) T W E D d i y y y q i p D Z e Z v.Z.9.U U W W ( W W E Z p u y u u u 4 @ o iX-XJ ",
"XX$Xu.H.B.R I ^ D g f d p p i i y u i a d g d g g g n p S Y 6 . = N 2 N.T.t.I R h d Z D a p p a Z p m S Y m q D v.F.e.R T T h h Z Z Z p y 6 q r 6 6 4 = . tXOXM ",
"}.;Xy.L.B.T ^ g ^ g C g t t t t q q i p f D g d Z C p C m N e   = A r g.U.8.( ( g g Z Z S m m m m Z C n Z d Z C H.K.p.d T s T d Z Z Z d t e e e w k , % X uX*Xc ",
"[.;Xy.L.b.T ^ g D d d r t t t d N u n Z d Z Z Z Z Z n n M v l   4 x < v._.8.f R f Z Z Z m m m m n Z C p C V n G { ' y.j.h.E ( D Z C C r e w q e w t , % X uXoXB ",
"[.*Xy.K.b.T / g D d 8 t e e C Z n m N m n Z C C C A n n x v k   = V r j.L.8./ ( d d V C m n N m p Z C n A C r C r & r.L.k.D ) d C C C x e q e w w w , %   uXoXB ",
"[.;Xy.L.b.g ^ D D d t 8 e x n C N m n m p C d C r D A C v v 5   , G C j.F.8.E ( D g Z A m S m m m Y Z Z G C r x A 0 p.L.f.f X.p d C C p u r w 0 w t , %   uXoXB ",
"[.;Xy.J.B.U ^ D E p e 6 r n n N a m m m m p p p r G C A x 5 1   8 8 0 n.,Xk.W _ D D D F S S Y Y Y Y Y S F A r t n r i.J.k.U  .h f Z Z C n u e e w w < %   uX*XB ",
"{.=Xu.J.V.U W P U a u u n n N n N m m m Z D Z m Z F A C 5 > > + t ] } k.U.t.^  .^ D E S Y W Y Y E ! E S E C t w r 0 8.Z.B.D W U Z Z Z m m a e e w e , %   uX%Xc ",
"'.>Xy.T.B.I W P U a u N N N m m m m a m D Z D S S Z p r * + , 5 @./.L.r._ ( h h D E E T S E Y Y Y W Y W E S t 0 / r d.@XZ.P ) R P m P m f a u q e e 4 @   uXOXv ",
"'.=Xu.J.V.I W U U Z a a N a N a m P a a m U W E W Z e 6 o   5 A -.{.Y.r.^ ^ I W T D T T Y Y Y Y Y Y U Y W Z r q Z q h.@XV.I _ P P a a U m a y 6 q e < &   iX$Xv ",
"XX:Xy.F.D.g g g i p Z m Z Z D f m U Y Y Y Y R Y ! n u e & . 0 r O.E.@X<.d ^ ' D D T D D E E E F W Y E Y Q S 6 6 S n :.x.8.Y E Z Y P a m m a u u l w > $   wX#Xc ",
"[.;Xy.L.D.g g h q u m m m Z f h U Y Y Y Y R W Y Y m q q &   7 x <.E.R.<.d D g d D D E E E E F F Y W E S Y S 6 6 S N ~ *.Q n d p m a P U m m S S l w < =   tXOXb ",
".X;Xs.L.D.g g i 6 y n m m a f h U Y W Y Y W Y Y E S e 6 O   8 x ;.F.F.O.D D / E D E E E T F F ^ E E W Y Q S 6 6 l 6 M ! K Q ` F m P m m N m m n e 5 > :   wXOXb ",
"XX:Xy.H.D.g g d q u m m m Z D f Z U Y Y Y Y Y Y ! S e 5 & . w A Z O.-.D d g Z D D E D E E E / D W E W S E S 5 5 . . 4 A ` $.[ F Y m n n m N N l l k , O   wXOXb ",
"oX<Xs.D.k.g D d 6 u n N n Z Z Z d D E F Y E Y S S m 5 > $ X 1 v K O.O.' / F F / F F ^ F / ^ D F / T / F Y F 5 6 @ = 5 M ~ @.[ F n n M n N n n M l 5 1 $   yX%Xb ",
".X2Xs.!.D.D G d 6 u N N n Z C Z D E / E Y W Y S e e - $ O o , k V F F F F C Z d E E D / / D / ^ / E / D W G 0 5 X o . + , z c w e A S x - + $ > . O + +   yX%X7 ",
"*X2Xs.D.j.d g r e N N N N n C Z D E ` F F F S n 4 5 o X O X % 1 w V C C F F F E F F / E / / ^ / ^ E / E Y A w 5 $ O X X % 1 7 z 1 l v 5 + . . .     + +   yX%Xb ",
"oX*X-.c.r.9 t t l l M M n n Z Z F E / F Z C n l 5 5 @ X $ + O : - w w w C C A F F F / E E ^ F D ^ D / D Q F 0 w + + + X : : % , $ > 5 5 5 e k 5 5 1 : +   yX%Xb ",
".XrX@.;.` % X t V G n M A r S ` ` K F F F n 8 0 0 k   O     . . O   @ 5 < M ` S Q Q Y E F E E ^ ( / E E Q m e 5 $   $ O o     X . .   $ x x l M 5 5 > X   qX%Xc ",
"|.-X@.q.<.D g d C A 5 k A G S C n C D G G x < 0 < t < < > 5 < . $ . - - - x A S n C S F F T F E Z D D S Z N l 6 @ $ .   = = 7 % = , < w m S n M M k 5 O   8XoXc ",
"*X2Xy.D.D.D.j.O.4 4   o t x r 0 0 w t w 0 ; . o   X r F %.q.Q . .   o . @ < 4 e e u S Y Y Y E ` F ` W n e 5 5 4   $ . . r x Q C x C C J @.%.Q Q S H l O   yX*Xc ",
".X;Xy.!.L.j.j.r.S e o - x x d t r < w < ; = X - ; & K F [ ;.E @ 6 . o $ & < < 5 > e M J F A A S C F S x 4 4 l 6 @ $ @ . x F F F { F S Y [ ! Q Y S S z     yX<Xz ",
"'.:X1.D.D.` D y.A.*.5 e S x V C w . $ $ > $   w r ` P.n.1.`  ...Q   . = . O & @ . * 5 6 e e w e w e e > @ . $ @ G n F q r.Y.G.E.F.8.` [ } Y m Z S S l .   uX*Xv ",
"XX5Xy.E.D.g g c.~.q.w w G n d C w   . . o +   l < ] Y.~.9.E ' r.[ o . = . . . . . $ 4 5 5 5 5 5 e w 4 - . . . . 6 4 N * :.@XR.E.@Xj.8.:. .U U U U m e @ X uX<Xc ",
"'.;Xr.L.D.g g <.i.,.A S ] ` ` / J > 5 + . > - @.l.x.u.s. .T ) o.' A A x r 0 . = o $ = > > > > > > = > 5 l 5 l N i.i.h.e.k.k.V.h.g.<.X. .U f U f d u q & o uX*Xc ",
"=X;Xr.L.j.^ g g Z { { %.%.' } } ! v N . . l M i.{.H.W W T T I p E 1.1.[ { x . @ . . . + . . . . +   . > l 6 e m P.@XQ.Q.F.i ^ I ( /  .W a U W a i q 4 @ X 9X*XV ",
"XX:Xu.T.B.Z T U E ` [ } } [  .W Y Q m 4 0 n 0 c._.T. .W T Z Y D ` ' ' ( D r q ; 4 0 O   O   + + X 8 , O.u.,.0.0.Z.Z.Z.Z.t.X.) _ / ( / W D a Z m N q 4 @   0X1Xb ",
"XX3Xy.A.V.a U P a Z W E Y Y U m ! ! ! A G F r j._.T. .| W Z S m g D E E D D Z Z C C = O O X X X 8 t r b.,XQ.R.Q.R I R ) R P h h T D F D C u a n r w 4 O   wX#Xb ",
"=X:Xq.J.v.m U m Z U Y Q W W Y U Y Y W n C G t j._.G.| ( U U Y Z Z g D D Z D D E F C = o o X + % X t C g.T.T.T.T.+.X.) _ ) W T T D Z Z Z d m m m u w 5 O   wX#Xb ",
"$X;Xq.J.V.U U Z m Z D S D Y U U N N r ; ; r t j.@XU.X.W U U U Y E E T g D D Z F u e o X X   , k t c.D.p.0.0.t.0.) I P I T T U U T F D D Z Z Z S N w 4 O   qX1Xb ",
"=X;Xq.K.B.a U U d C d n p a Z Z m 6 4 . o t r g._.G.+.) U U m Y D D g D D F E F e 0 @ . +   1 H r E._.e.d W ) P P P P R R T W W D D D D d Z m Z e e 4 O   eX#Xv ",
"&X:Xq.J.v.y i a Y Z Z Z Z Z U W m 6 6 o o l t 1.j.t. .( R R m Y Z g D E E E E F n n 5 < %   , J t H.@Xf.W X.| ) R R R R U f d D D E E D Z m n n u 0 4 O   wXOXv ",
"$X:Xy.J.x.q y p Z p p C a a a Z u q 6 . . C e { *.X.W ! U R a W D D D / / E E D Q S x w ,   , A C Z.).d.R ( P a P U U T U T T W E E E T Z m m Z N w 4 $   qX#Xb ",
"XX2Xq.P.k.q i a Z Z n D Z Z Z Y n e e . X A n ] :.o.X._ R U a W E D D D E E F F Y S e e < X > A C F.R.u.T | T U W R U U D T T E D E E D Z p n m r w 4 O . wX%Xv ",
"-X;Xy.K.m.9 y a Z Z C C Z Z D U n e <   o z K ] 9.*.! W R Y T U ^ / E E F D E E E Q w 0 4 . > G u A._.0.2 Z T a U U U U W E E Y E E E D Z d m Z e e 4 o X wXOXb ",
"&X:Xy.K.v.6 y i Z Z C C C a U Y m u w & % t V K %.[ X.| R R R P D D D / ^ E E F F F e w > . : A m C.Y.q.a W W D Z U D T Y U E Y D T F D Z Z n m u 5 < o . wX#Xv ",
"&X;Xy.K.k.q y p d Z C C C Z Z T E S n < , , , r Q ! X.X.! W R T D / / D E E E E Y Y e w - . < A r 9.u...p D Z C Y E U F E E E E D D F D D Z m n e e 4 + X eXOXb ",
"*X;Xy.K.v.q y p Z C Z n d Z U Y W F S r < &   < M Y X.8.X.) W T D D / / E E Y E Y S e q - o 5 M M %...` Z S C F Y E Y Y E F E E E E D D Z Z m n e x 4 + X wX#Xv ",
"*X;Xy.K.x.9 y p Z C C C n Z D Y T S Z r w %   w M Y ..8. ._ / D / G / G / D E F Q S u N 5 - 5 4 r ` K ` ` ~ p F Y Q K Y Y Y F E / E E D Z Z m Z u x 5 X   wX<Xc ",
"*X;X5.K.v.6 y p d C C C Z Z Z W E E S w w =   k M Q ..*. .' / D g / D / D / E T Y F S Q n 6 > . . l V ~ { @.n F K Y S Y Y Y Y Y F W E D Z n m m N n 6 +   wXOXc ",
"-X;Xy.K.k.q q p m C n C C Z D Y W W Z w w =   w M S ..O.} / ^ D F D / / / ^ F E Y Y Y ~ M 5 < . X x V ~ @.] e C A C C Z Z m Z D d D E F Z p n Z n M e X   wXOXb ",
"*X;Xy.K.v.q q a d C C C C Z D W S W C 0 e :   w N Y %.;./ D E E D / / D / F E F E S S Q x 4 5 $ X G V x C l . o 0 w 5 q e e q e i n E W Z p n m m Z e +   wX%Xk ",
";X:Xy.L.v.j y s Z Z d C g D T W E W Z e w -   5 S Y @.*.` T E T E W E W Y Y W Y Y Y N Q N 5 <   o 8 t V Q t o o t t t r w w w q q D Y C p Z Z m N S e $ . iX#Xx ",
"*X:Xr.K.k.q y d Z Z C g d Z f T T E Z w q $ . 5 v H [ @.E Z D T Y Y Y Y Y Y U S u u 6 N 6 . > M t j.D.;.C C r V & % & = = = = ; & 0 n n n n n r n M 5 $   wX$Xv ",
"&X;Xy.L.v.j i p Z g C C a d f f Z F Z e w $ . 5 H ~ *.>.Q Z F W Y Y W Y E Q F F 6 N 5 > > . $ x 0 P.{.,.; C C C o o . o .     X @ , t t N n C A M M 5 $   qX*Xc ",
"&X;Xy.L.v.9 y a Z Z C d Z d f d Z Y S e w -   > < k M M q 4 r m N n N n N l x z $ 4 2 $ l 5 ~ w.y.j.q.j.y.a.` Q r t 0 w w w w 8 7 , = , < 4 5 w 5 5 : O   qX.Xc ",
"&X*Xy.I.c.9 y p d C C Z Z Z a a Z S A w k ,   $     . . . . - 6 0 4 5 w 7 7 7 8 .   . + e 6 ,.>X=X( * b.>XY.[ ..S C M G G G A J V , X X X     X   X X +   yXoXB ",
"&X*Xy.P.v.q y d C C C C C Z Z Z S G n < > :   $ > $ : $ + + 2 5 < 4 5 1 8 8 7 7 > $ - o U ! 9.C.Y. .y f.G.n.....S S S G A x l v V 8 , % , % % O O = % O   pXoXc ",
"[.*Xy.K.k.6 q C C C C C C d p Z n A x $ $ O   1 v v v b = . $ $ @ @ + . X % % % v x K ; 0.R.G.) ( ( T T a E D m { ] ] ] H t w z 7 z z t r x v x z v 1 %   pX%Xb ",
"[.&Xy.K.v.9 q d C C n C n C C n x A e .   .   k M M J H > . . + . o .   X X X % V x ` q t.Q.Z.P X.T T W W Z S E ..{ { [ G w 8 w 8 t V V V x n M V G w o   yX%Xc ",
"!.-X5.K.m.p S m S C x C V n C n l o @ @   x A A $.$.v l :   O . 2 S u S G C C [ A.A.A.Y.N.X.+.I R R R T T U E D Y Q n x 0 X = C 0 j.c.c.D.M.Q Q Y J l o   eX#Xv ",
"(.1Xq.J.x.p Z n n C V V C C S A t X X =   0 w ] @.@.J H 1   +   @ u 4 e e > 4 K _.@X~.Q.N.R ) P R T U T E E Y F Q ! n 4 4 .   < o j.E.L.P.n...` Q Y l .   tX#Xk ",
"(.*X4.m.i.e u u w r z t w w w t 0 8 0 t o { 1...[ ] n l O   : $ S i.w.w.9.i.r.p.B.Z.B.Z.0.R ) I U U T T U W E E u C x @ < w < ,.<.h.f.k.c.e.' ' Y S l @ . wX1Xv ",
"(..X@.1.! . . . . o o X X   .   ; t r A * K.:Xg.` Y e 5 +   k v %.Y.R.Y._.@XQ.U.R R R | R P P P U U T E E Y F D e q 6 . 4 n w v.E.o.i I T E i d S m e o . eX#Xb ",
"|..X#.>.! * - - & % % % = , = @ G ` ` -./ j.V.p.D E r e &   5 l 1.R.R.E.G.G.Z.G.) W W ) W E / T U T T E E F E F u ; 2 . r G e m.W.r.^ ^ T ' W D m n 5 o   qX%Xv ",
"|..X>.,.{ 6 e l H A H v A G C w -.L.D.L.L.o.d / g D q q @ . 5 x { ].E.8.T ( ) ) R I R I f Z Z d D F F E Y F F F p 6 0 . - e e C.W.+.^ ) h d p p l e 4 o   qX%XB ",
"+X(.#.;.~ 2 ; > w w 7 , 1 7 ; o O.P.W.G.R.r.T R h g 9 0 - o w t O.{.E.r.) _ ) I I P T T D F F D F D E E E F S S r 0 0 . = w x i.R.r.I ( U h p E x w < + X yX<XB ",
"!..Xs.c.x.9.9.y.y.l.l.l.l.c.l.a.p.r.<.o.r.I ( h T U r Z r , k , D 1.<.k.h.+.) X.I P W E C Z G G D F E F Y G Z C ; = - ; { x.y.i.+. .I E d W D C r t < O X qX<XB ",
"(.[.a.L.L.V.F.V.Z.F.L.P.L.J.P.E.j.d D / D T p Z U n n S S M 5 . @ r & j.F.r.R W U U U R U S F D E T ' E A K M v O   l < 1.L.F.O.g g P a D D D S w w 7 O   qX<XV ",
"`.[.a.F.D.r.+.+.8.9.e.e.e.u.t.p.8.d E / Z Y p D Z m N m N N 6 . , C 2 c.Y.9.a W U U m P Z Z Z Z T g E Z n A l l O . M 0 ;.G.F.o.T T U Z a n p e t w 0 O   uX<Xc ",
"[.[.s.F.k.^ ^ I g d d d D D T D ( q T T p D p S n n M N N N 6 . < A 0 c.Y.9.D ' a m P m Z a Z Z g d D p n H v M o   w ; <.E.L.o./ U Z Z Z a e 6 e w 8 % X 9X2XV ",
"[.[.s.L.b.I I I ^ T E E / ( ( ( D i D D p Z m m m m m N N J 6 . % A t s.n.:.D W P P P m d Z m d d p Z N M S k l - . w e ;.F.V. .T D f Z Z n e 6 e w 7 @   uX<Xx ",
"[.XXy.Y.B.U T R D D Z Z Z Z T T E D T Z Z Y D Z N m N N N Y 6 . = G V ;.q.` a a m P P m m m Z Z Z C S u n k O $ e 5 ] ] }  .X.T U Z m Z Z m r e e w 1 O   wX1Xv ",
"{.&Xq.K.v.h U U D T T D Z g Z f U D Z d n m m p m N a N N N 6 @ 8 z z K ] Y S m m N m a m m n m Z Z Z x M w   . n v ] :.' D ^ P D Z Z Z n N e w w w 7 O   yX1Xv ",
".X=X9.J.v.a U d Z Z Z Z Z Z p i u p q y i q e u u 6 l N 6 6 l 6 w % = v S G ` Q m m m m m Z m m p C n n J l X $ n w A .. .( ' T Z Z Z n p e q e l w 1 O   wX1Xv ",
"[.;Xq.K.V.Z W Z F Z C A D Z u q 9 e q e u 6 6 e 6 6 6 N 5 4 N J V   X k n S { ` m m m m m m m m C C n x J l . $ v n Q %./ / ( D Z S Z n e w w w w w 1 O   wX1Xv ",
"`.XX5.~.x.6 Z m n N x n n p r u e e e e q e e e 6 6 e 6 5 e l m v X X 7 z A ] K C n p u u p n n n l w V A k O X l n S Q ' / W Z Z n x e e w w w w w 1 o   eX1Xb ",
"&X-X5.P.m.q q 2 q w w w w 0 6 2 e e e e e w e w 6 5 5 k 5 5 x M k X X , w V K G n N e e e e 0 0 w w w x H w O . 1 w M S F E D Z n n e w w w w w l w 1 :   8X<Xv ",
"`.2X5.m.i.6 6 5 w 7 w 7 w w 6 6 4 4 5 < 4 < 5 5 5 5 5 5 < 5 5 l 7 X X 1 < w x x M x e e 5 w 0 0 < < < w x 1 O O 1 w l x C C C C r w w 4 1 < 5 1 5 , $ , + 6X1XM ",
"oX2X@.~ S 2 w l < < 1 8 < 4 < 4 4 5 5 1 1 5 5 1 5 5 5 1 5 5 5 5 z , , 7 7 7 z w 7 w < < < 4 < < w k 1 w k 7 , 7 , < < 4 < 0 0 0 k w w 0 w w 5 5 1 5 b ~ N aX4Xl ",
"|. XH + .           X X X X . .                           X                               X X                 X X X X X X X X X                 +   + + $ 4X#XJ ",
"|.aX4X*X$X-X-X*X|.|.|.+X|.|..X XOX X XOXOXoXoX X XOX.XoX X X XOX X X&XXXXXXX&XXXXX.X.X.XOX X.X'. XOX$XOXOXoX.X*X.XoX.X.X|.[.[.[.&XXXXXXX$XXX$X X^.OX X#X XsX#Xb ",
"!.yXaXaXtX0X6XeXuXpXqXyXyXqXqXwXeXeXeXqXeX8X8XeXqX8X8X8X8XeXeXeX8X0X0X8X0X0X9X9XuXwXwXwXwXwXwXeX8XwXeXeXwXwX8XwXqX9XuX9X9XuX9XuX0XwX9X0XwXwX0X0XwXtXtXtX8X8X^.$.",
"2.6.$.2.4.4.>.6.2.2.2.2.2.2.=.=.3.3.3.2.2.#.#.#.=.=.#.#.#.>.#.=.#.,.,.#.#.>.#.#.#.#.#.=.#.7.7.7.&.4.&.$.7.7.=.2.=.=.=.=.=.=.#.#.>.>.>.=.>.>.&.&.&.#.$.7.4.&.4.$."
};
