/* XPM */
static char *_1118_ba608490a5eeb9d826001ca48a38931c07195fa29b39bb2d0b78af56ef525d1e[] = {
/* columns rows colors chars-per-pixel */
"80 80 180 2 ",
"   c #000006",
".  c #0E000D",
"X  c #14000E",
"o  c #1E0012",
"O  c #210611",
"+  c #270C12",
"@  c #331515",
"#  c #3A101E",
"$  c #3D1D1B",
"%  c #3D1D16",
"&  c #1A0020",
"*  c #1F0826",
"=  c #2A0C25",
"-  c #320826",
";  c #331326",
":  c #371820",
">  c #3C1C24",
",  c #351529",
"<  c #39172B",
"1  c #3C1A2C",
"2  c #380334",
"3  c #45231E",
"4  c #49251E",
"5  c #401D2E",
"6  c #431E31",
"7  c #452425",
"8  c #4C2721",
"9  c #4B2925",
"0  c #442029",
"q  c #4A262C",
"w  c #4C2928",
"e  c #532B23",
"r  c #502D2A",
"t  c #533223",
"y  c #5B3325",
"u  c #55302D",
"i  c #59352D",
"p  c #462133",
"a  c #4A2335",
"s  c #4F2834",
"d  c #4E2638",
"f  c #4F2839",
"g  c #51273A",
"h  c #552B3C",
"j  c #592E3E",
"k  c #552E33",
"l  c #563032",
"z  c #5B3434",
"x  c #633529",
"c  c #6A3B2B",
"v  c #683A29",
"b  c #713F2D",
"n  c #603736",
"m  c #633A35",
"M  c #60323F",
"N  c #643C39",
"B  c #683F38",
"V  c #6B3F33",
"C  c #753F30",
"Z  c #6B4B2D",
"A  c #73412F",
"S  c #6C413A",
"D  c #744336",
"F  c #794332",
"G  c #73463B",
"H  c #77483C",
"J  c #755431",
"K  c #7A5934",
"L  c #5B2E41",
"P  c #562842",
"I  c #5E3142",
"U  c #5F3448",
"Y  c #633445",
"T  c #6B3745",
"R  c #6C3947",
"E  c #663749",
"W  c #693649",
"Q  c #67384A",
"!  c #6D3B4C",
"~  c #713E4E",
"^  c #743F50",
"/  c #764151",
"(  c #7C4454",
")  c #874D37",
"_  c #834E3D",
"`  c #865137",
"'  c #8D543B",
"]  c #8C583A",
"[  c #92563C",
"{  c #96593F",
"}  c #995B3E",
"|  c #8D683C",
" . c #99653F",
".. c #996C3F",
"X. c #9B5D40",
"o. c #814757",
"O. c #844857",
"+. c #85475B",
"@. c #854958",
"#. c #8B4D5B",
"$. c #8A4B57",
"%. c #914F5C",
"&. c #8F505D",
"*. c #92515E",
"=. c #9B545E",
"-. c #A3595E",
";. c #886144",
":. c #A36A44",
">. c #A56A44",
",. c #A57346",
"<. c #AA7B48",
"1. c #B07F4A",
"2. c #994E60",
"3. c #914A61",
"4. c #8C5060",
"5. c #955461",
"6. c #9A5662",
"7. c #9D5963",
"8. c #A35B65",
"9. c #AA5E66",
"0. c #A65E69",
"q. c #AC5F68",
"w. c #A25463",
"e. c #B05F67",
"r. c #B25C6A",
"t. c #B85E6C",
"y. c #A66166",
"u. c #AD6166",
"i. c #AE6168",
"p. c #B16267",
"a. c #B86767",
"s. c #B4626A",
"d. c #BB666C",
"f. c #BE686D",
"g. c #C3676E",
"h. c #C26A6E",
"j. c #CA6E6F",
"k. c #D16F6D",
"l. c #CC716E",
"z. c #C97D6F",
"x. c #C6736E",
"c. c #D4746E",
"v. c #DA746F",
"b. c #DC7A6F",
"n. c #C66B70",
"m. c #CA6E71",
"M. c #CD7270",
"N. c #CC7971",
"B. c #D47570",
"V. c #DB7770",
"C. c #D37C73",
"Z. c #DD7A71",
"A. c #E47D72",
"S. c #E97F72",
"D. c #AD824A",
"F. c #B2844C",
"G. c #D48273",
"H. c #DB8475",
"J. c #D78872",
"K. c #DE8A76",
"L. c #E68273",
"P. c #EA8273",
"I. c #E38C77",
"U. c #ED8B75",
"Y. c #E58E78",
"T. c #F18D76",
"R. c #E59076",
"E. c #E79078",
"W. c #EA9479",
"Q. c #EE987A",
"!. c #F19177",
"~. c #F39579",
"^. c #F49B7B",
"/. c #F99D7C",
"(. c #F7A17E",
"). c #FDA57F",
"_. c #FFA87F",
"`. c #FFA780",
"'. c #FFAA80",
"]. c None",
/* pixels */
"].].].].].].].].].].].].].].].].].].].].].].].].].].].].].].].].].].].].].].].].].].].].].].].].].].].].].].].].].].].].].].].].].].].].].].].].].].].].].].].].",
"].].].].].].].].].].].].].].].].].].].].].].].].].].].].].].].].]., , ].].].= = = = ].].].].].].].].].].].].].].].].].].].].].].].].].].].].].].].].].].].].].].",
"].].].].].].].].].].].].].].].].].].].].].].].].].].]., ].].].].h ~ W 5 ].I o.( ( @.Y ].].].].].].].].].].].].].].].].].].].].].].].].].].].].].].].].].].].].].",
"].].].].].].].].].].].].].].].].].].].].].].].].].].h W h ].Y W o.&.o.L T =.i.8.8.0.*.h ].].].].].].].].].].].].].].].].].].].].].].].].].].].].].].].].].].].].",
"].].].].].].].].].].].].].].].].].].].].].].].].].p / #./ j 7.7.7.=.O.#.d.m.d.7.7.7.8.&.a a g a ].].].].].].].].].].].].].].].].].].].].].].].].].].].].].].].].",
"].].].].].].].].].].].].].].].].].].].].].].].].a / @.( $.=.6.7.7.5.7.Z.j.d.h.d.7.7.7.5.5.o.o.E = ].].].].].].].].].].].].].].].].].].].].].].].].].].].].].].].",
"].].].].].].].].].].].].].].].].].].].].].].].].p o.( #.5.7.d.7.5.u.Z.A.A.M.d.f.7.&.9.d.s.5.#.( Y o ].].].].].].].].].].].].].].].].].].].].].].].].].].].].].].",
"].].].].].].].].].].].].].].].].].].].].].].].a ! #.#.8.p.p.f.n.9.0.Z.L.V.B.B.d.i.h.h.g.h.s.#.$.*.~ < ].].].].].].].].].].].].].].].].].].].].].].].].].].].].].",
"].].].].].].].].].].].].].].].].].].].].].].d ~ *.7.0.a.n.h.j.S.c.p.h.V.m.V.A.j.M.A.Z.j.n.n.5.&.0.9.~ ].].].].].].].].].].].].].].].].].].].].].].].].].].].].].",
"].].].].].].].].].].].].].].].].].].].].a p W %.7.5.d.h.h.h.A.A.P.b.d.f.A.P.L.P.A.L.L.Z.f.f.9.5.q.h.9.! 6 a ].].].].].].].].].].].].].].].].].].].].].].].].].].",
"].].].].].].].].].].].].].].].].].].].6 ( o.( #.7.7.5.h.A.d.A.A.S.Z.n.V.~.`._./.n.A.V.h.n.7.5.u.h.h.n.%.( ^ , ].].].].].].].].].].].].].].].].].].].].].].].].].",
"].].].].].].].].].].].].].].].].].].h ( o.o.( #.d.5.h.A.A.Z.A.~.I.g.A.^.)._.`.).Q.P.B.q.8.p.l.f.8.h.q.#.o.o.^ a ].].].].].].].].].].].].].].].].].].].].].].].].",
"].].].].].].].].].].].].].].].].].; Y #.o.#.5.e.h.i.Z.P.A.P.~._.^.H.S.`.`.`.`._./.U.V.j.q.B.S.V.f.9.7.*.$.o.o.g ].].].].].].].].].].].].].].].].].].].].].].].].",
"].].].].].].].].].].].].].].].].].].L @.$.5.p.h.f.n.B.A.A.Z./._.).^.U.^.`.)././.A.A.P.I.g.A.L.L.v.7.7.7.*.o.( a ].].].].].].].].].].].].].].].].].].].].].].].].",
"].].].].].].].].].].].].].].].].].1 Y @.6.7.5.0.n.h.d.B.A.g.Z./.!.U._.A.^.~.A.A.A.A.^./.h.d.Z.B.d.h.7.7.#.o.o.h g a ].].].].].].].].].].].].].].].].].].].].].].",
"].].].].].].].].].].].].].].].].= Y o.@.6.7.5.u.A.7.d.h.j.A.S.A.~._.).).U.A.A.A.A./.`.`./.n.f.n.d.7.7.#.o.#.5.5.+.Y = ].< ].].].].].].].].].].].].].].].].].].].",
"].].].].].].].].].].].].].].].= Y #.*.O.7.5.h.A.A.Z.8.w.l.P.A.A.~.'._.`.U.A.A.A.j.m.Q._.U.Z.m.i.7.7.#.o.#.5.5.a.0.@.L = @.j ].].].].].].].].].].].].].].].].].].",
"].].].].].].].].].].].].].].a Y #.7.5.o.5.5.p.v.L.l.8.a.B.B.A.A.U./.`.^.P.V.V.Q.g.g.I.T.A.S.Z.h.0.5.#.o.#.9.h.h.r.7.$.=.7.4.M ].].].].].].].].].].].].].].].].].",
"].].].].].].].].].].].].].].g O.*.7.5.#.5.7.5.a.V.8.h.A.A.j.U.A.v.L./.A.A.B.K.`.G.A.A.A.A.A.P.V.s.5.9.#.=.l.P.j.C.x.s.n.9.0.*.j ].].].].].].].].].].].].].].].].",
"].].].].].].].].].].].].].].d ( o.%.7.7.7.6.p.n.f.g.V.L.A.U._.G.d.h.A.A.n.I.`._.`.U.A.P.A.S.S.B.s.8.h.0.h.S.S.P.)./.A.g.h.9.7.%.6 ].].].].].].].].].].].].].].].",
"].].].].].].].].].].].].].].a o.@.o.#.7.7.s.n.h.h.h.f.B.T.`.`.`.K.h.P.A.^._._._.'.U.A.L.P.P.k.d.h.h.h.h.8.-.P._._.`.^.A.h.0.#.o.( 6 ].].].].].].].].].].].].].].",
"].].].].].].].].].].].].].a W ! &.#.@.7.7.8.d.d.8.h.h.h.M.G.`.^.L.B.l.S.U./.`._.H.l.Z.A.h.M.h.h.d.9.h.0.o.%.m.C./.).P.A.A.h.8.#.( ( h ].].].].].].].].].].].].].",
"].].].].].].].].].].].].g W ^ @.5.7.&.*.7.5.8.p.i.9.d.f.n.V.!.L.S.A.d.B.k.L.~.H.h.d.h.h.B.d.f.j.d.7.s.#.%.e.d.j.U.I.B.P.V.m.f.9.#.$.Y = ].].].].].].].].].].].].",
"].].].].].].].].].].].1 Y / / 5.7.7.&.o.7.7.5.0.h.8.h.h.f.v.A.A.A.B.d.m.g.m.c.d.h.a.u.h.A.B.n.d.i.5.&.( =.h.B.S.S.k.n.Z.s.d.n.p.7.@.Y p ].].].].].].].].].].].].",
"].].].].].].].].].].].1 I / @.( *.*.( @.=.7.7.8.f.h.L.x.5.7.Z.P.B.d.n.L.c.g.f.h.n.8.h.P.A.A.m.q.5.5.~ o.( w.S.A.A.l.d.d.7.s.p.6.7.@./ Y 1 ].].].].].].].].].].].",
"].].].].].].].].].].].< Y / o.o.@.o.o.o.@.5.7.7.8.A.A.P.B.6.d.^.I.g.P.A.A.B.d.h.A.m.9.a.L.u.7.8.*.~ / s.8.( %.n.8.( =.h.7.7.7.7.7.@.^ ! Q 1 ].].].].].].].].].].",
"].].].].].].].].].].].].p E @.o.o.o.o.@.*.7.#.*.d.u.A.v.8.8.Q.`.`.E.m.P.v.h.m.A.A.A.m.p.p.7.#.#.o.~ p.h.h.0.( %.o.7.d.g.g.5.5.6.@./ ^ Y f ].].].].].].].].].].].",
"].].].].].].].].].].].].].L ( o.( #.#./ *.5.8.q.h.u.h.u.5.a.K.`./.G.g.B.h.h.h.h.A.Z.B.d.*.7.#./ ~ ~ =.g.d.=.( #.( *.s.h.9.O.o.#./ ! ! I , ].].].].].].].].].].].",
"].].].].].].].].].].].].].h ^ ( @.5.5.( ( &.u.h.h.d.7.5.9.h.t.E.H.r.d.f.h.f.i.8.Z.j.d.p.5.7.5.( ~ ! E 9.7.( #.7.5.( #.e.o.! ^ / / ! ~ Y < ].].].].].].].].].].].",
"].].].].].].].].].].].].1 h ! ! *.8.7.7.! / #.0.d.o.*.5.0.h.h.d.n.a.7.f.h.u.7.n.d.h.q.5.7.7.7.*.( ! o.( ( #.7.7.7.&.o.o.o.^ ! ^ o.~ ! I < ].].].].].].].].].].].",
"].].].].].].].].].].].].< L ^ ! ! #.5.! ! ! ( @.@.o.o.*.7.8.h.f.B.B.4.7.7.7.7.7.h.q.7.5.@.7.#.( ! ! ! ( o.o.+.7.#.( $.6.o.^ / o.o.@.Y 1 ].].].].].].].].].].].].",
"].].].].].].].].].].].].].a L ! ! / ( W ! ! ! / o.o.o.@.#.7.8.B.L.L.v.*.5.7.8.s.*.7.5.+.o.$.( ! ! ! ! ~ ( o.@.#.o.&.7.7.5.$./ ( @./ g ].].].].].].].].].].].].].",
"].].].].].].].].].].].].].].5 j W ! ! / ( ^ ! ! @.@.@.@.5.7.6.a.V.A.h.$.@.8.d.h.9.*.#.( ( o./ ! / / / Q ( #./ / o.@.*.7.#.( / ! ( ! Q g ].].].].].].].].].].].].",
"].].].].].].].].].].].].].].]., W ^ / @.( %.#.$.( ( / #.6.7.7.6.h.c.5.@.( =.a.h.d.*.( / ! ( / o.#.o.*.o.*.5./ ! / ~ / *.~ ! ! ! ! ! ! L 1 ].].].].].].].].].].].",
"].].].].].].].].].].].].].].].6 ( @.*.y.#.d.m.s.o.~ ! ^ +.7.5.s.h.h.d.$.o.( *.d.@.( ( ! ! ! ( *.5.#.h.u.7.7.7./ ! ! ! ! o./ ! ! ! ! g ].].].].].].].].].].].].].",
"].].].].].].].].].].].].].].d / ( 2.C.(.A.A.B.d.d.@.! Q / #.7.#.q.d.o.o.( o.o.$.! ( ( W ! ( 5.5.8.d.h.g.q.7.5.7.#.~ ~ @.o.o.( ! ! d ].].].].].].].].].].].].].].",
"].].].].].].].].].].].].].].a ^ w.H._.`._.U.A.V.f.( 9.%.Y @.#.o.$.%.( ( 9.7.^ o.! ^ ! / 5.5.&.a.Z.Z.t.E.N.4.d.5.5.#./ / o.( / / Q p ].].].].].].].].].].].].].].",
"].].].].].].].].].].].].].1 Y 8.8.N.^.`.^.P.S.Z.9.8.h.s.*./ ( o.+.#.o.8.g.d.5.^ ! ! / *.6.i.a.v.P.P.I.).^.C.h.s.0.5.#./ o./ U j ! p ].].].].].].].].].].].].].].",
"].].].].].].].].].].].].a E @.d.p.r.x.Q.A.v.V.l.8.d.n.d.8.! / @.5.5.#.d.n.g.9.! ! ! #.8.9.m.A.P.A.P.Q._._.Y.g.d.0.=.*.o.( ! h h ! L a ].].].].].].].].].].].].].",
"].].].].].].].].].].].< I ( 8.7.Z.Z.s.6.A.p.y.h.f.7.d.w.Y ! ! *.8.8.7.5.s.9.^ o.! ( &.0.n.A.P.L.A.Z.6.Q.J.5.d.7.7.&.( ( / s h / ~ ~ h ].].].].].].].].].].].].].",
"].].].].].].].].].].].1 L ( 9.Z.L.S.Z.d.8.s.B.Z.d.7.8.*./ ! o.( 8.d.5.7.8.*./ ~ ! ( ( 5.h.d.~.^.k.0.Z.L.L.c.7.5.7.&.( o./ ! j f ~ f ].].].].].].].].].].].].].].",
"].].].].].].].].].].].1 I ^ o.q.A.A.n.f.s.B.A.L.b.8.7.&.( ! ( q.d.h.d.8.7.7.#.! ( ( #.7.u.Q._._.W.r.m.A.A.h.5.7.7.*.( ! ! / j p h ].].].].].].].].].].].].].].].",
"].].].].].].].].].].].< Y ! Q 8.f.a.s.n.n.h.Z.A.x.7.&.#.( ~ ( 7.d.h.8.*.6.6.@.! / o.5.7.8.J.(.).I.d.d.B.h.0.q.7.*.#.o.@.! ! I , ].].].].].].].].].].].].].].].].",
"].].].].].].].].].].].1 L / *.h.9.6.7.d.d.6.a.l.&.7.&.o./ ! ( / 7.q.( ( *.#.( ^ ! ^ #.5.w.+.Y.!.Z.j.h.d.9.u.n.q.&.( *.7.( / Y s ].].].].].].].].].].].].].].].].",
"].].].].].].].].].].].1 h #.h.h.h.u.*.7.7.7.5.5.7.7.7.@.! ! ! ( ( $.7.$.o.( o.o.~ ! / #.5.7.c.A.S.A.h.7.y.h.h.h.*.&.7.7.7.( ! E 1 ].].].].].].].].].].].].].].].",
"].].].].].].].].].].].1 Y ~ ( h.7.o.#.7.f.0.7.5.#.7.&./ ! ! ! / 5.7.7.7.#.^ ^ o.~ W / o.@.d.8.l.A.=.7.8.&.=.h.#.o.( ( 7./ / Y 5 ].].].].].].].].].].].].].].].].",
"].].].].].].].].].].].].a Y ~ $./ ^ *.h.h.h.8.o.o.( o./ ! ! ! / ( 5.7.#.( ! ! ^ W #.#.*.d.h.d.d.u.5.5.#.( #.y.( / ! ! ( / I a ].].].].].].].].].].].].].].].].].",
"].].].].].].].].].].].].].a I E ! ~ @.w.h.d.7.( o.! ( ( ! ! ! ! ~ ( #.( ^ ! ! ~ #.5.5.*.q.h.p.7.5.7.p.#.@.*.7.&./ / / Q ! h ].].].].].].].].].].].].].].].].].].",
"].].].].].].].].].].].].].].a ! / Q Q ( u.7.O.( ( / / / W Q ! ! / / ( / ! ! ! / *.7.7.&.( a.&.( 7.q.h.9.*.5.7.5.o.( o.~ ~ j < ].].].].].].].].].].].].].].].].].",
"].].].].].].].].].].].].].].p W ! ! ( 8.( / / / / Q Q / Y 6 ! ! / @.o.( / ! ! ! Q *.&.( +.7.#.( *.h.g.h.8.@.7.o.o.o.o.o.~ f ].].].].].].].].].].].].].].].].].].",
"].].].].].].].].].].].].].].].p U #.7.7.7.( / / ! / / ! Y 1 p Q ! / ( / ! ! / o.! ! / #.7.7.7.&.o.%.h.6.o.o.@.o.~ ( o.! d ].].].].].].].].].].].].].].].].].].].",
"].].].].].].].].].].].].].].]., Y / #.7.( ( / Q Q s U / W 6 6 Q / ! / / ! / ( o.( ^ / @.&.5.s.7.^ o.=.o.( @.o.o.~ ~ ~ ~ d ].].].].].].].].].].].].].].].].].].].",
"].].].].].].].].].].].].].].p I ! ! / #./ o.( / ! < Y ! f ].].h E / ! j ! / ( o.( / / o.@.u.f.d.6.^ ( #.@.^ @.@.E Y ! h ].].].].].].].].].].].].].].].].].].].].",
"].].].].].].].].].].].].].].p Q / W Y W ( @.o.( ! h Q Y a ].].; I ! Y 1 j W / ( ! E / ( ( u.n.f.w.~ @.7.*.( o.o.j I W d ].].].].].].].].].].].].].].].].].].].].",
"].].].].].].].].].].].].].].].< Y j d ! ! ( / ! ! ! / / E 5 ].0 Y Q 5 3 > j ! ! ! a E ( / / a.=.E @.7.7.7.5.( W ! ! ! ! a ].].].].].].].].].].].].].].].].].].].",
"].].].].].].].].].].].].].].].].a 5 f ! p / ( ! ! p Y Y 5 ].1 E / ! Q q < I E p ! ! ! / Q / / ( o.o.o.7.#.~ o.a 1 Y ! 6 ].].].].].].].].].].].].].].].].].].].].",
"].].].].].].].].].].].].].].].].1 I ! ! W I E / ~ a h d ].].].d ! ! d 5 I ! ! Q ! ! / ( ! E #.( / ( / ( ( ( o.( h f g ].].].].].].].].].].].].].].].].].].].].].",
"].].].].].].].].].].].].].].].].].h ! ! I 1 h ! j ].< ].].].].].h h > > h W ! I ! / ( o.( @.7.=.O./ ! Q / o.@./ h , ].].].].].].].].].].].].].].].].].].].].].].",
"].].].].].].].].].].].].].].].].].].a W 6 a Y ! a ].].].].].].].].0 3 % : h I 1 Q ( o.o.( *.7.=.&./ Q ! E R / 1 ].].].].].].].].].].].].].].].].].].].].].].].].",
"].].].].].].].].].].].].].].].].].].].1 1 Y ~ ! W a ].].].].].].].7 9 3 3 7 1 a ! ! / ( / E &.@.! ( / / j < 1 ].].].].].].].].].].].].].].].].].].].].].].].].].",
"].].].].].].].].].].].].].].].].].].].].].5 E ! p ].].].].].].].].3 9 w 3 3 9 p ! f 1 h / ! / ( @.o.o./ I , ].].].].].].].].].].].].].].].].].].].].].].].].].].",
"].].].].].].].].].].].].].].].].].].].].].].d d ].].].].].].].].$ w i w 3 > s Q ! ! h d / ! ! I E @./ / ! I 1 ].].].].].].].].].].].].].].].].].].].].].].].].].",
"].].].].].].].].].].].].].].].].].].].].].].].].].].].].].].].+ r n z i 9 w h I / U s q j ! / j a ! I ! ! j ].].].].].].].].].].].].].].].].].].].].].].].].].].",
"].].].].].].].].].].].].].].].].].].].].].].].].].].].].].].9 y A S z z w u l 5 Y f w w 1 Q ! h < , , I h ].].].].].].].].].].].].].].].].].].].].].].].].].].].",
"].].].].].].].].].].].].].].].].].].].].].].].].].].].].].y S X._ B G z 8 w z w 5 z z k a ! L 1 ].].].1 ].].].].].].].].].].].].].].].].].].].].].].].].].].].].",
"].].].].].].].].].].].].].].].].].].].].].].].].].].].].Z F.X.H r y { G w i B z u S z d ~ ! ! I 1 ].].].].].].].].].].].].].].].].].].].].].].].].].].].].].].].",
"].].].].].].].].].].].].].].].].].].].].].].].].].].O A ] J c # x ' X.H l z S z N S m s g ~ P 2 ].].].].].].].].].].].].].].].].].].].].].].].].].].].].].].].].",
"].].].].].].].].].].].].].].].].].].].].].].].].].].].c A ].  K :.X.H i D G B B _ H B m z L ;.K ].].].].].].].].].].].].].].].].].].].].].].].].].].].].].].].].",
"].].].].].].].].].].].].].].].].].].].].].].].].].].].].o ].Z <.>.F z e ' [ G G } D B S m - ,...X ].].].].].].].].].].].].].].].].].].].].].].].].].].].].].].].",
"].].].].].].].].].].].].].].].].].].].].].].].].].].].].].t F.>.c . 4 } } { ' B { v i m @ @ ) F O ].].].].].].].].].].].].].].].].].].].].].].].].].].].].].].].",
"].].].].].].].].].].].].].].].].].].].].].].].].].].].].].e X.A @ ].t F.>.F $ e { <.| o ].].4 4 ].].].].].].].].].].].].].].].].].].].].].].].].].].].].].].].].",
"].].].].].].].].].].].].].].].].].].].].].].].].].].].].].].x 4 ].].e >.` 4 ].].y :.' X ].].].].].].].].].].].].].].].].].].].].].].].].].].].].].].].].].].].].",
"].].].].].].].].].].].].].].].].].].].].].].].].].].].].].].].].].].3 F 4 ].].].].c x ].].].].].].].].].].].].].].].].].].].].].].].].].].].].].].].].].].].].].",
"].].].].].].].].].].].].].].].].].].].].].].].].].].].].].].].].].].].O ].].].].].O ].].].].].].].].].].].].].].].].].].].].].].].].].].].].].].].].].].].].].].",
"].].].].].].].].].].].].].].].].].].].].].].].].].].].].].].].].].].].].].].].].].].].].].].].].].].].].].].].].].].].].].].].].].].].].].].].].].].].].].].].].",
"].].].].].].].].].].].].].].].].].].].].].].].].].].].].].].].].].].].].].].].].].].].].].].].].].].].].].].].].].].].].].].].].].].].].].].].].].].].].].].].].",
"].].].].].].].].].].].].].].].].].].].].].].].].].].].].].].].].].].].].].].].].].].].].].].].].].].].].].].].].].].].].].].].].].].].].].].].].].].].].].].].].",
"].].].].].].].].].].].].].].].].].].].].].].].].].].].].].].].].].].].].].].].].].].].].].].].].].].].].].].].].].].].].].].].].].].].].].].].].].].].].].].].].",
"].].].].].].].].].].].].].].].].].].].].].].].].].].].].].].].].].].].].].].].].].].].].].].].].].].].].].].].].].].].].].].].].].].].].].].].].].].].].].].].].",
"].].].].].].].].].].].].].].].].].].].].].].].].].].].].].].].].].].].].].].].].].].].].].].].].].].].].].].].].].].].].].].].].].].].].].].].].].].].].].].].]."
};
