/* XPM */
static char *_8675_d863e637e06ab830e599757d50d41ec10b9324fcb8da7a3d0d6e88943e0b1fd2[] = {
/* columns rows colors chars-per-pixel */
"80 80 188 2 ",
"   c #180007",
".  c #010017",
"X  c #02021D",
"o  c #1C091A",
"O  c #07141C",
"+  c #08161E",
"@  c #07181E",
"#  c #081A1E",
"$  c #18181E",
"%  c #2F0F0E",
"&  c #250317",
"*  c #2F1011",
"=  c #2C1E1D",
"-  c #24181B",
";  c #341616",
":  c #391917",
">  c #3B1D19",
",  c #361B17",
"<  c #0B241F",
"1  c #3D201F",
"2  c #010122",
"3  c #00002A",
"4  c #050B23",
"5  c #071721",
"6  c #081721",
"7  c #091B21",
"8  c #0A1A2D",
"9  c #0B2522",
"0  c #032C25",
"q  c #0D2B25",
"w  c #0E2D29",
"e  c #0E2628",
"r  c #152422",
"t  c #102F27",
"y  c #102D2D",
"u  c #1A2C2A",
"i  c #1B2C27",
"p  c #0F3027",
"a  c #00302C",
"s  c #003D2F",
"d  c #0E332A",
"f  c #113427",
"g  c #11332C",
"h  c #133A2C",
"j  c #133A27",
"k  c #10273E",
"l  c #112A3F",
"z  c #073733",
"x  c #133531",
"c  c #143C33",
"v  c #15373E",
"b  c #173B3D",
"n  c #183F3D",
"m  c #242522",
"M  c #272A24",
"N  c #3A2322",
"B  c #372825",
"V  c #421F1C",
"C  c #44221E",
"Z  c #49241D",
"A  c #432522",
"S  c #4A2522",
"D  c #4A2924",
"F  c #482729",
"G  c #4E292A",
"H  c #512B25",
"J  c #542E2B",
"K  c #592F26",
"L  c #56312C",
"P  c #59322D",
"I  c #542A36",
"U  c #563134",
"Y  c #5B3334",
"T  c #633634",
"R  c #623A35",
"E  c #6C3E36",
"W  c #643B38",
"Q  c #6C3E39",
"!  c #703C37",
"~  c #0F482E",
"^  c #194A2B",
"/  c #17442B",
"(  c #1E542C",
")  c #094634",
"_  c #164333",
"`  c #184634",
"'  c #134A36",
"]  c #1A4C34",
"[  c #17423A",
"{  c #1A443D",
"}  c #1C4B3D",
"|  c #174C3C",
" . c #1C5334",
".. c #1E533C",
"X. c #1F5A3C",
"o. c #1A5737",
"O. c #225C27",
"+. c #215D33",
"@. c #21563E",
"#. c #225D3D",
"$. c #2A6F2A",
"%. c #26672D",
"&. c #2F792D",
"*. c #307C2D",
"=. c #246535",
"-. c #266934",
";. c #286E36",
":. c #24633D",
">. c #25693D",
",. c #296D3E",
"<. c #27703F",
"1. c #2E7C3D",
"2. c #2A7338",
"3. c #30793A",
"4. c #6D423A",
"5. c #6F4135",
"6. c #734232",
"7. c #72443B",
"8. c #7C463A",
"9. c #73493A",
"0. c #7C4A3A",
"q. c #774D37",
"w. c #7B5539",
"e. c #1C4C40",
"r. c #1E5441",
"t. c #1F5943",
"y. c #205641",
"u. c #215C42",
"i. c #246443",
"p. c #266B43",
"a. c #286E42",
"s. c #277143",
"d. c #2A7343",
"f. c #2C7B43",
"g. c #307E42",
"h. c #844C3B",
"j. c #84513D",
"k. c #8C533D",
"l. c #845A3B",
"z. c #93553D",
"x. c #955A3E",
"c. c #9B5C3F",
"v. c #8D643A",
"b. c #9B633E",
"n. c #9D6C3D",
"m. c #92673D",
"M. c #9D723D",
"N. c #A36A3F",
"B. c #A2653F",
"V. c #A76C40",
"C. c #A86B41",
"Z. c #AA7740",
"A. c #AD7C40",
"S. c #B07941",
"D. c #33832B",
"F. c #368C2F",
"G. c #388F2E",
"H. c #39912F",
"J. c #2F803D",
"K. c #31833D",
"L. c #358B3E",
"P. c #3B9533",
"I. c #3E9D3E",
"U. c #3C9930",
"Y. c #3FA03F",
"T. c #45AB35",
"R. c #41A43D",
"E. c #44AB3B",
"W. c #42A637",
"Q. c #47B137",
"!. c #49B535",
"~. c #4BBA33",
"^. c #47B038",
"/. c #49B439",
"(. c #4BB939",
"). c #4EC136",
"_. c #2E8144",
"`. c #318442",
"'. c #358C41",
"]. c #379142",
"[. c #399542",
"{. c #3C9A42",
"}. c #3FA143",
"|. c #41A640",
" X c #B48341",
".X c #B98941",
"XX c #B88641",
"oX c None",
/* pixels */
"oXoXoXoXoXoXoXoXoXoXoXoXoXoXoXoXoXoXoXoXoXoXoXoXoXoXoXoXoXoXoXoXoXoXoXoXoXoXoXoXoXoXoXoXoXoXoXoXoXoXoXoXoXoXoXoXoXoXoXoXoXoXoXoXoXoXoXoXoXoXoXoXoXoXoXoXoXoXoXoX",
"oXoXoXoXoXoXoXoXoXoXoXoXoXoXoXoXoXoXoXoXoXoXoXoXoXoXoXoXoXoXoXoXoXoXoXoXoXoXoXoXoXoXoXoXoXoXoXoXoXoXoXoXoXoXoXoXoXoXoXoXoXoXoXoXoXoXoXoXoXoXoXoXoXoXoXoXoXoXoXoX",
"oXoXoXoXoXoXoXoXoXoXoXoXoXoXoXoXoXoXoXoXoXoXoXoXoXoXoXoXoXoXoXoXoXoXoXoXoXoXoXoXoXoXoXoXoXoXoXoXoXoXoXoXoXoXoXoXoXoXoXoXoXoXoXoXoXoXoXoXoXoXoXoXoXoXoXoXoXoXoXoX",
"oXoXoXoXoXoXoXoXoXoXoXoXoXoXoXoXoXoXoXoXoXoXoXoXoXoXoXoXoXoXoXoXoXoXoXoXoXoXoXoXoXoXoXoXoXoXoXoXoXoXoXoXoXoXoXoXoXoXoXoXoXoXoXoXoXoXoXoXoXoXoXoXoXoXoXoXoXoXoXoX",
"oXoXoXoXoXoXoXoXoXoXoXoXoXoXoXoXoXoXoXoXoXoXoXoXoXoXoXoXoXoXoXoXoXoXoXoXoXoXoXoXoXoXoXoXoXoXoXoXoXoXoXoXoXoXoXoXoXoXoXoXoXoXoXoXoXoXoXoXoXoXoXoXoXoXoXoXoXoXoXoX",
"oXoXoXoXoXoXoXoXoXoXoXoXoXoXoXoXoXoXoXoXoXoXoXoXoXoXoXoXoXoXoXoXoXoX6 @ 6 6 6 6 9 oXoXoXoXoXoXoXoXoXoXoXoXoXoXoXoXoXoXoXoXoXoXoXoXoXoXoXoXoXoXoXoXoXoXoXoXoXoXoX",
"oXoXoXoXoXoXoXoXoXoXoXoXoXoXoXoXoXoXoXoXoXoXoXoXoXoXoXoXoXoXoX< . ^ K.1.1.1.1.1.:.g O < oXoXoXoXoXoXoX2 2 2 2 2 2 oXoXoXoXoXoXoXoXoXoXoXoXoXoXoXoXoXoXoXoXoXoXoX",
"oXoXoXoXoXoXoXoXoXoXoXoXoXoXoXoXoXoXoXoXoXoXoXoXoXoXoXoXoXoXoXx [ ,.[.L._.'.[.L.p.@.] x oXoXoXoX2 oXoX&.P.F.F.H.U.$.oXoXoXoXoXoXoXoXoXoXoXoXoXoXoXoXoXoXoXoXoXoX",
"oXoXoXoXoXoXoXoXoXoXoXoXoXoXoXoXoXoXoXoXoXoXoXoXoXoXoXoXoXoXg } u.d.K.'.i.a.L.L.d.a.u.b r oXoXO.&.$.%.Q.).(.(.(.(.P. .` oXoXoXoXoXoXoXoXoXoXoXoXoXoXoXoXoXoXoXoX",
"oXoXoXoXoXoXoXoXoXoXoXoXoXoXoXoXoXoXoXoXoXoXoXoXoXoXoXoXoXy e.u.p.i.i.'.:.e.a.'.L.d.y.@.@./ e G.).~.~.~.~.!.!.[.].{.].d.h q 9 oXoXoXoXoXoXoXoXoXoXoXoXoXoXoXoXoX",
"oXoXoXoXoXoXoXoXoXoXoXoXoXoXoXoXoXoXoXoXoXoXoXoXoXoXoXoX8 n n { @.p.p.i.'.,.#.'.a.{ a.I./.!.!.R.}.~.~.~.E.{.{._.`.d.u.f w w w 9 oXoXoXoXoXoXoXoXoXoXoXoXoXoXoXoX",
"oXoXoXoXoXoXoXoXoXoXoXoXoXoXoXoXoXoXoXoX2 2 2 2 2 2 X *.W.`.`.@.v } @.i.d.@.y.d.e.d.I.!.~.R.I.E.Q.~.Y.Y.I.[._.p.p.t.p oXoXoXoXoXoXoXoXoXoXoXoXoXoXoXoXoXoXoXoXoX",
"oXoXoXoXoXoXoXoXoXoXoXoXoXoXoXoXoXX oX< F.P.G.G.F.F.F.T.(.E.^.L.d.>.b y.i.y.} y.a.I./.~.E.[.I./.~.E.{.'.'.`.p.e.r.c . oXoXoXoXoXoXoXoXoXoXoXoXoXoXoXoXoXoXoXoXoX",
"oXoXoXoXoXoXoXoXoXoXoXoXoXoXoXoX+.+.` -.^././.!.~.).~.(.~.~.~.E.E.[.u.y.u.y.n } [./.!.|.'.I.^./.W.'.].f.d.p.t.e.e.X.( oXoXoXoXoXoXoXoXoXoXoXoXoXoXoXoXoXoXoXoXoX",
"oXoXoXoXoXoXoXoXoXoXoXoXoXoXh q '.].`.I.[.I.I.I.~.!.(.~.!./.!./.!.^.[._.@.{ { @.I.Q.W.'.g./.Y.[.].d.f.p.u.y.{ { y.f.1.9 g oXoXoXoXoXoXoXoXoXoXoXoXoXoXoXoXoXoXoX",
"oXoXoXoXoXoXoXoXoXoXoXoXoX^ f.d.f.`.|.~.Q.~.~.Q.~.!.~.~.^.{.[.I.I.I.{.{.`.u.u.{.Q.R.'.g.[.}.I.'.d.i.i.e.{ e.{ { } e.} { i./ X 6 oXoXoXoXoXoXoXoXoXoXoXoXoXoXoXoX",
"oXoXoXoXoXoXoXoXoXoXoXoXc p._._.f.f.].|.|.|.{.E.~.(.~.(.~.^./.I._.f.s._._.i.p.}.|.f._.[.}._._.f.i.u.e.e.{ } i.i.i.u.p.K.`.1.L.;.. oXoXoXoXoXoXoXoXoXoXoXoXoXoXoX",
"oXoXoXoXoXoXoXoXoXoXoX` u.p.s.a.s.d.f.'.'.].{.{.E.|.E.W.W.E.E.E.}._.f.p.f.s.s.[.'.i._.}._.f.s.i.t.e.b b v { @.@.y.:.a.`.L.'.`.g.-.q oXoXoXoXoXoXoXoXoXoXoXoXoXoX",
"oXoXoXoXoXoXoXoXoXoX9 ..X.......r.i.f.d.d.`.'.'.].].[.[.[.[.[.^.|.{.[.p.d.p.f.[.d.s._._.t.s.p.p.d.i.i.i.,.,.v b b y.u.u.`.'.g.a.g.] t oXoXoXoXoXoXoXoXoXoXoXoXoX",
"oXoXoXoXoXoXoXoXoXoXq 9 9 9 9 9 5 ' u.u.u.u.u.i.f.d.].[.[.[.[.[.[.[.f.f.p.p.f.f.i.].].s.i.t.d.'.{.{.{.{.^.T.} @.@.} { { #.1.'.1.e.i.] 9 oXoXoXoXoXoXoXoXoXoXoXoX",
"oXoXoXoXoXoXoXoXoXq oXoXoXoXoXoXoX@ y } u.i.u.i.i.i.i.p.p.p.f.g.f.f.i.f.f.s.p.f.i.f.s.i.f.f.].}.{.I././.!.~.Q.!.!.L.k } g { u.a.i.} u.] @ oXoXoXoXoXoXoXoXoXoXoX",
"oXoXoXoXoXoXoXoXoXoXoXoXoXoXoXX . =.g.u.p.t.e.e.} e.u.u.u.u.p.p.p.t.t.i.i.s.s.i.t.i.i.i.i.p.p.s.d.`.|.|.^.~.(.~.~.R.,.3 oXt h @.a.i.y._ # oXoXoXoXoXoXoXoXoXoXoX",
"oXoXoXoXoXoXoXoXoXoXoXoXoXX 7 ;.#.,.f.y.r.{ e.t.y.{ e.e.e.e.y.y.d.f.s.s.p.s.i.i.i.i.t.i.s.p.s.p.d.'.`._.[.^.~.!.~.Q.W.D.oXoXoXg @.u.u.} g oXoXoXoXoXoXoXoXoXoXoX",
"oXoXoXoXoXoXoXoXoXoXoXoX^ o.+.`.a.t.u.#.#.r.t.i.u.{ u.i.i.i.a.a.].[.s.f.f.s.i.i.t.i.i.p.f.f._._.].[._.'.'.I.^.!.!.~.~.(.*.oXoXoX7 c @.u.} 9 oXoXoXoXoXoXoXoXoXoX",
"oXoXoXoXoXoXoXoXoXoXoX4 2.].'.i...{ i.L.L.d.@.{ @.{ '.I.I.I.{.{.[._.u.p.u.d.f.f.i.t.d.f.u.f.d._.[.{.{./.E.[.{.!.~.!.~.!.~.*.4 oXoX9 O } :.< oXoXoXoXoXoXoXoXoXoX",
"oXoXoXoXoXoXoXoXoXoX# } g.L.i.{ 1.'.L.'.a.@.l ,.Q.I.].E.^.[.{.d.t.d.[.{._.g.d.i.f.i.s._.d.i.i.i.a._.[.{.E.~.!.~.~.!.~.~.~.(.D.X oXoXoXf g q q oXoXoXoXoXoXoXoXoX",
"oXoXoXoXoXoXoXoXoXp X.f.f.d.`.1.'.`.d.d.@.k 3.^.~.Q.^.E.{.p.p.g._.|.|.|._.f.d.i.f.i.s.`.[.d.i.t.i.p._.d.'.E.(.~.~.~.Q.{.I.(.E.;.. oXoXoXoXoXw oXoXoXoXoXoXoXoXoX",
"oXoXoXoXoXoXoXoXoXt i.K.K.f.'.'.`.a.u...v #.I.~.~.~./.[.d.g.L.W.|.|.|.{._.d.p.i.f.s.p.f.'.'.p.t.r.u.a.u.d.[.E.|.Q.~.!.W.[.R.|.[.;.6 oXoXoXoXoXoXoXoXoXoXoXoXoXoX",
"oXoXoXoXoXoXoXoXoX` d.K.].'.`.K.p.u.y.{ #.[.^.~.!.^.[.d.g.E.~.~.|.|._.f.f.i.t.i.d.`.d.t.f.R.`.u.e.t.t.t.p.f.].[.E.^./.^.{.[.[.[.{.>.h oXoXoXoXoXoXoXoXoXoXoXoXoX",
"oXoXoXoXoXoXoX+ ` a.'.L.L._.i.i.i.@.b y.[./.~.~./.I.d.1.E.!.!.~.|.].f.f.p.r.e.i.f.[.`.i.`.Q.E.`.t.{ { t.t.i.f.[.[.[.[.[.{.{.'._.{.}.=.4 oXoXoXoXoXoXoXoXoXoXoXoX",
"oXoXoXoXoXoXoXoXc p.'.L.1.i.i.e.} { { i.[.^.~.~.~.Q.Q.Q./.!.~.Y.|.{.f.i.i.t.i.f.f.].{.`.i.[.Q.E.g.v } { t.i.i.i.f.f.`.{.{.{.[.'.f.{.`.+.X oXoXoXoXoXoXoXoXoXoXoX",
"oXoXoXoXoXoX@ ` ,.K.d.d.i.r.@.x { e.i.[.E.~.~.!.~.~.~.~.~.~.R.I.[.g.i.i.r.t.p.f.f.'.E.R.u.[.^.!.W.g.{ { e.e.r.t.i.d._.`.`.[.{.{.'.'.d.| . oXoXoXoXoXoXoXoXoXoXoX",
"oXoXoXoXoXoXX  .d.1.p.t.} x x oX8 :.'.{.~.E.E.~.!.(.!.^.E.|.{.'.d.p.u.y.e.e.p.f.f.I.!.W.t.].^.~.Q.[.f.@.n { e.y.y.p.d.a.d.'.].'.'.f.d.p.o.oXoXoXoXoXoXoXoXoXoXoX",
"oXoXoXoXoXoXh #.i.u.#.} w < 9 oXp K.}.Y.Q.Y.E.~.~.!./.|.].].].a.y.u.y.n n y.p.f.d.E.~.T.f.[.Q.~.!.Y.|.:.n ..{ n y.y.y.i.d.d.p.s.s.f.f.f.d.5 oXoXoXoXoXoXoXoXoXoX",
"oXoXoXoXoX9 #.p.u.n e 9 oXoXoX7 s.'.Y.!.[.Q.~.~.!.!.}.[.].d.f.i.u.y.e.e.e.r.p.f.f.W.(.~.!.{.E.~.~.!.{.i.@.i.} } e.{ e.u.u.f [ i.u.t.u.d.<.q oXoXoXoXoXoXoXoXoXoX",
"oXoXoXoXoX9 { e.{ q oXoXoXoXoXX L.{.{.{.[.Q.~./.{.I.{.].f.f.i.u.y.e.e.b b y.u.p.[.I.E.~.!.{.^.~.!.!.{.{.d.} i.i.e.y.u.{ w oXoXx p w t.i.i.u.p oXoXoXoXoXoXoXoXoX",
"oXoXoXoXoX9 { { w oXoXoXoXoXg >.].{.{.[.[.}.}.}.[.`.`.`.d.p.i.r.e.{ e.u.e.y.u.p.[.{.|.~.!.[.^.~.!.~.^.R.d.{ p.i.i.y.@.i.u.g oXoXoXoXh ` _ _ f oXoXoXoXoXoXoXoXoX",
"oXoXoXoXoX9 _ g oXoXoXoXoXoXh f.[.{.[.{.{.'.'.`.g.f.s.a.p.u.r.e.{ e.y.p.e.e.y.i.'.].E.!./.E.W.^.~.!.~.R.d.n u.i.i.u.r.@.p.i.h oXoXoXoX@ oX@ w oXoXoXoXoXoXoXoXoX",
"oXoXoXoXoXq 9 oXoXoXoXoXoXoXd s.`.[.{.{.]._.f.d.t.f.i.u.u.y.e.{ n e.p.i.e.b e.i.a.'.R.!.!.~.{.E.~.!.~.R.g.b e.i.a.a.u.@.u.p.>.^ oXoXoXoXoXoX9 oXoXoXoXoXoXoXoXoX",
"oXoXoXoXoXq oXoXoXoXoXoXoXoX/ f.i.f.{.]._.f.f.d.t.t.t.i.u.} p.@.{ y.i.p.r.e.e.i.t.'.{.Y.~.~.{.W.~.~.~.R.g.r.{ u.`.1.i.i.} y._.K.w oXoXoXoXoXoXoXoXoXoXoXoXoXoXoX",
"oXoXoXoXoXoXoXoXoXoXoXoXoX] f.i.d.f._.f.f._.d.t.w p { } } p.'.#.e.d.L.i.e.{ e.i.u.'.[.|.~.~.I.R.~.!.!.R.g.r.} i.i.g.`.i.i.} y.d.K.j oXoXoXoXoXoXoXoXoXoXoXoXoXoX",
"oXoXoXoXoXoXoXoXoXoXoXoXX  ._.t.d._.f._.s.X.' x oXoX7 { p.`.:.u.u.d.L.p.i.y.[ ) u.f.].|.~.!.Q.Q.~.!.~.[.a.r.} i.i.f.L.f.i.#.u.f.L.w oXoXoXoXoXoXoXoXoXoXoXoXoXoX",
"oXoXoXoXoXoXoXoXoXoXoXoXoX` d.a.f.f.p.X.| w . oXoXoXc >.`.'.{ u.d.g.'.i.p...i = ` s.g.].E.~.~.~.~.!.E.[.d.t.{ @.:.1.'.'.f.g.a.i.f.;.^ oXoXoXoXoXoXoXoXoXoXoXoXoX",
"oXoXoXoXoXoXoXoXoXoXoXoXg ] i.f.f.p.[ X # oXoXoXoX5 >.'.L.1...u.1.[.L.p.i.` - V $ i.f.'.{.E.!.Q.!.!.[.{.`.r.n { y.d.'.L.L.[.K.p.i.].+.X oXoXoXoXoXoXoXoXoXoXoXoX",
"oXoXoXoXoXoXoXoXoXoXoX# ..i.i.f.p._ O oXoXoXoXoXoXw K.L.1.n i.i.g.L.`.p.@.z m D r | _.{.{.[.Q.E.{.!.{.{.`.{ 9 { { e.d.`.L.'.'.K.i.'.+.7 oXoXoXoXoXoXoXoXoXoXoXoX",
"oXoXoXoXoXoXoXoXoXoXoX@ | i.u.h g t oXoXoXoXoXoXh K.L.L.f.{ u.`.'.`.i.p.y.z m S r | d.`.{.[./.E.{.{.{.{.3.2 oXq { e.@.a.'.L.'.'.'.L.L.-.X oXoXoXoXoXoXoXoXoXoXoX",
"oXoXoXoXoXoXoXoXoXoXoX@ ..i.h oXoXoXoXoXoXoXoXoXw K.'.[.K.u.f.L.L.L.u.y.c m A U > i :._._.[.}.{.{.{.{.'.=.. oXoXt x c y.d.d.g.L.'.d.'.3.2 oXoXoXoXoXoXoXoXoXoXoX",
"oXoXoXoXoXoXoXoXoXoXoX9 _ ` oXoXoXoXoXoXoXoXoX^ ;.L.L.K.d.g.L.[.`.d.i.} a = H W A o o.s._.{.[.{.].'.{.`.#.4 oXoXoXoXy c @.u.d.`.L.i.f.=.X oXoXoXoXoXoXoXoXoXoXoX",
"oXoXoXoXoXoXoXoXoXoXoXq 9 oXoXoXoXoXoXoXoXoXX +.].'.'.d.a.L.'.K.d.u.#.{ u 1 P 4.U N c i._.'.[.{.].f.{.`.+.4 oXoXoXoXoX9 c ..:.a.`.i.i.] @ oXoXoXoXoXoXoXoXoXoXoX",
"oXoXoXoXoXoXoXoXoXoXoX9 oXoXoXoXoXoXoXoXoXoXoX+.'.'.'.1.d.L.].d.i.#.n 0 , A J Y 4.H & ~ f.f.[.{.].f.{._.:.X oXoXoXoXoXoXe O ] i.i.p.p.@.+ oXoXoXoXoXoXoXoXoXoXoX",
"oXoXoXoXoXoXoXoXoXoXoXoXoXoXoXoXoXoXoXoXoXoXoX( ].L.'.L.'.'.'.d.@.{ w oX, G U Y 4.L = s p.f.[.{.].f._._.=.X oXoXoXoXoXoXoXoX9 ] p.i.p...# oXoXoXoXoXoXoXoXoXoXoX",
"oXoXoXoXoXoXoXoXoXoXoXoXoXoXoXoXoXoXoXoXoX# ` ,.].L.d.f.L.L.d.a.u.n 9 oX  6.k.5.k.E F B ) f._.[.[.f.f._.:.2 oXoXoXoXoXoXoXoXoXt ] i.p.] # oXoXoXoXoXoXoXoXoXoXoX",
"oXoXoXoXoXoXoXoXoXoXoXoXoXoXoXoXoXoXoXoXoX+ ..f.L.f.d.L.'.d.i.u.} x oXoXJ 5.0.W h.7.P N 0 s.f._._.f.f.s.t.5 oXoXoXoXoXoXoXoXoXoX9 ] p.X.@ oXoXoXoXoXoXoXoXoXoXoX",
"oXoXoXoXoXoXoXoXoXoXoXoXoXoXoXoXoXoXoXoXoX+ ] d.L.i.K.L.1.i.i.} f oXoX: E 4.R R 7.7.Y D M ..p.f.f.f.f.p.| 7 oXoXoXoXoXoXoXoXoXoXoXX  ...7 oXoXoXoXoXoXoXoXoXoXoX",
"oXoXoXoXoXoXoXoXoXoXoXoXoXoXoXoXoXoXoXoXoX+ } d.'.i.K.f.u.i.} y oXoXoX: R k.k.7.b.h.W Y D $ | s._.f._.p.' 5 oXoXoXoXoXoXoXoXoXoXoXoX9 w q oXoXoXoXoXoXoXoXoXoXoX",
"oXoXoXoXoXoXoXoXoXoXoXoXoXoXoXoXoXoXoXoXoX+  .p.p.i.p.p.i.{ g oXoXoXoX; k.k.R R  XN.h.W Y D m | p.f._.r.5 oXoXoXoXoXoXoXoXoXoXoXoXoXoX9 q oXoXoXoXoXoXoXoXoXoXoX",
"oXoXoXoXoXoXoXoXoXoXoXoXoXoXoXoXoXoXoXoXoX@ } p.i.i.i.u.} g oXoXoXoXoX* 5.j.k.k.l.h.Q U U E B ) s.f.a._ oXoXoXoXoXoXoXoXoXoXoXoXoXoXoXoXoXoXoXoXoXoXoXoXoXoXoXoX",
"oXoXoXoXoXoXoXoXoXoXoXoXoXoXoXoXoXoXoXoXoX@ ..p.i.p.p.@.y oXoXoXoXoXV P U h.c.z.h.4.4.8.0.T B s t.a.i.` 6 oXoXoXoXoXoXoXoXoXoXoXoXoXoXoXoXoXoXoXoXoXoXoXoXoXoXoX",
"oXoXoXoXoXoXoXoXoXoXoXoXoXoXoXoXoXoXoXoXoX7 ] i.i.p.i.] O oXoXoXoXoXS 4.Q 8.x.V.N.0.l.C.z.Z oXoXc i.X.h oXoXoXoXoXoXoXoXoXoXoXoXoXoXoXoXoXoXoXoXoXoXoXoXoXoXoXoX",
"oXoXoXoXoXoXoXoXoXoXoXoXoXoXoXoXoXoXoXoXoX< c y.p.i.y.x < oXoXoXoXoXA 5.z.h.l..XXXq.m. Xx.D oXoX_ t.w oXoXoXoXoXoXoXoXoXoXoXoXoXoXoXoXoXoXoXoXoXoXoXoXoXoXoXoXoX",
"oXoXoXoXoXoXoXoXoXoXoXoXoXoXoXoXoXoXoXoXoX9 c @.i.} c r oXoXoXoXoXoXZ z.x.x.z.7.4.k.8.w.XX9.S oXoXg w oXoXoXoXoXoXoXoXoXoXoXoXoXoXoXoXoXoXoXoXoXoXoXoXoXoXoXoXoX",
"oXoXoXoXoXoXoXoXoXoXoXoXoXoXoXoXoXoXoXoXoXoXe | a.c r oXoXoXoXoXoXoXS 7.A.n.Q k.k.x.z.h.l.W D oXoXoXw oXoXoXoXoXoXoXoXoXoXoXoXoXoXoXoXoXoXoXoXoXoXoXoXoXoXoXoXoX",
"oXoXoXoXoXoXoXoXoXoXoXoXoXoXoXoXoXoXoXoXoXoXoXh  .w oXoXoXoXoXoXoXoXC U v.w.Q c.z.z.V.V.I 0.K oXoXoXoXoXoXoXoXoXoXoXoXoXoXoXoXoXoXoXoXoXoXoXoXoXoXoXoXoXoXoXoXoX",
"oXoXoXoXoXoXoXoXoXoXoXoXoXoXoXoXoXoXoXoXoXoXoXw 7 oXoXoXoXoXoXoXoXoXV E T Q h.z.B.N.Z.M.! c.! N oXoXoXoXoXoXoXoXoXoXoXoXoXoXoXoXoXoXoXoXoXoXoXoXoXoXoXoXoXoXoXoX",
"oXoXoXoXoXoXoXoXoXoXoXoXoXoXoXoXoXoXoXoXoXoXq t q oXoXoXoXoXoXoXoXoXH z.c.b.k.7. X.Xm.7.c.z.0.Y ; oXoXoXoXoXoXoXoXoXoXoXoXoXoXoXoXoXoXoXoXoXoXoXoXoXoXoXoXoXoXoX",
"oXoXoXoXoXoXoXoXoXoXoXoXoXoXoXoXoXoXoXoXoXoXq 9 oXoXoXoXoXoXoXoXoXH 4.4.M.S.h.U 4.9.R Q c.9.J : oXoXoXoXoXoXoXoXoXoXoXoXoXoXoXoXoXoXoXoXoXoXoXoXoXoXoXoXoXoXoXoX",
"oXoXoXoXoXoXoXoXoXoXoXoXoXoXoXoXoXoXoXoXoXoXoXoXoXoXoXoXoXoXoXoXoXA P 4.l.0.0.h.h.h.k.k.E 7.J oXoXoXoXoXoXoXoXoXoXoXoXoXoXoXoXoXoXoXoXoXoXoXoXoXoXoXoXoXoXoXoXoX",
"oXoXoXoXoXoXoXoXoXoXoXoXoXoXoXoXoXoXoXoXoXoXoXoXoXoXoXoXoXoXoXoXoXoX: P T ! x.A.Z.V.z.0.R R S : oXoXoXoXoXoXoXoXoXoXoXoXoXoXoXoXoXoXoXoXoXoXoXoXoXoXoXoXoXoXoXoX",
"oXoXoXoXoXoXoXoXoXoXoXoXoXoXoXoXoXoXoXoXoXoXoXoXoXoXoXoXoXoXoXoXoXoXoX% P 8.b.A.XXc.7.W R : oXoX> oXoXoXoXoXoXoXoXoXoXoXoXoXoXoXoXoXoXoXoXoXoXoXoXoXoXoXoXoXoXoX",
"oXoXoXoXoXoXoXoXoXoXoXoXoXoXoXoXoXoXoXoXoXoXoXoXoXoXoXoXoXoXoXoXoXoXoXoX% L 4.Q z.Q U J , oXoXoXoXoXoXoXoXoXoXoXoXoXoXoXoXoXoXoXoXoXoXoXoXoXoXoXoXoXoXoXoXoXoXoX",
"oXoXoXoXoXoXoXoXoXoXoXoXoXoXoXoXoXoXoXoXoXoXoXoXoXoXoXoXoXoXoXoXoXoXoXoXoXC S C Z E R : oXoXoXoXoXoXoXoXoXoXoXoXoXoXoXoXoXoXoXoXoXoXoXoXoXoXoXoXoXoXoXoXoXoXoXoX",
"oXoXoXoXoXoXoXoXoXoXoXoXoXoXoXoXoXoXoXoXoXoXoXoXoXoXoXoXoXoXoXoXoXoXoXoX> > oXoXoXD S oXoXoXoXoXoXoXoXoXoXoXoXoXoXoXoXoXoXoXoXoXoXoXoXoXoXoXoXoXoXoXoXoXoXoXoXoX",
"oXoXoXoXoXoXoXoXoXoXoXoXoXoXoXoXoXoXoXoXoXoXoXoXoXoXoXoXoXoXoXoXoXoXoXoXoXoXoXoXoXoXoXoXoXoXoXoXoXoXoXoXoXoXoXoXoXoXoXoXoXoXoXoXoXoXoXoXoXoXoXoXoXoXoXoXoXoXoXoX",
"oXoXoXoXoXoXoXoXoXoXoXoXoXoXoXoXoXoXoXoXoXoXoXoXoXoXoXoXoXoXoXoXoXoXoXoXoXoXoXoXoXoXoXoXoXoXoXoXoXoXoXoXoXoXoXoXoXoXoXoXoXoXoXoXoXoXoXoXoXoXoXoXoXoXoXoXoXoXoXoX",
"oXoXoXoXoXoXoXoXoXoXoXoXoXoXoXoXoXoXoXoXoXoXoXoXoXoXoXoXoXoXoXoXoXoXoXoXoXoXoXoXoXoXoXoXoXoXoXoXoXoXoXoXoXoXoXoXoXoXoXoXoXoXoXoXoXoXoXoXoXoXoXoXoXoXoXoXoXoXoXoX",
"oXoXoXoXoXoXoXoXoXoXoXoXoXoXoXoXoXoXoXoXoXoXoXoXoXoXoXoXoXoXoXoXoXoXoXoXoXoXoXoXoXoXoXoXoXoXoXoXoXoXoXoXoXoXoXoXoXoXoXoXoXoXoXoXoXoXoXoXoXoXoXoXoXoXoXoXoXoXoXoX",
"oXoXoXoXoXoXoXoXoXoXoXoXoXoXoXoXoXoXoXoXoXoXoXoXoXoXoXoXoXoXoXoXoXoXoXoXoXoXoXoXoXoXoXoXoXoXoXoXoXoXoXoXoXoXoXoXoXoXoXoXoXoXoXoXoXoXoXoXoXoXoXoXoXoXoXoXoXoXoXoX",
"oXoXoXoXoXoXoXoXoXoXoXoXoXoXoXoXoXoXoXoXoXoXoXoXoXoXoXoXoXoXoXoXoXoXoXoXoXoXoXoXoXoXoXoXoXoXoXoXoXoXoXoXoXoXoXoXoXoXoXoXoXoXoXoXoXoXoXoXoXoXoXoXoXoXoXoXoXoXoXoX",
"oXoXoXoXoXoXoXoXoXoXoXoXoXoXoXoXoXoXoXoXoXoXoXoXoXoXoXoXoXoXoXoXoXoXoXoXoXoXoXoXoXoXoXoXoXoXoXoXoXoXoXoXoXoXoXoXoXoXoXoXoXoXoXoXoXoXoXoXoXoXoXoXoXoXoXoXoXoXoXoX",
"oXoXoXoXoXoXoXoXoXoXoXoXoXoXoXoXoXoXoXoXoXoXoXoXoXoXoXoXoXoXoXoXoXoXoXoXoXoXoXoXoXoXoXoXoXoXoXoXoXoXoXoXoXoXoXoXoXoXoXoXoXoXoXoXoXoXoXoXoXoXoXoXoXoXoXoXoXoXoXoX"
};
