/* XPM */
static char *_0226_3b5f0a5847f97328d2c40f5f0481bdc45a5a3d0b4ed8ee16a7a2cfa742644387[] = {
/* columns rows colors chars-per-pixel */
"80 80 236 2 ",
"   c #000000",
".  c #000D00",
"X  c #001600",
"o  c #0A190F",
"O  c #390000",
"+  c #2E0F0D",
"@  c #003805",
"#  c #002619",
"$  c #003717",
"%  c #102714",
"&  c #081B22",
"*  c #050E2A",
"=  c #0A2926",
"-  c #043629",
";  c #13382C",
":  c #053C32",
">  c #173933",
",  c #0D272F",
"<  c #392824",
"1  c #253C3A",
"2  c #2F3331",
"3  c #35231B",
"4  c #4E0F08",
"5  c #522615",
"6  c #482926",
"7  c #552D29",
"8  c #4A3634",
"9  c #5A3333",
"0  c #562F2E",
"q  c #663B37",
"w  c #753B20",
"e  c #712D14",
"r  c #004900",
"t  c #005702",
"y  c #004A18",
"u  c #005719",
"i  c #017703",
"p  c #006518",
"a  c #067310",
"s  c #034829",
"d  c #005929",
"f  c #044733",
"g  c #18473A",
"h  c #085833",
"j  c #19573A",
"k  c #16402F",
"l  c #215938",
"z  c #254835",
"x  c #006529",
"c  c #027428",
"v  c #1A6838",
"b  c #197336",
"n  c #116D30",
"m  c #287939",
"M  c #246E35",
"N  c #6D423A",
"B  c #794839",
"V  c #764329",
"C  c #173444",
"Z  c #283D46",
"A  c #1E5341",
"S  c #274A46",
"D  c #344646",
"F  c #265A45",
"G  c #394C55",
"H  c #385856",
"J  c #30544C",
"K  c #1F6241",
"L  c #246444",
"P  c #256B44",
"I  c #2B6848",
"U  c #257244",
"Y  c #2C7B44",
"T  c #2B7546",
"R  c #327A49",
"E  c #3A6757",
"W  c #3A7953",
"Q  c #35674C",
"!  c #42595C",
"~  c #58575A",
"^  c #4E484B",
"/  c #42685C",
"(  c #45765B",
")  c #495C65",
"_  c #5D5F64",
"`  c #496966",
"'  c #55656C",
"]  c #4B7465",
"[  c #53766B",
"{  c #576B75",
"}  c #5C747B",
"|  c #5A7776",
" . c #4E6673",
".. c #656467",
"X. c #666D73",
"o. c #64787B",
"O. c #72787D",
"+. c #675B5B",
"@. c #95573C",
"#. c #854E38",
"$. c #905741",
"%. c #9A6E45",
"&. c #A66F45",
"*. c #048801",
"=. c #039902",
"-. c #138F0B",
";. c #2A9611",
":. c #1BA400",
">. c #31AB08",
",. c #178727",
"<. c #0B8428",
"1. c #2B9629",
"2. c #319A2B",
"3. c #28873A",
"4. c #359936",
"5. c #2D8C2D",
"6. c #39A527",
"7. c #3EA339",
"8. c #43B919",
"9. c #42A839",
"0. c #49B635",
"q. c #42AE2A",
"w. c #328445",
"e. c #358C46",
"r. c #388A49",
"t. c #379344",
"y. c #338547",
"u. c #47875A",
"i. c #469750",
"p. c #4AA64A",
"a. c #58AA5A",
"s. c #53AE52",
"d. c #55856B",
"f. c #559468",
"g. c #5D8673",
"h. c #538D69",
"j. c #638879",
"k. c #669A79",
"l. c #72987F",
"z. c #6BA87B",
"x. c #70B977",
"c. c #5EA964",
"v. c #76C379",
"b. c #B2804B",
"n. c #5F7680",
"m. c #637A83",
"M. c #677C87",
"N. c #737E84",
"B. c #6C838C",
"V. c #6A8685",
"C. c #75878B",
"Z. c #6C9983",
"A. c #76958E",
"S. c #6F8692",
"D. c #748B95",
"F. c #7B8D94",
"G. c #768D99",
"H. c #798F9C",
"J. c #718795",
"K. c #7B9A95",
"L. c #7B929C",
"P. c #799595",
"I. c #74A589",
"U. c #78A88C",
"Y. c #7D94A1",
"T. c #828D93",
"R. c #839B9D",
"E. c #84969B",
"W. c #808A8F",
"Q. c #84A99B",
"!. c #89B79A",
"~. c #859BA5",
"^. c #879DA8",
"/. c #899EA9",
"(. c #869AA2",
"). c #919EA4",
"_. c #8CA2AC",
"`. c #8CA6A5",
"'. c #9BA9AE",
"]. c #94A7AB",
"[. c #95B6AA",
"{. c #8FA4B0",
"}. c #91A6B2",
"|. c #95ABB3",
" X c #9CADB3",
".X c #99ABB9",
"XX c #9CB3B3",
"oX c #9DB3BB",
"OX c #98B5B3",
"+X c #8FB1A8",
"@X c #A1AFB4",
"#X c #A3B1B6",
"$X c #A5B4BA",
"%X c #A2B9BE",
"&X c #ABB9BE",
"*X c #A7B8BB",
"=X c #8BC795",
"-X c #9BC2AE",
";X c #A5C3BA",
":X c #ADD6BC",
">X c #A5BBC2",
",X c #AABEC4",
"<X c #A4B8C3",
"1X c #B0BFC3",
"2X c #ABC1C7",
"3X c #ADC3C9",
"4X c #AACAC1",
"5X c #B2C6CC",
"6X c #B4CACD",
"7X c #B6C6C9",
"8X c #BAD6CC",
"9X c #B6CBD2",
"0X c #BACED3",
"qX c #B3C6D1",
"wX c #BDD2D5",
"eX c #BED4D7",
"rX c #C2D6DA",
"tX c #C5DADC",
"yX c #CADCDE",
"uX c #C1D4D5",
"iX c #C9E2DC",
"pX c #CADEE1",
"aX c #C7DDE1",
"sX c #CEE2E4",
"dX c #D1E5E6",
"fX c #D3E6E9",
"gX c #D5E9EA",
"hX c #DAEDED",
"jX c #D3EAE6",
"kX c #DCEFF1",
"lX c #DEF0F1",
"zX c #E3F3F4",
"xX c #ECFBFB",
"cX c #E7F6F8",
"vX c #F3FFFF",
"bX c None",
/* pixels */
"bXbXbXbXbXbXbXbXbXbXbXbXbXbXbXbXbXbXbXbXbXbXbXbXbXbXbXbXbXbXbXbXbXbXbXbXbXbXbXbXbXbXbXbXbXbXbXbXbXbXbXbXbXbXbXbXbXbXbXbXbXbXbXbXbXbXbXbXbXbXbXbXbXbXbXbXbXbXbXbX",
"bXbXbXbXbXbXbXbXbXbXbXbXbXbXbXbXbXbXbXbXbXbXbXbXbXbXbXbXbXbXbXbXbXbXbXbXbXbXbXbXbXbXbXbXbXbXbXbXbXbXbXbXbXbXbXbXbXbXbXbXbXbXbXbXbXbXbXbXbXbXbXbXbXbXbXbXbXbXbXbX",
"bXbXbXbXbXbXbXbXbXbXbXbXbXbXbXbXbXbXbXbXbXbXbXbXbXbXbXbXbXbXbXbXbXbXbXbXbXbXbXbXbXbX, * * C C bXbXbXbXbXbXbXbXbXbXbXbXbXbXbXbXbXbXbXbXbXbXbXbXbXbXbXbXbXbXbXbXbX",
"bXbXbXbXbXbXbXbXbXbXbXbXbXbXbXbXbXbXbXbXbXbXbXbXbXbXbXbXbXbXbXbXbXbXbXbXbXbXbXbXbXn.Y.(.~.J.G.} bXbXbXbXbXbXbXbXbXbXbXbXbXbXbXbXbXbXbXbXbXbXbXbXbXbXbXbXbXbXbXbX",
"bXbXbXbXbXbXbXbXbXbXbXbXbXbXbXbXbXbXbXbXbXbXbXbXbXbXbXbXbXbXbXbXbXbXbXbXbX$ J ' ) oXaXhXgX9X9X|.G bXbXbXbXbXbXbXbXbXbXbXbXbXbXbXbXbXbXbXbXbXbXbXbXbXbXbXbXbXbXbX",
"bXbXbXbXbXbXbXbXbXbXbXbXbXbXbXbXbXbXbXbXbXbXbXbXbXbXbXbXbXbXbXbXbXbX& bX  t k.,X%XtXdXjXdXsXjXrX/.Z bXbXbXbXbXbXbXbXbXbXbXbXbXbXbXbXbXbXbXbXbXbXbXbXbXbXbXbXbXbX",
"bXbXbXbXbXbXbXbXbXbXbXbXbXbXbXbXbXbXbXbXbXbXbXbXbXbXbXbXbXbXbX& * l m   F.|.;XpXtXzXxXxXxXxXhXsXeX_.G bXbXbXbXbXbXbXbXbXbXbXbXbXbXbXbXbXbXbXbXbXbXbXbXbXbXbXbXbX",
"bXbXbXbXbXbXbXbXbXbXbXbXbXbXbXbXbXbXbXbXbXbXbXbXbXbXbXbXbXbXbXg > s w.A.0XyXdXcXzXvXvXvXvXvXxXhXdXeX|.} bXbXbXbXbXbXbXbXbXbXbXbXbXbXbXbXbXbXbXbXbXbXbXbXbXbXbXbX",
"bXbXbXbXbXbXbXbXbXbXbXbXbXbXbXbXbXbXbXbXbXbXbXbXbXbXbXbXbXbXu h h l l.5XtXfXlXxXvXvXvXvXvXvXvXzXfXgX0XC.* bXbXbXbXbXbXbXbXbXbXbXbXbXbXbXbXbXbXbXbXbXbXbXbXbXbXbX",
"bXbXbXbXbXbXbXbXbXbXbXbXbXbXbXbXbXbXbXbXbXbXbXbXbXbXbX .{ / a.u.R f._.,X>XwXdXdXvXvXvXvXvXvXhXsXgXsX5Xo.# ; = bXbXbXbXbXbXbXbXbXbXbXbXbXbXbXbXbXbXbXbXbXbXbXbXbX",
"bXbXbXbXbXbXbXbXbXbXbXbXbXbXbXbXbXbXbXbXbXbXbXbX= & * L.0XyXiXgX+Xr / /.].>X6X0XfXxXvXvXvXgXjXgXsX2X3X3XK.y = bXbXbXbXbXbXbXbXbXbXbXbXbXbXbXbXbXbXbXbXbXbXbXbXbX",
"bXbXbXbXbXbXbXbXbXbXbXbXbXbXbXbXbXbXbXbXbXbXbXbX; i K.7XgXvXxXvXgX[.r ` ` | g.V.9XdXxXvXhXgXtXeX0X2X3X>XV.      . bXbXbXbXbXbXbXbXbXbXbXbXbXbXbXbXbXbXbXbXbXbXbX",
"bXbXbXbXbXbXbXbXbXbXbXbXbXbXbXbXbXbXbXbXbXbXbXbX# I.6XgXxXvXvXvXvXhX+X;.c M *.*.j.wXlXlXdXrX`.C.(.%X>XV.A.@X'.R.` bXbXbXbXbXbXbXbXbXbXbXbXbXbXbXbXbXbXbXbXbXbXbX",
"bXbXbXbXbXbXbXbXbXbXbXbXbXbXbXbXbXbXbXbXbXbXbXbXV.9XdXcXvXvXvXvXvXxXdX=Xp.2.p.z.k.wXgXdXdX0XA.x Y G.J.j.6XxXhXtX{.{ bXbXbXbXbXbXbXbXbXbXbXbXbXbXbXbXbXbXbXbXbXbX",
"bXbXbXbXbXbXbXbXbXbXbXbXbXbXbXbXbXbXbXbXbX; X } 6XdXdXzXvXvXxXvXlXdXpX5Xv.:.I.0XjXgXjXgXgXgXrX!.6.h r 6XxXxXdXdXrX/.C bXbXbXbXbXbXbXbXbXbXbXbXbXbXbXbXbXbXbXbXbX",
"bXbXbXbXbXbXbXbXbXbXbXbXbXbXbXbXbXbXbXbX= v n d..X2XsXgXlXvXhXgXgXdX2X.Xs.U.6XjXdXcXvXvXxXgXfXrX`.*.1.OXaXhXfX5X9XE.  bXbXbXbXbXbXbXbXbXbXbXbXbXbXbXbXbXbXbXbXbX",
"bXbXbXbXbXbXbXbXbXbXbXbXbXbXbXbXbXbXbXbX* l n d E }.5X0XrXzXgXeX0X0X|.` =.=XfXgXcXvXvXvXvXxXhXdXwX+X,.[.wX0X0X3X>XA.t = bXbXbXbXbXbXbXbXbXbXbXbXbXbXbXbXbXbXbXbX",
"bXbXbXbXbXbXbXbXbXbXbXbXbXbXbXbXbXbXbX; M u d.`.].[ _.>X5XeXtX>X_.V.g.P.=XiXzXfXvXvXvXvXvXvXhXhXhX2XQ.K.`.$XoX%XL.( f & bXbXbXbXbXbXbXbXbXbXbXbXbXbXbXbXbXbXbXbX",
"bXbXbXbXbXbXbXbXbXbXbXbXbXbXbXbXbXbXbXg w.] |.dXlXK.V.+X,XoX>X(.u.i j.3XkXvXvXhXcXvXvXvXvXxXkXxXcX6X9Xf.( T.A.F.W d j l bXbXbXbXbXbXbXbXbXbXbXbXbXbXbXbXbXbXbXbX",
"bXbXbXbXbXbXbXbXbXbXbXbXbXbXbXbX= ; k A - |.tXlXvXlXl.[ _.(._.] :.U.qX1XlXvXvXxXdXcXvXvXxXjXxXvXxXsXqXv.;.n M n U T Y w.> bXbXbXbXbXbXbXbXbXbXbXbXbXbXbXbXbXbXbX",
"bXbXbXbXbXbXbXbXbXbXbXbXbXbXbXbX& h c x t OX5X0XgXkXK.d Q Q Q >.x..X7XdXgXcXxXgXgXgXgXgXgXfXgXcXxXsXqXx.>.0.R e.r.t.Y , bXbXbXbXbXbXbXbXbXbXbXbXbXbXbXbXbXbXbXbX",
"bXbXbXbXbXbXbXbXbXbXbXbXbXbXbXbX  o.%X6X8Xj.(.wX0XT.Y *.:.9.q.8.z..X5XqXsXhXlXdX6XpXdXdXdX9X3XsXlXdXqXz.*.i i *.3.w.P j = & bXbXbXbXbXbXbXbXbXbXbXbXbXbXbXbXbXbX",
"bXbXbXbXbXbXbXbXbXbXbXbXbXbXbXbXO.2XgXxXvX4XP.A.F.i Q.:X!.=.:.>.I.}.oX,XwXeXuXrXwXpXhXzXsXrX,X3XsXhX`.3.k.$X[.;Xh.p I U l y @ bXbXbXbXbXbXbXbXbXbXbXbXbXbXbXbXbX",
"bXbXbXbXbXbXbXbXbXbXbXbXbXbXbX' %XtXhXvXvXxX7X( i c.iXcXsX!.U.p.f.(._.>X>X>X,X2XgXgXxXvXhXhXrX3X2X4XM f.8XxXcXlX#X( h T c Z.j.@ g bXbXbXbXbXbXbXbXbXbXbXbXbXbXbX",
"bXbXbXbXbXbXbXbXbXbXbXbXbXbX{ 2X2XeXjXgXxXvXxX8X7.,XaXzXvXvXkX!.*.` _.~.Y.oX3X3XsXxXxXvXvXgXgXaX|.t <.8XxXvXxXgXkX*Xd P R tX;Xx L D { ' bXbXbXbXbXbXbXbXbXbXbXbX",
"bXbXbXbXbXbXbXbXbXbXbXbXbXbXD _.2X2XwXgXhXhXaX|.I ,X3XtXhXhXhXwXQ.c Q Q M V.oX3XdXfXcXxXgXgX0X3X-X>.<.uXlXgXgXgXwX2X[.p.sXhXyX_.# oX3XR., bXbXbXbXbXbXbXbXbXbXbX",
"bXbXbXbXbXbXbXbXbXbXbXbXbX; F ` _.>X5X9X9XrX|.( p.OX>XqX0XwXrXE.( 4.6.7.;.k..X3X6XsXhXlXgXwX3X<XQ.8.q.f.#XeXwX0X5X,X_.Y C.9X Xo.XX3X>X_.S.G bXbXbXbXbXbXbXbXbXbX",
"bXbXbXbXbXbXbXbXbXbXbXbXbX> j d ` (.>X3X3X+X[ i p.| }.3X%XF.P.i.;.p.0.0.6.I..XoX2XeXeXeXwX2X3XoXU.8.0.-.u.~.$XXX%X(.` f X X.! ` 2XoX_.}.Y.G bXbXbXbXbXbXbXbXbXbX",
"bXbXbXbXbXbXbXbXbXbXbXbXbXbX= L @ | |.oXOX] c t.P r | (.R.t u 7.0.q.4.2.6.k.(./.>X,X2X,X,X3X2X|.Z.q.0.8.a.A.A.C.L.[ u F d [ N.B.S./._._.Y.G bXbXbXbXbXbXbXbXbXbX",
"bXbXbXbXbXbXbXbXbXbXbXbXbXbXk z g V.}._.Q w.t.r.e.u.( / Q t.t.r.t.p.a.a.9.-.] /./.oX2X2X,X2X|.| c 9.0.8.:XrXn M n m t.t.i.eXdX].1 ~._.Y.M.G bXbXbXbXbXbXbXbXbXbX",
"bXbXbXbXbXbXbXbXbXbXbXbXbXl e.3.A._.|.2X3Xk.3.,.W rXcXzX:X=.e.r.=.v.fXdXx.:.9./ `.}.}.}.}.}.| P t.7.>.8XkXsX;Xs.q.0.6.f.iX0X2X2X>XH.Y.M.! bXbXbXbXbXbXbXbXbXbXbX",
"bXbXbXbXbXbXbXbXbXbXbXbXbXbXj h Y.}._..X9XZ.t ] %XgXlXlXgX8Xu.=.=XjXxXhXiX=X>.4.[  .] ] [ [ c i *.*.4.j.*X5XX.r.3.,.i R wX6X5X,X.X/.M.) bXbXbXbXbXbXbXbXbXbXbXbX",
"bXbXbXbXbXbXbXbXbXbXbXbXbX; g g | Y.{._.E./ H L.>XuXdXdXwXXXR I.:XfXcXgXgX-X:.9.5.b m 1.;.*.!.;X-X[.3.i g.A.a K @ V.XXK.C. X>X|././.o.bXbXbXbXbXbXbXbXbXbXbXbXbX",
"bXbXbXbXbXbXbXbXbXbXbXk g j P P y [ L.D.s t A.}./.oXrX0XA.r ,.OX,X5XaXsX>Xk.:.6.6.t.t.7.0.v.iXzXzXjXQ.s.*.,.7.b d.8XhX9X| j.(._.~.M.) Z bXbXbXbXbXbXbXbXbXbXbXbX",
"bXbXbXbXbXbXbXbXbXbX= l L P L L P j g J P 1.Z._././.%XA.r Y q.I.oX3X%X>Xo.4.c.c.f.r.w.t.x.dXjXcXxXjXkXQ.5.7.p.7.uXhXjXdX9X| | /.V.; > ) ) bXbXbXbXbXbXbXbXbXbXbX",
"bXbXbXbXbXbXbXbXbXbXbX, l P P P A y g.>XT b v | }.}.} U w.U T v J./.Q j _.wXgXcXdXz.i I.jXdXcXvXvXvXgX0XU.-.p.>X2XtXdX2X2X|.V.A F u [.oXG.G bXbXbXbXbXbXbXbXbXbX",
"bXbXbXbXbXbXbXbXbXbXbXbX> g g g d g.}.9X>Xg.s S ' [ R e.w.p -.1.u.( 3.`.,X5XtXzXhXiX;XoXwXgXhXcXvXhXhXeXK.p R g.oXwX9X2XOX}.V.$ S +X3X<X/.H.) bXbXbXbXbXbXbXbXbX",
"bXbXbXbXbXbXbXbXbXbXbXbXbX& bXbXr E L.oX(.` f f t b e.3.u.`.!.s.*.W A.3X3X2X3XrXtXaXeX3X2XeXsXlXzXdXtX0XK.d L p V.].oXoX/.{.Z.-.u.6X,X|._.~.{ bXbXbXbXbXbXbXbXbX",
"bXbXbXbXbXbXbXbXbXbXbXbXbXbXbXbX' } } J.- - h W Z.t.3.R D.3XqX!.i.f.|.<X2X3X3X2XoXoX%X>X2X,XeXsXyXtX2X3XP.d T T r ` L._._.{.Z.-.i.}._.^.Y.M.) bXbXbXbXbXbXbXbXbX",
"bXbXbXbXbXbXbXbXbXbXbXbXbXbXbX= oX0XXXj S g b I.3Xf.c V.{._.,XqX`.r././.%X2X2X>X_._.^.|.2X2X2X2X2X2X2X|.j.d L U T x ` _.~.].C.L K f L.~.M.G bXbXbXbXbXbXbXbXbXbX",
"bXbXbXbXbXbXbXbXbXbXbXbXbXo > E.,X3X3X%XG c k..X5X5X[ | _.{.3X9XQ.p / ^._._.].{._._.}._.}.3X2X3X3X3X}.}.Z.x C g P U I J : +XqX`.v (._./.M.# bXbXbXbXbXbXbXbXbXbX",
"bXbXbXbXbXbXbXbXbXbXbX= f E B._.|.%X3X].r.e.u.V.oXM.S.(._._.|.A.] n L ] (.}.}._.| ` ] V.}.}.|.|.|.}.}.V.T <.R g A h @ n `.2X9X>XF.! J.S.D bXbXbXbXbXbXbXbXbXbXbX",
"bXbXbXbXbXbXbXbXbXbXbXbX$ ` Y.(.~.|.oX~.M p u H } a P.{._._.}.] x y.U ;.f.V.B.m.v m *.m j._._._.{./.V.h g.U.3.Y $ } R.Q.3X3X>X|./. .n.) bXbXbXbXbXbXbXbXbXbXbXbX",
"bXbXbXbXbXbXbXbXbXbXbXbXbXH J.J.(.~.Y.D.X.o.H = s 1.d.D./._.L.] w.e.Y 0.5.s d x M 4.a.z.g.D.L.L.L.P.m R |.,Xh.t.Q ~.9X5X3X2X|./._.Y. .bXbXbXbXbXbXbXbXbXbXbXbXbX",
"bXbXbXbXbXbXbXbXbXbXbXbXbXbX) J.J.D.n.D ,X9X~.f j W Q { Y.~.L 3.t.y.Y 0.Y L y.e.U 1.!.0X3X` h f f M 6.K.#X>X~.t.K._.}.3X3X|./._./.H.! . bXbXbXbXbXbXbXbXbXbXbXbX",
"bXbXbXbXbXbXbXbXbXbXbXbXbXbXbX) ) } Y./._.>XqX`.P >X3XF.$ J y.t.y.U U P L P Y r.b D.oX3X3X2Xz.c P P 7.m D.(.F 3.K.}._._._._._.~.G.H.] s & bXbXbXbXbXbXbXbXbXbXbX",
"bXbXbXbXbXbXbXbXbXbXbXbXbXbX& , { S.K.}._._..X_.K.3X5X,XR.i <.3.y.P I L L T r.r.3.Y..XoX3XoXk.<.c d p *.u./ : U E D.}./._._.~.L.J.) F ; bXbXbXbXbXbXbXbXbXbXbXbX",
"bXbXbXbXbXbXbXbXbXbXbXbXbX; j s M.H.G.Y._._._._._.oX3XoXK.Q.+Xu.x K L L L Y e.,.,.d.L.|.oXB.m f.Q.K.K.!.f.t b K ] V./._._.~.Y.J.m.#   bXbXbXbXbXbXbXbXbXbXbXbXbX",
"bXbXbXbXbXbXbXbXbXbXbXbXbXg F v V.D.J.J.~._._._._.^.|.V.m.9XqXK.E f L L F b r.Z.z.v ` E.D.f u.[.0X5X9X9X_.( f.j B.G.G.Y._.Y.S.} Z bXbXbXbXbXbXbXbXbXbXbXbXbXbXbX",
"bXbXbXbXbXbXbXbXbXbXbXbXbXbX- j B.H.D.G.J.~._._._._.E } oX2X3X9XR.$ L U P K Z.9XqXZ.h s b d oX5X2X2X3X3XoX{.^.H n.G.G.J.G.G.[ y = bXbXbXbXbXbXbXbXbXbXbXbXbXbXbX",
"bXbXbXbXbXbXbXbXbXbXbXbXbXbXbX# B.H.D.D.D.G.G.G.D.D.E V.}.}.2X9XE.@ U b d K.3X3X,X3XF.u 7.v L.%X5X2X3X|./._._.G.H } Y.G.H.) - - bXbXbXbXbXbXbXbXbXbXbXbXbXbXbXbX",
"bXbXbXbXbXbXbXbXbXbXbXbXbXbXbXbX) S.H.G.G.J.J.D.D.H.h.U g._.|..Xo.F K.K.P V.>X6XqX<XS.y Y v E L.oX X|.}.~.Y.L.Y./ S ) / ` 1   bXbXbXbXbXbXbXbXbXbXbXbXbXbXbXbXbX",
"bXbXbXbXbXbXbXbXbXbXbXbXbXbXbXbXbX .J.H.G.D.D.G.G.} I ( D._.^._.D.S.}.}.P.| G.oX%XL.E f L P x / S.~.Y.^.M.n.G.| J : s - - j g bXbXbXbXbXbXbXbXbXbXbXbXbXbXbXbXbX",
"bXbXbXbXbXbXbXbXbXbXbXbXbXbXbXbXbXbX) B.J.G.H.J.n.: S B._._._._._.]._._.}.| S L.H.H - S K K U x F M.M.M.` J m.j j A > = = j g & bXbXbXbXbXbXbXbXbXbXbXbXbXbXbXbX",
"bXbXbXbXbXbXbXbXbXbXbXbXbXbXbXbXbXbXbX> B.J.D.m.- # M.G.H._._._._._._._.Y. .- : h g g g A W W W I : f h K K : C L j & bXbX= bXbXbXbXbXbXbXbXbXbXbXbXbXbXbXbXbXbX",
"bXbXbXbXbXbXbXbXbXbXbXbXbXbXbXbXbXbXbXbX1 z 1 1 > G B.G.D.H._._._.~.D.J.Y.| h g A : > g I ~./._.G.$ : g A P L A > ; bXbXbXbXbXbXbXbXbXbXbXbXbXbXbXbXbXbXbXbXbXbX",
"bXbXbXbXbXbXbXbXbXbXbXbXbXbXbXbXbXbXbXbXbXbXbXbXbX) D.Y.J.G.H.H.L.L.D.L.{ A h g - < 3 J B.H./.}.(.G.E.G y I L > bXbXbXbXbXbXbXbXbXbXbXbXbXbXbXbXbXbXbXbXbXbXbXbX",
"bXbXbXbXbXbXbXbXbXbXbXbXbXbXbXbXbXbXbXbXbXbXbXbXbXbX) M.H.H.G.J.J.D.J.} j ] V.s = 6 + H Y.D.Y.Y.~.|.}.M.G h L j k bXbXbXbXbXbXbXbXbXbXbXbXbXbXbXbXbXbXbXbXbXbXbX",
"bXbXbXbXbXbXbXbXbXbXbXbXbXbXbXbXbXbXbXbXbXbXbXbXbXbXX ` M.M.H.H.G.J.m.: I P.Y.E ; 6 4 G B.G.J.J.L./.^.Y.{ - j v g = bXbXbXbXbXbXbXbXbXbXbXbXbXbXbXbXbXbXbXbXbXbX",
"bXbXbXbXbXbXbXbXbXbXbXbXbXbXbXbXbXbXbXbXbXbXbXbXbXZ I j : D N.J.D.B.G = n.G.G.S.1 < 6 3 - B.G.D.D.J.J.G.o.G 2 Z > bXbXbXbXbXbXbXbXbXbXbXbXbXbXbXbXbXbXbXbXbXbXbX",
"bXbXbXbXbXbXbXbXbXbXbXbXbXbXbXbXbXbXbXbXbXbXbXbXbX@X'   ~ @X) > Z X.F.> f n.S.S - < 0 0 - j B.G.D.D.D.Y.{ { '.$XbXbXbXbXbXbXbXbXbXbXbXbXbXbXbXbXbXbXbXbXbXbXbXbX",
"bXbXbXbXbXbXbXbXbXbXbXbXbXbXbXbXbXbXbXbXbXbXbXbX$X*X).#X1X@X].N.M.N.^ , h E H - < 0 9 0 < - J V.Y.H.H. .O.#XuX$X#XbXbXbXbXbXbXbXbXbXbXbXbXbXbXbXbXbXbXbXbXbXbXbX",
"bXbXbXbXbXbXbXbXbXbXbXbXbXbXbXbXbXbXbXbXbXbXbXbX7X#X#X7XuX@X'.).C.~ O < z j h , 6 0 q q 7 < # H } ' } M.@XuXyX0XuX@XbXbXbXbXbXbXbXbXbXbXbXbXbXbXbXbXbXbXbXbXbXbX",
"bXbXbXbXbXbXbXbXbXbXbXbXbXbXbXbXbXbXbXbXbXbXbXbX&X&X$X@X@X).W.N.~ 4 9 6 + j F % 6 9 q q q 0 6 ; $ o ) ].0XyXyXrX7X@XbXbXbXbXbXbXbXbXbXbXbXbXbXbXbXbXbXbXbXbXbXbX",
"bXbXbXbXbXbXbXbXbXbXbXbXbXbXbXbXbXbXbXbXbXbX#X7X&XyX7X#X'.W.W.^ 5 #.q 7 3 g j 2 9 N N N N N q 6 % 0 N.'.@X1XtX#X@X1X@XbXbXbXbXbXbXbXbXbXbXbXbXbXbXbXbXbXbXbXbXbX",
"bXbXbXbXbXbXbXbXbXbXbXbXbXbXbXbXbXbXbXbXbXbX'.0XpXyXpX7X@X'.8 O 7 q 7 @.B 8 2 N @.@.#.9 6 N 6 7 q 9 6 O.).$X#X@X@X1X#XbXbXbXbXbXbXbXbXbXbXbXbXbXbXbXbXbXbXbXbXbX",
"bXbXbXbXbXbXbXbXbXbXbXbXbXbXbXbXbXbXbXbXbXbX@XuX7XyXuX#X@X@XN.N.+.5 #.B N 8 q @.$.@.&.%.0 4 O...O 4 + X.).#X#XtX&X7X$XbXbXbXbXbXbXbXbXbXbXbXbXbXbXbXbXbXbXbXbXbX",
"bXbXbXbXbXbXbXbXbXbXbXbXbXbXbXbXbXbXbXbXbXbXbX#X$X7X@X1X7X@X'.C.+.w w q 9 #.%.@.w @.&.&.%.w ....X._ ~ F.@X#X@XuX7X#XbXbXbXbXbXbXbXbXbXbXbXbXbXbXbXbXbXbXbXbXbXbX",
"bXbXbXbXbXbXbXbXbXbXbXbXbXbXbXbXbXbXbXbXbXbXbXbX1X@X@X7XuX@X@X~ 4 @.^ 6 q %.&.#.^ B #.@.b.%.4 _ ).).E.&X&X@X@X@X7XbXbXbXbXbXbXbXbXbXbXbXbXbXbXbXbXbXbXbXbXbXbXbX",
"bXbXbXbXbXbXbXbXbXbXbXbXbXbXbXbXbXbXbXbXbXbXbXbX#X#X#X@X@X@XT.~ O ~ T.^ #.@.#.8 T.' + 9 @.@.7 ..).$X$XyXuX@X#X@X&XbXbXbXbXbXbXbXbXbXbXbXbXbXbXbXbXbXbXbXbXbXbXbX",
"bXbXbXbXbXbXbXbXbXbXbXbXbXbXbXbXbXbXbXbXbXbXbXbXbX#X*X@X@X#X@XT.N.W.T.@X+.O ^ W.W.W.W.O.O 4 ..).@X#XuXyXpXuX@X1XbXbXbXbXbXbXbXbXbXbXbXbXbXbXbXbXbXbXbXbXbXbXbXbX",
"bXbXbXbXbXbXbXbXbXbXbXbXbXbXbXbXbXbXbXbXbXbXbXbXbXbX@XtXuX@X#X@X'.].'.#XW.X.W.'.'.@X).O.X.X.).@X#X#X1XyXuX1X*XbXbXbXbXbXbXbXbXbXbXbXbXbXbXbXbXbXbXbXbXbXbXbXbXbX",
"bXbXbXbXbXbXbXbXbXbXbXbXbXbXbXbXbXbXbXbXbXbXbXbXbXbXbX7XyX,X#X@X1X7X@X#X'.).'.@X#X#X'.'.&X'.#X#X#X#X@XuXuX'.bXbXbXbXbXbXbXbXbXbXbXbXbXbXbXbXbXbXbXbXbXbXbXbXbXbX",
"bXbXbXbXbXbXbXbXbXbXbXbXbXbXbXbXbXbXbXbXbXbXbXbXbXbXbXbX@X@X#X$XuXuX@X#X#X$X&X1X#X#X#X&XuX&X#X#X$X&X$X'.#X#XbXbXbXbXbXbXbXbXbXbXbXbXbXbXbXbXbXbXbXbXbXbXbXbXbXbX",
"bXbXbXbXbXbXbXbXbXbXbXbXbXbXbXbXbXbXbXbXbXbXbXbXbXbXbXbXbXbX#X#X#X#X#X#X#X#X1XyX&X#X$X#X#X#X#X#X#X#X#XbXbXbXbXbXbXbXbXbXbXbXbXbXbXbXbXbXbXbXbXbXbXbXbXbXbXbXbXbX",
"bXbXbXbXbXbXbXbXbXbXbXbXbXbXbXbXbXbXbXbXbXbXbXbXbXbXbXbXbXbXbXbXbXbX7X1X&X&X&X1X&X&X&X&X&X&X0X$XbXbXbXbXbXbXbXbXbXbXbXbXbXbXbXbXbXbXbXbXbXbXbXbXbXbXbXbXbXbXbXbX",
"bXbXbXbXbXbXbXbXbXbXbXbXbXbXbXbXbXbXbXbXbXbXbXbXbXbXbXbXbXbXbXbXbXbXbXbXbXbXbXbXbXbXbXbXbXbXbXbXbXbXbXbXbXbXbXbXbXbXbXbXbXbXbXbXbXbXbXbXbXbXbXbXbXbXbXbXbXbXbXbX",
"bXbXbXbXbXbXbXbXbXbXbXbXbXbXbXbXbXbXbXbXbXbXbXbXbXbXbXbXbXbXbXbXbXbXbXbXbXbXbXbXbXbXbXbXbXbXbXbXbXbXbXbXbXbXbXbXbXbXbXbXbXbXbXbXbXbXbXbXbXbXbXbXbXbXbXbXbXbXbXbX",
"bXbXbXbXbXbXbXbXbXbXbXbXbXbXbXbXbXbXbXbXbXbXbXbXbXbXbXbXbXbXbXbXbXbXbXbXbXbXbXbXbXbXbXbXbXbXbXbXbXbXbXbXbXbXbXbXbXbXbXbXbXbXbXbXbXbXbXbXbXbXbXbXbXbXbXbXbXbXbXbX",
"bXbXbXbXbXbXbXbXbXbXbXbXbXbXbXbXbXbXbXbXbXbXbXbXbXbXbXbXbXbXbXbXbXbXbXbXbXbXbXbXbXbXbXbXbXbXbXbXbXbXbXbXbXbXbXbXbXbXbXbXbXbXbXbXbXbXbXbXbXbXbXbXbXbXbXbXbXbXbXbX"
};
