/* XPM */
static char *_7899_88b3dc05d8b38a3a69e0269b214dff327dc305b8fb46b56750b89352f6fec278[] = {
/* columns rows colors chars-per-pixel */
"80 80 184 2 ",
"   c #000007",
".  c #02000A",
"X  c #1B020E",
"o  c #00001E",
"O  c #280715",
"+  c #220812",
"@  c #200411",
"#  c #331613",
"$  c #391A16",
"%  c #3C1C1A",
"&  c #122C1E",
"*  c #3C2619",
"=  c #000020",
"-  c #000C21",
";  c #001522",
":  c #001B22",
">  c #3A1C25",
",  c #042423",
"<  c #092522",
"1  c #0B2D24",
"2  c #102421",
"3  c #132D22",
"4  c #0F3125",
"5  c #0F3829",
"6  c #053825",
"7  c #153324",
"8  c #183624",
"9  c #173926",
"0  c #1A3B26",
"q  c #173E2A",
"w  c #1B3E29",
"e  c #133528",
"r  c #352C21",
"t  c #3C2D24",
"y  c #243524",
"u  c #273C27",
"i  c #363426",
"p  c #401D1A",
"a  c #42211D",
"s  c #4B251F",
"d  c #472B1E",
"f  c #441F24",
"g  c #452320",
"h  c #4A2523",
"j  c #422A24",
"k  c #4B2925",
"l  c #462229",
"z  c #4C2A29",
"x  c #4C242C",
"c  c #522A23",
"v  c #5A2D26",
"b  c #522D2C",
"n  c #582E2E",
"m  c #4E3021",
"M  c #45322C",
"N  c #5B3225",
"B  c #55312B",
"V  c #5C322C",
"C  c #542E31",
"Z  c #592F30",
"A  c #563232",
"S  c #5C3434",
"D  c #643729",
"F  c #6B3C2D",
"G  c #643A34",
"H  c #693C36",
"J  c #633B38",
"K  c #683E39",
"L  c #613735",
"P  c #763F30",
"I  c #1D442B",
"U  c #1F482F",
"Y  c #15422B",
"T  c #1C4E37",
"R  c #1D5234",
"E  c #20442A",
"W  c #234A2C",
"Q  c #2A4B2A",
"!  c #2B412B",
"~  c #304F2C",
"^  c #22552F",
"/  c #2B532C",
"(  c #2D582F",
")  c #35542B",
"_  c #335B2E",
"`  c #3A5B2D",
"'  c #234D32",
"]  c #265335",
"[  c #285737",
"{  c #235C33",
"}  c #2B5B32",
"|  c #275338",
" . c #285738",
".. c #255B3B",
"X. c #2B5C3C",
"o. c #325E31",
"O. c #395E30",
"+. c #1E6736",
"@. c #3F612E",
"#. c #2D6333",
"$. c #266A36",
"%. c #2C6C36",
"&. c #2E623D",
"*. c #25633A",
"=. c #356331",
"-. c #3C6431",
";. c #326E36",
":. c #3C6C34",
">. c #31663D",
",. c #336B3A",
"<. c #396D3D",
"1. c #357137",
"2. c #3A7337",
"3. c #367338",
"4. c #3C7539",
"5. c #3D7939",
"6. c #61442B",
"7. c #73412F",
"8. c #714B2F",
"9. c #6C413A",
"0. c #7E4B35",
"q. c #72453C",
"w. c #794436",
"e. c #775334",
"r. c #42642F",
"t. c #446C33",
"y. c #4A6F32",
"u. c #416631",
"i. c #437436",
"p. c #4E7534",
"a. c #4F7E37",
"s. c #41763C",
"d. c #447C39",
"f. c #497D39",
"g. c #527533",
"h. c #537B36",
"j. c #517E3D",
"k. c #2F6440",
"l. c #824A35",
"z. c #854F3C",
"x. c #8C4F3C",
"c. c #885637",
"v. c #8B523C",
"b. c #87513D",
"n. c #93563D",
"m. c #955A3E",
"M. c #9A5A3F",
"N. c #9E5D40",
"B. c #9E6040",
"V. c #9C7443",
"C. c #A66B44",
"Z. c #A46543",
"A. c #A87447",
"S. c #A67A47",
"D. c #AB7648",
"F. c #AD7C49",
"G. c #46813B",
"H. c #4C833B",
"J. c #588136",
"K. c #52863B",
"L. c #59853A",
"P. c #54893C",
"I. c #5B8D3C",
"U. c #5F913D",
"Y. c #618F3C",
"T. c #64933D",
"R. c #69963D",
"E. c #6C993D",
"W. c #739D3D",
"Q. c #799F3C",
"!. c #77A03D",
"~. c #7CA33D",
"^. c #6E9F40",
"/. c #81A63E",
"(. c #85AA3E",
"). c #89AD3E",
"_. c #8DB13D",
"`. c #92B53B",
"'. c #97BA3A",
"]. c #99BC3A",
"[. c #A0C23A",
"{. c #AA8048",
"}. c #B78A4E",
"|. c None",
/* pixels */
"|.|.|.|.|.|.|.|.|.|.|.|.|.|.|.|.|.|.|.|.|.|.|.|.|.|.|.|.|.|.|.|.|.|.|.|.|.|.|.|.|.|.1 1 |.|.|.|.|.|.|.|.|.|.|.|.|.|.|.|.|.|.|.|.|.|.|.|.|.|.|.|.|.|.|.|.|.|.|.|.",
"|.|.|.|.|.|.|.|.|.|.|.|.|.|.|.|.|.|.|.|.|.|.|.|.|.|.|.|.|.|.|.|.|.|.< |.|.|.< |.|.|.t.h.= |.|.|.< |.|.|.|.|.|.|.|.|.|.|.|.|.|.|.|.|.|.|.|.|.|.|.|.|.|.|.|.|.|.|.",
"|.|.|.|.|.|.|.|.|.|.|.|.|.|.|.|.|.|.|.|.|.|.|.|.|.|.|.|.|.; ; ; |./ :.7 |.( =.|.|.u.Y.^.y., |._ =.|.|.; |.|.|.|.|.|.|.|.|.|.|.|.|.|.|.|.|.|.|.|.|.|.|.|.|.|.|.|.",
"|.|.|.|.|.|.|.|.|.|.|.|.|.|.|.|.|.|.|.|.|.|.|.|.|.|.|.|.|.u.-.-.Q } P.o.O.f.a.} O.Y.R.R.E.g.o.i.f.e -.t.) |.|.|.|.|.|.|.|.|.|.|.|.|.|.|.|.|.|.|.|.|.|.|.|.|.|.|.",
"|.|.|.|.|.|.|.|.|.|.|.|.|.|.|.|.|.|.|.|.|.|.|.|.|.|.E q u.E.E.^.p./ H.H.T.T.H.H.^.T.R.R.^.).^.H.i.Q T.^.p.5 E |.|.|.|.|.|.|.|.|.|.|.|.|.|.|.|.|.|.|.|.|.|.|.|.|.",
"|.|.|.|.|.|.|.|.|.|.|.|.|.|.|.|.|.|.|.|.|.|.|.|.|.7 i.K.G.P.R.R.T.I.H.Y.R.R.I.H.R.T.W.).(.(.I.P.R.T.^.I.G.H.f.E 1 |.|.|.|.|.|.|.|.|.|.|.|.|.|.|.|.|.|.|.|.|.|.|.",
"|.|.|.|.|.|.|.|.|.|.|.|.|.|.|.|.|.|.|.|.|.|.|.|.|.|.I 2.H.H.H.!.(.~.!.^.R.R.E.!.H.Q.).).(.W.T.Y.R.R.I.H.H.d.I : J.p.; |.|.|.|.|.|.|.|.|.|.|.|.|.|.|.|.|.|.|.|.|.",
"|.|.|.|.|.|.|.|.|.|.|.|.|.|.|.|.|.|.|.|.|.|.; : |.|.r.L.U.I.I.W.(.).).~.R.E./.).W.E.~.(.W.T.W.~.W.I.d.f.P.L.y.p.g.-.: |.|.|.|.|.|.|.|.|.|.|.|.|.|.|.|.|.|.|.|.|.",
"|.|.|.|.|.|.|.|.|.|.|.|.|.|.|.|.|.|.|.|.|.` t.O.( / I.E.E.E.E.T.^././.(.R.Q.).(.).Y.R.~.E.W.(.(.^.f.I.Y.E.^.R.^.-.W / |.|.|.|.|.|.|.|.|.|.|.|.|.|.|.|.|.|.|.|.|.",
"|.|.|.|.|.|.|.|.|.|.|.|.|.|.|.|.|.|.|.|.1 L.^.R.K.P.G.I.T.T.R.T.E.R.R.T.R.~.).).).W.R.W.).).).W.f.I.).).).~.T.H.H.P.f.I W |.|.|.|.|.|.|.|.|.|.|.|.|.|.|.|.|.|.|.",
"|.|.|.|.|.|.|.|.|.|.|.|.|.|.|.|.|.|.|.7 7 1 g.E.T.H.G.G.H.P.T.T.Q.)./.T.).'.`.(.(.(./.(.(.(.`.]._./.(.).~.R.T.H.H.H.H.G.H._ |.|.|.|.|.|.|.|.|.|.|.|.|.|.|.|.|.|.",
"|.|.|.|.|.|.|.|.|.|.|.|.|.|.|.|.|.|./ G.i.2.a.P.P.!.~.~.E.G././.(.).'.).'.'.'.`.(.`._.).).`.].].'.(.).).~.Y.P.H.H.H.d./ / |.|.|.|.|.|.|.|.|.|.|.|.|.|.|.|.|.|.|.",
"|.|.|.|.|.|.|.|.|.|.|.|.|.|.|.|.|.|.Q :.I.P.G.P.!.)._.).(.E.E.(.).).`.].].].'.`._.].`.~.!.].].`._.(.).~.E.R.I.H.G.I.L.} -.W |.|.|.|.|.|.|.|.|.|.|.|.|.|.|.|.|.|.",
"|.|.|.|.|.|.|.|.|.|.|.|.|.|.|.|.|.|.|.-.R.U.H.I.~.).).).).~.K.W.(.).(.`.`.`._.(.'.].`./.W.`.`._.(.(.).!.E.R.U.P.H.U.R.P.P.:.} / |.|.|.|.|.|.|.|.|.|.|.|.|.|.|.|.",
"|.|.|.|.|.|.|.|.|.|.|.|.|.|.|.|.|.1 i.E.R.E.U.G.H././.(.~.T.E.T.W.).(.).).(.).).'.'.].'.(.(.(.(.(.(.(.).!.I.K.R.E.E.R.R.P.H.P.d.w |.|.|.|.|.|.|.|.|.|.|.|.|.|.|.",
"|.|.|.|.|.|.|.|.|.|.|.|.|.|.|.|.; p.E.E.E.P.H.H.H.E.I.H.I.E.T.T.R.T.R.`.'.'.`.(.'.'.'.`.(.'.'.`.~.T.R.^.I.I.(.(.).!.T.R.R.P.H.P.f.E |.|.|.|.|.|.|.|.|.|.|.|.|.|.",
"|.|.|.|.|.|.|.|.|.|.|.|.|.|.|.|.< ) ` ` d.3.H.T.T.T.T.K.d.P.~.(.(._._.'.].].'.`.].]._._.'.`.].`.`.).R.T.W.(.).).).(.W.H.P.^.p.I ( |.|.|.|.|.|.|.|.|.|.|.|.|.|.|.",
"|.|.|.|.|.|.|.|.|.|.|.|.|.|.|.|.( { ^ =.$.f.Y.R.T.T.R.W.E.E.(.(._.'.].'.'.'.'.].].].`._._.].].].'.'.).E.R.!.).).).).).E.H.I.f./ : |.|.|.|.|.|.|.|.|.|.|.|.|.|.|.",
"|.|.|.|.|.|.|.|.|.|.|.|.|.|.|.7 { 2.d.P.d.T.E.W.W.W.U.W.(.`._.(.(.).'.'.'.'.'.'.'.].].`.(.`.].].'.'.'.W.H.I.~.~.~.Q.~.!.K.G.H.G.Q |.|.|.|.|.|.|.|.|.|.|.|.|.|.|.",
"|.|.|.|.|.|.|.|.|.|.|.|.|.|.|.|.3 :.P.H.T.R.~.).(._.U.5.R.].]._.)././.'.'.'.].'.'.'.].`.(.(._.].'.'.).Y.I.R.G.H.H.H.H.H.H.P.K.H.H./ |.|.|.|.|.|.|.|.|.|.|.|.|.|.",
"|.|.|.|.|.|.|.|.|.|.|.|.|.|.|.< i.K.P.H.G.!.).).(._.I.!.].].].].(.T.R.T._.].'.'.'.'.'.'.`.E.~._.).(.(./.).!.d.H.f.E.!.H.T.R.I.d.3.H._ |.|.|.|.|.|.|.|.|.|.|.|.|.",
"|.|.|.|.|.|.|.|.|.|.|.|.|.|.E i.P.2.o.P.~.).).).(.T.5.!.[.].]./.R.R.~._.'.].'.'.].].].'.]._.!.~.).).`.'._./.!.G.d.W.).Q./.E.R.I.$.( |.|.|.|.|.|.|.|.|.|.|.|.|.|.",
"|.|.|.|.|.|.|.|.|.|.|.|.|.|.E :.:.W I d.R.T.E.W.R.G.W.(.(.(.(.R.R.~._.].].'.].]._._.`.].].].W.E.!.~.].].'._.).Q.P.E.).).)./.T.f.L.#.q |.|.|.|.|.|.|.|.|.|.|.|.|.",
"|.|.|.|.|.|.|.|.|.|.|.|.|.|.|., , 0 ( ;.$.$.3.f.G.G.(.~.I.T.I.R.~._._.'.].'.`.`.(.(._.`.`.'.(.E.T.R.).'.].`.!./.P.T./.).).).W.K.U.4.#.I |.|.|.|.|.|.|.|.|.|.|.|.",
"|.|.|.|.|.|.|.|.|.|.|.|.|.|.|.|.7 #.4.3.3.3.d.K.H.K.T.E.^.Y.K.~.(._.].'.'._./.(.(.).(./.).`.].(.T.R.T._.]./.d.G.H.H.I.(.(./.).W.;.3.3.( 7 |.|.|.|.|.|.|.|.|.|.|.",
"|.|.|.|.|.|.|.|.|.|.|.|.|.7 |.7 ' *.d.^.2.d.H.G.H./.).!.I.H./.(.(._.].E.~._.~.R.`._.!.W.).)._.!.I.P./._.W.H.H.T.R.P.H.H.P.d.4.d.H.H.#., |.|.|.|.|.|.|.|.|.|.|.|.",
"|.|.|.|.|.|.|.|.|.|.|.|.=.:., { K.I.L.d.;.3.;.K.~.)._.W.I./.).).~.W.!.~.(.)._._.'.'.~.E._.(.).(.E.H.).)./.E.f.R.R.R.I.f.H.G.2.3.H.H.f.=.|.|.|.|.|.|.|.|.|.|.|.|.",
"|.|.|.|.|.|.|.|.|.; |.- :.H.:.H.R.W.I.+.d.d.%.L.`.).!.P.H.W.W.Q.!.T.T.(.).(._.].].[.(.U.E.).).).~.H.W.(.).(.R.I.W.W.T.P.H.H.H.i.-.H.I.2.- |.|.|.|.|.|.|.|.|.|.|.",
"|.|.|.|.|.|.|.|.Q u.O.` t.H.P.E.R.R.I.L.H.H.a.Y.Q.~.I.P.Y.I.K.I.R.T.E.(.(.(.)._.'.`.~.U.I.!.!.(.~.H.T.!.~.(.).H.~./.W.W.H.H.P.i.I 2.f.:./ |.|.|.|.|.|.|.|.|.|.|.",
"|.|.|.|.|.|.|.4 t.^.^.E.T.H.H.R.^.P.Y.).P.%.E.!.$.d.T.~.).(.E.R.E.T.R.(.).(.!.H.`.W.T.!.).P.d.E.~.H.R.R.T.W./.P.Q.(.).(.4.d.K.G.1.0 ; -.d.7 |.|.|.|.|.|.|.|.|.|.",
"|.|.|.|.|.|.: p.E.R.R.R.!.!.G.T.T.Q.).(.P.f.H.H.H.%.W.).).).T.~.~.I.P./._.!.G.H.E.R.W.).(.(.U.H.P.H.T.R.E.T.K.T.P.W.).(.2.%.d.H.;.q |.E E |.|.|.|.|.|.|.|.|.|.|.",
"|.|.|.|.|.|.|.Q p.^.R.P.^.).!.(.I.P.T.W.T.I.R.I.4.P./._.(.^./.(.(.!.H.(.W.H.d.K.R.R.!.).).).T.5.I.~.~.I.I.T.4.R.T.I.I.L.~.K.1.3.3.=.W |.|.|.|.|.|.|.|.|.|.|.|.|.",
"|.|.|.|.|.|.|.W i.I.I.P.^._.).).!.T.P.R.R.E.T.d.2.!.W.E.R.R.(._.~.T.H.E.H.I.R.G.I.T.~.).(.).I.d.T._.).W.T.K.;.K.T.I.d.5.R.f.;.;.3.5.{ |.|.|.|.|.|.|.|.|.|.|.|.|.",
"|.|.|.|.|.|.Q d.P.f.P.T.!./.(.(.(.W.R.R.R.T.H.1.H.~.I.G.I.E.)./.T.K.K.G.P.~.(.I.G.P.!.).(.).T.G.I.~.(.`.W.5.2.$.T.I.G.H.5.;.3.;.#.#.} I |.|.|.|.|.|.|.|.|.|.|.|.",
"|.|.|.|.|.7 i.K.H.P.R.R.R.W.).(.W.R.E.R.R.K.G.I.R.K.G.I.T.R./.f.G.W.T.K.~.).(.(.P.f.E.).).(.I.G.H.K./.).E.G.H.3.I.K.3.K.E.f.3.=.3 3 =.#.3 |.|.|.|.|.|.|.|.|.|.|.",
"|.|.|.|.|.|.8 { d.^.R.R.T.E.).).(.(.)./.K.G.I.E.R.T.L.H.G.2.i.%.K.R.R.T./.).).(.P.G.G.T.(.I.G.U.T.G.K.K.K.H.H.H.i.%.d.R.R.P.G.5., |.I w |.|.|.|.|.|.|.|.|.|.|.|.",
"|.|.|.|.|.< ^ K.I.P.P.H.E.(.).W.(.).).(.~.I.G.I.R.E.R.K.;.;.%.K.T.T.K.d.~.).)./.P.f.H.E.).T.H.I.R.U.T.H.H.H.G.P.1.f.T.R.K.G.I.T.J.4 : |.|.|.|.|.|.|.|.|.|.|.|.|.",
"|.|.|.|.0 ( 3.G.P.f.d.^./.(.W.T.R.~.).)._.~.U.H.I.I.R.I.2.;.;.T.R.T.I.2.~.).).(.H.T.W.~.W.E.I.T.E.R.R.U.H.d.I.d.5.H.T.R.E.Y.T.R.R.J.h.-.|.|.|.|.|.|.|.|.|.|.|.|.",
"|.|.|.|.w ,.#.#.d.K.d.~.).!.T.W.H.T././.~./.E.G.d.i.I.I.G.5.;.I.E.T.U.H.W./.(.~.P./.).(.E.R.R.T.T.R.R.E.L.d.E.d.P.H.K.W.).~.E.T.R.U.T.L.) |.|.|.|.|.|.|.|.|.|.|.",
"|.|.|.|.|.7 e :.I.^.H.!.!.T.E.).T.I.R.T.R.K.H.G.1.2.G.H.H.H.;.I.E.I.;.G.d.W.~.G.T./.).).(.E.T.I.H.R.R.R.I.P.R.R.E.I.T.).).).W.T.T.2.$.L.I.1 |.|.|.|.|.|.|.|.|.|.",
"|.|.|.|.|.7 2.I.R.R.R.I.I.W.(.(.(.Q.R.R.R.R.P.K.T.^.T.H.%.3.;.T.I.2.H.H.G.W.(.T.T./.).).(.E.E.T.G.P.2.Y.I.P.R.R.T.~.).(.).J.5.H.K.H.5.#.u |.|.|.|.|.|.|.|.|.|.|.",
"|.|.|.|.|.7 s.U.E.R.P.G.P.W._.(.).W.P.E.R.E.R.U.P.R.R.T.K.$.;.d.1.2.T.T.K.H.I.T.T./.(.).(.E.H.2.d.H.;.G.H.f.f.T.U.~.).(.).E.I.I.G.H.H.=.o |.|.|.|.|.|.|.|.|.|.|.",
"|.|.|.|.|.7 ;.I.E.R.H.I.U.U.W.(.).E.G.I.I.I.I.I.I.I.R.E.R.K.2.%.d.I.E.R.T.i.5.E.T./.).(.!.E.d.$.2.d.%.K.U.P.5.W.!.!./.).!.E.E.R.I.d.d.d.=.|.|.|.|.|.|.|.|.|.|.|.",
"|.|.|.|.|.8 { K.R.I.H.Y.I.d.P.(./.R.G.L.H.H.H.I.R.H.I.U.T.I.2.$.K.E.E.T.E.K.5.T.R.W././.T.R.H.1.;.;.d.T.E.R.T.(._.W.T./.E.R.R.E.R.3.%.5.t.7 |.|.|.|.|.|.|.|.|.|.",
"|.|.|.|.|.9 T j.I.;.G.H.H.P.E.(.I.d.P.R.H.H.I.E.R.H.H.H.f.;.3.%.K.E.R.R.R.K.2.H.R.3.T.(.T.R.I.5.;.s.R.R.R.W.(.(.).E.H.E.).W.R.R.Y.s.3.} 3 |.|.|.|.|.|.|.|.|.|.|.",
"|.|.|.|.|.|.8 X.>.>.H.H.I.R.R.P.H.I.R.R.R.P.I.E.R.E.I.H.H.G.3.d.U.R.R.R.f.5.H.H.K.3.P.E.T.K.H.5.d.R.E.E.I.H.P.R.R.R.W.(.).).^.f.K.^.f.;.#.9 |.|.|.|.|.|.|.|.|.|.",
"|.|.|.|.|.|.3  .X.] H.5.L.E.R.H.G.U.E.R.E.G.3.K.E.E.f.5.K.H.;.f.K.I.R.E.i.5.P.H.H.4.2.P.E.K.H.i.2.G.i.K.P.H.I.R.R.I.T._.)._.E.f.H.s.>.,.X.7 |.|.|.|.|.|.|.|.|.|.",
"|.|.|.|.|.|.|.W ' 0 -.%.P.R.K.H.H.P.T.E.E.i.$.5.K.a.L.H.d.d.d.G.H.P.R.P.5.2.f.H.f.1.%.2.K.d.H.f.;.;.4.G.H.P.E.E.Y.P.P.W.E.(.E.4.H...]  .X.8 |.|.|.|.|.|.|.|.|.|.",
"|.|.|.|.|.|.|.|.7 |.< { K.P.%.d.H.G.H.^.K.j.4.;.%...K.K.%.3.H.K.G.P.T.1.;.1.1.f.1.2.2.1.%.%.f.5.1.1.H.K.f.P.R.I.P.G.H.G.d.W.I.;.d.4.E U | 9 |.|.|.|.|.|.|.|.|.|.",
"|.|.|.|.|.|.|.|.|.|.8 | >.1.;.;.f.d.4.H.1.I.P.%.3.3.X.&.3.<.H.H.2.f.T.4.1.1.2.3.3.G.d.3.2.3.;.3.1.1.H.H.4.f.T.3.d.K.H.H.H.3.%.;.3.H._ 7 8 |.|.|.|.|.|.|.|.|.|.|.",
"|.|.|.|.|.|.|.|.|.|.|.8  . .I X.f.s.,.I.H.d.,.X.k.&.k.,.;.k.H.d.1.1.4.H.1.H.E.T.G.H.2.1.H.H.2.;.5.H.4.1.;.4.K.3.;.d.H.H.2.3.3.3.3.>.&.| 7 |.|.|.|.|.|.|.|.|.|.|.",
"|.|.|.|.|.|.|.|.|.|.|.|.E ' I X.5.,.&.k.H.4.k.X.' U X.&.>.X.<.;.1.1.1.2.f.H.U.E.T.T.T.I.G.2.1.%.3.4.3.%.4.G.H.H.,.s.H.4.&.;.2.;.&.&.&.[ 7 |.|.|.|.|.|.|.|.|.|.|.",
"|.|.|.|.|.|.|.|.|.|.|.|.|.7 w ' &.,. .' :.>.X.' |.|.W  .>.&.X.>.2.;.,.%.G.H.H.I.R.T.T.T.I.K.f.f.i.1.3.&.4.P.H.s.>.i.H.;.&.>.;.;.&.| X. .8 |.|.|.|.|.|.|.|.|.|.|.",
"|.|.|.|.|.|.|.|.|.|.|.|.|.|.|.7 ' &. .7 , | ' |.|.|.& ] k. .&.;.1.%.X.2.H.H.H.I.R.K.I.E.E.T.K.G.d.%.3. .4.H.s.X.X.<.d.;.&.X.>.,.| 7 | W 3 |.|.|.|.|.|.|.|.|.|.|.",
"|.|.|.|.|.|.|.|.|.|.|.|.|.|.|.|.3 ]  .8 |.8 |.|.|.|.7 |  .8 X.;.,.X.>.H.H.H.P.R.R.P.P.R.T.H.2.1.;.k.3.I -.i.3 X.X.X.&.;.X.&.&.| 8 |.8 |.|.|.|.|.|.|.|.|.|.|.|.|.",
"|.|.|.|.|.|.|.|.|.|.|.|.|.|.|.|.|.w w |.|.|.|.|.|.|.|.q 0 |.9 X.k.<.H.K.K.i.d.E.E.P.H.G.2.3.G.d.;.;.>.I 0 E w k.W ' >.&.w X.| 8 |.|.|.|.|.|.|.|.|.|.|.|.|.|.|.|.",
"|.|.|.|.|.|.|.|.|.|.|.|.|.|.|.|.|.|.|.|.|.|.|.|.|.|.|.|.|.|.8 X. .' <.4.4.5.L.R.P.P.H.H.d.2.4.<.,.3.>.' 7 |.|.W 9 ' >.&.q X. .7 |.|.|.|.|.|.|.|.|.|.|.|.|.|.|.|.",
"|.|.|.|.|.|.|.|.|.|.|.|.|.|.|.|.|.|.|.|.|.|.|.|.|.|.|.|.|.|.|.' W w &.3.&.d.I.I.P.d.4.s.P.,.;.%.X.>.| I |.|.|.|.7  .&.' 0 ' W |.|.|.|.|.|.|.|.|.|.|.|.|.|.|.|.|.",
"|.|.|.|.|.|.|.|.|.|.|.|.|.|.|.|.|.|.|.|.|.|.|.|.|.|.|.|.|.|.|.|.7 U &.;.&.<.G.G.H.2.&.k.d. .>.>.&.X.w |.|.|.|.|.|.' | 3 |.7 |.|.|.|.|.|.|.|.|.|.|.|.|.|.|.|.|.|.",
"|.|.|.|.|.|.|.|.|.|.|.|.|.|.|.|.|.|.|.|.|.|.|.|.|.|.|.|.|.|.|.|.|.' X.X.X.X.<.G.;.3.%...X.9 | &.&.X.q |.|.|.|.|.|.|.8 |.|.|.|.|.|.|.|.|.|.|.|.|.|.|.|.|.|.|.|.|.",
"|.|.|.|.|.|.|.|.|.|.|.|.|.|.|.|.|.|.|.|.|.|.|.|.|.|.|.|.|.|.|.|.|.r q &.U ' &.>.1.,.R U &.q 9  .X.0 |.|.|.|.|.|.|.|.|.|.|.|.|.|.|.|.|.|.|.|.|.|.|.|.|.|.|.|.|.|.",
"|.|.|.|.|.|.|.|.|.|.|.|.|.|.|.|.|.|.|.|.|.|.|.|.|.|.|.|.|.|.|.|.|.g t I 6 ' k.&.>.R i i I r |.I E |.|.|.|.|.|.|.|.|.|.|.|.|.|.|.|.|.|.|.|.|.|.|.|.|.|.|.|.|.|.|.",
"|.|.|.|.|.|.|.|.|.|.|.|.|.|.|.|.|.|.|.|.|.|.|.|.|.|.|.|.|.|.|.|.a h k M t ! ..X.R i z b r % |.|.|.|.|.|.|.|.|.|.|.|.|.|.|.|.|.|.|.|.|.|.|.|.|.|.|.|.|.|.|.|.|.|.",
"|.|.|.|.|.|.|.|.|.|.|.|.|.|.|.|.|.|.|.|.|.|.|.|.|.|.|.|.|.|.h k z z b S n t u [ y k Z A b g |.|.|.|.|.|.|.|.|.|.|.|.|.|.|.|.|.|.|.|.|.|.|.|.|.|.|.|.|.|.|.|.|.|.",
"|.|.|.|.|.|.|.|.|.|.|.|.|.|.|.|.|.|.|.|.|.|.|.|.|.|.|.|.|.a A L b z L S L A j 0 k A L L S z g h a |.|.|.|.|.|.|.|.|.|.|.|.|.|.|.|.|.|.|.|.|.|.|.|.|.|.|.|.|.|.|.",
"|.|.|.|.|.|.|.|.|.|.|.|.|.|.|.|.|.|.|.|.|.|.|.|.|.|.|.|.|.|.% k k B 9.9.9.J b k Z J z.v.C h b H G # |.|.|.|.|.|.|.|.|.|.|.|.|.|.|.|.|.|.|.|.|.|.|.|.|.|.|.|.|.|.",
"|.|.|.|.|.|.|.|.|.|.|.|.|.|.|.|.|.|.|.|.|.|.|.|.|.|.|.|.% % Z z z S 9.K q.9.J Z L z.M.M.z.J z A K G a |.|.|.|.|.|.|.|.|.|.|.|.|.|.|.|.|.|.|.|.|.|.|.|.|.|.|.|.|.",
"|.|.|.|.|.|.|.|.|.|.|.|.|.|.|.|.|.|.|.|.|.|.|.|.|.|.|.a c b b b A 9.z.x.q.H K H z.m.n.b.N.b.l.v l H h $ |.|.|.|.|.|.|.|.|.|.|.|.|.|.|.|.|.|.|.|.|.|.|.|.|.|.|.|.",
"|.|.|.|.|.|.|.|.|.|.|.|.|.|.|.|.|.|.|.|.|.|.|.|.|.|.% h b Z $ l H z.M.m.G S 9.9.v.N.z.9.n.N.N.v.6.x % $ |.|.|.|.|.|.|.|.|.|.|.|.|.|.|.|.|.|.|.|.|.|.|.|.|.|.|.|.",
"|.|.|.|.|.|.|.|.|.|.|.|.|.|.|.|.|.|.|.|.|.|.|.|.|.|.% % $ $ |.* l.N.m.9.B G q.9.K v.b.H 9.v.n.D.S.a |.|.|.|.|.|.|.|.|.|.|.|.|.|.|.|.|.|.|.|.|.|.|.|.|.|.|.|.|.|.",
"|.|.|.|.|.|.|.|.|.|.|.|.|.|.|.|.|.|.|.|.|.|.|.|.|.|.|.|.|.|.. V.A.M.m.k A z.b.9.9.n.N.z.C f v.N.C.{.d |.|.|.|.|.|.|.|.|.|.|.|.|.|.|.|.|.|.|.|.|.|.|.|.|.|.|.|.|.",
"|.|.|.|.|.|.|.|.|.|.|.|.|.|.|.|.|.|.|.|.|.|.|.|.|.|.|.|.|.m V.A.Z.x.6.V.m.m.N.9.J H b.M.b.V.e.v 0.C.N.N |.|.|.|.|.|.|.|.|.|.|.|.|.|.|.|.|.|.|.|.|.|.|.|.|.|.|.|.",
"|.|.|.|.|.|.|.|.|.|.|.|.|.|.|.|.|.|.|.|.|.|.|.|.|.|.|.|.|.N A.c.P F B }.C.v.w.B b g H v.Z.}.e.. k 0.l.v |.|.|.|.|.|.|.|.|.|.|.|.|.|.|.|.|.|.|.|.|.|.|.|.|.|.|.|.",
"|.|.|.|.|.|.|.|.|.|.|.|.|.|.|.|.|.|.|.|.|.|.|.|.|.|.|.|.|.s l.c   O B S.Z.w.> # $ # > H N.F.8.|.|.+ + |.|.|.|.|.|.|.|.|.|.|.|.|.|.|.|.|.|.|.|.|.|.|.|.|.|.|.|.|.",
"|.|.|.|.|.|.|.|.|.|.|.|.|.|.|.|.|.|.|.|.|.|.|.|.|.|.|.|.|.|.# |.|.|.s n.M.7.X |.|.|.|.N m.m.D + |.|.|.|.|.|.|.|.|.|.|.|.|.|.|.|.|.|.|.|.|.|.|.|.|.|.|.|.|.|.|.|.",
"|.|.|.|.|.|.|.|.|.|.|.|.|.|.|.|.|.|.|.|.|.|.|.|.|.|.|.|.|.|.|.|.|.|.c M.7.# |.|.|.|.|.|.v M.F @ |.|.|.|.|.|.|.|.|.|.|.|.|.|.|.|.|.|.|.|.|.|.|.|.|.|.|.|.|.|.|.|.",
"|.|.|.|.|.|.|.|.|.|.|.|.|.|.|.|.|.|.|.|.|.|.|.|.|.|.|.|.|.|.|.|.|.|.|.D k |.|.|.|.|.|.|.|.D c |.|.|.|.|.|.|.|.|.|.|.|.|.|.|.|.|.|.|.|.|.|.|.|.|.|.|.|.|.|.|.|.|.",
"|.|.|.|.|.|.|.|.|.|.|.|.|.|.|.|.|.|.|.|.|.|.|.|.|.|.|.|.|.|.|.|.|.|.|.|.|.|.|.|.|.|.|.|.|.|.|.|.|.|.|.|.|.|.|.|.|.|.|.|.|.|.|.|.|.|.|.|.|.|.|.|.|.|.|.|.|.|.|.|.",
"|.|.|.|.|.|.|.|.|.|.|.|.|.|.|.|.|.|.|.|.|.|.|.|.|.|.|.|.|.|.|.|.|.|.|.|.|.|.|.|.|.|.|.|.|.|.|.|.|.|.|.|.|.|.|.|.|.|.|.|.|.|.|.|.|.|.|.|.|.|.|.|.|.|.|.|.|.|.|.|.",
"|.|.|.|.|.|.|.|.|.|.|.|.|.|.|.|.|.|.|.|.|.|.|.|.|.|.|.|.|.|.|.|.|.|.|.|.|.|.|.|.|.|.|.|.|.|.|.|.|.|.|.|.|.|.|.|.|.|.|.|.|.|.|.|.|.|.|.|.|.|.|.|.|.|.|.|.|.|.|.|."
};
