/* XPM */
static char *_7584_513b4ef444ca59d3d3ad8f1f217cf6a7df2b2eeda179e447d06c80059f529379[] = {
/* columns rows colors chars-per-pixel */
"70 18 114 2 ",
"   c #6C6C6C",
".  c #767676",
"X  c #777777",
"o  c #7B7B7B",
"O  c #7C7C7C",
"+  c gray49",
"@  c #7E7E7E",
"#  c gray50",
"$  c #7E7E80",
"%  c #808080",
"&  c #818181",
"*  c #828280",
"=  c gray51",
"-  c #838383",
";  c #838583",
":  c #848484",
">  c gray52",
",  c #868585",
"<  c #868686",
"1  c #868786",
"2  c gray53",
"3  c #888888",
"4  c #898989",
"5  c #8A8989",
"6  c #898A89",
"7  c #88888A",
"8  c gray54",
"9  c #8B8B8B",
"0  c gray55",
"q  c #8D8C8C",
"w  c #8D8D8D",
"e  c #8E8D8D",
"r  c #8E8E8E",
"t  c #8F8E8E",
"y  c gray56",
"u  c #8F9191",
"i  c #909090",
"p  c gray57",
"a  c #929191",
"s  c #919291",
"d  c #919391",
"f  c #929292",
"g  c #929392",
"h  c #929293",
"j  c #939393",
"k  c #939493",
"l  c gray58",
"z  c #949595",
"x  c #959595",
"c  c #969695",
"v  c #949496",
"b  c gray59",
"n  c #979697",
"m  c #979797",
"M  c #979898",
"N  c #989898",
"B  c gray60",
"V  c #99999A",
"C  c #99999B",
"Z  c #9A9A9A",
"A  c #9A9B9A",
"S  c #9B9B9A",
"D  c #9B9B9B",
"F  c #9C9B9B",
"G  c #9B9C9C",
"H  c gray61",
"J  c #9D9C9C",
"K  c #9C9D9C",
"L  c #9D9C9D",
"P  c #9D9D9D",
"I  c #9E9E9D",
"U  c #9E9D9E",
"Y  c gray62",
"T  c #9F9E9E",
"R  c #9F9F9E",
"E  c #9F9F9F",
"W  c #A09FA0",
"Q  c #9FA0A0",
"!  c #A0A0A0",
"~  c #A1A0A0",
"^  c #A1A1A0",
"/  c #A0A0A1",
"(  c gray63",
")  c #A2A1A1",
"_  c #A2A2A2",
"`  c gray64",
"'  c #A3A4A3",
"]  c #A4A4A4",
"[  c #A4A5A4",
"{  c #A5A5A5",
"}  c #A6A5A6",
"|  c gray65",
" . c #A6A7A6",
".. c #A7A7A7",
"X. c #A7A7A8",
"o. c gray66",
"O. c #A8A9A8",
"+. c #A9A9A8",
"@. c #A8A8A9",
"#. c #A9A9A9",
"$. c #AAA9A9",
"%. c #AAAAAA",
"&. c #ABABAA",
"*. c gray67",
"=. c #ABACAC",
"-. c #ACACAC",
";. c gray68",
":. c #AEAEAE",
">. c #B0B0AF",
",. c gray69",
"<. c #B1B1B1",
"1. c gray70",
"2. c #B4B4B4",
"3. c None",
/* pixels */
"3.3.3.3.3.3.3.3.3.3.3.3.3.3.3.3.3.3.3.3.3.3.3.3.3.3.3.3.3.3.3.3.3.3.3.3.3.3.3.3.3.3.3.3.3.3.3.3.3.3.3.3.3.3.3.3.3.3.3.3.3.3.3.3.3.3.3.3.3.3.",
"3.3.3.3.3.x l 3.3.3.3.3.3.x l 3.3.3.3.p x B b w 3.3.3.f x 8 3.3.3.f b r 3.3.x j l x l 3.3.3.j b x j 3.3.3.3.3.3.3.3.3.3.3.3.3.3.3.3.3.3.3.3.",
"3.3.3.3.m 1.( j 3.3.3.3.B ,.| i 3.3.B :.] ( _ -.y 3.3.<.$.E = 3.y 2.#.R . k >.o.#.@.&.q O B ;.] _ -.m 3.3.3.3.3.3.3.3.3.3.3.3.3.3.3.3.3.3.3.",
"3.3.3.3.m ! E _ 2 3.3.0 o.E D i 3.p :.Q H Z Y E o.= 3.E ( B 9 3.N ! Y 0 9 b ( P D A B 8 B ! Y m B E ] p 3.3.3.3.3.3.3.3.3.3.3.3.3.3.3.3.3.3.",
"3.3.3.3.B _ Y H 8 3.3.N _ Y V w 3.B ` Y 8 w F ( J 9 0 Y ! ! ; 3.{ ( b 9 3.Z | m 6 r 9 r N E Y 4 2 ` E x 3.3.3.3.3.p Y B 8 3.3.3.3.3.3.3.3.3.",
"3.3.3.3.Y Y E ( y 3.p *.I ! D w 8 ! _ b 0 3.m _ P 0 y P ( ! O p +.! r r 3.E ! m 0 3.3.3.j ] Y 0 : ` D N 3.3.3.3.3.H &.( H = 3.3.3.3.3.3.3.3.",
"3.3.3.3. .P E ! 9 3.D ) Y ! Z 7 0 | ! p 8 3.{ ! Y 9 r E ! B # B ] Z 0 3.3.*.! a @ 3.3.3.j #.Q ` 3.% , y 3.3.3.3.3.Z ..N j 3.3.3.3.3.3.3.3.3.",
"3.3.3.d ..P E ! w r / E P Y m 8 v #.! N < 3.%.! Y 2 - ( ! b i Y _ l 0 3.l %.Y D E y 3.3.3.Z E [ f 3.3.3.3.3.3.3.3.3.- 2 0 3.3.3.3.3.3.3.3.3.",
"3.3.3.b ..Y E ( i Z ` T E H w 3.b #.D b 3.0 %.( D < 3.` ` 8 i { H w y 3.B | Y ( } p 0 3.3.3._ E =.u 3.3.3.3.3.3.3.3.3.3.3.3.3.3.3.3.3.3.3.3.",
"3.3.3.C ] b x ! Y ! m c ! P 9 3.Z { B 9 3.l o.E B 4 3.| ! 0 N ` x 9 3.3.N ] H b x y 0 3.3.3.w o.E G 3.3.3.3.3.3.3.3.3.3.3.3.3.3.3.3.3.3.3.3.",
"3.3.3.Z #.f 0 | K ` 3 m ` B 5 3.D ( B 8 3.N { P 9 3.3.#.Y ! ! E s t 3.3.! ( m 8 y y 3.3.y 3.3.m { P 3 3.3.3.3.3.3.3.3.3.3.3.3.3.3.3.3.3.3.3.",
"3.3.3.^ | f 9 ! E Z . Y ( N 5 3.( ! Y 9 3.D _ N 0 3.3.o.E Y E N 6 3.3.3.| ! j e 3.3.3.B ,.]   9 o.E B - 3.3.3.3.3.3.3.3.3.3.3.3.3.3.3.3.3.3.",
"3.3.3...E p 4 ` ! w 2 E ( x 9 3...! _ X 3.] ! f w 3.3.| Y Y _ f 9 3.3.f #.! i $ 3.3.3.B W ! # < | Y b > 3.3.3.3.3.3.3.3.3.3.3.3.3.3.3.3.3.3.",
"3.3.B O.L i * l N 9 r ` P M < 3.| E P h D ( ! 0 w 3.3.' P E S y 3.3.3.j ..U Y Z ..i 3.N ] Y l N ~ E x 3 3.3.3.3._ | B o 3.3.3.3.3.3.3.3.3.3.",
"3.3.b X.W f 3.3.3 3.b ..P p 3.3.B %.E _ ! ` f r 3.3.3.o.( ` y w 3.3.3.B ` ! ( ` ! z 3.r 1.E ( ! _ m p 3.3.3.3.9 o.] m i 3.3.3.3.3.3.3.3.3.3.",
"3.3.g ] D l 3.3.3.3.B { D x 3.3.3.m _ Y D f x i 3.3.3.b { D D 3.3.3.3.x ..E ! ( H Z 3.3.n ( P D l b w 3.3.3.3.2 _ P H 9 3.3.3.3.3.3.3.3.3.3.",
"3.3.3.% & r 3.3.3.3.3.+ - 8 3.3.3.3.- 8 1 < 0 3.3.3.3.3.: - r 3.3.3.3.3.& & & = - 8 3.3.3.% : = < w 3.3.3.3.3.3.3.& 8 3.3.3.3.3.3.3.3.3.3.3.",
"3.3.3.3.3.3.3.3.3.3.3.3.3.3.3.3.3.3.3.3.3.3.3.3.3.3.3.3.3.3.3.3.3.3.3.3.3.3.3.3.3.3.3.3.3.3.3.3.3.3.3.3.3.3.3.3.3.3.3.3.3.3.3.3.3.3.3.3.3.3."
};
