/* XPM */
static char *_7838_fa82c00daf1f195d08744e69313a0f8f9b21bf6038901a94f165be001b48ff69[] = {
/* columns rows colors chars-per-pixel */
"10 18 69 1 ",
"  c #533098",
". c #533099",
"X c #533199",
"o c #54329B",
"O c #5732A2",
"+ c #5A34A2",
"@ c #5A34A3",
"# c #5B34A5",
"$ c #5A35A5",
"% c #5B34A6",
"& c #5B35A6",
"* c #5A35A7",
"= c #5B35A7",
"- c #5B36A7",
"; c #5C35A8",
": c #5D35A8",
"> c #5D36A9",
", c #5D37A9",
"< c #5E36A9",
"1 c #5D37AA",
"2 c #5D37AB",
"3 c #5E37AC",
"4 c #5F37AC",
"5 c #5E37AD",
"6 c #5F37AD",
"7 c #5F38AD",
"8 c #5F38AE",
"9 c #6037AE",
"0 c #6037AF",
"q c #6038AE",
"w c #6038AF",
"e c #6038B0",
"r c #6138B0",
"t c #6139B1",
"y c #6239B2",
"u c #6239B3",
"i c #6339B3",
"p c #633AB5",
"a c #643AB6",
"s c #643AB7",
"d c #653AB7",
"f c #643BB7",
"g c #653BB8",
"h c #653BB9",
"j c #663BB9",
"k c #673BBA",
"l c #653CB9",
"z c #663CB9",
"x c #663CBA",
"c c #663CBB",
"v c #673CBB",
"b c #673CBC",
"n c #683DBD",
"m c #683DBE",
"M c #693DBF",
"N c #693DC0",
"B c #693EC0",
"V c #6A3EC1",
"C c #6A3EC2",
"Z c #6B3EC2",
"A c #6B3EC3",
"S c #6B3FC3",
"D c #6C3FC4",
"F c #6D40C7",
"G c #6E40C8",
"H c #6F41CA",
"J c #6F41CB",
"K c #7243D0",
"L c None",
/* pixels */
"LL:uw6=<q&",
"LLrGMMMbJ5",
"LLfghAZMKO",
"LLCvrLLL@L",
"L+VA*LLLLL",
"L3BM.LLLLL",
"Lymdtaj8LL",
"LiglGVxF0L",
"LHZgo$nzbL",
"L#;LLL9cNL",
"LLLLLL6bBL",
"LLLLLLexmL",
"&x2LLLskpL",
"7MfLL VxwL",
"ebc>XujS3L",
"%JlbChjmLL",
"L4GVMDVLLL",
"LLL1,-LLLL"
};
