/* XPM */
static char *_18_03159ca4c269adef9791b85e3ff74cb43be57c9661e208e20b81415376b55a0c[] = {
/* columns rows colors chars-per-pixel */
"10 18 55 1 ",
"  c #5934A4",
". c #5C36A7",
"X c #5D35A8",
"o c #5C35A9",
"O c #5D36A9",
"+ c #5D35AA",
"@ c #5D36AA",
"# c #5D37AA",
"$ c #5D36AB",
"% c #5E36AB",
"& c #5D36AC",
"* c #5E37AC",
"= c #5E37AD",
"- c #5F37AD",
"; c #5F38AF",
": c #6038AF",
"> c #6138B0",
", c #6039B0",
"< c #6139B0",
"1 c #6038B1",
"2 c #6139B1",
"3 c #6238B2",
"4 c #6239B3",
"5 c #6239B4",
"6 c #643BB5",
"7 c #643AB6",
"8 c #653AB6",
"9 c #643BB6",
"0 c #643AB7",
"q c #653BB9",
"w c #663BB9",
"e c #663BBA",
"r c #653CB9",
"t c #663CB9",
"y c #663CBA",
"u c #673CBB",
"i c #683CBC",
"p c #683DBD",
"a c #683DBE",
"s c #693DBF",
"d c #693DC0",
"f c #6A3EC0",
"g c #6A3EC1",
"h c #6A3EC2",
"j c #6B3EC2",
"k c #6B3EC3",
"l c #6B3FC3",
"z c #6B3FC4",
"x c #6C3FC4",
"c c #6C3FC5",
"v c #6D40C6",
"b c #6E40C8",
"n c #6F41CA",
"m c #7343D1",
"M c None",
/* pixels */
"M<-%##+@:M",
"MbpashhfnM",
" mskhw0y>M",
"M698-5wx-M",
"MMMMMayjMM",
"MMMM.zq4MM",
"MMMM;eloMM",
"MMMMzrsMMM",
"MMM=gu>MMM",
"MMM7qc&MMM",
"MMXctiMMMM",
"MM,pa1MMMM",
"MMaqcMMMMM",
"MOxw3MMMMM",
"M>yj%MMMMM",
"MfqdMMMMMM",
":vs3MMMMMM",
"$*2MMMMMMM"
};
