/* XPM */
static char *_909_610f6af7ee882499dd42a8fbc34ca80399a248c6e21f03d596c97f20a3d7d261[] = {
/* columns rows colors chars-per-pixel */
"7 18 38 1 ",
"  c #5F37AB",
". c #5F38AE",
"X c #6038B0",
"o c #6138B0",
"O c #6039B0",
"+ c #6139B0",
"@ c #6239B2",
"# c #6239B3",
"$ c #6339B3",
"% c #623AB2",
"& c #623AB3",
"* c #633AB3",
"= c #6339B4",
"- c #633AB4",
"; c #633AB6",
": c #643AB4",
"> c #643AB5",
", c #643AB6",
"< c #653BB8",
"1 c #653BB9",
"2 c #663BB9",
"3 c #653CB9",
"4 c #663CBA",
"5 c #663CBB",
"6 c #683DBD",
"7 c #683DBE",
"8 c #693DBF",
"9 c #693EC0",
"0 c #6A3EC0",
"q c #6A3EC1",
"w c #6A3EC2",
"e c #6B3EC2",
"r c #6B3FC3",
"t c #6B3FC4",
"y c #6C3FC4",
"u c #6C3FC5",
"i c #6D40C6",
"p c None",
/* pixels */
"ppp:*-<",
"pp,u60<",
",u2<<7*",
"$r8<<y@",
"%,p*2up",
"ppp<2wp",
"pppq21p",
"pppt2-p",
"pp.e6&p",
"ppX8qXp",
"pp=4tpp",
"pp;3qpp",
"pp92<pp",
"ppy<>pp",
"pOr6*pp",
"p+9qopp",
"p>5i pp",
"p#4<ppp"
};
