/* XPM */
static char *_524_552898101476a839cddb268cf926cfcaf0826442ba7897ddb020b66272c078b4[] = {
/* columns rows colors chars-per-pixel */
"11 18 65 1 ",
"  c #5834A1",
". c #5934A1",
"X c #5A34A3",
"o c #5A34A4",
"O c #5A35A5",
"+ c #5B35A7",
"@ c #5D35A8",
"# c #5C36A8",
"$ c #5D36AA",
"% c #5E36AA",
"& c #5E37AB",
"* c #5E37AC",
"= c #5F37AD",
"- c #5E38AD",
"; c #5F38AD",
": c #5F38AF",
"> c #6038AE",
", c #6038AF",
"< c #6039AF",
"1 c #6038B0",
"2 c #6039B0",
"3 c #6238B1",
"4 c #6239B1",
"5 c #6138B2",
"6 c #6139B2",
"7 c #6239B2",
"8 c #6239B3",
"9 c #6239B4",
"0 c #633AB4",
"q c #643AB5",
"w c #643BB7",
"e c #653BB7",
"r c #653BB8",
"t c #653BB9",
"y c #663BB8",
"u c #663BB9",
"i c #663BBA",
"p c #653CB9",
"a c #663CB9",
"s c #653CBA",
"d c #663CBA",
"f c #663CBB",
"g c #673CBB",
"h c #673CBC",
"j c #673CBD",
"k c #683DBD",
"l c #683DBE",
"z c #693DBE",
"x c #693DBF",
"c c #693DC0",
"v c #693EC0",
"b c #6A3EC0",
"n c #6A3EC1",
"m c #6A3EC2",
"M c #6B3EC3",
"N c #6B3FC3",
"B c #6C3FC4",
"V c #6C3FC5",
"C c #6C3FC6",
"Z c #6D40C7",
"A c #7041CC",
"S c #7042CD",
"D c #7142CD",
"F c #7142CF",
"G c None",
/* pixels */
"GGGGOau<GGG",
"GGGG7vS&GGG",
"GGGGMs0GGGG",
"GGG>lc$GGGG",
"GGGhaBGGGGG",
"GG Ni5G;DA#",
"GG,uVoGqdxG",
"GGMthGGMitG",
"G2lx1G#Vu8G",
"GdumGG*kb&G",
"+CtrX.0yh=G",
":gernBtrrN8",
"rZNBnpwtyF-",
"*;,3%6dd94G",
"GGGGG*zn*GG",
"GGGGG7uM@GG",
"GGGGGfimGGG",
"GGGGGji8GGG"
};
