/* XPM */
static char *_4609_648c6e2b113524ea8b6f99c9822c2da702a4ca32fdb26b5aa7c5740417d4f297[] = {
/* columns rows colors chars-per-pixel */
"11 18 70 1 ",
"  c #502E93",
". c #533099",
"X c #533199",
"o c #55319B",
"O c #57329E",
"+ c #5732A0",
"@ c #5833A1",
"# c #5834A3",
"$ c #5934A3",
"% c #5935A4",
"& c #5A34A4",
"* c #5A34A5",
"= c #5B34A5",
"- c #5A34A6",
"; c #5A35A6",
": c #5B35A6",
"> c #5B35A7",
", c #5B36A7",
"< c #5C36A7",
"1 c #5B35A8",
"2 c #5C35A8",
"3 c #5C36A8",
"4 c #5C36A9",
"5 c #5D36A9",
"6 c #5C36AA",
"7 c #5E36AB",
"8 c #5E37AB",
"9 c #5D37AC",
"0 c #5F37AD",
"q c #5F37AE",
"w c #6038AE",
"e c #6038B0",
"r c #6138B0",
"t c #6139B0",
"y c #6139B1",
"u c #6138B2",
"i c #6239B2",
"p c #6239B3",
"a c #6339B4",
"s c #633AB4",
"d c #633AB5",
"f c #653AB7",
"g c #653BB7",
"h c #653BB8",
"j c #653BB9",
"k c #663BB9",
"l c #653BBA",
"z c #663BBA",
"x c #653CB9",
"c c #663CB9",
"v c #663CBA",
"b c #673CBB",
"n c #673CBC",
"m c #683DBD",
"M c #683DBE",
"N c #693DBE",
"B c #693DBF",
"V c #693DC0",
"C c #693EC0",
"Z c #6A3EC1",
"A c #6A3EC2",
"S c #6B3EC2",
"D c #6B3FC3",
"F c #6C3FC4",
"G c #6C3FC5",
"H c #6D3FC6",
"J c #6E40C8",
"K c #6E40C9",
"L c #6F41C9",
"P c None",
/* pixels */
"PPPPO1-,%PP",
"PPP8KADSHiP",
"PP7LxhdhhG7",
"PPpjB*P*Cjp",
"PPnvAPP.Fjs",
"PPBcpPP&Avt",
"PPZbdPP7lD6",
"PP9Vb14mkBP",
"PPoNcAVvhPP",
"P8FkmrjkB:P",
"PKzMXP@BviP",
"5Cv0PP FckP",
"elA2PP+FjjP",
"akG#PP3AhpP",
"yzS=PPujMqP",
"5Dgk>0nfJ$P",
"PhZvZmxJwPP",
"PP<phhi;PPP"
};
