/* XPM */
static char *_7607_99b9bf28dc7e0121b8b261ff39d7ab0b0951ac27b9ea668146d465c77ded7102[] = {
/* columns rows colors chars-per-pixel */
"11 18 64 1 ",
"  c #512E93",
". c #56329C",
"X c #57339E",
"o c #5732A0",
"O c #5733A0",
"+ c #5733A1",
"@ c #5833A1",
"# c #5833A2",
"$ c #5934A2",
"% c #5934A4",
"& c #5A34A5",
"* c #5A35A6",
"= c #5B35A6",
"- c #5B35A7",
"; c #5B36A7",
": c #5C35A8",
"> c #5C35A9",
", c #5D35A9",
"< c #5D36A8",
"1 c #5C36A9",
"2 c #5D36A9",
"3 c #5C35AA",
"4 c #5D36AA",
"5 c #5D36AB",
"6 c #5F37AB",
"7 c #5F37AC",
"8 c #5F37AD",
"9 c #5E37AE",
"0 c #5F38AD",
"q c #5F38AE",
"w c #5F38AF",
"e c #6037AE",
"r c #6038AF",
"t c #6038B0",
"y c #6239B2",
"u c #6239B3",
"i c #633AB5",
"p c #643AB7",
"a c #653BB7",
"s c #653BB8",
"d c #653BB9",
"f c #663BB9",
"g c #663BBA",
"h c #663CBA",
"j c #673CBA",
"k c #673CBB",
"l c #673CBC",
"z c #683CBD",
"x c #683DBE",
"c c #693DBE",
"v c #693DBF",
"b c #693DC0",
"n c #693EC0",
"m c #6A3EC1",
"M c #6A3EC2",
"N c #6B3EC2",
"B c #6B3EC3",
"V c #6B3FC3",
"C c #6B3FC4",
"Z c #6C3FC5",
"A c #6D40C7",
"S c #6E40C8",
"D c #6F41CA",
"F c None",
/* pixels */
"FFFF$8t6.FF",
"FFFqAlkcD5F",
"FF4VdxvsdSF",
"FFMgvoFtdm>",
"F+VheFFOmxw",
"F-nv1FF#bc0",
"F8kB@FF>lm3",
"FyjNFFFqfC@",
"FxgxFFFahCF",
"FBgiFFFMhzF",
"&CgqFFXChuF",
":ml>FF&MhrF",
"qxv&FF<vv4F",
"9xx*FF7hB,F",
"rmdp OvsVFF",
"FShdmxfvtFF",
"F%ZVvnZsFFF",
"FFF=;2oFFFF"
};
