/* XPM */
static char *_7913_d003087091028df2aedfcb98e87181f0c5accd990772918269573c082e797269[] = {
/* columns rows colors chars-per-pixel */
"11 18 70 1 ",
"  c #4F2D92",
". c #512F94",
"X c #522F94",
"o c #522F95",
"O c #513095",
"+ c #543099",
"@ c #55319C",
"# c #56329D",
"$ c #56329E",
"% c #5732A0",
"& c #5734A1",
"* c #5933A1",
"= c #5933A3",
"- c #5834A1",
"; c #5934A3",
": c #5A34A3",
"> c #5934A4",
", c #5A35A4",
"< c #5A35A5",
"1 c #5A35A6",
"2 c #5B35A6",
"3 c #5B35A7",
"4 c #5B37A8",
"5 c #5C35A8",
"6 c #5C36A8",
"7 c #5C36A9",
"8 c #5C37A9",
"9 c #5D36AA",
"0 c #5E36AB",
"q c #5E37AC",
"w c #5F37AD",
"e c #5F37AE",
"r c #5F38AC",
"t c #5F38AD",
"y c #5F38AE",
"u c #6038AE",
"i c #6239B1",
"p c #643BB7",
"a c #653BB7",
"s c #653BB8",
"d c #653BB9",
"f c #663BB9",
"g c #663BBA",
"h c #673BBA",
"j c #653CB8",
"k c #663CB9",
"l c #663CBA",
"z c #673CBA",
"x c #663CBB",
"c c #673CBB",
"v c #673CBC",
"b c #673CBD",
"n c #683DBD",
"m c #683DBE",
"M c #693DBE",
"N c #693DBF",
"B c #693DC0",
"V c #6A3EC1",
"C c #6A3EC2",
"Z c #6B3EC2",
"A c #6B3EC3",
"S c #6B3FC3",
"D c #6B3FC4",
"F c #6C3FC4",
"G c #6D3FC6",
"H c #6D40C6",
"J c #6D40C7",
"K c #6E40C9",
"L c #7041CB",
"P c None",
/* pixels */
"PP-631>=,3X",
"PPqShnNMvKP",
"PPcDAvpaM5P",
"PP oP+NkBPP",
"PPPPP7vV;PP",
"PPPP@JfsPPP",
"PPPPadS.PPP",
"PPP*Fsl0PPP",
"PPP$LmjZrPP",
"PPPPPOxdH#P",
"PPPPPP3vC4P",
"%ywPPP5nZeP",
"tMGPPPqxA2P",
"ucbPPPvlF&P",
"9xm%P6MkmPP",
";DamCvpV8PP",
"PlAlzgSgPPP",
"PP:wiq<PPPP"
};
