/* XPM */
static char *_3554_7ead9c01f2bace2aa18835e4933c5364563295ed520f5d8b93da715e20b6e2e5[] = {
/* columns rows colors chars-per-pixel */
"10 18 60 1 ",
"  c #5B35A6",
". c #5C36A8",
"X c #5E36AB",
"o c #5E36AC",
"O c #5E37AD",
"+ c #5F37AD",
"@ c #5F37AE",
"# c #5F38AD",
"$ c #6038AF",
"% c #6038B0",
"& c #6039B0",
"* c #6038B1",
"= c #6138B1",
"- c #6039B1",
"; c #6139B1",
": c #6238B1",
"> c #623AB1",
", c #6238B2",
"< c #6239B2",
"1 c #6239B3",
"2 c #623AB3",
"3 c #6239B4",
"4 c #6339B4",
"5 c #623AB4",
"6 c #633AB4",
"7 c #633AB5",
"8 c #643AB4",
"9 c #643AB5",
"0 c #643AB6",
"q c #643BB6",
"w c #643BB7",
"e c #653BB8",
"r c #653BB9",
"t c #663BB9",
"y c #653BBA",
"u c #653CB9",
"i c #663CB9",
"p c #663CBA",
"a c #663CBB",
"s c #673CBB",
"d c #673CBC",
"f c #683DBE",
"g c #693DBF",
"h c #693DC0",
"j c #693EC0",
"k c #6A3EC0",
"l c #6A3EC1",
"z c #6A3EC2",
"x c #6B3EC2",
"c c #6B3EC3",
"v c #6B3FC3",
"b c #6B3FC4",
"n c #6C3FC4",
"m c #6C3FC5",
"M c #6D40C7",
"N c #6E40C9",
"B c #6F41CB",
"V c #7041CB",
"C c #7142CF",
"Z c None",
/* pixels */
"ZZZZZZOZZZ",
"ZZZ6vlzm<Z",
"ZZ7xihftB<",
"ZZntdZ.ttq",
"Z-kg;ZZlC0",
"Z9pnZZZZ+Z",
"Zwrs ZZZZZ",
"ZzeedmbN%Z",
":meafprrbZ",
">bt3ZZ5rv=",
"3gzXZZ@lz7",
"8dzZZZ&gx2",
"2pfZZZ;dcZ",
"4yfZZZptjZ",
"<sf#Z$fr0Z",
"*BudlseVoZ",
"Z1MlglN<ZZ",
"ZZZ,:1ZZZZ"
};
