/* XPM */
static char *_591_309ffd553af465e7a72d54f5a75445072e7eb5f35f8c83c14f37f89f33e9c0df[] = {
/* columns rows colors chars-per-pixel */
"12 18 59 1 ",
"  c #5733A0",
". c #5833A1",
"X c #5833A2",
"o c #5934A2",
"O c #5A34A5",
"+ c #5B36A8",
"@ c #5C36A8",
"# c #5C36AA",
"$ c #5D36AA",
"% c #5E36AB",
"& c #5E37AC",
"* c #5E37AE",
"= c #5F38AC",
"- c #5F39AF",
"; c #6038AF",
": c #6138B0",
"> c #6139B2",
", c #6238B2",
"< c #6239B3",
"1 c #6339B3",
"2 c #623AB2",
"3 c #623AB3",
"4 c #623AB4",
"5 c #633AB5",
"6 c #643AB6",
"7 c #653AB7",
"8 c #643BB7",
"9 c #653BB7",
"0 c #643AB8",
"q c #643BB8",
"w c #653BB8",
"e c #653BB9",
"r c #663BB8",
"t c #663BB9",
"y c #663BBA",
"u c #653CB9",
"i c #663CB9",
"p c #663CBA",
"a c #673CBB",
"s c #673CBC",
"d c #683DBD",
"f c #683DBE",
"g c #693DBF",
"h c #693EC0",
"j c #693EC1",
"k c #6A3EC1",
"l c #6A3EC2",
"z c #6B3EC2",
"x c #6B3EC3",
"c c #6B3FC3",
"v c #6B3FC4",
"b c #6C3FC4",
"n c #6C3FC5",
"m c #6C3FC6",
"M c #6D3FC6",
"N c #6D40C6",
"B c #6D40C7",
"V c #6F41CA",
"C c None",
/* pixels */
"CCCC3wwww5CC",
"CCC1nwtwwN5C",
"CC$N7szgewmC",
"CC>ps:COhwb=",
"CC5tkCCCsib@",
"CCVcnCCCctvC",
"CC6t,CC#gt8C",
"CCCCCC bwn-C",
"CCCCCCduryCC",
"CCCCC:deB+CC",
"CCCC*xqM$CCC",
"CCCXN8l:CCCC",
"CConeh>CCCCC",
"CCkep<CCCCCC",
"C4swg.CCCCCC",
"&Bweq9gdkaCC",
"%f7wwertp3CC",
";s0wwqwwj2CC"
};
