/* XPM */
static char *_5835_0f7ff2fadf05758890c3620d202a7af5d6efa1e6748f4d8533235560ecd2aa5a[] = {
/* columns rows colors chars-per-pixel */
"80 65 237 2 ",
"   c black",
".  c #0A0D15",
"X  c #000239",
"o  c #111528",
"O  c #3C143F",
"+  c #251236",
"@  c #303537",
"#  c #530000",
"$  c #4D082F",
"%  c #771B38",
"&  c #62002E",
"*  c #4C312F",
"=  c #70373C",
"-  c #74051E",
";  c #3F433C",
":  c #474E3E",
">  c #0B0D4C",
",  c #3C1A4A",
"<  c #3A1744",
"1  c #281D53",
"2  c #3C1F52",
"3  c #2C094D",
"4  c #3C2154",
"5  c #3D275D",
"6  c #2F2D50",
"7  c #070D73",
"8  c #2B1974",
"9  c #331870",
"0  c #0F2A73",
"q  c #3D2E6D",
"w  c #352D6D",
"e  c #3D367C",
"r  c #3E3275",
"t  c #2B316F",
"y  c #721247",
"u  c #592456",
"i  c #55314E",
"p  c #752847",
"a  c #7C2B4B",
"s  c #772847",
"d  c #763656",
"f  c #6F2E51",
"g  c #4A1A6F",
"h  c #4A176E",
"j  c #4B1C70",
"k  c #510D6A",
"l  c #700A75",
"z  c #4C2372",
"x  c #472475",
"c  c #542779",
"v  c #493477",
"b  c #79356B",
"n  c #773674",
"m  c #672F73",
"M  c #561454",
"N  c #394A4A",
"B  c #3C4963",
"V  c #3B587C",
"C  c #4D5553",
"Z  c #585A58",
"A  c #4F4D49",
"S  c #7B4B56",
"D  c #735456",
"F  c #6C5350",
"G  c #5B635D",
"H  c #4B536C",
"J  c #684B66",
"K  c #775679",
"L  c #6D546F",
"P  c #58656C",
"I  c #656467",
"U  c #7A7D7B",
"Y  c #71676D",
"T  c #A70505",
"R  c #B1110B",
"E  c #970C2D",
"W  c #A71929",
"Q  c #A31A31",
"!  c #AC1A30",
"~  c #B4102A",
"^  c #9F2436",
"/  c #9A273A",
"(  c #903B3E",
")  c #A52539",
"_  c #A62537",
"`  c #B62333",
"'  c #AD2E31",
"]  c #8F0000",
"[  c #C22424",
"{  c #C42532",
"}  c #A50D58",
"|  c #8E3050",
" . c #AC3148",
".. c #89376C",
"X. c #9A366B",
"o. c #853D79",
"O. c #943C74",
"+. c #982B69",
"@. c #A83D67",
"#. c #93185E",
"$. c #C83E45",
"%. c #8A4F57",
"&. c #B44A51",
"*. c #9B456B",
"=. c #94516F",
"-. c #A84669",
";. c #B34A69",
":. c #B8576D",
">. c #AD556D",
",. c #8F706E",
"<. c #B76778",
"1. c #B56C71",
"2. c #C55257",
"3. c #C94E51",
"4. c #C55C74",
"5. c #C5576D",
"6. c #C86678",
"7. c #D26978",
"8. c #D8757A",
"9. c #C67278",
"0. c #A18A7E",
"q. c #000083",
"w. c #003894",
"e. c #1E3882",
"r. c #243A87",
"t. c #3B3C89",
"y. c #3C3F90",
"u. c #403A84",
"i. c #453E8B",
"p. c #563D8B",
"a. c #51338B",
"s. c #713A81",
"d. c #054296",
"f. c #1D4397",
"g. c #3F408F",
"h. c #2B4194",
"j. c #3F4292",
"k. c #354294",
"l. c #49408E",
"z. c #584689",
"x. c #5E528E",
"c. c #505C87",
"v. c #404292",
"b. c #414599",
"n. c #5F5690",
"m. c #6A4586",
"M. c #615A95",
"N. c #715387",
"B. c #586992",
"V. c #676798",
"C. c #6B6E8F",
"Z. c #5C73AE",
"A. c #6A79B9",
"S. c #7777B8",
"D. c #6F6FA7",
"F. c #5A5AA1",
"G. c #3E5CC2",
"H. c #3961CA",
"J. c #415FC5",
"K. c #4A65C5",
"L. c #4F68C8",
"P. c #677FC0",
"I. c #8F3A9E",
"U. c #945897",
"Y. c #8C548C",
"T. c #976999",
"R. c #8F718F",
"E. c #B06E8E",
"W. c #8570AF",
"Q. c #A86CAA",
"!. c #AC49AF",
"~. c #D97982",
"^. c #CC7389",
"/. c #E77D84",
"(. c #7C848A",
"). c #7D88B8",
"_. c #769BA9",
"`. c #7B8AC5",
"'. c #6A83C8",
"]. c #8A8B8A",
"[. c #9D9D9C",
"{. c #949595",
"}. c #938A8E",
"|. c #9DA29D",
" X c #B0A49B",
".X c #9E9FA1",
"XX c #8992B8",
"oX c #A685A7",
"OX c #A694A8",
"+X c #BF9AAE",
"@X c #9EA1A4",
"#X c #A4A5A4",
"$X c #AAAAA8",
"%X c #B6B6B6",
"&X c #AEADAF",
"*X c #BB9E92",
"=X c #C9868A",
"-X c #DA8487",
";X c #D49997",
":X c #CD9492",
">X c #EA8C8C",
",X c #E48688",
"<X c #F18A8A",
"1X c #E78E91",
"2X c #F59897",
"3X c #ED9191",
"4X c #F4A39E",
"5X c #D5B1A9",
"6X c #E8A7A3",
"7X c #F9A9A3",
"8X c #F8B9AE",
"9X c #F6BCB2",
"0X c #E5B3AA",
"qX c #C383A2",
"wX c #F8CABB",
"eX c #EBC6B6",
"rX c #808FC5",
"tX c #8291C5",
"yX c #8697CC",
"uX c #8B9DD4",
"iX c #ADB8C7",
"pX c #99A2C8",
"aX c #C0BFC0",
"sX c #BCC5D2",
"dX c #97C7DB",
"fX c #C8C8C7",
"gX c #CCCED5",
"hX c #FAD6C4",
"jX c #FAD9C6",
"kX c #FCDCC9",
"lX c #F0D7CD",
"zX c #FEE1CD",
"xX c #FAE0D0",
"cX c #FAFCFD",
"vX c #FFEEE5",
"bX c #D1D5E2",
"nX c None",
/* pixels */
"nXnXnXnXnXnXnXnXnXnXnXnXnXnXnXnXnXnXnXnXnXnXnXnXnXnXnXnXnXnXnXnXnXnXnXnXnXnXnXnXnXnXnXnXnXnXnXnXnXnXnXnXnXnXnXnXnXnXnXnXnXnXnXnXnXnXnXnXnXnXnXnXnXnXnXnXnXnXnXnX",
"nXnXnXnXnXnXnXnXnXnXnXnXnXnXnXnXnXnXnXnXnXnXnXnXnXnXnXnXnXnXnXnXnXnXnXnXnXnXnXnXnXnXnXnXnXnXnXnXnXnXnXnXnXnXnXnXnXnXnXnXnXnXnXnXnXnXnXnXnXnXnXnXnXnXnXnXnXnXnXnX",
"nXnXnXnXnXnXnXnXnXnXnXnXnXnXnXnXnXnXnXnXnXnXnXnXnXnXnXnXnXnXnXnXnXnXnXnXnXnXnXnXnXnXnXnXnXnXnXnXnXnXnXnXnXnXnXnXnXnXnXnXnXnXnXnXnXnXnXnXnXnXnXnXnXnXnXnXnXnXnXnX",
"nXnXnXnXnXnXnXnXnXnXnXnXnXnXnXnXnXnXnXnXnXnXnXnXnXnXnXnXnXnXnXnXnXnX2 4 2 2 2 2 M nXnXnXnXnXnXnXnXnXnXnXnXnXnXnXnXnXnXnXnXnXnXnXnXnXnXnXnXnXnXnXnXnXnXnXnXnXnXnX",
"nXnXnXnXnXnXnXnXnXnXnXnXnXnXnXnXnXnXnXnXnXnXnXnXnXnXnXnXnXnXnX2 2 , e j.v.i.g.g.y.e , 4 nXnXnXnXnXnXnXnXnXnXnXnXnXnXnXnXnXnXnXnXnXnXnXnXnXnXnXnXnXnXnXnXnXnXnXnX",
"nXnXnXnXnXnXnXnXnXnXnXnXnXnXnXnXnXnXnXnXnXnXnXnXnXnXnXnXnX2 , e j.y.j.j.v.v.k.k.y.y.r.r., 4 nXnXnXnXnXnXnXnXnXnXnXnXnXnXnXnXnXnXnXnXnXnXnXnXnXnXnXnXnXnXnXnXnXnX",
"nXnXnXnXnXnXnXnXnXnXnXnXnXnXnXnXnXnXnXnXnXnXnXnXnXnXnXnX< e v.y.v.y.k.k.y.f.n /  .{  ._ n t < nXnXnXnXnXnXnXnXnXnXnXnXnXnXnXnXnXnXnXnXnXnXnXnXnXnXnXnXnXnXnXnXnX",
"nXnXnXnXnXnXnXnXnXnXnXnXnXnXnXnXnXnXnXnXnXnXnXnXnXnXnX, e v.j.j.v.v.r.n /  .[ ` [ [ [ [ ' n r.$ nXnXnXnXnXnXnXnXnXnXnXnXnXnXnXnXnXnXnXnXnXnXnXnXnXnXnXnXnXnXnXnX",
"nXnXnXnXnXnXnXnXnXnXnXnXnXnXnXnXnXnXnXnXnXnXnXnXnXnXnX< u.j.v.v.v.f...{ ` R ..z.z.p.p.g...R b 0 , nXnXnXnXnXnXnXnXnXnXnXnXnXnXnXnXnXnXnXnXnXnXnXnXnXnXnXnXnXnXnX",
"nXnXnXnXnXnXnXnXnXnXnXnXnXnXnXnXnXnXnXnXnXnXnXnXnXnX, e j.v.v.v.f.b R ..p.z.l.g.y.f.K @.*.v.o.| 1 nXnXnXnXnXnXnXnXnXnXnXnXnXnXnXnXnXnXnXnXnXnXnXnXnXnXnXnXnXnXnX",
"nXnXnXnXnXnXnXnXnXnXnXnXnXnXnXnXnXnXnXnXnXnXnXnXnXnXO u.j.y.y.h...b l.l.j.j.v.k.w.s.4.<XE.w.i.p.e , nXnXnXnXnXnXnXnXnXnXnXnXnXnXnXnXnXnXnXnXnXnXnXnXnXnXnXnXnXnX",
"nXnXnXnXnXnXnXnXnXnXnXnXnXnXnXnXnXnXnXnXnXnXnXnXnX, e v.v.v.j.j.p.l.k.g.j.k.d.n X.4.7XhX6Xl h.b.t.O nXnXnXnXnXnXnXnXnXnXnXnXnXnXnXnXnXnXnXnXnXnXnXnXnXnXnXnXnXnX",
"nXnXnXnXnXnXnXnXnXnXnXnXnXnXnXnXnXnXnXnXnXnXnXnXnX, u.j.v.j.j.v.g.g.r.f.w.s.X.6./.6XhXjX9XE.w.v.k.r , nXnXnXnXnXnXnXnXnXnXnXnXnXnXnXnXnXnXnXnXnXnXnXnXnXnXnXnXnX",
"nXnXnXnXnXnXnXnXnXnXnXnXnXnXnXnXnXnXnXnXnXnXnXnXnX, u.j.y.j.y.v.g.h.=.*.^.1X,X7XhXhXhXkXwX8.s.h.g.t., nXnXnXnXnXnXnXnXnXnXnXnXnXnXnXnXnXnXnXnXnXnXnXnXnXnXnXnXnX",
"nXnXnXnXnXnXnXnXnXnXnXnXnXnXnXnXnXnXnXnXnXnXnXnXnXO u.j.j.j.b.k.j.0 >.>.u 9.9XkXhXhXkX5XJ d v j.g.u., nXnXnXnXnXnXnXnXnXnXnXnXnXnXnXnXnXnXnXnXnXnXnXnXnXnXnXnXnX",
"nXnXnXnXnXnXnXnXnXnXnXnXnXnXnXnXnXnXnXnXnXnXnXnX, e j.j.j.i.y.j.0 =.=.6 > z =X4XwXwX=XB > > 1 v j.u.O nXnXnXnXnXnXnXnXnXnXnXnXnXnXnXnXnXnXnXnXnXnXnXnXnXnXnXnXnX",
"nXnXnXnXnXnXnXnXnXnXnXnXnXnXnXnXnXnXnXnXnXnXnXnX, i.v.y.r.h.y.h.=.:.;.;.b > 3 :.8X8X,X9.X.-...t j.j.e , nXnXnXnXnXnXnXnXnXnXnXnXnXnXnXnXnXnXnXnXnXnXnXnXnXnXnXnX",
"nXnXnXnXnXnXnXnXnXnXnXnXnXnXnXnXnXnXnXnXnXnXnXnX, i.d.o.O.m.t 6 + # & a * y :XeXhXhX6X| # = $ t b.v.u., nXnXnXnXnXnXnXnXnXnXnXnXnXnXnXnXnXnXnXnXnXnXnXnXnXnXnXnX",
"nXnXnXnXnXnXnXnXnXnXnXnXnXnXnXnXnXnXnXnXnXnXnXnX, r.s.^.>XU.h.+ _.dXC.  .   *XzXhXkX*XC._.  o 5 e v.u., nXnXnXnXnXnXnXnXnXnXnXnXnXnXnXnXnXnXnXnXnXnXnXnXnXnXnXnX",
"nXnXnXnXnXnXnXnXnXnXnXnXnXnXnXnXnXnXnXnXnXnXnXnX, r.O.~.2XU.w.7 sXcXiXX   }.wXjXhXjXeXxXsX  + 4 q v.u., nXnXnXnXnXnXnXnXnXnXnXnXnXnXnXnXnXnXnXnXnXnXnXnXnXnXnXnX",
"nXnXnXnXnXnXnXnXnXnXnXnXnXnXnXnXnXnXnXnXnXnXnXnX, r.+.0X4X,XU.q.gXcX$X    *XzXjXhXhXhXvXsX  X > v k.e , nXnXnXnXnXnXnXnXnXnXnXnXnXnXnXnXnXnXnXnXnXnXnXnXnXnXnXnX",
"nXnXnXnXnXnXnXnXnXnXnXnXnXnXnXnXnXnXnXnXnXnXnXnX, r.#.9XzX7XU.q.bXcXcX].  *XkXjXjXjXjXvXcX|.- 1.0 b.g., nXnXnXnXnXnXnXnXnXnXnXnXnXnXnXnXnXnXnXnXnXnXnXnXnXnXnXnX",
"nXnXnXnXnXnXnXnXnXnXnXnXnXnXnXnXnXnXnXnXnXnXnXnX< t.z.E.:X3X>XN.+X9XxXlX5XeXjXhXjXeX9XxXvXlX;X:.7 v.l., nXnXnXnXnXnXnXnXnXnXnXnXnXnXnXnXnXnXnXnXnXnXnXnXnXnXnXnX",
"nXnXnXnXnXnXnXnXnXnXnXnXnXnXnXnXnXnXnXnXnXnXnXnX, u.k.p.X.5.7.E.~.<X8XlXkXjXjXkXkXwXwXjXhXzX0X| 0 j.e , nXnXnXnXnXnXnXnXnXnXnXnXnXnXnXnXnXnXnXnXnXnXnXnXnXnXnXnX",
"nXnXnXnXnXnXnXnXnXnXnXnXnXnXnXnXnXnXnXnXnXnXnXnX, t.v.h.m d u -.~.,X4XwXkXlXwX4X6X9XkXjXkXhX,X#.t j.t., nXnXnXnXnXnXnXnXnXnXnXnXnXnXnXnXnXnXnXnXnXnXnXnXnXnXnXnX",
"nXnXnXnXnXnXnXnXnXnXnXnXnXnXnXnXnXnXnXnXnXnXnXnX, i.v.v.w 1 1 u -.^.,X2XwXkXwX8X9XwXjXkXhX1X;.u t j.e , nXnXnXnXnXnXnXnXnXnXnXnXnXnXnXnXnXnXnXnXnXnXnXnXnXnXnXnX",
"nXnXnXnXnXnXnXnXnXnXnXnXnXnXnXnXnXnXnXnXnXnXnXnXnXq i.j.q 4 4 1 u -.7.4.3X7XwXxXzXzXhX6X~.;.M t t.v.l., nXnXnXnXnXnXnXnXnXnXnXnXnXnXnXnXnXnXnXnXnXnXnXnXnXnXnXnX",
"nXnXnXnXnXnXnXnXnXnXnXnXnXnXnXnXnXnXnXnXnXnXnXnXnX< t.j.q , 4 4 1 u %.S >.7.=X;X;X;X=X%.y u 1 r j.v.q nXnXnXnXnXnXnXnXnXnXnXnXnXnXnXnXnXnXnXnXnXnXnXnXnXnXnXnXnX",
"nXnXnXnXnXnXnXnXnXnXnXnXnXnXnXnXnXnXnXnXnXnXnXnXnX, t.b.q , u 1 X 1 N.].Y S 1.:. .X.A ].{.X 3 8 b.t.< nXnXnXnXnXnXnXnXnXnXnXnXnXnXnXnXnXnXnXnXnXnXnXnXnXnXnXnXnX",
"nXnXnXnXnXnXnXnXnXnXnXnXnXnXnXnXnXnXnXnXnXnXnXnXnX, j.j.t.q > l OX].Y.oX%X(.9.>X4.S L OXaX].L U 8 y., nXnXnXnXnXnXnXnXnXnXnXnXnXnXnXnXnXnXnXnXnXnXnXnXnXnXnXnXnX",
"nXnXnXnXnXnXnXnXnXnXnXnXnXnXnXnXnXnXnXnXnXnXnXnXnXnXq v i.t.m T.%X@XN.}.gX&XD 1X3X1.N.Q.fX%X{.aXY 9 nXnXnXnXnXnXnXnXnXnXnXnXnXnXnXnXnXnXnXnXnXnXnXnXnXnXnXnXnXnX",
"nXnXnXnXnXnXnXnXnXnXnXnXnXnXnXnXnXnXnXnXnXnXnXnXnXnXnXnXq 0 I.OX|.D.P Y |.(.N ,.9.,.L K {.{.}.gXiXnXnXnXnXnXnXnXnXnXnXnXnXnXnXnXnXnXnXnXnXnXnXnXnXnXnXnXnXnXnXnX",
"nXnXnXnXnXnXnXnXnXnXnXnXnXnXnXnXnXnXnXnXnXnXnXnXnXnXnXnXnXn T..X#X0.A A N L R.U U (.].|.].@ U %XgXnXnXnXnXnXnXnXnXnXnXnXnXnXnXnXnXnXnXnXnXnXnXnXnXnXnXnXnXnXnXnX",
"nXnXnXnXnXnXnXnXnXnXnXnXnXnXnXnXnXnXnXnXnXnXnXnXnXnXnXnXnX!.oX#X].P 6 @ ; Y.oX@X[.#X%XfX%X].Z }.5XgXnXnXnXnXnXnXnXnXnXnXnXnXnXnXnXnXnXnXnXnXnXnXnXnXnXnXnXnXnXnX",
"nXnXnXnXnXnXnXnXnXnXnXnXnXnXnXnXnXnXnXnXnXnXnXnXnXnXnXnXnX!.OX{.Y N @ N L T..X|.[.[. X&XfX%Xo I #X%XnXnXnXnXnXnXnXnXnXnXnXnXnXnXnXnXnXnXnXnXnXnXnXnXnXnXnXnXnXnX",
"nXnXnXnXnXnXnXnXnXnXnXnXnXnXnXnXnXnXnXnXnXnXnXnXnXnXnXnXnXY.].G ; P B : U.oX|.[.[.|.#X&XfX%X@ N U {.nXnXnXnXnXnXnXnXnXnXnXnXnXnXnXnXnXnXnXnXnXnXnXnXnXnXnXnXnXnX",
"nXnXnXnXnXnXnXnXnXnXnXnXnXnXnXnXnXnXnXnXnXnXnXnXnXnXnXnXnX,.%.| H Z.Z.C K T.OX|.{.@X&X%XgX%X@ H B.nXnXz c z.`.yXnXnXnXnXnXnXnXnXnXnXnXnXnXnXnXnXnXnXnXnXnXnXnXnX",
"nXnXnXnXnXnXnXnXnXnXnXnXnXnXnXnXnXnXnXnXnXnXnXnXnXnXnXnXnX~.~.7.+XQ.).B.* K R.,.0.}.{.}. X{.N Z.W.nXj a.j k x.uXrXnXnXnXnXnXnXnXnXnXnXnXnXnXnXnXnXnXnXnXnXnXnXnX",
"nXnXnXnXnXnXnXnXnXnXnXnXnXnXnXnXnXnXnXnXnXnXnXnXnXnXnXnX1X9X4X2X<X^.W.g.* = J m.m.m.m m z.H H D.E.>.8 z x j z.).tXnXnXnXnXnXnXnXnXnXnXnXnXnXnXnXnXnXnXnXnXnXnXnX",
"nXnXnXnXnXnXnXnXnXnXnXnXnXnXnXnXnXnXnXnXnXnXnXnXnXnXnX=XhXhX7X2X5.D.nXnXC L W.XXXX).).XXpXXXC = 6.^.k c z z k z.uXtXnXnXnXnXnXnXnXnXnXnXnXnXnXnXnXnXnXnXnXnXnXnX",
"nXnXnXnXnXnXnXnXnXnXnXnXnXnXnXnXnXnXnXnXnXnXnXnXnXnX5.5X5X;X/.4.nXnXnXN L U.Q.&X&X[.[.#XfXfXXXK 7.,X-.8 z z h x.uX`.nXnXnXnXnXnXnXnXnXnXnXnXnXnXnXnXnXnXnXnXnXnX",
"nXnXnXnXnXnXnXnXnXnXnXnXnXnXnXnXnXnXnXnXnXnXnXnX=X6X1X..k +.@.nXnXnXG A Y.Q.OX%X#X[.[.$X&XfXsXW.8.>X^.k x x j z.).yXnXnXnXnXnXnXnXnXnXnXnXnXnXnXnXnXnXnXnXnXnXnX",
"nXnXnXnXnXnXnXnXnXnXnXnXnXnXnXnXnXnXnXnXnXnXnX} wXhXR.+.;.4.nXnXnX|.(.H U.oX$X%X$X.X[.$X&XfXsXT.3X2X/.*.8 z z k z.uXtXnXnXnXnXnXnXnXnXnXnXnXnXnXnXnXnXnXnXnXnXnX",
"nXnXnXnXnXnXnXnXnXnXnXnXnXnXnXnXnXnXnXnXz a.nX} 6X;X:.6.5.@.nXnXnX. : Z.W.R.{.OX{.].}.}.|.%X#XD ^.<X>X<.u x z g x.yXtXnXnXnXnXnXnXnXnXnXnXnXnXnXnXnXnXnXnXnXnXnX",
"nXnXnXnXnXnXnXnXnXnXnXnXnXnXnXnXnXnXnXz j z c O.} 5X-X~.~.nXnXnXc.H A C.N.F C C C Z Z C C C = C.W.^.-X>.O.j x g n.yXtXnXnXnXnXnXnXnXnXnXnXnXnXnXnXnXnXnXnXnXnXnX",
"nXnXnXnXnXnXnXnXnXnXnXnXnXnXnXnXnXnXnXnXN.v j 8 O.} ~.6.@.nXnX).).C.Z ( T %.D D D D D D D D | -.).S.*.7 9 z z g x.yXtXnXnXnXnXnXnXnXnXnXnXnXnXnXnXnXnXnXnXnXnXnX",
"nXnXnXnXnXnXnXnXnXnXnXnXnXnXnXnXnXnXnXnX XC.x z 8 ..@.;.nXnXnXS.B.P L ( ` ` Q W ! ! Q Q Q W ~ T ..F.7 m b m x h x.yXtXnXnXnXnXnXnXnXnXnXnXnXnXnXnXnXnXnXnXnXnXnX",
"nXnXnXnXnXnXnXnXnXnXnXnXnXnXnXnXnXnXnX.X#XyXD.v z 8 O.nXnXnXT U.S.S.=.~ [ ! ^ _ { ` Q E  .&.2.2.' E m +.;.O.9 h x.uXtXnXnXnXnXnXnXnXnXnXnXnXnXnXnXnXnXnXnXnXnXnX",
"nXnXnXnXnXnXnXnXnXnXnXnXnXnXnXnXnXnX[.#XrXrXyXF.x z x nXnXnX^ W T ' 3.3.&. .Q ` { $.&.&.8.2X2X2X,X'  .*.O.8 z h x.yXtXnXnXnXnXnXnXnXnXnXnXnXnXnXnXnXnXnXnXnXnXnX",
"nXnXnXnXnXnXnXnXnXnXnXnXnXnXnXnXnX[.#XrXtX`.L.H.i.j c z nXnX/ Q ' -X2X2X4X8.&. .R 8.4X2X2X1X-X-X3X-Xy 8 9 z z c V.tXtXnXnXnXnXnXnXnXnXnXnXnXnXnXnXnXnXnXnXnXnXnX",
"nXnXnXnXnXnXnXnXnXnXnXnXnXnXnXnX[.@XtXtXrXL.G.nXnXz x nXnXnXnXnX3X3X,X>X3X2X7XnXnXnX1X-X-X1.$ & -.E.7 j z z k M.uXtXnXnXnXnXnXnXnXnXnXnXnXnXnXnXnXnXnXnXnXnXnXnX",
"nXnXnXnXnXnXnXnXnXnXnXnXnXnXnX.X#XtXtX`.L.G.nXnXnXnXnXnXnXnXnXnXE E ] 6.,X,X>XnXnXnXnXy & % p p % M a.j z z h M.uX`.nXnXnXnXnXnXnXnXnXnXnXnXnXnXnXnXnXnXnXnXnXnX",
"nXnXnXnXnXnXnXnXnXnXnXnXnXnX[.#XtXtX`.L.G.nXnXnXnXnXnXnXnXnXnX^ ! / ( / E ~ nXnXnXnXnX| s % p f f f x z z z z V.yXtXnXnXnXnXnXnXnXnXnXnXnXnXnXnXnXnXnXnXnXnXnXnX",
"nXnXnXnXnXnXnXnXnXnXnXnXnX[.[.rXtXrXL.G.nXnXnXnXnXnXnXnXnXnXnXX. .L P G %. .nXnXnXnXnX| d b D P G G nXc z h M.uX`.nXnXnXnXnXnXnXnXnXnXnXnXnXnXnXnXnXnXnXnXnXnXnX",
"nXnXnXnXnXnXnXnXnXnXnXnX|.OXtXtXrXK.G.nXnXnXnXnXnXnXnXnXnXnXnXA.'.A.B.G Z V.nXnXnXnXnXd V.'.V.Z I G nXz z z V.yXtXnXnXnXnXnXnXnXnXnXnXnXnXnXnXnXnXnXnXnXnXnXnXnX",
"nXnXnXnXnXnXnXnXnXnXnX|.|.tXrXrXK.G.nXnXnXnXnXnXnXnXnXnXnXnXnXS.S.S.C.F Y nXnXnXnXnXnX'.A.A.C.Z G G nXnXh M.yXrXnXnXnXnXnXnXnXnXnXnXnXnXnXnXnXnXnXnXnXnXnXnXnXnX",
"nXnXnXnXnXnXnXnXnXnX[.[.tXrXrXK.K.nXnXnXnXnXnXnXnXnXnXnXnXnX) W W T W Q Q nXnXnXnXnXnX% % % % a s nXnXnXnXnXnXnXnXnXnXnXnXnXnXnXnXnXnXnXnXnXnXnXnXnXnXnXnXnXnXnX",
"nXnXnXnXnXnXnXnXnX[.#XtXrXtXK.J.nXnXnXnXnXnXnXnXnXnXnXnXnXnX/ ) / / ) ) nXnXnXnXnXnXp a s s p s s nXnXnXnXnXnXnXnXnXnXnXnXnXnXnXnXnXnXnXnXnXnXnXnXnXnXnXnXnXnXnX",
"nXnXnXnXnXnXnXnXnX|.tXtXtXK.G.nXnXnXnXnXnXnXnXnXnXnXnXnXnXnX^ ) / ^ ^ ' nXnXnXnXnXp a p s p a p nXnXnXnXnXnXnXnXnXnXnXnXnXnXnXnXnXnXnXnXnXnXnXnXnXnXnXnXnXnXnXnX",
"nXnXnXnXnXnXnXnXnX`.tXtXK.J.nXnXnXnXnXnXnXnXnXnXnXnXnXnXnXnX^ _ ^ / ^ _ nXnXnXnXnXnXa p s s s p nXnXnXnXnXnXnXnXnXnXnXnXnXnXnXnXnXnXnXnXnXnXnXnXnXnXnXnXnXnXnXnX",
"nXnXnXnXnXnXnXnXnXtXtXK.G.nXnXnXnXnXnXnXnXnXnXnXnXnXnXnXnXnX^ ) ^ | f a nXnXnXnXnXp a p p a s nXnXnXnXnXnXnXnXnXnXnXnXnXnXnXnXnXnXnXnXnXnXnXnXnXnXnXnXnXnXnXnXnX",
"nXnXnXnXnXnXnXnXnXnXnXnXnXnXnXnXnXnXnXnXnXnXnXnXnXnXnXnXnX/ ) ) W S G nXnXnXnXnXp | p p f a d nXnXnXnXnXnXnXnXnXnXnXnXnXnXnXnXnXnXnXnXnXnXnXnXnXnXnXnXnXnXnXnXnX",
"nXnXnXnXnXnXnXnXnXnXnXnXnXnXnXnXnXnXnXnXnXnXnXnXnXnXnXnXnX) ) ) ^ S I nXnXnXnXnXnXa p % N.'.'.A.nXnXnXnXnXnXnXnXnXnXnXnXnXnXnXnXnXnXnXnXnXnXnXnXnXnXnXnXnXnXnXnX",
"nXnXnXnXnXnXnXnXnXnXnXnXnXnXnXnXnXnXnXnXnXnXnXnXnXnXnXnXnX^ T V.P.).U.nXnXnXnXnXnXa p p p % p a s nXnXnXnXnXnXnXnXnXnXnXnXnXnXnXnXnXnXnXnXnXnXnXnXnXnXnXnXnXnXnX",
"nXnXnXnXnXnXnXnXnXnXnXnXnXnXnXnXnXnXnXnXnXnXnXnXnXnXnXnXnX^ ) ^ ^ ^ _ nXnXnXnXnXnX| p p p p p p p nXnXnXnXnXnXnXnXnXnXnXnXnXnXnXnXnXnXnXnXnXnXnXnXnXnXnXnXnXnXnX"
};
