/* XPM */
static char *b038d28fabf84656b9628b5ce14cdb2c9NoE5KZ0lBLmEtyn[] = {
/* columns rows colors chars-per-pixel */
"80 80 256 2 ",
"   c #030201",
".  c #0B0201",
"X  c #0B0A05",
"o  c #0C0B0B",
"O  c #070708",
"+  c #140202",
"@  c #1B0100",
"#  c #120D0B",
"$  c #160909",
"%  c #13120D",
"&  c #1A1409",
"*  c #141313",
"=  c #1A1613",
"-  c #1B1A15",
";  c #1C1C1B",
":  c #161916",
">  c #0F1010",
",  c #240000",
"<  c #2C0100",
"1  c #290B05",
"2  c #320000",
"3  c #3B0100",
"4  c #390C06",
"5  c #221D1B",
"6  c #291A16",
"7  c #351916",
"8  c #30130C",
"9  c #1E201B",
"0  c #23221D",
"q  c #2A241A",
"w  c #33271E",
"e  c #261D21",
"r  c #242423",
"t  c #2A2623",
"y  c #2B2925",
"u  c #2C2C2C",
"i  c #262928",
"p  c #322D2D",
"a  c #352826",
"s  c #2C322D",
"d  c #27302D",
"f  c #32312E",
"g  c #3C342D",
"h  c #2E2E31",
"j  c #332E32",
"k  c #3A2E32",
"l  c #2D3232",
"z  c #333333",
"x  c #393434",
"c  c #353539",
"v  c #3B3B3B",
"b  c #383937",
"n  c #1B2421",
"m  c #440202",
"M  c #4C0202",
"N  c #4A0908",
"B  c #530101",
"V  c #5B0604",
"C  c #581512",
"Z  c #4E1311",
"A  c #6D0101",
"S  c #660404",
"D  c #760708",
"F  c #791718",
"G  c #701210",
"H  c #4B2714",
"J  c #6F2D00",
"K  c #731F21",
"L  c #432827",
"P  c #443D3A",
"I  c #573A38",
"U  c #4B332A",
"Y  c #673937",
"T  c #742B2D",
"R  c #4A4639",
"E  c #53483A",
"W  c #514F3B",
"Q  c #65513B",
"!  c #3E3E42",
"~  c #423F42",
"^  c #613840",
"/  c #3E4247",
"(  c #434343",
")  c #4A4948",
"_  c #544C46",
"`  c #585548",
"'  c #5A5754",
"]  c #4F5150",
"[  c #625C4C",
"{  c #635748",
"}  c #635C54",
"|  c #665B57",
" . c #745554",
".. c #67644E",
"X. c #65625B",
"o. c #6B645B",
"O. c #6D6A5C",
"+. c #686455",
"@. c #73695A",
"#. c #75735B",
"$. c #6C6363",
"%. c #6C6D6C",
"&. c #696864",
"*. c #746A65",
"=. c #757265",
"-. c #7A7669",
";. c #747474",
":. c #7B7A75",
">. c #7A7B7A",
",. c #767777",
"<. c #6E706F",
"1. c #685E59",
"2. c #8A0606",
"3. c #970809",
"4. c #98130B",
"5. c #9A0E13",
"6. c #871517",
"7. c #981416",
"8. c #85110B",
"9. c #A40302",
"0. c #AC0202",
"q. c #A7080A",
"w. c #B30202",
"e. c #BB0201",
"r. c #B70608",
"t. c #A80E12",
"y. c #A91719",
"u. c #B11516",
"i. c #A12216",
"p. c #8C3231",
"a. c #B32427",
"s. c #991C21",
"d. c #C20101",
"f. c #C80304",
"g. c #CA1819",
"h. c #D41211",
"j. c #905756",
"k. c #837D6C",
"l. c #85766D",
"z. c #837D72",
"x. c #887875",
"c. c #917270",
"v. c #B36D6C",
"b. c #AA5A56",
"n. c #CF7171",
"m. c #EB7172",
"M. c #D65152",
"N. c #9B6620",
"B. c #8A8375",
"V. c #84827B",
"C. c #8B857B",
"Z. c #898678",
"A. c #928B7D",
"S. c #95867A",
"D. c #8B8672",
"F. c #A88A7C",
"G. c #C58965",
"H. c #7E7D82",
"J. c #937E81",
"K. c #E77E81",
"L. c #8A8884",
"P. c #938C82",
"I. c #968986",
"U. c #949185",
"Y. c #9B9385",
"T. c #94928B",
"R. c #9B958B",
"E. c #9C9A8D",
"W. c #9A9987",
"Q. c #9D9A93",
"!. c #9A9794",
"~. c #8F9080",
"^. c #A39B8D",
"/. c #A39485",
"(. c #A39C93",
"). c #A79B97",
"_. c #B1928E",
"`. c #9EA292",
"'. c #A6A28E",
"]. c #A4A295",
"[. c #ABA395",
"{. c #A5A39C",
"}. c #ABA49B",
"|. c #ACAA9C",
" X c #A9A997",
".X c #B2A59C",
"XX c #B3AB9D",
"oX c #B8A799",
"OX c #B3B19D",
"+X c #AEB19C",
"@X c #ADABA3",
"#X c #AAA8A4",
"$X c #B3ACA3",
"%X c #B3ADAA",
"&X c #B7A9A5",
"*X c #B4B2A4",
"=X c #BAB2A5",
"-X c #B5B2AB",
";X c #BAB4AB",
":X c #BEB9AD",
">X c #BAB6B2",
",X c #AEB1A2",
"<X c #CE9996",
"1X c #FB8788",
"2X c #F89696",
"3X c #EB8C8C",
"4X c #C5A29C",
"5X c #CC9DA3",
"6X c #C4A7A7",
"7X c #D8A8A6",
"8X c #C2B7AC",
"9X c #C3B8B4",
"0X c #D6B8B9",
"qX c #CFAEB2",
"wX c #E5A9A9",
"eX c #F9A8A9",
"rX c #F7ADB2",
"tX c #E9B7B8",
"yX c #F7B8B8",
"uX c #EDAFAF",
"iX c #F0A19D",
"pX c #C9C3B5",
"aX c #FBC3BC",
"sX c #EAC3BF",
"dX c #FCE199",
"fX c #F7BDC1",
"gX c #C4BFC3",
"hX c #D4C9C7",
"jX c #E9C9CA",
"kX c #FDC4C4",
"lX c #FECCCC",
"zX c #FAC8C8",
"xX c #FED2CD",
"cX c #F7D3CD",
"vX c #FFCDD1",
"bX c #F0CBD2",
"nX c #ECD6D6",
"mX c #FED5D4",
"MX c #F5D9D5",
"NX c #FDDAD5",
"BX c #FED6DA",
"VX c #F5DCDA",
"CX c #FEDBDB",
"ZX c #F3D5D6",
"AX c #EECFCE",
"SX c #FEE1DD",
"DX c #F4E1D9",
"FX c #E1E0DE",
"GX c #FEDDE2",
"HX c #FADBE1",
"JX c #FDE4E4",
"KX c #FFEBEB",
"LX c #FEE8E8",
"PX c #FDF4ED",
"IX c #FFF8F5",
"UX c #EEEFE7",
/* pixels */
"P E ` k.A.A.Y.P.B.z.l.@.o.^.[.Y.[.E.Y.^.^.@.` P.R .   t >X%X&X&X$X;X&._ R &.!.@X%X@X@X#X%X-X@X$X}.}.).T.r     _ (.^.Y./..X.XP.x.k.Y.[..X.X.XXXoXoXoX'.E ..|.}. X",
"R } [.^.[.[.[.}.[.).}.P.B.^.^.[.^.(.^.^.XXY.(.[.'     i %X@X%X$X$X}.-XT.X X = !.!.= * - T.-X@X%X%X;X).T.r .   _ ].P.(.}.}.(.).^.z.^.&X&X.X.XXX.XoXXX[.W ..|.|.,X",
"[ =.XX}.}.XX}.}.$X@X).l.} R.(.(.[.}.(.[.[.XX}.8X}     * * <.-X>X:.% 0 %       % =       o = - %.%X-X<.% o   . ' [.}..X}.}..X%X}.Y.(.}.$X}.(..X=XoXXXoX` +.|.}.|.",
"P | R.[.|.}.}.XX}..X[.-._ Y.[.(.}.}.(.[..X[.$X}.'   i i l r - % o     O   ; l r r z :   O     % ; - ; z i i   _ #X(.(.[.}.@X;X(.V.(.$X$X.X@X&X.XXX=X[.R ` }.}.].",
"U } $X|.XX'.'.[.[.[.*XB.@.O.k.^.(.(.}..X.X(.R.:.P   u b u s 9   o z i i i z z z z z u i i z i o   ; s f z i . | %X(.U.o.*.X.:.&.R ` *.T.(.(.[.}.|.[.Y.W R ` R _ ",
"_ ` +.[ [ ` ` W ` ` @...` E { -.+.| | } | } } (.( . u z l l z i u z z z z z i h b h z z z z b u i b z f z p . ' 9X@XC._ -.T.!.T.L.T.R.R.R.!.R.C.E B.XXB.C.R.U.U.",
").!.V.Q.^.E.#.R -.B.A.P.B.P.A.C.P.C.A.P.(.P # 5 *   i l z u z z z i z z h h b z u z z z z u z z z z u z z u   * 5 - f _ ;.@X{.#X@X#X#X@X@X{.Q.P.g k.=X}.XX$X$X=X",
">X%X%X$X=XpXD.W A.].(.R.(.E.R.(.A.x.I.' y .   r r i u z p x z z z z z u z z p z z z z z u z z z z z z f z u u r r     o ' -XQ.Q.Q.Q.Q.{.}.@X}.T.R C.$X}.$XXX$X$X",
"%X@X-X}.].=XB.R A.W.E.R.R.R.R.R.Y.C.{._   9 i z l z j u $ $ . . X o u u o O .   X . o X p i o . . . X # t z z z z u ;   ' >X{.{.Q.{.{.{.#X{.}.R.R z.-X$XXXXXXX}.",
">X@X@X@XXXOXk.R +.-.R.R.Q.R.(.R.[.R.t %   r b s l z = $ . *.9X6X*.. . $ . } >X$X@X9X' . X . . *.;X9X$.. + = z f l z i   = p !.@X@X#X{.].].].{.P.E C.-X%X|.$X=X=X",
"-.=.+.....-.-.-.[ +.D.B.k.=.=.+.=.` . o r i l l r o . 6 &XjXKXLXnX&X6XI.. l.KXJXJXKXx.. I.6X&XnXLXLXjX;X6 . o r z l d u O   ' X.` _ ' ..' ' =.=.R ` o.=.=.O.[ [ ",
"R.R.E.' W W.'. XW.W.(.].E.].k.g k.z.. ; z l u b * . I.hXJXJXCXZXGXCXKXGX6X0XCXCXMXCX0X6XCXKXCXJXZXHXJXKXhXI.. % z u l b - X :.R.U.V.V.-.Z.R.].].E.R.R.R.(.^.[ R ",
"-X$X$Xo.` |.;X@X;X-X%X%X$X9XC.a A.R.  = b b z # ' ;XnXLXZXVXZXJXCXCXBXCXMXGXCXCXBXCXGXmXCXCXCXCXJXZXVXZXJXnX;X' # z z z :   (.:X=X].A.+.C.:X:X=X:X-X9X;X:X8X-.` ",
"$X|.@XO._ W.@X}.@X{.@X@X$X$XP._ U.L.X = z ; # . $.IXAXnXJXCXMXZXCXVXMXZXJXMXBXCXCXmXCXCXMXAXCXVXZXCXCXJXZXnXIX$.. * * v :   L.}.XX^.B.[ k. X|.*X=X|.-X$X$X=X#.` ",
"|.}.:X+.W ].}.;X-X;X>X$X=X:XY._ U.U.  - x # # J.qXVXSXSXAXJXLXLXJXKXKXKXVXCXCXCXCXMXMXCXLXKXKXJXJXKXJXZXCXJXMX9XJ.% O z :   C.$X=XR.B.k./.XX=X8X:X8X9X-X:X8XD.{ ",
"+.=.-...` *.*.O.=.-.&.=.-.S.o.U o.| . ; ~ O e LXJXVXCXMXPX).| *.$.| | l.JXKXVXVXMXCXLXJXl.| | o.$.| _.KXCXCXMXJXLX5 O ( ;   x.S.c. .` { +.@.-.#.=.-.-.-.-.=.[ _ ",
"=.=.=.-.z.l.=.O.=.O.` [ [ l.c.c.c.l.. . >   e nXVXVXDX0X*.5         . o $.#XJXMXMXJX#X$.X         . 6 *.0XDXDXVXnXe   o . . c.<XF.c.c.l.l.z.=.-.z.} R O.O.O.:.L.",
"^.E.^.^./.^.^.[.[.'.k.k.c.oX4X7XjXtXx.x.L.= + VXSXZXIX8X. .   L.' .   X . $.KXmXmXKX$.. X   . ' L.  . . 8XPXnXSXnX+ = L.x.c.fXfXwX7X7X6X&X%X*X|.&XP.-.]. X`.-X9X",
"F./.Y./.F./././.oX_.S.F.<X<X7XsXmXSXKXJXLX).I.CXZXJXc.I . _ L.IXnX/.t $  .5XGXCXCXGX5X .$ t /.ZXIXL._ + I l.SXMXCXJ._.JXJXJXGXcXsX7X<X5X6X)..X{.].P.l.XX=X,X=X$X",
"/.F.S.F./.F././.oX6XoX4XwXuXzXSXSXcXtXjXJXJXCXBXCXCXc. .-.9XIXKXzX<XL 8 tXzXCXmXmXCXzXtX8 L <XzXKXIX9X-.1.c.GXCXCXCXGXCXjXtXmXSXNXlXkXwX4X).}.[.@XZ.o.Y.].*X$X%X",
"/.Y././.F.S.S.Y.)._.c._.7XBXNXNXMXcXtXyXyXlXBXCXCXBXLXIXIXPXUXPXiXp.2 < wXyXSXNXNXCXyXwX2 2 p.eXIXUXIXIXIXKXCXCXCXBXlXyXkXtXMXMXNXNXmXwX6X&X).).@X-.` z.R.:X$X:X",
"S.I.).Y.S././.(.(.R.x._.<XtXzXNXCXNXNXyX7XrXkXmXBXmXGX0X$.*.*.c.p.V Y j.yXkXmXNXNXxXkXyXj.Y V p.c.*.*.*.hXHXZXCXmXkXrXwXyXNXNXCXCXzXuX7X0XhX@XQ.#XP.z.R.(.%XP.z.",
"!.x.` I U E E E R.%X9XqX0XtXuXyXlXNXCXkXyXwXwXBXCXCXGXqXI Y Y Y Y Y 7XmXBXGXSXNXNXSXGXBXmX7XY Y I I Y ^ qXGXHXCXBXwXwXyXzXCXNXvXfXuXtXcXLXIXhX{.R E E _ _ _ _ R ",
"gX:.. 1 1 < 4 2 Q  . . . .j.n.eXyXaXyXzXmXrXuXBXCXCXCXBXzXzXzXlXjXAXmXBXGXbXtXmXBXtXbXGXBXBXAXjXzXlXzXzXBXGXCXCXmXuXuXCXlXyXaXyXeXn.j.F.F.F.j.Q 2 3 4 1 $ . g } ",
">XI.{ U C F 6.8.S B B B M B 6.n.3XeXuXkXGXuXwXBXBXCXCXCXCXCXBXCXCXCXBXBXGXjXtXxXmXtXjXGXCXmXCXCXCXBXCXCXCXCXCXCXmXwXuXCXkXuXeX3Xn.6.B B B B B V 6.6.F C L E E W ",
"#X&X.XH 3 D 3.q.t.4.4.4.4.4.2.2.n.rXlXlXfXfXkXCXCXCXBXCXCXCXCXBXBXBXGXJXBXCXCXmXmXNXCXBXJXGXBXBXCXCXCXNXNXNXCXCXBXkXyXfXxXlXrXn.8.2.4.4.4.5.4.5.3.3.6.3 U pX[ y ",
"%X(.l.8 2 G t.9.0.0.0.9.9.0.0.3.m.eXxXkXwXvXCXBXCXBXCXCXVXVXCXBXBXlXkXfXkXzXzXaXaXzXzXkXyXzXlXBXCXCXNXMXCXNXBXNXBXBXmXwXaXNXeXm.3.q.q.9.9.q.9.9.0.q.G < L [.o._ ",
"}.&X8X{ H V 2.q.w.w.e.e.e.e.e.0.M.1XaXzXlXCXmXCXCXBXCXCXVXVXCXlXwXv.7XtXyX<Xv.n.n.v.<XyXtX7Xv.wXlXCXMXMXCXCXNXNXNXBXmXlXlXaX1XM.9.0.w.w.r.r.0.r.q.2.C H E Q.C.V.",
"}.@X(.&X[., V 5.9.0.e.e.e.e.d.r.r.u.m.m.n.eXxXmXCXCXBXCXCXCXvXrXv.N tXPXPXv.m M M m v.PXIXtXN v.rXvXCXCXCXmXNXCXmXlXeXm.m.m.u.r.r.r.w.e.e.w.w.q.5.V , ^.-X,X#X%X",
"&X}.!.@X].L Z D 3.w.e.d.e.e.d.e.e.e.r.q.t.M.3XkXxXCXBXCXCXCXlXrXv.m _.jXPXv.N C C N F.PXAX_.M v.rXlXCXCXCXBXCXxXkX3XM.t.q.q.e.e.e.e.e.r.r.e.w.3.D C w P.,X@X}.#X",
"=X=X-X%X%XhX@.< 2.9.9.0.w.w.d.f.f.e.w.r.e.0.i.2XyXCXCXCXCXNXxXrXv.B N Z tXj.M B B M j.tXZ N B v.yXmXCXCXGXCXBXyX2Xs.q.w.r.w.e.f.d.e.e.r.e.0.0.2.2 { ).Q.`.|.}.).",
").^.U.!.!.-X' + G 5.q.0.0.w.d.d.d.d.e.e.d.e.a.1XyXCXBXBXCXCXlXrXv.B K T K T K p.6.K T K T G B v.uXxXCXBXBXGXCXyX2Xa.e.d.e.e.e.e.d.d.e.e.w.0.5.A @ g =.P.A.D.B.B.",
"..+.` =.C.(.o.7 C F 3.0.r.e.e.d.d.e.e.e.e.w.a.1XyXSXBXBXGXBXmXuXn.F n.eX2X2X1X1X1X1X2X2XeXn.F n.uXmXBXBXGXBXSXyX1Xu.e.e.e.e.e.d.e.e.d.d.0.3.G C 7 R [ ` W W ` ` ",
"E #. X+X$X&X%X8X4 3 7.q.w.w.e.e.e.r.q.q.t.t.a.2XaXmXBXCXBXCXmXuXeXeXeXiX3Xm.m.m.m.m.m.3XiXeXeXuXwXBXBXBXBXCXxXaX2Xi.q.r.u.q.q.0.r.e.d.e.q.7.3 8 .XQ.^.W.Z.#.-.A.",
"@.B.*X|.-X=X=XXXU 4 G 2.9.f.e.r.3.D F F D F T n.wXmXmXvXCXCXBXCXNXmXCXmXkXyXeXrXrXeXyXkXCXCXxXNXCXNXCXCXvXvXmXwXG.p.D 6.F G F 4.q.r.e.9.2.G 4 U (.(.(.R.Y.D.k.-.",
"@.k.E.,X*X@X;X8XpXS.< A q.0.0.5.M < 2 < 2 3 2 3 p.3X3X2XzXBXlXxXxXxXmXvXuXaXCXvXBXBXkXuXvXmXNXxXxXlXBXlX2X3X3Xp.3 2 3 m < 3 2 B t.0.w.t.A 2 S.$X!.!.R.R.U.A.D.D.",
"-.-.k.U.E.}.}.^.].k.@ B 7.3.2.F 3 1 a k a , 3 6.7.3.q.a.1Xm.1X1XeXBXvXzXCXCXxXNXNXmXCXBXvXvXmXeX1X1XK.1Xa.3.t.5.6.3 < L k a < M y.w.0.3.S , @.Y.A.S.I.P.D.#...#.",
"+.O.=...O.B.=.[ +.R 8 Z G 6.S 2 8 f z ; . < B 5.q.0.e.e.0.t.u.a.b.3XwXtXlXcXNXxXxXxXxXmXtXwX3Xb.u.r.q.t.0.r.0.0.3.B < . ; b L K 8.5.2.D C 1 U W o.o.o.O.+.#.#.#.",
"OX|.=XXXXX*X).^.(.^.oXI < K Z @ y c z 6 @ C 3.9.0.0.e.e.0.w.e.g.6.2 5XGXwXwXuXwXwXtXwXwXGX5X2 6.g.e.w.9.r.w.e.w.0.4.C @ 5 z a 7 2 N C < I *X` `  X'.E.{.|.|.XXXX",
"*X=XXX=X=X=X$X|.P.C.&XI + @ 1 k l d f 8 3 D t.w.0.0.w.e.w.e.d.g.6.< 6XGXvXBXlXmXBXlXNXmXGX6X< 8.h.f.e.0.w.0.w.e.w.q.D 3 8 a x a L 1 + . ) >XO.+.+XOX|.@X|.-X$X&X",
"&X=X=X=X=X=X*X@XR.(.6XI . t p z u x + m 6.q.0.w.0.w.w.w.0.0.d.g.8.2 4XJXCXCXNXCXNXNXCXCXJX4X2 8.g.f.w.0.0.0.r.0.w.r.3.6.N + a x k p p . ( 9X` W OXOXOX$X$X$X:X&X",
"XXXXXXXX$X$X@X|.(.(.9X)   b l u x p + N 7.9.e.e.0.w.e.w.0.0.e.g.5.m <XSXAXCXMXMXMXMXCXAXSX<Xm 5.g.d.w.r.w.w.w.0.w.r.9.7.N . k j p z l   ( %X` ` OX X XXX$X}.XX&X",
"' ' [ } } } } } } ) = t u u l z z t . Z 6.5.0.e.w.e.e.e.r.w.w.e.r.y.Z U CXCXCXCXCXCXBXGXU C y.r.e.e.w.w.e.e.w.w.0.0.3.6.Z . t z g f s s i % g R W ` +...@.-.+.[ ",
"U.~.P.U.R.R.R.R.0 o r u u b j z k g w 8 3 2.u.w.e.e.e.e.w.r.w.e.f.g.B 4 mXCXCXCXCXCXCXBX4 B g.f.w.w.w.e.e.e.e.w.0.t.2.3 1 a f f y f s s u u . 0 W.W.A.E [ ^.Y.A.",
"+X X{.|.$X&X$X$X-   z z z j b p a p x 8 , S q.e.w.w.e.e.e.w.w.w.h.g.A 3 7 L.JXVXVXJXI.7 3 A g.h.e.w.e.e.e.e.e.w.w.q.D , 8 P u p z p z v h b O ; @X|.|.W @.XXR.A.",
" X{.].{.}.}.}.}.0 X l s z O = ~ x p x & + C 7.0.w.w.w.w.w.e.e.e.e.w.y.6.< 1 L hXhXL 1 < 6.y.e.e.w.w.e.e.w.w.e.w.0.5.C @ $ z v u O 0 z h b z o ; #X]. XW ..'.^.].",
"[.}.}.}.}.}.}.{.:   s b d   = ( b h b u t 1 B 4.0.w.0.0.w.w.e.e.w.w.r.q.y.S , hXhX, S y.q.r.w.w.0.0.w.w.0.r.e.0.3.B 2 a j c ( h   d p k p f O 9 `.'.'.#.#.'.(.{.",
"[ +.o.o.| X.X.X.=   c : O s b j l l l z b + 2 8.q.0.0.0.w.w.e.w.0.r.w.e.g.2.3 H Z 3 2.g.e.w.w.0.0.0.w.w.0.0.w.q.8.3 , z c h / h   ; b x p x   % X...[ ..#.D.+.` ",
"^.B.R z.R.C.T.Q.;   v *   v v p z u j x z + 2 F 5.0.0.w.0.w.w.0.0.r.0.e.e.r.7.B B 7.r.e.e.0.r.0.0.0.w.0.w.0.0.5.F 2 $ p v v * : i u f z u b O ; T.P.Z.W.W.W.` g ",
"XXP.E P.=X*X*X@Xt   > ; z z z z s z x j z t 7 3 A t.9.w.w.w.r.r.r.0.w.w.e.r.t.i.i.t.r.e.0.w.0.0.r.r.w.e.0.0.t.A 3 7 a j b P X   z f u z z z   r #X#X{.|.]. X=.[ ",
"(.B.R U.*X|.|.@X0     i ( u u z * * b z z x a @ V 6.q.w.w.w.e.e.w.e.e.e.0.q.8.B B 8.3.w.e.e.e.e.e.w.w.w.w.q.6.V @ a x l b v O o s v z o ; b O ; ).{.{.].^.|.B.-.",
"[.C._ P.}.].].{.;   r u z z z z O   ( v u z u w 4 M 3.q.0.w.w.e.e.e.w.w.0.2.M G.G.J 3.9.r.e.e.e.e.e.w.0.q.3.M 4 w p h z v v   % f b b   * b   ; @X}.}.(.].=X].W.",
"} } R z.(.R.Q.Q.0   b z u z f z $ o v v h c z b & , D 5.9.w.w.e.e.0.w.0.q.A 2 dXdXJ 8.q.0.e.w.w.e.w.0.9.5.D , & x z h h v ( . X z z v   * v   ; V.-.*.O.O.-.=.O.",
"z.-.} z.A.+.V.#X;   b h z z u z r 5 ; d ! z h h i 6 N A 3.w.w.e.w.w.w.0.q.2.V J J J 2.t.0.w.w.w.e.e.0.3.A N 6 y l z j h v v o # z z v O * z O = L.V.C.A.Z.z.z.B.",
"=X(.C.R.E.E &.{.= O z u z u f f b u   ; / z c c z k @ 3 5.w.e.e.e.e.w.0.w.q.4.A A 4.q.r.0.w.w.w.e.e.w.5.3 @ p z c c c v u : : n b x z i ; ; . 5 Q.Q.].|.].P.(.}.",
"[.|.|.[.(.R &.@X0   z z z u z s s d   n ( b j h z x . 2 s.q.0.e.w.w.w.w.0.9.4.A A 2.9.w.r.w.0.w.w.0.q.s.< . z z j h b ( :   l z u z x ( i     5 R.E.R.E.U.z.(.[.",
"}.}.}.$X}._ V.>X; O z z z z z s l l n : 5 k x x z j $ @ N F 5.q.0.0.r.0.q.D V N.N.J 8.q.0.w.w.0.q.5.F M , $ j z j j x ( ;   i l z x j ~ i   . 5 }.Q.E.Q.Q.z.Q.}.",
"A.A.U.Z.z.+.=.L.-   z h z u u z z z l - . t P z z z . . @ 2 S 7.7.y.5.5.s.B , dXdXJ G 6.7.y.4.7.6.S 2 @ . . h z z p p P i : l l u z z ~ r     = X.-.z.O.} ' $.*.",
"^.P.A.-.=.=.-.T.-   z z z z f z j j x 5 . a ( u z z   X t 7 Z N m M M N m < + Q Q 1 4 3 N M M m m Z 7 a X O z z z f p x k p x j z z z v u ;   = ;.X.` X.X.&.%.-.",
"].[.E.P.A.U.{.hX9   z z z u z u j j j r - f x p u z   * %.&.} a 7 7 8 7 6 6 w & & q 6 7 7 8 7 7 a } &.&.*   z h p f f f x k j j z u z h x z   ; hXL.} P.Q.}.@X%X",
"C.R.R.U.U.|.V.X.t ; z z z i z z z z z z s s u z l l O ; >.;.>.&.&.$.$.$.&.$.X.O.O.o.$.%.$.$.$.$.$.:.,.>.;   z l p z l s l z u z z u z z z z : i ' ' o.V.T.@X$X@X",
"A.P.(.|.|.pXX.  r z z h z u f z z z l c l l u z z z   ; ;.<.,.>.,.,.:.>.,.H.:.:.:.;.H.,.;.:.>.;.;.;.<.>.5 O z z z z s l l l j z z f z b h z b i   ] !.P.Q.$X}.{.",
"R.R.[.E.B.o.f   t z z u z z i ; p z u l l l z j j j   ; >.>.;.%.;.>.<.;.;.<.&.&.%.>.,.,.,.<.;.;.;.,.;.;.:   j k z l l l l z b p ; i u z h h v i   p } V.T.{.(.}.",
"U.E.E.-.'     = f u z b u b r   p ( z z z l l z k j O : >.<.;.>.;.;.;.;.%.( i ; ; ( ' >.;.;.<.;.;.;.;.>.; O j k z l l c h z P p   0 b u z z h h :     V.!.(.(.{.",
"!.!.#XL.}   - b z z z z u r ; ; z z z z u l z s z z   ; L.;.;.;.;.;.;.%.] r   ' '   z >.;.;.;.;.;.:.;.L.;   x j h l l u z f z f ; ; r u z l z z v :   (.-X$X$X(.",
"{.#X#X>X!.  % z f u z z h   * ) z z u z l z l z z u ; ; ) &.;.>.>.;.>.%.' t   FXFX  b V.;.>.;.>.,.;.X.) ; ; h z x z z h f u z z ( *   u z z h z z *   Q.%X$X|.|.",
"@X#X@X:.' - 0 f z z z u z   * ( z z h z z z u z u z z i   ) L.;.<.;.;.%.] i   #X#X  v V.<.;.>.;.;.L.)   r z z h z u z z z u z z ( *   z u f z z z r * } z.:X(.^.",
"{.!.{.f   f f z z z z x z   o ( z z z u r z z u u z z u * z ' ;.,.;.>.&.] i   L.L.  b >.%.>.;.>.;.X.b * u z z u u z z r u z z z ( >   z z z z u u z f . k 9X=X=X",
"Q.T.L.y   f f z z z u u 9 * 0 R z z z ; O i v z z z i u z o   ;.>.<.;.;.] i . ) )   b >.>.;.;.>.;.  o z u u z z z ! u O ; z z z P e * 5 u f z z p x x   p }.[.XX",
"Z.V.L.i   z z z h b h * O b v i z z z ;   i ( z z u z z z ; * ] &.>.;.%.] r   T.T.  z :.;.;.,.&.] * ; z z x u z z ( u   : z l l i v b O * u z u z p z . y P.Y.}.",
"{.R.V.f X z z h h z z :   v v u u z z ; O u v z z u z z i l z O r &.%.;.' t   Q.!.  b L.;.%.&.r O z z i z z u z z ! u O ; b l h h v v   = z z u z u p # b T.$X$X",
"@X;.  ; z u z z z h b :   b b z z z z ; X i z z z u z u z z l b r   ] &.v -   !.!.  i &.;.'   r z u z z u z z z z z i o ; z z z z b b   : z f z z z z i - . -.9X",
"@XV.i X   h z z c u u : > b z f u z z u b o   ( b z u z z u z z r   ! (   = r {.(.y %   %.'   r b i z u z u z b (   o z z u z z h v z X ; i u z l b h   o y L.>X",
"!.T.>.i   z j j z h   i ) u z z z z z z x X O v v z z z z z z i ;   u b   _ @XQ.(.@X'   ' ]   ; i b z z z b z b ( O * z z z z z z l z ] r   s z z i z O i T.T.(.",
"_ f # % o p v j h r   ; h p u r i i i i i o o u z r i i i i r X       X   P z.*.*.} p . X       O i i i i i t s u O o i i t t i u u i u ;   0 u z b x o o X b ] ",
"  X b y t i r t     e ; =     O     O O O     O O   X O O O X     O r 5 . X.9X$X}.-X_ . ; ;   O O   X   X O     X     X . . X     O O - % X     0 0 t t r x X   ",
"= 0 % - % # % = # x !.).!.X   i i i i i i i u i r i r ; i ; i i i t 5 0 . ` 9X$X-X9X' . 5 0 t t i r r e r r i 0 t i y t 0 t t r i   X @X:.t 0 & 5 = - = 5 - = - ",
"@X{.T.}.-XC.P.Q.@X{.{.#X(.t ; u i i i u i r i i i u i r u r e ; : ; . . 5 o.-X%X%X9X$.= X . ; ; * i r i t t u u t t t t y y y t y 5 0 =X-.q R.:X$X-X%X%X%X$X-X=X",
"$X$X!.}.@X|.T.V.R.].}.(.#X#X&.% : * o * * * = ; o   r u i #   X = # % y }.).(.[.[.XX[.(.t X X # =   * i u r     # % % % # X X X # &.(.;X-.w Y.$XXX%X$X%X%X%X%X$X",
"@X$X}.@X}.U.=.E ` } T.U.L.!.!.V.T.L.;.>.L.T.Q.#X]       .   X u ' T.L.L.z.} P } } ` ' ` ' ) p X.;.  . .   O   u ' X.X.' ` _ ` _ _ _ +.D.o.U =.B.C.C.R.P.^.[.^.^."
};
