/* XPM */
static char *_7479_09292af0faa6c1b1ddfffc654879d090ca9643a9803720c83413f14e860bbd91[] = {
/* columns rows colors chars-per-pixel */
"80 80 246 2 ",
"   c #020000",
".  c #370000",
"X  c #2C0000",
"o  c #490000",
"O  c #540000",
"+  c #5D0000",
"@  c #630000",
"#  c #6C0001",
"$  c #69000A",
"%  c #740000",
"&  c #7B0001",
"*  c #74010D",
"=  c #6B0316",
"-  c #750317",
";  c #761519",
":  c #6A171F",
">  c #76251E",
",  c #7B1A24",
"<  c #721025",
"1  c #7B2528",
"2  c #7C3638",
"3  c #7C2D32",
"4  c #7F5353",
"5  c #8C0000",
"6  c #820000",
"7  c #960206",
"8  c #890114",
"9  c #960217",
"0  c #8B151D",
"q  c #A41B1B",
"w  c #AD001B",
"e  c #95271A",
"r  c #8C1427",
"t  c #A41123",
"y  c #862728",
"u  c #892A33",
"i  c #883636",
"p  c #98373A",
"a  c #992A2D",
"s  c #A6292B",
"d  c #A93635",
"f  c #AE2F33",
"g  c #A2281F",
"h  c #C42C3D",
"j  c #9A453B",
"k  c #8B4A38",
"l  c #A8453B",
"z  c #BB463B",
"x  c #A9553B",
"c  c #853A44",
"v  c #AC3A46",
"b  c #B83A47",
"n  c #B93B58",
"m  c #AE2B45",
"M  c #C53D46",
"N  c #C43C5C",
"B  c #C83A5B",
"V  c #CC3D64",
"C  c #C73B62",
"Z  c #884847",
"A  c #974747",
"S  c #9A4B54",
"D  c #9A5658",
"F  c #92564D",
"G  c #A84747",
"H  c #B84C45",
"J  c #A6574C",
"K  c #B85947",
"L  c #AA5954",
"P  c #BA5D55",
"I  c #B75A56",
"U  c #B34753",
"Y  c #9B6458",
"T  c #8E6B56",
"R  c #A7654B",
"E  c #BA644C",
"W  c #A86758",
"Q  c #BA6857",
"!  c #B6755C",
"~  c #A95B66",
"^  c #9A6C63",
"/  c #B96A63",
"(  c #A57167",
")  c #BA7765",
"_  c #AB7672",
"`  c #9D5363",
"'  c #C3564A",
"]  c #C6445B",
"[  c #C7595B",
"{  c #CD4D53",
"}  c #C56A58",
"|  c #C5765B",
" . c #C96954",
".. c #CC4363",
"X. c #C94864",
"o. c #C64A62",
"O. c #D95A66",
"+. c #CF5167",
"@. c #C76968",
"#. c #DC6366",
"$. c #DE656A",
"%. c #D86666",
"&. c #C87868",
"*. c #D16973",
"=. c #C87875",
"-. c #D57B76",
";. c #D07172",
":. c #E16569",
">. c #E3696B",
",. c #E16566",
"<. c #E67270",
"1. c #B98875",
"2. c #B6836C",
"3. c #BA815F",
"4. c #CC8B6B",
"5. c #C68769",
"6. c #D28C6A",
"7. c #D7996C",
"8. c #C88778",
"9. c #D88679",
"0. c #CC9372",
"q. c #C9977A",
"w. c #DA9B74",
"e. c #D79978",
"r. c #C9926F",
"t. c #E58C79",
"y. c #EA8C7A",
"u. c #E68776",
"i. c #E99D7D",
"p. c #E9947C",
"a. c #F0927E",
"s. c #F0847F",
"d. c #DCA47C",
"f. c #DBA377",
"g. c #E4AB7D",
"h. c #E8A57D",
"j. c #E5B57D",
"k. c #E8B57E",
"l. c #E7B579",
"z. c #CB805F",
"x. c #BF7D83",
"c. c #D07D85",
"v. c #BB998A",
"b. c #AD8D8D",
"n. c #BEA491",
"m. c #BFA996",
"M. c #BEA18F",
"N. c #BAA4A3",
"B. c #C98886",
"V. c #D48A83",
"C. c #D58A86",
"Z. c #C79888",
"A. c #DA9887",
"S. c #DB8B96",
"D. c #D99697",
"F. c #CD989C",
"G. c #E89487",
"H. c #EB9B97",
"J. c #EF928B",
"K. c #DEA483",
"L. c #D7A88B",
"P. c #C5A795",
"I. c #D7A797",
"U. c #DAB498",
"Y. c #CAB09F",
"T. c #E4AC83",
"R. c #EAAC83",
"E. c #E4A786",
"W. c #E6B483",
"Q. c #E9B584",
"!. c #E7B983",
"~. c #E9BA84",
"^. c #EDBD89",
"/. c #E7B78B",
"(. c #F1BC8A",
"). c #E6B997",
"_. c #F5BE91",
"`. c #ECA89A",
"'. c #E898A5",
"]. c #F59AB1",
"[. c #DBB9A7",
"{. c #DCBAB4",
"}. c #D1ABAC",
"|. c #EAA5A9",
" X c #F2AAAB",
".X c #E5B9A6",
"XX c #F4ACB3",
"oX c #F9A9B5",
"OX c #FCB4BD",
"+X c #FAB5B8",
"@X c #E1B3B4",
"#X c #EDC18B",
"$X c #ECC086",
"%X c #F3C38C",
"&X c #F3C389",
"*X c #EAC493",
"=X c #ECCC9D",
"-X c #EAC597",
";X c #F4C997",
":X c #F5D29E",
">X c #DEC8B0",
",X c #EDCDA1",
"<X c #E3C3AA",
"1X c #E7C6A9",
"2X c #EED1A6",
"3X c #FEDBAA",
"4X c #F8D6A5",
"5X c #E7CAB4",
"6X c #F6C7BC",
"7X c #ECD2B5",
"8X c #ECD3BA",
"9X c #EFD9BD",
"0X c #F2DBBB",
"qX c #F2D7B7",
"wX c #F0CFA0",
"eX c #F5E3BB",
"rX c #FAE4B9",
"tX c #FFE0A8",
"yX c #FFAAC3",
"uX c #FEB6C1",
"iX c #FFBAC4",
"pX c #FFBEC9",
"aX c #DCCED1",
"sX c #FDCCC5",
"dX c #FBC6C4",
"fX c #ECD8C2",
"gX c #F7D7C6",
"hX c #E0D6D6",
"jX c #F5E4C5",
"kX c #F8E6C3",
"lX c #FAEBC6",
"zX c #F6E4CA",
"xX c #FAE5CB",
"cX c #FDEECD",
"vX c #F7EACA",
"bX c #FEF1CE",
"nX c #FDEDD1",
"mX c #FAEAD9",
"MX c #FEF3D3",
"NX c #FFF9D6",
"BX c #FFFBD9",
"VX c #FFF6D9",
"CX c #FCFBFB",
"ZX c #F5EFEB",
"AX c #E7DCE1",
"SX c None",
/* pixels */
"SXSXSXSXSXSXSXSXSXSXSXSXSXSXSXSXSXSXSXSXSXSXSXSXSXSXSXSXSXSXSXSXSXSXSXSXSXSXSXSXSXSXSXSXSXSXSXSXSXSXSXSXSXSXSXSXSXSXSXSXSXSXSXSXSXSXSXSXSXSXSXSXSXSXSXSXSXSXSXSX",
"SXSXSXSXSXSXSXSXSXSXSXSXSXSXSXSXSXSXSXSXSXSXSXSXSXSXSXSXSXSXSXSXSXSXSXSXSXSXSXSXSXSXSXSXSXSXSXSXSXSXSXSXSXSXSXSXSXSXSXSXSXSXSXSXSXSXSXSXSXSXSXSXSXSXSXSXSXSXSXSX",
"SXSXSXSXSXSXSXSXSXSXSXSXSXSXSXSXSXSXSXSXSXSXSXSXSXSXSXSXSXSXSXSXSXSXSXSXSXSXSXSXSXSXSXSXSXSXSXSXSXSXSXSXSXSXSXSXSXSXSXSXSXSXSXSXSXSXSXSXSXSXSXSXSXSXSXSXSXSXSXSX",
"SXSXSXSXSXSXSXSXSXSXSXSXSXSXSXSXSXSXSXSXSXSXSXSXSXSXSXSXSXSXSXSXSXSXSXSXSXSXSXSXSXSXSXSXSXSXSXSXSXSXSXSXSXSXSXSXSXSXSXSXSXSXSXSXSXSXSXSXSXSXSXSXSXSXSXSXSXSXSXSX",
"SXSXSXSXSXSXSXSXSXSXSXO SXO SXSXSXSXSXSXSXSXSXSXSXSXSXSXSXSXSXSXSXSXSXSXSXSXSXSXSXSXO O SXSXSXSXSXSXSXSXSXSXSXSXSXSXSXSXSXSXSXSXSXSXSXSXSXSXSXSXSXSXSXSXSXSXSXSX",
"SXSXSXSXSXSXSXSXSXSXZ D A J Z SXSXSXSXSXSXSXSXSXSXSXSXSXSXSXSXSXSXSXSXSXSXSXSXSXSXZ R J SXSXSXSXSXSXSXSXSXSXSXSXSXSXSXSXSXSXSXSXSXSXSXSXSXSXSXSXSXSXSXSXSXSXSXSX",
"SXSXSXSXSXSXSXSXSX. L.3X4XtX).O SXSXSXSXSXSXSXSXSXSXSXSXSXSXSXSXSXSXSXSXSXSXSX$ o q.3X3X1.  SXSXSXSXSXSXSXSXSXSXSXSXSXSXSXSXSXSXSXSXSXSXSXSXSXSXSXSXSXSXSXSXSXSX",
"SXSXSXSXSXSXSXSX4 r.!.;X#X4X2XL.Y SXSXSXSXSXSXSXSXSXSXSXSXSXSXSXSXSXSXSXSXSXW e.5.K.;X3X-XZ.) SXSXSXSXSXSXSXSXSXSXSXSXSXSXSXSXSXSXSXSXSXSXSXSXSXSXSXSXSXSXSXSXSX",
"SXSXSXSXSXSXSX+ J (.~.!.j.;X4XtXq.2 SXSXSXSXSXSXSXSXSXSXSXSXSXSXSXSXSXSXSX2 e.%X&X~.~.:X3X3Xi.SXSXSXSXSXSXSXSXSXSXSXSXSXSXSXSXSXSXSXSXSXSXSXSXSXSXSXSXSXSXSXSXSX",
"SXSXSXSXSXSXSX. p ~.~.~.~.!.#X4X3X).$ 1 = @ @ O SXSXSXSXSXSXSXSXSXSXSXSX= Q.^.W.W.~.^.W.;X4X4Xf.L SXSXSXSXSXSXSXSXSXSXSXSXSXSXSXSXSXSXSXSXSXSXSXSXSXSXSXSXSXSXSX",
"SXSXSXSXSXSXO ) f.!.!.~.~.~.~.*X3X*X# a K e.e.5.SXA SXSXSXSXSXSXSXSXSXW w.W.~.~.~.~.~.k.$X;XtX;X/.) SXSXSXSXSXSXSXSXSXSXSXSXSXSXSXSXSXSXSXSXSXSXSXSXSXSXSXSXSXSX",
"SXSXSXSXSXSX@ e.%X!.~././.W.Q.j.;XI.; s &.(.%XT.' { l SXSXSXSXSXSXSXi e.;X!.~.~.~.~.~.~.j.$X;X3X:X9.SXSXSXSXSXSXSXSXSXSXSXSXSXSXSXSXSXSXSXSXSXSXSXSXSXSXSXSXSXSX",
"SXSXSXSXSXSX@ r.^.!.~.Q.8.V.A.%XY @ d q Q ^.~.~.&XE t d & SXSXSXSX3 T.^.j.~.~.~.~.~.Q.~.~.~.W.;X;X} SXSXSXSXSXSXSXSXSXSXSXSXSXSXSXSXSXSXSXSXSXSXSXSXSXSXSXSXSXSX",
"SXSXSXSXSXSX@ 0.#X~.E.I.gXI.&.! r.e.w.9.9.E.A.L.^.f.w.e.h.2.o + < d j.$X~.~.~.~.~.~.^.~.~.~.k.;X4X_.A.SXSXSXSXSXSXSXSXSXSXSXSXSXSXSXSXSXSXSXSXSXSXSXSXSXSXSXSXSX",
"SXSXSXSXSXSX@ 0.&X~.A.A.NXL.l + d.#X#XE.A.A.A.G.~.^.$X~.%Xd.p G K } W.~.!.~.~.~.W././.R.!.~.!.;X4XtXT.L SXSXSXSXSXSXSXSXSXSXSXSXSXSXSXSXSXSXSXSXSXSXSXSXSXSXSXSX",
"SXSXSXSXSXSX@ 0.$X^.6.r.VXZ.7 , e.&X~.~.~.~.~.~.~.Q.~.~.k.E.y.y.G.^.!.!.~.~.~./.9.V.B.8.E.^.~.~.~.3X1.o SXSXSXSXSXSXSXSXSXSXSXSXSXSXSXSXSXSXSXSXSXSXSXSXSXSXSXSX",
"SXSXSXSXSXSX@ 0.(.$Xz./ dX8.q # J z.A.A.g.~.~.~.~.!.~.!.~.Q.R.R.W.!.~.~.~.^.g.0.7X9X9XfXU.4.~.k.Q.R./ @ SXSXSXSXSXSXSXSXSXSXSXSXSXSXSXSXSXSXSXSXSXSXSXSXSXSXSXSX",
"SXSXSXSXSXSX@ 0.$X^.| U yX*.a Y R | A.A.K./.~.~.~.~.~.~.~.~.~.~.~.!.~.~.!./.7.Q vXNXbXBXU. .^.~.Q.y.I @ SXSXSXSXSXSXSXSXSXSXSXSXSXSXSXSXSXSXSXSXSXSXSXSXSXSXSXSX",
"SXSXSXSXSXSX@ 0.#X^.| U iX~ k _.^.^.~.~.~.~.~.~.~.~.~.~.~.~.!.~.~.~.~.~.!.^.6.G zXMXbXbXU.| ^.~.Q.a.P + SXSXSXSXSXSXSXSXSXSXSXSXSXSXSXSXSXSXSXSXSXSXSXSXSXSXSXSX",
"SXSXSXSXSXSX@ 0.#X$X) r D 8.K.!.k.~.~.~.~.~.~.~.~.~.~.!.~.~.~.~.~.~.~.~.~.^.6.v +XdX6XNXL.d ~.$XQ.G.I @ SXSXSXSXSXSXSXSXSXSXSXSXSXSXSXSXSXSXSXSXSXSXSXSXSXSXSXSX",
"SXSXSXSXSXSX@ 0.&X^.! * F f.&Xk.~.~.~.~.~.~.~.~.~.~.~.~.!.!.~.~.~.~.!.~.!.^.6.d oXyXXX5XZ.| ~.k.Q.a.I @ SXSXSXSXSXSXSXSXSXSXSXSXSXSXSXSXSXSXSXSXSXSXSXSXSXSXSXSX",
"SXSXSXSXSXSX@ 0.^.^.W i _.~.!.~.~.~.~.~.~.~.~.~.~.~.~.~.!.$X~.j.!.W.!.~.!.^.6.G XXyXXX9 6.%Xk.~.W.a.P + SXSXSXSXSXSXSXSXSXSXSXSXSXSXSXSXSXSXSXSXSXSXSXSXSXSXSXSX",
"SXSXSXSXSXSX@ 0.#X~.T.d.k.~.~.~.!.k.k.k.k.~.~.~.~.~.~.~.~.~.!.0XeXeX#X!.Q.&X3.- yXF.A G.j.!.~.~.Q.a.I @ SXSXSXSXSXSXSXSXSXSXSXSXSXSXSXSXSXSXSXSXSXSXSXSXSXSXSXSX",
"SXSXSXSXSXSX@ 0.&Xj.$X$Xk.~.~.~.-X,X=X,X-X~.!.~.!.~.~.~.!.#X,XlXMXbX#X~.!.^.q.W H.) R $X^.~.~.k.W.a.P + SXSXSXSXSXSXSXSXSXSXSXSXSXSXSXSXSXSXSXSXSXSXSXSXSXSXSXSX",
"SXSXSXSXSXSX@ r.^.~.~.~.~.!.~.~.rXVXcXMXeXk.~.~.~.~.~.~.k.2XMXcXnXcX#X~.~.^.^./.+ 2.%Xk.~.~.~.~.Q.a.I + SXSXSXSXSXSXSXSXSXSXSXSXSXSXSXSXSXSXSXSXSXSXSXSXSXSXSXSX",
"SXSXSXSXSXSX@ e.%X~.~.~.!.#XW.F F M.VXMXeX~.~.~.~.~.!.^.k.2XbXNX8X0.W F J Z 0.%XK.j.~.~.~.~.^.h.p.a.I + SXSXSXSXSXSXSXSXSXSXSXSXSXSXSXSXSXSXSXSXSXSXSXSXSXSXSXSX",
"SXSXSXSXSXSXSX2.f.~.~.!.!.d.&.- @ Y 5XvXeXj.~.~.~.~.!.~.k.-X0X5XZ.l , # - @ W f.!.~.~.~.~.~.g.i.u.J.Q + SXSXSXSXSXSXSXSXSXSXSXSXSXSXSXSXSXSXSXSXSXSXSXSXSXSXSXSX",
"SXSXSXSXSXSXSXSXi ~.~.W.#XW + u # y K 8XkXj.~.~.~.~.~.~.~.~.Q.y @ 1 1 * % 1 # , W.~.~.~.$XQ.t.y.u.a.I + SXSXSXSXSXSXSXSXSXSXSXSXSXSXSXSXSXSXSXSXSXSXSXSXSXSXSXSX",
"SXSXSXSXSXSXSX@ J ;X~.!.#XW c F.AXhX6 8.L.!.~.~.~.~.~.Q.^.e.k i 1 3 # N.ZX}._ , Q.~.~.~.h.p.y.y.u.G SXSXSXSXSXSXSXSXSXSXSXSXSXSXSXSXSXSXSXSXSXSXSXSXSXSXSXSXSXSX",
"SXSXSXSXSXSXSXSXZ 0.W.~.&XW S }.aX{.# p ! ~.!.!.~.~.~.~.$Xr.@ 1 , 1 # b.hX{.c.y Q.~.~.~.h.u.y.a.9.- SXSXSXSXSXSXSXSXSXSXSXSXSXSXSXSXSXSXSXSXSXSXSXSXSXSXSXSXSXSX",
"SXSXSXSXSXSXSXSXSXo q._.$X| I @XZ O i # R ^.!.Q.Q.Q.Q.Q.$X0.* 1 , ; 1 % @ }.B.l Q./.~.~.i.y.u.y.9.1 SXSXSXSXSXSXSXSXSXSXSXSXSXSXSXSXSXSXSXSXSXSXSXSXSXSXSXSXSXSX",
"SXSXSXSXSXSXSXSXSXSXi W ^.l.).CXb.# 3 @ W #Xg.h.E.h.h.h.^.f.I 3 - 1 , ; 2 ZX9X7.k.~.^.p.y.u.a.@.3 SXSXSXSXSXSXSXSXSXSXSXSXSXSXSXSXSXSXSXSXSXSXSXSXSXSXSXSXSXSXSX",
"SXSXSXSXSXSXSXSXSXSXo A (.l.2XCXb.@ u u ) ^.h.p.i.i.i.i.Q.j.7.J i ; ; u J CXmX1X2X).R.y.y.u.&.G & SXSXSXSXSXSXSXSXSXSXSXSXSXSXSXSXSXSXSXSXSXSXSXSXSXSXSXSXSXSXSX",
"SXSXSXSXSXSXSXSXSXSX= L ^.k.1XCXb.% 2 Q 6.~.g.h.G.h.i.i.Q.^.#X4.L y 1 L r.ZXZXvXVX,X<.G.p.t.* 8 s M M M h +.[ r , y u SXSXSXSXSXSXSXSXSXSXSXSXSXSXSXSXSXSXSXSXSX",
"SXSXSXSXSXSXSXSXSX> 8 s E 1XMXCX{.=.B.d.Q.~.~.R.i.i.i.h.g.=XlXlX<X=.=.D.dXgXgXgXVXU.z d q f $.#.#.#.,.#.:.O.C.nXxXzXjXI.@.Q % O O SXSXSXSXSXSXSXSXSXSXSXSXSXSXSX",
"SXSXSXSXSXSXSXSXSX8 8.U.U.qXcXZX5X|. X^.~.~.~.Q.R.k.g.g.-XeXbXVX0X.X<X6XsXsXsXsXkX5XU.L.L.A.I +.O.:.,.,.>.M / 1X5X9XVXqX1X.XP.P.P.SXSXSXSXSXSXSXSXSXSXSXSXSXSXSX",
"SXSXSXSXSXSXSX< p s <XNXMXgXdXsXsXsXsX1X~.~.~.~.Q.~.~.#XlXMXcXcXbXMXNXxXsXsXsXsXdXxXNXVXVXfX: m ..:.#.#.,.G a ! =.I.cXMXVXNXVXNXBX2.- 4 SXSXSXSXSXSXSXSXSXSXSXSX",
"SXSXSXSXSXSXSX+ ^ cXnXMXMXgXsXsXsXsXsX6X0XlX-Xk.(.^.2XlXcXbXcXcXcXcXMXgXsXsXsXgXsXgXMXBXY.# > v ..V O.#.7 .XnXjXlXvXbXcXcXcXbXbXMXvXzXzX8.SXSXSXSXSXSXSXSXSXSXSX",
"SXSXSXSXSXSXSXSXF Y.<X<X<XgXgXsXsXsXsXgXzXbX0X*Xw.z.U.bXcXcXbXcXcXbXbXxXgXsXsXsXgXgX<X<X_ 5 v m n B O.#.7 I.9XMXbXcXbXcXbXMX0X2X7X2XeXMX5XI.SXSXSXSXSXSXSXSXSXSX",
"SXSXSXSXSXSXSXSXSXX d ! B.9XnXsXsXsXsXnXbXcXMXqX) l v.MXcXbXcXcXcXcXcXMXMXgXsXgXVX<X8.&.E v ..m t V O.,.q / I.nXbXcXcXcXlXlX*Xl.l.l.=XvXNXqX&.SXSXSXSXSXSXSXSXSX",
"SXSXSXSXSXSXSXSXSXSX# ( vXvXnXVXVXcXcXcXcXcXcXcXlXjXvXbXbXcXcXcXcXcXcXbXMXMXnXxXbXcXjXcXM.% e b V B O.%.o [.MXcXcXbXNX=X~.#X$X~.^.!.~.).lXMXlXI.SXSXSXSXSXSXSXSX",
"SXSXSXSXSXSXSXSXSXSXO ( MXVXvX[.jXMXbXbXMXcXbXcXbXMXnXcXcXcXbXMXMXbXbXcXnX.XfXVXbXbXMXBXm.# n N ..V +.;.P.9XMXcXnXlX2X*XQ.K.K.K.e.W.~.~.=XeXMX|.c.SXSXSXSXSXSXSX",
"SXSXSXSXSXSXSXSXSXSX@ ^ jXvXfX8.8XcXjXzXzXzXcXcXcXlXcXcXbXvXjXzXzXvXcXcXcXZ..XvXjXzXjXzXv.& o.] ] ] N 8.BXbXcXcXcX0Xl.~./.V.A.9.E j.~.^.l.=XbX.XB.SXSXSXSXSXSXSX",
"SXSXSXSXSXSXSXSXSXSX: y Z - _ VXBXjX! A.D.A.zXNXNXMXNXMXBX7X| 5.8.D.cXNXVXBX<X! 4.W 3 : 8 5 % # % - # ^ cXcXcXbX,X!.~.A.A.).^.e.d K.#X~.j.2XMXMX1X/ SXSXSXSXSXSX",
"SXSXSXSXSXSXSXSXSXSXSXSXSXSXSXn.n.v.] *.*.*.Z.n.P.M.M.n.n.1.j [ %.*.v.m.n.m.1.p [ m 8 5.6.4.5.5.5.r.x ^ cXcXcXbX=Xj.~.T.T.~.$Xf.s t.R.~.k.*X2XbX>Xy SXSXSXSXSXSX",
"SXSXSXSXSXSXSXSXSXSXSXSXSXSXSX@ # 9 V C B C 8 # % * % % # % r B C N 6 % % & & u N U J ^.(.(.&X^.^.;X| / cXcXcXMX=XQ.^.~.~.!.(.e.l %.t.Q.~.!.j.bX[.+ SXSXSXSXSXSX",
"SXSXSXSXSXSXSXSXSXSXSXSXSXSXSX3 U ..V ........o.X.X.X...X.X.....V ..X...X.$.$.%.+.t.(.Q.~.W.~.!.k.^.| / bXbXcXNX=Xk.~.~.~.~.A.=.q d } u.Q.k.j.lX1XP SXSXSXSXSXSX",
"SXSXSXSXSXSXSXSXSXSXSXSXSXSXSX$ ] O.V V V V V ..V ......V ....B V C +.O.O.:.>.>...w.^.~.~.~.~.~.~.^.| J U.jXnX[.^.~.~.~.~.Q.T.E.w.j U s.k.;XqXbX7X} SXSXSXSXSXSX",
"SXSXSXSXSXSXSXSXSXSXSXSXSXSXSXu [ ,.......V C n C n N n B B ] ..X...$.>.>.$.O.#.%.w.~.W.~.~.~.~.~.^.4.K z <X9X-.L.$X~.~.~.~.~.~.R.F G s.i.,XMXvX[.W SXSXSXSXSXSX",
"SXSXSXSXSXSXSXSXSXSXSXSXSX= c >.:.$.:.:.O.N a ; : ; ; y 0 9 9 O.>.$.$.$.%.>.] 7 Q.^.~.~.~.~.~.~.~.W.~.h.d E &.C./.$X~.~.~.!.^.w.d * G s.$.).VX|.S.SXSXSXSXSXSXSX",
"SXSXSXSXSXSXSXSXSXSXSXSXSXO f :.,.:.:.:.$.O.s r n v m 8 s M { #.:.#.$.>.>.f } e.Q.~.~.~.~.~.~.!.~.~.~.Q.7.w.K.T.e.7.^.~.$X~.&Xf.8 [ <.<.J.XXsX=.S SXSXSXSXSXSXSX",
"SXSXSXSXSXSXSXSXSXSXSXSXSX2 U >.$.$.$.:.>.>.b b X.+.] s M O.>.,.:.:.#.O.#.d 6.;X!.!.~.~.!.~.~.~.~.~.~.~.#X#X^.$X6.4.g.g.g.d.T.r.& c.J.c.].].].c SXSXSXSXSXSXSXSX",
"SXSXSXSXSXSXSXSXSXSXSXSXSXE  .B :.>.>.>.O.:.,.,.O.>.#.:.:.:.,.,.>.#.h t 9 R.~.Q.!.!.~.~.~.~.~.~.~.!.!.~.~.Q.~.j.^.h.q f e @ # = ; H.oX].yXS.+ SXSXSXSXSXSXSXSXSX",
"SXSXSXSXSXSXSXSXSXSXSXSXL <X0X5X) w M O.>.:.,.,.$.:.:.:.#.:.,.,.O.{ *.9.w.Q.!.~.~.~.~.~.~.!.~.~.~.~.~.!.~.~.~.~.!.W.e.w.e.q.f.&.+ ].yXyXc.` SXSXSXSXSXSXSXSXSXSX",
"SXSXSXSXSXSXSXSXSXSXSXSX .5XcXVXM.L =.%.:.#.#.,.:.#.$.:.>.%.$.,.O.I V.W.&X!.!.~.~.~.~.~.~.~.~.~.~.~.~.~.!.~.~.~.!.~.$X(.#X^.#Xd.u S.'.'.c SXSXSXSXSXSXSXSXSXSXSX",
"SXSXSXSXSXSXSXSXSXSXSXSX&.-.I.MXMXMXMX=.h <.,.:.#.>.$.:.>.O.] ] *.G.W.~.W.~.~.~.!.~.~.~.~.~.~.~.~.~.~.~.~.~.~.!.!.~.Q.~.~.!.!.T.S.A $ ; SXSXSXSXSXSXSXSXSXSXSXSX",
"SXSXSXSXSXSXSXSXSXSXSXSXSX5.9.v.8.q.L.8.+.M f { >.,.,.,.{ C.8X7X[.V.Q.~.~.~.~.~.~.~.~.~.!.~.~.~.~.~.~.!.~.~.~.~./.~.~.~.~.~.~.T.C.SXSXSXSXSXSXSXSXSXSXSXSXSXSXSX",
"SXSXSXSXSXSXSXSXSXSXSXSXSXW  .f z z H L.I.=.L H O.,.#.%.;.[.NXNX7X-.Q.~.~.~.~.~.~.~.~.~.~.~.~.~.~.~.~.~.~.~.~.!.~.~.~.!.~.~.^.Q.A.SXSXSXSXSXSXSXSXSXSXSXSXSXSXSX",
"SXSXSXSXSXSXSXSXSXSXSXSXSX. G J.a.u.s 5XVXMX.X@.6 >.+.& fXVXcXbX<XQ k.~.~.~.~.~.~.~.~.~.~.~.~.!.!.~.~.~.~.~.~.~.~.~.~.~.~.~.!.!.(.} r SXSXSXSXSXSXSXSXSXSXSXSXSX",
"SXSXSXSXSXSXSXSXSXSXSXSX+ @.9.t.y.-.# ! 8.2.B.D.5XG / fX[.5XMXBX1XE Q.~.~.!.~.~.!.~.~.~.~.~.W.~.^.~.~.~.!.~.~.~.~.~.~.~.~.~.~.~.Q.T.4.5 SXSXSXSXSXSXSXSXSXSXSXSX",
"SXSXSXSXSXSXSXSXSXSXSXSX% -.a.y.y.9.A H z z ;..XBXv.v.9XB.U.MXfXU.4.Q.~.~.~.~.~.~.~.~.!.!.!.=X/.d.l.j.Q.!.~.~.~.~.~.~.~.~.!.~.~.~.$XW.8.SXSXSXSXSXSXSXSXSXSXSXSX",
"SXSXSXSXSXSXSXSXSXSXSXSX= &.y.y.y.y.a.a.G.J.C..XMXBX<X5 ' I.VX&.6.#X!.~.~.~.!.~.~.~.!.^.!.#XMXU.E Q g.(.!.~.~.~.~.~.~.~.~.~.~.~.~.k.,XNXG.W SXSXSXSXSXSXSXSXSXSX",
"SXSXSXSXSXSXSXSXSXSXSXSX+ @.a.y.y.y.u.y.y.u.y.8.^ T b. X/ I 1.i 3.&XW.~.~.~.~.~.~.!.!.l.2X0XZ.`. XXX=.| ^.j.j.k.Q.!.~.~.~.~.~.~.~.k.2XbXA.R SXSXSXSXSXSXSXSXSXSX",
"SXSXSXSXSXSXSXSXSXSXSXSX( 9.a.u.y.y.y.y.y.u.y.9.~ S c.iX/ 6 + - 5.#X!.~.~.~.~.~.~.!.^.-XeXvXE H.pXiXV.x E.*X,X,X^.~.~.~.!.~.~.~.^.l.=XbXA.Q SXSXSXSXSXSXSXSXSXSX",
"SXSXSXSXSXSXSXSXSXSXQ G.iXH.u.y.y.y.y.y.y.y.u.H.dXiXiXiX` o SX/ i.~.j.~.~.~.~.^.^.!./.lXVXjX! H.iXOXA.| P 7XNXbX=Xl.!.!.~.$X~.~.^.k.=XbXK.E SXSXSXSXSXSXSXSXSXSX",
"SXSXSXSXSXSXSXSXSXSXSX9.OXH.u.y.y.y.y.u.u.u.|.+XOXiX|.D SXSX&.f.k.$X~.~.~.~.!.!.l.2XkXMX[.q. X+X+X9.SXSXSX8.).VXlXeXeX*Xj.j.j.k.j.qXcXvXA.E SXSXSXSXSXSXSXSXSXSX",
"SXSXSXSXSXSXSXSXSXSXB.H.6XH.u.y.y.y.y.J.H.H.OXiXuX|.B.  SXSX6.-X-Xk.~.~.!.~.~.~.=XeXMXNXU.Q uXiX+X| SXSXSXSXq.5XvXMXbXqX=X=X2X=X=XlXMXbX8.G SXSXSXSXSXSXSXSXSXSX",
"SXSXSXSXSXSXSXSXSXQ  XpXuXH.u.y.t.p.t. XpXuXyXuXiXS . SXSXSX&.zXeXj.!.!.!.!.k.#XlXbXvXMXU.&.uXuX+X&.SXSXSXSXSXK 7XbXcXbXMXMXbXMXbXbXbXMX^ o SXSXSXSXSXSXSXSXSXSX",
"SXSXSXSXSXSXSXSX5.XXOXuXiX+XoX+X+XXXoXOXOXiXuXiXpX_ + SXSXSX .jXbXeXlXkXkXkXkXkXcXbXkX) D.+XuXiX+X&.SXSXSXSXSXQ 7XNXcXcXcXcXcXcXcXcXbXnX( + SXSXSXSXSXSXSXSXSXSX",
"SXSXSXSXSXSXSXQ G.iXuXuXOXiXOXiXiXOXuXuXiXOXiXXXD.` SXSXSXZ.U.vXbXbXMXcXMXbXbXMXbXbXzXe S.iXOXiXXXQ SXSXSXSXSX} 7XMXcXbXnXcXMXcXcXcXbXMX( O SXSXSXSXSXSXSXSXSXSX",
"SXSXSXSXSXSXSXSXV.OXOXOXiXOXOXOXOXOXuXuXOXuXpXD.o SXSXSXI ).BXbXbXbXcXcXcXcXbXcXbXMXjXl S.iX+XiXXX- SXSXSXSXSXQ 7XVXcXbXbXcXMXnXnXcXMXMX^ O SXSXSXSXSXSXSXSXSXSX",
"SXSXSXSXSXSXSX# L iXH.H.iXH.H.iX`.H.uXiXiXdXc.c SXSXSXSXK ).VXMXgX{.cXjX{.cXgX{.MXU.W XX|.H.OXiXXX1 SXSXSXSXSX% 5XcX{.vXzX{.xXxX[.nX5XZ SXSXSXSXSXSXSXSXSXSXSXSX",
"SXSXSXSXSXSXSXO S pXG.9.iXG.V.iXG.C.pX'.D.D.S SXSXSXSXSXQ K.8XMX8XZ.nX7XC.MX7XZ.MXI.w dXH.=.uXiXXX1 SXSXSXSXSX@ 8XvXB.zXgXZ.jXxX}.nX<XO SXSXSXSXSXSXSXSXSXSXSXSX",
"SXSXSXSXSXSXSXSXA iXA.&.iXC.-.+X9.8.iX/ 5 O SXSXSXSXSXSX) =.B.xX<XK xX<XE vX[.E cXY.f iXc.d OXiX|., SXSXSXSXSX+ >XgXx 9X0XK 9XgX}.xX>X+ SXSXSXSXSXSXSXSXSXSXSXSX",
"SXSXSXSXSXSXSXSXSXZ U K [ K K [ ' H A p 3 SXSXSXSXSXSXSXSXSXA F J ' / } H } Q H D Z r A i u A S Z SXSXSXSXSXSXSXF L z ! } H / / I ( Z SXSXSXSXSXSXSXSXSXSXSXSXSX",
"SXSXSXSXSXSXSXSXSXSXSXSXSXSXSXSXSXSXSXSXSXSXSXSXSXSXSXSXSXSXSXSXSXSXSXSXSXSXSXSXSXSXSXSXSXSXSXSXSXSXSXSXSXSXSXSXSXSXSXSXSXSXSXSXSXSXSXSXSXSXSXSXSXSXSXSXSXSXSXSX",
"SXSXSXSXSXSXSXSXSXSXSXSXSXSXSXSXSXSXSXSXSXSXSXSXSXSXSXSXSXSXSXSXSXSXSXSXSXSXSXSXSXSXSXSXSXSXSXSXSXSXSXSXSXSXSXSXSXSXSXSXSXSXSXSXSXSXSXSXSXSXSXSXSXSXSXSXSXSXSXSX",
"SXSXSXSXSXSXSXSXSXSXSXSXSXSXSXSXSXSXSXSXSXSXSXSXSXSXSXSXSXSXSXSXSXSXSXSXSXSXSXSXSXSXSXSXSXSXSXSXSXSXSXSXSXSXSXSXSXSXSXSXSXSXSXSXSXSXSXSXSXSXSXSXSXSXSXSXSXSXSXSX",
"SXSXSXSXSXSXSXSXSXSXSXSXSXSXSXSXSXSXSXSXSXSXSXSXSXSXSXSXSXSXSXSXSXSXSXSXSXSXSXSXSXSXSXSXSXSXSXSXSXSXSXSXSXSXSXSXSXSXSXSXSXSXSXSXSXSXSXSXSXSXSXSXSXSXSXSXSXSXSXSX",
"SXSXSXSXSXSXSXSXSXSXSXSXSXSXSXSXSXSXSXSXSXSXSXSXSXSXSXSXSXSXSXSXSXSXSXSXSXSXSXSXSXSXSXSXSXSXSXSXSXSXSXSXSXSXSXSXSXSXSXSXSXSXSXSXSXSXSXSXSXSXSXSXSXSXSXSXSXSXSXSX"
};
