/* XPM */
static char *_7036_335ad012d3eb03c151baa617e5c88e210bbcd55ff195612747792ffe5aadcf0e[] = {
/* columns rows colors chars-per-pixel */
"80 70 147 2 ",
"   c #010101",
".  c #0C0C0C",
"X  c #131313",
"o  c #1B1B1B",
"O  c #232323",
"+  c #2B2B2B",
"@  c #343434",
"#  c #3C3C3C",
"$  c #00456F",
"%  c #444444",
"&  c #4B4B4B",
"*  c #535353",
"=  c #5B5B5B",
"-  c #665C55",
";  c #6B635E",
":  c #63625F",
">  c #74665B",
",  c #5F6061",
"<  c #556368",
"1  c #466979",
"2  c #556E7A",
"3  c #5F7078",
"4  c #646464",
"5  c #6B6B6B",
"6  c #7A6E64",
"7  c #726D6A",
"8  c #766D66",
"9  c #7F7064",
"0  c #76706D",
"q  c #6C7274",
"w  c #6B777C",
"e  c #64747D",
"r  c #737373",
"t  c #797777",
"y  c #7E7976",
"u  c #767779",
"i  c #767878",
"p  c #7B7B7B",
"a  c #827B76",
"s  c #817F7E",
"d  c #E04F4F",
"f  c #E46E6E",
"g  c #F67676",
"h  c #FB7B7B",
"j  c #85807C",
"k  c #1F7D99",
"l  c #296B82",
"z  c #567885",
"x  c #5E7985",
"c  c #417E95",
"v  c #7D7F80",
"b  c #0081AE",
"n  c #0083B2",
"m  c #008CB6",
"M  c #3397B9",
"N  c #3F9AB9",
"B  c #5A879A",
"V  c #6D818B",
"C  c #7D8183",
"Z  c #658A99",
"A  c #6C909D",
"S  c #588BA0",
"D  c #5997AF",
"F  c #779CAC",
"G  c #0096C1",
"H  c #009BCA",
"J  c #19B1DB",
"K  c #3BA1C5",
"L  c #37A4C8",
"P  c #3DA9CE",
"I  c #3CABD1",
"U  c #39B5DD",
"Y  c #00B4E3",
"T  c #00B9E7",
"R  c #00BAEB",
"E  c #00BEF0",
"W  c #20B7E3",
"Q  c #46A5C7",
"!  c #4CA3C1",
"~  c #6CAFC9",
"^  c #00C3F6",
"/  c #1EC7F7",
"(  c #13C5F5",
")  c #56C1E7",
"_  c #68C1E3",
"`  c #68D2FB",
"'  c #838383",
"]  c #8A8786",
"[  c #8A8887",
"{  c #848788",
"}  c #878889",
"|  c #8B8B8B",
" . c #908E8E",
".. c #8A9292",
"X. c #949393",
"o. c #979898",
"O. c #9B9B9B",
"+. c #AC8E8E",
"@. c #B38A8A",
"#. c #889CA6",
"$. c #9CA0A3",
"%. c #88ACBD",
"&. c #A3A3A3",
"*. c #ACACAC",
"=. c #BBADAD",
"-. c #BCA5A5",
";. c #B4B4B4",
":. c #BCBDBD",
">. c #FC8585",
",. c #C6AEAE",
"<. c #C5A4A4",
"1. c #EDA4A4",
"2. c #FFA5A5",
"3. c #C2C0BF",
"4. c #89BDD1",
"5. c #92BFD3",
"6. c #A1B9C4",
"7. c #9FCBDF",
"8. c #93C6DE",
"9. c #BFC3C3",
"0. c #A1C5D3",
"q. c #8CCBE5",
"w. c #A2D8F0",
"e. c #C4C4C4",
"r. c #CDCDCD",
"t. c #CAC5C3",
"y. c #C8D3D6",
"u. c #D3D3D3",
"i. c #DAD7D5",
"p. c #DCDCDC",
"a. c #FFC0C0",
"s. c #E0DFDE",
"d. c #E5E1DE",
"f. c #CDDDE5",
"g. c #DDE1E1",
"h. c #C6EFFF",
"j. c #DDF2FB",
"k. c #E5E5E5",
"l. c #E8E7E7",
"z. c #E6EAEA",
"x. c #EAEAEA",
"c. c #E6F8FF",
"v. c #EAF9FF",
"b. c #F4F4F4",
"n. c #FDFEFE",
"m. c #F6F9FA",
"M. c None",
/* pixels */
"M.M.M.M.M.M.M.M.M.M.M.M.M.M.M.M.M.M.M.M.M.M.M.M.M.M.M.M.M.M.M.M.M.M.M.M.M.M.M.M.M.M.M.M.M.M.M.M.M.M.M.M.M.M.M.M.M.M.M.M.M.M.M.M.M.M.M.M.M.M.M.M.M.M.M.M.M.M.M.M.",
"M.M.M.M.M.M.M.M.M.M.M.M.M.M.M.M.M.M.M.M.M.M.M.M.M.M.M.M.M.M.M.M.M.M.M.M.M.M.M.M.M.M.M.M.M.M.M.M.M.M.M.M.M.M.M.M.M.M.M.M.M.M.M.M.M.M.M.M.M.M.M.M.M.M.M.M.M.M.M.M.",
"M.M.M.M.M.M.M.M.M.M.M.M.M.M.M.M.M.M.M.M.M.M.M.M.M.M.M.M.M.M.M.M.M.M.M.M.M.M.M.M.M.M.M.M.M.M.M.M.M.M.M.M.M.M.M.M.M.M.M.M.M.M.M.M.M.M.M.M.M.M.M.M.M.M.M.M.M.M.M.M.",
"M.M.M.M.M.M.M.M.M.M.M.M.M.M.M.M.M.M.M.M.M.M.M.M.M.M.M.M.M.M.M.M.M.M.M.M.M.M.M.M.M.M.M.M.M.M.M.M.M.M.M.M.M.M.M.M.M.M.M.M.M.M.M.M.M.M.M.M.M.M.M.M.M.M.M.M.M.M.M.M.",
"M.M.M.M.M.M.M.M.M.M.M.M.M.M.M.M.M.M.M.M.M.M.X O o     M.M.M.M.M.M.M.M.M.M.M.M.M.M.M.M.M.M.M.M.M.M.M.M.M.M.M.M.M.M.M.M.M.M.M.M.M.M.M.M.M.M.M.M.M.M.M.M.M.M.M.M.M.",
"M.M.M.M.M.M.M.M.M.M.M.M.M.M.M.M.M.M.M.M.M.  @ & % & # .   M.M.M.M.M.M.M.M.M.M.M.M.M.M.M.M.M.M.M.M.M.M.M.M.M.M.M.M.M.M.M.M.M.M.M.M.M.M.M.M.M.M.M.M.M.M.M.M.M.M.M.",
"M.M.M.M.M.M.M.M.M.M.M.M.M.M.M.M.M.M.M.M.M.X @ + @ # % * +   M.M.M.M.M.M.M.M.M.M.M.M.M.M.M.M.M.M.M.  X o   M.M.M.M.M.M.M.M.M.M.M.M.M.M.M.M.M.M.M.M.M.M.M.M.M.M.M.",
"M.M.M.M.M.M.M.M.M.M.M.M.M.M.M.M.M.M.M.M.  o @ @ @ + @ . 4 4   M.M.M.M.M.M.M.M.M.M.M.M.M.M.M.  @ # & & * + M.M.M.M.M.M.M.M.M.M.M.M.M.M.M.M.M.M.M.M.M.M.M.M.M.M.M.",
"M.M.M.M.M.M.M.M.M.M.M.M.M.M.M.M.M.M.M.M.  O @ @ o *.e.*.X.O.5   M.M.M.M.M.M.M.M.M.M.M.M.M.  ' ' & * & # X M.M.M.M.M.M.M.M.M.M.M.M.M.M.M.M.M.M.M.M.M.M.M.M.M.M.M.",
"M.M.M.M.M.M.M.M.M.M.M.M.M.M.M.M.M.M.M.M.  O # . 5 u.u.r.r.:.&.& M.M.M.M.M.M.M.M.M.M.M.M.# X.| % % o   4 = M.M.M.M.M.M.M.M.M.M.M.M.M.M.M.M.M.M.M.M.M.M.M.M.M.M.M.",
"M.M.M.M.M.M.M.M.M.M.M.M.M.M.M.M.M.M.M.M.. O #   *.x.p.u.r.r.r.O.  M.M.M.M.M.M.M.M.M.M.% o.O.t 5 @ 4 :.u.&.M.M.M.M.M.M.M.M.M.M.M.M.M.M.M.M.M.M.M.M.M.M.M.M.M.M.M.",
"M.M.M.M.M.M.M.M.M.M.M.M.M.M.M.M.M.M.M.M.. O @   r.x.l.l.k.r.r.r.r M.M.M.M.M.M.M.M.M.O X.O.' ] t &.k.x.k.*.  M.M.M.M.M.M.M.M.M.M.M.M.M.M.M.M.M.M.M.M.M.M.M.M.M.M.",
"M.M.M.M.M.M.M.M.M.M.M.M.M.M.M.M.M.M.M.M.o + & & p.z.l.k.l.k.r.r.*.M.M.M.M.M.M.M.M.  | O.] ' p :.x.l.k.g.;.  M.M.M.M.M.M.M.M.M.M.M.M.M.M.M.M.M.M.M.M.M.M.M.M.M.M.",
"M.M.M.M.M.M.M.M.M.M.M.M.M.M.M.M.M.M.M.M.@ # r p p.l.k.l.l.z.p.r.r.*   o X @ O     + ' | | i ;.l.l.l.l.k.;.  M.M.M.M.M.M.M.M.M.M.M.M.M.M.M.M.M.M.M.M.M.M.M.M.M.M.",
"M.M.M.M.M.M.M.M.M.M.M.M.M.M.M.M.M.M.M.M.% 4 p X.g.l.k.l.k.k.z.u.r.&.+ @ + } X.@ O & % + * O.x.l.k.k.l.k.;.  M.M.M.M.M.M.M.M.M.M.M.M.M.M.M.M.M.M.M.M.M.M.M.M.M.M.",
"M.M.M.M.M.M.M.M.M.M.M.M.M.M.M.M.M.M.M.M.& 5 p | k.l.k.k.l.l.l.p.r.*.& @ O t X.&   ' | .   # ;.z.l.k.k.k.;.  M.M.M.M.M.M.M.M.M.M.M.M.M.M.M.M.M.M.M.M.M.M.M.M.M.M.",
"M.M.M.M.M.M.M.M.M.M.M.M.M.M.M.M.M.M.M.M.% 5 t | k.l.k.l.k.k.k.k.u.O.5 @ + = } = . t t O @ 5 + p p.l.l.k.*.  M.M.M.M.M.M.M.M.M.M.M.M.M.M.M.M.M.M.M.M.M.M.M.M.M.M.",
"M.M.M.M.M.M.M.M.M.M.M.M.M.M.M.M.M.M.M.M.# 5 t | p.l.k.k.k.l.l.l.r.5 ' & o = | 4 o p 5 O @ o.r   4 p.l.p.O.M.M.M.M.M.M.M.M.M.M.M.M.M.M.M.M.M.M.M.M.M.M.M.M.M.M.M.",
"M.M.M.M.M.M.M.M.M.M.M.M.M.M.M.M.M.M.M.M.@ 4 q j u.z.k.k.l.k.k.l.;.o p 5 X * } r + p 5 X * } # # # 5 z.p.' M.M.M.M.M.M.M.M.M.M.M.M.M.M.M.M.M.M.M.M.M.M.M.M.M.M.M.",
"M.M.M.M.M.M.M.M.M.M.M.M.M.M.M.M.M.M.M.M.O 4 5 u r.l.k.l.k.k.l.g.]   4 ' + % ' p # ' 5   q p X * &.& | p.= M.M.M.M.M.M.M.M.M.M.M.M.M.M.M.M.M.M.M.M.M.M.M.M.M.M.M.",
"M.M.M.M.M.M.M.M.M.M.M.M.M.M.M.M.M.M.M.M.  , 5 r ;.z.k.k.l.l.x.:.p 4 + ' = + ' ' * ' 4 O p 4 O p X.O.@ X.& M.M.M.M.M.M.M.M.M.M.M.M.M.M.M.M.M.M.M.M.M.M.M.M.M.M.M.",
"M.M.M.M.M.M.M.M.M.M.M.M.M.M.M.M.M.M.M.M.  = 4 0  .k.l.k.l.x.u.' C ] * 4 p O t ] 5 ] 4 & ] # 4 ] ] O.|   X M.M.M.M.M.M.M.M.M.M.M.M.M.M.M.M.M.M.M.M.M.M.M.M.M.M.M.",
"M.M.M.M.M.M.M.M.M.M.M.M.M.M.M.M.M.M.M.M.  # 5 5 p :.l.l.l.r.] v ' ' C = ' % q ] i ] = 4 p % ' ' ' | $.4 M.M.M.M.M.M.M.M.M.M.M.M.M.M.M.M.M.M.M.M.M.M.M.M.M.M.M.M.",
"M.M.M.M.M.M.M.M.M.M.M.M.M.M.M.M.M.M.M.M.M.. 4 4 p ' O.*.O.i C ' ' ' ] p ' 4 4 { ' ] 4 p 5 q ] s ' ' O.|   M.M.M.M.M.M.M.M.M.M.M.M.M.M.M.M.M.M.M.M.M.M.M.M.M.M.M.",
"M.M.M.M.M.M.M.M.M.M.M.M.M.M.M.M.M.M.M.M.X   # 5 5 s p p p ] ' ' ' ' C ' ] p 4 ] ' ' 5 p r ] ' ' ' C | O.* M.M.M.M.M.M.M.M.M.M.M.M.M.M.M.M.M.M.M.M.M.M.M.M.M.M.M.",
"M.M.M.M.M.M.M.M.M.M.M.M.M.M.M.M.M.M.M.M.O r o . # q ' ] ' ' ' ' ' ' j ' C ' r C ' ' ' ' C ' ' ' ' ] ' O.'   M.M.M.M.M.M.M.M.M.M.M.M.M.M.M.M.M.M.M.M.M.M.M.M.M.M.",
"M.M.M.M.M.M.M.M.M.M.M.M.M.M.M.M.M.M.M.M.& | i 5 p ' ' ' ' ' ' ' ' ' ' ' ' ' j C s ' ' ' ' ' ' ' ' ' v X.X.o M.M.M.M.M.M.M.M.M.M.M.M.M.M.M.M.M.M.M.M.M.M.M.M.M.M.",
"M.M.M.M.M.M.M.M.M.M.M.M.M.M.M.M.M.M.M.  5 } ' ] ' ' ' ' ' ' ' ' ' ' ' ' ' ' ' ' ' ' ' ' ' ' ' ' ' ' ' | O.* M.M.M.M.M.M.M.M.M.M.M.M.M.M.M.M.M.M.M.M.M.M.M.M.M.M.",
"M.M.M.M.M.M.M.M.M.M.M.M.M.M.M.M.M.M.M.  p ] j ' ' ' ' ' ' { ' { { ' ' ' ' ' ' ' ' ' ' ' ' ' ' ' j ' { C O.r M.M.M.M.M.M.M.M.M.M.M.M.M.M.M.M.M.M.M.M.M.M.M.M.M.M.",
"M.M.M.M.M.M.M.M.M.M.M.M.M.M.M.M.M.M.  * ] C ' ' ' ' ' ' p 7 > > p ' ' ' ' ' ' ' ' C ' ' ' ' ' ' ' j j ' O.|   M.M.M.M.M.M.M.M.M.M.M.M.M.M.M.M.M.M.M.M.M.M.M.M.M.",
"M.M.M.M.M.M.M.M.M.M.M.M.M.M.M.M.M.M.@ ' ' ' ' ' ' ' ' i - x M N z 7 ' ' ' ' ' ' ' ' ' ' ' ' ' ' 8 e 1 * ] X.X M.M.M.M.M.M.M.M.M.M.M.M.M.M.M.M.M.M.M.M.M.M.M.M.M.",
"M.M.M.M.M.M.M.M.M.M.M.M.M.M.M.M.M.  u ] ' ' C ' ' ' p - B R ) c.j.A y ' ' ] ' ' ' ' ' ] ' ' ' r L T w.0.< X.5 M.M.M.M.M.M.M.M.M.M.M.M.M.M.M.M.M.M.M.M.M.M.M.M.M.",
"M.M.M.M.M.M.M.M.M.M.M.M.M.M.M.M.  5 | p ' ' ] ' C ] r : U H 6.n.n.q.q ] p u p p C v p t t ' a Q Y 8.n.n.4.5 X.o M.M.M.M.M.M.M.M.M.M.M.M.M.M.M.M.M.M.M.M.M.M.M.M.",
"M.M.M.M.M.M.M.M.M.M.M.M.M.M.M.  % r ' ] ' p q p ' ' 7 3 R m k g.y.J V y o.;.r.u.p.p.u.9.*.' w W n F n.b._ 2 X.t   M.M.M.M.M.M.M.M.M.M.M.M.M.M.M.M.M.M.M.M.M.M.M.",
"M.M.M.M.M.M.M.M.M.M.M.M.M.M.M.M.# * = = % * t ' ' ' p = ) v.F $ G T | r.l.l.l.x.g.=.<.,.:.u.$.T 7.c B D Y w 5 4 o M.M.M.M.M.M.M.M.M.M.M.M.M.M.M.M.M.M.M.M.M.M.M.",
"M.M.M.M.M.M.M.M.M.M.M.M.M.M.M.M.  .   o 5 ' p C ' ' ' ; Z h.` R ^ %.d.x.l.k.l.z.@.g 2.a.1.=.d.~ n.8.b ^ I 6 u #   M.M.M.M.M.M.M.M.M.M.M.M.M.M.M.M.M.M.M.M.M.M.M.",
"M.M.M.M.M.M.M.M.M.M.M.M.M.M.M.M.M.  @ 4 * & p ] 5 ' ' C ; l K K #.s.l.k.k.k.l.z.-.d h >.f =.x.e.! ( / I 5 t 4 # M.M.M.M.M.M.M.M.M.M.M.M.M.M.M.M.M.M.M.M.M.M.M.M.",
"M.M.M.M.M.M.M.M.M.M.M.M.M.M.M.M.M.M.. O . = t = = | ' ' ' a 9 9 i.z.k.l.l.k.k.l.l.e.+.+.9.k.l.l.t.q q 9 = 4 *   M.M.M.M.M.M.M.M.M.M.M.M.M.M.M.M.M.M.M.M.M.M.M.M.",
"M.M.M.M.M.M.M.M.M.M.M.M.M.M.M.M.M.M.M.  + 4 &   4 p s ' ' } C $.l.l.l.k.k.k.l.g.k.m...:.m.k.l.l.x.O.p p * + o M.M.M.M.M.M.M.M.M.M.M.M.M.M.M.M.M.M.M.M.M.M.M.M.M.",
"M.M.M.M.M.M.M.M.M.M.M.M.M.M.M.M.M.M.M.M.M..   @ 5 4 4 5 r p r *.z.l.l.z.l.l.l.k.*.p  .| *.p.l.l.k.X.= 5 =   M.M.M.M.M.M.M.M.M.M.M.M.M.M.M.M.M.M.M.M.M.M.M.M.M.M.",
"M.M.M.M.M.M.M.M.M.M.M.M.M.M.M.M.M.M.M.M.M.M.  o & 4 4 5 4 5 =  .u.r.u.u.p.p.p.k.p.r.l.i.r.p.u.u.r.t 4 *   M.M.M.M.M.M.M.M.M.M.M.M.M.M.M.M.M.M.M.M.M.M.M.M.M.M.M.",
"M.M.M.M.M.M.M.M.M.M.M.M.M.M.M.M.M.M.M.M.M.M.M.M.M.  + % * 4 4 t r.u.r.u.r.u.r.r.r.u.r.r.u.r.u.r.O.* @   M.M.M.M.M.M.M.M.M.M.M.M.M.M.M.M.M.M.M.M.M.M.M.M.M.M.M.M.",
"M.M.M.M.M.M.M.M.M.M.M.M.M.M.M.M.M.M.M.M.M.M.M.M.M.M.M.M.    O O 5 ] X.&.;.;.:.e.e.r.r.r.e.:.&.5     M.M.M.M.M.M.M.M.M.M.M.M.M.M.M.M.M.M.M.M.M.M.M.M.M.M.M.M.M.M.",
"M.M.M.M.M.M.M.M.M.M.M.M.M.M.M.M.M.M.M.M.M.M.M.M.M.M.M.M.M.M.M.M.  O * # # 4 4 = % # * & @     M.M.M.M.M.M.M.M.M.M.M.M.M.M.M.M.M.M.M.M.M.M.M.M.M.M.M.M.M.M.M.M.M.",
"M.M.M.M.M.M.M.M.M.M.M.M.M.M.M.M.M.M.M.M.M.M.M.M.M.M.M.M.M.M.M.4 p ' | s ;.x.g.k.u., M.M.M.M.M.M.M.M.M.M.M.M.M.M.M.M.M.M.M.M.M.M.M.M.M.M.M.M.M.M.M.M.M.M.M.M.M.M.",
"M.M.M.M.M.M.M.M.M.M.M.M.M.M.M.M.M.M.M.M.M.M.M.M.M.M.M.M.M.# ' X.' 4 = | k.l.k.l.b.r.  M.M.M.M.M.M.M.M.M.M.M.M.M.M.M.M.M.M.M.M.M.M.M.M.M.M.M.M.M.M.M.M.M.M.M.M.M.",
"M.M.M.M.M.M.M.M.M.M.M.M.M.M.M.M.M.M.M.M.M.M.M.M.M.M.M.M.& | | u % * r ;.l.k.l.k.k.l.' M.M.M.M.M.M.M.M.M.M.M.M.M.M.M.M.M.M.M.M.M.M.M.M.M.M.M.M.M.M.M.M.M.M.M.M.M.",
"M.M.M.M.M.M.M.M.M.M.M.M.M.M.M.M.M.M.M.M.M.M.M.M.M.M.M.# | | p & % ' v u.x.l.k.k.k.z.:.  M.M.M.M.M.M.M.M.M.M.M.M.M.M.M.M.M.M.M.M.M.M.M.M.M.M.M.M.M.M.M.M.M.M.M.M.",
"M.M.M.M.M.M.M.M.M.M.M.M.M.M.M.M.M.M.M.M.M.M.M.M.M.M.  ] | v 4 % } ' | k.k.k.k.k.l.z.p.& & + M.M.M.M.M.M.M.M.M.M.M.M.M.M.M.M.M.M.M.M.M.M.M.M.M.M.M.M.M.M.M.M.M.M.",
"M.M.M.M.M.M.M.M.M.M.M.M.M.M.M.M.M.M.M.M.M.M.M.M.M.M.# | ] ' & @ 5 r &.l.l.k.l.l.l.l.l.p * p * + M.M.M.M.M.M.M.M.M.M.M.M.M.M.M.M.M.M.M.M.M.M.M.M.M.M.M.M.M.M.M.M.",
"M.M.M.M.M.M.M.M.M.M.M.M.M.M.M.M.M.M.M.M.M.M.M.M.M.* p X.r 5 + * v t *.l.k.k.l.k.k.k.x.O.% ] ' e.& M.M.M.M.M.M.M.M.M.M.M.M.M.M.M.M.M.M.M.M.M.M.M.M.M.M.M.M.M.M.M.",
"M.M.M.M.M.M.M.M.M.M.M.M.M.M.M.M.M.M.M.M.O @ O X r i ] l.e.|   = r t *.z.k.l.k.l.k.k.l.*.# v e.k.+ M.M.M.M.M.M.M.M.M.M.M.M.M.M.M.M.M.M.M.M.M.M.M.M.M.M.M.M.M.M.M.",
"M.M.M.M.M.M.M.M.M.M.M.M.M.M.M.M.M.M.M.o # # # * p '   X.r.|   @ r p &.l.k.l.l.k.k.k.l.&.  O.p.p M.M.M.M.M.M.M.M.M.M.M.M.M.M.M.M.M.M.M.M.M.M.M.M.M.M.M.M.M.M.M.M.",
"M.M.M.M.M.M.M.M.M.M.M.M.M.M.M.M.M.M.M.o @ @ @ @ 5 = M.M.  M.  = r ' } p.x.l.k.k.k.l.k.p   M.  M.M.M.M.M.M.M.M.M.M.M.M.M.M.M.M.M.M.M.M.M.M.M.M.M.M.M.M.M.M.M.M.M.",
"M.M.M.M.M.M.M.M.M.M.M.M.M.M.M.M.M.M.M.M.+ # @ @ # M.M.M.M.M.M.& 5 r p o.p.x.l.l.l.p.o.# M.M.M.M.M.M.M.M.M.M.M.M.M.M.M.M.M.M.M.M.M.M.M.M.M.M.M.M.M.M.M.M.M.M.M.M.",
"M.M.M.M.M.M.M.M.M.M.M.M.M.M.M.M.M.M.M.M.M.o O o M.M.M.M.M.M.M.o * r } r * $.e.e.*.i * X M.M.M.M.M.M.M.M.M.M.M.M.M.M.M.M.M.M.M.M.M.M.M.M.M.M.M.M.M.M.M.M.M.M.M.M.",
"M.M.M.M.M.M.M.M.M.M.M.M.M.M.M.M.M.M.M.M.M.M.M.M.M.M.M.M.M.M.M.M.%  .C | p   @ , * # X M.M.M.M.M.M.M.M.M.M.M.M.M.M.M.M.M.M.M.M.M.M.M.M.M.M.M.M.M.M.M.M.M.M.M.M.M.",
"M.M.M.M.M.M.M.M.M.M.M.M.M.M.M.M.M.M.M.M.M.M.M.M.M.M.M.M.M.M.M.M.* &.| j ] r @ & % 5 & M.M.M.M.M.M.M.M.M.M.M.M.M.M.M.M.M.M.M.M.M.M.M.M.M.M.M.M.M.M.M.M.M.M.M.M.M.",
"M.M.M.M.M.M.M.M.M.M.M.M.M.M.M.M.M.M.M.M.M.M.M.M.M.M.M.M.M.M.M.M.@ O.o.' ' ' = + } &.* M.M.M.M.M.M.M.M.M.M.M.M.M.M.M.M.M.M.M.M.M.M.M.M.M.M.M.M.M.M.M.M.M.M.M.M.M.",
"M.M.M.M.M.M.M.M.M.M.M.M.M.M.M.M.M.M.M.M.M.M.M.M.M.M.M.M.M.M.M.M.  | O.| ' ' p @ ] &.% M.M.M.M.M.M.M.M.M.M.M.M.M.M.M.M.M.M.M.M.M.M.M.M.M.M.M.M.M.M.M.M.M.M.M.M.M.",
"M.M.M.M.M.M.M.M.M.M.M.M.M.M.M.M.M.M.M.M.M.M.M.M.M.M.M.M.M.M.M.M.M.r &.X.' ' ' * = O.@ M.M.M.M.M.M.M.M.M.M.M.M.M.M.M.M.M.M.M.M.M.M.M.M.M.M.M.M.M.M.M.M.M.M.M.M.M.",
"M.M.M.M.M.M.M.M.M.M.M.M.M.M.M.M.M.M.M.M.M.M.M.M.M.M.M.M.M.M.M.M.M.% O.O.' ' ' 7 @ ' o M.M.M.M.M.M.M.M.M.M.M.M.M.M.M.M.M.M.M.M.M.M.M.M.M.M.M.M.M.M.M.M.M.M.M.M.M.",
"M.M.M.M.M.M.M.M.M.M.M.M.M.M.M.M.M.M.M.M.M.M.M.M.M.M.M.M.M.M.M.M.M.  | O.| ' ' 5 p # M.M.M.M.M.M.M.M.M.M.M.M.M.M.M.M.M.M.M.M.M.M.M.M.M.M.M.M.M.M.M.M.M.M.M.M.M.M.",
"M.M.M.M.M.M.M.M.M.M.M.M.M.M.M.M.M.M.M.M.M.M.M.M.M.M.M.M.M.M.M.M.M.M.= O.| p q *.;.  M.M.M.M.M.M.M.M.M.M.M.M.M.M.M.M.M.M.M.M.M.M.M.M.M.M.M.M.M.M.M.M.M.M.M.M.M.M.",
"M.M.M.M.M.M.M.M.M.M.M.M.M.M.M.M.M.M.M.M.M.M.M.M.M.M.M.M.M.M.M.M.M.M.  &.*.&.e.r.4   M.M.M.M.M.M.M.M.M.M.M.M.M.M.M.M.M.M.M.M.M.M.M.M.M.M.M.M.M.M.M.M.M.M.M.M.M.M.",
"M.M.M.M.M.M.M.M.M.M.M.M.M.M.M.M.M.M.M.M.M.M.M.M.M.M.M.M.M.M.M.M.M.M.M.p e.e.*.p t M.M.M.M.M.M.M.M.M.M.M.M.M.M.M.M.M.M.M.M.M.M.M.M.M.M.M.M.M.M.M.M.M.M.M.M.M.M.M.",
"M.M.M.M.M.M.M.M.M.M.M.M.M.M.M.M.M.M.M.M.M.M.M.M.M.M.M.M.M.M.M.M.M.M.M.    = p *.r M.M.M.M.M.M.M.M.M.M.M.M.M.M.M.M.M.M.M.M.M.M.M.M.M.M.M.M.M.M.M.M.M.M.M.M.M.M.M.",
"M.M.M.M.M.M.M.M.M.M.M.M.M.M.M.M.M.M.M.M.M.M.M.M.M.M.M.M.M.M.M.M.M.M.M.M.M.@ 5 @ M.M.M.M.M.M.M.M.M.M.M.M.M.M.M.M.M.M.M.M.M.M.M.M.M.M.M.M.M.M.M.M.M.M.M.M.M.M.M.M.",
"M.M.M.M.M.M.M.M.M.M.M.M.M.M.M.M.M.M.M.M.M.M.M.M.M.M.M.M.M.M.M.M.M.M.M.M.M.M.M.M.M.M.M.M.M.M.M.M.M.M.M.M.M.M.M.M.M.M.M.M.M.M.M.M.M.M.M.M.M.M.M.M.M.M.M.M.M.M.M.M.",
"M.M.M.M.M.M.M.M.M.M.M.M.M.M.M.M.M.M.M.M.M.M.M.M.M.M.M.M.M.M.M.M.M.M.M.M.M.M.M.M.M.M.M.M.M.M.M.M.M.M.M.M.M.M.M.M.M.M.M.M.M.M.M.M.M.M.M.M.M.M.M.M.M.M.M.M.M.M.M.M."
};
