/* XPM */
static char *_9227_3f6c305f109f65f0dcb1ed95b55220075b1c030c99161e69222a40ee8b6f2c89[] = {
/* columns rows colors chars-per-pixel */
"80 70 141 2 ",
"   c #000000",
".  c #0C0C0C",
"X  c #131313",
"o  c #1C1C1C",
"O  c #232323",
"+  c #2B2B2B",
"@  c #333333",
"#  c #3C3C3C",
"$  c #365B6B",
"%  c #434343",
"&  c #4B4B4B",
"*  c #535353",
"=  c #5B5B5B",
"-  c #545A5D",
";  c #695D54",
":  c #67605D",
">  c #6C635D",
",  c #72665C",
"<  c #4B5D66",
"1  c #5E5F61",
"2  c #5D7179",
"3  c #646464",
"4  c #6D6966",
"5  c #616669",
"6  c #636A6B",
"7  c #6B6B6B",
"8  c #756D67",
"9  c #756E6B",
"0  c #796F68",
"q  c #7D746D",
"w  c #607077",
"e  c #6D7072",
"r  c #627279",
"t  c #747474",
"y  c #727678",
"u  c #7B7B7B",
"i  c #797877",
"p  c #837B76",
"a  c #837E7B",
"s  c #C85151",
"d  c #E45858",
"f  c #C77272",
"g  c #F67878",
"h  c #F07474",
"j  c #83807E",
"k  c #006896",
"l  c #006C99",
"z  c #007493",
"x  c #047A98",
"c  c #007DA6",
"v  c #667C88",
"b  c #6D7C83",
"n  c #0087B2",
"m  c #0C8EB0",
"M  c #0E96BA",
"N  c #54889C",
"B  c #65828F",
"V  c #7F8182",
"C  c #628C9D",
"Z  c #4A88A0",
"A  c #5F8DA2",
"S  c #5292AB",
"D  c #499BB9",
"F  c #6A99AE",
"G  c #7899A7",
"H  c #61A0BA",
"J  c #7BA6B9",
"K  c #01A8D1",
"L  c #00AADB",
"P  c #15A9D2",
"I  c #16B3DE",
"U  c #31A7CB",
"Y  c #38A7CC",
"T  c #22AAD3",
"R  c #33B6DF",
"E  c #3EB4DC",
"W  c #00B7E6",
"Q  c #00B9E7",
"!  c #00BEF2",
"~  c #28B8E2",
"^  c #49A8C9",
"/  c #53A9CA",
"(  c #61AAC7",
")  c #01C6F8",
"_  c #00C9FB",
"`  c #25C6F6",
"'  c #4DC8F2",
"]  c #5ACBF4",
"[  c #67C9ED",
"{  c #838383",
"}  c #888786",
"|  c #8B8B8B",
" . c #978181",
".. c #918A86",
"X. c #939393",
"o. c #9B9C9C",
"O. c #B88585",
"+. c #A09E9C",
"@. c #BE9898",
"#. c #89A4AF",
"$. c #96A6AD",
"%. c #9AB2BC",
"&. c #A3A3A3",
"*. c #A6A8A9",
"=. c #ABABAB",
"-. c #BEA8A8",
";. c #B4B4B4",
":. c #B9B0B0",
">. c #BCBCBC",
",. c #D68D8D",
"<. c #FF9393",
"1. c #C9A1A1",
"2. c #C5BEBA",
"3. c #FFB0B0",
"4. c #93B2C1",
"5. c #BDC4C6",
"6. c #BFCED5",
"7. c #B6C9D2",
"8. c #91C9E1",
"9. c #A4D5EA",
"0. c #BAD7E6",
"q. c #B0E1F7",
"w. c #C4C5C5",
"e. c #CCCCCC",
"r. c #D4CFCB",
"t. c #D3D1CF",
"y. c #CCD1D1",
"u. c #D3D3D3",
"i. c #DBDBDB",
"p. c #FFC3C3",
"a. c #C0D9E5",
"s. c #DCE1E1",
"d. c #E5E5E5",
"f. c #E8E7E7",
"g. c #EBE8E6",
"h. c #EAEAEA",
"j. c #E7F9FF",
"k. c #ECFBFF",
"l. c #E4F4FB",
"z. c #FDFFFF",
"x. c None",
/* pixels */
"x.x.x.x.x.x.x.x.x.x.x.x.x.x.x.x.x.x.x.x.x.x.x.x.x.x.x.x.x.x.x.x.x.x.x.x.x.x.x.x.x.x.x.x.x.x.x.x.x.x.x.x.x.x.x.x.x.x.x.x.x.x.x.x.x.x.x.x.x.x.x.x.x.x.x.x.x.x.x.x.",
"x.x.x.x.x.x.x.x.x.x.x.x.x.x.x.x.x.x.x.x.x.x.x.x.x.x.x.x.x.x.x.x.x.x.x.x.x.x.x.x.x.x.x.x.x.x.x.x.x.x.x.x.x.x.x.x.x.x.x.x.x.x.x.x.x.x.x.x.x.x.x.x.x.x.x.x.x.x.x.x.",
"x.x.x.x.x.x.x.x.x.x.x.x.x.x.x.x.x.x.x.x.x.x.x.x.x.x.x.x.x.x.x.x.x.x.x.x.x.x.x.x.x.x.x.x.x.x.x.x.x.x.x.x.x.x.x.x.x.x.x.x.x.x.x.x.x.x.x.x.x.x.x.x.x.x.x.x.x.x.x.x.",
"x.x.x.x.x.x.x.x.x.x.x.x.x.x.x.x.x.x.x.x.x.x.x.x.x.x.x.x.x.x.x.x.x.x.x.x.x.x.x.x.x.x.x.x.x.x.x.x.x.x.x.x.x.x.x.x.x.x.x.x.x.x.x.x.x.x.x.x.x.x.x.x.x.x.x.x.x.x.x.x.",
"x.x.x.x.x.x.x.x.x.x.x.x.x.x.x.x.x.x.x.x.x.. + @ O .   x.x.x.x.x.x.x.x.x.x.x.x.x.x.x.x.x.x.x.x.x.x.x.x.x.x.x.x.x.x.x.x.x.x.x.x.x.x.x.x.x.x.x.x.x.x.x.x.x.x.x.x.x.",
"x.x.x.x.x.x.x.x.x.x.x.x.x.x.x.x.x.x.x.x.x.o % % & & % X   x.x.x.x.x.x.x.x.x.x.x.x.x.x.x.x.x.x.x.x.x.x.x.x.x.x.x.x.x.x.x.x.x.x.x.x.x.x.x.x.x.x.x.x.x.x.x.x.x.x.x.",
"x.x.x.x.x.x.x.x.x.x.x.x.x.x.x.x.x.x.x.x.  O + @ @ O @ & @   x.x.x.x.x.x.x.x.x.x.x.x.x.x.x.x.x.x.x.x.x.x.x.x.x.x.x.x.x.x.x.x.x.x.x.x.x.x.x.x.x.x.x.x.x.x.x.x.x.x.",
"x.x.x.x.x.x.x.x.x.x.x.x.x.x.x.x.x.x.x.x.  + @ @ @ 3 3 % { 7   x.x.x.x.x.x.x.x.x.x.x.x.x.x.x.x.x.  O + @ @ o x.x.x.x.x.x.x.x.x.x.x.x.x.x.x.x.x.x.x.x.x.x.x.x.x.x.",
"x.x.x.x.x.x.x.x.x.x.x.x.x.x.x.x.x.x.x.x.. + # . t e.e.>.=.+.1 x.x.x.x.x.x.x.x.x.x.x.x.x.x.x.  = } * & * * % x.x.x.x.x.x.x.x.x.x.x.x.x.x.x.x.x.x.x.x.x.x.x.x.x.x.",
"x.x.x.x.x.x.x.x.x.x.x.x.x.x.x.x.x.x.x.x.X + #   ;.i.e.e.t.w.&.# x.x.x.x.x.x.x.x.x.x.x.x.x.@ | o.3 & % + . X x.x.x.x.x.x.x.x.x.x.x.x.x.x.x.x.x.x.x.x.x.x.x.x.x.x.",
"x.x.x.x.x.x.x.x.x.x.x.x.x.x.x.x.x.x.x.  X @ @ # i.f.d.i.e.e.y.o.x.x.x.x.x.x.x.x.x.x.x.  - o.o.i 3 #   3 X.u x.x.x.x.x.x.x.x.x.x.x.x.x.x.x.x.x.x.x.x.x.x.x.x.x.x.",
"x.x.x.x.x.x.x.x.x.x.x.x.x.x.x.x.x.x.x.  X + X 3 d.d.f.g.s.y.r.u.i x.x.x.x.x.x.x.x.x.  = +.X.{ } t u w.i.d.*.x.x.x.x.x.x.x.x.x.x.x.x.x.x.x.x.x.x.x.x.x.x.x.x.x.x.",
"x.x.x.x.x.x.x.x.x.x.x.x.x.x.x.x.x.x.x.. X % # } f.d.f.d.f.d.e.u.;.x.x.x.x.x.x.x.x.x.* o.X.{ { u ;.f.h.f.s.+.x.x.x.x.x.x.x.x.x.x.x.x.x.x.x.x.x.x.x.x.x.x.x.x.x.x.",
"x.x.x.x.x.x.x.x.x.x.x.x.x.x.x.x.x.x.x.X # - t +.f.d.d.d.d.f.s.e.w.& X O o & & X o   3 | { } i w.h.d.d.d.i.X.x.x.x.x.x.x.x.x.x.x.x.x.x.x.x.x.x.x.x.x.x.x.x.x.x.x.",
"x.x.x.x.x.x.x.x.x.x.x.x.x.x.x.x.x.x.x.  * 4 a &.f.d.f.d.d.d.f.u.e.&.& @ O u o.& o * =   * y w.h.d.d.d.d.i.| x.x.x.x.x.x.x.x.x.x.x.x.x.x.x.x.x.x.x.x.x.x.x.x.x.x.",
"x.x.x.x.x.x.x.x.x.x.x.x.x.x.x.x.x.x.x.  * e i $.f.f.d.f.f.d.d.s.w.o.3 + O 3 | =   i X.O o   &.f.f.d.d.d.u.i x.x.x.x.x.x.x.x.x.x.x.x.x.x.x.x.x.x.x.x.x.x.x.x.x.x.",
"x.x.x.x.x.x.x.x.x.x.x.x.x.x.x.x.x.x.x.  & 7 i o.d.d.d.d.d.d.d.d.e.t u # O * } 3 . 9 u + + y # 9 d.h.d.d.u.* x.x.x.x.x.x.x.x.x.x.x.x.x.x.x.x.x.x.x.x.x.x.x.x.x.x.",
"x.x.x.x.x.x.x.x.x.x.x.x.x.x.x.x.x.x.x.x.& 7 t X.d.d.d.d.d.f.d.d.>.# { - o * } e X i e + + X.u   * s.h.d.w.+ x.x.x.x.x.x.x.x.x.x.x.x.x.x.x.x.x.x.x.x.x.x.x.x.x.x.",
"x.x.x.x.x.x.x.x.x.x.x.x.x.x.x.x.x.x.x.x.# 6 t { i.d.d.f.d.d.f.d.X.  i i o & } u + u t X * { % # @ 3 d.d.;.  x.x.x.x.x.x.x.x.x.x.x.x.x.x.x.x.x.x.x.x.x.x.x.x.x.x.",
"x.x.x.x.x.x.x.x.x.x.x.x.x.x.x.x.x.x.x.x.+ 3 7 i e.h.d.d.f.d.h.u.i + * } # # V V % { 7   e i X * &.% X.f.| x.x.x.x.x.x.x.x.x.x.x.x.x.x.x.x.x.x.x.x.x.x.x.x.x.x.x.",
"x.x.x.x.x.x.x.x.x.x.x.x.x.x.x.x.x.x.x.x.  ; 6 y =.h.d.d.d.f.h.+.V t + u 3 + a { * { 6 + { 1 O u o.o.O =.3 x.x.x.x.x.x.x.x.x.x.x.x.x.x.x.x.x.x.x.x.x.x.x.x.x.x.x.",
"x.x.x.x.x.x.x.x.x.x.x.x.x.x.x.x.x.x.x.x.  * 4 e } i.h.f.f.h.;.u { } 3 1 V + i { 7 } ; & { # 3 } { o.{ X + x.x.x.x.x.x.x.x.x.x.x.x.x.x.x.x.x.x.x.x.x.x.x.x.x.x.x.",
"x.x.x.x.x.x.x.x.x.x.x.x.x.x.x.x.x.x.x.x.x.# 6 7 u &.i.d.i.*.u { { { { 3 V & e } b | - e i & { { { | +.* x.x.x.x.x.x.x.x.x.x.x.x.x.x.x.x.x.x.x.x.x.x.x.x.x.x.x.x.",
"x.x.x.x.x.x.x.x.x.x.x.x.x.x.x.x.x.x.x.x.    = 3 i V V | u u { { { { } V { 3 4 ..j } ; b 3 t } { { { o.|   x.x.x.x.x.x.x.x.x.x.x.x.x.x.x.x.x.x.x.x.x.x.x.x.x.x.x.",
"x.x.x.x.x.x.x.x.x.x.x.x.x.x.x.x.x.x.x.x.+ & X 1 3 i { V { { { { { { { { { i 4 } a { t u t } V { { { | o.# x.x.x.x.x.x.x.x.x.x.x.x.x.x.x.x.x.x.x.x.x.x.x.x.x.x.x.",
"x.x.x.x.x.x.x.x.x.x.x.x.x.x.x.x.x.x.x.x.& } #   # e } { { { { { { j { { { { y { { { { V { { { V { { } +.t x.x.x.x.x.x.x.x.x.x.x.x.x.x.x.x.x.x.x.x.x.x.x.x.x.x.x.",
"x.x.x.x.x.x.x.x.x.x.x.x.x.x.x.x.x.x.x.  9 } b i V } { { { { { { { { V { { { { { V { { { { { { { { { { X.|   x.x.x.x.x.x.x.x.x.x.x.x.x.x.x.x.x.x.x.x.x.x.x.x.x.x.",
"x.x.x.x.x.x.x.x.x.x.x.x.x.x.x.x.x.x.x.o a } } { { V { { { { { { { { { { V { { { { { { { { { { { { { { | o.@ x.x.x.x.x.x.x.x.x.x.x.x.x.x.x.x.x.x.x.x.x.x.x.x.x.x.",
"x.x.x.x.x.x.x.x.x.x.x.x.x.x.x.x.x.x.x.* } { { { { { { } { b u } } { { { { { { { { { j { { { { { { { { { o.* x.x.x.x.x.x.x.x.x.x.x.x.x.x.x.x.x.x.x.x.x.x.x.x.x.x.",
"x.x.x.x.x.x.x.x.x.x.x.x.x.x.x.x.x.x.+ u { { { { { { { u 8 ; 4 < 9 } V { { { { j { { { { { { { { { a { } o.t x.x.x.x.x.x.x.x.x.x.x.x.x.x.x.x.x.x.x.x.x.x.x.x.x.x.",
"x.x.x.x.x.x.x.x.x.x.x.x.x.x.x.x.x.  i } { { { { V { a : w Y I 8.G 9 { { { { { { } } { { { { } a 8 r < 3 o.{   x.x.x.x.x.x.x.x.x.x.x.x.x.x.x.x.x.x.x.x.x.x.x.x.x.",
"x.x.x.x.x.x.x.x.x.x.x.x.x.x.x.x.  t } V V { { { { { t 3 ^ W 0.z.j.N a { } { { V j b { } { { a v T ~ 9.G 7 X.@ x.x.x.x.x.x.x.x.x.x.x.x.x.x.x.x.x.x.x.x.x.x.x.x.x.",
"x.x.x.x.x.x.x.x.x.x.x.x.x.x.x.  & u } { } { u { { { > N W l y.z.k.^ a V i u { | | | V u i } i R L a.z.k.N ..V   x.x.x.x.x.x.x.x.x.x.x.x.x.x.x.x.x.x.x.x.x.x.x.x.",
"x.x.x.x.x.x.x.x.x.x.x.x.x.x.x.  = 3 e 9 = = t { { { , Z ' J x %.( K 0 X.>.e.i.s.f.s.y.>.*.q A W k 7.z.l.U 0 o.# x.x.x.x.x.x.x.x.x.x.x.x.x.x.x.x.x.x.x.x.x.x.x.x.",
"x.x.x.x.x.x.x.x.x.x.x.x.x.x.x.x.X O   + 3 u { { { { q $ q.z.m c ! H 2.d.h.h.g.h.w.@.1.-.w.r.F ] %.z #.^ P > u =   x.x.x.x.x.x.x.x.x.x.x.x.x.x.x.x.x.x.x.x.x.x.x.",
"x.x.x.x.x.x.x.x.x.x.x.x.x.x.x.x.x.  % 3 e 6 u { u { { 3 B [ _ ) / t.h.f.d.d.h.y.s <.3.p.,.u.7.9.z.M n ) S q 3 + . x.x.x.x.x.x.x.x.x.x.x.x.x.x.x.x.x.x.x.x.x.x.x.",
"x.x.x.x.x.x.x.x.x.x.x.x.x.x.x.x.x.x.@ #   1 } 3 7 } b } 9 5 B b r.h.d.f.d.d.g.s.O.d g h f y.g.$.R ) ` D 8 y = + x.x.x.x.x.x.x.x.x.x.x.x.x.x.x.x.x.x.x.x.x.x.x.x.",
"x.x.x.x.x.x.x.x.x.x.x.x.x.x.x.x.x.x.x.  * e & + u } { } { } t ;.h.d.d.d.d.d.d.h.s.w. .:.i.f.d.f.o.2 y , 1 7 @ x.x.x.x.x.x.x.x.x.x.x.x.x.x.x.x.x.x.x.x.x.x.x.x.x.",
"x.x.x.x.x.x.x.x.x.x.x.x.x.x.x.x.x.x.x.x.O #   & 7 7 i u { { b u.h.d.d.f.d.d.d.i.f.i.6 h.f.d.d.h.u.u a e @ #   x.x.x.x.x.x.x.x.x.x.x.x.x.x.x.x.x.x.x.x.x.x.x.x.x.",
"x.x.x.x.x.x.x.x.x.x.x.x.x.x.x.x.x.x.x.x.x.    & 4 4 3 3 7 9 q e.d.d.d.f.d.d.h.u.| { &.| w.f.d.h.y.7 7 4 #   x.x.x.x.x.x.x.x.x.x.x.x.x.x.x.x.x.x.x.x.x.x.x.x.x.x.",
"x.x.x.x.x.x.x.x.x.x.x.x.x.x.x.x.x.x.x.x.x.x.x.  O & 3 3 3 7 = ;.u.e.e.e.u.i.i.s.i.i.f.t.u.i.t.u.*.= 3 %   x.x.x.x.x.x.x.x.x.x.x.x.x.x.x.x.x.x.x.x.x.x.x.x.x.x.x.",
"x.x.x.x.x.x.x.x.x.x.x.x.x.x.x.x.x.x.x.x.x.x.x.x.x.x.  O # * & X.e.e.u.u.u.u.e.e.e.e.e.u.y.y.u.>.t & O x.x.x.x.x.x.x.x.x.x.x.x.x.x.x.x.x.x.x.x.x.x.x.x.x.x.x.x.x.",
"x.x.x.x.x.x.x.x.x.x.x.x.x.x.x.x.x.x.x.x.x.x.x.x.x.x.x.x.x.x.    # = e | X.+.;.;.2.w.e.5.w.;.| #     x.x.x.x.x.x.x.x.x.x.x.x.x.x.x.x.x.x.x.x.x.x.x.x.x.x.x.x.x.x.",
"x.x.x.x.x.x.x.x.x.x.x.x.x.x.x.x.x.x.x.x.x.x.x.x.x.x.x.x.x.x.x.x.  3 4 & 7 | i e # o # O     x.x.x.x.x.x.x.x.x.x.x.x.x.x.x.x.x.x.x.x.x.x.x.x.x.x.x.x.x.x.x.x.x.x.",
"x.x.x.x.x.x.x.x.x.x.x.x.x.x.x.x.x.x.x.x.x.x.x.x.x.x.x.x.x.@ 3 y { V V | d.h.f.h.u.% x.x.x.x.x.x.x.x.x.x.x.x.x.x.x.x.x.x.x.x.x.x.x.x.x.x.x.x.x.x.x.x.x.x.x.x.x.x.",
"x.x.x.x.x.x.x.x.x.x.x.x.x.x.x.x.x.x.x.x.x.x.x.x.x.x.x.  3 | | { e 1 3 >.g.d.d.d.h.;.  x.x.x.x.x.x.x.x.x.x.x.x.x.x.x.x.x.x.x.x.x.x.x.x.x.x.x.x.x.x.x.x.x.x.x.x.x.",
"x.x.x.x.x.x.x.x.x.x.x.x.x.x.x.x.x.x.x.x.x.x.x.x.x.x.  i X.{ t & # 9 V u.f.d.d.d.f.d.1 % & o     x.x.x.x.x.x.x.x.x.x.x.x.x.x.x.x.x.x.x.x.x.x.x.x.x.x.x.x.x.x.x.x.",
"x.x.x.x.x.x.x.x.x.x.x.x.x.x.x.x.x.x.x.x.x.x.x.x.x.x.t X.{ i & X 3 V X.d.f.f.f.d.d.h.=.+ V y 4 4 | X x.x.x.x.x.x.x.x.x.x.x.x.x.x.x.x.x.x.x.x.x.x.x.x.x.x.x.x.x.x.",
"x.x.x.x.x.x.x.x.x.x.x.x.x.x.x.x.x.x.x.x.x.x.x.x.x.@ X.} { =   3 | i *.h.d.f.d.f.d.h.u.@ b } u } u.7 x.x.x.x.x.x.x.x.x.x.x.x.x.x.x.x.x.x.x.x.x.x.x.x.x.x.x.x.x.x.",
"x.x.x.x.x.x.x.x.x.x.x.x.x.x.x.x.x.x.x.x.x.x.x.x.x.} } i i # + & e t ;.h.d.d.f.d.d.d.d.3 q X.u ;.h.# x.x.x.x.x.x.x.x.x.x.x.x.x.x.x.x.x.x.x.x.x.x.x.x.x.x.x.x.x.x.",
"x.x.x.x.x.x.x.x.x.x.x.x.x.x.x.x.x.x.x.x.O # @ #   ;.i.X.3 @ # = { i >.f.d.d.f.d.d.d.h.|   t u >.| x.x.x.x.x.x.x.x.x.x.x.x.x.x.x.x.x.x.x.x.x.x.x.x.x.x.x.x.x.x.x.",
"x.x.x.x.x.x.x.x.x.x.x.x.x.x.x.x.x.x.x.x.@ # # & y = w.i.7   O 3 y i >.f.d.d.d.d.d.d.h.+.  x.x.x.x.x.x.x.x.x.x.x.x.x.x.x.x.x.x.x.x.x.x.x.x.x.x.x.x.x.x.x.x.x.x.x.",
"x.x.x.x.x.x.x.x.x.x.x.x.x.x.x.x.x.x.x.. @ @ @ + 4 3   # x.x.. @ u u *.h.h.h.d.d.d.f.h.|   x.x.x.x.x.x.x.x.x.x.x.x.x.x.x.x.x.x.x.x.x.x.x.x.x.x.x.x.x.x.x.x.x.x.x.",
"x.x.x.x.x.x.x.x.x.x.x.x.x.x.x.x.x.x.x.x.O # @ @ & + x.x.x.x.  1 t { | e.e.i.h.f.d.h.w.= x.x.x.x.x.x.x.x.x.x.x.x.x.x.x.x.x.x.x.x.x.x.x.x.x.x.x.x.x.x.x.x.x.x.x.x.",
"x.x.x.x.x.x.x.x.x.x.x.x.x.x.x.x.x.x.x.x.x.X o o x.x.x.x.x.x.x.* 4 t { t & & &.d.d.>.t + x.x.x.x.x.x.x.x.x.x.x.x.x.x.x.x.x.x.x.x.x.x.x.x.x.x.x.x.x.x.x.x.x.x.x.x.",
"x.x.x.x.x.x.x.x.x.x.x.x.x.x.x.x.x.x.x.x.x.x.x.x.x.x.x.x.x.x.x.X = i { { } t + = u = % x.x.x.x.x.x.x.x.x.x.x.x.x.x.x.x.x.x.x.x.x.x.x.x.x.x.x.x.x.x.x.x.x.x.x.x.x.",
"x.x.x.x.x.x.x.x.x.x.x.x.x.x.x.x.x.x.x.x.x.x.x.x.x.x.x.x.x.x.x.x.  { X.b } } { * o @ x.x.x.x.x.x.x.x.x.x.x.x.x.x.x.x.x.x.x.x.x.x.x.x.x.x.x.x.x.x.x.x.x.x.x.x.x.x.",
"x.x.x.x.x.x.x.x.x.x.x.x.x.x.x.x.x.x.x.x.x.x.x.x.x.x.x.x.x.x.x.x.x.1 &.| j } { } 7 @ x.x.x.x.x.x.x.x.x.x.x.x.x.x.x.x.x.x.x.x.x.x.x.x.x.x.x.x.x.x.x.x.x.x.x.x.x.x.",
"x.x.x.x.x.x.x.x.x.x.x.x.x.x.x.x.x.x.x.x.x.x.x.x.x.x.x.x.x.x.x.x.x.  } &.X.{ { { { 7 # x.x.x.x.x.x.x.x.x.x.x.x.x.x.x.x.x.x.x.x.x.x.x.x.x.x.x.x.x.x.x.x.x.x.x.x.x.",
"x.x.x.x.x.x.x.x.x.x.x.x.x.x.x.x.x.x.x.x.x.x.x.x.x.x.x.x.x.x.x.x.x.@ @ X.o.X.{ { } 7 o.3 x.x.x.x.x.x.x.x.x.x.x.x.x.x.x.x.x.x.x.x.x.x.x.x.x.x.x.x.x.x.x.x.x.x.x.x.",
"x.x.x.x.x.x.x.x.x.x.x.x.x.x.x.x.x.x.x.x.x.x.x.x.x.x.x.x.x.x.x.x.o 7 7 % X.o.| } { 7 w.u x.x.x.x.x.x.x.x.x.x.x.x.x.x.x.x.x.x.x.x.x.x.x.x.x.x.x.x.x.x.x.x.x.x.x.x.",
"x.x.x.x.x.x.x.x.x.x.x.x.x.x.x.x.x.x.x.x.x.x.x.x.x.x.x.x.x.x.x.x.* i | 7 % o.+.| t ;.u.& x.x.x.x.x.x.x.x.x.x.x.x.x.x.x.x.x.x.x.x.x.x.x.x.x.x.x.x.x.x.x.x.x.x.x.x.",
"x.x.x.x.x.x.x.x.x.x.x.x.x.x.x.x.x.x.x.x.x.x.x.x.x.x.x.x.x.x.x.7 &.7 } } y & X.*.>.i.| x.x.x.x.x.x.x.x.x.x.x.x.x.x.x.x.x.x.x.x.x.x.x.x.x.x.x.x.x.x.x.x.x.x.x.x.x.",
"x.x.x.x.x.x.x.x.x.x.x.x.x.x.x.x.x.x.x.x.x.x.x.x.x.x.x.x.x.x.x.* e.o.t V o.a % ;.>.i x.x.x.x.x.x.x.x.x.x.x.x.x.x.x.x.x.x.x.x.x.x.x.x.x.x.x.x.x.x.x.x.x.x.x.x.x.x.",
"x.x.x.x.x.x.x.x.x.x.x.x.x.x.x.x.x.x.x.x.x.x.x.x.x.x.x.x.x.x.x.x.o.i.;.o.&.t x.x.  x.x.x.x.x.x.x.x.x.x.x.x.x.x.x.x.x.x.x.x.x.x.x.x.x.x.x.x.x.x.x.x.x.x.x.x.x.x.x.",
"x.x.x.x.x.x.x.x.x.x.x.x.x.x.x.x.x.x.x.x.x.x.x.x.x.x.x.x.x.x.x.x.  X.e.e.*.  x.x.x.x.x.x.x.x.x.x.x.x.x.x.x.x.x.x.x.x.x.x.x.x.x.x.x.x.x.x.x.x.x.x.x.x.x.x.x.x.x.x.",
"x.x.x.x.x.x.x.x.x.x.x.x.x.x.x.x.x.x.x.x.x.x.x.x.x.x.x.x.x.x.x.x.x.x.o &   x.x.x.x.x.x.x.x.x.x.x.x.x.x.x.x.x.x.x.x.x.x.x.x.x.x.x.x.x.x.x.x.x.x.x.x.x.x.x.x.x.x.x.",
"x.x.x.x.x.x.x.x.x.x.x.x.x.x.x.x.x.x.x.x.x.x.x.x.x.x.x.x.x.x.x.x.x.x.x.x.x.x.x.x.x.x.x.x.x.x.x.x.x.x.x.x.x.x.x.x.x.x.x.x.x.x.x.x.x.x.x.x.x.x.x.x.x.x.x.x.x.x.x.x.",
"x.x.x.x.x.x.x.x.x.x.x.x.x.x.x.x.x.x.x.x.x.x.x.x.x.x.x.x.x.x.x.x.x.x.x.x.x.x.x.x.x.x.x.x.x.x.x.x.x.x.x.x.x.x.x.x.x.x.x.x.x.x.x.x.x.x.x.x.x.x.x.x.x.x.x.x.x.x.x.x.",
"x.x.x.x.x.x.x.x.x.x.x.x.x.x.x.x.x.x.x.x.x.x.x.x.x.x.x.x.x.x.x.x.x.x.x.x.x.x.x.x.x.x.x.x.x.x.x.x.x.x.x.x.x.x.x.x.x.x.x.x.x.x.x.x.x.x.x.x.x.x.x.x.x.x.x.x.x.x.x.x."
};
