/* XPM */
static char *_7141_d63525822558c36475e13bdeafd97f6fe5f24d2c4d44f3a3ab82f337de965086[] = {
/* columns rows colors chars-per-pixel */
"80 70 141 2 ",
"   c #010101",
".  c #0D0D0D",
"X  c #131313",
"o  c #1B1B1B",
"O  c #232323",
"+  c #2C2C2C",
"@  c #343434",
"#  c #3C3C3C",
"$  c #3D6372",
"%  c #434343",
"&  c #4B4B4B",
"*  c #545454",
"=  c #5C5C5C",
"-  c #695A4E",
";  c #655C54",
":  c #695C53",
">  c #685E58",
",  c #73665E",
"<  c #425861",
"1  c #495B64",
"2  c #5D6062",
"3  c #536F7B",
"4  c #5F747E",
"5  c #636464",
"6  c #67696A",
"7  c #6B6C6C",
"8  c #6D6764",
"9  c #736B66",
"0  c #77716E",
"q  c #7C726A",
"w  c #626F75",
"e  c #6C7070",
"r  c #677378",
"t  c #747474",
"y  c #797674",
"u  c #7D7976",
"i  c #7C7C7C",
"p  c #847A73",
"a  c #837E7C",
"s  c #887F79",
"d  c #AA6E6E",
"f  c #BC7979",
"g  c #D64B4B",
"h  c #D06666",
"j  c #FF7D7D",
"k  c #84817E",
"l  c #007391",
"z  c #297D96",
"x  c #487385",
"c  c #447183",
"v  c #7D7E80",
"b  c #008AB7",
"n  c #2A85A3",
"m  c #5E8B9D",
"M  c #62828E",
"N  c #7E8182",
"B  c #748383",
"V  c #688691",
"C  c #4B8FA9",
"Z  c #558EA6",
"A  c #5A8DA0",
"S  c #5B91A7",
"D  c #5690A8",
"F  c #4A97B4",
"G  c #4E9AB7",
"H  c #7D9CAA",
"J  c #759DAD",
"K  c #009FCF",
"L  c #0AA4CB",
"P  c #1DA8CF",
"I  c #00A1D0",
"U  c #00AFDF",
"Y  c #14AFD9",
"T  c #3EAACF",
"R  c #35B5DE",
"E  c #00B3E2",
"W  c #00B8E7",
"Q  c #00BBEB",
"!  c #12B9E5",
"~  c #32BEE9",
"^  c #4EA8C9",
"/  c #43AACE",
"(  c #54A9C9",
")  c #1AC6F6",
"_  c #24C0ED",
"`  c #838383",
"'  c #878788",
"]  c #868888",
"[  c #8B8B8B",
"{  c #8C8784",
"}  c #938F8C",
"|  c #9E958F",
" . c #8C8E90",
".. c #949494",
"X. c #9F9791",
"o. c #9C9C9C",
"O. c #BE9596",
"+. c #B59292",
"@. c #88ACBE",
"#. c #A3A3A3",
"$. c #ABABAB",
"%. c #B6A0A0",
"&. c #BEAFAF",
"*. c #BAB2AD",
"=. c #A9B3B8",
"-. c #B4B4B4",
";. c #BCB6B6",
":. c #BCBCBC",
">. c #FB8686",
",. c #FD9393",
"<. c #C3B0B0",
"1. c #F7B6B6",
"2. c #F9B5B5",
"3. c #BDC1C1",
"4. c #92CFE9",
"5. c #8ED2EF",
"6. c #94D2ED",
"7. c #8BD2F1",
"8. c #BEDEEB",
"9. c #BDE4F4",
"0. c #C3C3C3",
"q. c #CCCCCC",
"w. c #CCD1D2",
"e. c #D3D3D3",
"r. c #D3D8D8",
"t. c #DCDCDC",
"y. c #E1DDDB",
"u. c #D9E0E0",
"i. c #CEEBF8",
"p. c #DFEBF0",
"a. c #D3EEFB",
"s. c #D3F3FF",
"d. c #DEFCFF",
"f. c #E5E5E5",
"g. c #EAE8E7",
"h. c #EAEAEA",
"j. c #E1ECF1",
"k. c #F0F0F0",
"l. c #F4F8F8",
"z. c #FDFDFC",
"x. c None",
/* pixels */
"x.x.x.x.x.x.x.x.x.x.x.x.x.x.x.x.x.x.x.x.x.x.x.x.x.x.x.x.x.x.x.x.x.x.x.x.x.x.x.x.x.x.x.x.x.x.x.x.x.x.x.x.x.x.x.x.x.x.x.x.x.x.x.x.x.x.x.x.x.x.x.x.x.x.x.x.x.x.x.x.",
"x.x.x.x.x.x.x.x.x.x.x.x.x.x.x.x.x.x.x.x.x.x.x.x.x.x.x.x.x.x.x.x.x.x.x.x.x.x.x.x.x.x.x.x.x.x.x.x.x.x.x.x.x.x.x.x.x.x.x.x.x.x.x.x.x.x.x.x.x.x.x.x.x.x.x.x.x.x.x.x.",
"x.x.x.x.x.x.x.x.x.x.x.x.x.x.x.x.x.x.x.x.x.x.x.x.x.x.x.x.x.x.x.x.x.x.x.x.x.x.x.x.x.x.x.x.x.x.x.x.x.x.x.x.x.x.x.x.x.x.x.x.x.x.x.x.x.x.x.x.x.x.x.x.x.x.x.x.x.x.x.x.",
"x.x.x.x.x.x.x.x.x.x.x.x.x.x.x.x.x.x.x.x.x.x.x.x.x.x.x.x.x.x.x.x.x.x.x.x.x.x.x.x.x.x.x.x.x.x.x.x.x.x.x.x.x.x.x.x.x.x.x.x.x.x.x.x.x.x.x.x.x.x.x.x.x.x.x.x.x.x.x.x.",
"x.x.x.x.x.x.x.x.x.x.x.x.x.x.x.x.x.x.x.x.x.x.x.. .   x.x.x.x.x.x.x.x.x.x.x.x.x.x.x.x.x.x.x.x.x.x.x.x.x.x.x.x.x.x.x.x.x.x.x.x.x.x.x.x.x.x.x.x.x.x.x.x.x.x.x.x.x.x.",
"x.x.x.x.x.x.x.x.x.x.x.x.x.x.x.x.x.x.x.x.x.x.X % & % @ . x.x.x.x.x.x.x.x.x.x.x.x.x.x.x.x.x.x.x.x.x.x.x.x.x.x.x.x.x.x.x.x.x.x.x.x.x.x.x.x.x.x.x.x.x.x.x.x.x.x.x.x.",
"x.x.x.x.x.x.x.x.x.x.x.x.x.x.x.x.x.x.x.x.x.  O @ @ # & * @   x.x.x.x.x.x.x.x.x.x.x.x.x.x.x.x.x.. O # @   x.x.x.x.x.x.x.x.x.x.x.x.x.x.x.x.x.x.x.x.x.x.x.x.x.x.x.x.",
"x.x.x.x.x.x.x.x.x.x.x.x.x.x.x.x.x.x.x.x.x.  + @ @ +     % &   x.x.x.x.x.x.x.x.x.x.x.x.x.x.  & & * * * X x.x.x.x.x.x.x.x.x.x.x.x.x.x.x.x.x.x.x.x.x.x.x.x.x.x.x.x.",
"x.x.x.x.x.x.x.x.x.x.x.x.x.x.x.x.x.x.x.x.x.. + @ O = $...7  .t   x.x.x.x.x.x.x.x.x.x.x.x.O ] t % & O X . x.x.x.x.x.x.x.x.x.x.x.x.x.x.x.x.x.x.x.x.x.x.x.x.x.x.x.x.",
"x.x.x.x.x.x.x.x.x.x.x.x.x.x.x.x.x.x.x.x.  o @ #   $.e.w.q.-.o.= x.x.x.x.x.x.x.x.x.x.x.+ ..] # %   5 -.' x.x.x.x.x.x.x.x.x.x.x.x.x.x.x.x.x.x.x.x.x.x.x.x.x.x.x.x.",
"x.x.x.x.x.x.x.x.x.x.x.x.x.x.x.x.x.x.x.x.  o # O = t.t.w.q.q.0.o.O x.x.x.x.x.x.x.x.x.o [ o.t t # #.t.u.$.  x.x.x.x.x.x.x.x.x.x.x.x.x.x.x.x.x.x.x.x.x.x.x.x.x.x.x.",
"x.x.x.x.x.x.x.x.x.x.x.x.x.x.x.x.x.x.x.x.  o @    .h.f.g.y.q.q.q.t x.x.x.x.x.x.x.x.  ` #.] ` i ;.h.h.f.;.  x.x.x.x.x.x.x.x.x.x.x.x.x.x.x.x.x.x.x.x.x.x.x.x.x.x.x.",
"x.x.x.x.x.x.x.x.x.x.x.x.x.x.x.x.x.x.x.x.X X &   -.h.f.g.g.u.q.e.-.x.x.x.x.x.x.x.x.5 #.[ N t ;.h.f.f.f.0.O x.x.x.x.x.x.x.x.x.x.x.x.x.x.x.x.x.x.x.x.x.x.x.x.x.x.x.",
"x.x.x.x.x.x.x.x.x.x.x.x.x.x.x.x.x.x.x.x.+ + 6 > q.h.f.f.f.h.t.q.e.u   o       .   7 [ ' ` o.f.f.f.f.f.q.& x.x.x.x.x.x.x.x.x.x.x.x.x.x.x.x.x.x.x.x.x.x.x.x.x.x.x.",
"x.x.x.x.x.x.x.x.x.x.x.x.x.x.x.x.x.x.x.x.@ = i v e.h.f.f.f.f.g.e.w.o.  # @ ' i O + # @ % 5 e.h.f.f.f.f.w.* x.x.x.x.x.x.x.x.x.x.x.x.x.x.x.x.x.x.x.x.x.x.x.x.x.x.x.",
"x.x.x.x.x.x.x.x.x.x.x.x.x.x.x.x.x.x.x.x.@ 6 i k r.g.f.f.f.f.g.u.w.-.@ @ @ ' ..# o [ u   . = :.h.f.f.g.e.= x.x.x.x.x.x.x.x.x.x.x.x.x.x.x.x.x.x.x.x.x.x.x.x.x.x.x.",
"x.x.x.x.x.x.x.x.x.x.x.x.x.x.x.x.x.x.x.x.@ 5 u ` r.h.f.f.f.g.f.f.e.-.= @ + 6 ' & o a t O @ 5 o [ f.g.f.e.5 x.x.x.x.x.x.x.x.x.x.x.x.x.x.x.x.x.x.x.x.x.x.x.x.x.x.x.",
"x.x.x.x.x.x.x.x.x.x.x.x.x.x.x.x.x.x.x.x.@ 5 t N e.h.f.g.f.f.f.f.e.o.t # O 5 [ = O i 6 o # o.6   7 f.g.e.* x.x.x.x.x.x.x.x.x.x.x.x.x.x.x.x.x.x.x.x.x.x.x.x.x.x.x.",
"x.x.x.x.x.x.x.x.x.x.x.x.x.x.x.x.x.x.x.x.+ 5 t i e.h.f.f.f.f.f.f.q.5 N = X * ] 7 O ` 6 X = ' # % @ 7 f.e.& x.x.x.x.x.x.x.x.x.x.x.x.x.x.x.x.x.x.x.x.x.x.x.x.x.x.x.",
"x.x.x.x.x.x.x.x.x.x.x.x.x.x.x.x.x.x.x.x.o 5 e t 0.h.f.f.f.g.f.g.$.  7 u O & ' u # ` 6   0 t . = #.% [ e.O x.x.x.x.x.x.x.x.x.x.x.x.x.x.x.x.x.x.x.x.x.x.x.x.x.x.x.",
"x.x.x.x.x.x.x.x.x.x.x.x.x.x.x.x.x.x.x.x.  2 7 t -.h.f.f.f.f.h.r.` % # ' & @ ` ` & ` 5 O k 5 O i ..o.# ` + x.x.x.x.x.x.x.x.x.x.x.x.x.x.x.x.x.x.x.x.x.x.x.x.x.x.x.",
"x.x.x.x.x.x.x.x.x.x.x.x.x.x.x.x.x.x.x.x.  = 8 e o.g.f.f.u.g.g.o.i ` @ t t O i ' 5 ' 5 % ' % = ' ' o.[   x.x.x.x.x.x.x.x.x.x.x.x.x.x.x.x.x.x.x.x.x.x.x.x.x.x.x.x.",
"x.x.x.x.x.x.x.x.x.x.x.x.x.x.x.x.x.x.x.x.  & 6 e i w.k.h.h.f.$.i ` ' u * ` # 7 ' u ' 5 5 i % k ` v [ #.6 x.x.x.x.x.x.x.x.x.x.x.x.x.x.x.x.x.x.x.x.x.x.x.x.x.x.x.x.",
"x.x.x.x.x.x.x.x.x.x.x.x.x.x.x.x.x.x.x.x.x.O 5 8 i [ :.q.3...u ' ` ` ] t v 5 5 ' N ] 5 t 7 6 ' ` ` ` ....o x.x.x.x.x.x.x.x.x.x.x.x.x.x.x.x.x.x.x.x.x.x.x.x.x.x.x.",
"x.x.x.x.x.x.x.x.x.x.x.x.x.x.x.x.x.x.x.x.x.  * 6 t ` t u t k ` ` ` ` ` ` ` u 2 ' k ` 7 i t ` ` ` ` ` ' o.5 x.x.x.x.x.x.x.x.x.x.x.x.x.x.x.x.x.x.x.x.x.x.x.x.x.x.x.",
"x.x.x.x.x.x.x.x.x.x.x.x.x.x.x.x.x.x.x.x.  &   @ & t ' ' ` ` ` ` ` ` ` ` ` ` 7 v ` ` N ` i ` ` ` ` ` ` o.[   x.x.x.x.x.x.x.x.x.x.x.x.x.x.x.x.x.x.x.x.x.x.x.x.x.x.",
"x.x.x.x.x.x.x.x.x.x.x.x.x.x.x.x.x.x.x.x.o ` 7 * 7 ` ` ` ` ` ` ` ` ` ` ` ` ` k ` ` ` ` ` ` ` ` ` ` ` ` [ o.# x.x.x.x.x.x.x.x.x.x.x.x.x.x.x.x.x.x.x.x.x.x.x.x.x.x.",
"x.x.x.x.x.x.x.x.x.x.x.x.x.x.x.x.x.x.x.x.% ' [ ' ' ` ` ` ` ` ` ` ` ` ` ` ` ` ` ` ` ` ` ` ` ` ` ` k ` ` ` #.7 x.x.x.x.x.x.x.x.x.x.x.x.x.x.x.x.x.x.x.x.x.x.x.x.x.x.",
"x.x.x.x.x.x.x.x.x.x.x.x.x.x.x.x.x.x.x.  5 [ ` ` ` ` ` ` ` ` ` ' ` ` ` ` ` ` ` ` ` ` ` ` ` ` ` ` ` ` ` N ..[   x.x.x.x.x.x.x.x.x.x.x.x.x.x.x.x.x.x.x.x.x.x.x.x.x.",
"x.x.x.x.x.x.x.x.x.x.x.x.x.x.x.x.x.x.x.  t [ N ` ` ` ` ` ' i u u ` ` ` ` ` ` ` ` ` ` ` ` ` ` ` ` ` k a ` ....o x.x.x.x.x.x.x.x.x.x.x.x.x.x.x.x.x.x.x.x.x.x.x.x.x.",
"x.x.x.x.x.x.x.x.x.x.x.x.x.x.x.x.x.x.  & ' k ` ` ` ` ` N t : w c 1 y ' ` ` ` ` ` ` ` ` ` ` ` ` ` q r x < 0 o.& x.x.x.x.x.x.x.x.x.x.x.x.x.x.x.x.x.x.x.x.x.x.x.x.x.",
"x.x.x.x.x.x.x.x.x.x.x.x.x.x.x.x.x.x.+ ` ' ` ` ` ` ` ` t ; F W 6.8.V u ` ` ` ` ` ` ' ` ` ` ` ' y F E 5.8.M k [   x.x.x.x.x.x.x.x.x.x.x.x.x.x.x.x.x.x.x.x.x.x.x.x.",
"x.x.x.x.x.x.x.x.x.x.x.x.x.x.x.x.x.  t ' N ` ` ` ` ' v : D Q ( z.z.9.3 { ` i i t y t u t u N k S W ( z.z.9.$ o.5 x.x.x.x.x.x.x.x.x.x.x.x.x.x.x.x.x.x.x.x.x.x.x.x.",
"x.x.x.x.x.x.x.x.x.x.x.x.x.x.x.x.  = [ ` ' ' ` ` ` ` i ; T K l j.z.6.C p i ..$.3.q.e.w.3.$. ., / I l j.z.6.n p  .o x.x.x.x.x.x.x.x.x.x.x.x.x.x.x.x.x.x.x.x.x.x.x.",
"x.x.x.x.x.x.x.x.x.x.x.x.x.x.x.x.+ 6 t ' u 6 5 u ` ` v - P 7.H l m E A X.q.f.h.h.h.w.&.<.;.w.;.L 5.H l m E D , 2 @   x.x.x.x.x.x.x.x.x.x.x.x.x.x.x.x.x.x.x.x.x.x.",
"x.x.x.x.x.x.x.x.x.x.x.x.x.x.x.x.X & % @ @ = i ` ` ` ` , z d.i.b E W -.f.h.f.f.h.0.h ,.2.1.O.f.@.s.a.b E ~ e u = X x.x.x.x.x.x.x.x.x.x.x.x.x.x.x.x.x.x.x.x.x.x.x.",
"x.x.x.x.x.x.x.x.x.x.x.x.x.x.x.x.x.    @ 5 ` 7 ` ` i ' i > A ~ ) Y =.h.f.f.f.f.h.0.g j ,.>.f u.t.J ! ) R 4 y 7 &   x.x.x.x.x.x.x.x.x.x.x.x.x.x.x.x.x.x.x.x.x.x.x.",
"x.x.x.x.x.x.x.x.x.x.x.x.x.x.x.x.x.x.  * & o 6 [ 5 t ' ` ` 9 7 6 X.h.f.f.f.f.g.f.h.0.+.d O.r.g.f.y.} 6 q 8 * =   x.x.x.x.x.x.x.x.x.x.x.x.x.x.x.x.x.x.x.x.x.x.x.x.",
"x.x.x.x.x.x.x.x.x.x.x.x.x.x.x.x.x.x.x.    * 7 * # ` ` ` { ] ' i w.h.f.f.f.f.f.f.f.l.r.B l.j.f.f.k.q.u i 6 + o x.x.x.x.x.x.x.x.x.x.x.x.x.x.x.x.x.x.x.x.x.x.x.x.x.",
"x.x.x.x.x.x.x.x.x.x.x.x.x.x.x.x.x.x.x.x.  % &   & 6 7 i i a v { t.h.f.f.h.f.f.g.0.#.i ` o.q.g.f.f.0.2 6 5 + x.x.x.x.x.x.x.x.x.x.x.x.x.x.x.x.x.x.x.x.x.x.x.x.x.x.",
"x.x.x.x.x.x.x.x.x.x.x.x.x.x.x.x.x.x.x.x.x.x.  . = 6 6 6 6 6 6 e q.r.t.y.t.f.u.f.f.0.e.f.0.e.t.e.r.#.= 5 O x.x.x.x.x.x.x.x.x.x.x.x.x.x.x.x.x.x.x.x.x.x.x.x.x.x.x.",
"x.x.x.x.x.x.x.x.x.x.x.x.x.x.x.x.x.x.x.x.x.x.x.x.  @ & > 5 5 6 = -.e.q.q.q.w.q.w.q.e.e.q.e.e.e.e.<.6 %   x.x.x.x.x.x.x.x.x.x.x.x.x.x.x.x.x.x.x.x.x.x.x.x.x.x.x.x.",
"x.x.x.x.x.x.x.x.x.x.x.x.x.x.x.x.x.x.x.x.x.x.x.x.x.x.    o @ % % i $.-.3.0.0.q.w.q.q.q.q.q.0.;...%   x.x.x.x.x.x.x.x.x.x.x.x.x.x.x.x.x.x.x.x.x.x.x.x.x.x.x.x.x.x.",
"x.x.x.x.x.x.x.x.x.x.x.x.x.x.x.x.x.x.x.x.x.x.x.x.x.x.x.x.x.x.x.x.    # # % & > 5 = 5 7 8 * @     x.x.x.x.x.x.x.x.x.x.x.x.x.x.x.x.x.x.x.x.x.x.x.x.x.x.x.x.x.x.x.x.",
"x.x.x.x.x.x.x.x.x.x.x.x.x.x.x.x.x.x.x.x.x.x.x.x.x.x.x.x.x.x.x.x.> i v a ` q.e.q.q.e   x.x.x.x.x.x.x.x.x.x.x.x.x.x.x.x.x.x.x.x.x.x.x.x.x.x.x.x.x.x.x.x.x.x.x.x.x.",
"x.x.x.x.x.x.x.x.x.x.x.x.x.x.x.x.x.x.x.x.x.x.x.x.x.x.x.x.x.x.  t ..N = 6 0.k.h.h.k.e.@ x.x.x.x.x.x.x.x.x.x.x.x.x.x.x.x.x.x.x.x.x.x.x.x.x.x.x.x.x.x.x.x.x.x.x.x.x.",
"x.x.x.x.x.x.x.x.x.x.x.x.x.x.x.x.x.x.x.x.x.x.x.x.x.x.x.x.x.  i  .t & 2 ..f.f.f.f.f.k.o.  x.x.x.x.x.x.x.x.x.x.x.x.x.x.x.x.x.x.x.x.x.x.x.x.x.x.x.x.x.x.x.x.x.x.x.x.",
"x.x.x.x.x.x.x.x.x.x.x.x.x.x.x.x.x.x.x.x.x.x.x.x.x.x.x.x.x.t } i * 5 i -.h.f.f.f.f.h.q.  x.x.x.x.x.x.x.x.x.x.x.x.x.x.x.x.x.x.x.x.x.x.x.x.x.x.x.x.x.x.x.x.x.x.x.x.",
"x.x.x.x.x.x.x.x.x.x.x.x.x.x.x.x.x.x.x.x.x.x.x.x.x.x.x.x.%  .` t % ` i e.h.f.f.f.f.g.f.5 x.x.x.x.x.x.x.x.x.x.x.x.x.x.x.x.x.x.x.x.x.x.x.x.x.x.x.x.x.x.x.x.x.x.x.x.",
"x.x.x.x.x.x.x.x.x.x.x.x.x.x.x.x.x.x.x.x.x.x.x.x.x.x.* % t [ ` 5 # i [ t.h.f.f.h.f.f.h...  x.x.x.x.x.x.x.x.x.x.x.x.x.x.x.x.x.x.x.x.x.x.x.x.x.x.x.x.x.x.x.x.x.x.x.",
"x.x.x.x.x.x.x.x.x.x.x.x.x.x.x.x.x.x.x.x.x.x.x.x.x.* ..= t ' ' * = i ..g.f.f.f.f.g.f.h.-.  # x.x.x.x.x.x.x.x.x.x.x.x.x.x.x.x.x.x.x.x.x.x.x.x.x.x.x.x.x.x.x.x.x.x.",
"x.x.x.x.x.x.x.x.x.x.x.x.x.x.x.x.x.x.x.x.x.x.x.x.% [ i % #.` t & * i o.g.f.f.f.f.g.u.h.;.O 7 & x.x.x.x.x.x.x.x.x.x.x.x.x.x.x.x.x.x.x.x.x.x.x.x.x.x.x.x.x.x.x.x.x.",
"x.x.x.x.x.x.x.x.x.x.x.x.x.x.x.x.x.x.x.x.o +   # ' ' =   0.g.q.7 = ` o.f.f.f.f.f.f.f.h.:.  -.0.  x.x.x.x.x.x.x.x.x.x.x.x.x.x.x.x.x.x.x.x.x.x.x.x.x.x.x.x.x.x.x.x.",
"x.x.x.x.x.x.x.x.x.x.x.x.x.x.x.x.x.x.x.X # % # = ` t   x.  ..o.% e ` ` t.h.f.f.f.f.f.h...7 k...x.x.x.x.x.x.x.x.x.x.x.x.x.x.x.x.x.x.x.x.x.x.x.x.x.x.x.x.x.x.x.x.x.",
"x.x.x.x.x.x.x.x.x.x.x.x.x.x.x.x.x.x.x.O @ @ @ @ 6 % x.x.x.x.x.% 6 t u #.f.h.h.g.h.h.3.& 5 ` x.x.x.x.x.x.x.x.x.x.x.x.x.x.x.x.x.x.x.x.x.x.x.x.x.x.x.x.x.x.x.x.x.x.",
"x.x.x.x.x.x.x.x.x.x.x.x.x.x.x.x.x.x.x.. @ @ @ # @ x.x.x.x.x.x.O * t ` e ..q.e.t.q.#.2 + x.x.x.x.x.x.x.x.x.x.x.x.x.x.x.x.x.x.x.x.x.x.x.x.x.x.x.x.x.x.x.x.x.x.x.x.",
"x.x.x.x.x.x.x.x.x.x.x.x.x.x.x.x.x.x.x.x.X O O o x.x.x.x.x.x.x.x.t [ ' t # > e e 5 % # O x.x.x.x.x.x.x.x.x.x.x.x.x.x.x.x.x.x.x.x.x.x.x.x.x.x.x.x.x.x.x.x.x.x.x.x.",
"x.x.x.x.x.x.x.x.x.x.x.x.x.x.x.x.x.x.x.x.x.x.x.x.x.x.x.x.x.x.x.o o. .i ' & & 5 & % # [ t x.x.x.x.x.x.x.x.x.x.x.x.x.x.x.x.x.x.x.x.x.x.x.x.x.x.x.x.x.x.x.x.x.x.x.x.",
"x.x.x.x.x.x.x.x.x.x.x.x.x.x.x.x.x.x.x.x.x.x.x.x.x.x.x.x.x.x.x.& o...i ' 7   O * 7 ' #.[   x.x.x.x.x.x.x.x.x.x.x.x.x.x.x.x.x.x.x.x.x.x.x.x.x.x.x.x.x.x.x.x.x.x.x.",
"x.x.x.x.x.x.x.x.x.x.x.x.x.x.x.x.x.x.x.x.x.x.x.x.x.x.x.x.x.x.x.= o...` ' u o # ` ] ` o...O x.x.x.x.x.x.x.x.x.x.x.x.x.x.x.x.x.x.x.x.x.x.x.x.x.x.x.x.x.x.x.x.x.x.x.",
"x.x.x.x.x.x.x.x.x.x.x.x.x.x.x.x.x.x.x.x.x.x.x.x.x.x.x.x.x.x.x.5 o...` ` i @ & ` ` ` o.o.# x.x.x.x.x.x.x.x.x.x.x.x.x.x.x.x.x.x.x.x.x.x.x.x.x.x.x.x.x.x.x.x.x.x.x.",
"x.x.x.x.x.x.x.x.x.x.x.x.x.x.x.x.x.x.x.x.x.x.x.x.x.x.x.x.x.x.x.5 #...v ` i # * ` ` ` ..o.% x.x.x.x.x.x.x.x.x.x.x.x.x.x.x.x.x.x.x.x.x.x.x.x.x.x.x.x.x.x.x.x.x.x.x.",
"x.x.x.x.x.x.x.x.x.x.x.x.x.x.x.x.x.x.x.x.x.x.x.x.x.x.x.x.x.x.x.8 o...v ' i % * N ` ` ..o.& x.x.x.x.x.x.x.x.x.x.x.x.x.x.x.x.x.x.x.x.x.x.x.x.x.x.x.x.x.x.x.x.x.x.x.",
"x.x.x.x.x.x.x.x.x.x.x.x.x.x.x.x.x.x.x.x.x.x.x.x.x.x.x.x.x.x.x.5 #. .` ' i # * ` ` ` o.o.& x.x.x.x.x.x.x.x.x.x.x.x.x.x.x.x.x.x.x.x.x.x.x.x.x.x.x.x.x.x.x.x.x.x.x.",
"x.x.x.x.x.x.x.x.x.x.x.x.x.x.x.x.x.x.x.x.x.x.x.x.x.x.x.x.x.x.x.6 o.i u t 7 6 & 7 ` i [ o.& x.x.x.x.x.x.x.x.x.x.x.x.x.x.x.x.x.x.x.x.x.x.x.x.x.x.x.x.x.x.x.x.x.x.x.",
"x.x.x.x.x.x.x.x.x.x.x.x.x.x.x.x.x.x.x.x.x.x.x.x.x.x.x.x.x.x.x.t q.-.#.$.0.t ..#.[ [ #.0.* x.x.x.x.x.x.x.x.x.x.x.x.x.x.x.x.x.x.x.x.x.x.x.x.x.x.x.x.x.x.x.x.x.x.x.",
"x.x.x.x.x.x.x.x.x.x.x.x.x.x.x.x.x.x.x.x.x.x.x.x.x.x.x.x.x.x.x.x...q.q.q...  5 q.e.q.e.#.x.x.x.x.x.x.x.x.x.x.x.x.x.x.x.x.x.x.x.x.x.x.x.x.x.x.x.x.x.x.x.x.x.x.x.x.",
"x.x.x.x.x.x.x.x.x.x.x.x.x.x.x.x.x.x.x.x.x.x.x.x.x.x.x.x.x.x.x.x.x.  #   x.x.x.  6 t * x.x.x.x.x.x.x.x.x.x.x.x.x.x.x.x.x.x.x.x.x.x.x.x.x.x.x.x.x.x.x.x.x.x.x.x.x.",
"x.x.x.x.x.x.x.x.x.x.x.x.x.x.x.x.x.x.x.x.x.x.x.x.x.x.x.x.x.x.x.x.x.x.x.x.x.x.x.x.x.x.x.x.x.x.x.x.x.x.x.x.x.x.x.x.x.x.x.x.x.x.x.x.x.x.x.x.x.x.x.x.x.x.x.x.x.x.x.x.",
"x.x.x.x.x.x.x.x.x.x.x.x.x.x.x.x.x.x.x.x.x.x.x.x.x.x.x.x.x.x.x.x.x.x.x.x.x.x.x.x.x.x.x.x.x.x.x.x.x.x.x.x.x.x.x.x.x.x.x.x.x.x.x.x.x.x.x.x.x.x.x.x.x.x.x.x.x.x.x.x."
};
