/* XPM */
static char *_887_c71dcfa8ea5e514815e1ffc07beee55b73d97cb10b21dd4db83aa3cf3ffa5c0e[] = {
/* columns rows colors chars-per-pixel */
"80 79 102 2 ",
"   c #AB0048",
".  c #B8004E",
"X  c #B40054",
"o  c #BB0054",
"O  c #B31254",
"+  c #BB1957",
"@  c #BE1B59",
"#  c #BA265A",
"$  c #AE3455",
"%  c #B43155",
"&  c #B43259",
"*  c #BF305A",
"=  c #BE3A5D",
"-  c #C5005B",
";  c #C4135D",
":  c #C21F5D",
">  c #C4245E",
",  c #C12F5F",
"<  c #C73162",
"1  c #CD3564",
"2  c #C23B60",
"3  c #CC3C66",
"4  c #CF3F69",
"5  c #D13F6A",
"6  c #B4435C",
"7  c #BE415E",
"8  c #B74F5E",
"9  c #B5525D",
"0  c #BC4661",
"q  c #BD4A62",
"w  c #BC5464",
"e  c #B55B62",
"r  c #B95A66",
"t  c #BB5B69",
"y  c #B66165",
"u  c #B66967",
"i  c #B76669",
"p  c #BA656B",
"a  c #B66B69",
"s  c #BB6B6E",
"d  c #BA706F",
"f  c #BB6F70",
"g  c #BB7471",
"h  c #BB7C75",
"j  c #BE7F78",
"k  c #C14564",
"l  c #CC4467",
"z  c #C24B64",
"x  c #CF4068",
"c  c #D2406A",
"v  c #C25367",
"b  c #C05B66",
"n  c #C45B6B",
"m  c #CE5B6D",
"M  c #C3636D",
"N  c #CA676C",
"B  c #CC686F",
"V  c #C4736F",
"C  c #C8756F",
"Z  c #C66670",
"A  c #C86470",
"S  c #C56C72",
"D  c #C86D74",
"F  c #D46F73",
"G  c #DB6F7C",
"H  c #C57475",
"J  c #C87476",
"K  c #C17B76",
"L  c #C77778",
"P  c #CC777A",
"I  c #C57C79",
"U  c #C97C7B",
"Y  c #D37E7E",
"T  c #BB8177",
"R  c #BB8479",
"E  c #BD897C",
"W  c #C2847B",
"Q  c #CB837E",
"!  c #C18A7E",
"~  c #C8897E",
"^  c #D1827E",
"/  c #BF8D80",
"(  c #BF9182",
")  c #CD8681",
"_  c #C28D81",
"`  c #CE8981",
"'  c #D28482",
"]  c #D98786",
"[  c #D28B85",
"{  c #D98886",
"}  c #D68E88",
"|  c #D88F89",
" . c #C49184",
".. c #CA9286",
"X. c #CD9588",
"o. c #CC998A",
"O. c #D19287",
"+. c #D5948B",
"@. c #D9948B",
"#. c #D3998C",
"$. c #D9988E",
"%. c None",
/* pixels */
"%.%.%.%.%.%.%.%.%.%.%.%.%.%.%.%.%.%.%.%.%.%.%.%.%.%.%.%.%.%.%.%.%.%.%.%.%.%.%.%.%.%.%.%.%.%.%.%.%.%.e i 0 r f d s i & %.%.%.%.%.%.%.%.%.%.%.%.%.%.%.%.%.%.%.%.%.",
"%.%.%.%.%.%.%.%.%.%.%.%.%.%.%.%.%.%.%.%.%.%.%.%.%.%.%.%.%.%.%.%.%.%.%.%.%.%.%.%.%.%.%.%.%.%.M P ) Y ) o.L h  ./ _ ..P [ ) J n %.%.%.%.%.%.%.%.%.%.%.%.%.%.%.%.%.",
"%.%.%.%.%.%.%.%.%.%.%.%.%.%.%.%.%.%.%.%.%.%.%.%.%.%.%.%.%.%.%.%.%.%.%.%.%.%.%.%.%.%.%.q P } +..._ _ j g g d T R R R j / / ..+.} A z %.%.%.%.%.%.%.%.%.%.%.%.%.%.",
"%.%.%.%.%.%.%.%.%.%.%.%.%.%.%.%.%.%.%.%.%.%.%.%.%.%.%.%.%.%.%.%.%.%.%.%.%.%.%.%.%.0 U | ../ R R R R R R d d R R R R g j R R R _ U +.J # %.%.%.%.%.%.%.%.%.%.%.%.",
"%.%.%.%.%.%.%.%.%.%.%.%.%.%.%.%.%.%.%.%.%.%.%.%.%.%.%.%.%.%.%.%.%.%.%.%.%.%.%.%.A +. ./ / h h R R j T E h d j R T R d T R T R R j _ U } D %.%.%.%.%.%.%.%.%.%.%.",
"%.%.%.%.%.%.%.%.%.%.%.%.%.%.%.%.%.%.%.%.%.%.%.%.%.%.%.%.%.%.%.%.%.%.%.%.%.%.q ' _ g g j h R / R T T T T d d h R T R d h R j j j h R g _ #.P %.%.%.%.%.%.%.%.%.%.",
"%.%.%.%.%.%.%.%.%.%.%.%.%.%.%.%.%.%.%.%.%.%.%.%.%.%.%.%.%.%.%.%.%.%.%.%.%.Z $. ./ R h g d d d h T R R E h g g R T R g j R j T g j R g W R W | n %.%.%.%.%.%.%.%.",
"%.%.%.%.%.%.%.%.%.%.%.%.%.%.%.%.%.%.%.%.%.%.%.%.%.%.%.%.%.%.%.%.%.%.%.%.n } W R R R E R / R h h g f g h g h g R R R d R j E T g T h h R R K _ ] k %.%.%.%.%.%.%.",
"%.%.%.%.%.%.%.%.%.%.%.%.%.%.%.%.%.%.%.%.%.%.%.%.%.%.%.%.%.%.%.%.%.%.%.U o.j h f g g g g h h R R / R h h a h h R R T d R T T T g R h h E h i h R @.n %.%.%.%.%.%.",
"%.%.%.%.%.%.%.%.%.%.%.%.%.%.%.%.%.%.%.%.%.%.%.%.%.%.%.%.%.%.%.%.%.%.m O.R / / R R R j j h h g d a h h h s R d h R T d T R R h g E g h R h d E R _ $.q %.%.%.%.%.",
"%.%.%.%.%.%.%.%.%.%.%.%.%.%.%.%.%.%.%.%.%.%.%.%.%.%.%.%.%.%.%.%.%.n } j g f d g g g h h h h h h h h h h f / g h R T d R R R g h R g T R d j R R W _ | %.%.%.%.%.",
"%.%.%.%.%.%.%.%.%.%.%.%.%.%.%.%.%.%.%.%.%.%.%.%.%.%.%.%.%.%.%.%.%.} _ R R R R h j h g g g d h g d h g s i / h h R T g R R R d R h g R R d R R R R R  .U %.%.%.%.",
"%.%.%.%.%.%.%.%.%.%.%.%.%.%.%.%.%.%.%.%.%.%.%.%.%.%.%.%.%.%.%.%.P ..j R j j T R R R R R R R R R / R R R a / h h R h g R R h d E h h R h g T T T R R _ +.n %.%.%.",
"%.%.%.%.%.%.%.%.%.%.%.%.%.%.%.%.%.%.%.%.%.%.%.%.%.%.%.%.%.%.%.v #./ / R R R R R T R R j h R T T h h R h a / h a E h h R R h h R g T R h h E T h g f f K Y %.%.%.",
"%.%.%.%.%.%.%.%.%.%.%.%.%.%.%.%.%.%.%.%.%.%.%.%.%.%.%.%.%.%.%.D I H h h j j T h T R R R / R R R R R / h a / h h E g g R R d R T g R R g h g g g h j R W #.S %.%.",
"%.%.%.%.%.%.%.%.%.%.%.%.%.%.%.%.%.%.%.%.%.%.%.%.%.%.%.%.%.%.%.+.p g f p r d d d d a g s a g h g g h a a h E h a E g h E h g R h h R T p g j R R R R R R _ ' %.%.",
"%.%.%.%.%.%.%.%.%.%.%.%.%.%.%.%.%.%.%.%.%.%.%.%.%.%.%.%.%.%.J X.f E R R i R R R T h T T g a T h R a h d h R h g / a h / a h R g h R h h T T R h T T R R / } t %.",
"%.%.%.%.%.%.%.%.%.%.%.%.%.%.%.%.%.%.%.%.%.%.%.%.%.%.%.%.%.%.) ! s R R R f T R T R R R R T g R R R g h h h R h g / g R R h R h g R T h h T T T T R R R R W _ J %.",
"%.%.%.%.%.%.%.%.%.%.%.%.%.%.%.%.%.%.%.%.%.%.%.%.%.%.%.%.%.q +.W f R R R i h R T T T T R h f R T R h h h h / h g T h R h g R h h R R d R R R R R R h h R E / ) %.",
"%.%.%.%.%.%.%.%.%.%.%.%.%.%.%.%.%.%.%.%.%.%.%.%.%.%.%.%.%.S #.h s R R E i h R T T T R R T f R T R d h h h / h g h a / a h / g h R h j R h d g d g g d d g j } %.",
"%.%.%.%.%.%.%.%.%.%.%.%.%.%.%.%.%.%.%.%.%.%.%.%.%.%.%.%.%.L ..j i R R R f h R T T R T R T f R R R g s h / h h g h a / a / h h R R a d d g h h R T T R h T h ) 6 ",
"%.%.%.%.%.%.%.%.%.%.%.%.%.%.%.%.%.%.%.%.%.%.%.%.%.%.%.%.%.U _ K f R R R g f R T T T T T R f R R R h 9 h R R h g h / a h R a h R h a R R R R R R T R T R T /  .i ",
"%.%.%.%.%.%.%.%.%.%.%.%.%.%.%.%.%.%.%.%.%.%.%.%.%.%.%.%.%.) _ R i R R R h i R T T T T T R a R R / g e / h h h h h h a / R a / R g T R T T T R R R T R T T T / a ",
"%.%.%.%.%.%.%.%.%.%.%.%.%.%.%.%.%.%.%.%.%.%.%.%.%.%.%.%.%.[ _ R i R R R T i R R T T T R R f T R R a a / R / h a h h h / h h R h g R R R R R R R T R R R R R R g ",
"%.%.%.%.%.%.%.%.%.%.%.%.%.%.%.%.%.%.%.%.%.%.%.%.%.%.%.%.%.[ ! R s R R R R i h R T T T T R f h R g g h R T / h g h h h h a h h h T E R h g d g i d d d g h h E g ",
"%.%.%.%.%.%.%.%.%.%.%.%.%.%.%.%.%.%.%.%.%.%.%.%.%.%.%.%.%.` ! R i h R R R f f R T T T T R g h h h g T R T T h f a h / h / / / a h d y d h j R h h E h h h g h t ",
"%.%.%.%.%.%.%.%.%.%.%.%.%.%.%.%.%.%.%.%.%.%.%.%.%.%.%.%.%.) ! ! f f E R R R i R R R T T R T i h R g R T T T g i h h h a T T a e h h h h R R T R h d E R T T E f ",
"%.%.%.%.%.%.%.%.%.%.%.%.%.%.%.%.%.%.%.%.%.%.%.%.%.%.%.%.%.U _ R R p R R R R f f R T R T R R i R g h R T T / i 6 / / a / / / y g E R R d j R T T R g g R T E _ s ",
"%.%.%.%.%.%.%.%.%.%.%.%.%.%.%.%.%.%.%.%.%.%.%.%.%.%.%.%.%.L o.R R i R R R R h t R R R R / a R R g R T T T / 6 a / T g R T g T g T T T R g h R T T R h g j R X.r ",
"%.%.%.%.%.%.%.%.%.%.%.%.%.%.%.%.%.%.%.%.%.%.%.%.%.%.%.%.%.v ' R E h f E R R E f i / T R a g / h h R T T R T a / / a T R h a / g h R T R T d h R R T R T g g ' $ ",
"%.%.%.%.%.%.%.%.%.%.%.%.%.%.%.%.%.%.%.%.%.%.%.%.%.%.%.%.%.%.} K f h t g R R R / a R / a T R R g T R T T R g T / a h T R a h T T h R R T T R g g T R R E / / ' %.",
"%.%.%.%.%.%.%.%.%.%.%.%.%.%.%.%.%.%.%.%.%.%.%.%.%.%.%.%.%.%.Q _ R h f i f i i f f e a g / R h g R T T R h g R T a / / h a / h / d g R T R R R h d d h h W _ L %.",
"%.%.%.%.%.%.%.%.%.%.%.%.%.%.%.%.%.%.%.%.%.%.%.%.%.%.%.%.%.%.D X.E R E R R h h f h w h R T R g h R T R T d R R d R R / a h R R h g a R R j R T R R h h g h ' k %.",
"%.%.%.%.%.%.%.%.%.%.%.%.%.%.%.%.%.%.%.%.%.%.%.%.%.%.%.%.%.%.%.+./ R j j R R E E h T T h R T h R T T T g R R h h R R d h / h d g E h g E R j T T T R R E _ ` %.%.",
"%.%.%.%.%.%.%.%.%.%.%.%.%.%.%.%.%.%.%.%.%.%.%.%.%.%.%.%.%.%.%.U ( j R R R R h f T R T T R d h R T T g h E h g R R h d h g g R / T R j g R R h R T T R E +.S %.%.",
"%.%.%.%.%.%.%.%.%.%.%.%.%.%.%.%.%.%.%.%.%.%.%.%.%.%.%.%.%.%.%.q #./ E R R h f R R T T R h h R T R h h E h g R R T e h h h R h h R R h a d R R T R T T / } %.%.%.",
"%.%.%.%.%.%.%.%.%.%.%.%.%.%.%.%.%.%.%.%.%.%.%.%.%.%.%.%.%.%.%.%.A ! E j f h R R T R T T d R T E g h R T g R R R a g R R / R R R h d h R j g g T E E W +.Z %.%.%.",
"%.%.%.%.%.%.%.%.%.%.%.%.%.%.%.%.%.%.%.%.%.%.%.%.%.%.%.%.%.%.%.%.%.{ M f R R T T T T R h h R R g g R T g T R / a h / R R h h h g g R R R T R h g f f _ U %.%.%.%.",
"%.%.%.%.%.%.%.%.%.%.%.%.%.%.%.%.%.%.%.%.%.%.%.%.%.%.%.%.%.%.%.%.%.A #./ R R R T R E h h R R g h R T g T R R a g R h h g g h h T R R T R R R R j g R { o %.%.%.%.",
"%.%.%.%.%.%.%.%.%.%.%.%.%.%.%.%.%.%.%.%.%.%.%.%.%.%.%.%.%.%.%.%.%.%.L  .R R R R R r i R T h j R T g h R E h i g a h h h R R R R R T T h h g g W _ $.D %.%.%.%.%.",
"%.%.%.%.%.%.%.%.%.%.%.%.%.%.%.%.%.%.%.%.%.%.%.%.%.%.%.%.%.%.%.%.%.%.%.) +./ j g t w / h g T E j d h R / s a R j R h g g h h a g g f g h h T ! R [ D %.%.%.%.%.%.",
"%.%.%.%.%.%.%.%.%.%.%.%.%.%.%.%.%.c c c c c c c c 5 %.%.%.%.%.%.%.%.%.%.W _ g g h / h f T E h d R / h s g h h R R h h h h h h R j R T j h h g [ n %.%.%.%.%.%.%.",
"%.%.%.%.%.%.%.%.%.%.%.%.%.c 5 5 %.%.%.%.%.%.%.%.%.%.%.%.5 5 c 5 5 5 5 ; - G X.W j f h R T g g R R h a s h g g f h h h h h g g g g g g h K W $.D %.%.%.%.%.%.%.%.",
"%.%.%.%.%.%.%.%.%.%.%.%.c %.%.%.%.%.%.%.%.%.%.%.%.%.%.%.%.%.%.%.%.%.%.%.%.%.q ] / / / j g j E T h h R / j j j h h h h h h h h h R R W E  .@.Z %.%.%.%.%.%.%.%.%.",
"%.%.%.%.%.%.%.%.%.%.%.%.5 %.%.%.%.%.%.%.%.%.%.%.%.%.%.%.%.%.%.%.%.%.%.%.%.%.%.q ) X.I j R / j f i h h R / j R R R R R R R R R R R W _ +.U %.%.%.%.%.%.%.%.%.%.%.",
"%.%.%.%.%.%.%.%.%.%.%.%.c 4 %.%.%.%.%.%.%.%.%.%.%.%.%.%.%.%.%.%.%.%.%.%.%.%.%.%.%.z ) #._ j j R R h g g g h h R R R R R / R / / _ +.' n %.%.%.%.%.%.%.%.%.%.%.%.",
"%.%.%.%.%.%.%.%.%.%.%.%.%.c c %.%.%.%.%.%.%.%.%.%.%.%.%.%.%.%.%.%.%.%.%.%.%.%.%.%.%.%.n D | X._ / / / j h h g f g g f h I W / U J M %.%.%.%.%.%.%.%.%.%.%.%.%.%.",
"%.%.%.%.%.%.%.%.%.%.%.%.%.%.5 c %.%.%.%.%.%.%.%.%.%.%.%.%.%.%.%.%.%.%.%.%.%.%.%.%.%.%.%.%.w J U [ +.+. ......._  .O.O.} } U p X %.%.%.%.%.%.%.%.%.%.%.%.%.%.%.%.",
"%.%.%.%.%.%.%.%.%.%.%.%.%.%.%.%.c c %.%.%.%.%.%.%.%.%.%.%.%.%.%.%.%.%.%.%.%.%.%.%.%.%.%.%.%.%.%.%.t D J L Q U U U I H M %.%.%.%.%.%.%.%.%.%.%.%.%.%.%.%.%.%.%.%.",
"%.%.%.%.%.%.%.%.%.%.%.%.%.%.%.%.%.5 c %.%.%.%.%.%.%.%.%.%.%.%.%.%.%.%.%.%.%.%.%.%.%.%.%.%.%.%.%.%.%.%.%.%.%.%.%.%.%.%.%.%.%.%.%.%.%.%.%.%.%.%.%.%.%.%.%.%.%.%.%.",
"%.%.%.%.%.%.%.%.%.%.%.%.%.%.%.%.%.%.%.c c %.%.%.%.%.%.%.%.%.%.%.%.%.%.%.%.%.%.%.%.%.%.%.%.%.%.%.%.%.%.%.%.%.%.%.%.%.%.%.%.%.%.%.%.%.%.%.%.%.%.%.%.%.%.%.%.%.%.%.",
"%.%.%.%.%.%.%.%.%.%.%.%.%.%.%.%.%.%.%.%.%.c c %.%.%.%.%.%.%.%.%.%.%.%.%.%.%.%.%.%.%.%.%.%.%.%.%.%.%.%.%.%.%.%.%.%.%.%.%.%.%.%.%.%.%.%.%.%.%.%.%.%.%.%.%.%.%.%.%.",
"%.%.%.%.%.%.%.%.%.%.%.%.%.%.%.%.%.%.%.%.%.%.c c %.%.%.%.%.%.%.%.%.%.%.%.%.%.%.%.%.%.%.%.%.%.%.%.%.%.%.%.%.%.%.%.%.%.%.%.%.%.%.%.%.%.%.%.%.%.%.%.%.%.%.%.%.%.%.%.",
"%.%.%.%.%.%.%.%.%.%.%.%.%.%.%.%.%.%.%.%.%.%.%.%.c c %.%.%.%.%.%.%.%.%.%.%.%.%.%.%.%.%.%.%.%.%.%.%.%.%.%.%.%.%.%.%.%.%.%.%.%.%.%.%.%.%.%.%.%.%.%.%.%.%.%.%.%.%.%.",
"%.%.%.%.%.%.%.%.%.%.%.%.%.%.%.%.%.%.%.%.%.%.%.%.%.%.c 5 %.%.%.%.%.%.%.%.%.%.%.%.%.%.%.%.%.%.%.%.%.%.%.%.%.%.%.%.%.%.%.%.%.%.%.%.%.%.%.%.%.%.%.%.%.%.%.%.%.%.%.%.",
"%.%.%.%.%.%.%.%.%.%.%.%.%.%.%.%.%.%.%.%.%.%.%.%.%.%.%.5 c %.%.%.%.%.%.%.%.%.%.%.%.%.%.%.%.%.%.%.%.%.%.%.%.%.%.%.%.%.%.%.%.%.%.%.%.%.%.%.%.%.%.%.%.%.%.%.%.%.%.%.",
"%.%.%.%.%.%.%.%.%.%.%.%.%.%.%.%.%.%.%.%.%.%.%.%.%.%.%.%.%.c c %.%.%.%.%.%.%.%.%.%.%.%.%.%.%.%.%.%.%.%.%.%.%.%.%.%.%.%.%.%.%.%.%.%.%.%.%.%.%.%.%.%.%.%.%.%.%.%.%.",
"%.%.%.%.%.%.%.%.%.%.%.%.%.%.%.%.%.%.%.%.%.%.%.%.%.%.%.%.%.%.%.c %.%.%.%.%.%.%.%.%.%.%.%.%.%.%.%.%.%.%.%.%.%.%.%.%.%.%.%.%.%.%.%.%.%.%.%.%.%.%.%.%.%.%.%.%.%.%.%.",
"%.%.%.%.%.%.%.%.%.%.%.%.%.%.%.%.%.%.%.%.%.%.%.%.%.%.%.%.%.%.%.%.c c %.%.%.%.%.%.%.%.%.%.%.%.%.%.%.%.%.%.%.%.%.%.%.%.%.%.%.%.%.%.%.%.%.%.%.%.%.%.%.%.%.%.%.%.%.%.",
"%.%.%.%.%.%.%.%.%.%.%.%.%.%.%.%.%.%.%.%.%.%.%.%.%.%.%.%.%.%.%.%.%.c c %.%.%.%.%.%.%.%.%.%.%.%.%.%.%.%.%.%.%.%.%.%.%.%.%.%.%.%.%.%.%.%.%.%.%.%.%.%.%.%.%.%.%.%.%.",
"%.%.%.%.%.%.%.%.%.%.%.%.%.%.%.%.%.%.%.%.%.%.%.%.%.%.%.%.%.%.%.%.%.%.x c %.%.%.%.%.%.%.%.%.%.%.%.%.%.%.%.%.%.%.%.%.%.%.%.%.%.%.%.%.%.%.%.%.%.%.%.%.%.%.%.%.%.%.%.",
"%.%.%.%.%.%.%.%.%.%.%.%.%.%.%.%.%.%.%.%.%.%.%.%.%.%.%.%.%.%.%.%.%.%.%.c %.%.%.%.%.%.%.%.%.%.%.%.%.%.%.%.%.%.%.%.%.%.%.%.%.%.%.%.%.%.%.%.%.%.%.%.%.%.%.%.%.%.%.%.",
"%.%.%.%.%.%.%.%.%.%.%.%.%.%.%.%.%.%.%.%.%.%.%.%.%.%.%.%.%.%.%.%.%.%.%.%.c %.%.%.%.%.%.%.%.%.%.%.%.%.%.%.%.%.%.%.%.%.%.%.%.%.%.%.%.%.%.%.%.%.%.%.%.%.%.%.%.%.%.%.",
"%.%.%.%.%.%.%.%.%.%.%.%.%.%.%.%.%.%.%.%.%.%.%.%.%.%.%.%.%.%.%.%.%.%.%.c %.%.%.%.%.%.%.%.%.%.%.%.%.%.%.%.%.%.%.%.%.%.%.%.%.%.%.%.%.%.%.%.%.%.%.%.%.%.%.%.%.%.%.%.",
"%.%.%.%.%.%.%.%.%.%.: ; @ %.%.%.%.%.%.- - > %.%.%.%.%.%.%.%.c c c c c %.%.%.%.%.%.%.%.%.%.%.%.%.%.%.%.%.%.%.%.%.%.%.%.%.%.%.%.%.%.%.%.%.%.%.%.%.%.%.%.%.%.%.%.%.",
"%.%.%.%.%.%.%.< > z 1 c 1 o > # O - > m m m F ; %.%.%.%.%.%.%.%.%.%.%.%.%.%.%.%.%.%.%.%.%.%.%.%.%.%.%.%.%.%.%.%.%.%.%.%.%.%.%.%.%.%.%.%.%.%.%.%.%.%.%.%.%.%.%.%.",
"%.%.%.%.5 5 3 %.N ~ a  .E u   %.. r E E ( R C 9 %.%.%.%.%.%.%.%.%.%.%.%.%.%.%.%.%.%.%.%.%.%.%.%.%.%.%.%.%.%.%.%.%.%.%.%.%.%.%.%.%.%.%.%.%.%.%.%.%.%.%.%.%.%.%.%.",
"%.%.c c %.%.%.%.I ! u E E ..K % a ! ! E W ! C w %.%.%.%.%.%.%.%.%.%.%.%.%.%.%.%.%.%.%.%.%.%.%.%.%.%.%.%.%.%.%.%.%.%.%.%.%.%.%.%.%.%.%.%.%.%.%.%.%.%.%.%.%.%.%.%.",
"%.c %.%.%.%.%.%.Q  .e T E j E ! ! E R R E ! L b %.%.%.%.%.%.%.%.%.%.%.%.%.%.%.%.%.%.%.%.%.%.%.%.%.%.%.%.%.%.%.%.%.%.%.%.%.%.%.%.%.%.%.%.%.%.%.%.%.%.%.%.%.%.%.%.",
"3 %.%.%.%.%.%.%.U  .d y E E E R T R T E R E J z %.%.%.%.%.%.%.%.%.%.%.%.%.%.%.%.%.%.%.%.%.%.%.%.%.%.%.%.%.%.%.%.%.%.%.%.%.%.%.%.%.%.%.%.%.%.%.%.%.%.%.%.%.%.%.%.",
"3 %.%.%.%.%.%.%.S  .E y e R E R T T T T W E D 7 %.%.%.%.%.%.%.%.%.%.%.%.%.%.%.%.%.%.%.%.%.%.%.%.%.%.%.%.%.%.%.%.%.%.%.%.%.%.%.%.%.%.%.%.%.%.%.%.%.%.%.%.%.%.%.%.",
"3 %.%.%.%.%.%.%.z O.E E a 9 u h R E E E _ g N %.%.%.%.%.%.%.%.%.%.%.%.%.%.%.%.%.%.%.%.%.%.%.%.%.%.%.%.%.%.%.%.%.%.%.%.%.%.%.%.%.%.%.%.%.%.%.%.%.%.%.%.%.%.%.%.%.",
"%.c %.%.%.%.%.%.%.U  .W E T a e 9 y a a p V M %.%.%.%.%.%.%.%.%.%.%.%.%.%.%.%.%.%.%.%.%.%.%.%.%.%.%.%.%.%.%.%.%.%.%.%.%.%.%.%.%.%.%.%.%.%.%.%.%.%.%.%.%.%.%.%.%.",
"%.%.c %.%.%.%.%.%.= O.! W R E E T h h d W ^ %.%.%.%.%.%.%.%.%.%.%.%.%.%.%.%.%.%.%.%.%.%.%.%.%.%.%.%.%.%.%.%.%.%.%.%.%.%.%.%.%.%.%.%.%.%.%.%.%.%.%.%.%.%.%.%.%.%.",
"%.%.%.c c %.%.%.%.%.b X.E R R R E E !  .| @ %.%.%.%.%.%.%.%.%.%.%.%.%.%.%.%.%.%.%.%.%.%.%.%.%.%.%.%.%.%.%.%.%.%.%.%.%.%.%.%.%.%.%.%.%.%.%.%.%.%.%.%.%.%.%.%.%.%.",
"%.%.%.%.c c %.%.%.%.%.b +.! R E R W ! [ , %.%.%.%.%.%.%.%.%.%.%.%.%.%.%.%.%.%.%.%.%.%.%.%.%.%.%.%.%.%.%.%.%.%.%.%.%.%.%.%.%.%.%.%.%.%.%.%.%.%.%.%.%.%.%.%.%.%.%.",
"%.%.%.%.%.%.c c 3 %.%.%.w R ( E ! X.^ : %.%.%.%.%.%.%.%.%.%.%.%.%.%.%.%.%.%.%.%.%.%.%.%.%.%.%.%.%.%.%.%.%.%.%.%.%.%.%.%.%.%.%.%.%.%.%.%.%.%.%.%.%.%.%.%.%.%.%.%.",
"%.%.%.%.%.%.%.%.%.3 1 , %.+ B ! ~ b %.%.%.%.%.%.%.%.%.%.%.%.%.%.%.%.%.%.%.%.%.%.%.%.%.%.%.%.%.%.%.%.%.%.%.%.%.%.%.%.%.%.%.%.%.%.%.%.%.%.%.%.%.%.%.%.%.%.%.%.%.%.",
"%.%.%.%.%.%.%.%.%.%.%.%.%.X o 2 %.%.%.%.%.%.%.%.%.%.%.%.%.%.%.%.%.%.%.%.%.%.%.%.%.%.%.%.%.%.%.%.%.%.%.%.%.%.%.%.%.%.%.%.%.%.%.%.%.%.%.%.%.%.%.%.%.%.%.%.%.%.%.%."
};
