/* XPM */
static char *_4456_2512434df928d5880b16da7c999b43012f63eaf7bec91e16eba2748ce68d9816[] = {
/* columns rows colors chars-per-pixel */
"80 70 141 2 ",
"   c #000000",
".  c #0C0C0C",
"X  c #131313",
"o  c #1C1C1C",
"O  c #232323",
"+  c #2B2B2B",
"@  c #333333",
"#  c #3C3C3C",
"$  c #365B6B",
"%  c #434343",
"&  c #4B4B4B",
"*  c #535353",
"=  c #5B5B5B",
"-  c #545A5D",
";  c #695D54",
":  c #67605D",
">  c #6C635D",
",  c #72665C",
"<  c #4B5D66",
"1  c #5E5F61",
"2  c #5D7179",
"3  c #646464",
"4  c #6D6966",
"5  c #616669",
"6  c #636A6B",
"7  c #6B6B6B",
"8  c #756D67",
"9  c #756E6B",
"0  c #796F68",
"q  c #7D746D",
"w  c #607077",
"e  c #6D7072",
"r  c #627279",
"t  c #747474",
"y  c #727678",
"u  c #7B7B7B",
"i  c #797877",
"p  c #837B76",
"a  c #837E7B",
"s  c #C85151",
"d  c #E45858",
"f  c #C77272",
"g  c #F67878",
"h  c #F07474",
"j  c #83807E",
"k  c #006896",
"l  c #006C99",
"z  c #007493",
"x  c #047A98",
"c  c #007DA6",
"v  c #667C88",
"b  c #6D7C83",
"n  c #0087B2",
"m  c #0C8EB0",
"M  c #0E96BA",
"N  c #54889C",
"B  c #65828F",
"V  c #7F8182",
"C  c #628C9D",
"Z  c #4A88A0",
"A  c #5F8DA2",
"S  c #5292AB",
"D  c #499BB9",
"F  c #6A99AE",
"G  c #7899A7",
"H  c #61A0BA",
"J  c #7BA6B9",
"K  c #01A8D1",
"L  c #00AADB",
"P  c #15A9D2",
"I  c #16B3DE",
"U  c #31A7CB",
"Y  c #38A7CC",
"T  c #22AAD3",
"R  c #33B6DF",
"E  c #3EB4DC",
"W  c #00B7E6",
"Q  c #00B9E7",
"!  c #00BEF2",
"~  c #28B8E2",
"^  c #49A8C9",
"/  c #53A9CA",
"(  c #61AAC7",
")  c #01C6F8",
"_  c #00C9FB",
"`  c #25C6F6",
"'  c #4DC8F2",
"]  c #5ACBF4",
"[  c #67C9ED",
"{  c #838383",
"}  c #888786",
"|  c #8B8B8B",
" . c #978181",
".. c #918A86",
"X. c #939393",
"o. c #9B9C9C",
"O. c #B88585",
"+. c #A09E9C",
"@. c #BE9898",
"#. c #89A4AF",
"$. c #96A6AD",
"%. c #9AB2BC",
"&. c #A3A3A3",
"*. c #A6A8A9",
"=. c #ABABAB",
"-. c #BEA8A8",
";. c #B4B4B4",
":. c #B9B0B0",
">. c #BCBCBC",
",. c #D68D8D",
"<. c #FF9393",
"1. c #C9A1A1",
"2. c #C5BEBA",
"3. c #FFB0B0",
"4. c #93B2C1",
"5. c #BDC4C6",
"6. c #BFCED5",
"7. c #B6C9D2",
"8. c #91C9E1",
"9. c #A4D5EA",
"0. c #BAD7E6",
"q. c #B0E1F7",
"w. c #C4C5C5",
"e. c #CCCCCC",
"r. c #D4CFCB",
"t. c #D3D1CF",
"y. c #CCD1D1",
"u. c #D3D3D3",
"i. c #DBDBDB",
"p. c #FFC3C3",
"a. c #C0D9E5",
"s. c #DCE1E1",
"d. c #E5E5E5",
"f. c #E8E7E7",
"g. c #EBE8E6",
"h. c #EAEAEA",
"j. c #E7F9FF",
"k. c #ECFBFF",
"l. c #E4F4FB",
"z. c #FDFFFF",
"x. c None",
/* pixels */
"x.x.x.x.x.x.x.x.x.x.x.x.x.x.x.x.x.x.x.x.x.x.x.x.x.x.x.x.x.x.x.x.x.x.x.x.x.x.x.x.x.x.x.x.x.x.x.x.x.x.x.x.x.x.x.x.x.x.x.x.x.x.x.x.x.x.x.x.x.x.x.x.x.x.x.x.x.x.x.x.",
"x.x.x.x.x.x.x.x.x.x.x.x.x.x.x.x.x.x.x.x.x.x.x.x.x.x.x.x.x.x.x.x.x.x.x.x.x.x.x.x.x.x.x.x.x.x.x.x.x.x.x.x.x.x.x.x.x.x.x.x.x.x.x.x.x.x.x.x.x.x.x.x.x.x.x.x.x.x.x.x.",
"x.x.x.x.x.x.x.x.x.x.x.x.x.x.x.x.x.x.x.x.x.x.x.x.x.x.x.x.x.x.x.x.x.x.x.x.x.x.x.x.x.x.x.x.x.x.x.x.x.x.x.x.x.x.x.x.x.x.x.x.x.x.x.x.x.x.x.x.x.x.x.x.x.x.x.x.x.x.x.x.",
"x.x.x.x.x.x.x.x.x.x.x.x.x.x.x.x.x.x.x.x.x.x.x.x.x.x.x.x.x.x.x.x.x.x.x.x.x.x.x.x.x.x.x.x.x.x.x.x.x.x.x.x.x.x.x.x.x.x.x.x.x.x.x.x.x.x.x.x.x.x.x.x.x.x.x.x.x.x.x.x.",
"x.x.x.x.x.x.x.x.x.x.x.x.x.x.x.x.x.x.x.x.x.x.x.x.x.x.x.x.x.x.x.x.x.x.x.x.x.x.x.x.x.x.x.x.x.x.x.x.x.x.x.x.x.  . O @ +   x.x.x.x.x.x.x.x.x.x.x.x.x.x.x.x.x.x.x.x.x.",
"x.x.x.x.x.x.x.x.x.x.x.x.x.x.x.x.x.x.x.x.x.x.x.x.x.x.x.x.x.x.x.x.x.x.x.x.x.x.x.x.x.x.x.x.x.x.x.x.x.x.x.  X % & % % % O x.x.x.x.x.x.x.x.x.x.x.x.x.x.x.x.x.x.x.x.x.",
"x.x.x.x.x.x.x.x.x.x.x.x.x.x.x.x.x.x.x.x.x.x.x.x.x.x.x.x.x.x.x.x.x.x.x.x.x.x.x.x.x.x.x.x.x.x.x.x.x.x.  @ & @ O @ @ @ +   x.x.x.x.x.x.x.x.x.x.x.x.x.x.x.x.x.x.x.x.",
"x.x.x.x.x.x.x.x.x.x.x.x.x.x.x.x.x.x.x.x.x.x.x.x.x.x.o @ @ + O   x.x.x.x.x.x.x.x.x.x.x.x.x.x.x.x.x.  7 { % 3 3 @ @ @ +   x.x.x.x.x.x.x.x.x.x.x.x.x.x.x.x.x.x.x.x.",
"x.x.x.x.x.x.x.x.x.x.x.x.x.x.x.x.x.x.x.x.x.x.x.x.x.x.% = * * = { 3   x.x.x.x.x.x.x.x.x.x.x.x.x.x.x.= o.=.>.e.e.t   # + . x.x.x.x.x.x.x.x.x.x.x.x.x.x.x.x.x.x.x.x.",
"x.x.x.x.x.x.x.x.x.x.x.x.x.x.x.x.x.x.x.x.x.x.x.x.x.x.. . O % % 3 o.} @ x.x.x.x.x.x.x.x.x.x.x.x.x.# *.e.e.e.e.i.;.  # + X x.x.x.x.x.x.x.x.x.x.x.x.x.x.x.x.x.x.x.x.",
"x.x.x.x.x.x.x.x.x.x.x.x.x.x.x.x.x.x.x.x.x.x.x.x.x.x.u X.3   # 3 y +.o.*   x.x.x.x.x.x.x.x.x.x.x.o.e.e.e.i.d.f.i.# @ @ X   x.x.x.x.x.x.x.x.x.x.x.x.x.x.x.x.x.x.x.",
"x.x.x.x.x.x.x.x.x.x.x.x.x.x.x.x.x.x.x.x.x.x.x.x.x.x.*.d.i.w.u t | { X.&.=   x.x.x.x.x.x.x.x.x.i u.e.e.s.f.d.f.d.3 X + X   x.x.x.x.x.x.x.x.x.x.x.x.x.x.x.x.x.x.x.",
"x.x.x.x.x.x.x.x.x.x.x.x.x.x.x.x.x.x.x.x.x.x.x.x.x.x.o.i.d.h.d.;.u { { X.o.* x.x.x.x.x.x.x.x.x.;.u.e.d.f.d.d.d.f.| # % X . x.x.x.x.x.x.x.x.x.x.x.x.x.x.x.x.x.x.x.",
"x.x.x.x.x.x.x.x.x.x.x.x.x.x.x.x.x.x.x.x.x.x.x.x.x.x.o.i.d.d.f.h.w.i { { | 3   o X & & o o X % w.e.d.f.d.d.d.d.f.o.t * # . x.x.x.x.x.x.x.x.x.x.x.x.x.x.x.x.x.x.x.",
"x.x.x.x.x.x.x.x.x.x.x.x.x.x.x.x.x.x.x.x.x.x.x.x.x.x.} i.d.d.f.d.h.e.t *   = * o & &.u O @ & *.e.u.f.d.d.d.f.d.h.*.u 7 *   x.x.x.x.x.x.x.x.x.x.x.x.x.x.x.x.x.x.x.",
"x.x.x.x.x.x.x.x.x.x.x.x.x.x.x.x.x.x.x.x.x.x.x.x.x.x.i u.f.d.d.h.f.o.  o O X.u   = | 3 O + 3 o.e.i.f.d.f.f.d.f.f.&.u t *   x.x.x.x.x.x.x.x.x.x.x.x.x.x.x.x.x.x.x.",
"x.x.x.x.x.x.x.x.x.x.x.x.x.x.x.x.x.x.x.x.x.x.x.x.x.x.* u.f.f.f.s.9 # t + + i 9 . 3 | * O # a i w.f.d.d.d.d.d.f.f.o.i 7 &   x.x.x.x.x.x.x.x.x.x.x.x.x.x.x.x.x.x.x.",
"x.x.x.x.x.x.x.x.x.x.x.x.x.x.x.x.x.x.x.x.x.x.x.x.x.x.+ w.d.f.i.=   u X.+ O t t o 7 } * o = { # >.d.f.d.f.f.d.f.i.X.t 7 & x.x.x.x.x.x.x.x.x.x.x.x.x.x.x.x.x.x.x.x.",
"x.x.x.x.x.x.x.x.x.x.x.x.x.x.x.x.x.x.x.x.x.x.x.x.x.x.  ;.f.d.3 @ # % { * o e a + u { & o t i   X.d.d.d.f.d.d.h.i.{ t 7 # x.x.x.x.x.x.x.x.x.x.x.x.x.x.x.x.x.x.x.x.",
"x.x.x.x.x.x.x.x.x.x.x.x.x.x.x.x.x.x.x.x.x.x.x.x.x.x.x.| f.X.% &.* X u e   4 b % b { # # { * @ u u.f.d.d.f.d.h.e.y 7 3 O x.x.x.x.x.x.x.x.x.x.x.x.x.x.x.x.x.x.x.x.",
"x.x.x.x.x.x.x.x.x.x.x.x.x.x.x.x.x.x.x.x.x.x.x.x.x.x.x.3 =.o o.o.u O 1 { + 3 { = } a + 3 u + t b $.g.f.f.d.d.h.=.e 7 3   x.x.x.x.x.x.x.x.x.x.x.x.x.x.x.x.x.x.x.x.",
"x.x.x.x.x.x.x.x.x.x.x.x.x.x.x.x.x.x.x.x.x.x.x.x.x.x.x.+ X { o.{ } 5 # { & = } 7 } i + a 3 3 } { u ;.h.h.d.h.i.{ e 7 *   x.x.x.x.x.x.x.x.x.x.x.x.x.x.x.x.x.x.x.x.",
"x.x.x.x.x.x.x.x.x.x.x.x.x.x.x.x.x.x.x.x.x.x.x.x.x.x.x.x.* &.| { { { & i e = } u } e & V 3 { { { { i =.u.s.i.&.u 4 4 @ x.x.x.x.x.x.x.x.x.x.x.x.x.x.x.x.x.x.x.x.x.",
"x.x.x.x.x.x.x.x.x.x.x.x.x.x.x.x.x.x.x.x.x.x.x.x.x.x.x.  | o.j { { { i 3 a 1 { { } 7 3 { u { { { { } i j | { { i 6 =     x.x.x.x.x.x.x.x.x.x.x.x.x.x.x.x.x.x.x.x.",
"x.x.x.x.x.x.x.x.x.x.x.x.x.x.x.x.x.x.x.x.x.x.x.x.x.x.x.# o.X.V { { { { t a t V { { 7 u { { { { { { { { { j { i 3 ; X & + x.x.x.x.x.x.x.x.x.x.x.x.x.x.x.x.x.x.x.x.",
"x.x.x.x.x.x.x.x.x.x.x.x.x.x.x.x.x.x.x.x.x.x.x.x.x.x.x.t o.{ { { { { { { { V { { { t V { { { { { { { { { { { e #   # } * x.x.x.x.x.x.x.x.x.x.x.x.x.x.x.x.x.x.x.x.",
"x.x.x.x.x.x.x.x.x.x.x.x.x.x.x.x.x.x.x.x.x.x.x.x.x.x.  | o.V { { { { { { { { { { { { { { { { { { { { { { { { { { u V | 9   x.x.x.x.x.x.x.x.x.x.x.x.x.x.x.x.x.x.x.",
"x.x.x.x.x.x.x.x.x.x.x.x.x.x.x.x.x.x.x.x.x.x.x.x.x.x.@ o.| j { { { { V { { { V { { { { { { { { j { { { { { { { { { { { b o x.x.x.x.x.x.x.x.x.x.x.x.x.x.x.x.x.x.x.",
"x.x.x.x.x.x.x.x.x.x.x.x.x.x.x.x.x.x.x.x.x.x.x.x.x.x.= o.{ { { { { { { { { { { { { { { { { { { { { a V { { { { { { { { { * x.x.x.x.x.x.x.x.x.x.x.x.x.x.x.x.x.x.x.",
"x.x.x.x.x.x.x.x.x.x.x.x.x.x.x.x.x.x.x.x.x.x.x.x.x.x.t o.{ { { { { { { { { V { { { { { { { { { 9 - 6 ; 4 u { { { { { { { u + x.x.x.x.x.x.x.x.x.x.x.x.x.x.x.x.x.x.",
"x.x.x.x.x.x.x.x.x.x.x.x.x.x.x.x.x.x.x.x.x.x.x.x.x.  { o.: < r q a { { { { { { { { { { { { { 9 G 8.I Y 2 : V { { { { { { { u   x.x.x.x.x.x.x.x.x.x.x.x.x.x.x.x.x.",
"x.x.x.x.x.x.x.x.x.x.x.x.x.x.x.x.x.x.x.x.x.x.x.x.x.@ X.4 G 9.~ T v a { { { { { a { { { { { a C j.z.0.L E 3 7 { { { { { { { | 7   x.x.x.x.x.x.x.x.x.x.x.x.x.x.x.x.",
"x.x.x.x.x.x.x.x.x.x.x.x.x.x.x.x.x.x.x.x.x.x.x.x.  { j N k.z.a.L R u } u i { } | | } u i { p ^ j.z.y.l W N ; { { { b { } } { V &   x.x.x.x.x.x.x.x.x.x.x.x.x.x.x.",
"x.x.x.x.x.x.x.x.x.x.x.x.x.x.x.x.x.x.x.x.x.x.x.x.% o.0 U l.z.7.k W A q *.5.e.s.d.s.i.t.;.X.0 K ( %.x J ' Z , } { j i = = e t 3 =   x.x.x.x.x.x.x.x.x.x.x.x.x.x.x.",
"x.x.x.x.x.x.x.x.x.x.x.x.x.x.x.x.x.x.x.x.x.x.x.  = i , P ^ #.z 4.] F r.w.-.1.@.w.h.f.h.h.d.2.H ! c m z.q.$ q } { { { b 3 O   O X x.x.x.x.x.x.x.x.x.x.x.x.x.x.x.x.",
"x.x.x.x.x.x.x.x.x.x.x.x.x.x.x.x.x.x.x.x.x.x.x.. + 3 p S ) n M z.9.5.y.,.p.3.<.s y.h.d.d.f.h.u./ ) _ [ B 3 { { y } a 4 9 3 %   x.x.x.x.x.x.x.x.x.x.x.x.x.x.x.x.x.",
"x.x.x.x.x.x.x.x.x.x.x.x.x.x.x.x.x.x.x.x.x.x.x.x.O = y 0 D ` _ R $.h.y.f h g d O.s.f.d.d.d.d.h.r.b v 5 9 { { } e 5 { =   # @ x.x.x.x.x.x.x.x.x.x.x.x.x.x.x.x.x.x.",
"x.x.x.x.x.x.x.x.x.x.x.x.x.x.x.x.x.x.x.x.x.x.x.x.x.@ 7 1 , y 2 +.f.d.h.u.:. .e.s.h.d.d.d.d.f.d.h.;.t } { { { { u + & 9 *   x.x.x.x.x.x.x.x.x.x.x.x.x.x.x.x.x.x.x.",
"x.x.x.x.x.x.x.x.x.x.x.x.x.x.x.x.x.x.x.x.x.x.x.x.x.  # @ e a a u.h.d.d.h.h.5 u.d.i.d.d.d.f.d.d.h.u.u } { u i 7 4 &   % O x.x.x.x.x.x.x.x.x.x.x.x.x.x.x.x.x.x.x.x.",
"x.x.x.x.x.x.x.x.x.x.x.x.x.x.x.x.x.x.x.x.x.x.x.x.x.x.  # 6 7 7 e.d.f.h.w.} &.{ X.u.h.d.f.f.d.s.d.e.e e 4 5 4 5 4 &     x.x.x.x.x.x.x.x.x.x.x.x.x.x.x.x.x.x.x.x.x.",
"x.x.x.x.x.x.x.x.x.x.x.x.x.x.x.x.x.x.x.x.x.x.x.x.x.x.x.  % 3 = *.u.u.i.u.u.f.i.u.d.i.u.u.t.e.e.u.;.= 7 7 3 3 & O   x.x.x.x.x.x.x.x.x.x.x.x.x.x.x.x.x.x.x.x.x.x.x.",
"x.x.x.x.x.x.x.x.x.x.x.x.x.x.x.x.x.x.x.x.x.x.x.x.x.x.x.x.x.O & t 5.u.y.r.u.e.e.t.e.y.t.u.y.r.e.e.X.& & # O   x.x.x.x.x.x.x.x.x.x.x.x.x.x.x.x.x.x.x.x.x.x.x.x.x.x.",
"x.x.x.x.x.x.x.x.x.x.x.x.x.x.x.x.x.x.x.x.x.x.x.x.x.x.x.x.x.x.    # | ;.>.w.w.w.>.;.;.+.o.| t = #     x.x.x.x.x.x.x.x.x.x.x.x.x.x.x.x.x.x.x.x.x.x.x.x.x.x.x.x.x.x.",
"x.x.x.x.x.x.x.x.x.x.x.x.x.x.x.x.x.x.x.x.x.x.x.x.x.x.x.x.x.x.x.x.x.x.    O # O # 7 u } 7 & 7 3   x.x.x.x.x.x.x.x.x.x.x.x.x.x.x.x.x.x.x.x.x.x.x.x.x.x.x.x.x.x.x.x.",
"x.x.x.x.x.x.x.x.x.x.x.x.x.x.x.x.x.x.x.x.x.x.x.x.x.x.x.x.x.x.x.x.x.x.x.x.x.x.% u.h.h.h.s.X.V V { u 3 @ x.x.x.x.x.x.x.x.x.x.x.x.x.x.x.x.x.x.x.x.x.x.x.x.x.x.x.x.x.",
"x.x.x.x.x.x.x.x.x.x.x.x.x.x.x.x.x.x.x.x.x.x.x.x.x.x.x.x.x.x.x.x.x.x.x.x.x.  ;.h.d.d.d.h.;.3 1 9 { | | 3   x.x.x.x.x.x.x.x.x.x.x.x.x.x.x.x.x.x.x.x.x.x.x.x.x.x.x.",
"x.x.x.x.x.x.x.x.x.x.x.x.x.x.x.x.x.x.x.x.x.x.x.x.x.x.x.x.x.x.x.x.    O % % 3 d.f.d.d.d.h.u.V t # & t { X.i   x.x.x.x.x.x.x.x.x.x.x.x.x.x.x.x.x.x.x.x.x.x.x.x.x.x.",
"x.x.x.x.x.x.x.x.x.x.x.x.x.x.x.x.x.x.x.x.x.x.x.x.x.x.x.x.x.x.. | 7 3 t { + =.h.d.d.d.d.d.d.X.V 3 X & i { X.t x.x.x.x.x.x.x.x.x.x.x.x.x.x.x.x.x.x.x.x.x.x.x.x.x.x.",
"x.x.x.x.x.x.x.x.x.x.x.x.x.x.x.x.x.x.x.x.x.x.x.x.x.x.x.x.x.x.3 i.| { } u @ y.f.d.f.d.d.d.h.*.u | 3   = { { | # x.x.x.x.x.x.x.x.x.x.x.x.x.x.x.x.x.x.x.x.x.x.x.x.x.",
"x.x.x.x.x.x.x.x.x.x.x.x.x.x.x.x.x.x.x.x.x.x.x.x.x.x.x.x.x.x.# h.;.u X.e 3 d.f.f.d.d.f.d.h.;.t 7 & + % i u | { x.x.x.x.x.x.x.x.x.x.x.x.x.x.x.x.x.x.x.x.x.x.x.x.x.",
"x.x.x.x.x.x.x.x.x.x.x.x.x.x.x.x.x.x.x.x.x.x.x.x.x.x.x.x.x.x.x.| ;.u t   | h.d.d.f.d.d.d.h.>.t { = # + 3 X.i.;.  # @ # O x.x.x.x.x.x.x.x.x.x.x.x.x.x.x.x.x.x.x.x.",
"x.x.x.x.x.x.x.x.x.x.x.x.x.x.x.x.x.x.x.x.x.x.x.x.x.x.x.x.x.x.x.x.x.x.x.  +.h.d.f.f.d.d.d.h.>.i t 1 O   7 u.e.= t & # # @ x.x.x.x.x.x.x.x.x.x.x.x.x.x.x.x.x.x.x.x.",
"x.x.x.x.x.x.x.x.x.x.x.x.x.x.x.x.x.x.x.x.x.x.x.x.x.x.x.x.x.x.x.x.x.x.x.  | h.f.f.d.d.f.f.h.=.u u @ X x.x.#   3 7 + @ @ @ . x.x.x.x.x.x.x.x.x.x.x.x.x.x.x.x.x.x.x.",
"x.x.x.x.x.x.x.x.x.x.x.x.x.x.x.x.x.x.x.x.x.x.x.x.x.x.x.x.x.x.x.x.x.x.x.x.* e.h.f.f.h.i.e.e.} { i =   x.x.x.x.+ & @ @ @ O x.x.x.x.x.x.x.x.x.x.x.x.x.x.x.x.x.x.x.x.",
"x.x.x.x.x.x.x.x.x.x.x.x.x.x.x.x.x.x.x.x.x.x.x.x.x.x.x.x.x.x.x.x.x.x.x.x.+ 7 5.d.d.&.& & t { i 3 * x.x.x.x.x.x.x.o o X x.x.x.x.x.x.x.x.x.x.x.x.x.x.x.x.x.x.x.x.x.",
"x.x.x.x.x.x.x.x.x.x.x.x.x.x.x.x.x.x.x.x.x.x.x.x.x.x.x.x.x.x.x.x.x.x.x.x.x.% = i = + t | { { y = X x.x.x.x.x.x.x.x.x.x.x.x.x.x.x.x.x.x.x.x.x.x.x.x.x.x.x.x.x.x.x.",
"x.x.x.x.x.x.x.x.x.x.x.x.x.x.x.x.x.x.x.x.x.x.x.x.x.x.x.x.x.x.x.x.x.x.x.x.x.x.@ o = { { { u X.{   x.x.x.x.x.x.x.x.x.x.x.x.x.x.x.x.x.x.x.x.x.x.x.x.x.x.x.x.x.x.x.x.",
"x.x.x.x.x.x.x.x.x.x.x.x.x.x.x.x.x.x.x.x.x.x.x.x.x.x.x.x.x.x.x.x.x.x.x.x.x.x.@ 7 { { { { X.+.3 x.x.x.x.x.x.x.x.x.x.x.x.x.x.x.x.x.x.x.x.x.x.x.x.x.x.x.x.x.x.x.x.x.",
"x.x.x.x.x.x.x.x.x.x.x.x.x.x.x.x.x.x.x.x.x.x.x.x.x.x.x.x.x.x.x.x.x.x.x.x.x.# 7 a { { { X.+.}   x.x.x.x.x.x.x.x.x.x.x.x.x.x.x.x.x.x.x.x.x.x.x.x.x.x.x.x.x.x.x.x.x.",
"x.x.x.x.x.x.x.x.x.x.x.x.x.x.x.x.x.x.x.x.x.x.x.x.x.x.x.x.x.x.x.x.x.x.x.x.3 o.e } { { X.o.X.@ @ x.x.x.x.x.x.x.x.x.x.x.x.x.x.x.x.x.x.x.x.x.x.x.x.x.x.x.x.x.x.x.x.x.",
"x.x.x.x.x.x.x.x.x.x.x.x.x.x.x.x.x.x.x.x.x.x.x.x.x.x.x.x.x.x.x.x.x.x.x.x.{ w.e { { X.o.o.% 7 7 o x.x.x.x.x.x.x.x.x.x.x.x.x.x.x.x.x.x.x.x.x.x.x.x.x.x.x.x.x.x.x.x.",
"x.x.x.x.x.x.x.x.x.x.x.x.x.x.x.x.x.x.x.x.x.x.x.x.x.x.x.x.x.x.x.x.x.x.x.x.% u.=.i ..+.X.% 7 } i * x.x.x.x.x.x.x.x.x.x.x.x.x.x.x.x.x.x.x.x.x.x.x.x.x.x.x.x.x.x.x.x.",
"x.x.x.x.x.x.x.x.x.x.x.x.x.x.x.x.x.x.x.x.x.x.x.x.x.x.x.x.x.x.x.x.x.x.x.x.x.| i.>.&.X.% i | { 7 &.7 x.x.x.x.x.x.x.x.x.x.x.x.x.x.x.x.x.x.x.x.x.x.x.x.x.x.x.x.x.x.x.",
"x.x.x.x.x.x.x.x.x.x.x.x.x.x.x.x.x.x.x.x.x.x.x.x.x.x.x.x.x.x.x.x.x.x.x.x.x.x.i >.>.% b o.{ t o.u.* x.x.x.x.x.x.x.x.x.x.x.x.x.x.x.x.x.x.x.x.x.x.x.x.x.x.x.x.x.x.x.",
"x.x.x.x.x.x.x.x.x.x.x.x.x.x.x.x.x.x.x.x.x.x.x.x.x.x.x.x.x.x.x.x.x.x.x.x.x.x.x.  x.x.i &.o.;.u.o.x.x.x.x.x.x.x.x.x.x.x.x.x.x.x.x.x.x.x.x.x.x.x.x.x.x.x.x.x.x.x.x.",
"x.x.x.x.x.x.x.x.x.x.x.x.x.x.x.x.x.x.x.x.x.x.x.x.x.x.x.x.x.x.x.x.x.x.x.x.x.x.x.x.x.x.  *.e.e.X.  x.x.x.x.x.x.x.x.x.x.x.x.x.x.x.x.x.x.x.x.x.x.x.x.x.x.x.x.x.x.x.x.",
"x.x.x.x.x.x.x.x.x.x.x.x.x.x.x.x.x.x.x.x.x.x.x.x.x.x.x.x.x.x.x.x.x.x.x.x.x.x.x.x.x.x.x.  & o x.x.x.x.x.x.x.x.x.x.x.x.x.x.x.x.x.x.x.x.x.x.x.x.x.x.x.x.x.x.x.x.x.x.",
"x.x.x.x.x.x.x.x.x.x.x.x.x.x.x.x.x.x.x.x.x.x.x.x.x.x.x.x.x.x.x.x.x.x.x.x.x.x.x.x.x.x.x.x.x.x.x.x.x.x.x.x.x.x.x.x.x.x.x.x.x.x.x.x.x.x.x.x.x.x.x.x.x.x.x.x.x.x.x.x.",
"x.x.x.x.x.x.x.x.x.x.x.x.x.x.x.x.x.x.x.x.x.x.x.x.x.x.x.x.x.x.x.x.x.x.x.x.x.x.x.x.x.x.x.x.x.x.x.x.x.x.x.x.x.x.x.x.x.x.x.x.x.x.x.x.x.x.x.x.x.x.x.x.x.x.x.x.x.x.x.x.",
"x.x.x.x.x.x.x.x.x.x.x.x.x.x.x.x.x.x.x.x.x.x.x.x.x.x.x.x.x.x.x.x.x.x.x.x.x.x.x.x.x.x.x.x.x.x.x.x.x.x.x.x.x.x.x.x.x.x.x.x.x.x.x.x.x.x.x.x.x.x.x.x.x.x.x.x.x.x.x.x."
};
