/* XPM */
static char *_4098_b5f1b6dc9dbca40a789402798287161a9cb607d7277c2628f14c4a45397449ba[] = {
/* columns rows colors chars-per-pixel */
"80 70 147 2 ",
"   c #010101",
".  c #0C0C0C",
"X  c #131313",
"o  c #1B1B1B",
"O  c #232323",
"+  c #2B2B2B",
"@  c #343434",
"#  c #3C3C3C",
"$  c #00456F",
"%  c #444444",
"&  c #4B4B4B",
"*  c #535353",
"=  c #5B5B5B",
"-  c #665C55",
";  c #6B635E",
":  c #63625F",
">  c #74665B",
",  c #5F6061",
"<  c #556368",
"1  c #466979",
"2  c #556E7A",
"3  c #5F7078",
"4  c #646464",
"5  c #6B6B6B",
"6  c #7A6E64",
"7  c #726D6A",
"8  c #766D66",
"9  c #7F7064",
"0  c #76706D",
"q  c #6C7274",
"w  c #6B777C",
"e  c #64747D",
"r  c #737373",
"t  c #797777",
"y  c #7E7976",
"u  c #767779",
"i  c #767878",
"p  c #7B7B7B",
"a  c #827B76",
"s  c #817F7E",
"d  c #E04F4F",
"f  c #E46E6E",
"g  c #F67676",
"h  c #FB7B7B",
"j  c #85807C",
"k  c #1F7D99",
"l  c #296B82",
"z  c #567885",
"x  c #5E7985",
"c  c #417E95",
"v  c #7D7F80",
"b  c #0081AE",
"n  c #0083B2",
"m  c #008CB6",
"M  c #3397B9",
"N  c #3F9AB9",
"B  c #5A879A",
"V  c #6D818B",
"C  c #7D8183",
"Z  c #658A99",
"A  c #6C909D",
"S  c #588BA0",
"D  c #5997AF",
"F  c #779CAC",
"G  c #0096C1",
"H  c #009BCA",
"J  c #19B1DB",
"K  c #3BA1C5",
"L  c #37A4C8",
"P  c #3DA9CE",
"I  c #3CABD1",
"U  c #39B5DD",
"Y  c #00B4E3",
"T  c #00B9E7",
"R  c #00BAEB",
"E  c #00BEF0",
"W  c #20B7E3",
"Q  c #46A5C7",
"!  c #4CA3C1",
"~  c #6CAFC9",
"^  c #00C3F6",
"/  c #1EC7F7",
"(  c #13C5F5",
")  c #56C1E7",
"_  c #68C1E3",
"`  c #68D2FB",
"'  c #838383",
"]  c #8A8786",
"[  c #8A8887",
"{  c #848788",
"}  c #878889",
"|  c #8B8B8B",
" . c #908E8E",
".. c #8A9292",
"X. c #949393",
"o. c #979898",
"O. c #9B9B9B",
"+. c #AC8E8E",
"@. c #B38A8A",
"#. c #889CA6",
"$. c #9CA0A3",
"%. c #88ACBD",
"&. c #A3A3A3",
"*. c #ACACAC",
"=. c #BBADAD",
"-. c #BCA5A5",
";. c #B4B4B4",
":. c #BCBDBD",
">. c #FC8585",
",. c #C6AEAE",
"<. c #C5A4A4",
"1. c #EDA4A4",
"2. c #FFA5A5",
"3. c #C2C0BF",
"4. c #89BDD1",
"5. c #92BFD3",
"6. c #A1B9C4",
"7. c #9FCBDF",
"8. c #93C6DE",
"9. c #BFC3C3",
"0. c #A1C5D3",
"q. c #8CCBE5",
"w. c #A2D8F0",
"e. c #C4C4C4",
"r. c #CDCDCD",
"t. c #CAC5C3",
"y. c #C8D3D6",
"u. c #D3D3D3",
"i. c #DAD7D5",
"p. c #DCDCDC",
"a. c #FFC0C0",
"s. c #E0DFDE",
"d. c #E5E1DE",
"f. c #CDDDE5",
"g. c #DDE1E1",
"h. c #C6EFFF",
"j. c #DDF2FB",
"k. c #E5E5E5",
"l. c #E8E7E7",
"z. c #E6EAEA",
"x. c #EAEAEA",
"c. c #E6F8FF",
"v. c #EAF9FF",
"b. c #F4F4F4",
"n. c #FDFEFE",
"m. c #F6F9FA",
"M. c None",
/* pixels */
"M.M.M.M.M.M.M.M.M.M.M.M.M.M.M.M.M.M.M.M.M.M.M.M.M.M.M.M.M.M.M.M.M.M.M.M.M.M.M.M.M.M.M.M.M.M.M.M.M.M.M.M.M.M.M.M.M.M.M.M.M.M.M.M.M.M.M.M.M.M.M.M.M.M.M.M.M.M.M.M.",
"M.M.M.M.M.M.M.M.M.M.M.M.M.M.M.M.M.M.M.M.M.M.M.M.M.M.M.M.M.M.M.M.M.M.M.M.M.M.M.M.M.M.M.M.M.M.M.M.M.M.M.M.M.M.M.M.M.M.M.M.M.M.M.M.M.M.M.M.M.M.M.M.M.M.M.M.M.M.M.M.",
"M.M.M.M.M.M.M.M.M.M.M.M.M.M.M.M.M.M.M.M.M.M.M.M.M.M.M.M.M.M.M.M.M.M.M.M.M.M.M.M.M.M.M.M.M.M.M.M.M.M.M.M.M.M.M.M.M.M.M.M.M.M.M.M.M.M.M.M.M.M.M.M.M.M.M.M.M.M.M.M.",
"M.M.M.M.M.M.M.M.M.M.M.M.M.M.M.M.M.M.M.M.M.M.M.M.M.M.M.M.M.M.M.M.M.M.M.M.M.M.M.M.M.M.M.M.M.M.M.M.M.M.M.M.M.M.M.M.M.M.M.M.M.M.M.M.M.M.M.M.M.M.M.M.M.M.M.M.M.M.M.M.",
"M.M.M.M.M.M.M.M.M.M.M.M.M.M.M.M.M.M.M.M.M.M.M.M.M.M.M.M.M.M.M.M.M.M.M.M.M.M.M.M.M.M.M.M.M.M.M.M.M.M.M.M.M.    o O X M.M.M.M.M.M.M.M.M.M.M.M.M.M.M.M.M.M.M.M.M.M.",
"M.M.M.M.M.M.M.M.M.M.M.M.M.M.M.M.M.M.M.M.M.M.M.M.M.M.M.M.M.M.M.M.M.M.M.M.M.M.M.M.M.M.M.M.M.M.M.M.M.M.M.  . # & % & @   M.M.M.M.M.M.M.M.M.M.M.M.M.M.M.M.M.M.M.M.M.",
"M.M.M.M.M.M.M.M.M.M.M.M.M.M.M.M.M.M.M.M.M.M.M.M.M.M.M.  o X   M.M.M.M.M.M.M.M.M.M.M.M.M.M.M.M.M.M.M.  + & % # @ @ @ . M.M.M.M.M.M.M.M.M.M.M.M.M.M.M.M.M.M.M.M.M.",
"M.M.M.M.M.M.M.M.M.M.M.M.M.M.M.M.M.M.M.M.M.M.M.M.M.M.M.+ * & & # @   M.M.M.M.M.M.M.M.M.M.M.M.M.M.M.  4 4 . # + @ @ @ o   M.M.M.M.M.M.M.M.M.M.M.M.M.M.M.M.M.M.M.M.",
"M.M.M.M.M.M.M.M.M.M.M.M.M.M.M.M.M.M.M.M.M.M.M.M.M.M.M.X # & * & ' '   M.M.M.M.M.M.M.M.M.M.M.M.M.  5 o.X.*.e.*.O @ @ O   M.M.M.M.M.M.M.M.M.M.M.M.M.M.M.M.M.M.M.M.",
"M.M.M.M.M.M.M.M.M.M.M.M.M.M.M.M.M.M.M.M.M.M.M.M.M.M.M.= 4   o % % | X.# M.M.M.M.M.M.M.M.M.M.M.M.& O.e.r.r.r.u.5 X @ O   M.M.M.M.M.M.M.M.M.M.M.M.M.M.M.M.M.M.M.M.",
"M.M.M.M.M.M.M.M.M.M.M.M.M.M.M.M.M.M.M.M.M.M.M.M.M.M.M.&.u.:.5 @ r r O.o.% M.M.M.M.M.M.M.M.M.M.  O.r.r.r.u.k.x.*.  % O . M.M.M.M.M.M.M.M.M.M.M.M.M.M.M.M.M.M.M.M.",
"M.M.M.M.M.M.M.M.M.M.M.M.M.M.M.M.M.M.M.M.M.M.M.M.M.M.  *.k.l.k.&.r [ ' o.X.O M.M.M.M.M.M.M.M.M.r r.r.r.k.k.k.x.e.  @ o . M.M.M.M.M.M.M.M.M.M.M.M.M.M.M.M.M.M.M.M.",
"M.M.M.M.M.M.M.M.M.M.M.M.M.M.M.M.M.M.M.M.M.M.M.M.M.M.  ;.g.k.k.x.:.p ' ' $.|   M.M.M.M.M.M.M.M.*.u.r.k.k.k.k.l.p.& & + X M.M.M.M.M.M.M.M.M.M.M.M.M.M.M.M.M.M.M.M.",
"M.M.M.M.M.M.M.M.M.M.M.M.M.M.M.M.M.M.M.M.M.M.M.M.M.M.  ;.k.k.k.k.x.;.p [ [ ' +     O @ o o   * r.r.p.l.k.l.k.l.k.p r # # M.M.M.M.M.M.M.M.M.M.M.M.M.M.M.M.M.M.M.M.",
"M.M.M.M.M.M.M.M.M.M.M.M.M.M.M.M.M.M.M.M.M.M.M.M.M.M.  ;.k.k.k.k.k.x.O.* + % * O # X.' + @ + &.r.u.l.k.k.k.k.k.g.X.p 4 & M.M.M.M.M.M.M.M.M.M.M.M.M.M.M.M.M.M.M.M.",
"M.M.M.M.M.M.M.M.M.M.M.M.M.M.M.M.M.M.M.M.M.M.M.M.M.M.  ;.k.l.k.k.l.;.#   . [ '   & X.r O @ & *.r.g.l.k.l.k.k.l.k. .p 5 % M.M.M.M.M.M.M.M.M.M.M.M.M.M.M.M.M.M.M.M.",
"M.M.M.M.M.M.M.M.M.M.M.M.M.M.M.M.M.M.M.M.M.M.M.M.M.M.  *.k.k.l.k.p + 5 @ + r r . = } - + @ 5 o.r.k.l.k.l.l.k.l.g. .i 5 % M.M.M.M.M.M.M.M.M.M.M.M.M.M.M.M.M.M.M.M.",
"M.M.M.M.M.M.M.M.M.M.M.M.M.M.M.M.M.M.M.M.M.M.M.M.M.M.M.o.k.l.s.4   r o.@ O 5 p o 4 | = o & v r r.l.k.l.k.l.k.l.p.[ r 5 # M.M.M.M.M.M.M.M.M.M.M.M.M.M.M.M.M.M.M.M.",
"M.M.M.M.M.M.M.M.M.M.M.M.M.M.M.M.M.M.M.M.M.M.M.M.M.M.M.' p.k.5 @ # # ' = X 5 s + r } & X 5 p o ;.l.k.k.l.k.k.l.u.' r 4 @ M.M.M.M.M.M.M.M.M.M.M.M.M.M.M.M.M.M.M.M.",
"M.M.M.M.M.M.M.M.M.M.M.M.M.M.M.M.M.M.M.M.M.M.M.M.M.M.M.= p.| & &.= X r r   5 ' # v ' % @ ' 4   [ g.l.k.k.l.l.x.e.i q 4 O M.M.M.M.M.M.M.M.M.M.M.M.M.M.M.M.M.M.M.M.",
"M.M.M.M.M.M.M.M.M.M.M.M.M.M.M.M.M.M.M.M.M.M.M.M.M.M.M.& o.@ O.o.p O 4 ' O 4 ' * ' p + = ' + 4 p 9.x.k.k.k.k.l.;.r 5 4   M.M.M.M.M.M.M.M.M.M.M.M.M.M.M.M.M.M.M.M.",
"M.M.M.M.M.M.M.M.M.M.M.M.M.M.M.M.M.M.M.M.M.M.M.M.M.M.M.X   [ O.' ' 4 # ' & , ' 5 } u + p 5 & ' ' ' u.x.k.k.l.k.X.5 5 *   M.M.M.M.M.M.M.M.M.M.M.M.M.M.M.M.M.M.M.M.",
"M.M.M.M.M.M.M.M.M.M.M.M.M.M.M.M.M.M.M.M.M.M.M.M.M.M.M.M.4 $.[ ' ' ' % p 5 = } p ' r % ' = ' ' ' ' ' r.l.l.l.:.p 5 5 %   M.M.M.M.M.M.M.M.M.M.M.M.M.M.M.M.M.M.M.M.",
"M.M.M.M.M.M.M.M.M.M.M.M.M.M.M.M.M.M.M.M.M.M.M.M.M.M.M.   .o.' ' ' ' r 5 p 4 ' ' [ 4 4 v p ] v ' ' ' p o.*.O.' p 4 4   M.M.M.M.M.M.M.M.M.M.M.M.M.M.M.M.M.M.M.M.M.",
"M.M.M.M.M.M.M.M.M.M.M.M.M.M.M.M.M.M.M.M.M.M.M.M.M.M.M.* O.| ' ' ' ' ' r p 5 ' ' ' 4 p ' ' ' ' ' ' ' ' p p v ' 5 5 #   X M.M.M.M.M.M.M.M.M.M.M.M.M.M.M.M.M.M.M.M.",
"M.M.M.M.M.M.M.M.M.M.M.M.M.M.M.M.M.M.M.M.M.M.M.M.M.M.  ' O.' ' ' ' ' ' s ' ' ' ' ' r ' ' ' ' ' ' ' ' ' ' ' ' 5 # . o r O M.M.M.M.M.M.M.M.M.M.M.M.M.M.M.M.M.M.M.M.",
"M.M.M.M.M.M.M.M.M.M.M.M.M.M.M.M.M.M.M.M.M.M.M.M.M.M.o o.X.v ' ' ' ' ' ' ' ' ' ' ' v ' ' ' ' ' ' ' ' ' ' ' ' ' p 5 p | & M.M.M.M.M.M.M.M.M.M.M.M.M.M.M.M.M.M.M.M.",
"M.M.M.M.M.M.M.M.M.M.M.M.M.M.M.M.M.M.M.M.M.M.M.M.M.M.* O.} ' ' ' ' ' ' ' ' ' ' ' ' ' ' ' ' ' ' ' ' ' ' ' ' ' ' ' ' ' [ 5   M.M.M.M.M.M.M.M.M.M.M.M.M.M.M.M.M.M.M.",
"M.M.M.M.M.M.M.M.M.M.M.M.M.M.M.M.M.M.M.M.M.M.M.M.M.M.r O.' ' ' ' ' ' ' ' ' ' ' ' ' ' ' ' ' ' ' } } ' ' ' ' ' ' ' ' ' ' p   M.M.M.M.M.M.M.M.M.M.M.M.M.M.M.M.M.M.M.",
"M.M.M.M.M.M.M.M.M.M.M.M.M.M.M.M.M.M.M.M.M.M.M.M.M.  [ o.' j j ' ' ' ' ' ' ' ' ' ' ' ' ' ' ' ' a > > 7 C ' ' ' ' ' ' ' ' *   M.M.M.M.M.M.M.M.M.M.M.M.M.M.M.M.M.M.",
"M.M.M.M.M.M.M.M.M.M.M.M.M.M.M.M.M.M.M.M.M.M.M.M.M.X o.] * 1 e 8 j ' ' ' ' ' ' ' ' ' ' ' ' ' 7 z N M x - u ' ' ' ' ' ' ' ' @ M.M.M.M.M.M.M.M.M.M.M.M.M.M.M.M.M.M.",
"M.M.M.M.M.M.M.M.M.M.M.M.M.M.M.M.M.M.M.M.M.M.M.M.M.5 X.< 0.w.T L q ' ' ' ' ' ' ' ' ' ' ' } y A j.c.) T B - p ' ' ' ' ' ' ' p   M.M.M.M.M.M.M.M.M.M.M.M.M.M.M.M.M.",
"M.M.M.M.M.M.M.M.M.M.M.M.M.M.M.M.M.M.M.M.M.M.M.M.o o.5 4.n.n.5.Y Q a ' i t p p ' C p r p [ q q.n.n.6.H U , r ' ' ' ' ' ' j [ 5   M.M.M.M.M.M.M.M.M.M.M.M.M.M.M.M.",
"M.M.M.M.M.M.M.M.M.M.M.M.M.M.M.M.M.M.M.M.M.M.M.  t X.2 _ m.n.F n W w ] *.9.u.p.p.u.r.;.o.y V J y.f.k m T 3 0 { ' v r p ' } ' r %   M.M.M.M.M.M.M.M.M.M.M.M.M.M.M.",
"M.M.M.M.M.M.M.M.M.M.M.M.M.M.M.M.M.M.M.M.M.M.M.o : 7 e Y D S c 7.T $.u.:.,.<.=.g.x.x.x.k.r.| Y G $ F v.) = p ' ' ' r * % = = = # M.M.M.M.M.M.M.M.M.M.M.M.M.M.M.M.",
"M.M.M.M.M.M.M.M.M.M.M.M.M.M.M.M.M.M.M.M.M.M.M.  # u 6 I E b 8.n.~ d.=.1.a.2.g @.l.k.k.k.x.d.%.^ R ` h.Z ; ' ' ' ' p ' 5 o       M.M.M.M.M.M.M.M.M.M.M.M.M.M.M.M.",
"M.M.M.M.M.M.M.M.M.M.M.M.M.M.M.M.M.M.M.M.M.M.M.M.# 4 p 5 I / ( ! e.x.-.f >.h d -.l.k.l.k.k.l.s.#.K K l ; ' ' j 5 ' p & * 4 @   M.M.M.M.M.M.M.M.M.M.M.M.M.M.M.M.M.",
"M.M.M.M.M.M.M.M.M.M.M.M.M.M.M.M.M.M.M.M.M.M.M.M.  * 4 = 6 r q t.l.z.k.e.+.+.e.z.k.k.z.k.l.k.l.p.a a a ' ' ' [ = = r = . O . M.M.M.M.M.M.M.M.M.M.M.M.M.M.M.M.M.M.",
"M.M.M.M.M.M.M.M.M.M.M.M.M.M.M.M.M.M.M.M.M.M.M.M.M.o + * p p O.l.k.k.k.m.9...m.k.k.k.k.k.z.k.k.l.O.p [ ' ' C p 4   & 4 +   M.M.M.M.M.M.M.M.M.M.M.M.M.M.M.M.M.M.M.",
"M.M.M.M.M.M.M.M.M.M.M.M.M.M.M.M.M.M.M.M.M.M.M.M.M.M.  * 5 = o.k.z.l.p.*.| | p *.k.l.l.l.l.l.k.l.*.8 p r 5 4 4 5 @   . M.M.M.M.M.M.M.M.M.M.M.M.M.M.M.M.M.M.M.M.M.",
"M.M.M.M.M.M.M.M.M.M.M.M.M.M.M.M.M.M.M.M.M.M.M.M.M.M.M.  * 4 r r.u.u.p.r.p.k.r.p.k.p.p.i.u.u.r.u.X.= 5 5 5 4 4 & o   M.M.M.M.M.M.M.M.M.M.M.M.M.M.M.M.M.M.M.M.M.M.",
"M.M.M.M.M.M.M.M.M.M.M.M.M.M.M.M.M.M.M.M.M.M.M.M.M.M.M.M.  @ * o.r.u.u.u.r.r.u.r.r.r.u.r.u.r.u.r.r 4 = * % +   M.M.M.M.M.M.M.M.M.M.M.M.M.M.M.M.M.M.M.M.M.M.M.M.M.",
"M.M.M.M.M.M.M.M.M.M.M.M.M.M.M.M.M.M.M.M.M.M.M.M.M.M.M.M.M.M.    5 &.:.e.r.u.r.e.e.:.;.;.&.o.} 5 O O     M.M.M.M.M.M.M.M.M.M.M.M.M.M.M.M.M.M.M.M.M.M.M.M.M.M.M.M.",
"M.M.M.M.M.M.M.M.M.M.M.M.M.M.M.M.M.M.M.M.M.M.M.M.M.M.M.M.M.M.M.M.M.    + & * # % = 4 5 @ # & O   M.M.M.M.M.M.M.M.M.M.M.M.M.M.M.M.M.M.M.M.M.M.M.M.M.M.M.M.M.M.M.M.",
"M.M.M.M.M.M.M.M.M.M.M.M.M.M.M.M.M.M.M.M.M.M.M.M.M.M.M.M.M.M.M.M.M.M.M.M.M.M.= u.k.k.l.:.v ' ' p 4 M.M.M.M.M.M.M.M.M.M.M.M.M.M.M.M.M.M.M.M.M.M.M.M.M.M.M.M.M.M.M.",
"M.M.M.M.M.M.M.M.M.M.M.M.M.M.M.M.M.M.M.M.M.M.M.M.M.M.M.M.M.M.M.M.M.M.M.M.M.  r.b.k.k.l.k.| = 5 ' | ' % M.M.M.M.M.M.M.M.M.M.M.M.M.M.M.M.M.M.M.M.M.M.M.M.M.M.M.M.M.",
"M.M.M.M.M.M.M.M.M.M.M.M.M.M.M.M.M.M.M.M.M.M.M.M.M.M.M.M.M.M.M.M.M.M.M.M.M.' x.k.k.k.k.x.:.r * % i [ | & M.M.M.M.M.M.M.M.M.M.M.M.M.M.M.M.M.M.M.M.M.M.M.M.M.M.M.M.",
"M.M.M.M.M.M.M.M.M.M.M.M.M.M.M.M.M.M.M.M.M.M.M.M.M.M.M.M.M.M.M.M.M.M.M.M.  :.x.k.k.k.k.l.u.p j % & p [ | # M.M.M.M.M.M.M.M.M.M.M.M.M.M.M.M.M.M.M.M.M.M.M.M.M.M.M.",
"M.M.M.M.M.M.M.M.M.M.M.M.M.M.M.M.M.M.M.M.M.M.M.M.M.M.M.M.M.M.M.M.M.M.@ % & p.l.k.k.k.k.l.k.| ' [ % 5 ' [ '   M.M.M.M.M.M.M.M.M.M.M.M.M.M.M.M.M.M.M.M.M.M.M.M.M.M.",
"M.M.M.M.M.M.M.M.M.M.M.M.M.M.M.M.M.M.M.M.M.M.M.M.M.M.M.M.M.M.M.M.@ * i * p l.k.k.k.z.l.k.l.O.r 5 @ & ' ' [ # M.M.M.M.M.M.M.M.M.M.M.M.M.M.M.M.M.M.M.M.M.M.M.M.M.M.",
"M.M.M.M.M.M.M.M.M.M.M.M.M.M.M.M.M.M.M.M.M.M.M.M.M.M.M.M.M.M.M.& e.p [ % O.x.k.k.z.k.k.k.x.*.r ' * @ q 5 o.p * M.M.M.M.M.M.M.M.M.M.M.M.M.M.M.M.M.M.M.M.M.M.M.M.M.",
"M.M.M.M.M.M.M.M.M.M.M.M.M.M.M.M.M.M.M.M.M.M.M.M.M.M.M.M.M.M.M.+ k.e.' # *.x.k.l.k.l.l.k.x.*.t r =   | e.l.' p r X O @ O M.M.M.M.M.M.M.M.M.M.M.M.M.M.M.M.M.M.M.M.",
"M.M.M.M.M.M.M.M.M.M.M.M.M.M.M.M.M.M.M.M.M.M.M.M.M.M.M.M.M.M.M.M.p g.o.  &.x.k.k.k.k.l.k.l.&.C r @   [ u.X.  ' p * # # # o M.M.M.M.M.M.M.M.M.M.M.M.M.M.M.M.M.M.M.",
"M.M.M.M.M.M.M.M.M.M.M.M.M.M.M.M.M.M.M.M.M.M.M.M.M.M.M.M.M.M.M.M.M.  M.  p k.x.k.k.k.k.l.p.] ' r =   M.  M.M.* 5 @ @ @ @ o M.M.M.M.M.M.M.M.M.M.M.M.M.M.M.M.M.M.M.",
"M.M.M.M.M.M.M.M.M.M.M.M.M.M.M.M.M.M.M.M.M.M.M.M.M.M.M.M.M.M.M.M.M.M.M.M.# o.p.l.x.l.x.p.o.p r 5 & M.M.M.M.M.M.% @ @ # + M.M.M.M.M.M.M.M.M.M.M.M.M.M.M.M.M.M.M.M.",
"M.M.M.M.M.M.M.M.M.M.M.M.M.M.M.M.M.M.M.M.M.M.M.M.M.M.M.M.M.M.M.M.M.M.M.M.X & p *.e.e.&.* r ' r * o M.M.M.M.M.M.M.o O o M.M.M.M.M.M.M.M.M.M.M.M.M.M.M.M.M.M.M.M.M.",
"M.M.M.M.M.M.M.M.M.M.M.M.M.M.M.M.M.M.M.M.M.M.M.M.M.M.M.M.M.M.M.M.M.M.M.M.M.X % & = @   p [ ' X.% M.M.M.M.M.M.M.M.M.M.M.M.M.M.M.M.M.M.M.M.M.M.M.M.M.M.M.M.M.M.M.M.",
"M.M.M.M.M.M.M.M.M.M.M.M.M.M.M.M.M.M.M.M.M.M.M.M.M.M.M.M.M.M.M.M.M.M.M.M.M.& 7 % & # t } C [ O.* M.M.M.M.M.M.M.M.M.M.M.M.M.M.M.M.M.M.M.M.M.M.M.M.M.M.M.M.M.M.M.M.",
"M.M.M.M.M.M.M.M.M.M.M.M.M.M.M.M.M.M.M.M.M.M.M.M.M.M.M.M.M.M.M.M.M.M.M.M.M.* &.[ + = ' ' ' o.o.# M.M.M.M.M.M.M.M.M.M.M.M.M.M.M.M.M.M.M.M.M.M.M.M.M.M.M.M.M.M.M.M.",
"M.M.M.M.M.M.M.M.M.M.M.M.M.M.M.M.M.M.M.M.M.M.M.M.M.M.M.M.M.M.M.M.M.M.M.M.M.% $.} @ r ' ' [ O.|   M.M.M.M.M.M.M.M.M.M.M.M.M.M.M.M.M.M.M.M.M.M.M.M.M.M.M.M.M.M.M.M.",
"M.M.M.M.M.M.M.M.M.M.M.M.M.M.M.M.M.M.M.M.M.M.M.M.M.M.M.M.M.M.M.M.M.M.M.M.M.@ o.= * ' ' ' X.&.r M.M.M.M.M.M.M.M.M.M.M.M.M.M.M.M.M.M.M.M.M.M.M.M.M.M.M.M.M.M.M.M.M.",
"M.M.M.M.M.M.M.M.M.M.M.M.M.M.M.M.M.M.M.M.M.M.M.M.M.M.M.M.M.M.M.M.M.M.M.M.M.O s @ 5 ' ' ' o.o.& M.M.M.M.M.M.M.M.M.M.M.M.M.M.M.M.M.M.M.M.M.M.M.M.M.M.M.M.M.M.M.M.M.",
"M.M.M.M.M.M.M.M.M.M.M.M.M.M.M.M.M.M.M.M.M.M.M.M.M.M.M.M.M.M.M.M.M.M.M.M.M.M.# p 5 ' '  .O.|   M.M.M.M.M.M.M.M.M.M.M.M.M.M.M.M.M.M.M.M.M.M.M.M.M.M.M.M.M.M.M.M.M.",
"M.M.M.M.M.M.M.M.M.M.M.M.M.M.M.M.M.M.M.M.M.M.M.M.M.M.M.M.M.M.M.M.M.M.M.M.M.M.  ;.*.r p | O.= M.M.M.M.M.M.M.M.M.M.M.M.M.M.M.M.M.M.M.M.M.M.M.M.M.M.M.M.M.M.M.M.M.M.",
"M.M.M.M.M.M.M.M.M.M.M.M.M.M.M.M.M.M.M.M.M.M.M.M.M.M.M.M.M.M.M.M.M.M.M.M.M.M.  4 r.e.&.*.&.  M.M.M.M.M.M.M.M.M.M.M.M.M.M.M.M.M.M.M.M.M.M.M.M.M.M.M.M.M.M.M.M.M.M.",
"M.M.M.M.M.M.M.M.M.M.M.M.M.M.M.M.M.M.M.M.M.M.M.M.M.M.M.M.M.M.M.M.M.M.M.M.M.M.M.r p *.r.e.p M.M.M.M.M.M.M.M.M.M.M.M.M.M.M.M.M.M.M.M.M.M.M.M.M.M.M.M.M.M.M.M.M.M.M.",
"M.M.M.M.M.M.M.M.M.M.M.M.M.M.M.M.M.M.M.M.M.M.M.M.M.M.M.M.M.M.M.M.M.M.M.M.M.M.M.r ;.p *     M.M.M.M.M.M.M.M.M.M.M.M.M.M.M.M.M.M.M.M.M.M.M.M.M.M.M.M.M.M.M.M.M.M.M.",
"M.M.M.M.M.M.M.M.M.M.M.M.M.M.M.M.M.M.M.M.M.M.M.M.M.M.M.M.M.M.M.M.M.M.M.M.M.M.M.M.@ 5 @ M.M.M.M.M.M.M.M.M.M.M.M.M.M.M.M.M.M.M.M.M.M.M.M.M.M.M.M.M.M.M.M.M.M.M.M.M.",
"M.M.M.M.M.M.M.M.M.M.M.M.M.M.M.M.M.M.M.M.M.M.M.M.M.M.M.M.M.M.M.M.M.M.M.M.M.M.M.M.M.M.M.M.M.M.M.M.M.M.M.M.M.M.M.M.M.M.M.M.M.M.M.M.M.M.M.M.M.M.M.M.M.M.M.M.M.M.M.M.",
"M.M.M.M.M.M.M.M.M.M.M.M.M.M.M.M.M.M.M.M.M.M.M.M.M.M.M.M.M.M.M.M.M.M.M.M.M.M.M.M.M.M.M.M.M.M.M.M.M.M.M.M.M.M.M.M.M.M.M.M.M.M.M.M.M.M.M.M.M.M.M.M.M.M.M.M.M.M.M.M."
};
