/* XPM */
static char *_1391_21d410602b505923c37cb708d8939d4bbee3ca564d9a0189df52961c62737117[] = {
/* columns rows colors chars-per-pixel */
"80 70 141 2 ",
"   c #010101",
".  c #0D0D0D",
"X  c #131313",
"o  c #1B1B1B",
"O  c #232323",
"+  c #2C2C2C",
"@  c #343434",
"#  c #3C3C3C",
"$  c #3D6372",
"%  c #434343",
"&  c #4B4B4B",
"*  c #545454",
"=  c #5C5C5C",
"-  c #695A4E",
";  c #655C54",
":  c #695C53",
">  c #685E58",
",  c #73665E",
"<  c #425861",
"1  c #495B64",
"2  c #5D6062",
"3  c #536F7B",
"4  c #5F747E",
"5  c #636464",
"6  c #67696A",
"7  c #6B6C6C",
"8  c #6D6764",
"9  c #736B66",
"0  c #77716E",
"q  c #7C726A",
"w  c #626F75",
"e  c #6C7070",
"r  c #677378",
"t  c #747474",
"y  c #797674",
"u  c #7D7976",
"i  c #7C7C7C",
"p  c #847A73",
"a  c #837E7C",
"s  c #887F79",
"d  c #AA6E6E",
"f  c #BC7979",
"g  c #D64B4B",
"h  c #D06666",
"j  c #FF7D7D",
"k  c #84817E",
"l  c #007391",
"z  c #297D96",
"x  c #487385",
"c  c #447183",
"v  c #7D7E80",
"b  c #008AB7",
"n  c #2A85A3",
"m  c #5E8B9D",
"M  c #62828E",
"N  c #7E8182",
"B  c #748383",
"V  c #688691",
"C  c #4B8FA9",
"Z  c #558EA6",
"A  c #5A8DA0",
"S  c #5B91A7",
"D  c #5690A8",
"F  c #4A97B4",
"G  c #4E9AB7",
"H  c #7D9CAA",
"J  c #759DAD",
"K  c #009FCF",
"L  c #0AA4CB",
"P  c #1DA8CF",
"I  c #00A1D0",
"U  c #00AFDF",
"Y  c #14AFD9",
"T  c #3EAACF",
"R  c #35B5DE",
"E  c #00B3E2",
"W  c #00B8E7",
"Q  c #00BBEB",
"!  c #12B9E5",
"~  c #32BEE9",
"^  c #4EA8C9",
"/  c #43AACE",
"(  c #54A9C9",
")  c #1AC6F6",
"_  c #24C0ED",
"`  c #838383",
"'  c #878788",
"]  c #868888",
"[  c #8B8B8B",
"{  c #8C8784",
"}  c #938F8C",
"|  c #9E958F",
" . c #8C8E90",
".. c #949494",
"X. c #9F9791",
"o. c #9C9C9C",
"O. c #BE9596",
"+. c #B59292",
"@. c #88ACBE",
"#. c #A3A3A3",
"$. c #ABABAB",
"%. c #B6A0A0",
"&. c #BEAFAF",
"*. c #BAB2AD",
"=. c #A9B3B8",
"-. c #B4B4B4",
";. c #BCB6B6",
":. c #BCBCBC",
">. c #FB8686",
",. c #FD9393",
"<. c #C3B0B0",
"1. c #F7B6B6",
"2. c #F9B5B5",
"3. c #BDC1C1",
"4. c #92CFE9",
"5. c #8ED2EF",
"6. c #94D2ED",
"7. c #8BD2F1",
"8. c #BEDEEB",
"9. c #BDE4F4",
"0. c #C3C3C3",
"q. c #CCCCCC",
"w. c #CCD1D2",
"e. c #D3D3D3",
"r. c #D3D8D8",
"t. c #DCDCDC",
"y. c #E1DDDB",
"u. c #D9E0E0",
"i. c #CEEBF8",
"p. c #DFEBF0",
"a. c #D3EEFB",
"s. c #D3F3FF",
"d. c #DEFCFF",
"f. c #E5E5E5",
"g. c #EAE8E7",
"h. c #EAEAEA",
"j. c #E1ECF1",
"k. c #F0F0F0",
"l. c #F4F8F8",
"z. c #FDFDFC",
"x. c None",
/* pixels */
"x.x.x.x.x.x.x.x.x.x.x.x.x.x.x.x.x.x.x.x.x.x.x.x.x.x.x.x.x.x.x.x.x.x.x.x.x.x.x.x.x.x.x.x.x.x.x.x.x.x.x.x.x.x.x.x.x.x.x.x.x.x.x.x.x.x.x.x.x.x.x.x.x.x.x.x.x.x.x.x.",
"x.x.x.x.x.x.x.x.x.x.x.x.x.x.x.x.x.x.x.x.x.x.x.x.x.x.x.x.x.x.x.x.x.x.x.x.x.x.x.x.x.x.x.x.x.x.x.x.x.x.x.x.x.x.x.x.x.x.x.x.x.x.x.x.x.x.x.x.x.x.x.x.x.x.x.x.x.x.x.x.",
"x.x.x.x.x.x.x.x.x.x.x.x.x.x.x.x.x.x.x.x.x.x.x.x.x.x.x.x.x.x.x.x.x.x.x.x.x.x.x.x.x.x.x.x.x.x.x.x.x.x.x.x.x.x.x.x.x.x.x.x.x.x.x.x.x.x.x.x.x.x.x.x.x.x.x.x.x.x.x.x.",
"x.x.x.x.x.x.x.x.x.x.x.x.x.x.x.x.x.x.x.x.x.x.x.x.x.x.x.x.x.x.x.x.x.x.x.x.x.x.x.x.x.x.x.x.x.x.x.x.x.x.x.x.x.x.x.x.x.x.x.x.x.x.x.x.x.x.x.x.x.x.x.x.x.x.x.x.x.x.x.x.",
"x.x.x.x.x.x.x.x.x.x.x.x.x.x.x.x.x.x.x.x.x.x.x.x.x.x.x.x.x.x.x.x.x.x.x.x.x.x.x.x.x.x.x.x.x.x.x.x.x.x.x.x.x.x.  . X x.x.x.x.x.x.x.x.x.x.x.x.x.x.x.x.x.x.x.x.x.x.x.",
"x.x.x.x.x.x.x.x.x.x.x.x.x.x.x.x.x.x.x.x.x.x.x.x.x.x.x.x.x.x.x.x.x.x.x.x.x.x.x.x.x.x.x.x.x.x.x.x.x.x.x.x.. @ & & % . x.x.x.x.x.x.x.x.x.x.x.x.x.x.x.x.x.x.x.x.x.x.",
"x.x.x.x.x.x.x.x.x.x.x.x.x.x.x.x.x.x.x.x.x.x.x.x.x.x.x.x.  @ @ O . x.x.x.x.x.x.x.x.x.x.x.x.x.x.x.x.x.  @ & & % @ @ O   x.x.x.x.x.x.x.x.x.x.x.x.x.x.x.x.x.x.x.x.x.",
"x.x.x.x.x.x.x.x.x.x.x.x.x.x.x.x.x.x.x.x.x.x.x.x.x.x.x.x.X * * * & &   x.x.x.x.x.x.x.x.x.x.x.x.x.x.  & &     O @ @ +   x.x.x.x.x.x.x.x.x.x.x.x.x.x.x.x.x.x.x.x.x.",
"x.x.x.x.x.x.x.x.x.x.x.x.x.x.x.x.x.x.x.x.x.x.x.x.x.x.x.x.. X O & & t [ O x.x.x.x.x.x.x.x.x.x.x.x.  t [ 7 ..$.= O @ + . x.x.x.x.x.x.x.x.x.x.x.x.x.x.x.x.x.x.x.x.x.",
"x.x.x.x.x.x.x.x.x.x.x.x.x.x.x.x.x.x.x.x.x.x.x.x.x.x.x.x.` -.6   % @ ` ..+ x.x.x.x.x.x.x.x.x.x.x.* #.-.q.q.e.$.  # @ o   x.x.x.x.x.x.x.x.x.x.x.x.x.x.x.x.x.x.x.x.",
"x.x.x.x.x.x.x.x.x.x.x.x.x.x.x.x.x.x.x.x.x.x.x.x.x.x.x.  $.f.u.o.# t t o...o x.x.x.x.x.x.x.x.x.O o.q.q.q.e.t.t.= O @ o . x.x.x.x.x.x.x.x.x.x.x.x.x.x.x.x.x.x.x.x.",
"x.x.x.x.x.x.x.x.x.x.x.x.x.x.x.x.x.x.x.x.x.x.x.x.x.x.x.  :.y.h.g.-.t ' ' o.`   x.x.x.x.x.x.x.x.t q.q.q.t.f.f.h. .  @ o   x.x.x.x.x.x.x.x.x.x.x.x.x.x.x.x.x.x.x.x.",
"x.x.x.x.x.x.x.x.x.x.x.x.x.x.x.x.x.x.x.x.x.x.x.x.x.x.x.+ 0.f.f.f.h.:.t ` [ #.2 x.x.x.x.x.x.x.x.-.w.q.y.g.f.f.h.-.  & X X x.x.x.x.x.x.x.x.x.x.x.x.x.x.x.x.x.x.x.x.",
"x.x.x.x.x.x.x.x.x.x.x.x.x.x.x.x.x.x.x.x.x.x.x.x.x.x.x.& q.f.f.f.f.f.o.N ' [ 0   .       o   t e.q.t.g.f.f.f.h.q.= 7 + @ x.x.x.x.x.x.x.x.x.x.x.x.x.x.x.x.x.x.x.x.",
"x.x.x.x.x.x.x.x.x.x.x.x.x.x.x.x.x.x.x.x.x.x.x.x.x.x.x.* e.f.f.f.f.k.e.5 % @ # O O i ' @ @   o.e.e.f.f.f.h.f.g.e.i i * @ x.x.x.x.x.x.x.x.x.x.x.x.x.x.x.x.x.x.x.x.",
"x.x.x.x.x.x.x.x.x.x.x.x.x.x.x.x.x.x.x.x.x.x.x.x.x.x.x.= e.f.f.f.g.:.= .   i [ o # ..' + @ # -.q.u.h.f.f.f.f.h.e.` i 7 @ x.x.x.x.x.x.x.x.x.x.x.x.x.x.x.x.x.x.x.x.",
"x.x.x.x.x.x.x.x.x.x.x.x.x.x.x.x.x.x.x.x.x.x.x.x.x.x.x.5 e.f.f.f.[ o 5 # O t N o & ' 7 O + = -.e.f.g.f.f.f.f.h.r.` y 5 @ x.x.x.x.x.x.x.x.x.x.x.x.x.x.x.x.x.x.x.x.",
"x.x.x.x.x.x.x.x.x.x.x.x.x.x.x.x.x.x.x.x.x.x.x.x.x.x.x.* e.g.f.7   7 o.# O 5 i o = ' 5 O # y o.r.f.f.g.f.f.f.h.r.N t 5 @ x.x.x.x.x.x.x.x.x.x.x.x.x.x.x.x.x.x.x.x.",
"x.x.x.x.x.x.x.x.x.x.x.x.x.x.x.x.x.x.x.x.x.x.x.x.x.x.x.& e.f.7 @ % # ' * . 7 k + 7 [ * o > v = w.g.f.f.f.f.f.h.e.a t 5 + x.x.x.x.x.x.x.x.x.x.x.x.x.x.x.x.x.x.x.x.",
"x.x.x.x.x.x.x.x.x.x.x.x.x.x.x.x.x.x.x.x.x.x.x.x.x.x.x.O e.[ % #.= . y t   5 ` # t ' & O i e   $.h.f.f.f.g.f.h.0.t e 5 o x.x.x.x.x.x.x.x.x.x.x.x.x.x.x.x.x.x.x.x.",
"x.x.x.x.x.x.x.x.x.x.x.x.x.x.x.x.x.x.x.x.x.x.x.x.x.x.x.@ N # o.o.i O 5 i O 6 k * ` ` @ & ' % % ` r.g.f.f.f.f.h.-.t 7 5   x.x.x.x.x.x.x.x.x.x.x.x.x.x.x.x.x.x.x.x.",
"x.x.x.x.x.x.x.x.x.x.x.x.x.x.x.x.x.x.x.x.x.x.x.x.x.x.x.x.  [ o.` ' = % ' % 5 ` 5 ' y O t t @ N i #.g.f.f.f.f.f.o.e 7 *   x.x.x.x.x.x.x.x.x.x.x.x.x.x.x.x.x.x.x.x.",
"x.x.x.x.x.x.x.x.x.x.x.x.x.x.x.x.x.x.x.x.x.x.x.x.x.x.x.x.7 #.[ N ` k % i 5 2 ' t [ 7 # ` * i ' ` i $.f.g.g.k.q.i e 8 %   x.x.x.x.x.x.x.x.x.x.x.x.x.x.x.x.x.x.x.x.",
"x.x.x.x.x.x.x.x.x.x.x.x.x.x.x.x.x.x.x.x.x.x.x.x.x.x.x.o ....k ` ` ' 7 7 t 5 ' ` ' 5 5 N t ` ` k ` i  .3.q.3.[ i 5 6 + x.x.x.x.x.x.x.x.x.x.x.x.x.x.x.x.x.x.x.x.x.",
"x.x.x.x.x.x.x.x.x.x.x.x.x.x.x.x.x.x.x.x.x.x.x.x.x.x.x.5 #.' ` ` ` ` k e i e ' ` ' = i ` ` ` ` ` ` ' N t i y ` t 7 *   x.x.x.x.x.x.x.x.x.x.x.x.x.x.x.x.x.x.x.x.x.",
"x.x.x.x.x.x.x.x.x.x.x.x.x.x.x.x.x.x.x.x.x.x.x.x.x.x.  [ ..` ` ` ` ` ` ` ` i ` ` ` 7 ` ` ` ` ` ` ` ` ` ' ` ' t & @   &   x.x.x.x.x.x.x.x.x.x.x.x.x.x.x.x.x.x.x.x.",
"x.x.x.x.x.x.x.x.x.x.x.x.x.x.x.x.x.x.x.x.x.x.x.x.x.x.# o.[ ` ` ` ` ` ` N ` ` ` ` k N ` ` ` ` ` ` ` ` ` ` ` ` ` 7 * 7 N o x.x.x.x.x.x.x.x.x.x.x.x.x.x.x.x.x.x.x.x.",
"x.x.x.x.x.x.x.x.x.x.x.x.x.x.x.x.x.x.x.x.x.x.x.x.x.x.7 o.` N ` ` ` ` ` ` ` ` ` ` ` ` ` ` ` ` ` ` k ` ` ` ` ` ` ` [ ' ' & x.x.x.x.x.x.x.x.x.x.x.x.x.x.x.x.x.x.x.x.",
"x.x.x.x.x.x.x.x.x.x.x.x.x.x.x.x.x.x.x.x.x.x.x.x.x.  [ ..` ' ` ` ` ` ` ` ` ` ` ` ` ` ` ` ` ` ` ` ` ` ` ` ` ` ` ` N k [ 5   x.x.x.x.x.x.x.x.x.x.x.x.x.x.x.x.x.x.x.",
"x.x.x.x.x.x.x.x.x.x.x.x.x.x.x.x.x.x.x.x.x.x.x.x.x.o ....` p k ' ` ` ` ` ` ` ` ` ` ` ` ` ` ` ' ` p y N ` ` ` ` ` ` ` ' t   x.x.x.x.x.x.x.x.x.x.x.x.x.x.x.x.x.x.x.",
"x.x.x.x.x.x.x.x.x.x.x.x.x.x.x.x.x.x.x.x.x.x.x.x.x.& o.0 < x r q ` ` ` ` ` ` ` ` ` ` ` ` N ` y 1 c w > t N ` ` ` ` ` ` ' *   x.x.x.x.x.x.x.x.x.x.x.x.x.x.x.x.x.x.",
"x.x.x.x.x.x.x.x.x.x.x.x.x.x.x.x.x.x.x.x.x.x.x.x.  [ ` M 8.5.E F 0 ' ` ` ' ` ` ` ` ` ` ` ' u V 8.6.W G ; t ` ` ` ` ` ` ' i + x.x.x.x.x.x.x.x.x.x.x.x.x.x.x.x.x.x.",
"x.x.x.x.x.x.x.x.x.x.x.x.x.x.x.x.x.x.x.x.x.x.x.x.5 ..$ i.z.z.^ Q S s ` y y y t i y i v ` ' 3 9.z.z.( Q Z : N ` ` ` ` N k ' t   x.x.x.x.x.x.x.x.x.x.x.x.x.x.x.x.x.",
"x.x.x.x.x.x.x.x.x.x.x.x.x.x.x.x.x.x.x.x.x.x.x.o  .p n 6.z.p.l I / 9  .$.3.w.e.q.3.$...i p C 4.z.j.l K T ; i ` ` ` ` ' ` ` ] =   x.x.x.x.x.x.x.x.x.x.x.x.x.x.x.x.",
"x.x.x.x.x.x.x.x.x.x.x.x.x.x.x.x.x.x.x.x.x.x.  @ 2 , D U m l H 7.L *.e.;.<.;.w.h.h.h.f.q.X.Z U m l H 7.P - v ` ` t 5 7 i ` i 7 + x.x.x.x.x.x.x.x.x.x.x.x.x.x.x.x.",
"x.x.x.x.x.x.x.x.x.x.x.x.x.x.x.x.x.x.x.x.x.x.x.X = i w ~ E b a.s.@.y.O.1.2.,.h 0.h.f.f.h.f.-.W E b i.d.z , ` ` ` ' i = @ @ # & X x.x.x.x.x.x.x.x.x.x.x.x.x.x.x.x.",
"x.x.x.x.x.x.x.x.x.x.x.x.x.x.x.x.x.x.x.x.x.x.x.  & 7 y 4 R ) ! J t.u.f >.,.j g <.k.f.f.f.f.g.=.Y ) ~ m > v ` i ' ` 7 ` 5 @     x.x.x.x.x.x.x.x.x.x.x.x.x.x.x.x.x.",
"x.x.x.x.x.x.x.x.x.x.x.x.x.x.x.x.x.x.x.x.x.x.x.x.  = * 8 q 6 } y.g.g.r.%.d +.0.j.f.f.f.f.f.f.g.X.6 9 9 ` ` ' t 5 ' 7 o & *   x.x.x.x.x.x.x.x.x.x.x.x.x.x.x.x.x.x.",
"x.x.x.x.x.x.x.x.x.x.x.x.x.x.x.x.x.x.x.x.x.x.x.x.x.o + 6 i i q.h.f.f.g.l.B r.z.f.f.f.f.f.f.f.g.q.i ' ' ' ` ' ` # & 0 *     x.x.x.x.x.x.x.x.x.x.x.x.x.x.x.x.x.x.x.",
"x.x.x.x.x.x.x.x.x.x.x.x.x.x.x.x.x.x.x.x.x.x.x.x.x.x.+ 5 7 2 0.f.f.f.q.o.k N #.0.f.f.h.f.h.f.g.t.` ` N i t e 7 &   & %   x.x.x.x.x.x.x.x.x.x.x.x.x.x.x.x.x.x.x.x.",
"x.x.x.x.x.x.x.x.x.x.x.x.x.x.x.x.x.x.x.x.x.x.x.x.x.x.x.O 5 = $.e.e.t.r.0.f.e.0.f.f.f.t.y.y.t.t.q.7 7 7 5 5 7 6 * .   x.x.x.x.x.x.x.x.x.x.x.x.x.x.x.x.x.x.x.x.x.x.",
"x.x.x.x.x.x.x.x.x.x.x.x.x.x.x.x.x.x.x.x.x.x.x.x.x.x.x.x.  % 7 :.e.q.e.e.q.e.e.q.q.q.w.q.w.q.e.-.= 7 5 5 = & @ . x.x.x.x.x.x.x.x.x.x.x.x.x.x.x.x.x.x.x.x.x.x.x.x.",
"x.x.x.x.x.x.x.x.x.x.x.x.x.x.x.x.x.x.x.x.x.x.x.x.x.x.x.x.x.x.  # ..:.0.q.e.q.q.q.q.q.q.0.:.-.$.i % % @ o     x.x.x.x.x.x.x.x.x.x.x.x.x.x.x.x.x.x.x.x.x.x.x.x.x.x.",
"x.x.x.x.x.x.x.x.x.x.x.x.x.x.x.x.x.x.x.x.x.x.x.x.x.x.x.x.x.x.x.x.    @ * 5 7 5 = 5 > & # % @     x.x.x.x.x.x.x.x.x.x.x.x.x.x.x.x.x.x.x.x.x.x.x.x.x.x.x.x.x.x.x.x.",
"x.x.x.x.x.x.x.x.x.x.x.x.x.x.x.x.x.x.x.x.x.x.x.x.x.x.x.x.x.x.x.x.x.x.x.x.x.  t q.w.r.q.` v v i = x.x.x.x.x.x.x.x.x.x.x.x.x.x.x.x.x.x.x.x.x.x.x.x.x.x.x.x.x.x.x.x.",
"x.x.x.x.x.x.x.x.x.x.x.x.x.x.x.x.x.x.x.x.x.x.x.x.x.x.x.x.x.x.x.x.x.x.x.x.x.@ e.k.h.g.k.0.7 = ` ..t   x.x.x.x.x.x.x.x.x.x.x.x.x.x.x.x.x.x.x.x.x.x.x.x.x.x.x.x.x.x.",
"x.x.x.x.x.x.x.x.x.x.x.x.x.x.x.x.x.x.x.x.x.x.x.x.x.x.x.x.x.x.x.x.x.x.x.x.  o.h.f.f.f.f.f. .2 & t [ `   x.x.x.x.x.x.x.x.x.x.x.x.x.x.x.x.x.x.x.x.x.x.x.x.x.x.x.x.x.",
"x.x.x.x.x.x.x.x.x.x.x.x.x.x.x.x.x.x.x.x.x.x.x.x.x.x.x.x.x.x.x.x.x.x.x.x.  q.h.f.f.f.f.h.-.a 5 * i [ t x.x.x.x.x.x.x.x.x.x.x.x.x.x.x.x.x.x.x.x.x.x.x.x.x.x.x.x.x.",
"x.x.x.x.x.x.x.x.x.x.x.x.x.x.x.x.x.x.x.x.x.x.x.x.x.x.x.x.x.x.x.x.x.x.x.x.5 f.f.f.f.g.f.h.w.i ` & t ` [ & x.x.x.x.x.x.x.x.x.x.x.x.x.x.x.x.x.x.x.x.x.x.x.x.x.x.x.x.",
"x.x.x.x.x.x.x.x.x.x.x.x.x.x.x.x.x.x.x.x.x.x.x.x.x.x.x.x.x.x.x.x.x.x.x.  ..h.f.f.f.f.f.g.y.' i # 5 ` [ e % * x.x.x.x.x.x.x.x.x.x.x.x.x.x.x.x.x.x.x.x.x.x.x.x.x.x.",
"x.x.x.x.x.x.x.x.x.x.x.x.x.x.x.x.x.x.x.x.x.x.x.x.x.x.x.x.x.x.x.x.x.x.@   -.h.f.f.f.g.f.f.f...i * * ` ' y = ..* x.x.x.x.x.x.x.x.x.x.x.x.x.x.x.x.x.x.x.x.x.x.x.x.x.",
"x.x.x.x.x.x.x.x.x.x.x.x.x.x.x.x.x.x.x.x.x.x.x.x.x.x.x.x.x.x.x.x.x.& 7 O :.h.f.f.f.f.f.f.g.#.i * & t ` #.% ` [ # x.x.x.x.x.x.x.x.x.x.x.x.x.x.x.x.x.x.x.x.x.x.x.x.",
"x.x.x.x.x.x.x.x.x.x.x.x.x.x.x.x.x.x.x.x.x.x.x.x.x.x.x.x.x.x.x.x.  0.-.  :.h.f.f.f.f.f.f.g.o.N = 7 q.f.0.  = [ ` #   + o x.x.x.x.x.x.x.x.x.x.x.x.x.x.x.x.x.x.x.x.",
"x.x.x.x.x.x.x.x.x.x.x.x.x.x.x.x.x.x.x.x.x.x.x.x.x.x.x.x.x.x.x.x.x...k.e ..g.f.f.f.f.u.h.t.` ` e % o.o.  x.  t ` = # % % X x.x.x.x.x.x.x.x.x.x.x.x.x.x.x.x.x.x.x.",
"x.x.x.x.x.x.x.x.x.x.x.x.x.x.x.x.x.x.x.x.x.x.x.x.x.x.x.x.x.x.x.x.x.x.` 5 & 3.h.g.h.h.h.g.#.i t 7 & x.x.x.x.x.% 7 @ @ + @ O x.x.x.x.x.x.x.x.x.x.x.x.x.x.x.x.x.x.x.",
"x.x.x.x.x.x.x.x.x.x.x.x.x.x.x.x.x.x.x.x.x.x.x.x.x.x.x.x.x.x.x.x.x.x.x.x.+ 5 #.q.r.t.0.o.0 N t * o x.x.x.x.x.x.@ @ @ @ @ . x.x.x.x.x.x.x.x.x.x.x.x.x.x.x.x.x.x.x.",
"x.x.x.x.x.x.x.x.x.x.x.x.x.x.x.x.x.x.x.x.x.x.x.x.x.x.x.x.x.x.x.x.x.x.x.x.O # % 5 t 7 = # y '  .0 x.x.x.x.x.x.x.x.o O + X x.x.x.x.x.x.x.x.x.x.x.x.x.x.x.x.x.x.x.x.",
"x.x.x.x.x.x.x.x.x.x.x.x.x.x.x.x.x.x.x.x.x.x.x.x.x.x.x.x.x.x.x.x.x.x.x.x.y [ # % & 2 & & ' N  ...o x.x.x.x.x.x.x.x.x.x.x.x.x.x.x.x.x.x.x.x.x.x.x.x.x.x.x.x.x.x.x.",
"x.x.x.x.x.x.x.x.x.x.x.x.x.x.x.x.x.x.x.x.x.x.x.x.x.x.x.x.x.x.x.x.x.x.x.  [ o.` e * O   7 ' N  .o.& x.x.x.x.x.x.x.x.x.x.x.x.x.x.x.x.x.x.x.x.x.x.x.x.x.x.x.x.x.x.x.",
"x.x.x.x.x.x.x.x.x.x.x.x.x.x.x.x.x.x.x.x.x.x.x.x.x.x.x.x.x.x.x.x.x.x.x.O o.o.` ' ` % o y ' k ..#.= x.x.x.x.x.x.x.x.x.x.x.x.x.x.x.x.x.x.x.x.x.x.x.x.x.x.x.x.x.x.x.",
"x.x.x.x.x.x.x.x.x.x.x.x.x.x.x.x.x.x.x.x.x.x.x.x.x.x.x.x.x.x.x.x.x.x.x.# o.o.` ` i & @ i ` ` ..o.5 x.x.x.x.x.x.x.x.x.x.x.x.x.x.x.x.x.x.x.x.x.x.x.x.x.x.x.x.x.x.x.",
"x.x.x.x.x.x.x.x.x.x.x.x.x.x.x.x.x.x.x.x.x.x.x.x.x.x.x.x.x.x.x.x.x.x.x.% o...` ` ` * # i ` ` ..o.5 x.x.x.x.x.x.x.x.x.x.x.x.x.x.x.x.x.x.x.x.x.x.x.x.x.x.x.x.x.x.x.",
"x.x.x.x.x.x.x.x.x.x.x.x.x.x.x.x.x.x.x.x.x.x.x.x.x.x.x.x.x.x.x.x.x.x.x.& o.o.` ` ` * % i ` ` ..o.7 x.x.x.x.x.x.x.x.x.x.x.x.x.x.x.x.x.x.x.x.x.x.x.x.x.x.x.x.x.x.x.",
"x.x.x.x.x.x.x.x.x.x.x.x.x.x.x.x.x.x.x.x.x.x.x.x.x.x.x.x.x.x.x.x.x.x.x.& o...` ` ' & # i ' ` ..o.5 x.x.x.x.x.x.x.x.x.x.x.x.x.x.x.x.x.x.x.x.x.x.x.x.x.x.x.x.x.x.x.",
"x.x.x.x.x.x.x.x.x.x.x.x.x.x.x.x.x.x.x.x.x.x.x.x.x.x.x.x.x.x.x.x.x.x.x.& ..[ i a 7 & 5 7 7 i i o.7 x.x.x.x.x.x.x.x.x.x.x.x.x.x.x.x.x.x.x.x.x.x.x.x.x.x.x.x.x.x.x.",
"x.x.x.x.x.x.x.x.x.x.x.x.x.x.x.x.x.x.x.x.x.x.x.x.x.x.x.x.x.x.x.x.x.x.x.* 0.$.} ' $...i 0.$.$.-.q.t x.x.x.x.x.x.x.x.x.x.x.x.x.x.x.x.x.x.x.x.x.x.x.x.x.x.x.x.x.x.x.",
"x.x.x.x.x.x.x.x.x.x.x.x.x.x.x.x.x.x.x.x.x.x.x.x.x.x.x.x.x.x.x.x.x.x.x.x.o.e.w.e.q.5   ..q.q.q...x.x.x.x.x.x.x.x.x.x.x.x.x.x.x.x.x.x.x.x.x.x.x.x.x.x.x.x.x.x.x.x.",
"x.x.x.x.x.x.x.x.x.x.x.x.x.x.x.x.x.x.x.x.x.x.x.x.x.x.x.x.x.x.x.x.x.x.x.x.x.* t 6   x.x.x.  #   x.x.x.x.x.x.x.x.x.x.x.x.x.x.x.x.x.x.x.x.x.x.x.x.x.x.x.x.x.x.x.x.x.",
"x.x.x.x.x.x.x.x.x.x.x.x.x.x.x.x.x.x.x.x.x.x.x.x.x.x.x.x.x.x.x.x.x.x.x.x.x.x.x.x.x.x.x.x.x.x.x.x.x.x.x.x.x.x.x.x.x.x.x.x.x.x.x.x.x.x.x.x.x.x.x.x.x.x.x.x.x.x.x.x.",
"x.x.x.x.x.x.x.x.x.x.x.x.x.x.x.x.x.x.x.x.x.x.x.x.x.x.x.x.x.x.x.x.x.x.x.x.x.x.x.x.x.x.x.x.x.x.x.x.x.x.x.x.x.x.x.x.x.x.x.x.x.x.x.x.x.x.x.x.x.x.x.x.x.x.x.x.x.x.x.x."
};
