/* XPM */
static char *_cb58c72d3b841cef50add4e0c81b04aNGJBO5Vm9MuMUK5n[] = {
/* columns rows colors chars-per-pixel */
"80 80 217 2 ",
"   c #060404",
".  c #0B0606",
"X  c #0A0807",
"o  c #0D0A0A",
"O  c #130707",
"+  c #140807",
"@  c #140D0C",
"#  c #1B0C0B",
"$  c #16100F",
"%  c #19100F",
"&  c #161111",
"*  c #1C1413",
"=  c #1D1817",
"-  c #1E1A19",
";  c #220E0D",
":  c #2B0F0F",
">  c #28100F",
",  c #221514",
"<  c #2B1313",
"1  c #231817",
"2  c #2B1817",
"3  c #241C1A",
"4  c #2A1D1B",
"5  c #331414",
"6  c #3B1515",
"7  c #321817",
"8  c #3A1817",
"9  c #331C1B",
"0  c #3C1B1A",
"q  c #26201F",
"w  c #2C211F",
"e  c #32211F",
"r  c #3B211F",
"t  c #262322",
"y  c #2D2422",
"u  c #2E2826",
"i  c #2E2B2B",
"p  c #332523",
"a  c #3B2523",
"s  c #342826",
"d  c #3B2926",
"f  c #342C2A",
"g  c #3B2D2A",
"h  c #35302F",
"j  c #3C312E",
"k  c #353332",
"l  c #3C3433",
"z  c #3B3837",
"x  c #3D3B3A",
"c  c #411717",
"v  c #441B1B",
"b  c #4B1C1C",
"n  c #531E1E",
"m  c #591F1F",
"M  c #42211F",
"N  c #49201F",
"B  c #442423",
"V  c #4C2322",
"C  c #412926",
"Z  c #4C2927",
"A  c #432D2A",
"S  c #4C2B2A",
"D  c #542423",
"F  c #5C2222",
"G  c #552827",
"H  c #5B2827",
"J  c #532B2A",
"K  c #5C2C2B",
"L  c #44312E",
"P  c #4A322F",
"I  c #5A302F",
"U  c #433532",
"Y  c #4B3532",
"T  c #443936",
"R  c #4C3936",
"E  c #443C3A",
"W  c #4B3D3A",
"Q  c #543533",
"!  c #5B3433",
"~  c #523A36",
"^  c #5A3B37",
"/  c #533D3A",
"(  c #5B3C3A",
")  c #642424",
"_  c #6B2626",
"`  c #632B2A",
"'  c #6B2B2A",
"]  c #712727",
"[  c #742B2B",
"{  c #7B2C2C",
"}  c #6B312F",
"|  c #76302F",
" . c #633332",
".. c #6B3433",
"X. c #653C3A",
"o. c #693B3A",
"O. c #743332",
"+. c #7A3332",
"@. c #753B3A",
"#. c #45403F",
"$. c #4C413E",
"%. c #53413E",
"&. c #5A423E",
"*. c #64423E",
"=. c #73403F",
"-. c #454342",
";. c #4C4442",
":. c #4C4847",
">. c #4D4B4A",
",. c #534543",
"<. c #5B4642",
"1. c #554946",
"2. c #5C4946",
"3. c #544C4B",
"4. c #5A4D4A",
"5. c #53504F",
"6. c #5D514E",
"7. c #555353",
"8. c #5B5453",
"9. c #5C5857",
"0. c #5D5B5B",
"q. c #614642",
"w. c #634A45",
"e. c #6E4844",
"r. c #634E49",
"t. c #6A4D4A",
"y. c #764645",
"u. c #744C4A",
"i. c #63514D",
"p. c #6C524D",
"a. c #76524D",
"s. c #625553",
"d. c #6B5552",
"f. c #655956",
"g. c #6C5955",
"h. c #645D5B",
"j. c #6A5D5A",
"k. c #725651",
"l. c #745A54",
"z. c #7A5B56",
"x. c #7A5C56",
"c. c #735E59",
"v. c #62605F",
"b. c #6D615E",
"n. c #75615D",
"m. c #7A635D",
"M. c #656362",
"N. c #6C6463",
"B. c #6A6867",
"V. c #6D6B6A",
"C. c #726562",
"Z. c #7C6661",
"A. c #746966",
"S. c #7A6965",
"D. c #726D6D",
"F. c #7A6D6A",
"G. c #71706F",
"H. c #7D716E",
"J. c #757372",
"K. c #797575",
"L. c #7D7877",
"P. c #7D7B7A",
"I. c #852F2F",
"U. c #823332",
"Y. c #8C3232",
"T. c #813D3B",
"R. c #943535",
"E. c #9A3939",
"W. c #854F4C",
"Q. c #914949",
"!. c #835957",
"~. c #83635C",
"^. c #846A64",
"/. c #866A65",
"(. c #896C65",
"). c #846E69",
"_. c #8C726C",
"`. c #91736C",
"'. c #827573",
"]. c #857976",
"[. c #8A7874",
"{. c #837C7B",
"}. c #8B7D7B",
"|. c #937973",
" X c #937974",
".X c #9A7C75",
"XX c #967E7A",
"oX c #82807F",
"OX c #8D817E",
"+X c #93827F",
"@X c #9B827B",
"#X c #858282",
"$X c #8B8585",
"%X c #8B8887",
"&X c #8C8B8B",
"*X c #928582",
"=X c #9A8984",
"-X c #998A87",
";X c #928D8C",
":X c #9C8E8B",
">X c #9B918F",
",X c #949292",
"<X c #9B9594",
"1X c #999897",
"2X c #9B9999",
"3X c #A38B84",
"4X c #AA928B",
"5X c #A59996",
"6X c #A39D9C",
"7X c #A4A3A2",
"8X c #ABA7A6",
"9X c #B6ACA9",
"0X c #BAB3B2",
"qX c #C5BCB9",
"wX c #C9C1BE",
"eX c #CEC5C3",
"rX c #D0C8C6",
/* pixels */
"* * * 1 1 1 1 1 1 1 * * 1 1 1 = 1 3 4 y y 3 < 2 s f g g s y 4 w w y B s s g g g s s g g U U U U U U R R %.<.4.i.r.r.4.2.2.4.2.2.*.X.2.2.2.2.2.2.<.,.,.^ I R R R ",
"* y z 3.>.-.:.8.-.3 * 1 f l l f y s p y y < 5 2 U R Y j g p 4 w 4 9 B s f j U l g g g j U j j j U U T R W %.,.2.2.4.g.d.w.i.2.f.g.i.2.,.&.&.,.<.,.,.,.Q Y W W Y ",
"3 >.M.V.D.B.V.P.M.k * s 1.f.f.6.1.4.l y w p a P %.p.k.p.p.~ p 3 4 C j.B.D.D.J.V.M.T g j s u f j f l T T l f g ,.%.4.m.XX}.F.j.C.g.}.A.<.&.%.,.s.f.f.r.^ ,.1.1.Q ",
"u M.J.V.M.0.J.K.B.-.4 4.4.j.A.f.8.4.l 4 4 M v P <.p.x.x.x.&.g 1 4 Q ;X1X;XP.M.B.0.x g j s s f l j l l l f y * U W W t.^.*X}.F.C.k.).Z.<.2.4.f.j.f.f. .%.;.4.s.8.",
"s B.B.M.D.B.K.G.V.>.y s.s.4.i.Q 4.3.l 3 v F G ~ / p.l.k.z.&.A 1 < d.1X6X1XoXM.0.>.z j j j l l l l l E l s - X p R j 4.'.].'.].].].A.A.i.2.i.C.f.3.2.! / ,.f.j.s.",
"s h.J.K.D.M.M.B.h.1.s s.A.C.i.S 4.3.l w b V A P Y <.p.k.l.~ A * 7 A.2X2X&XK.9.9.M.7.s s j l T l E E E T s = & p R W g.Z.H.H.C.j.j.C.A.2.<.s.N.s.4.,.%.2.6.N.j.3.",
"y -.>.3.3.:.>.>.>.-.y s.b.6.1.,.3.E f 9 b S Y R / &.p.p.t./ P 2 b A.1X1X%XP.M.7.9.7.u y f l l T E $.1.;.E l y g W f.S.y.g.A.6.1.4.6.f.W %.i.j.s.6.<.%.2.s.8.s.6.",
"4 f x z z z x E -.f 3 $.1.;.T l j s y 2 0 A Y P P / &.q.<.~ P 0 B B.J.J.V.V.M.>.-.x y p p u f l l E ;.E h l s L %.;.4.4.4.4.,.E ,.1.1.W <.2.4.;.R Y K ` ~ l E T ",
"3 3 4 1 = 1 1 3 4 * 4 y f s y - 1 4 4 v r e 4 1 1 p d P ~ ~ d 4 w ;.7.7.3.5.8.>.x u y s s y y u s f g f y s g R 2.,.W $.$.$.W U W ,.R %.2.%.l A d Z ' ' J j g d ",
"1 1 3 3 3 3 3 w 4 4 w 3 * * & $ @ % b ) 7 * % @ @ 1 w p p p 3 9 y y s s y y y y 4 w s s g s s g g g T U g j R 2.i.2.<.<.&.2.2.2.r.i.r.*./ R g C C Z ` _ J L g g ",
"3 3 3 4 y w 4 w y p p y y 4 * * @ $ 7 8 , * % % & 1 y p y 3 9 V e y y 4 4 y p l ,.1.1.,.W R U ,.4.R W / %.2.f.F.F.F.S.u.y.c.c.c.g.c.u.+.^ <.&.q.w.~ Q J R F.'.}.",
"1 1 p g Y P P A Y P / R R d 1 * * 7 2 3 7 2 , * * 1 p p p y B H E 1.4.,.R f j A.:X*X}.}.OX}.].5X<X4.! e.#X;X;X,X;X#X,X{.N.s.c.n.n.z.x.W._.|.a._.c./ R T ].rXwXqX",
"3 3 d P P P P A P Y / &./ A 4 1 0 [ ` B p y 4 , 1 y E $.;.R J / j.].].u.g.g 1.>X5X$X'.{.>X6X5X9X8XC.Y z.7X8X7X,X,X&X,X&XK.9.g.n.)._.-X3X@X|..X3X_.d.W T <XeXrXqX",
"4 4 p A a a Y P A A C R R 9 4 1 D ` S l k k f 4 4 g ;.3.6.&.! 1.8.H.}.C.4.s ,.{.<X*X].-X5X7X9X0X9X].T j.8X8X6X2X,X;X&X#X%XN.i.c.|.XX@X@X_._.3X4X@X).<.g {.9XqX0X",
"4 w d d p d Y Y Y P A Y R A w 2 _ S E x -.-.i w y l ,.s.f.o.q.s.j.'.].b.T w ,.].-X}.{.$X>X6X9X9X5X].T j.7X0X9X7X&X1X%X%X&XF.d.c.^.@XXX_.^.|.@X3XXXm.r.U n.6XqX9X",
"3 4 d g A P P R R R P g d A 4 c _ U >.5.8.-.i y s 3.6.f.g.X.s.j.F.H.C.8.l 4 ,.H.}.'.F.A.'.+XXX5XOXF.U N.8X0X:X{.P.,X2X7X%XF.g.g.^.XXXX)._.|.|.XX_.i.<.A ! !. X5X",
"1 4 d A A P P Y A d p p e e 2 6 e x -.h.M.>.x y g j.s.C.e.t.j.j.C.f.8.W s 4 E N.A.j.h.b.A.}.}.:X:XC.L F.7X-XQ.c.V.K.#X&XL.N.d.k.^._.`.m._._._.Z.d.&./ d D H H K ",
"* 1 e a p a a 4 2 4 4 4 4 , 5 6 2 z -.h.9.8.l y g 4.3.g.o.c.C.f.f.s.T f y w s ,.4.3.s.F.H.H.OX*X*X;.g s.,X*XQ.u.3.-.>.7.B.s.p.a.l.c.e...p.d.p.r./ A a 7 c N V b ",
"* 1 1 1 1 3 4 2 < 1 3 4 3 < 6 c 9 s h s s s w y s ;.E ~ ^ s.4.1.,.W s 4 3 y p p s f g U U U U l g p U R 3.d.t.$.l l l E 1.r.d.y.p.w.K J U L g y 3 1 < 5 7 7 7 7 ",
"1 3 4 1 * 1 3 4 3 3 4 y w 7 6 7 y p y y 3 3 y y 3 s s a a y w y y w 4 4 y p s s p p p s p s H Q <.w.w.2.&.%.U f s s g U 2.d.c.n.n.d.^ / R j g w 3 3 4 2 7 < < 5 ",
"3 4 4 4 4 w y y 4 y p p 9 5 < p g j g p w 4 y p y w 4 2 4 3 y w w y p s f f g g j l f f g %.a.!.`._.^..X.Xx.P e p 9 j ,.g.n.*X-X:X].).F.4.U g y 4 p 9 8 8 7 7 8 ",
"f l l h f 4 3 4 4 y s 0 b 8 d / %.%./ g 4 p E ,.1.,.C R ,.1.4.T y f T l l T l l l f u s j z._._._._.`..X|.u.D 2 1 p W s.j.F.:X-X5X:X].}.j.%.T g A P v v v c v v ",
"x k x z i 3 * 1 w s a F b d W r.<.%.U g 3 j 4.s.j.<.J n.C.s.$.$.g U ;.E T U l f f u y y L z.(.(.^._..X~.y.O._ 6 < V ^ s.A.F.}.:X:X+X*XF.4.%.W R / ^ G G D D N v ",
"k u k x i 3 * * y L H [ V R i.g.i.2.Y s 3 l ;.8.6.S r.F.A.j.E $.U T $.E l l l s f u 1 p %.^.(.(.`.|.|.X._ _ F c c F K <.C.H.F.}.OX'.'.8.W T W / q.! ` K ` K V 8 ",
"k i i x x t & * 4 H U.[ Y W %.i.d./ L s 1 T $.s.<.J j.S.j.4.W W f T l E l l f y y = & p %.c.^.(.`.@X^.V n ) m c b _ ) P 1.f.j.C.s.Q ,.U T L T &.w.K ` G G H V v ",
"k k i k z t & & 9 U.Y.J L g U <.r.W g p * l E ,.K P 4.6.,.W W T p g u s w y 3 * & @ * j %.<.w.z.~.^.w.a b ) m c 6 n F b a g E W L F D D Z T T / &.Q D N N v v v ",
"i t t t u - @ @ 2 { _ 4 y p g U R j d 3 * f f Z ) g T $.,./ R g w g f y 3 * o @ * 1 p R %.R R Y / Y 9 7 c m v 6 c c n 6 < 3 4 3 4 8 b _ K R R R P A 7 7 8 8 v 0 ",
"- & & - 3 * @ @ < F c * 3 4 4 w w 4 3 * * 3 y D V f j T A B s y s g g y w 4 3 y g j U R W R U g p 3 % 5 5 c 6 : v c c : # @ * * 1 3 8 F J U R L d p 3 1 2 7 0 8 ",
"* & @ @ @ @ @ ; 5 5 ; @ * * 3 y s y 4 4 w y 8 v 9 w y w w p g j g f g g g U U U T R %.%./ R g g s 3 * # ; 5 : : 5 6 v : + @ * 1 4 4 f P Y T W 4.3.$.l l E d M v ",
"& & * * * * * 6 < X @ @ * p E 3.f.s.4.1.,.~ J 4 3 y s l E $.$.W W E j s j U ;.8.7.9.M.h.h.8.T f p w < # ; 5 5 5 6 6 5 : ; < f T ,./ s.C.$.U s.K.M.9.9.9.M.9.Q D ",
"* = - - - * < c , X @ $ 1 l ,.6.j.f.f.s.i.! ^ y 3 f T E W -.E l T E f w s E d.N.B.h.V.K.K.M.-.l j d 8 c b 6 5 6 6 6 6 c n n P s.'.}.].].8.U h.K.B.h.M.7.9.v.R D ",
"- - - 3 , < < ; * @ @ * y W 3.s.j.f.b.b.d.` R y 4 j T T E E l l l l u 3 4 3.F.D.j.g.J.V.B.7.-.T R ~ B F _ _ m n v b F m _ ] =.}.-X+X*X].s.U V.#X#XG.h.7.7.8.;.S ",
"- - - 3 * 5 5 # * @ $ 1 y E ;.s.C.b.C.b.X.^ $.y 4 f T E T T l j f u q * p 4.J.K.D.J.P.K.J.M.3.E / %.V F ) ] _ ) F _ _ _ _ { u.+XXX-X-X].s.R K.P.J.7.-.0.0.0.8.W ",
"* = - 1 < 5 ; & * @ @ 1 3 f l 1.1.4.6.! K ,.$.p 1 l T f f f f s i s q * p 1.f.f.J.K.{.P.K.J.9.T L ~ Z _ ] [ _ _ F _ ] _ _ u.[.}.}.}.'.A.%.Q 7.7.5.W l 7.M.7.>.R ",
"* * & # 5 ; X @ @ o @ * * 3 y j l l g D S W W s * u f y t y y q 3 - * * p E 1.;.9.V.J.J.V.M.8.j A ~ A B _ [ _ _ _ _ ) m Z C.'.Z.d.f.6.3.T U 1.-.-.E z E 3.7.-.T ",
"$ @ X # : + X X o o @ * * 1 4 y u u e d U l l 4 3 y y 1 1 1 * * * & * 1 p g l -.>.>.7.7.8.8.-.Z | ! A r D _ ' F _ { _ c s 1.1.~ J T E T g Y <.$.T j E W $.;.W / ",
"& @ @ # # @ $ @ & @ * 1 1 4 w 3 1 * , 4 w 4 3 4 p p p y p p y w 4 4 p y f g g g f s f k ! ..p ' O.d a 0 0 e r 7 v ] _ 7 w g s s s p s p j ^ &.%./ / %.<.2.<.2.2.",
"l w # ; # * 3 p y 3 3 3 3 w p y 4 < 4 s f g f g f g f f g g g j g s s g l T R U g s p y K Y.B B a p p 4 * 1 1 * 1 0 0 4 p J ' S j d 9 g U W ,.%.%.%.<.2.4.4.r.4.",
"j.Y 6 7 * 1 g U L g s p s g g p < 2 l 9.9.v.0.0.7.7.8.>.g g W f.8.,.4.6.f.b.f.;.l p s g  ...d p s f s p 3 w 4 3 4 w l E E O.R. .U d p P ~ ~ %.r.r.<.w.w.w.2.4.4.",
"s.a 0 g 1 p L L g g g L Y %.Y 9 < 4 ;.B.M.8.7.8.0.0.9.3.f g 3.N.j.6.s.f.N.N.f.4.$.s y $.,.$.W $.4.2.! R ,.4.y 1 4 ;.D.K.P.!.+.A U Y ~ ( Y ^ / r.x.p.t.w.w.Y %.2.",
"<.v A T 3 g U Y L L U U %.%.d 9 1 w 5.V.B.8.>.8.M.h.7.-.u g 4.8.4.f.C.N.b.A.A.b.3.s y / q.4.,.6.6.y.@.R 4.j.T 1 f B.P.#X%XF.( f U &.&.q.&.*.e.r.k.&.~ ^ &.g R 2.",
"Z v Y l 4 L j L g g s Y <.R a 4 1 y 3.M.B.B.h.M.3.7.9.x u f ;.,.8.C.A.N.h.N.H.F.8.s s 4.s.j.b.b.1.t.t.;.s.f.T , A J.#X%X%X!.o.l P o.*.t.w.( &.w.t.~ &.~ ~ A Y 2.",
"c v R l w d w s g g L U U r p 4 1 3 3.V.J.J.B.M.3.7.0.-.u s T ;.b.A.f.8.b.A.F.N.6.f e / ;.1.f.C.4.W 4.4.8.s.l * s C.!.oX#XM.T f U ( w.<.Y Y Y ~ / A / %.~ P Y ,.",
"c a l j 1 4 4 3 y p p p 4 < w 4 1 1 >.V.M.9.8.0.0.7.-.x u p l ;.h.N.s.~ s.A.A.s.3.g 8 g g T 4.8.6.R 1.6.4.4.f * u f.y.u.N.7.l A U %.&.Y d P Y A d a Y ~ ~ Y U %.",
"8 g l y 1 1 1 * * 1 1 , < 1 4 4 1 1 l 8.7.>.>.-.E x E k 4 y f E 3.7.;.P ,.<.4.1.W 9 9 f s g J j l j j T E ;.f * 4 3.3.! ,.W l B W <.P 4 9 p d P P Y %.%.R A g W ",
", 1 1 * 1 * @ @ @ $ % ; < 1 * 1 * 4 y g l z z k h f k u 3 w 4 y y y p u s r a s 4 3 y p p s D s e v * 1 u j s * 4 f l s l E d p W ,.U s g g d A Y ~ R P A d j W ",
"* * @ * * * @ X X # : < # * 1 1 1 4 e y w 4 3 1 1 1 1 1 3 3 3 3 3 w p w 3 w p p s s f f y 1 3 1 9 b * - 1 y w 1 y s y 4 p K ' A R %.%.$.W W W W R U L g g g R W ",
"1 3 1 3 4 * @ X # 6 6 8 a g U U s y y 4 1 * * & * & & 3 - & = 4 w y l 8.9.M.P.L.N.h.P.V.0.f 4 4 w w 1 1 1 p g / &.R s s U ! O.! R %.4.%.T g / <.%.j f f l E T T ",
"4 4 4 p e 1 & * 7 c c B Y R U Y U w 4 1 $ @ @ $ * & & 3 q , 1 = 1 2 7.&X%X{.;X1Xj.q.,X2X%X-.y s s a d a d P ~ &.<.~ a g R ~ ~ <.1.,.%... .9 U <.s u f l l E f u ",
"1 4 4 e 4 * * , 6 c c a P U g e p 4 3 1 o @ @ @ * & & 3 4 7 * & * 4 7.,X#XL.&X{.Z g.7X7X#X3.p g g d P A A ~ / / &.~ a s U T $.,.W f L U.E.+.P %.y y s f f f s y ",
"1 1 4 4 1 * * * 2 7 7 d g p p 4 4 4 * * @ & & @ @ o & - 4 1 & & 1 w >.K.K.{.P.N.1.K.2X&X9.-.y s s , 4 C C A ~ ~ ~ P p d U g u p u 4 y ..E.E. .W y 4 4 q 4 4 t q ",
"1 , 1 , % @ * * 4 e p d g g s 4 4 * @ 1 * * * & & @ o & * * & * 3 3 -.M.M.M.M.h.V.K.V.D.M.-.4 p s 4 1 e p d d p a d p s j p @ 1 p u y J R.R. .R s - 4 4 4 y y y ",
"% # # @ @ @ * * * 4 4 4 w y 3 1 1 @ @ * * 1 - * & @ X o $ @ * 1 1 3 l 7.-.-.8.9.M.B.3.>.E u w s g s p g U U j j U j s w p s 4 y g U W P  ...~ W U s U E E E E j ",
"* * % @ # , 4 3 * * @ @ * 3 y w 4 f E W l T g * # < * 3 w p s g s w w u 4 w s h l E T f y 3 4 p j j $.6.4.s.n.A.j.;.s 1 y R R d.n.Z.).t.c.^.p.Q ! ! o.g.M.V.K.M.",
"1 4 1 , % , 4 4 1 * @ 1 l ,.,.$.s.f.j.b.s.f.2.< * 3 d P P P Y / R d 4 w 4 w s l ;.;.,.-.f 4 3 p ;.1.C.j.f.f.A.C.s.E g * ,.c.i.Z.^.n.z.+.!.!.y.} +.U.Y.u.V.D.J.B.",
"4 4 4 4 1 4 e 1 * @ & l 3.8.4.1.f.f.j.j.C.F.6.1 * g &.~ Y Y Y R Y a 4 1 1 y y l E ;.3.$.l s 3 U j.A.A.A.A.4.f.C.f.1.E * c._.m.m.m.Z.k.@.a.T.U.U.Y.R.R.@.V.7.9.h.",
"4 4 4 4 4 e p 1 * @ * E 1.4.f.n.b.j.A.S.F.C.,.* & ~ t.t.w.~ 9 d P d 4 * - 4 y l E $.3.;.l f 3 l j.f.j.F.s.4.f.f.C.6.W * i.).).).Z.Z.m.m.z.+.I.Y.Y.Y.R.U.<.x >.7.",
"4 4 4 4 4 4 4 , % @ 3 ;.3.1.6.,.R g.C.S.j.4.W * * %.k.k.w.a 2 A Y g p * w w u f f T ,.$.u y 4 l g.4.1.s.s.f.f.f.f.,.E * 4.)._.^.c.c.m.Z.x.+.I.Y.Y.Y.R.R.( -.x z ",
"1 , 1 1 , * * * % * 1 W ,.$.W p 7 W 4.4.1.1.E * 3 <.p.w.a 8 P P A g p @ 3 3 - y s f h f u u 4 d W W E $.;.$.$.W W ,.f @ ,.c.m.k.( g.d.d.p.[ I.Y.R.R.R.R.X.-.-.E ",
"@ @ # # @ @ @ % @ * ; s l g j a < U 1.,.%.,.f * 3 / ~ C 7 A ~ g e 4 1 & * * - 1 3 3 4 y 4 w 9 v a U j f f f s y y u & X 4 / w.<.P U U Y Y ' Y.R.R.R.R.Y.J d f s ",
"@ @ @ @ @ @ @ @ % * , 1 * @ * < < e f s 3 3 1 1 1 w e 2 e A A p 4 , * * * * * * @ * 3 3 3 y a v A U g j g f 1 @ X . . @ * 1 3 3 4 4 4 y p G I.Y.{ I.Y.[ Z s s p ",
"@ @ @ @ * * * * 1 3 3 1 * * * , < ; @ * 1 p l l f s 2 < , * * 1 3 3 4 4 * * * 1 , * 4 w p U ,.2.s.f.s.C.j.1.l * @ X @ @ 1 y 1 * 4 p V p g S ' ] _ { { [ I d f f ",
"3 w 1 * * * 1 1 4 y p g L R Y 9 > , q 3.5.M.K.D.E 8./ ;.4 1 y ;.3.T T T T h f l f * * f s.j.N.A.F.C.C.A.f.;.l * # y 8.7.3.D.;.* 3 d ` q.w...{ { ) F V ' [ B p g ",
"s s 3 * * * 1 4 y w y s g U Y 7 < , ;.V.B.K.P.P.h.h.{.D.s * 6.$X'.s.s.8.s.3.$.f.6.3 1 4.F.A.F.H.F.F.H.'.A.$.f 8 v 9.#X#XV.P.V.u w W w.&.q.O.I.{ J C a G { V y g ",
"u f 4 * * * 3 4 4 4 4 g p p g < : , 9.V.M.J.{.%X%X&X,XD.f 1 N.$XC.j.3.6.j.s.j.{.h.s 4 C.F.j.C.F.H.'.'.'.H.s.l , p D.#X%X#X#XJ.f p r.t.R A K { K Y d a C _ V w g ",
"s f u = $ 1 3 3 1 4 w p w p w < ; 1 h.J.B.M.1.P.%X#X,XL.s w H.A.F.N.1.3.f.f.}.-XF.f w C.C.f.A.'.].].H.C.A.6.T @ t P.;X,X1X&XV.g V X.^ d M a M d d e e a Z r 4 s ",
"4 y s 1 $ 3 4 1 1 1 3 p 4 1 * < ; 1 h.D.M.l l D.B.V.#XJ.f 4 s.s.h.h.3.3.8.h.K.}.'.f 4 3.8.N.N.'.F.A.C.b.b.4.;.* s V.P.#X%X#XM.^ { } Y d D C w 1 4 1 p d d 4 4 p ",
"w y f - * * * * 1 1 1 p p 1 # < < 1 x 3.7.T V.K.J.M.M.V.f 1 U ;.E $.l z $.3.s.A.j.y * T ,.s.s.j.4.;.3.s.1.4.T 4 U 3.8.7.M.V.7.J { ` e 4 a p 3 , , * 2 e 4 4 4 y ",
"y y s * * % @ @ @ @ * * 1 * # : < , y x 3.8.3.>.>.7.3.>.y , g E f f u u f W 3.3.f.3 * j W ;.;.W l s f f s j y s p f E E -.-.u 2 V B 4 * 1 4 , # * * 4 4 4 3 w p ",
"1 * = * * 1 # X @ % * * * * # ; ; # * y u i u f z x h u 1 3 w u 4 4 3 3 y f T T i @ * * * * * * @ * * * 4 w p w 4 4 1 * 1 3 1 3 w w 4 * 1 4 1 1 4 4 7 3 1 3 y p ",
"$ @ @ % * * * * * 1 3 1 % * + + # # @ @ @ # # # * 1 * * 1 4 3 1 3 y 1 * @ @ @ X X @ * $ * * 1 1 * 4 s g s s p p g L p 1 w p p 4 p y 4 1 3 4 p g j j a 4 4 4 y 4 ",
"@ @ @ @ @ @ * * * * w 3 * @ . O + # * * @ + # + % 3 1 , 1 1 * * 1 4 3 1 * @ * t f k E 3.0.8.f 4 1 p / w.%.&.&.<.w.r.Y w g ,.T f E ,.$.s y s g L U U s w 4 4 1 * ",
"X X X   X @ @ X X   * , + @ O . O 1 * * + * 1 @ @ , < * & @ @ @ & & & * * * E 7.M.M.V.V.B.B.9.p w / w.w.w.&.w.w.<.&.~ a 1.H.f.;.f.j.j.T w p f T l E E T l l 3 * ",
"X X X X X X @ @ @ . X # + # # # # # + # # 4 * @ @ ; < & @ & @ @ @ @ @ o * s 8.9.V.B.B.M.L.h.0.f p q.<.&./ w.w.%.&.&.R w s.'.s.,.C.C.j.Y y y -.3.3.7.9.7.3.7.k & ",
"X X X X . o o X X . . # # # # ; ; # # ; , 3 * @ @ ; , & & & @ @ o & & @ 3 l ;.,.K.J.B.B.V.h.7.s w <.w.q.q.p.r./ P ~ P 4 f.'.C.C.C.A.C.3.f y 3.7.7.h.M.M.M.0.z * ",
"X X X X . X X X o . O # # # # ; ; ; ; ; # + @ X @ # * * $ * * * * * * @ 4 g U h.V.D.P.J.J.V.3.y w w.p.w.&.t.p.~ d P d 3 f.}.F.A.H.j.,.s.g y 3.7.9.M.M.h.9.7.x * ",
"  . . . . X . . O . + O # + # ; ; ; # ; ; + @ @ X @ * * $ & - = * $ @ @ 4 s >.9.7.9.M.J.V.B.9.4 4 &.<.&.&.<.t./ d g p 3 8.H.F.j.f.Y 0 C 8 4 #.>.7.0.0.0.0.7.x - ",
"            . + # + # + + # # # # # # # # + @ @ @ @ @ @ @ @ @ @ @ X X @ 3 y -.-.3.>.7.8.7.M.>.* 1 g d Y Y P Y p 4 p p * E 4.4.1.a 6 8 8 6 < 2 u -.7.9.7.3.3.x * ",
". . . X X . O + + + O + + # + + + + + + # + O + # ; ; @ @ @ + @ @ # ; 1 w 3 y u h f f s s f 1 * * 1 3 4 4 4 3 1 4 4 3 * p j j U 7 6 8 8 8 7 < < p z x x x l y & ",
"o @ @ @ @ . . O + + O . . . O O . O + + + . . O # ; < ; # % * * 1 < < < 4 1 * * * * * * * * * * * * * * 3 1 1 1 4 w 4 1 3 3 w 4 < < 5 7 7 7 5 < 5 < , 3 3 * * 1 "
};
