/* XPM */
static char *_9726_d6f875c168810eb1ba242692b3433c0dfd846dbd17ba02f8079e8f5d3b9cce63[] = {
/* columns rows colors chars-per-pixel */
"80 80 256 2 ",
"   c #6903DF",
".  c #7B0BD8",
"X  c #782BDC",
"o  c #7838D0",
"O  c #7901E8",
"+  c #6A0EE4",
"@  c #7724E2",
"#  c #7A38E8",
"$  c #6928F2",
"%  c #5F00DF",
"&  c #7C47E8",
"*  c #784AF7",
"=  c #725BF9",
"-  c #DB3BBF",
";  c #F346B1",
":  c #F25EBC",
">  c #E94EBA",
",  c #E96ABC",
"<  c #F765BC",
"1  c #863ADC",
"2  c #8839DB",
"3  c #892FD1",
"4  c #BE38C3",
"5  c #8700ED",
"6  c #8914ED",
"7  c #873AE6",
"8  c #943AEC",
"9  c #8C2CED",
"0  c #A23EE4",
"q  c #C439C4",
"w  c #CA32C1",
"e  c #8A49DB",
"r  c #9848DB",
"t  c #8B56D9",
"y  c #9758DB",
"u  c #8B4CCD",
"i  c #BE48D3",
"p  c #A55ADB",
"a  c #BF5FD6",
"s  c #9767DA",
"d  c #9C75D9",
"f  c #906DCD",
"g  c #A969DB",
"h  c #A67ADD",
"j  c #B574DE",
"k  c #834BEB",
"l  c #8747E6",
"z  c #9548E9",
"x  c #8A54E9",
"c  c #8A57E7",
"v  c #935DE3",
"b  c #9956E7",
"n  c #9747F2",
"m  c #885AF7",
"M  c #9958F4",
"N  c #A25CEC",
"B  c #A458E6",
"V  c #A459F4",
"C  c #A950E9",
"Z  c #9C64EB",
"A  c #9866E7",
"S  c #9D73E7",
"D  c #8B63F9",
"F  c #9264F4",
"G  c #956AF6",
"H  c #9A6CF7",
"J  c #9B74F5",
"K  c #9C79F6",
"L  c #9A75F7",
"P  c #A667E7",
"I  c #AC73EB",
"U  c #A676E8",
"Y  c #B87AE7",
"T  c #A265F1",
"R  c #A76CF3",
"E  c #B667F6",
"W  c #A27BF4",
"Q  c #AA7DF3",
"!  c #A27CF9",
"~  c #A774F5",
"^  c #B677F4",
"/  c #B16DE3",
"(  c #C94AC6",
")  c #E95CC3",
"_  c #F65DC1",
"`  c #E74EC4",
"'  c #CA67D5",
"]  c #EC69C4",
"[  c #F36BC5",
"{  c #F468C6",
"}  c #EC73C3",
"|  c #F372C9",
" . c #F779C9",
".. c #E57ADB",
"X. c #F37BD2",
"o. c #C77BF7",
"O. c #CB78EC",
"+. c #E37FE3",
"@. c #A786DB",
"#. c #B09ADD",
"$. c #BBA7DE",
"%. c #AA84E4",
"&. c #AC84EA",
"*. c #A888E7",
"=. c #B688E8",
"-. c #B798EA",
";. c #A582F7",
":. c #AB84F6",
">. c #A683F9",
",. c #A986F8",
"<. c #AC8AFB",
"1. c #A98AF7",
"2. c #B587F4",
"3. c #AD94F4",
"4. c #AC98F4",
"5. c #B49DF4",
"6. c #B696F3",
"7. c #A894E4",
"8. c #BAA6E7",
"9. c #B6A2F4",
"0. c #B9A5F5",
"q. c #BDABF6",
"w. c #BDAAF8",
"e. c #B7A5F7",
"r. c #BDB0F3",
"t. c #BEB2EB",
"y. c #9D81E0",
"u. c #F48AC7",
"i. c #F791CA",
"p. c #F483D3",
"a. c #F58BDC",
"s. c #F789DB",
"d. c #F798D7",
"f. c #E389D9",
"g. c #F8A4D5",
"h. c #C483EA",
"j. c #C788EA",
"k. c #C699EA",
"l. c #D597EE",
"z. c #C888F6",
"x. c #D28CF5",
"c. c #CB95F4",
"v. c #CC9BF5",
"b. c #C495F8",
"n. c #CA98F8",
"m. c #D39CF9",
"M. c #D798F5",
"N. c #D280EE",
"B. c #FB94E4",
"V. c #F99CE4",
"C. c #FB9DEA",
"Z. c #F798E3",
"A. c #E59CF8",
"S. c #EA8DE6",
"D. c #C9A4EC",
"F. c #C7A9EA",
"G. c #C5B2ED",
"H. c #C9B9EB",
"J. c #D3BBED",
"K. c #DCBCEB",
"L. c #D6B6EA",
"P. c #C2ADF5",
"I. c #C7ABF6",
"U. c #D4ADF9",
"Y. c #D5A7F6",
"T. c #C4B3F3",
"R. c #CCB4F3",
"E. c #CCBBF3",
"W. c #C4B2FA",
"Q. c #C9BBF7",
"!. c #DCB4F2",
"~. c #D3BEF2",
"^. c #DAB6F8",
"/. c #FBA2EA",
"(. c #FAA6E6",
"). c #F9BDEE",
"_. c #EBA5FC",
"`. c #E6AAF9",
"'. c #ECACFD",
"]. c #E7A9F7",
"[. c #FDAAF4",
"{. c #FBAAF5",
"}. c #E4BBF3",
"|. c #EFB2FE",
" X c #EEBBFA",
".X c #E4B7F8",
"XX c #F2B4FE",
"oX c #F3BAFD",
"OX c #FABBFF",
"+X c #FBB6F6",
"@X c #E1BAEE",
"#X c #D095D5",
"$X c #CDCCEA",
"%X c #DDC3EC",
"&X c #D9C8EE",
"*X c #CDC2F4",
"=X c #CBC9F3",
"-X c #D3C3F2",
";X c #DBC4F3",
":X c #D4CBF4",
">X c #DBCBF2",
",X c #D3C8F9",
"<X c #DCD4F4",
"1X c #DBD3FC",
"2X c #DAD7F6",
"3X c #CFD3ED",
"4X c #E3C9ED",
"5X c #F9CAE5",
"6X c #EBD7EE",
"7X c #F6D8EB",
"8X c #E4C3F3",
"9X c #E3CCF2",
"0X c #EBCDF3",
"qX c #EFC4F9",
"wX c #EBC6F7",
"eX c #F3C4FA",
"rX c #F2CBFA",
"tX c #F7C7F7",
"yX c #E3D2F3",
"uX c #ECD4F3",
"iX c #E3DBF4",
"pX c #EDDCF3",
"aX c #E2DDFE",
"sX c #EAD9F8",
"dX c #F4D3F5",
"fX c #F2DDF5",
"gX c #FBDBF6",
"hX c #F3D3F9",
"jX c #F5DCFA",
"kX c #FBDBFB",
"lX c #FAD5F8",
"zX c #DCE5F3",
"xX c #E5E2F5",
"cX c #EAE4F6",
"vX c #E5E1FC",
"bX c #EAE5F9",
"nX c #EDECF9",
"mX c #E8EEF8",
"MX c #F4E3F2",
"NX c #F9E3F2",
"BX c #FCEBF3",
"VX c #F6E4FA",
"CX c #FBE4FC",
"ZX c #F3EBFA",
"AX c #FBECFC",
"SX c #F0ECF7",
"DX c #E5FDFE",
"FX c #ECFFFE",
"GX c #EDF2F9",
"HX c #F4F3FA",
"JX c #FBF2FC",
"KX c #F2FEFD",
"LX c #FCFDFE",
"PX c #F7F3F5",
"IX c #F7E7EE",
"UX c None",
/* pixels */
"UXUXUXUXUXUXUXUXUXUXUXUXUXUXUXUXUXUXUXUXUXUXUXUXUXUXUXUXUXUXUXUXUXUXUXUXUXUXUXUXUXUXUXUXUXUXUXUXUXUXUXUXUXUXUXUXUXUXUXUXUXUXUXUXUXUXUXUXUXUXUXUXUXUXUXUXUXUXUXUX",
"UXUXUXUXUXUXUXUXUXUXUXUXUXUXUXUXUXUXUXUXUXUXUXUXUXUXUXUXUXUXUXUXUXUXUXUXUXUXUXUXUXUXUXUXUXUXUXUXUXUXUXUXUXUXUXUXUXUXUXUXUXUXUXUXUXUXUXUXUXUXUXUXUXUXUXUXUXUXUXUX",
"UXUXUXUXUXUXUXUXUXUXUXUXUXUXUXUXUXUXUXUXUXUXUXUXUXUXUXUXUXUXUXUXUXUXUXUXUXUXUXUXUXUXUXUXUXUXUXUXUXUXUXUXUXUXUXUXUXUXUXUXUXUXUXUXUXUXUXUXUXUXUXUXUXUXUXUXUXUXUXUX",
"UXUXUXUXUXUXUXUXUXUXUXUXUXUXUXUXUXUXUXUXUXUXUXUXUXUXUXUXUXUXUXUXUXUXUXUXUXUXUXUXUXUXUXUXUXUXUXUXUXUXUXUXUXUXUXUXUXUXUXUXUXUXUXUXUXUXUXUXUXUXUXUXUXUXUXUXUXUXUXUX",
"UXUXUXUXUXUXUXUXUXUXUXUXUXUXUXUXUXUXUXUXUXUXUXUXUXUXUXUXUXUXUXUXUXUXUXUXUXUXUXUXUXUXUXUXUXUXUXUXUXUXUXUXUXUXUXUXUXUXUXUXUXUXUXUXUXUXUXUXUXUXUXUXUXUXUXUXUXUXUXUX",
"UXUXUXUXUXUXUXUXUXUXUXUXUXUXUXUXUXUXUXUXUXUXUXUXUXUXUXUXUXUXUXUXUXUXUXUXUXUXUXUXUXUXUXUXUXUXUXUXUXUXUXUXUXUXUXUXUXUXUXUXUXUXUXUXUXUXUXUXUXUXUXUXUXUXUXUXUXUXUXUX",
"UXUXUXUXUXUXUXUXUXUXUXUXUXUXUXUXUXUXUXUXUXUXUXUXUXUXUXUXUXUXUXUXUXUXUXUXUXUXUXUXUXUXUXUXUXUXUXUXUXUXUXUXUXUXUXUXUXUXUXUXUXUXUXUXUXUXUXUXUXUXUXUXUXUXUXUXUXUXUXUX",
"UXUXUXUXUXUXUXUXUXUXUXUXUXUXUXUXUXUXUXUXUXUXUXUXUXUXUXUXUXUXUXUXUXUXUXUXUXUXUXUXUXUXUXUXUXUXUXUXUXUXUXUXUXUXUXUXUXUXUXUXUXUXUXUXUXUXUXUXUXUXUXUXUXUXUXUXUXUXUXUX",
"UXUXUXUXUXUXUXUXUXUXUXUXUXUXUXUXUXUXUXUXUXUXUXUXUXUXUXUXUXA y u UXUXUXUXUXUXUXUXUXUXUXUXUXUXUXUXs s t UXUXUXUXUXUXUXUXUXUXUXUXUXUXUXUXUXUXUXUXUXUXUXUXUXUXUXUXUX",
"UXUXUXUXUXUXUXUXUXUXUXUXUXUXUXUXUXUXUXUXUXUXUXUXUXUXUXUX&.yX>Xm t UXUXUXUXUXUXUXUXUXUXUXUXUXUXf M.AX-XZ UXUXUXUXUXUXUXUXUXUXUXUXUXUXUXUXUXUXUXUXUXUXUXUXUXUXUXUX",
"UXUXUXUXUXUXUXUXUXUXUXUXUXUXUXUXUXUXUXUXUXUXUXUXUXUXUXJ.iX-X9XW G l u UXUXUXUXUXUXUXUXUXUXf s 3XkXjXG.9XD.UXUXUXUXUXUXUXUXUXUXUXUXUXUXUXUXUXUXUXUXUXUXUXUXUXUXUX",
"UXUXUXUXUXUXUXUXUXUXUXUXUXUXUXUXUXUXUXUXUXUXUXUXUXUXt.LXbX3.yX%X8 ! H u UXUXUXUXUXUXUXUXu 1XKXzXLXE.m sXD.5 UXUXUXUXUXUXUXUXUXUXUXUXUXUXUXUXUXUXUXUXUXUXUXUXUXUX",
"UXUXUXUXUXUXUXUXUXUXUXUXUXUXUXUXUXUXUXUXUXUXUXUXUX-.FXFXiX5.,X%Xb H W F l t UXUXUXUXf U $XFX=X0.xXE.G ;XF.V z UXUXUXUXUXUXUXUXUXUXUXUXUXUXUXUXUXUXUXUXUXUXUXUXUX",
"UXUXUXUXUXUXUXUXUXUXUXUXUXUXUXUXUXUXUXUXUXUXUXUXUXG.LXiX9.r.9.9XK.6 T J K ~ u UXUXu 1XFXmX$X3.nX-XG 1.J uXD.6 UXUXUXUXUXUXUXUXUXUXUXUXUXUXUXUXUXUXUXUXUXUXUXUXUX",
"UXUXUXUXUXUXUXUXUXUXUXUXUXUXUXUXUXUXUXUXUXUXUXUXH.FXKXbX9.q.9.;X;XP M M Z ! b s d $XFX=X9.0.q.iXT.K ;.J yXD.9 M UXUXUXUXUXUXUXUXUXUXUXUXUXUXUXUXUXUXUXUXUXUXUXUX",
"UXUXUXUXUXUXUXUXUXUXUXUXUXUXUXUXUXUXUXUXUXUXUXG.FXDXKXxX9.q.q.5.yX@X6 N M n O D.LXDXE.5.T.5.bX:XH ,.>.K 0XD.8 N z UXUXUXUXUXUXUXUXUXUXUXUXUXUXUXUXUXUXUXUXUXUXUX",
"UXUXUXUXUXUXUXUXUXUXUXUXUXUXUXUXUXUXUXUXUXUX=.FXDXDXKXcX9.q.q.e.,X%XP z P k.v Y kXiX*XT.0.T.iXE.W >.>.J uXD.9 N V z UXUXUXUXUXUXUXUXUXUXUXUXUXUXUXUXUXUXUXUXUXUX",
"UXUXUXUXUXUXUXUXUXUXUXUXUXUXUXUXUXUXUXUXUXUXG.FXDXDXKXyX0.q.q.0.4.9XJ.8 L.BXk.Y '.uXHXiX9.xX-Xm ! ! >.! %XF.b M n 9 UXUXUXUXUXUXUXUXUXUXUXUXUXUXUXUXUXUXUXUXUXUX",
"UXUXUXUXUXUXUXUXUXUXUXUXUXUXUXUXUXUXUXUXUXJ.KXDXDXKXxX-.q.9.T.-X~.pX4XL.lXXXY Y OXY.-.2XyXnXyX9.T.3.H W F yXk.5 &.k.-.UXUXUXUXUXUXUXUXUXUXUXUXUXUXUXUXUXUXUXUXUX",
"UXUXUXUXUXUXUXUXUXUXUXUXUXUXUX&.S 2.g 3 A SXLXLXFXKXnX-X:X*X<XSXuXIXBXeX'.XX=.P XXU.0.9.:XLXJXAXAX-Xq.W.0.pXJ.=.9XsX0XP . g 2.S Y UXUXUXUXUXUXUXUXUXUXUXUXUXUXUX",
"UXUXUXUXUXUXUXUXUXUXUXUXUXUX@.fXE.ZX}.7.@.#.yX&XcXLXLXcXZXSX<X9.9.>XlX'.|.XXm.& h.^.e.I.5.iXjX].'.hXJXAXgXBXIX4XQ # d @.@.wXZXT.MX@.UXUXUXUXUXUXUXUXUXUXUXUXUXUX",
"UXUXUXUXUXUXUXUXUXUXUXUXUXUXh fX9.T.HXKXFXzXd y.#.>X&X*Xe.9.9.e.5.>XjX'.|.XXY.& j.^.e.w.9.vXjX'.|.|.'.|.tX4XS s 7.%.zXFXKXPXH.0.fXh UXUXUXUXUXUXUXUXUXUXUXUXUXUX",
"UXUXUXUXUXUXUXUXUXUXUXUXUXUX=.IX0.0.T.GXFXDXFXKXzXf $.*X6.q.T.:Xr.>XlX'.|.|.m.& j.^.e.P.9.vXkX_.|.|.XXY.%X$.h zXFXFXDXKXGXT.e.9.MX%.UXUXUXUXUXUXUXUXUXUXUXUXUXUX",
"UXUXUXUXUXUXUXUXUXUXUXUXUXl 3.4XE.q.e.H.SXFXDXDXFXKXyX3 S q.<XLXiX&XlX'.|.|.Y.& j.U.e.q.5.vXkX'.|.'.XX/ X yXLXmXGXDXFXGXG.e.q.E.%X^ 7 UXUXUXUXUXUXUXUXUXUXUXUXUX",
"UXUXUXUXUXUXUXUXUXUXUXUXUXc M &.IX0.q.0.T.SXKXDXFXZXaXG.A 0.*XnX*X>XlX'.XX].6.k h..XP.q.5.vXjX_.qXrXOX/ P.aXHXrXvXFXSXH.e.q.0.MX=.8 l UXUXUXUXUXUXUXUXUXUXUXUXUX",
"UXUXUXUXUXUXUXUXUXUXUXUXUXA G =.pX0.q.P.0.T.GXKXKXbXaXG.s W.5.G.Q.-XgX'.oXc.L c h.OXY.w.9.xXjX_.VXLXlXB G.aXnXqXZXGXT.0.q.q.0.fX2.8 b UXUXUXUXUXUXUXUXUXUXUXUXUX",
"UXUXUXUXUXUXUXUXUXUXUXUXl ;.m =.IX9.q.q.w.0.t.SXHX1XaXP.A q.T.iX<XpXlX'. Xv.K x =.+XU.q.5.bXjX_.hXZXjXg -.vX1XyXpXr.e.q.q.q.9.MX=.z M l UXUXUXUXUXUXUXUXUXUXUXUX",
"UXUXUXUXUXUXUXUXUXUXUXUXe ~ n I %XE.0.P.0.T.:XiXJX1XaX8.v P.:XiX<XcX0X X|.v.L x h.oXU.9.T.pXrX'.'.].kXJ.:XvX1XJXiX:XT.e.q.q.*X%XI z V e UXUXUXUXUXUXUXUXUXUXUXUX",
"UXUXUXUXUXUXUXUXUXUXUXUXe ! T n =.fXq.5.q.iXxXSXHX1XaX*XU -.5.*X<X3.&XgX|.v.L x O.oXU.5.cXkX_.rXeXXXl.uXLXnX1XHXSXcXiXP.5.0.fX=.n T M e UXUXUXUXUXUXUXUXUXUXUXUX",
"UXUXUXUXUXUXUXUXUXUXUXUXk F 8 5 =.pXq.>XiX<X3.:XJX1X1XvXG.y W.e.9.e.>XgX|.n.;.c j.OXU.5.xXjX_.hXrXXXy -.1XbXsXZX>X:.:X<X,XG.fX=.5 8 8 6 UXUXUXUXUXUXUXUXUXUXUXUX",
"UXUXUXUXUXUXUXUXUXUXUXA R.R.D.k.L.NX&XiX<X9.q.E.cXbX1XaXt.A q.q.q.9.>XlX|.U.D @ p ].^.5.xXjX_.|.'.XXl.;XGXnXsXJXAXyX:XLXNX!.0XL.D.D.F.F.b UXUXUXUXUXUXUXUXUXUXUX",
"UXUXUXUXUXUXUXUXUXUXUXg kXgXgXkXgXlXdXH.0.q.q.5.:XHX1XvX8.v W.q.q.5.yXCXM.B y.-.%.k.^ 3.mXkX].XXXXoXM.9XJXHXVXJXJXsXxXxX0XXX'.lXgXkXgXkXg UXUXUXUXUXUXUXUXUXUXUX",
"UXUXUXUXUXUXUXUXUXUXUXb c.'.'._.]._.tXMX0.q.q.9.:XHX1XaX~.@.3.q.q.W.G.k.=.#.4XlXtX%Xs Z F.}.OXXX|.A.h H.aX1XwXJX8X-Xq.4.cXtX_.'.'.'.'.'.P UXUXUXUXUXUXUXUXUXUXUX",
"UXUXUXUXUXUXUXUXUXUXUXo Z oX|. XdXqXeXpXq.q.q.9.<XJX1X1XvXF.v W.5.A %.#.$XLXjX_.'.gX,Xx l / j.Y.tXP F.bX1X1XKXLX*X>XxXT.pXtXqXhX XXXXXl.y UXUXUXUXUXUXUXUXUXUXUX",
"UXUXUXUXUXUXUXUXUXUXUXUXt M.XXeXLXJXtXpX9.w.q.e.Q.xXvX1XvXT.e S @.8.3XKXFXHXqX|.|.qX9X6.>.J e / j.r G.aX1XvXiXLX:X4.1XT.pXeXHXLXqX'.+Xy UXUXUXUXUXUXUXUXUXUXUXUX",
"UXUXUXUXUXUXUXUXUXUXUXu X x v.oXfXhXoXuXE.q.q.q.5.-XLXaX<Xy s 8.3XKXFXDXHXqX'.|.|.'.tX0X6.;.<.G c 7 h :XaXLX*X8X-X0.0.~.dX XhXNX X'.l.z o UXUXUXUXUXUXUXUXUXUXUX",
"UXUXUXUXUXUXUXUX@.Y.M H v @ R oX'.'._.eXMX5.q.q.q.,X:X=.-.#.3XKXDXDXDXKXjX XrX'.|.|._.kX-XG 1.>.<.U l %.8.>X,XY.I.e.9.MXqX_.'._.+Xv.1 e T M R.@.UXUXUXUXUXUXUXUX",
"UXUXUXUXUXUXUXUXy J.R.,.;.c c v.'. XrXoXuX~.q.W.9.v @.#.$XKXDXDXDXDXFXHX XjXCXA.|.|.|.eX4X6.K ;.! >.<.G 3 A S ].^.e.~.uX XdXeXXXv.k l / :.R.L.y UXUXUXUXUXUXUXUX",
"UXUXUXUXUXUXUXUX6 I fXK ;.:.x Z eXfXfXrXeXMX6.A @.8.$XKXFXDXDXDXFXFXZXdXjXhXjXkXrX'.|.'.tX9X5.! >.>.! >.^ y 3 Y &.5.MXtX].hX Xc.x z I ! K NXY O UXUXUXUXUXUXUXUX",
"UXUXUXUXUXUXUXUX3 ~ 4XH.;.;.~ 7 Y.kXfXhXeXK.%.8.$XKXDXDXDXFXDXFXDXKXjXqXVXfXhXVXrX'.XXXX'.gX~.G ,.;.>.;.>.Q ^ y r A }.gX X'.oXR @ g Q ;.R.9X~ 2 UXUXUXUXUXUXUXUX",
"UXUXUXUXUXUXUXUXe M R.NXJ ;.Q c 7 D.hX`.XXj.*.KXFXDXDXDXFXDXDXDXFXHXqXXXA.VXVXA.XX|.|.XX|.eX9X-.K ,.;.>.;.1.1.R B 2 S.JXhX'.m.A b P Q J MXE.M 1 UXUXUXUXUXUXUXUX",
"UXUXUXUXUXUXUXUX2 Z W.>XR.;.>.W @ J +X'.oXx.7.LXFXDXDXDXFXDXDXFXSXqX'.|.'.rXrX'.|.|.|.|.|.'.eX0X6.! ;.! >.K G G.@Xu N.BXqX_.M % y Q ;.H.&XW.T 2 UXUXUXUXUXUXUXUX",
"UXUXUXUXUXUXUXUX1 R e.E.NXJ >.Q N v v.XXoXc.h <XxXLXFXDXDXDXDXKXkX].oX'.|.|.'.|.|.XX|.|.XX'._.gX~.G 3.! G R.U.wXLX6XyXLXSXVX<Xc.l.2.J NXE.5.R 2 UXUXUXUXUXUXUXUX",
"UXUXUXUXUXUXUXUX7 T 0.r.>X~.;.:.E # D c.oXx.t 0.T.<XxXLXFXDXFXZXeX|.|.oX|.|.|.|.|.|.'.XX'.hXrX).9X6.m R.9X-XY.z.P.G.yXJXAX:XH.l.M.1.R.>XT.w.T 2 UXUXUXUXUXUXUXUX",
"UXUXUXUXUXUXUXUX1 T r.9.=XPXJ :.o.n # ! OX].Y *.w.5.T.2XcXKXLXJXqX'.'.'.'.|.|.|.|.|.|.|._.rX X XBXdX&X%X;X3.L D @ B M.AXI.5 . r W H fXE.9.q.R 1 UXUXUXUXUXUXUXUX",
"UXUXUXUXUXUXUXUX1 T q.w.P.:X-XE z.8Xb v c.OXM.t W.q.q.9.T.<XcXJXfXVXCXVXrX_.'.'.'.'.'.eXgXdXdXdXNX0X}.6.G >.K D X A.XXAX7.2 K.j P H.&XT.q.q.T 2 UXUXUXUXUXUXUXUX",
"UXUXUXUXUXUXUXUX1 Z w.q.e.-XAXo.0XU.V X m n.].Y &.w.q.q.q.3.<XCX|.jXjXjXfXCXVXVXkXlXdXdXrXdXlX|.lX!.C :.>.1.F k Y ].|.hXh 3 D.4Xj 7XE.e.q.q.T 2 UXUXUXUXUXUXUXUX",
"UXUXUXUXUXUXUXUX1 R W.w.5.q.:X9XD.=.-Xb & R tXl.t W.q.q.q.q.T.iXrX_.'._.qXjXjXjXhXdXlX X'.'.`.qX8Xc.^ >.>.L D + M.oXz._.j L.g #XK.~.q.9.w.P.R 1 UXUXUXUXUXUXUXUX",
"UXUXUXUXUXUXUXUX1 n Z :.uXyXMXcX&.>XE.S @ Q `.~ x &.w.q.q.q.5.<XAX'.|.|.'.'.'.'.'.'.'.|.|.|.'.gX!.E :.Q >.G & Y `.XX~ P / F.4Xp 6XNXyXpX&.Z n 2 UXUXUXUXUXUXUXUX",
"UXUXUXUXUXUXUXUXy ;X4X@X>X>X>X;X&XI.J ;.x I m.* * s W.q.q.q.9.2XCX'.|.|.XX|.|.|.|.|.|.|.|.|.'.gX!.~ >.>.1.H + l.OXn.x 2 U J F.4X-X>X>X&XK.8X>Xy UXUXUXUXUXUXUXUX",
"UXUXUXUXUXUXUXUXUXY.8X,X9.9.4.-XpXF 1.;.J k.8X* m k &.q.0.q.5.2XCX_.XX|.|.|.|.|.|.|.|.|.|.|.'.gX.X~ ;.>.L k Y ].c.k z U ,.1.F pX~.4.9.9.>XwXY.UXUXUXUXUXUXUXUXUX",
"UXUXUXUXUXUXUXUXUXUXC 2.w.q.q.P.>XJ.:.v.G Q.vX$ ! =.y W.q.q.w.T.iXhX'.|.|.XX|.|.|.|.|.|.|.|.tX8Xx.Q ;.,.H   l.OX~ @ p &.>.J ~.&XP.q.q.q.z.z UXUXUXUXUXUXUXUXUXUX",
"UXUXUXUXUXUXUXUXUXUXUXN b.q.q.e.P.>X;XY.b.T.<Xx M.Q x *.w.q.q.5.<XAX'.|.|.|.|.XX|.|.|.|.'.'.gX!.E ;.! L k Y ].c.c z I >.>.J.>XP.0.q.q.b.N UXUXUXUXUXUXUXUXUXUXUX",
"UXUXUXUXUXUXUXUXUXUXUXq B b.q.q.5.E.uXH z.8XMXO.M $ O A q.q.q.e.1XCX'.|.|.|.XX'.|.|._.hXhXA.gX}.~ ;.<.G   M.n.m # p Q 1.G fX-X9.q.q.b.B q UXUXUXUXUXUXUXUXUXUXUX",
"UXUXUXUXUXUXUXUXUXUX} d.' z n..X^.qXJXiXxXJXLXVX2XiX;XM..XU.w.5.2XNX].XX|.|.|.|.|.'.hXfXfXrXlX.XR >.L k ^ '.Q # y P :.J ~.>XP.q.P.b.r ' Z.] UXUXUXUXUXUXUXUXUXUX",
"UXUXUXUXUXUXUXUXUXUX{ [.g.H.0 M.U.R.:XyXdXfXJX0XG.8.0.I =.U.q.w.T.iXhX'.|.XX|.|.|.|.qXjXsXlX8Xz.Q <.H   l.Y.x y U 1.J -X4Xq.e.q.c.8 J.g.[.| UXUXUXUXUXUXUXUXUXUX",
"UXUXUXUXUXUXUXUXUXUX| [.i.5XH.z b.e.q.m.M.BXxXz.Y % * * & %.w.q.5.<XAX_.XX|.|.XX|.|.].eX XlX@XT >.L & h.=.m # p Q R L.K.5.w.P.b.b J.5Xi.[.| UXUXUXUXUXUXUXUXUXUX",
"UXUXUXUXUXUXUXUXUXUXUXs.C.< i.w B x.^.n.l.LXiXW Y.h.& D # S W.q.9.1XCX_.|.|.|.|.'.rXAXrX_.gX.XR >.L % S.z.# r U ,.y 6XY.6.P.b.B w i.: B.s.UXUXUXUXUXUXUXUXUXUXUX",
"UXUXUXUXUXUXUXUXUXUXUXUXX.B.B.a.4 N x.z.o.8XxXG <.Y # m m x %.r.5.2XfXA.XX|.|.|.'.jXLXjXA.kX.X^ K * h.c.D & p Q Z K.!.o.z.b.N w a.B.B.X.UXUXUXUXUXUXUXUXUXUXUXUX",
"UXUXUXUXUXUXUXUXUXUXUX, (.JXCX+Xa.( b o.o.N.uX~.! K M k D # A W.5.2XCX].XX|.|.|.XXoX0XoXA.dX@XV D 7 P G # b p g L.@XO.o.o.B 4 a.+XCXAX/.] UXUXUXUXUXUXUXUXUXUXUX",
"UXUXUXUXUXUXUXUXUXUXUX .AXLXBXV.{.; 4 B o.x.tXuXJ <.J 7 m m x &.0.2XNXx.`.XX|.XX|.'.eXwXN.uX}.M & k * m l p / r 7XY.E o.b q ; {.V.BXLXAX .UXUXUXUXUXUXUXUXUXUXUX",
"UXUXUXUXUXUXUXUXUXUXUX[ kXBXg.u.| C./.j.z M.`.U.-XK Q v & D # S W.P.2X8XM.oX'.|.|.|.}.M.}.}.^ m l & D k r P p L.!.o.o.b j.C.Z.|  .g.PXkX[ UXUXUXUXUXUXUXUXUXUXUX",
"UXUXUXUXUXUXUXUXUXUXUXUXp.tXB.{ (.JXCX{.S.) ) ] f.K >.>.F & m k *.5.2XjXx.`.XX|.|.`.M.N.dX}.n * l m * y g g y f.< ` ) S.{.CXAX(.{ d.tXp.UXUXUXUXUXUXUXUXUXUXUXUX",
"UXUXUXUXUXUXUXUXUXUXUXUXUX[ _  .JXLXNXZ.C.: C.C.p.' Y ) ` i D # U 0.1XsXx.M.`.XX_.M.m.x.uX}.M & n = i > > ' ( p.C.C.: /.C.BXLXHX ._ | UXUXUXUXUXUXUXUXUXUXUXUXUX",
"UXUXUXUXUXUXUXUXUXUXUXUXUXUXUX[ gXPXd.u.{ +XJXCX[.a.] C./.a.i = C < } f.M.m.+.{ ) ..m.m.f.] ` C = i s././.] s.[.CXJX).|  .d.BXkX} UXUXUXUXUXUXUXUXUXUXUXUXUXUXUX",
"UXUXUXUXUXUXUXUXUXUXUXUXUXUXUXUXp.+X[.s.u.LXLXNXX.X.).LXkX[.a.w X./.C.X.+.+.X.C./.X.+...X./.C.X.- p.[.gXJXtXX.X.BXLXJXu.a.[.+Xp.UXUXUXUXUXUXUXUXUXUXUXUXUXUXUXUX",
"UXUXUXUXUXUXUXUXUXUXUXUXUXUXUXUXUX[ | <  .gXIXd.{ u.LXLX7XC.V._ tXLXkX[.X.X.{.lXLXtX| ..[.kXLXtX: Z.(.7XLXLXu.< d.IXkX| < | [ UXUXUXUXUXUXUXUXUXUXUXUXUXUXUXUXUX",
"UXUXUXUXUXUXUXUXUXUXUXUXUXUXUXUXUXUXUXUXUXs.+X[.a. .CXNXi.(.s.d.LXLX5XC.a.s./.5XLXLXg.s./.7XLXLXd.s./.u.NXCX| d.[.+Xs.UXUXUXUXUXUXUXUXUXUXUXUXUXUXUXUXUXUXUXUXUX",
"UXUXUXUXUXUXUXUXUXUXUXUXUXUXUXUXUXUXUXUXUXUX{ | } UXa.+X[.V.; p.CXgXu./.s.p./.u.7XAXp.s./.i.7XCXp.; V.[.+Xs.UX}  .[ UXUXUXUXUXUXUXUXUXUXUXUXUXUXUXUXUXUXUXUXUXUX",
"UXUXUXUXUXUXUXUXUXUXUXUXUXUXUXUXUXUXUXUXUXUXUXUXUXUXUX[ [ , UXUXd.+X[.C.UXUXB.[.+XC.UX, B.[.+XV.UXUX] | { UXUXUXUXUXUXUXUXUXUXUXUXUXUXUXUXUXUXUXUXUXUXUXUXUXUXUX",
"UXUXUXUXUXUXUXUXUXUXUXUXUXUXUXUXUXUXUXUXUXUXUXUXUXUXUXUXUXUXUXUXUX[ | , UXUX,  .[ , UXUX, | { UXUXUXUXUXUXUXUXUXUXUXUXUXUXUXUXUXUXUXUXUXUXUXUXUXUXUXUXUXUXUXUXUX",
"UXUXUXUXUXUXUXUXUXUXUXUXUXUXUXUXUXUXUXUXUXUXUXUXUXUXUXUXUXUXUXUXUXUXUXUXUXUXUXUXUXUXUXUXUXUXUXUXUXUXUXUXUXUXUXUXUXUXUXUXUXUXUXUXUXUXUXUXUXUXUXUXUXUXUXUXUXUXUXUX",
"UXUXUXUXUXUXUXUXUXUXUXUXUXUXUXUXUXUXUXUXUXUXUXUXUXUXUXUXUXUXUXUXUXUXUXUXUXUXUXUXUXUXUXUXUXUXUXUXUXUXUXUXUXUXUXUXUXUXUXUXUXUXUXUXUXUXUXUXUXUXUXUXUXUXUXUXUXUXUXUX",
"UXUXUXUXUXUXUXUXUXUXUXUXUXUXUXUXUXUXUXUXUXUXUXUXUXUXUXUXUXUXUXUXUXUXUXUXUXUXUXUXUXUXUXUXUXUXUXUXUXUXUXUXUXUXUXUXUXUXUXUXUXUXUXUXUXUXUXUXUXUXUXUXUXUXUXUXUXUXUXUX",
"UXUXUXUXUXUXUXUXUXUXUXUXUXUXUXUXUXUXUXUXUXUXUXUXUXUXUXUXUXUXUXUXUXUXUXUXUXUXUXUXUXUXUXUXUXUXUXUXUXUXUXUXUXUXUXUXUXUXUXUXUXUXUXUXUXUXUXUXUXUXUXUXUXUXUXUXUXUXUXUX",
"UXUXUXUXUXUXUXUXUXUXUXUXUXUXUXUXUXUXUXUXUXUXUXUXUXUXUXUXUXUXUXUXUXUXUXUXUXUXUXUXUXUXUXUXUXUXUXUXUXUXUXUXUXUXUXUXUXUXUXUXUXUXUXUXUXUXUXUXUXUXUXUXUXUXUXUXUXUXUXUX",
"UXUXUXUXUXUXUXUXUXUXUXUXUXUXUXUXUXUXUXUXUXUXUXUXUXUXUXUXUXUXUXUXUXUXUXUXUXUXUXUXUXUXUXUXUXUXUXUXUXUXUXUXUXUXUXUXUXUXUXUXUXUXUXUXUXUXUXUXUXUXUXUXUXUXUXUXUXUXUXUX",
"UXUXUXUXUXUXUXUXUXUXUXUXUXUXUXUXUXUXUXUXUXUXUXUXUXUXUXUXUXUXUXUXUXUXUXUXUXUXUXUXUXUXUXUXUXUXUXUXUXUXUXUXUXUXUXUXUXUXUXUXUXUXUXUXUXUXUXUXUXUXUXUXUXUXUXUXUXUXUXUX",
"UXUXUXUXUXUXUXUXUXUXUXUXUXUXUXUXUXUXUXUXUXUXUXUXUXUXUXUXUXUXUXUXUXUXUXUXUXUXUXUXUXUXUXUXUXUXUXUXUXUXUXUXUXUXUXUXUXUXUXUXUXUXUXUXUXUXUXUXUXUXUXUXUXUXUXUXUXUXUXUX",
"UXUXUXUXUXUXUXUXUXUXUXUXUXUXUXUXUXUXUXUXUXUXUXUXUXUXUXUXUXUXUXUXUXUXUXUXUXUXUXUXUXUXUXUXUXUXUXUXUXUXUXUXUXUXUXUXUXUXUXUXUXUXUXUXUXUXUXUXUXUXUXUXUXUXUXUXUXUXUXUX"
};
