/* XPM */
static char *_931_def72c5c1b64fd6164b4be23178ce70213bacea96e00c5954b346dbd78012b61[] = {
/* columns rows colors chars-per-pixel */
"80 80 251 2 ",
"   c #1F0736",
".  c #4F0736",
"X  c #050148",
"o  c #120057",
"O  c #270359",
"+  c #2D195C",
"@  c #070464",
"#  c #180966",
"$  c #010077",
"%  c #160E6E",
"&  c #270065",
"*  c #37067B",
"=  c #301070",
"-  c #1B2358",
";  c #560348",
":  c #521448",
">  c #690068",
",  c #720776",
"<  c #730E75",
"1  c #492777",
"2  c #5B1C65",
"3  c #7E6D79",
"4  c #7C6876",
"5  c #7F717C",
"6  c #6D4D61",
"7  c #816E7B",
"8  c #83747D",
"9  c #83797F",
"0  c #000184",
"q  c #0C128A",
"w  c #2A0081",
"e  c #330183",
"r  c #3C008B",
"t  c #390586",
"y  c #360395",
"u  c #2A1291",
"i  c #352396",
"p  c #2F00AE",
"a  c #0000B8",
"s  c #42018C",
"d  c #430889",
"f  c #481989",
"g  c #470698",
"h  c #4D1597",
"j  c #55178F",
"k  c #552E8F",
"l  c #6A2A94",
"z  c #4A03A6",
"x  c #5207AA",
"c  c #561AAB",
"v  c #4400B2",
"b  c #5604B8",
"n  c #4E16BB",
"m  c #562BB8",
"M  c #532EAE",
"N  c #7228BD",
"B  c #6D32B3",
"V  c #6B0BA6",
"C  c #745493",
"Z  c #5E42BA",
"A  c #7149B5",
"S  c #7A6FAB",
"D  c #0500CD",
"F  c #3900C7",
"G  c #3C04D6",
"H  c #2C00CB",
"J  c #5B04C7",
"K  c #4406D5",
"L  c #4717D5",
"P  c #4F0FCC",
"I  c #6512D3",
"U  c #5629CA",
"Y  c #4C25D7",
"T  c #5725D4",
"R  c #5736CA",
"E  c #6628C7",
"W  c #6837C3",
"Q  c #7A3CC5",
"!  c #753CD9",
"~  c #6C3DD7",
"^  c #5619E4",
"/  c #5C24E7",
"(  c #6327EA",
")  c #783DE6",
"_  c #7E43C2",
"`  c #7045D2",
"'  c #7E43E3",
"]  c #910899",
"[  c #A60099",
"{  c #A9179D",
"}  c #912F93",
"|  c #A92D9C",
" . c #9909A7",
".. c #9714A8",
"X. c #AA08B4",
"o. c #AB13A5",
"O. c #8D2FB0",
"+. c #AB2CB3",
"@. c #DB2BA1",
"#. c #897683",
"$. c #887984",
"%. c #996B9C",
"&. c #864CB1",
"*. c #A755A7",
"=. c #9678B4",
"-. c #916BB8",
";. c #AC74B4",
":. c #AA519E",
">. c #DC4699",
",. c #D45499",
"<. c #E1449E",
"1. c #DE50A6",
"2. c #E94CB0",
"3. c #C969B9",
"4. c #D475BC",
"5. c #8631D3",
"6. c #9E0DD9",
"7. c #CE12CA",
"8. c #D42CCD",
"9. c #DE33E0",
"0. c #994DCA",
"q. c #9A56CA",
"w. c #974AD4",
"e. c #8C51CF",
"r. c #A857CB",
"t. c #A657D5",
"y. c #BC5CDD",
"u. c #B45AD7",
"i. c #A64DCD",
"p. c #9B67C6",
"a. c #9977C9",
"s. c #9567D7",
"d. c #9173CB",
"f. c #A56ACC",
"g. c #A869D8",
"h. c #A577D5",
"j. c #B775DC",
"k. c #B06CD0",
"l. c #B55BE3",
"z. c #AB53E8",
"x. c #AB74E3",
"c. c #B673E2",
"v. c #894AEB",
"b. c #C25DDE",
"n. c #CA44DF",
"m. c #F057CD",
"M. c #C86CC5",
"N. c #CD6ED3",
"B. c #EB71D9",
"V. c #C85BE3",
"C. c #D257E6",
"Z. c #E35CEF",
"A. c #C562E3",
"S. c #D46AE8",
"D. c #C871E4",
"F. c #D873E9",
"G. c #DA78F4",
"H. c #D96FF1",
"J. c #E278F6",
"K. c #EE6AEA",
"L. c #92858D",
"P. c #958C92",
"I. c #998C95",
"U. c #9D8C97",
"Y. c #9D929A",
"T. c #999097",
"R. c #8E828B",
"E. c #A3949D",
"W. c #A79A9C",
"Q. c #A08F99",
"!. c #9B89AD",
"~. c #A69AA2",
"^. c #A798A4",
"/. c #B58FB4",
"(. c #B3A5AD",
"). c #B6AAAF",
"_. c #B6ABB1",
"`. c #BBABB4",
"'. c #B9A6B7",
"]. c #BCB4B7",
"[. c #AFA4AB",
"{. c #C385B9",
"}. c #E482BB",
"|. c #C3B2BC",
" X c #C4BDBD",
".X c #C0B8B7",
"XX c #C7C1BF",
"oX c #AE93CD",
"OX c #AD83D6",
"+X c #AE85D9",
"@X c #B487DA",
"#X c #BB97D6",
"$X c #B592CD",
"%X c #BBAFC6",
"&X c #B98AE4",
"*X c #BE93E2",
"=X c #C399DC",
"-X c #CD91CC",
";X c #EB93CE",
":X c #C9BDC4",
">X c #CFA7D6",
",X c #F2A4CE",
"<X c #E9A8D7",
"1X c #F5ABD4",
"2X c #E9B3DB",
"3X c #F5B4DA",
"4X c #E9AACC",
"5X c #D889EB",
"6X c #C797EA",
"7X c #DD85F7",
"8X c #D194EB",
"9X c #E589F9",
"0X c #E695F3",
"qX c #F09AF9",
"wX c #CCAAE7",
"eX c #D4A9E7",
"rX c #CEB3E8",
"tX c #D3B3EC",
"yX c #D8B8EA",
"uX c #D7B9F1",
"iX c #D4A3F2",
"pX c #E8BBE7",
"aX c #F0B3EB",
"sX c #CAC5C7",
"dX c #D1C9CD",
"fX c #DBD6D7",
"gX c #D7CDD3",
"hX c #E1DBDD",
"jX c #E0D9D7",
"kX c #F1C2DD",
"lX c #DBC4EA",
"zX c #E5C9EA",
"xX c #F7C7E7",
"cX c #E4DEE0",
"vX c #EAD7ED",
"bX c #F7D6EC",
"nX c #E7C9F2",
"mX c #EBD5F2",
"MX c #EBD9F1",
"NX c #F6DAF3",
"BX c #F6CAFB",
"VX c #E5E1E2",
"CX c #ECE9EA",
"ZX c #EAE6E6",
"AX c #F1EEEE",
"SX c #F7E8F8",
"DX c #F4F2F2",
"FX c #FDF9FC",
"GX c #F2F1EE",
"HX c #E5E1DF",
"JX c None",
/* pixels */
"JXJXJXJXJXJXJXJXJXJXJXJXJXJXJXJXJXJXJXJXJXJXJXJXJXJXJXJXJXJXJXJXJXJXJXJXJXJXJXJXJXJXJXJXJXJXJXJXJXJXJXJXJXJXJXJXJXJXJXJXJXJXJXJXJXJXJXJXJXJXJXJXJXJXJXJXJXJXJXJX",
"JXJXJXJXJXJXJXJXJXJXJXJXJXJXJXJXJXJXJXJXJXJXJXJXJXJXJXJXJXJXJXJXJXJXJXJXJXJXJXJXJXJXJXJXJXJXJXJXJXJXJXJXJXJXJXJXJXJXJXJXJXJXJXJXJXJXJXJXJXJXJXJXJXJXJXJXJXJXJXJX",
"JXJXJXJXJXJXJXJXJXJXJXJXJXJXJXJXJXJXJXJXJXJXJXJXJXJXJXJXJXJXJXJXJXJXJXJXJXJXJXJXJXJXJXJXJXJXJXJXJXJXJXJXJXJXJXJXJXJXJXJXJXJXJXJXJXJXJXJXJXJXJXJXJXJXJXJXJXJXJXJX",
"JXJXJXJXJXJXJXJXJXJXJXJXJXJXJXJXJXJXJXJXJXJXJXJXJXJXJXJXJXJXJXJXJXJXJXJXJXJXJXJXJXJXJXJXJXJXJXJXJXJXJXJXJXJXJXJXJXJXJXJXJXJXJXJXJXJXJXJXJXJXJXJXJXJXJXJXJXJXJXJX",
"JXJXJXJXJXJXJXJXJXJXJXJXJXJXJXJXJXJXJXJXJXJXJXJXJXJXJXJXJXJXJXJXJXJXJXJXJXJXJXJXJXJXJXJXJXJXJXJXJXJXJXJXJXJXJXJXJXJXJXJXJXJXJXJXJXJXJXJXJXJXJXJXJXJXJXJXJXJXJXJX",
"JXJXJXJXJXJXJXJXJXJXJXJXJXJXJXJXJXJXJXJXJXJXJXJXJXJXJXJXJXJXJXJXJXJXJXJXJXJXJXJXJXJXJXJXJXJXJXJXJXJXJXJXJXJXJXJXJXJXJXJXJXJXJXJXJXJXJXJXJXJXJXJXJXJXJXJXJXJXJXJX",
"JXJXJXJXJXJXJXJXJXJXJXJXJXJXJXJXJXJXJXJXJXJXJXJXJXJXJXJXJXJXJXJXJXJXJXJXJXJXJXJXJXJXJXJXJXJXJXJXJXJXJXJXJXJXJXJXJXJXJXJXJXJXJXJXJXJXJXJXJXJXJXJXJXJXJXJXJXJXJXJX",
"JXJXJXJXJXJXJXJXJXJXJXJXJXJXJXJXJXJXJXJXJXJXJXJXJXJXJXJXJXJXJXJXJXJXJXJXJXJXJXJXJXJXJXJXJXJXJXJXJXJXJXJXJXJXJXJXJXJXJXJXJXJXJXJXJXJXJXJXJXJXJXJXJXJXJXJXJXJXJXJX",
"JXJXJXJXJXJXJXJXJXJXJXJXJXJXJXJXJXJXJXJXJXJXJXJXJXJXJXJXJXJXJXJXJXJXJXJXJXJXJXJXJXJXJXJXJXJXJXJXJXJXJXJXJXJXJXJXJXJXJXJXJXJXJXJXJXJXJXJXJXJXJXJXJXJXJXJXJXJXJXJX",
"JXJXJXJXJXJXJXJXJXJXJXJXJXJXJXJXJXJXJXJXJXJXJXJXJXJXJXJXJXJXJXJXJXJXJXJX,X1XJXJXJXJXJXJXJXJXJXJXJXJXJXJXJXJXJXJXJXJXJXJXJXJXJXJXJXJXJXJXJXJXJXJXJXJXJXJXJXJXJXJX",
"JXJXJXJXJXJXJXJXJXJXJXJXJXJXJXJXJXJXJXJXJXJXJXJXJXJXJXJXJXJXJXJXJXJXJX,X1X,X1XJXJXJXJXJXJXJXJXJXJXJXJXJXJXJXJXJXJXJXJXJXJXJXJXJXJXJXJXJXJXJXJXJXJXJXJXJXJXJXJXJX",
"JXJXJXJXJXJXJXJXJXJXJXJXJXJXJXJXJXJXJXJXJXJXJXJXJXJXJXJXJXJXJXJXJXJXJX1X,X3XxXxXJXJXJXJXJXJXJXJXJXJXJXJXJXJXJXJXJXJXJXJXJXJXJXJXJXJXJXJXJXJXJXJXJXJXJXJXJXJXJXJX",
"JXJXJXJXJXJXJXJXJXJXJXJXJXJXJXJXJXJXJXJXJXJXJXJXJXJXJXJXJXJXJXJXJXJX1X1X1XxX3X3X1XJXJXJXJXJXJXJXJXJXJXJXJXJXJXJXJXJXJXJXJXJXJXJXJXJXJXJXJXJXJXJXJXJXJXJXJXJXJXJX",
"JXJXJXJXJXJXJXJXJXJXJXJXJXJXJXJXJXJXJXJXJXJXJXJXJXJXJXJXJXJXJXJXJX,.;XaXxX3X,X,X3XJXJXJXJXJXJXJXJXJXJXJXJXJXJXJXJXJXJXJXJXJXJXJXJXJXJXJXJXJXJXJXJXJXJXJXJXJXJXJX",
"JXJXJXJXJXJXJXJXJXJXJXJXJXJXJXJXJXJXJXJXJXJXJXJXJXJXJXJXJXJXJXJX,.2.2.aX3X,X,X,X3XNXJXJXJXJXJXJXJXJXJXJXJXJXJXJXJXJXJXJXJXJXJXJXJXJXJXJXJXJXJXJXJXJXJXJXJXJXJXJX",
"JXJXJXJXJXJXJXJXJXJXJXJXJXJXJXJXJXJXJXJXJXJXJXJXJXJXJXJXJXJXJXJX,.2.m.;X1X,X,X;X3XNXJXJXJXJXJXJXJXJXJXJXJXJXJXJXJXJXJXJXJXJXJXJXJXJXJXJXJXJXJXJXJXJXJXJXJXJXJXJX",
"JXJXJXJXJXJXJXJXJXJXJXJXJXJXJXJXJXJXJXJXJXJXJXJXJXJXJXJXJXJXJX,.2.m.2.>.}.1X3X3XxXbXJXJXJXJXJXJXJXJXJXJXJXJXJXJXJXJXJXJXJXJXJXJXJXJXJXJXJXJXJXJXJXJXJXJXJXJXJXJX",
"JXJXJXJXJXJXJXJXJXJXJXJXJXJXJXJXJXJXJXJXJXJXJXJXJXJXJXJXJXJX>.<.<.m.<.<.1.}.xXSXbXaX3XJXJXJXJXJXJXJXJXJXJXJXJXJXJXJXJXJXJXJXJXJXJXJXJXJXJXJXJXJXJXJXJXJXJXJXJXJX",
"JXJXJXJXJXJXJXJXJXJXJXJXJXJXJXJXJXJXJXJXJXJXJXJXJXJXJXJXJX,.2.<.<.2.2.2.>.@.}.bXbX3X<XJXJXJXJXJXJXJXJXJXJXJXJXJXJXJXJXJXJXJXJXJXJXJXJXJXJXJXJXJXJXJXJXJXJXJXJXJX",
"JXJXJXJXJXJXJXJXJXJXJXJXJXJXJXJXJXJXJXJXJXJXJXJXJXJXJXJXJX2.<.<.>.>.m.2.4.4X}.bXSXxX<X<XJXJXJXJXJXJXJXJXJXJXJXJXJXJXJXJXJXJXJXJXJXJXJXJXJXJXJXJXJXJXJXJXJXJXJXJX",
"JXJXJXJXJXJXJXJXJXJXJXJXJXJXJXJXJXJXJXJXJXJXJXJXJXJXJXJXm.K.m.m.m.<.2.m.B.B.B.bXxX<X<X<XJXJXJXJXJXJXJXJXJXJXJXJXJXJXJXJXJXJXJXJXJXJXJXJXJXJXJXJXJXJXJXJXJXJXJXJX",
"JXJXJXJXJXJXJXJXJXJXJXJXJXJXJXJXJXJXJXJXJXJXJXJXJXJXJXJXJX+.O.8.9.8.8.8.9.X.-XSXvXbXNX2XJXJXJXJXJXJXJXJXJXJXJXJXJXJXJXJXJXJXJXJXJXJXJXJXJXJXJXJXJXJXJXJXJXJXJXJX",
"JXJXJXJXJXJXJXJXJXJXJXJXJXJXJXJXJXJXJXJXJXJXJXJXJXJXJXJXJX......X...X.o.{ V #XMXrXnXNXbX2XJXJXJXJXJXJXJXJXJXf.f.f.k.f.a.JXJXJXJXJXJXJXJXJXJXJXJXJXJXJXJXJXJXJXJX",
"JXJXJXJXJXJXJXJXJXJXJXJXJXJXJXJXJXJXJXJXJXJXJXJXJXJXJXJXJX< ] O...] , , l A Q +XtXeXeXmX2XJXJXJXJXJXJXf.p.5Xj.j.j.t.6XvXJXJXJXJXJXJXJXJXJXJXJXJXJXJXJXJXJXJXJXJX",
"JXJXJXJXJXJXJXJXJXJXJXJXJXJXJXJXJXJXJXJXJXJXJXJXJXJXJXJXJX, < < , , > , O._ E @XuXrXtXtXyXJXJXJXJXJXp.c.c.5Xj.bXh.h.mXSXMXJXJXJXJXJXJXJXJXJXJXJXJXJXJXJXJXJXJXJX",
"JXJXJXJXJXJXJXJXJXJXJXJXJXJXJXJXJXJXJXJXJXJXJXJXJXJXwXFX[.} ; > < < , l _ _ N @XuXtXtXuXmXJXJXJXJXs c g.5Xk.q.eX+XnXmXSXMXJXJXJXJXJXJXJXJXJXJXJXJXJXJXJXJXJXJXJX",
"JXJXJXJXJXJXJXJXJXJXJXJXJXJXJXJXJXJXJXJXJXJXJXJXJXJX@XmXSX-X%.;.> 2 l e._ _ N +XuXeXwXmXMXJXJXJXJXx b J N #XOX$XnXmXmXmXSXMXJXJXJXJXJXJXJXJXJXJXJXJXJXJXJXJXJXJX",
"JXJXJXJXJXJXJXJXJXJXJXJXJXJXJXJXJXJXJXJXJXJXJXJXJXs.w.=XSXvXNXSX-Xl B B A _ N +XtXuXlXmXMXJXJXJXN J x c $ oXOXwXyXmXmXmXSXMXJXJXJXJXJXJXJXJXJXJXJXJXJXJXJXJXJXJX",
"JXJXJXJXJXJXJXJXJXJXJXJXJXJXJXJXJXJXJXJXJXJXJXJXf.e.I wXSXmXyX>XyXZ ' w.w.e.J #XnXMXBXuXJXJXJXJXx z t s f v a #X@XuXnXmXSXMXJXJXJXJXJXJXJXJXJXJXJXJXJXJXJXJXJXJX",
"JXJXJXJXJXJXJXJXJXJXJXJXJXJXJXJXJXJXJXJXJXJXJXJXk.g.5.#XNXeXu.9.b.h W w.t.l.5.rXmXiXiX6XJXJXJXJXt d s s d n Q mX>X6XnXnXSXNXJXJXJXJXJXJXJXJXJXJXJXJXJXJXJXJXJXJX",
"JXJXJXJXJXJXJXJXJXJXJXJXJXJXJXJXJXJXJXJXJXJXJXf.t.=X>XeXpX>X5XZ.S.i M Q Q 0.5.@XiX&XiXwXJXJXJXJXx s s s d v x.=XOX+XnXnXSXMXJXJXJXJXJXJXJXJXJXJXJXJXJXJXJXJXJXJX",
"JXJXJXJXJXJXJXJXJXJXJXJXJXJXJXJXJXJXJXJXJXJXJXg.g.@X6X=.q.5X9XC.u.0.B U E E F s.6XwXtXzXJXJXJXJXJ x s g f v c.x.h.+X*XBXmXJXJXJXJXJXJXJXJXJXJXJXJXJXJXJXJXJXJXJX",
"JXJXJXJXJXJXJXJXJXJXJXJXJXJXJXJXJXJXJXJXJXJXJXl B l g !.eX9.C.l.l.l.M n m E s.eXrXrXnXmXJXJXJXJXc J t d w p.6X&Xs.h.h.6XzXJXJXJXJXJXJXJXJXJXJXJXJXJXJXJXJXJXJXJX",
"JXJXJXJXJXJXJXJXJXJXJXJXJXJXJXJXJXJXJXJXJXJXJXJXw h $ '.rX6.b.l.l.u.i m Z B OXuXrXlXmXlXJXJXJXf z J x d r d.6X6X@Xg.&Xh.JXJXJXJXJXJXJXJXJXJXJXJXJXJXJXJXJXJXJXJX",
"JXJXJXJXJXJXJXJXJXJXJXJXJXJXJXJXJXJXJXJXJXJXJXJX* h s c b w.l.l.l.u.i ` B N h.nXmXmXlXJXJXJXJXw e c b e -.OX&X8X6Xx.x.oXJXJXJXJXJXJXJXJXJXJXJXJXJXJXJXJXJXJXJXJX",
"JXJXJXJXJXJXJXJXJXJXJXJXJXJXJXJXJXJXJXJXJXJXJXJXJXt x J p &.l.y.V.u.M ` v.z.6XSXlXrXuXJXJXJXJXC k y I b p.&X+X&X6X&Xd.JXJXJXJXJXJXJXJXJXJXJXJXJXJXJXJXJXJXJXJXJX",
"JXJXJXJXJXJXJXJXJXJXJXJXJXJXJXJXJXJXJXJXJXJXJXJXJXt x b t q 0.A.y.b.s.u ` ! 6XvXlXrX6XJXJX2XbXbX>Xl y w.x.+X+X+X6XoXJXJXJXJXJXJXJXJXJXJXJXJXJXJXJXJXJXJXJXJXJXJX",
"JXJXJXJXJXJXJXJXJXJXJXJXJXJXJXJXJXJXJXJXJXJXJXJXJX# g b y w i.V.b.S.y.u B n h.yXrX6X6XJXX xXxXbXxX>Xf -.iX@XOX&X&XJXJXJXJXJXJXJXJXJXJXJXJXJXJXJXJXJXJXJXJXJXJXJX",
"JXJXJXJXJXJXJXJXJXJXJXJXJXJXJXJXJXJXJXJXJXJXJXJXJX- y b t g 5.V.Z.Z.b.0 m v a.tX6X6XlXC X /.3XbXbXbX>X-.&X&Xh.+XJXJXJXJXJXJXJXJXJXJXJXJXJXJXJXJXJXJXJXJXJXJXJXJX",
"JXJXJXJXJXJXJXJXJXJXJXJXJXJXJXJXJXJXJXJXJXJXJXJXJXJXt z * x p i.C.y.g.A M b s.6X6XuXoXk @ + pXxXbXbXSXkXwX+X&Xh.JXJXJXJXJXJXJXJXJXJXJXJXJXJXJXJXJXJXJXJXJXJXJXJX",
"JXJXJXJXJXJXJXJXJXJXJXJXJXJXJXJXJXJXJXJXJXJXJXJXJXJX% z g d * i.A.y.A.b.q p d.wXwXlXC @ f = /.xXxXxXbXNXpX6X=.Q v.R M JXJXJXJXJXJXJXJXJXJXJXJXJXJXJXJXJXJXJXJXJX",
"JXJXJXJXJXJXJXJXJXJXJXJXJXJXJXJXJXJXJXJXJXJXJXJXJXJXJXy b g * B u.y.S.C.q 0 OXrXrXiXC X = * & !.;.;.;.=.j.a.+ W v.m s.h.JXJXJXJXJXJXJXJXJXJXJXJXJXJXJXJXJXJXJXJX",
"JXJXJXJXJXJXJXJXJXJXJXJXJXJXJXJXJXJXJXJXJXJXJXJXJXJXJX# y b b v V.Z.Z.b.q q d.uXiXH.y.1 X + * $ 0 0 0 $ k + X Q ' s.x.h.JXJXJXJXJXJXJXJXJXJXJXJXJXJXJXJXJXJXJXJX",
"JXJXJXJXJXJXJXJXJXJXJXJXJXJXJXJXJXJXJXJXJXJXJXJXJXJXJX# o y x g u.C.b.r.q $ -.oXi.J.J.j.1 o d m h f j f o O O Q g.+Xx.s.JXJXJXJXJXJXJXJXJXJXJXJXJXJXJXJXJXJXJXJX",
"JXJXJXJXJXJXJXJXJXJXJXJXJXJXJXJXJXJXJXJXJXJXJXJXJXJXJXJX# # * e i.b.y.b.q.$ k u &.J.H.9XD.1 r J b s s * O O O = OX+Xx.h.JXJXJXJXJXJXJXJXJXJXJXJXJXJXJXJXJXJXJXJX",
"JXJXJXJXJXJXJXJXJXJXJXJXJXJXJXJXJXJXJXJXJXJX4X2X4XJXJXJX% # # w j u.y.b.t.0 e * r.J.G.7XJ.D.q.z b t * O O O & * a.+Xh.e.JXJXJXJXJXJXJXJXJXJXJXJXJXJXJXJXJXJXJXJX",
"JXJXJXJXJXJXJXJXJXJXJXJXJXJXJXJXJXJXJX. ;.1X<XaXaX;.JXJX+ # # * s u.y.b.i.r e q.9XJ.9XG.H.J.D.z J * & * * * z J c c k JXJXJXJXJXJXJXJXJXJXJXJXJXJXJXJXJXJXJXJXJX",
"JXJXJXJXJXJXJXJXJXJXJXJXJXJXJXJXJXJXJX. 2 -X<X3X2XN.3.JXJX% # * g u.A.i.f e A G.9XJ.H.H.G.G.5Xh c & X X o f g b b c JXJXJXJXJXJXJXJXJXJXJXJXJXJXJXJXJXJXJXJXJXJX",
"JXJXJXJXJXJXJXJXJXJXJXJXJXJXJXJXJXJXJX: . . {.kX<X3.F.5X- @ % @ * u.0.e d y q.9XJ.H.G.5X5X9X5X* * l k C l $ f d f JXJXJXJXJXJXJXJXJXJXJXJXJXJXJXJXJXJXJXJXJXJXJX",
"JXJXJXJXJXJXJXJXJXJXJXJXJXJXJXJXJXJXJX: : : . =Xy.4.N.F.%.% # % # t.j e x K t.J.F.G.5X5X5XqXD.B -.=Xk.;X{.&.k d JXJXJXJXJXJXJXJXJXJXJXJXJXJXJXJXJXJXJXJXJXJXJXJX",
"JXJXJXJXJXJXJXJXJXJXJXJXJXJXJXJXJXJXJX: ; ; j D Y *.N.S.3.*.@ @ = e.c x I F E S.7X5X5X0XqX0XD.c.aXcXk.1X,X1X{.JXJXJXJXJXJXJXJXJXJXJXJXJXJXJXJXJXJXJXJXJXJXJXJXJX",
"JXJXJXJXJXJXJXJXJXJXJXJXJXJXJXJXJXJXJX: ; . P Y L U y.F.3.M.*.+ @ n T / ^ L D s.5X0X0X9X9XD.p.w.8XeX;X,X1X1X1X3XDXFXFXCXJXJXJXJXJXJXJXJXJXJXJXJXJXJXJXJXJXJXJXJX",
"JXJXJXJXJXJXJXJXJXJXJXJXJXJXJXJXJXJXJX: . h L L Y ^ ( u.M.3.N.j.= v T / K P F g.0XqX0XH.G.e.d.wXh.NXNXkX}.;.3.4.<XhXVXDXCXJXJXJXJXJXJXJXJXJXJXJXJXJXJXJXJXJXJXJX",
"JXJXJXJXJXJXJXJXJXJXJXJXJXJXJXJXJXJXJX6 g Y L Y ( ( L K r.k.S.F.;.U ^ ^ K T F c.qX0XF.7X7XB Z !.Z OXM.B.7.7.o.[ [ :XhXVXDXCXJXJXJXJXJXJXJXJXJXJXJXJXJXJXJXJXJXJX",
"JXJXJXJXJXJXJXJXJXJXJXJXJXJXJXJXJXJXfXU.U G Y L ( L G G Y s.F.M.3.r.( K P T H c.qXH.J.9X9X_ M p d.-X] X.X.8.8.o.| ].dXHXCXFXJXJXJXJXJXJXJXJXJXJXJXJXJXJXJXJXJXJX",
"JXJXJXJXJXJXJXJXJXJXJXJXJXJXJXJXJXJXDX].E.=.R K / L L Y L Y ' g.4.3.I K T T K z.G.G.9X7X7XA M v oXhX] ..]  .7.7.8.].].fXDXfXJXJXJXJXJXJXJXJXJXJXJXJXJXJXJXJXJXJX",
"JXJXJXJXJXJXJXJXJXJXJXJXJXJXJXJXJXJXDXfX X].~.=.R G G G G ^ / T r.M.m T P P K z.5X7X5X/./.e.~ m Z &.[ { {  . .X.8.].sXCXfX$.JXJXJXJXJXJXJXJXJXJXJXJXJXJXJXJXJXJX",
"JXJXJXJXJXJXJXJXJXJXJXJXJXJXJXJXJXJXdXAXHXfXXX].~.!.R R R / ^ H L f.~.!.W W T l.-XQ.^.W.E.A ! ! m V { { { o.{  .7.sXVXdX#.3 JXJXJXJXJXJXJXJXJXJXJXJXJXJXJXJXJXJX",
"JXJXJXJXJXJXJXJXJXJXJXJXJXJXJXJXJXJX8 sXZXCXHXfXXX].Y.~.W.d.R ` R ` Y.W.~.E.~.~.E.E._.].].A U v.` B { { | [ [ [ M.gX$.7 7 JXJXJXJXJXJXJXJXJXJXJXJXJXJXJXJXJXJXJX",
"JXJXJXJXJXJXJXJXJXJXJXJXJXJXJXJXJXJXJXR.9 dXGXZXhXgX XXXXXsX:X%X^.^.W.].].XX:XsX X:XsXsXsXS v m ` O.o.[ [ :.*.:XdX#.4 3 JXJXJXJXJXJXJXJXJXJXJXJXJXJXJXJXJXJXJXJX",
"JXJXJXJXJXJXJXJXJXJXJXJXJXJXJXJXJXJXJXJXP.9 sXGXAXhXcXfXcXfXcXdXsXsXsXsXsXfXcXhXfXfXhXfXfX:XS S P 6.8.%.:.'.cXgX#.4 #.8 JXJXJXJXJXJXJXJXJXJXJXJXJXJXJXJXJXJXJXJX",
"JXJXJXJXJXJXJXJXJXJXJXJXJXJXJXJXJXJXJXJXT.W.9 XXgXGXZXVXhXfXfXcXfXhXfXhXZXcXcXcXVXZXCXCXCXZXfX%XS -.-XdXdXcXgXL.4 #.3 JXJXJXJXJXJXJXJXJXJXJXJXJXJXJXJXJXJXJXJXJX",
"JXJXJXJXJXJXJXJXJXJXJXJXJXJXJXJXJXJXJXJXJXT.P.6 C dXGXGXCXCXCXVXcXVXcXVXCXCXGXGXDXgX]. X%X].sXHXjXjXjXHXAXgX$.P.#.4 JXJXJXJXJXJXJXJXJXJXJXJXJXJXJXJXJXJXJXJXJXJX",
"JXJXJXJXJXJXJXJXJXJXJXJXJXJXJXJXJXJXJXJXJXJXT.9 5 $._.[._._.(.cXDXDXDXDXDXhX[._._.P.3 8 9 8 R._.].).dXFXdXI.Y.T.#.3 JXJXJXJXJXJXJXJXJXJXJXJXJXJXJXJXJXJXJXJXJXJX",
"JXJXJXJXJXJXJXJXJXJXJXJXJXJXJXJXJXJXJXJXJXJXT.9 7 $.U.U.#.4 3 ^._._._._._.~.5 $.5 R.T.P.I.T.P.8 8 3 I.`.E.`.~.P.#.3 JXJXJXJXJXJXJXJXJXJXJXJXJXJXJXJXJXJXJXJXJXJX",
"JXJXJXJXJXJXJXJXJXJXJXJXJXJXJXJXJXJXJXJXJXJXJX8 $.[.|.|.|.(.W.$.8 #.#.#.$.R.Y.Y.P.].dXsXsXdX:XY.T.Y.P.$.(.`.E.$.7 JXJXJXJXJXJXJXJXJXJXJXJXJXJXJXJXJXJXJXJXJXJXJX",
"JXJXJXJXJXJXJXJXJXJXJXJXJXJXJXJXJXJXJXJXJXJXJXJXJXJXJX_.`.`.`.~.Y.Y.Y.Y.Y.Y.Y.$.[.fXVXcXcXcXhXgX XL.~.`.`.~.T.#.JXJXJXJXJXJXJXJXJXJXJXJXJXJXJXJXJXJXJXJXJXJXJXJX",
"JXJXJXJXJXJXJXJXJXJXJXJXJXJXJXJXJXJXJXJXJXJXJXJXJXJXJXJXJX_.`.`.(.E.P.T.P.P.Y.5 ~.:XdXfXfXjXhXHXfXsX(.`.|.E.Y.$.JXJXJXJXJXJXJXJXJXJXJXJXJXJXJXJXJXJXJXJXJXJXJXJX",
"JXJXJXJXJXJXJXJXJXJXJXJXJXJXJXJXJXJXJXJXJXJXJXJXJXJXJXJXJXJXJXJX_.Y.I.Y.I.U.L.4 U.`.`.|.`.gXhXdXY.(.|.|.^.P.T.JXJXJXJXJXJXJXJXJXJXJXJXJXJXJXJXJXJXJXJXJXJXJXJXJX",
"JXJXJXJXJXJXJXJXJXJXJXJXJXJXJXJXJXJXJXJXJXJXJXJXJXJXJXJXJXJXJXJXJXJXT.T.U.P.7 U.`.`.`.`.|.|.~.~.P.E.`._.JXJXJXJXJXJXJXJXJXJXJXJXJXJXJXJXJXJXJXJXJXJXJXJXJXJXJXJX",
"JXJXJXJXJXJXJXJXJXJXJXJXJXJXJXJXJXJXJXJXJXJXJXJXJXJXJXJXJXJXJXJXJXJXJXJX5 8 4 ^.:X|.:X|.`.(.I.P.JXJXJXJXJXJXJXJXJXJXJXJXJXJXJXJXJXJXJXJXJXJXJXJXJXJXJXJXJXJXJXJX",
"JXJXJXJXJXJXJXJXJXJXJXJXJXJXJXJXJXJXJXJXJXJXJXJXJXJXJXJXJXJXJXJXJXJXJXJXJXJXJXI.`.(.).(.JXJXJXJXJXJXJXJXJXJXJXJXJXJXJXJXJXJXJXJXJXJXJXJXJXJXJXJXJXJXJXJXJXJXJXJX",
"JXJXJXJXJXJXJXJXJXJXJXJXJXJXJXJXJXJXJXJXJXJXJXJXJXJXJXJXJXJXJXJXJXJXJXJXJXJXJXJXJXJXJXJXJXJXJXJXJXJXJXJXJXJXJXJXJXJXJXJXJXJXJXJXJXJXJXJXJXJXJXJXJXJXJXJXJXJXJXJX",
"JXJXJXJXJXJXJXJXJXJXJXJXJXJXJXJXJXJXJXJXJXJXJXJXJXJXJXJXJXJXJXJXJXJXJXJXJXJXJXJXJXJXJXJXJXJXJXJXJXJXJXJXJXJXJXJXJXJXJXJXJXJXJXJXJXJXJXJXJXJXJXJXJXJXJXJXJXJXJXJX",
"JXJXJXJXJXJXJXJXJXJXJXJXJXJXJXJXJXJXJXJXJXJXJXJXJXJXJXJXJXJXJXJXJXJXJXJXJXJXJXJXJXJXJXJXJXJXJXJXJXJXJXJXJXJXJXJXJXJXJXJXJXJXJXJXJXJXJXJXJXJXJXJXJXJXJXJXJXJXJXJX",
"JXJXJXJXJXJXJXJXJXJXJXJXJXJXJXJXJXJXJXJXJXJXJXJXJXJXJXJXJXJXJXJXJXJXJXJXJXJXJXJXJXJXJXJXJXJXJXJXJXJXJXJXJXJXJXJXJXJXJXJXJXJXJXJXJXJXJXJXJXJXJXJXJXJXJXJXJXJXJXJX",
"JXJXJXJXJXJXJXJXJXJXJXJXJXJXJXJXJXJXJXJXJXJXJXJXJXJXJXJXJXJXJXJXJXJXJXJXJXJXJXJXJXJXJXJXJXJXJXJXJXJXJXJXJXJXJXJXJXJXJXJXJXJXJXJXJXJXJXJXJXJXJXJXJXJXJXJXJXJXJXJX",
"JXJXJXJXJXJXJXJXJXJXJXJXJXJXJXJXJXJXJXJXJXJXJXJXJXJXJXJXJXJXJXJXJXJXJXJXJXJXJXJXJXJXJXJXJXJXJXJXJXJXJXJXJXJXJXJXJXJXJXJXJXJXJXJXJXJXJXJXJXJXJXJXJXJXJXJXJXJXJXJX",
"JXJXJXJXJXJXJXJXJXJXJXJXJXJXJXJXJXJXJXJXJXJXJXJXJXJXJXJXJXJXJXJXJXJXJXJXJXJXJXJXJXJXJXJXJXJXJXJXJXJXJXJXJXJXJXJXJXJXJXJXJXJXJXJXJXJXJXJXJXJXJXJXJXJXJXJXJXJXJXJX",
"JXJXJXJXJXJXJXJXJXJXJXJXJXJXJXJXJXJXJXJXJXJXJXJXJXJXJXJXJXJXJXJXJXJXJXJXJXJXJXJXJXJXJXJXJXJXJXJXJXJXJXJXJXJXJXJXJXJXJXJXJXJXJXJXJXJXJXJXJXJXJXJXJXJXJXJXJXJXJXJX"
};
